<?xml version="1.0" encoding="UTF-8" standalone="no"?>
<svg
   width="56.209808pt"
   height="55.428009pt"
   version="1.1"
   viewBox="0 0 56.209808 55.428009"
   id="svg6053"
   sodipodi:docname="Weather Icons-page001.svg"
   xmlns:inkscape="http://www.inkscape.org/namespaces/inkscape"
   xmlns:sodipodi="http://sodipodi.sourceforge.net/DTD/sodipodi-0.dtd"
   xmlns="http://www.w3.org/2000/svg"
   xmlns:svg="http://www.w3.org/2000/svg">
  <sodipodi:namedview
     id="namedview6055"
     pagecolor="#ffffff"
     bordercolor="#000000"
     borderopacity="0.25"
     inkscape:showpageshadow="2"
     inkscape:pageopacity="0.0"
     inkscape:pagecheckerboard="0"
     inkscape:deskcolor="#d1d1d1"
     inkscape:document-units="pt"
     showgrid="false" />
  <defs
     id="defs2330">
    <clipPath
       id="Clip35">
      <path
         d="M 0,0 H 56.2098 V 55.428 H 0 Z"
         id="path1644" />
    </clipPath>
    <linearGradient
       x2="26.945101"
       y2="13.7023"
       id="Grad233"
       x1="-2.7830501e-14"
       gradientUnits="userSpaceOnUse"
       y1="13.7023">
      <stop
         offset="0%"
         stop-color="#c6d6e0"
         stop-opacity="1"
         id="stop1647" />
      <stop
         offset="100%"
         stop-color="#81a4b6"
         stop-opacity="1"
         id="stop1649" />
    </linearGradient>
    <linearGradient
       x2="29.5909"
       y2="11.9227"
       id="Grad234"
       x1="-3.1163001"
       gradientUnits="userSpaceOnUse"
       y1="11.9227">
      <stop
         offset="0%"
         stop-color="#b4c9d7"
         stop-opacity="1"
         id="stop1652" />
      <stop
         offset="100%"
         stop-color="#718ea5"
         stop-opacity="1"
         id="stop1654" />
    </linearGradient>
    <linearGradient
       x2="18.0844"
       y2="8.8502798"
       id="Grad235"
       x1="4.4994202"
       gradientUnits="userSpaceOnUse"
       y1="8.8502798">
      <stop
         offset="0%"
         stop-color="#7696ae"
         stop-opacity="1"
         id="stop1657" />
      <stop
         offset="100%"
         stop-color="#91abbd"
         stop-opacity="1"
         id="stop1659" />
    </linearGradient>
    <linearGradient
       x2="29.057501"
       y2="28.1043"
       id="Grad236"
       x1="-1.39153e-14"
       gradientUnits="userSpaceOnUse"
       y1="28.1043">
      <stop
         offset="0%"
         stop-color="#81a4b6"
         stop-opacity="1"
         id="stop1662" />
      <stop
         offset="100%"
         stop-color="#c6d6e0"
         stop-opacity="1"
         id="stop1664" />
    </linearGradient>
    <linearGradient
       x2="27.9105"
       y2="27.531401"
       id="Grad237"
       x1="0.0001224"
       gradientUnits="userSpaceOnUse"
       y1="27.531401">
      <stop
         offset="0%"
         stop-color="#718ea5"
         stop-opacity="1"
         id="stop1667" />
      <stop
         offset="100%"
         stop-color="#b4c9d7"
         stop-opacity="1"
         id="stop1669" />
    </linearGradient>
    <linearGradient
       x2="0.126637"
       y2="0.004896"
       id="Grad238"
       x1="1.39153e-14"
       gradientUnits="userSpaceOnUse"
       y1="0.004896">
      <stop
         offset="0%"
         stop-color="#7e9eb8"
         stop-opacity="1"
         id="stop1672" />
      <stop
         offset="100%"
         stop-color="#9fbcd0"
         stop-opacity="1"
         id="stop1674" />
    </linearGradient>
    <linearGradient
       x2="9.7075396"
       y2="26.2903"
       id="Grad239"
       x1="-0.0001224"
       gradientUnits="userSpaceOnUse"
       y1="26.2903">
      <stop
         offset="0%"
         stop-color="#7e9eb8"
         stop-opacity="1"
         id="stop1677" />
      <stop
         offset="100%"
         stop-color="#9fbcd0"
         stop-opacity="1"
         id="stop1679" />
    </linearGradient>
    <linearGradient
       x2="15.9192"
       y2="24.487301"
       id="Grad240"
       x1="-2.7830501e-14"
       gradientUnits="userSpaceOnUse"
       y1="24.487301">
      <stop
         offset="0%"
         stop-color="#a2bccb"
         stop-opacity="1"
         id="stop1682" />
      <stop
         offset="100%"
         stop-color="#c6d6e0"
         stop-opacity="1"
         id="stop1684" />
    </linearGradient>
    <linearGradient
       x2="7.3628898"
       y2="21.645201"
       id="Grad241"
       x1="-0.0001224"
       gradientUnits="userSpaceOnUse"
       y1="21.645201">
      <stop
         offset="0%"
         stop-color="#7696ae"
         stop-opacity="1"
         id="stop1687" />
      <stop
         offset="100%"
         stop-color="#91abbd"
         stop-opacity="1"
         id="stop1689" />
    </linearGradient>
    <linearGradient
       x2="7.3917599"
       y2="10.3404"
       id="Grad242"
       x1="-2.7830501e-14"
       gradientUnits="userSpaceOnUse"
       y1="10.3404">
      <stop
         offset="0%"
         stop-color="#a2bccb"
         stop-opacity="1"
         id="stop1692" />
      <stop
         offset="100%"
         stop-color="#c6d6e0"
         stop-opacity="1"
         id="stop1694" />
    </linearGradient>
  </defs>
  <g
     inkscape:groupmode="layer"
     id="Background"
     inkscape:label="Background"
     transform="translate(-395.50098,-316.189)">
    <g
       id="clouds_w_typhon"
       style="fill:none;stroke:none"
       clip-path="url(#Clip35)"
       clip-rule="evenodd"
       transform="translate(395.501,316.189)">
      <path
         d="m 26.4484,26.2948 0.4964,1.1102 V 4.21877 l -0.9956,1.08814 -0.0049,0.00525 -0.0118,0.01231 -0.0186,0.019 -0.0253,0.02526 -0.0321,0.03118 -0.0387,0.03667 -0.0453,0.0418 L 25.7208,5.5249 25.6626,5.57579 25.598,5.63062 25.5271,5.68902 25.4499,5.75061 25.3665,5.815 25.2771,5.8818 25.1816,5.95061 25.08,6.02106 24.9725,6.09277 24.8592,6.16532 24.7401,6.23836 24.6153,6.31148 24.4847,6.3843 24.3484,6.45642 24.2067,6.52747 24.0596,6.59705 23.9069,6.66479 23.7489,6.73027 23.5856,6.79315 23.4171,6.85299 23.2434,6.90944 23.0646,6.96211 22.8807,7.01059 22.692,7.05452 22.4982,7.0935 22.2997,7.12712 22.0964,7.15503 21.8883,7.17683 21.6756,7.19211 21.4582,7.20052 21.2364,7.20166 21.1089,7.19899 20.9812,7.19394 20.8534,7.18646 20.7255,7.17659 20.5975,7.16432 20.4693,7.14965 20.3412,7.13258 20.2128,7.1131 20.0842,7.09124 19.9557,7.06698 19.827,7.04031 19.6982,7.01127 19.5693,6.97982 19.4403,6.94598 19.3112,6.90975 19.1819,6.87113 19.0527,6.83012 18.9232,6.78671 18.7937,6.74092 18.664,6.69276 18.5344,6.6422 18.4047,6.58926 18.2747,6.53393 18.1448,6.47622 18.0147,6.41612 17.8846,6.35366 17.7544,6.2888 17.6241,6.22158 17.4938,6.15197 17.3633,6.07999 17.2328,6.00563 17.1022,5.9289 16.9715,5.84979 16.8408,5.76831 16.71,5.68446 16.5792,5.59823 16.4482,5.50965 16.3173,5.41868 16.1862,5.32535 16.0551,5.22966 15.9239,5.13161 15.7927,5.03119 15.6614,4.9284 15.5301,4.82325 15.3987,4.71574 15.2672,4.60586 15.1357,4.49363 15.0043,4.37904 14.8727,4.2621 14.7411,4.1428 14.6094,4.02115 14.4777,3.89713 14.346,3.77076 14.2142,3.64204 14.0825,3.51097 13.9507,3.37755 13.8187,3.24178 13.6869,3.10366 13.5549,2.96319 13.423,2.82038 13.291,2.67522 13.159,2.52772 13.027,2.37788 12.9437,2.28471 12.8584,2.19321 12.771,2.10341 12.6817,2.01528 12.5907,1.92886 12.4977,1.84415 12.4028,1.76118 12.3061,1.67994 12.2077,1.60047 12.1075,1.52274 12.0056,1.4468 11.9021,1.37265 11.7969,1.30032 11.69,1.22978 11.5817,1.16108 11.4717,1.09421 11.3603,1.0292 11.2474,0.966053 11.133,0.904782 11.0172,0.845401 10.9001,0.787921 10.7815,0.732355 10.6617,0.678715 10.5406,0.627015 10.4182,0.577265 10.2946,0.529479 10.1698,0.483668 10.0439,0.439846 9.91682,0.398025 9.78867,0.358216 9.65945,0.320433 9.52922,0.284688 9.39798,0.250992 9.26579,0.21936 9.13267,0.189802 8.99865,0.162332 8.86377,0.136961 8.72805,0.113702 8.59154,0.0925679 8.45427,0.0735704 8.31625,0.056722 8.17753,0.0420352 8.03815,0.0295223 7.89813,0.0191956 7.7575,0.0110678 7.6163,0.00515096 7.47458,0.00145756 7.33232,0 7.1896,7.90637e-4 7.04645,0.00384185 6.90287,0.00916603 6.75893,0.0167755 6.60953,0.0270798 6.46075,0.0397623 6.31263,0.0548058 6.16521,0.0721931 6.01852,0.091907 5.87257,0.11393 5.72741,0.138246 5.58308,0.164836 5.4396,0.193683 5.29701,0.224772 5.15533,0.258083 5.01459,0.2936 4.87485,0.331305 4.73612,0.371183 4.59843,0.413214 4.46182,0.457382 4.32633,0.50367 4.19198,0.552061 4.0588,0.602536 3.92684,0.65508 3.7961,0.709675 3.66665,0.766302 3.5385,0.824947 3.41169,0.885591 3.28624,0.948216 3.1622,1.01281 3.0396,1.07934 2.91846,1.14781 2.79881,1.21819 2.68071,1.29046 2.56416,1.36463 2.4492,1.44064 2.33587,1.51849 2.2242,1.59818 2.11424,1.67967 2.00599,1.76296 1.8995,1.84803 1.79479,1.93485 1.69191,2.02341 1.59088,2.11369 1.49174,2.20568 1.39452,2.29936 1.29925,2.39472 1.20596,2.49172 1.11468,2.59036 1.02545,2.69062 0.938305,2.79248 0.853269,2.89594 0.770377,3.00095 0.689662,3.10753 0.611154,3.21563 0.534888,3.32525 0,4.11229 0.944928,4.21755 1.06661,4.23 1.19002,4.24033 1.31511,4.24879 1.44187,4.25559 1.57023,4.261 1.70018,4.26522 1.83168,4.2685 1.96467,4.27109 2.09912,4.27319 2.23502,4.27508 2.35485,4.27674 2.47561,4.2786 2.59727,4.28083 2.71981,4.28362 2.84324,4.28713 2.96753,4.29156 3.09266,4.29708 3.21863,4.30387 3.34542,4.3121 3.47303,4.32198 3.60142,4.33366 3.73059,4.34732 3.86053,4.36316 3.99123,4.38134 4.12266,4.40205 4.25482,4.42547 4.38769,4.45177 4.52125,4.48115 4.65548,4.51377 4.79039,4.5498 4.92596,4.58946 5.06217,4.63289 5.19901,4.68029 5.33646,4.73184 5.4745,4.7877 5.61314,4.84808 5.75233,4.91314 5.8921,4.98305 6.03241,5.05801 6.17324,5.13819 6.31459,5.22377 6.45644,5.31495 6.59878,5.41187 6.7416,5.51474 6.88488,5.62373 7.02859,5.73902 7.17275,5.86078 7.31732,5.98922 7.4623,6.12448 7.60766,6.26677 7.7534,6.41624 7.89951,6.57311 8.04598,6.73753 8.19276,6.90969 8.33987,7.08975 8.4873,7.27792 l 0.14771,0.19645 0.148,0.2049 0.14825,0.21353 0.14852,0.22234 0.14874,0.23135 0.14897,0.24052 0.14918,0.24988 0.14939,0.2594 0.14956,0.26912 0.14974,0.27901 0.14984,0.28909 0.1501,0.29929 0.1501,0.3098 0.1503,0.3204 0.1503,0.3312 0.1505,0.3421 0.1505,0.3533 0.1846,0.4347 0.1861,0.4275 0.1877,0.42 0.1891,0.4126 0.1906,0.4052 0.192,0.3977 0.1934,0.3902 0.1949,0.3827 0.1962,0.3752 0.1975,0.3677 0.1989,0.3601 0.2003,0.3525 0.2015,0.3449 0.2028,0.3373 0.204,0.3297 0.2053,0.322 0.2065,0.3144 0.2076,0.3067 0.2088,0.2989 0.21,0.2913 0.2112,0.2834 0.2121,0.2757 0.2133,0.2679 0.2145,0.2601 0.2153,0.2523 0.2165,0.2444 0.2174,0.2365 0.2183,0.2286 0.2195,0.2208 0.2203,0.2129 0.2212,0.2049 0.2222,0.1968 0.223,0.189 0.2238,0.1809 0.2246,0.173 0.2256,0.1648 0.2263,0.1568 0.2271,0.1487 0.2278,0.1406 0.2285,0.1325 0.2293,0.1244 0.2299,0.1161 0.2306,0.1081 0.2313,0.0998 0.2319,0.0916 0.2324,0.0834 0.2332,0.075 0.2336,0.0669 0.2341,0.0585 0.2348,0.0503 0.2351,0.0418 0.2357,0.0336 0.2362,0.0251 0.2366,0.0167 0.2369,0.0085 0.2374,-10e-5 0.2378,-0.0086 0.238,-0.017 0.2385,-0.0255 0.2388,-0.034 0.239,-0.0425 0.2393,-0.0511 0.2396,-0.0597 0.0396,-0.0115 0.0497,-0.0113 0.0589,-0.0093 0.0672,-0.0049 0.0744,0.0014 0.0807,0.0101 0.0863,0.0207 0.0905,0.0335 0.0943,0.0485 0.0968,0.0654 0.0985,0.0847 0.0993,0.1059 0.0991,0.1294 0.098,0.155 0.0959,0.1825 0.0929,0.2123 0.089,0.2443 0.0841,0.2782 0.0783,0.3145 z"
         style="fill:url(#Grad233);fill-rule:evenodd;stroke:none"
         transform="rotate(-90,34.0747,21.3533)"
         id="path4907" />
      <path
         d="m 25.3608,5.12097 -0.0043,0.00465 -0.013,0.01359 -0.0214,0.02202 -0.0297,0.02991 -0.0382,0.0373 -0.0464,0.04416 -0.0546,0.05049 -0.0627,0.05632 -0.0706,0.06161 -0.0787,0.06638 -0.0864,0.07064 -0.0943,0.07437 -0.1018,0.07757 -0.1095,0.08027 -0.1171,0.08244 -0.1243,0.08408 -0.1318,0.08521 -0.1391,0.08582 -0.1463,0.08589 -0.1533,0.08545 -0.1604,0.0845 -0.1673,0.08301 -0.1742,0.081 -0.181,0.0785 -0.1876,0.07543 -0.1943,0.07188 -0.2007,0.06778 -0.2074,0.06319 -0.2136,0.05804 -0.2198,0.05238 -0.2262,0.04623 -0.2322,0.03953 -0.2382,0.0323 -0.2443,0.02458 -0.25,0.01631 -0.256,0.00753 L 20.1226,7.19957 19.8554,7.18798 19.5825,7.16603 19.3043,7.13324 19.0207,7.08905 18.7317,7.03296 18.4376,6.96443 18.1383,6.88296 17.834,6.78801 17.5247,6.67906 17.2105,6.55561 16.8916,6.41711 16.5678,6.26307 16.2394,6.09294 15.9065,5.90622 15.569,5.70236 15.2272,5.48088 14.8811,5.24122 14.5307,4.98288 14.1762,4.70533 13.8176,4.40805 13.4551,4.09053 13.0885,3.75223 12.7182,3.39265 12.3442,3.01125 11.9664,2.60751 11.5852,2.18092 11.4479,2.02975 11.3056,1.88407 11.1585,1.74388 11.0068,1.60918 10.8507,1.47995 10.6902,1.35619 10.5257,1.23789 10.3572,1.12504 10.1849,1.01763 10.009,0.915662 9.82967,0.819118 9.64709,0.727992 9.4614,0.642277 9.27279,0.561964 9.08144,0.487046 8.8875,0.417514 8.69113,0.353359 8.49254,0.294574 8.29188,0.24115 8.08931,0.19308 7.88501,0.150355 7.67914,0.112967 7.4719,0.0809074 7.26344,0.0541687 7.05392,0.0327426 6.84353,0.0166209 6.63243,0.00579531 6.42079,2.57735e-4 6.20878,0 5.99658,0.00501394 5.78435,0.0152914 5.57227,0.0308242 5.36051,0.0516042 5.14923,0.0776231 4.93861,0.108873 4.72881,0.145345 4.52002,0.187032 4.3124,0.233926 4.1061,0.286018 3.90132,0.343299 3.69822,0.405763 3.49697,0.4734 3.29774,0.546203 3.1007,0.624163 2.90602,0.707272 2.71388,0.795523 2.52443,0.888906 2.33785,0.987414 2.15433,1.09104 1.97402,1.19977 1.79709,1.31361 1.62371,1.43253 1.45406,1.55654 1.28832,1.68562 1.12663,1.81977 0.969182,1.95899 0.81614,2.10325 0.667677,2.25255 0.523963,2.4069 0.385167,2.56626 0.251461,2.73065 0.123016,2.90005 0,3.07444 0.128301,3.0872 0.258586,3.09755 0.390821,3.10583 0.524969,3.1123 0.660995,3.11728 0.798863,3.12108 0.93854,3.12397 1.07999,3.12627 1.22317,3.12827 1.36805,3.13028 1.5146,3.1326 1.66277,3.13551 1.81254,3.13933 1.96387,3.14435 2.11671,3.15086 2.27105,3.15918 2.42684,3.1696 2.58404,3.18241 2.7426,3.19792 2.90253,3.21643 3.06376,3.23824 3.22627,3.26364 3.39,3.29293 l 0.16495,0.0335 0.1661,0.03798 0.16724,0.04278 0.16833,0.04787 0.16939,0.05327 0.17041,0.05894 0.1714,0.06495 0.17235,0.07124 0.17327,0.07782 0.17414,0.08471 0.175,0.0919 0.1758,0.09939 0.17657,0.10717 0.17732,0.11527 0.17801,0.12364 0.17869,0.13233 0.17932,0.14131 0.1799,0.1506 0.18047,0.16019 0.18099,0.17006 0.18148,0.18025 0.18194,0.19072 0.18235,0.2015 0.18274,0.21258 0.18308,0.22397 0.18339,0.23564 0.18367,0.24762 0.18391,0.25989 0.1841,0.27247 0.18427,0.28535 0.18442,0.29853 0.18451,0.31199 0.18457,0.32577 0.18459,0.33984 0.18458,0.35422 0.18453,0.36887 0.18445,0.38386 0.18437,0.39918 0.1842,0.4146 0.184,0.4306 0.1845,0.4344 0.1859,0.4262 0.1872,0.4183 0.1884,0.41 0.1896,0.4021 0.1909,0.3941 0.192,0.3859 0.1932,0.378 0.1943,0.37 0.1954,0.362 0.1965,0.3538 0.1974,0.346 0.1986,0.338 0.1993,0.3299 0.2005,0.322 0.2013,0.3139 0.2022,0.306 0.2032,0.2981 0.2039,0.2902 0.2046,0.2821 0.2055,0.2743 0.2063,0.2662 0.207,0.2584 0.2075,0.2506 0.2084,0.2425 0.2089,0.2346 0.2097,0.2268 0.21,0.2189 0.2108,0.211 0.2111,0.203 0.2118,0.1954 0.2121,0.1873 0.2126,0.1795 0.213,0.1717 0.2135,0.1639 0.2137,0.156 0.214,0.1482 0.2144,0.1404 0.2145,0.1326 0.215,0.1247 0.215,0.117 0.2152,0.1092 0.2154,0.1013 0.2156,0.0937 0.2155,0.0858 0.2158,0.0781 0.2157,0.0703 0.2156,0.0626 0.2158,0.0548 0.2157,0.0471 0.2156,0.0395 0.2154,0.0317 0.2154,0.0239 0.2152,0.0162 0.2149,0.0086 0.2148,8e-4 0.2146,-0.0067 0.2142,-0.0146 0.214,-0.0221 0.2137,-0.0299 0.2132,-0.0374 0.2128,-0.0452 0.2125,-0.0528 0.0219,-0.0067 0.0618,-0.0164 0.0961,-0.0198 0.1244,-0.0177 0.147,-0.0091 0.1639,0.0051 0.1748,0.0252 0.18,0.0516 0.1795,0.0837 0.173,0.1218 0.161,0.1659 0.143,0.216 0.1193,0.2719 z"
         style="fill:url(#Grad234);fill-rule:evenodd;stroke:none"
         transform="rotate(-90,33.85675,20.56145)"
         id="path4909" />
      <path
         d="M 21.8773,8.29703 21.8725,8.3001 21.8584,8.30905 21.8352,8.32346 21.8027,8.34293 21.7613,8.36703 21.7109,8.39537 21.6519,8.42752 21.5843,8.46309 21.5081,8.50165 21.4237,8.5428 21.3309,8.58612 21.23,8.63121 21.1211,8.67765 21.0043,8.72503 20.8798,8.77293 20.7477,8.82096 20.6081,8.8687 20.461,8.91574 l -0.1542,0.04592 -0.1615,0.0444 -0.1684,0.04246 -0.1753,0.04011 -0.182,0.03735 -0.1887,0.0342 -0.1953,0.0306 -0.2014,0.02663 -0.208,0.02221 -0.2139,0.01739 -0.22,0.01218 -0.2259,0.00655 -0.2317,4.9e-4 L 17.6974,9.27027 17.4546,9.25744 17.2064,9.23733 16.9529,9.20952 16.6943,9.17362 16.4306,9.1292 16.1619,9.07587 15.8886,9.01319 15.6107,8.94077 15.3282,8.8582 15.0412,8.76505 14.7499,8.66093 14.4546,8.5454 14.1552,8.41808 13.8519,8.27856 13.5449,8.12641 13.2341,7.96121 12.9198,7.78258 12.6022,7.5901 12.2811,7.38334 11.957,7.16189 11.6298,6.92537 11.2997,6.67335 10.9668,6.4054 10.6312,6.12114 10.2931,5.82013 9.95258,5.50199 9.60975,5.1663 9.26475,4.81262 8.9177,4.44057 8.56871,4.04974 8.21794,3.63971 8.08066,3.47678 7.94519,3.31788 7.81145,3.16299 7.67935,3.01208 7.54881,2.86514 7.41977,2.72215 7.29214,2.58308 7.16583,2.4479 7.0408,2.31663 6.91693,2.1892 6.79417,2.06562 6.67243,1.94587 6.55164,1.8299 6.43172,1.71772 6.31257,1.60932 6.19415,1.50463 6.07636,1.40367 5.95913,1.3064 5.84238,1.21281 5.72603,1.12288 5.61,1.03658 5.49422,0.953893 5.37861,0.874801 5.26308,0.799283 5.14757,0.727318 5.032,0.658883 4.91628,0.593961 4.80034,0.532527 4.68411,0.474564 4.5675,0.42005 4.45044,0.368964 4.33284,0.321285 4.21464,0.276994 4.09575,0.236068 3.97609,0.198488 3.8556,0.164233 3.73418,0.133281 3.61177,0.105614 3.48828,0.0812098 3.36364,0.0600474 3.23777,0.0421065 3.11059,0.0273663 2.98203,0.0158062 2.85199,0.0074056 2.72043,0.00214376 2.58724,0 2.45236,9.5365e-4 2.31569,0.00498403 2.17718,0.0120705 2.03674,0.0221923 1.89429,0.0353288 1.74974,0.0514594 1.60305,0.0705632 1.45411,0.0926198 1.30285,0.117608 1.1492,0.145508 0.993072,0.176299 0.834392,0.209959 0.673084,0.24647 0.509068,0.285808 0.342267,0.327954 0.172604,0.372888 0,0.420587 0.0732451,0.402649 0.148454,0.38633 0.225605,0.371719 0.304676,0.35891 0.385642,0.347995 0.468482,0.339069 0.553173,0.332223 0.639693,0.327549 0.728018,0.325138 0.818126,0.325086 0.909995,0.327484 1.0036,0.332424 1.09892,0.339999 1.19594,0.350303 1.29462,0.363425 1.39496,0.379461 1.4969,0.398501 1.60047,0.42064 1.70561,0.445968 1.8123,0.47458 1.92053,0.506567 2.03026,0.542021 2.14149,0.581036 2.25418,0.623704 2.36832,0.670118 2.48388,0.720369 2.60084,0.774551 2.71916,0.832756 2.83885,0.895077 2.95986,0.961605 3.08219,1.03243 3.20579,1.10766 3.33066,1.18737 3.45677,1.27165 3.58409,1.36061 3.71261,1.45433 3.84231,1.55291 3.97314,1.65643 4.10511,1.765 4.23817,1.87869 4.37232,1.99763 4.50754,2.12187 4.64378,2.25152 4.78104,2.38668 4.91928,2.52744 5.0585,2.67388 5.19866,2.82611 5.33975,2.98421 5.48173,3.14827 5.62459,3.3184 5.7683,3.49467 5.91285,3.67719 6.0582,3.86605 6.20435,4.06133 6.35125,4.26314 6.4989,4.47157 6.64726,4.68668 6.79632,4.90862 6.94607,5.13743 7.09645,5.37324 7.24746,5.61612 7.39908,5.86617 7.64323,6.27078 7.88702,6.66888 8.13043,7.06041 8.37348,7.44536 8.61614,7.82369 8.85842,8.19537 9.10031,8.56039 9.3418,8.9187 l 0.24109,0.35158 0.24069,0.34484 0.24032,0.33806 0.2398,0.33122 0.2395,0.3244 0.239,0.3176 0.2386,0.3106 0.2382,0.3038 0.2377,0.2968 0.2373,0.2898 0.2368,0.2827 0.2364,0.2759 0.236,0.2687 0.2355,0.2617 0.235,0.2545 0.2345,0.2474 0.234,0.2402 0.2336,0.233 0.2331,0.2259 0.2326,0.2186 0.2322,0.2112 0.2316,0.204 0.2311,0.1967 0.2306,0.1893 0.2301,0.1819 0.2295,0.1744 0.2291,0.1671 0.2285,0.1596 0.2279,0.1521 0.2276,0.1446 0.2268,0.137 0.2264,0.1295 0.2259,0.1218 0.2252,0.1142 0.2247,0.1064 0.2241,0.0989 0.2235,0.0911 0.223,0.0834 0.2224,0.0756 0.2218,0.0678 0.2212,0.06 0.2207,0.0521 0.2201,0.0443 0.2193,0.0364 0.2189,0.0284 0.2182,0.0204 0.2175,0.0124 0.217,0.0044 0.2163,-0.0036 0.2158,-0.0117 0.215,-0.0197 0.2144,-0.028 0.2138,-0.036 0.2131,-0.0443 0.2125,-0.0525 z"
         style="fill:url(#Grad235);fill-rule:evenodd;stroke:none"
         transform="rotate(-90,33.0154,17.9193)"
         id="path4911" />
      <path
         d="m 14.9837,48.7189 -0.0011,-0.1292 -0.0034,-0.129 -0.0055,-0.1287 -0.0079,-0.1286 -0.01,-0.1281 -0.0122,-0.1279 -0.0145,-0.1277 -0.0165,-0.1272 -0.0188,-0.1268 -0.021,-0.1263 -0.0231,-0.1259 -0.0252,-0.1255 -0.0274,-0.1251 -0.0297,-0.1243 -0.0315,-0.124 -0.0338,-0.1233 -0.036,-0.1228 -0.038,-0.122 -0.0401,-0.1214 -0.0422,-0.1208 -0.0443,-0.1201 -0.0463,-0.1192 -0.0485,-0.1186 -0.0504,-0.1178 0.2166,-0.0091 0.2153,-0.0146 0.2138,-0.02 0.2122,-0.0252 0.2105,-0.0304 0.209,-0.0355 0.2072,-0.0407 0.2053,-0.0455 0.2035,-0.0506 0.2015,-0.0554 0.1995,-0.0602 0.1974,-0.065 0.1954,-0.0697 0.193,-0.0741 0.1908,-0.0789 0.1884,-0.0832 0.186,-0.0876 0.1835,-0.0921 0.181,-0.0962 0.1784,-0.1005 0.1757,-0.1045 0.173,-0.1087 0.1701,-0.1127 0.1672,-0.1166 0.1643,-0.1205 0.1613,-0.1243 0.1583,-0.128 0.1549,-0.1317 0.1519,-0.1352 0.1485,-0.139 0.1453,-0.1422 0.1417,-0.1458 0.1383,-0.1489 0.1348,-0.1524 0.1311,-0.1555 0.1275,-0.1587 0.1237,-0.1617 0.1199,-0.1648 0.1159,-0.1677 0.1121,-0.1705 0.1081,-0.1734 0.1039,-0.176 0.0998,-0.1788 0.0956,-0.1814 0.0913,-0.1839 0.0869,-0.1864 0.0826,-0.1887 0.078,-0.1912 0.0736,-0.1934 0.0687,-0.1956 0.0643,-0.1977 0.0594,-0.1999 0.0547,-0.2018 0.0497,-0.2037 0.0448,-0.2056 0.0398,-0.2075 0.0346,-0.2092 0.0295,-0.2109 0.0244,-0.2124 0.0189,-0.214 0.0137,-0.2154 0.0082,-0.2169 0.0028,-0.2183 -9e-4,-0.1297 -0.0031,-0.1296 -0.005,-0.1294 -0.0071,-0.1292 -0.0091,-0.1291 -0.011,-0.1288 -0.013,-0.1286 -0.015,-0.1284 L 22.5123,36.0819 22.4934,35.9541 22.4725,35.8268 22.4498,35.6999 22.4251,35.5734 22.3985,35.4472 22.3699,35.3215 22.3395,35.1961 22.3072,35.0714 22.273,34.9472 22.2369,34.8234 22.199,34.7003 22.1592,34.5776 22.1174,34.4557 22.074,34.3343 22.0286,34.2136 21.9814,34.0937 21.9325,33.9743 21.8817,33.8557 21.8291,33.738 21.7747,33.6208 21.7185,33.5047 21.6606,33.3893 21.6009,33.2746 21.5395,33.1609 21.4762,33.048 l -0.0649,-0.1119 -0.0667,-0.111 -0.0684,-0.1099 -0.0702,-0.1091 0.221,-0.0714 0.2187,-0.0758 0.2164,-0.0799 0.214,-0.084 0.2116,-0.0881 0.2092,-0.0921 0.2067,-0.0962 0.2042,-0.1 0.2017,-0.1038 0.199,-0.1077 0.1963,-0.1115 0.1938,-0.1152 0.1909,-0.1188 0.1883,-0.1224 0.1854,-0.126 0.1825,-0.1295 0.1797,-0.133 0.1768,-0.1364 0.1738,-0.1396 0.1707,-0.143 0.1677,-0.1463 0.1646,-0.1494 0.1615,-0.1525 0.1582,-0.1557 0.1551,-0.1588 0.1519,-0.1617 0.1485,-0.1646 0.1452,-0.1676 0.1418,-0.1702 0.1383,-0.1732 0.135,-0.1758 0.1314,-0.1786 0.1279,-0.1811 0.1242,-0.1837 0.1207,-0.1863 0.117,-0.1886 0.1132,-0.1912 0.1096,-0.1935 0.1057,-0.1958 0.1019,-0.1981 0.098,-0.2003 0.0941,-0.2024 0.0903,-0.2046 0.0861,-0.2066 0.082,-0.2085 0.0781,-0.2106 0.0739,-0.2125 0.0698,-0.2142 0.0655,-0.2161 0.0613,-0.2178 0.0571,-0.2195 0.0527,-0.2212 0.0484,-0.2228 0.0438,-0.2242 0.0395,-0.2257 0.035,-0.2273 0.0304,-0.2286 0.0259,-0.2298 0.0213,-0.2312 0.0166,-0.2325 0.0119,-0.2335 0.0071,-0.2348 0.0025,-0.2357 -0.0028,-0.2464 -0.0083,-0.2454 -0.014,-0.2446 -0.0193,-0.2433 -0.0248,-0.2422 -0.03,-0.241 L 28.9229,20.1959 28.8822,19.9574 28.8366,19.7205 28.7857,19.485 28.7299,19.2511 28.669,19.0189 28.6032,18.7883 28.5325,18.5594 28.457,18.3325 28.3767,18.1074 28.2918,17.8842 28.2023,17.6632 28.1081,17.4442 28.0094,17.2274 27.9063,17.0129 27.7988,16.8007 27.6869,16.591 27.5706,16.3836 27.4503,16.1788 27.3257,15.9766 27.1969,15.777 27.0641,15.5802 26.9274,15.3862 26.7868,15.1951 26.6421,15.007 26.4937,14.8218 26.3415,14.6397 26.1856,14.4608 26.026,14.2851 25.863,14.1127 25.6963,13.9437 25.5262,13.7781 25.3526,13.6159 25.1756,13.4574 24.9954,13.3026 24.8119,13.1514 24.6253,13.0039 24.4356,12.8603 24.2427,12.7207 24.0468,12.585 23.848,12.4535 23.6463,12.326 23.4418,12.2027 23.2345,12.0837 23.0244,11.969 22.8117,11.8587 22.5964,11.7529 22.3785,11.6516 22.1582,11.555 l -0.2228,-0.092 -0.2251,-0.0872 -0.2275,-0.0824 -0.2296,-0.0775 -0.232,-0.0726 -0.234,-0.0676 -0.2361,-0.0624 -0.2382,-0.0573 0.0124,-0.1598 0.0094,-0.158 0.0066,-0.1565 0.0038,-0.1551 0.0012,-0.1539 L 20.3429,9.90635 20.3326,9.64169 20.3157,9.37879 20.2921,9.11772 20.2619,8.85858 20.2251,8.60144 20.1822,8.34638 20.1328,8.0935 20.0773,7.84288 20.0155,7.59459 19.9478,7.34874 19.874,7.10539 19.7944,6.86464 19.709,6.62656 19.6178,6.39125 19.5211,6.1588 19.4188,5.92926 19.3109,5.70275 19.1977,5.47933 19.0793,5.25911 18.9556,5.04216 18.8268,4.82855 18.6931,4.61838 18.5542,4.41175 18.4106,4.20871 18.2621,4.00937 18.109,3.8138 17.9512,3.62209 17.7889,3.43432 17.6221,3.2506 17.4509,3.07098 17.2755,2.89556 17.0959,2.72442 16.9121,2.55765 16.7244,2.39532 16.5327,2.23753 16.3371,2.08436 16.1378,1.9359 15.9348,1.79223 15.7282,1.65343 15.518,1.51958 15.3043,1.39078 15.0874,1.26711 14.8672,1.14864 14.6437,1.03547 14.4173,0.927677 14.1876,0.825348 13.9552,0.728568 13.7199,0.63742 13.4817,0.551989 13.241,0.472359 12.9977,0.398614 12.7518,0.33084 12.5035,0.26912 12.2529,0.213538 12,0.164179 11.7449,0.121128 11.4877,0.0844679 11.2286,0.0542845 10.9675,0.0306616 10.7045,0.0136836 10.4399,0.00343497 10.1735,0 9.9072,0.00343497 9.64256,0.0136836 9.37966,0.0306616 9.11859,0.0542845 8.85945,0.0844679 8.6023,0.121128 8.34724,0.164179 8.09436,0.213538 7.84372,0.26912 7.59543,0.33084 7.34957,0.398614 7.10621,0.472359 6.86545,0.551989 6.62736,0.63742 6.39205,0.728568 6.15956,0.825348 5.93002,0.927677 5.7035,1.03547 5.48007,1.14864 5.25982,1.26711 5.04284,1.39078 4.82922,1.51958 4.61903,1.65343 4.41237,1.79223 4.20932,1.9359 4.00996,2.08436 3.81436,2.23753 3.62264,2.39532 3.43486,2.55765 3.2511,2.72442 3.07146,2.89556 2.89602,3.07098 2.72486,3.2506 2.55806,3.43432 2.39572,3.62209 2.23791,3.8138 2.08472,4.00937 1.93623,4.20871 1.79254,4.41175 1.65372,4.61838 1.51985,4.82855 1.39103,5.04216 1.26733,5.25911 1.14885,5.47933 1.03566,5.70275 0.92785,5.92926 0.825504,6.1588 0.728707,6.39125 0.637542,6.62656 0.552096,6.86464 0.472452,7.10539 0.398694,7.34874 0.330906,7.59459 0.269174,7.84288 0.213581,8.0935 0.164212,8.34638 0.121152,8.60144 0.0844854,8.85858 0.0542958,9.11772 0.0306681,9.37879 0.0136865,9.64169 0.00343571,9.90635 0,10.1727 0.0026928,10.2591 0.0064872,10.3685 0,47.2403 0.00170675,47.3787 0.00672123,47.52 0.0148848,47.6648 0.0260389,47.8136 0.0400248,47.9673 0.0260389,48.125 0.0148848,48.2784 0.00672123,48.428 0.00170675,48.5747 0,48.7189 l 0.00252997,0.1961 0.00754843,0.1949 0.0125049,0.1936 0.0173989,0.1922 0.022231,0.1909 0.0270007,0.1893 0.0317091,0.1879 0.036354,0.1862 0.040936,0.1846 0.04546,0.1828 0.049917,0.181 0.054314,0.1792 0.058649,0.1773 0.062922,0.1754 0.067131,0.1732 0.07128,0.1712 0.075367,0.169 0.07939,0.1668 0.083352,0.1646 0.08725,0.162 0.091085,0.1599 0.09487,0.1573 0.09857,0.1547 0.10223,0.1521 0.10581,0.1496 0.10936,0.1468 0.1128,0.144 0.11621,0.1412 0.11954,0.1381 0.12283,0.1354 0.12605,0.1322 0.12919,0.1293 0.13229,0.1259 0.13532,0.1229 0.13828,0.1195 0.14119,0.1161 0.14403,0.1129 0.14682,0.1093 0.14952,0.1057 0.15219,0.1022 0.15478,0.0986 0.15732,0.0948 0.15978,0.0911 0.16219,0.0873 0.16453,0.0833 0.16682,0.0793 0.16904,0.0754 0.1712,0.0713 0.17329,0.067 0.17534,0.063 0.1773,0.0586 0.17921,0.0543 0.18106,0.05 0.18284,0.0454 0.18458,0.0409 0.18623,0.0363 0.18782,0.0317 0.18938,0.0271 0.19083,0.0221 0.19227,0.0175 0.1936,0.0125 0.1949,0.0075 0.19612,0.0026 0.19612,-0.0026 0.1949,-0.0075 0.1936,-0.0125 0.19226,-0.0175 0.19084,-0.0221 0.18938,-0.0271 0.18782,-0.0317 0.18623,-0.0363 0.18458,-0.0409 0.18284,-0.0454 0.18105,-0.05 0.17922,-0.0543 0.1773,-0.0586 0.1753,-0.063 0.1733,-0.067 0.1712,-0.0713 0.1691,-0.0754 0.1668,-0.0793 0.1645,-0.0833 0.1622,-0.0873 0.1598,-0.0911 0.1573,-0.0948 0.1548,-0.0986 0.1522,-0.1022 0.1495,-0.1057 0.1468,-0.1093 0.144,-0.1129 0.1412,-0.1161 0.1383,-0.1195 0.1354,-0.1229 0.1322,-0.1259 0.1292,-0.1293 0.1261,-0.1322 0.1228,-0.1354 0.1196,-0.1381 0.1161,-0.1412 0.1129,-0.144 0.1093,-0.1468 0.1059,-0.1496 0.1022,-0.1521 0.0985,-0.1547 0.0949,-0.1573 0.091,-0.1599 0.0873,-0.162 0.0833,-0.1646 0.0795,-0.1668 0.0754,-0.169 0.0712,-0.1712 0.0671,-0.1732 0.0629,-0.1754 0.0588,-0.1773 0.0542,-0.1792 0.0499,-0.181 0.0456,-0.1828 0.0408,-0.1846 0.0364,-0.1862 0.0317,-0.1879 0.027,-0.1893 0.0222,-0.1909 0.0174,-0.1922 0.0126,-0.1936 0.0074,-0.1949 z"
         style="fill:url(#Grad236);fill-rule:evenodd;stroke:none"
         transform="rotate(-90,14.5287,14.5287)"
         id="path4913" />
      <path
         d="M 13.8366,48.146 13.8354,48.0137 13.8316,47.8819 13.8254,47.7504 13.8168,47.6194 13.8056,47.4888 13.792,47.3586 13.776,47.229 13.7575,47.1 13.7366,46.9714 13.7133,46.8435 13.6876,46.716 13.6595,46.5894 13.629,46.4632 13.5961,46.3378 13.5608,46.213 13.5231,46.089 13.4832,45.9657 13.4407,45.8432 13.3961,45.7214 13.3491,45.6005 13.2997,45.4804 13.248,45.3611 13.194,45.2427 13.1377,45.1253 13.0791,45.0087 13.0182,44.8931 12.9551,44.7786 12.8896,44.665 l -0.0677,-0.1126 0.1434,0.0118 0.1423,0.0094 0.1411,0.0066 0.1404,0.0039 0.1396,0.0013 0.2073,-0.0027 0.2058,-0.0079 0.2047,-0.0132 0.2031,-0.0184 0.2017,-0.0235 0.2,-0.0285 0.1985,-0.0336 0.1967,-0.0384 0.195,-0.0432 0.1933,-0.048 0.1913,-0.0527 0.1893,-0.0574 0.1873,-0.062 0.1853,-0.0664 0.1831,-0.071 0.1809,-0.0753 0.1786,-0.0797 0.1763,-0.0838 0.1738,-0.088 0.1713,-0.0923 0.1689,-0.0962 0.1663,-0.1003 0.1635,-0.1041 0.1608,-0.108 0.158,-0.1118 0.1551,-0.1155 0.1522,-0.1192 0.1492,-0.1228 0.1461,-0.1263 0.143,-0.1297 0.1398,-0.1332 0.1364,-0.1365 0.1333,-0.1398 0.1298,-0.1429 0.1263,-0.1462 0.1228,-0.1492 0.1192,-0.1521 0.1155,-0.1551 0.1118,-0.158 0.1081,-0.1609 0.1041,-0.1635 0.1003,-0.1662 0.0962,-0.1688 0.0921,-0.1714 0.0882,-0.1738 0.0838,-0.1762 0.0797,-0.1787 0.0753,-0.1808 0.071,-0.1831 0.0664,-0.1853 0.0621,-0.1873 0.0573,-0.1894 0.0527,-0.1913 0.0481,-0.1931 0.0432,-0.1951 0.0385,-0.1967 0.0335,-0.1986 0.0285,-0.2 0.0235,-0.2017 0.0184,-0.203 0.0132,-0.2047 0.008,-0.2059 0.0026,-0.2072 L 21.4437,36.537 21.4404,36.4046 21.4348,36.2724 21.4271,36.1404 21.4172,36.009 21.4051,35.8778 21.3909,35.747 21.3743,35.6167 21.3557,35.4868 21.3351,35.3574 21.3122,35.2284 21.2872,35.1 21.26,34.9721 21.2309,34.8447 21.1996,34.7179 21.1661,34.5917 21.1306,34.4662 21.0931,34.3413 21.0534,34.217 21.0117,34.0934 20.968,33.9707 20.9222,33.8485 20.8745,33.7271 20.8246,33.6065 20.7729,33.4868 20.719,33.3678 20.6632,33.2497 20.6054,33.1325 20.5457,33.0162 20.484,32.9006 20.4204,32.7862 20.3548,32.6727 20.2872,32.5601 20.2177,32.4486 20.1463,32.3381 20.073,32.2287 19.9978,32.1202 19.9207,32.013 l -0.0789,-0.1063 -0.0808,-0.105 -0.0828,-0.1038 0.2276,-0.0554 0.2256,-0.0602 0.2232,-0.0649 0.2211,-0.0695 0.2188,-0.0741 0.2164,-0.0784 0.2142,-0.083 0.2117,-0.0874 0.2093,-0.0916 0.2067,-0.0959 0.2042,-0.1 0.2014,-0.1043 0.1989,-0.1084 0.1962,-0.1122 0.1934,-0.1163 0.1906,-0.1202 0.1878,-0.124 0.1847,-0.1277 0.1819,-0.1315 0.1788,-0.1353 0.1758,-0.1386 0.1727,-0.1424 0.1695,-0.1458 0.1662,-0.1492 0.163,-0.1525 0.1598,-0.1559 0.1564,-0.1591 0.153,-0.1623 0.1495,-0.1654 0.146,-0.1685 0.1425,-0.1715 0.1388,-0.1745 0.1352,-0.1773 0.1315,-0.1802 0.1276,-0.1828 0.124,-0.1857 0.1201,-0.1883 0.1161,-0.1909 0.1123,-0.1934 0.1082,-0.196 0.1042,-0.1983 0.1001,-0.2006 0.0959,-0.2029 0.0917,-0.2053 0.0875,-0.2073 0.0833,-0.2095 0.0788,-0.2116 0.0744,-0.2135 0.07,-0.2155 0.0655,-0.2173 0.061,-0.2192 0.0564,-0.2209 0.0518,-0.2227 0.047,-0.2243 0.0423,-0.2258 0.0375,-0.2275 0.0326,-0.2287 0.0278,-0.2304 0.0228,-0.2316 0.0179,-0.2329 0.0128,-0.234 0.0077,-0.2354 0.0026,-0.2363 -0.0028,-0.2444 -0.0085,-0.2432 -0.014,-0.2421 -0.0196,-0.2407 -0.025,-0.2394 -0.0303,-0.2381 -0.0358,-0.2366 -0.0409,-0.2351 -0.0462,-0.2336 -0.0513,-0.2318 -0.0564,-0.2301 -0.0615,-0.2283 -0.0665,-0.2264 -0.0713,-0.2245 -0.0761,-0.2224 -0.0811,-0.2205 -0.0857,-0.2182 -0.0904,-0.216 -0.095,-0.2139 -0.0995,-0.2114 -0.104,-0.2089 L 26.64,16.3136 26.5271,16.1097 26.41,15.9085 26.2886,15.7098 26.1629,15.514 26.0331,15.3209 25.8994,15.1308 25.7614,14.9437 25.6197,14.7596 25.4739,14.5786 25.3243,14.4007 25.1711,14.2262 25.014,14.0549 24.8533,13.887 24.6889,13.7226 24.5211,13.5618 24.3498,13.4045 24.175,13.2509 23.9969,13.101 23.8155,12.9548 23.6308,12.8126 23.443,12.6743 23.252,12.54 23.058,12.4098 22.861,12.2837 22.661,12.1618 22.4581,12.0443 22.2524,11.931 22.044,11.8222 21.8329,11.7179 21.619,11.6181 21.4026,11.5229 21.1838,11.4325 20.9623,11.3468 20.7386,11.2659 20.5124,11.19 20.284,11.119 l -0.2306,-0.066 -0.2328,-0.0608 -0.235,-0.0557 -0.237,-0.0504 -0.2389,-0.0451 0.0192,-0.1461 0.0168,-0.1438 0.0144,-0.1415 0.0121,-0.1395 L 19.182,10.1326 19.1896,9.99695 19.195,9.86302 19.1982,9.73069 19.1993,9.59983 19.1961,9.34851 19.1864,9.09875 19.1704,8.85066 19.1481,8.60428 19.1196,8.35972 19.085,8.11707 19.0443,7.87637 18.9978,7.63772 18.9453,7.40121 18.8871,7.16691 18.8232,6.93489 18.7535,6.70524 18.6785,6.47806 18.5978,6.25338 18.5118,6.03132 18.4205,5.81194 18.3239,5.59534 18.2222,5.38159 18.1154,5.17075 18.0037,4.96293 17.8869,4.75819 17.7654,4.55661 17.6391,4.35828 17.5081,4.16328 17.3725,3.97167 17.2325,3.78356 17.0879,3.599 16.9391,3.41809 16.7858,3.24091 16.6284,3.06752 16.467,2.89802 16.3014,2.73247 16.132,2.57096 15.9585,2.41359 15.7813,2.26041 15.6004,2.11151 15.4159,1.96697 15.2278,1.82687 15.0361,1.69129 14.8411,1.56029 14.6428,1.43399 14.4412,1.31245 14.2365,1.19574 14.0286,1.08394 13.8179,0.977145 13.604,0.875424 13.3875,0.778859 13.168,0.687531 12.946,0.601516 12.7213,0.520896 12.4941,0.445753 12.2645,0.376161 12.0324,0.312204 11.7981,0.25396 11.5616,0.20151 11.3229,0.154931 11.0822,0.114304 10.8395,0.0797099 10.595,0.0512266 10.3486,0.0289344 10.1005,0.0129128 9.85069,0.00324148 9.59934,0 9.34803,0.00324148 9.09829,0.0129128 8.85019,0.0289344 8.60384,0.0512266 8.3593,0.0797099 8.11664,0.114304 7.87596,0.154931 7.63733,0.20151 7.40083,0.25396 7.16653,0.312204 6.93454,0.376161 6.7049,0.445753 6.47771,0.520896 6.25305,0.601516 6.031,0.687531 5.81164,0.778859 5.59505,0.875424 5.3813,0.977145 5.17048,1.08394 4.96266,1.19574 4.75793,1.31245 4.55636,1.43399 4.35805,1.56029 4.16306,1.69129 3.97146,1.82687 3.78335,1.96697 3.5988,2.11151 3.41791,2.26041 3.24072,2.41359 3.06736,2.57096 2.89786,2.73247 2.73232,2.89802 2.57083,3.06752 2.41346,3.24091 2.26029,3.41809 2.11139,3.599 1.96686,3.78356 1.82676,3.97167 1.69119,4.16328 1.56021,4.35828 1.43392,4.55661 1.31237,4.75819 1.19567,4.96293 1.08388,5.17075 0.97709,5.38159 0.875375,5.59534 0.778817,5.81194 0.687491,6.03132 0.601482,6.25338 0.520868,6.47806 0.445727,6.70524 0.37614,6.93489 0.312187,7.16691 0.253946,7.40121 0.201499,7.63772 0.154922,7.87637 0.114298,8.11707 0.0797054,8.35972 0.0512238,8.60428 0.0289328,8.85066 0.0129121,9.09875 0.0032413,9.34851 0,9.59983 0.0016983,9.66011 0.0066096,9.71856 0.0074664,9.77119 0.0066096,9.83484 0.0016983,9.89573 0,9.95846 V 46.6674 l 0.00182523,0.138 0.0054326,0.1409 0.00897537,0.1447 0.0124534,0.1492 0.015867,0.1543 -0.015867,0.1584 -0.0124534,0.154 L 0.00725783,47.8567 0.00182523,48.003 0,48.146 l 0.00275464,0.1967 0.00821486,0.1955 0.0136017,0.194 0.0189149,0.1924 0.0241547,0.191 0.0293209,0.1892 0.0344143,0.1876 0.039432,0.1858 0.044379,0.1839 0.049251,0.182 0.05405,0.1799 0.058775,0.1779 0.063427,0.1757 0.068004,0.1736 0.07251,0.1711 0.076942,0.1689 0.081298,0.1664 0.085583,0.1637 0.089794,0.1614 0.093929,0.1585 0.098,0.1559 0.10198,0.153 0.10591,0.1501 0.10974,0.1472 0.11351,0.1441 0.11722,0.141 0.12083,0.1379 0.12438,0.1346 0.12786,0.1313 0.13126,0.1278 0.13459,0.1243 0.13785,0.1208 0.14103,0.1173 0.14414,0.1135 0.14716,0.1098 0.15013,0.1058 0.15303,0.102 0.15583,0.0979 0.15858,0.094 0.16124,0.0897 0.16383,0.0856 0.16635,0.0813 0.1688,0.077 0.17118,0.0724 0.17348,0.0679 0.1757,0.0636 0.17785,0.0587 0.17994,0.054 0.18194,0.0492 0.18388,0.0444 0.18573,0.0395 0.18751,0.0343 0.18922,0.0294 0.19087,0.0241 0.19244,0.0189 0.19392,0.0136 0.19534,0.0083 0.19668,0.0027 0.19669,-0.0027 0.19533,-0.0083 0.19393,-0.0136 0.19244,-0.0189 0.19088,-0.0241 0.18923,-0.0294 0.18753,-0.0343 0.18576,-0.0395 0.18388,-0.0444 0.18196,-0.0492 0.17995,-0.054 0.17787,-0.0587 0.17573,-0.0636 0.17349,-0.0679 0.1712,-0.0724 0.16883,-0.077 0.16642,-0.0813 0.1638,-0.0856 0.1613,-0.0897 0.1586,-0.094 0.1559,-0.0979 0.153,-0.102 0.1502,-0.1058 0.1472,-0.1098 0.1441,-0.1135 0.1411,-0.1173 0.1379,-0.1208 0.1346,-0.1243 0.1313,-0.1278 0.1279,-0.1313 0.1244,-0.1346 0.1209,-0.1379 0.1173,-0.141 0.1134,-0.1441 0.1098,-0.1472 0.106,-0.1501 0.102,-0.153 0.098,-0.1559 0.0939,-0.1585 0.0898,-0.1614 0.0857,-0.1637 0.0813,-0.1664 0.077,-0.1689 0.0726,-0.1711 0.0679,-0.1736 0.0635,-0.1757 0.0588,-0.1779 0.0541,-0.1799 0.0492,-0.182 0.0444,-0.1839 0.0394,-0.1858 0.0345,-0.1876 0.0293,-0.1892 0.0242,-0.191 0.0189,-0.1924 0.0136,-0.194 0.0082,-0.1955 z"
         style="fill:url(#Grad237);fill-rule:evenodd;stroke:none"
         transform="rotate(-90,14.528016,13.955184)"
         id="path4915" />
      <path
         d="M 0.126684,0.011016 0.123746,0.004131 0.120074,0 0.0600372,0.001377 0,0.003672 0.063342,0.006885 Z"
         style="fill:url(#Grad238);fill-rule:evenodd;stroke:none"
         transform="rotate(90,15.20775,29.15985)"
         id="path4917" />
      <path
         d="M 8.6259,6.60715 8.6243,6.74308 8.61947,6.88228 8.61128,7.02515 8.59962,7.17199 8.5844,7.32319 8.60286,7.50738 8.6158,7.68411 8.62341,7.8542 8.6259,8.01842 V 43.0726 l -0.00129,0.0586 -0.00239,0.0576 -0.00428,0.0637 0.00428,0.0489 0.00239,0.0554 0.00129,0.0573 -0.00288,0.2312 -0.00859,0.2298 -0.01424,0.2284 -0.0198,0.2268 -0.02532,0.2253 -0.03074,0.2235 -0.03613,0.2217 -0.04142,0.22 -0.04666,0.2181 -0.05182,0.2162 -0.05692,0.2142 -0.06195,0.212 -0.0669,0.2099 -0.0718,0.2077 L 8.01409,46.7043 7.93271,46.9074 7.84665,47.108 7.75595,47.3061 7.66071,47.5017 7.56099,47.6948 7.45685,47.885 7.34837,48.0725 7.2356,48.2572 7.11864,48.4391 6.99751,48.6179 6.87233,48.7937 6.74314,48.9665 6.61,49.136 l -0.137,0.1664 -0.14081,0.163 -0.14453,0.1596 -0.1482,0.1563 -0.15179,0.1526 -0.15532,0.1492 -0.15878,0.1456 -0.16218,0.1418 -0.1655,0.1381 -0.16875,0.1342 -0.17194,0.1303 -0.17505,0.1263 -0.17812,0.1223 -0.18109,0.1181 -0.184,0.1141 -0.18685,0.1097 -0.18963,0.1055 -0.19233,0.101 -0.19498,0.0967 -0.19756,0.092 L 3.02554,51.8463 2.82306,51.9292 2.6182,52.0074 2.41104,52.0807 2.20165,52.1493 1.99009,52.2128 1.77644,52.2714 1.56076,52.3249 1.34313,52.3734 1.1236,52.4166 0.902252,52.4545 0.67915,52.4872 0.454361,52.5144 0.227955,52.5362 0,52.5524 0.179311,52.5652 0.359249,52.5761 0.540029,52.5806 0.780075,52.5775 1.01862,52.5682 1.25558,52.5529 1.49088,52.5316 1.72446,52.5045 1.95622,52.4714 2.1861,52.4326 2.41401,52.3882 2.6399,52.3381 2.86367,52.2825 3.08525,52.2215 3.30457,52.155 3.52155,52.0833 3.7361,52.0063 3.94817,51.9242 4.15767,51.8369 4.36454,51.7447 4.56867,51.6475 4.77001,51.5456 4.96849,51.4388 5.16401,51.3275 5.35649,51.2114 5.5459,51.0907 5.73211,50.9658 5.91509,50.8363 6.09472,50.7025 6.27097,50.5644 6.44372,50.4223 6.61292,50.276 6.77849,50.1257 6.94035,49.9715 7.09843,49.8135 7.25265,49.6517 7.40294,49.4861 7.5492,49.3169 7.69138,49.1441 7.8294,48.968 7.96318,48.7883 8.09265,48.6053 8.21772,48.4191 8.33833,48.2298 8.45439,48.0372 8.56582,47.8418 8.67258,47.6433 8.77455,47.442 8.87167,47.238 8.96388,47.0311 9.05109,46.8215 9.13321,46.6096 9.21018,46.395 l 0.07175,-0.2169 0.06646,-0.2193 0.06106,-0.2216 0.05562,-0.2236 0.05007,-0.226 0.04447,-0.2278 0.0388,-0.2298 0.03303,-0.2317 0.02719,-0.2336 0.02129,-0.2352 0.0153,-0.237 0.00923,-0.2384 0.00309,-0.24 -0.0014,-0.0573 -0.00361,-0.0554 -0.00368,-0.0489 0.00368,-0.0637 0.00361,-0.0576 0.0014,-0.0586 V 8.01842 L 9.70507,7.8542 9.69749,7.68411 9.68457,7.50738 9.66605,7.32319 9.68131,7.17199 9.69298,7.02515 9.70115,6.88228 9.70597,6.74308 9.70754,6.60715 9.70462,6.40908 9.6959,6.21245 9.68146,6.01733 9.6614,5.8238 9.63579,5.63197 9.60472,5.44188 9.56825,5.25364 9.52649,5.06732 9.4795,4.88303 9.42739,4.70081 9.37022,4.52077 9.30808,4.34298 9.24105,4.16754 9.16922,3.99451 9.09266,3.82398 9.01146,3.65605 8.92569,3.49077 8.83546,3.32825 8.74083,3.16856 8.64188,3.01177 8.53871,2.85799 8.43139,2.70729 8.32001,2.55975 8.20464,2.41545 8.08538,2.27447 7.9623,2.13691 7.83548,2.00283 7.70502,1.87233 7.57098,1.74549 7.43345,1.62238 7.29252,1.50308 7.14827,1.3877 7.00078,1.27629 6.85013,1.16895 6.69641,1.06576 6.53969,0.966802 6.38006,0.872158 6.2176,0.781908 6.05241,0.696137 5.88454,0.614927 5.7141,0.538358 5.54116,0.466515 5.3658,0.399481 5.18811,0.337334 5.00817,0.280161 4.82605,0.228042 4.64186,0.181059 4.45565,0.139296 4.26754,0.102834 4.07757,0.0717553 3.88586,0.046143 3.69247,0.0260789 3.49749,0.0116455 3.30101,0.00292509 3.10308,0 2.92043,0.00398933 2.74021,0.0139627 2.56146,0.026928 2.74558,0.0445492 2.9282,0.0671888 3.10927,0.0947766 3.28872,0.127242 l 0.17775,0.037275 0.17597,0.042011 0.17415,0.046678 0.17223,0.051277 0.17026,0.055803 0.1682,0.060261 0.16607,0.064647 0.1639,0.068963 0.16163,0.07321 0.15929,0.077386 0.15688,0.081493 0.15442,0.085528 0.15186,0.089493 0.14925,0.093393 0.14657,0.09721 0.14379,0.10097 0.14097,0.10465 0.13808,0.10827 0.13509,0.11182 0.13207,0.11529 0.12894,0.11869 0.12576,0.12203 0.12251,0.12529 0.11918,0.12848 0.11579,0.13161 0.11233,0.13466 0.10878,0.13764 0.10518,0.14055 0.10149,0.1434 0.09775,0.14618 0.09392,0.14887 0.09003,0.15151 0.08608,0.15406 0.08204,0.15656 0.07793,0.15899 0.07376,0.16132 0.06951,0.16363 0.0652,0.16581 0.06081,0.16797 0.05635,0.17004 0.05183,0.17203 0.04722,0.17397 0.04256,0.17583 0.03781,0.17762 0.033,0.17933 0.02811,0.181 0.02317,0.18255 0.01814,0.18408 0.01304,0.18551 0.00788,0.18689 z"
         style="fill:url(#Grad239);fill-rule:evenodd;stroke:none"
         transform="rotate(90,18.34955,36.04625)"
         id="path4919" />
      <path
         d="M 6.42979,7.42601 6.4166,7.56097 6.40094,7.69395 6.38196,7.82607 6.35877,7.95845 6.33049,8.09221 6.29626,8.22845 6.25519,8.36832 6.20641,8.51292 6.43005,8.55518 6.65182,8.60241 6.87167,8.65456 7.08954,8.71154 7.3054,8.77331 7.51915,8.8398 7.73078,8.91093 7.94021,8.98666 8.14737,9.0669 l 0.20486,0.0847 0.2025,0.0891 0.20009,0.09343 0.19759,0.09768 0.19507,0.1019 0.19248,0.10602 0.18985,0.1101 0.18713,0.1141 0.18439,0.11805 0.18157,0.12192 0.1787,0.1257 0.1758,0.1295 0.1728,0.1332 0.1698,0.1368 0.1666,0.1403 0.1636,0.1439 0.1603,0.1472 0.1571,0.1506 0.1537,0.1539 0.1504,0.1572 0.147,0.1603 0.1435,0.1634 0.1399,0.1665 0.1364,0.1694 0.1327,0.1724 0.129,0.1752 0.1252,0.1779 0.1216,0.1807 0.1175,0.1833 0.1135,0.186 0.1097,0.1885 0.1056,0.1909 0.1016,0.1933 0.0973,0.1956 0.0932,0.1979 0.089,0.2001 0.0846,0.2022 0.0801,0.2043 0.0758,0.2064 0.0714,0.2082 0.0667,0.2101 0.0621,0.212 0.0576,0.2137 0.0527,0.2153 0.0481,0.2171 0.0432,0.2186 0.0383,0.22 0.0335,0.2215 0.0284,0.2229 0.0233,0.2241 0.0183,0.2253 0.0132,0.2266 0.0078,0.2276 0.0027,0.2287 -0.0024,0.2213 -0.0072,0.2202 -0.012,0.2191 -0.0167,0.218 -0.0214,0.2169 -0.026,0.2154 -0.0306,0.2142 -0.0351,0.2128 -0.0395,0.2114 -0.0441,0.2099 -0.0483,0.2085 -0.0528,0.2067 -0.0572,0.2052 -0.0612,0.2034 -0.0656,0.2017 -0.0696,0.1999 -0.0738,0.198 -0.0779,0.196 -0.0818,0.1941 -0.0858,0.1921 -0.0899,0.1899 -0.0936,0.1878 -0.0976,0.1855 -0.1012,0.1834 -0.105,0.181 -0.1088,0.1787 -0.1124,0.1763 -0.1159,0.1737 -0.1196,0.1712 -0.123,0.1687 -0.1266,0.166 -0.1299,0.1631 -0.1333,0.1606 -0.1367,0.1577 -0.1399,0.1548 -0.1432,0.1519 -0.1463,0.1489 -0.1495,0.1459 -0.1526,0.1429 -0.1556,0.1396 -0.1587,0.1364 -0.1616,0.1333 -0.1645,0.1299 -0.1673,0.1264 -0.1702,0.1231 -0.173,0.1196 -0.17567,0.1162 -0.17836,0.1125 -0.181,0.1088 -0.18358,0.1051 -0.18613,0.1014 -0.18862,0.0976 -0.19107,0.0937 -0.19346,0.0898 -0.19583,0.0858 -0.19813,0.0818 -0.20039,0.0777 -0.20261,0.0736 -0.20479,0.0694 -0.2069,0.065 -0.20899,0.0608 -0.21102,0.0564 -0.213,0.052 0.08347,0.1049 0.08142,0.1063 0.07939,0.1073 0.07733,0.1087 0.07526,0.1098 0.07319,0.111 0.0711,0.1121 0.06901,0.1133 0.0669,0.1143 0.06477,0.1154 0.06266,0.1164 0.0605,0.1174 0.05838,0.1185 0.0562,0.1193 0.05403,0.1202 0.05185,0.1212 0.04967,0.122 0.04745,0.1229 0.04525,0.1238 0.04302,0.1244 0.04079,0.1253 0.03854,0.1259 0.0363,0.1268 0.03402,0.1273 0.03175,0.1282 0.02947,0.1286 0.02717,0.1293 0.02486,0.1298 0.02253,0.1304 0.02022,0.1309 0.01787,0.1315 0.01554,0.132 0.01317,0.1323 0.01079,0.1327 0.00841,0.1331 0.00602,0.1336 0.00363,0.1339 0.00121,0.1341 -0.0026,0.2001 -0.00773,0.1987 -0.01282,0.1969 -0.01783,0.1955 -0.02279,0.1936 -0.02768,0.192 -0.03251,0.1901 -0.03728,0.1882 -0.04198,0.1863 -0.04663,0.1842 -0.0512,0.1823 -0.05571,0.18 -0.06017,0.178 -0.06457,0.1756 -0.06889,0.1733 -0.07316,0.171 -0.07735,0.1686 -0.0815,0.1661 -0.08557,0.1636 -0.08959,0.1609 -0.09354,0.1584 -0.09743,0.1555 -0.10126,0.1528 -0.10502,0.1499 -0.10873,0.147 -0.11236,0.1441 -0.11593,0.141 -0.11945,0.1379 -0.1229,0.1349 -0.12629,0.1316 -0.12961,0.1284 -0.13288,0.125 L 5.93186,38.1649 5.79264,38.2832 5.65035,38.3979 5.50506,38.509 5.35681,38.6165 5.20568,38.7203 5.05173,38.8204 4.89501,38.9167 4.73559,39.0091 4.57354,39.0976 4.40892,39.1821 4.24178,39.2626 4.07221,39.339 3.90024,39.4112 3.72595,39.4791 3.5494,39.5428 3.37066,39.6022 3.18979,39.6571 3.00684,39.7077 2.82188,39.7536 2.63498,39.7949 2.4462,39.8317 2.25559,39.8637 2.06324,39.891 1.86917,39.9134 1.67348,39.931 1.47622,39.9436 1.27745,39.9512 1.07724,39.9538 0.912842,39.9517 0.74797,39.9457 0.582159,39.9357 0.414936,39.922 l 0.062112,0.1028 0.061803,0.1055 0.061377,0.108 0.060831,0.1104 0.060172,0.1125 0.059395,0.1146 0.058498,0.1166 0.057488,0.1182 0.056358,0.12 0.05511,0.1214 0.05375,0.1227 0.05227,0.1239 0.05067,0.125 0.04896,0.1259 0.04712,0.1266 0.04518,0.1273 0.04312,0.1277 0.04093,0.128 0.03863,0.1281 0.03622,0.1283 0.03369,0.128 0.03103,0.128 0.02826,0.1274 0.02537,0.1268 0.02239,0.1262 0.01925,0.1253 0.01602,0.1242 0.01268,0.1233 0.0092,0.1219 0.00561,0.1205 0.00388,0.206 -0.00142,0.2035 -0.00646,0.201 -0.01128,0.1983 -0.01585,0.1954 -0.02019,0.1927 -0.02428,0.1896 -0.02814,0.1865 -0.03175,0.1833 -0.03513,0.18 -0.03826,0.1768 -0.04117,0.1732 -0.04383,0.1696 -0.04624,0.166 -0.04842,0.1622 -0.05037,0.1582 -0.05207,0.1544 -0.05353,0.1503 -0.05475,0.146 -0.05574,0.1419 -0.056482,0.1375 -0.056989,0.133 -0.057255,0.1285 -0.057282,0.1239 -0.057069,0.1189 -0.056618,0.1144 -0.055928,0.1091 -0.054997,0.1043 -0.053828,0.099 -0.05242,0.0939 -0.050772,0.0885 -0.048885,0.083 -0.046758,0.0775 -0.044392,0.072 -0.041789,0.0661 -0.038943,0.0603 -0.03586,0.0543 -0.032537,0.0484 -0.0289755,0.0422 -0.025174,0.036 L 0.039343,48.9224 0.0224894,48.9457 0.0101548,48.9624 0.00257858,48.9725 0,48.9759 0.104599,48.8904 0.207413,48.8026 0.308409,48.7129 0.407554,48.6212 0.504818,48.5274 0.600166,48.4318 0.693566,48.3342 0.784985,48.2348 0.874391,48.1334 0.961752,48.0302 1.04704,47.9252 1.13021,47.8186 1.21123,47.7102 1.29008,47.6 l 0.07665,-0.1117 0.07441,-0.1135 0.07212,-0.1149 0.06982,-0.1166 0.06748,-0.1181 0.06512,-0.1196 0.06271,-0.1211 0.06027,-0.1224 0.05779,-0.124 0.0553,-0.1252 0.05277,-0.1266 0.0502,-0.1279 0.0476,-0.1293 0.04497,-0.1303 0.0423,-0.1317 0.0396,-0.1328 L 2.26606,45.5004 2.30018,45.3652 2.33149,45.2291 2.35998,45.0919 2.3856,44.9537 2.40834,44.8146 2.42815,44.6744 2.445,44.5334 2.45886,44.3914 2.4697,44.2487 2.47747,44.1051 2.48217,43.9607 2.48374,43.8155 2.48247,43.6847 2.47866,43.5543 2.47232,43.4243 2.46346,43.2948 2.45209,43.1657 2.43822,43.0372 2.42186,42.9092 2.40299,42.7817 2.38167,42.6548 2.35786,42.5286 2.33161,42.4029 2.30289,42.2779 2.27173,42.1536 2.23815,42.0298 2.20212,41.9069 2.16369,41.7847 2.12284,41.6632 2.0796,41.5427 2.03397,41.4227 1.98595,41.3038 1.93556,41.1856 1.88279,41.0684 1.82768,40.952 1.77021,40.8366 1.71041,40.7221 1.64826,40.6086 1.58381,40.4962 1.51703,40.3847 l 0.17039,0.014 0.1687,0.0109 0.16748,0.0069 0.16675,0.0024 L 2.3882,40.4164 2.58481,40.4088 2.78012,40.3962 2.97408,40.3785 3.16661,40.3561 3.35765,40.329 3.54714,40.2969 3.73502,40.2603 3.92123,40.2189 4.1057,40.1731 4.28836,40.1227 4.46917,40.068 4.64804,40.0088 4.82493,39.9454 4.99977,39.8776 5.17249,39.8057 5.34304,39.7297 5.51134,39.6495 5.67735,39.5654 5.84099,39.4774 6.0022,39.3855 6.16092,39.2899 6.31708,39.1904 6.47063,39.0872 6.6215,38.9805 6.76963,38.8702 6.91495,38.7564 7.0574,38.6392 7.19694,38.5185 7.33346,38.3947 7.46694,38.2675 7.59729,38.1371 7.72447,38.0037 7.84841,37.8671 7.96904,37.7277 8.08628,37.5852 8.20011,37.44 8.31043,37.2919 8.41722,37.1409 8.52036,36.9874 8.61982,36.8313 8.71554,36.6726 8.80746,36.5114 8.89549,36.3478 8.97961,36.1818 9.05971,36.0135 9.13576,35.8429 9.20769,35.6702 9.27542,35.4954 9.33891,35.3185 9.39809,35.1396 9.4529,34.9588 9.50327,34.7762 9.54915,34.5917 9.59046,34.4055 9.62714,34.2177 9.65913,34.0281 9.68638,33.837 9.70882,33.6445 9.72637,33.4506 9.73899,33.2552 9.7466,33.0586 9.74916,32.8607 9.74798,32.7274 9.74446,32.5945 9.7386,32.4618 9.73042,32.3295 9.71992,32.1976 9.70712,32.066 9.69201,31.9349 9.67464,31.8042 9.65499,31.6741 9.63308,31.5443 9.60891,31.4152 9.58251,31.2865 9.55388,31.1585 9.52303,31.031 9.48997,30.9042 9.45471,30.778 9.41727,30.6525 9.37765,30.5277 9.33586,30.4037 9.29192,30.2803 9.24584,30.1578 9.19763,30.0361 9.14729,29.9152 9.09483,29.7951 9.04028,29.6759 8.98365,29.5576 8.92492,29.4403 8.86412,29.324 8.80128,29.2086 8.73637,29.0941 8.66945,28.9808 8.60047,28.8684 8.52949,28.7573 8.45651,28.6471 8.38154,28.5382 8.30457,28.4303 8.22563,28.3237 8.14473,28.2182 8.06188,28.1141 l 0.21721,-0.053 0.21518,-0.0576 0.21311,-0.0619 0.211,-0.0663 0.20883,-0.0707 0.20662,-0.075 0.20436,-0.0792 0.20205,-0.0833 0.19969,-0.0874 0.19727,-0.0916 0.1949,-0.0956 0.1923,-0.0995 0.1898,-0.1033 0.1873,-0.1072 0.1845,-0.111 0.1819,-0.1147 0.1792,-0.1184 0.1764,-0.1219 0.1736,-0.1256 0.1706,-0.129 0.1678,-0.1324 0.1648,-0.1358 0.1617,-0.1391 0.1588,-0.1425 0.1557,-0.1456 0.1524,-0.1488 0.1492,-0.1519 0.146,-0.1548 0.1427,-0.1579 0.1394,-0.1609 0.1359,-0.1636 0.1326,-0.1666 0.129,-0.1693 0.1255,-0.1719 0.122,-0.1746 0.1182,-0.1772 0.1147,-0.1797 0.1109,-0.1823 0.1071,-0.1845 0.1033,-0.1871 0.0994,-0.1892 0.0956,-0.1916 0.0915,-0.1937 0.0875,-0.1959 0.0835,-0.1979 0.0794,-0.2 0.0753,-0.2019 0.0711,-0.2038 0.0669,-0.2057 0.0624,-0.2076 0.0583,-0.2091 0.0537,-0.2109 0.0494,-0.2125 0.045,-0.2142 0.0404,-0.2156 0.0357,-0.2171 0.0312,-0.2185 0.0264,-0.2198 0.022,-0.2211 0.017,-0.2224 0.0122,-0.2235 0.0074,-0.2246 0.0024,-0.2257 -0.0027,-0.2332 -0.0081,-0.232 -0.0133,-0.231 -0.0187,-0.2299 -0.0239,-0.2285 -0.029,-0.2272 -0.034,-0.2258 -0.0392,-0.2243 -0.0441,-0.2229 -0.0489,-0.2213 -0.0539,-0.2196 -0.0586,-0.2179 -0.0634,-0.2161 -0.0682,-0.2144 -0.0727,-0.2123 -0.0772,-0.2103 -0.0819,-0.2083 -0.0863,-0.2063 -0.0907,-0.204 -0.095,-0.2019 -0.0993,-0.1995 -0.1035,-0.197 -0.1079,-0.1948 -0.1117,-0.1921 -0.1159,-0.1896 -0.12,-0.1871 -0.1238,-0.1842 -0.1278,-0.1815 -0.1316,-0.1786 -0.1354,-0.1758 -0.139,-0.1728 -0.1429,-0.1697 -0.1462,-0.1667 -0.15,-0.1635 -0.1535,-0.1602 -0.1568,-0.157 -0.1602,-0.1536 -0.1635,-0.1502 -0.1668,-0.1467 -0.17,-0.1431 L 12.0103,10.2227 11.834,10.0869 11.6547,9.95489 11.4724,9.82668 11.2872,9.70234 11.0991,9.58196 10.9082,9.46561 10.7146,9.35334 10.5182,9.24523 10.3193,9.14132 10.1177,9.04171 9.9136,8.94645 9.70704,8.85559 9.49808,8.76923 9.28675,8.68741 9.07312,8.6102 8.85726,8.53768 8.63921,8.4699 8.41903,8.40692 8.19677,8.34883 7.97251,8.29568 7.74629,8.24754 7.51818,8.20447 7.53643,8.06491 7.55245,7.92766 7.56627,7.79257 7.57788,7.65951 7.58734,7.52833 7.59465,7.3989 7.59985,7.27106 7.60295,7.1447 7.60398,7.01964 7.60288,6.87675 7.59961,6.73437 7.59416,6.59255 7.58657,6.45126 7.57685,6.31055 7.56501,6.17042 7.55106,6.03089 7.53504,5.89198 7.51694,5.75369 7.49679,5.61607 7.4746,5.4791 7.45039,5.34281 7.42417,5.20721 7.39597,5.07234 7.36579,4.93819 7.33364,4.80479 7.29957,4.67214 7.26357,4.54027 7.22565,4.40919 7.18583,4.27893 7.14415,4.14948 7.1006,4.02089 7.0552,3.89314 7.00798,3.76627 6.95893,3.64029 6.90808,3.51521 6.85546,3.39104 6.80107,3.26782 6.74494,3.14556 6.68705,3.02426 6.62746,2.90394 6.56616,2.78462 6.50317,2.66634 6.43852,2.54907 6.37221,2.43285 6.30425,2.31771 6.23468,2.20363 6.16349,2.09065 6.09072,1.9788 6.01636,1.86807 5.94045,1.75848 5.863,1.65006 5.78402,1.54282 5.70352,1.43676 5.62154,1.33191 5.53806,1.22828 5.45313,1.12591 5.36674,1.02479 5.27893,0.92494 5.1897,0.82638 5.09906,0.729126 5.00704,0.633192 4.91366,0.538597 4.81892,0.445354 4.72284,0.35348 4.62545,0.262992 4.52674,0.173906 4.42676,0.0862361 4.32549,0 4.32742,0.00238548 4.33307,0.00951216 4.34234,0.0213354 4.35507,0.0378107 4.37115,0.0588932 4.39043,0.0845386 4.41278,0.114702 4.43806,0.149339 4.46614,0.188404 4.49689,0.231855 4.53017,0.279645 4.56585,0.33173 4.60378,0.388064 4.64384,0.448605 4.6859,0.513306 l 0.04392,0.06882 0.04563,0.07289 0.04722,0.076918 0.04868,0.0809 0.05,0.084839 0.05117,0.088731 0.05224,0.092586 0.05315,0.09638 0.05393,0.10015 0.05457,0.10385 0.05509,0.10753 0.05546,0.11115 0.0557,0.11474 0.05582,0.11828 0.05579,0.12176 0.05562,0.12522 0.05533,0.12861 0.0549,0.13198 0.05433,0.13528 0.05363,0.13855 0.0528,0.14179 0.05182,0.14496 0.05074,0.14809 0.04948,0.15117 0.04812,0.15424 0.0466,0.15723 0.04497,0.16019 0.04319,0.1631 0.04128,0.16596 0.03922,0.16879 0.03705,0.17157 0.03474,0.17429 0.03229,0.177 0.0297,0.17963 L 6.36706,5.05271 6.39119,5.2375 6.41234,5.42479 6.43036,5.61455 6.44512,5.80674 6.45649,6.0013 6.46432,6.19819 6.46851,6.39737 6.4689,6.59879 6.46535,6.8024 6.45775,7.00818 6.44594,7.21607 Z"
         style="fill:url(#Grad240);fill-rule:evenodd;stroke:none"
         transform="rotate(-90,10.81076,7.19384)"
         id="path4921" />
      <path
         d="M 6.34387,4.66222 6.34033,4.84503 6.32978,5.02601 6.31238,5.20502 6.28824,5.38194 6.25749,5.55664 6.22027,5.72901 6.17671,5.89888 6.12693,6.06617 6.07108,6.23074 6.00928,6.39245 5.94166,6.55119 5.86836,6.70682 5.78951,6.85923 5.70522,7.00828 5.61565,7.15385 5.52093,7.29582 5.42116,7.43405 5.31651,7.56842 5.20708,7.69881 5.09302,7.82508 4.97446,7.94711 4.85152,8.06479 4.72435,8.17797 4.59305,8.28653 4.45778,8.39035 4.31868,8.48931 4.17584,8.58326 4.02942,8.6721 3.87955,8.75569 3.72636,8.8339 3.56998,8.90661 3.41053,8.97369 3.24817,9.03503 3.08299,9.09049 2.91515,9.13994 2.74478,9.18326 2.572,9.22032 2.39696,9.25099 2.53301,9.31736 2.66701,9.38722 2.79888,9.4605 2.92858,9.53715 3.05603,9.6171 3.1812,9.70031 3.30399,9.7867 3.42437,9.87622 3.54228,9.96883 3.65763,10.0644 3.7704,10.163 l 0.1101,0.1015 0.10737,0.1043 0.1046,0.107 0.10175,0.1099 0.09885,0.1124 0.09589,0.1151 0.09288,0.1176 0.08978,0.1201 0.08664,0.1225 0.08344,0.1249 0.08017,0.1272 0.07686,0.1294 0.07346,0.1317 0.07003,0.1337 0.06652,0.1359 0.06295,0.1378 0.05933,0.1398 0.05566,0.1417 0.05189,0.1436 0.04809,0.1453 0.04424,0.1471 0.04029,0.1487 0.03632,0.1503 0.03227,0.1518 0.02816,0.1534 0.024,0.1548 0.01977,0.156 0.01547,0.1576 0.01114,0.1586 0.00672,0.1599 0.00225,0.161 -0.00254,0.1709 -0.00757,0.1697 -0.01255,0.1684 -0.01741,0.1668 -0.02224,0.1655 -0.02699,0.1639 -0.03167,0.1622 -0.03626,0.1606 -0.04079,0.1587 -0.04525,0.157 -0.04963,0.1551 -0.05394,0.1532 -0.05819,0.1509 -0.06237,0.1489 -0.06645,0.1468 -0.07047,0.1444 -0.07444,0.1421 -0.07831,0.1398 -0.08212,0.1372 -0.08585,0.1348 -0.08952,0.1321 -0.09311,0.1293 -0.09662,0.1267 -0.10009,0.1238 -0.10345,0.1209 -0.10676,0.118 -0.11,0.1148 -0.11315,0.1119 -0.11624,0.1085 -0.11925,0.1053 -0.1222,0.102 -0.12508,0.0986 -0.12786,0.0951 -0.1306,0.0916 -0.13325,0.088 -0.13584,0.0842 -0.13834,0.0805 -0.1408,0.0767 -0.14314,0.0728 -0.14545,0.0688 -0.14768,0.0647 -0.14981,0.0607 -0.15191,0.0565 -0.15391,0.0522 -0.15584,0.0479 0.10959,0.0828 0.10803,0.0847 0.10648,0.0866 0.10489,0.0885 0.10327,0.0903 0.10164,0.0921 0.09996,0.0938 0.09828,0.0956 0.09656,0.0973 0.09482,0.0991 0.09305,0.1007 0.09125,0.1024 0.08944,0.104 0.0876,0.1056 0.08572,0.1072 0.08383,0.1087 0.08191,0.1103 0.07995,0.1117 0.07799,0.1134 0.07599,0.1147 0.07396,0.1161 0.07193,0.1175 0.06984,0.119 0.06775,0.1203 0.06561,0.1217 0.06347,0.1229 0.0613,0.1242 0.05909,0.1255 0.05686,0.1267 0.05461,0.1279 0.05233,0.1291 0.05003,0.1304 0.0477,0.1313 0.04534,0.1325 0.04296,0.1336 0.04057,0.1347 0.03811,0.1357 0.03568,0.1367 0.03318,0.1377 0.03068,0.1387 0.02814,0.1396 0.02559,0.1405 0.023,0.1414 0.02039,0.1422 0.01775,0.1431 0.01509,0.144 0.01241,0.1446 0.0097,0.1456 0.00695,0.1462 0.00419,0.1469 0.0014,0.1476 -0.00124,0.1388 -0.00373,0.1384 -0.00618,0.1375 -0.0086,0.1369 -0.01102,0.1362 -0.01341,0.1355 -0.01577,0.1349 -0.01813,0.134 -0.02044,0.1333 -0.02274,0.1324 -0.02502,0.1318 -0.02727,0.1309 -0.02951,0.13 -0.03171,0.1293 -0.03392,0.1282 -0.03607,0.1275 -0.03823,0.1264 -0.04034,0.1256 -0.04245,0.1246 -0.04453,0.1236 -0.04658,0.1225 -0.04862,0.1217 -0.05064,0.1206 -0.05262,0.1194 -0.0546,0.1184 -0.05653,0.1174 -0.05846,0.1161 -0.06037,0.1151 -0.06225,0.1139 -0.06412,0.1128 -0.06593,0.1115 -0.06776,0.1102 -0.06955,0.1092 -0.07132,0.1079 -0.07308,0.1065 -0.0748,0.1052 -0.0765,0.1041 -0.07817,0.1025 0.1219,0.0767 0.12017,0.0791 0.11841,0.0816 0.1166,0.0838 0.11476,0.0863 0.1129,0.0885 0.11098,0.0908 0.10903,0.093 0.10707,0.0953 0.10504,0.0974 0.10299,0.0996 0.10089,0.1016 0.09877,0.1038 0.09662,0.1058 0.09441,0.1077 0.09218,0.1097 0.08991,0.1116 0.0876,0.1134 0.08527,0.1155 0.08289,0.1171 0.08047,0.1191 0.07802,0.1207 0.07555,0.1224 0.07301,0.1242 0.07046,0.1257 0.06788,0.1274 0.06523,0.1291 0.06258,0.1304 0.05986,0.1321 0.05714,0.1334 0.05436,0.135 0.05155,0.1364 0.0487,0.1377 0.04583,0.139 0.04291,0.1404 0.03995,0.1416 0.03697,0.1429 0.03394,0.144 0.03087,0.1452 0.02779,0.1463 0.02465,0.1475 0.02147,0.1484 0.01827,0.1496 0.01503,0.1504 0.01175,0.1516 0.00845,0.1524 0.00509,0.1532 0.0017,0.1541 -0.00257,0.1895 -0.00768,0.1882 -0.01271,0.1869 -0.01768,0.1855 -0.02258,0.1839 -0.02742,0.1824 -0.03219,0.1809 -0.03689,0.1791 -0.04153,0.1775 -0.0461,0.1756 -0.0506,0.1737 -0.05504,0.1719 -0.05941,0.1697 -0.06371,0.1677 -0.06796,0.1656 -0.07212,0.1634 -0.07623,0.1611 -0.08025,0.1588 -0.08424,0.1564 -0.08814,0.1538 -0.09198,0.1514 -0.09576,0.1489 -0.09946,0.146 -0.1031,0.1435 -0.10667,0.1405 -0.11017,0.1377 -0.11361,0.1349 -0.11699,0.1317 -0.1203,0.1287 -0.12354,0.1256 -0.1267,0.1224 L 4.06072,41.5368 3.92786,41.6527 3.79203,41.7651 3.6533,41.874 3.51172,41.9795 3.36736,42.0814 3.2203,42.1795 3.07059,42.274 2.91831,42.3647 2.76352,42.4515 2.60629,42.5344 2.44669,42.6133 2.28477,42.6881 2.12062,42.7588 1.95428,42.8254 1.78584,42.8877 1.61535,42.9458 1.44289,42.9994 1.26852,43.0484 1.0923,43.0931 0.914301,43.1331 0.734596,43.1685 0.553247,43.1992 0.37032,43.2251 0.185883,43.2461 0,43.2623 l 0.167597,0.013 0.169583,0.0099 0.171514,0.004 0.19863,-0.0028 0.197224,-0.0085 0.195742,-0.0139 0.19419,-0.0193 0.19256,-0.0248 0.19084,-0.03 0.18906,-0.0352 0.1872,-0.0404 L 2.23941,43.0689 2.42265,43.0185 2.60382,42.9631 2.78281,42.903 2.95956,42.8382 3.134,42.7685 3.30604,42.6943 3.47561,42.6156 3.64264,42.5325 3.80704,42.445 3.96876,42.3532 4.1277,42.2571 4.28378,42.157 l 0.15316,-0.1043 0.15015,-0.1082 0.14707,-0.1122 0.14393,-0.1159 0.14069,-0.1199 0.13739,-0.1233 0.13401,-0.1271 0.13055,-0.1306 0.127,-0.134 0.1234,-0.1375 0.11972,-0.1406 0.11595,-0.144 0.11211,-0.1471 0.1082,-0.1502 0.1042,-0.1531 0.10015,-0.1562 0.096,-0.1588 0.09177,-0.1617 0.08748,-0.1645 0.08311,-0.167 0.07866,-0.1695 0.07413,-0.1721 0.06955,-0.1744 0.06486,-0.1768 0.06011,-0.1789 0.05529,-0.1811 0.05037,-0.1832 0.04541,-0.1852 0.04034,-0.1871 0.0352,-0.189 0.03,-0.1908 L 7.31847,37.2202 7.33782,37.0261 7.35175,36.8304 7.36016,36.6333 7.36297,36.4348 7.36127,36.2807 7.35617,36.1275 7.34772,35.9751 7.33596,35.8235 7.3209,35.6731 7.30262,35.5235 7.28112,35.3751 7.25646,35.2276 7.22865,35.0813 7.19774,34.9361 7.16379,34.7921 7.1268,34.6492 7.08681,34.5076 7.04389,34.3672 6.99804,34.2282 6.94931,34.0905 6.89773,33.9541 6.84335,33.8191 6.7862,33.6857 6.72631,33.5536 6.66373,33.4232 6.59847,33.2941 6.5306,33.1667 6.46014,33.041 6.38711,32.9168 6.31158,32.7944 6.23356,32.6737 6.15311,32.5546 6.07023,32.4375 5.98499,32.322 5.89743,32.2086 5.80755,32.097 5.71541,31.9873 5.62105,31.8796 5.5245,31.7738 5.4258,31.67 5.32496,31.5684 5.22206,31.4688 5.11712,31.3714 5.01016,31.2761 4.90123,31.1831 4.79037,31.0923 4.6776,31.0038 4.56297,30.9175 4.44652,30.8337 4.32828,30.7521 4.20828,30.673 4.08657,30.5963 4.16464,30.4938 4.24103,30.3897 4.31573,30.2845 4.3887,30.178 4.45993,30.0701 4.5294,29.9609 4.59707,29.8507 4.66294,29.7392 4.72698,29.6264 4.78917,29.5125 4.84948,29.3974 4.90789,29.2813 4.96437,29.1639 5.01891,29.0455 5.0715,28.9261 5.12209,28.8055 5.17067,28.6838 5.21721,28.5613 5.26172,28.4377 5.30413,28.3131 5.34446,28.1875 5.38266,28.0611 5.41872,27.9336 5.45261,27.8054 5.48432,27.6761 5.51381,27.5461 5.54107,27.4152 5.56609,27.2834 5.58882,27.151 5.60925,27.0177 5.62736,26.8837 5.64314,26.7488 5.65654,26.6133 5.66756,26.4771 5.67618,26.3402 5.68235,26.2027 5.68607,26.0643 5.68732,25.9255 5.68591,25.7779 5.68172,25.631 5.67477,25.4848 5.66508,25.3392 5.65266,25.1946 5.63757,25.0506 5.61982,24.9075 5.59943,24.7653 5.57643,24.6239 5.55085,24.4834 5.52271,24.3438 5.49203,24.2051 5.45884,24.0674 5.42319,23.9307 5.38506,23.795 5.34451,23.6603 5.30155,23.5267 5.25621,23.3942 5.20851,23.2629 5.15849,23.1325 5.10616,23.0034 5.05156,22.8755 4.9947,22.7488 4.93562,22.6233 4.87434,22.4991 4.81088,22.3762 4.74526,22.2545 4.67753,22.1342 4.6077,22.0152 4.53579,21.8977 4.46183,21.7816 4.38586,21.6669 4.30789,21.5535 4.22794,21.4418 4.14606,21.3315 4.06225,21.2228 3.97654,21.1156 3.88897,21.01 3.79955,20.906 3.70832,20.8036 3.61529,20.7029 3.52049,20.6038 3.42396,20.5065 3.32571,20.4109 3.22577,20.3171 3.12416,20.225 3.02092,20.1347 2.91606,20.0462 2.80962,19.9596 2.70161,19.8749 2.59206,19.7921 2.74797,19.7442 2.90191,19.692 3.05384,19.6355 3.2037,19.5748 3.35139,19.5101 3.49686,19.4413 3.64002,19.3685 3.7808,19.2918 l 0.13834,-0.0805 0.13583,-0.0842 0.13323,-0.088 0.13056,-0.0916 0.12785,-0.0951 0.12503,-0.0986 0.12217,-0.102 0.1192,-0.1053 0.1162,-0.1085 0.11311,-0.1119 0.10994,-0.1148 0.1067,-0.118 0.1034,-0.1209 0.10002,-0.1238 0.09658,-0.1267 0.09304,-0.1293 0.08947,-0.1321 0.08579,-0.1348 0.08205,-0.1372 0.07825,-0.1398 0.07437,-0.1421 0.07042,-0.1444 0.0664,-0.1468 0.06229,-0.1489 0.05814,-0.1509 0.05389,-0.1532 0.04959,-0.1551 0.0452,-0.157 L 6.50861,15.6916 6.54483,15.531 6.57645,15.3688 6.60342,15.2049 6.62563,15.0394 6.64304,14.8726 6.65556,14.7042 6.66313,14.5345 6.66566,14.3636 6.66341,14.2026 6.6567,14.0427 6.64559,13.8841 6.63013,13.7265 6.6104,13.5705 6.58644,13.4157 6.55831,13.2623 6.5261,13.1105 6.48983,12.9602 6.44959,12.8115 6.40541,12.6644 6.35738,12.5191 6.30555,12.3755 6.24998,12.2338 6.19071,12.094 6.12782,11.9562 6.06137,11.8203 5.99142,11.6866 5.91803,11.5549 5.84125,11.4255 5.76114,11.2983 5.67777,11.1734 5.5912,11.0509 5.50148,10.9308 5.40867,10.8132 5.31283,10.6981 5.21404,10.5857 5.11234,10.4758 5.00779,10.3688 4.90046,10.2645 4.79039,10.163 4.67768,10.0644 4.56234,9.96883 4.44445,9.87622 4.3241,9.7867 4.20129,9.70031 4.07614,9.6171 3.94867,9.53715 3.81895,9.4605 3.68706,9.38722 3.55301,9.31736 3.41692,9.25099 3.59206,9.22032 3.76493,9.18326 3.93537,9.13994 4.10326,9.09049 4.26848,9.03503 4.43089,8.97369 4.59035,8.90661 4.74676,8.8339 4.89995,8.75569 5.04981,8.6721 5.19621,8.58326 5.33903,8.48931 5.47811,8.39035 5.61334,8.28653 5.74459,8.17797 5.87172,8.06479 5.9946,7.94711 6.11311,7.82508 6.22711,7.69881 6.33648,7.56842 6.44107,7.43405 6.54076,7.29582 6.63543,7.15385 6.72494,7.00828 6.80915,6.85923 6.88794,6.70682 6.96118,6.55119 7.02873,6.39245 7.09047,6.23074 7.14628,6.06617 7.19599,5.89888 7.23951,5.72901 7.27669,5.55664 7.3074,5.38194 7.33152,5.20502 7.34891,5.02601 7.35943,4.84503 7.36297,4.66222 7.35866,4.45977 7.34586,4.25953 7.32472,4.06171 7.29544,3.86644 7.25819,3.67393 7.21314,3.48434 7.16046,3.29784 7.10034,3.1146 7.03294,2.93481 6.95844,2.75864 6.87702,2.58625 6.78885,2.41783 6.69412,2.25354 6.59299,2.09357 6.48562,1.93807 6.37222,1.78725 6.25295,1.64125 6.12797,1.50026 5.99748,1.36445 5.86164,1.234 5.72062,1.10908 5.57462,0.989861 5.42379,0.87652 5.26832,0.76923 5.10836,0.668166 4.94413,0.5735 4.77577,0.485408 4.60346,0.404063 4.42739,0.32964 4.24772,0.262313 4.06463,0.202254 3.87829,0.149639 3.68889,0.104641 3.4966,0.0674341 3.30158,0.0381926 3.10403,0.0170905 2.9041,0.00430163 2.70198,0 2.5297,0.008976 2.36055,0.029376 2.19169,0.051408 2.37468,0.075289 2.55541,0.106063 2.73372,0.143595 2.90947,0.187749 3.08253,0.238391 3.25276,0.295384 3.42,0.358593 3.58412,0.427882 3.74496,0.503117 3.90239,0.58416 4.05627,0.670878 4.20646,0.763136 4.35279,0.860796 4.49515,0.963725 4.63338,1.07179 4.76733,1.18484 4.89687,1.30276 5.02185,1.42541 5.14213,1.55264 5.25757,1.68433 5.36802,1.82035 5.47334,1.96054 5.57339,2.10479 5.66801,2.25294 5.75708,2.40488 5.84045,2.56046 5.91797,2.71954 5.9895,2.88201 6.0549,3.0477 6.11401,3.21649 6.16672,3.38825 6.21286,3.56283 6.25229,3.74012 6.28489,3.91996 6.31047,4.10224 6.32894,4.28678 6.34011,4.47349 Z"
         style="fill:url(#Grad241);fill-rule:evenodd;stroke:none"
         transform="rotate(90,15.80765,33.94185)"
         id="path4923" />
      <path
         d="m 1.65974,3.59366 0.0077,0.1832 -0.00719,0.18563 -0.02829,0.20033 0.17914,0.00649 0.1778,0.01276 0.17634,0.01892 0.17477,0.02499 0.17306,0.03095 0.17125,0.03681 0.16929,0.04257 0.16723,0.04823 0.16505,0.05378 0.16274,0.05923 0.16032,0.06457 0.15776,0.06983 0.15511,0.07495 0.1523,0.08 0.14939,0.08494 0.14637,0.08977 0.14319,0.0945 0.13993,0.09912 0.13654,0.10366 0.13301,0.10807 0.12936,0.1124 0.12562,0.11661 0.12173,0.12072 0.11772,0.12474 0.1136,0.12865 0.10937,0.13245 0.10498,0.13616 0.1005,0.13976 0.0959,0.14324 L 5.9325,6.66835 6.0188,6.81829 6.10015,6.97143 6.17639,7.12765 6.24742,7.28684 6.31311,7.44893 6.37334,7.61379 6.42801,7.78134 6.47697,7.95145 6.5201,8.12403 6.5573,8.29898 6.58842,8.4762 6.61031,8.62991 6.62749,8.78333 6.64002,8.93639 6.64792,9.08898 6.65126,9.24107 6.6501,9.39252 6.64446,9.54328 6.63441,9.69327 6.61999,9.84239 6.60125,9.99058 l -0.023,0.14712 -0.02723,0.1461 -0.0314,0.1449 -0.03553,0.1436 -0.0396,0.1422 -0.04363,0.1409 -0.0476,0.1393 -0.05153,0.1377 -0.05543,0.136 -0.05924,0.1343 -0.06303,0.1324 -0.06677,0.1306 -0.07044,0.1285 -0.07409,0.1264 -0.07768,0.1242 -0.08121,0.1221 -0.08471,0.1196 -0.08814,0.1173 -0.09155,0.1148 -0.09488,0.1121 -0.09818,0.1095 -0.10142,0.1069 -0.10463,0.1039 -0.10777,0.1011 -0.11088,0.0981 -0.11392,0.0951 -0.11694,0.0918 -0.11988,0.0886 -0.12279,0.0853 -0.12564,0.082 -0.12846,0.0785 -0.13121,0.0749 -0.13394,0.0712 -0.13658,0.0675 -0.13921,0.0637 -0.14176,0.0599 0.1058,0.0989 0.10164,0.1024 0.09742,0.106 0.09311,0.1092 0.08874,0.1124 0.0843,0.1154 0.07979,0.1185 0.07519,0.1212 0.07053,0.1239 0.0658,0.1266 0.06099,0.129 0.05612,0.1314 0.05117,0.1335 0.04614,0.1356 0.04105,0.1376 0.03589,0.1395 0.03065,0.1413 0.02535,0.1428 0.0237,0.1768 0.01547,0.1756 0.0074,0.1743 -5.1e-4,0.1727 -0.00831,0.1709 -0.01595,0.1691 -0.02345,0.167 -0.03081,0.1646 -0.03803,0.1621 -0.04511,0.1595 -0.05203,0.1566 -0.05882,0.1536 -0.06548,0.1504 -0.07197,0.1468 -0.07834,0.1434 -0.08456,0.1395 -0.09065,0.1355 -0.09657,0.1313 -0.10238,0.1271 -0.10801,0.1224 -0.11354,0.1176 -0.1189,0.1129 -0.12414,0.1075 -0.12921,0.1025 -0.13415,0.0968 -0.13896,0.0912 -0.1436,0.0853 -0.14813,0.0793 -0.15248,0.073 -0.15673,0.0667 -0.16081,0.06 -0.16475,0.0531 -0.16857,0.0463 -0.17222,0.0389 -0.17574,0.0317 -0.16663,0.0229 -0.17046,0.0138 0.16213,0.0821 0.16591,0.0438 0.15079,0.0178 L 1.8032,20.6807 1.97768,20.6654 2.14739,20.6428 2.32173,20.6112 2.49285,20.5723 2.66058,20.526 2.82481,20.4726 2.98538,20.4124 3.14215,20.3455 3.29498,20.2721 3.44374,20.1925 3.58825,20.1068 3.7284,20.0151 3.86405,19.9178 3.99503,19.815 4.12121,19.7069 4.24246,19.5937 4.35863,19.4756 4.46956,19.3528 4.57513,19.2254 4.67519,19.0938 4.7696,18.958 4.8582,18.8184 4.94088,18.6749 5.01747,18.5281 5.08784,18.3779 5.15184,18.2245 5.20933,18.0682 5.26018,17.9092 5.30423,17.7476 5.34134,17.5837 5.37136,17.4176 5.39418,17.2497 5.40963,17.0799 5.41757,16.9086 5.41785,16.736 5.41035,16.5622 5.39491,16.3874 5.3714,16.2119 5.34561,16.0662 5.31438,15.9222 5.27779,15.7798 5.23592,15.6394 5.18884,15.5011 5.13664,15.3649 5.07939,15.2308 5.01716,15.0993 4.95004,14.9701 4.87811,14.8437 4.80142,14.7199 4.72007,14.5991 4.63414,14.4813 4.5437,14.3666 4.44881,14.2551 4.34958,14.147 4.24606,14.0423 4.13834,13.9414 l 0.1415,-0.0598 0.139,-0.0635 0.13645,-0.0672 0.13385,-0.0709 0.13122,-0.0744 0.12853,-0.078 0.12579,-0.0812 0.12302,-0.0846 0.12019,-0.0879 0.11731,-0.0911 0.11439,-0.0941 0.11142,-0.0972 0.10841,-0.1 0.10535,-0.1029 0.10223,-0.1058 0.09908,-0.1083 0.09589,-0.111 0.09263,-0.1136 0.08934,-0.116 0.08599,-0.1185 0.08261,-0.1207 0.07917,-0.123 0.07569,-0.1251 0.07215,-0.1272 0.06858,-0.1292 0.06496,-0.1312 0.06129,-0.1329 0.05756,-0.1348 0.05381,-0.1364 0.05,-0.1381 0.04614,-0.1396 0.04223,-0.141 0.03829,-0.1424 0.03428,-0.1437 0.03025,-0.145 L 7.32309,9.95905 7.3451,9.81189 7.36294,9.66375 7.37653,9.51469 7.38585,9.3648 7.39084,9.21415 7.39147,9.06283 7.38766,8.91089 7.3794,8.75844 7.36663,8.60554 7.34929,8.45228 7.32735,8.29872 7.2963,8.1223 7.25937,7.94811 7.21667,7.77619 7.16832,7.60668 7.11444,7.43967 7.05512,7.27525 6.99051,7.11351 6.92069,6.95456 6.8458,6.7985 6.76594,6.6454 6.68123,6.4954 6.59178,6.34856 6.49771,6.20498 6.39913,6.06479 6.29616,5.92804 6.18891,5.79487 6.07749,5.66535 5.96203,5.53958 5.84262,5.41767 5.7194,5.2997 5.59246,5.18578 5.46193,5.076 5.32791,4.97047 5.19054,4.86927 5.04992,4.7725 4.90616,4.68026 4.75938,4.59264 4.60968,4.50975 4.4572,4.4317 4.30204,4.35854 4.1443,4.29041 3.98413,4.22739 3.82161,4.16958 3.65688,4.11707 3.49004,4.06997 3.3212,4.02837 3.15048,3.99236 2.978,3.96204 2.80387,3.93752 2.62821,3.91888 2.45112,3.90624 2.27272,3.89966 2.26735,3.74013 2.25698,3.58632 2.24172,3.43802 2.22168,3.29501 2.19422,3.13748 2.16172,2.9821 2.12428,2.82893 2.082,2.67805 2.03499,2.52953 1.98332,2.38343 1.92711,2.23983 1.86647,2.09879 1.80147,1.9604 1.73222,1.8247 1.65881,1.69179 1.58136,1.56171 1.49995,1.43456 1.41469,1.3104 1.32567,1.18929 1.23298,1.07131 1.13674,0.956528 1.03703,0.845013 0.933957,0.736836 0.827616,0.632067 0.718106,0.530777 0.605526,0.433034 0.489972,0.33891 0.371545,0.248473 0.250342,0.161797 0.12646,0.0789489 0,0 0.00524742,0.00481409 0.020522,0.0191791 0.0451221,0.042979 0.0783464,0.076098 0.119493,0.11842 0.167861,0.16983 0.222748,0.23021 0.283453,0.299445 0.349275,0.377422 0.41951,0.46402 0.493459,0.559126 0.570421,0.662623 0.649692,0.774398 0.730571,0.89433 l 0.081787,0.12798 0.081993,0.1359 0.081495,0.14372 0.080304,0.15141 0.07839,0.159 0.0758,0.16645 0.0725,0.17381 0.06849,0.18104 0.06379,0.18815 0.05838,0.19516 0.05228,0.20203 0.04546,0.20882 0.03794,0.21544 0.02974,0.222 z"
         style="fill:url(#Grad242);fill-rule:evenodd;stroke:none"
         transform="rotate(-90,14.6793,1.3132)"
         id="path4925" />
    </g>
  </g>
</svg>
