<?xml version="1.0" encoding="UTF-8" standalone="no"?>
<svg
   width="60.433601pt"
   height="39.651611pt"
   version="1.1"
   viewBox="0 0 60.433601 39.651611"
   id="svg6053"
   xmlns="http://www.w3.org/2000/svg"
   xmlns:svg="http://www.w3.org/2000/svg">
  <defs
     id="defs2330">
    <clipPath
       id="Clip2">
      <path
         d="M 0,0 H 64.3725 V 44.8369 H 0 Z"
         id="path215" />
    </clipPath>
    <linearGradient
       x2="4.8330598"
       y2="2.4665899"
       id="Grad29"
       x1="0.041454799"
       gradientUnits="userSpaceOnUse"
       y1="2.4665899">
      <stop
         offset="0%"
         stop-color="#f5f3c2"
         stop-opacity="1"
         id="stop218" />
      <stop
         offset="55.1515%"
         stop-color="#fcd404"
         stop-opacity="1"
         id="stop220" />
      <stop
         offset="100%"
         stop-color="#dd6c1f"
         stop-opacity="1"
         id="stop222" />
    </linearGradient>
    <linearGradient
       x2="4.8339"
       y2="2.4667499"
       id="Grad30"
       x1="0.0417099"
       gradientUnits="userSpaceOnUse"
       y1="2.4667499">
      <stop
         offset="0%"
         stop-color="#f5f3c2"
         stop-opacity="1"
         id="stop225" />
      <stop
         offset="55.1515%"
         stop-color="#fcd404"
         stop-opacity="1"
         id="stop227" />
      <stop
         offset="100%"
         stop-color="#dd6c1f"
         stop-opacity="1"
         id="stop229" />
    </linearGradient>
    <linearGradient
       x2="4.8329601"
       y2="2.4672599"
       id="Grad31"
       x1="0.041247699"
       gradientUnits="userSpaceOnUse"
       y1="2.4672599">
      <stop
         offset="0%"
         stop-color="#f5f3c2"
         stop-opacity="1"
         id="stop232" />
      <stop
         offset="55.1515%"
         stop-color="#fcd404"
         stop-opacity="1"
         id="stop234" />
      <stop
         offset="100%"
         stop-color="#dd6c1f"
         stop-opacity="1"
         id="stop236" />
    </linearGradient>
    <linearGradient
       x2="4.8330798"
       y2="2.46767"
       id="Grad32"
       x1="0.0413762"
       gradientUnits="userSpaceOnUse"
       y1="2.46767">
      <stop
         offset="0%"
         stop-color="#f5f3c2"
         stop-opacity="1"
         id="stop239" />
      <stop
         offset="55.1515%"
         stop-color="#fcd404"
         stop-opacity="1"
         id="stop241" />
      <stop
         offset="100%"
         stop-color="#dd6c1f"
         stop-opacity="1"
         id="stop243" />
    </linearGradient>
    <linearGradient
       x2="4.8333201"
       y2="2.4674599"
       id="Grad33"
       x1="0.041272901"
       gradientUnits="userSpaceOnUse"
       y1="2.4674599">
      <stop
         offset="0%"
         stop-color="#f5f3c2"
         stop-opacity="1"
         id="stop246" />
      <stop
         offset="55.1515%"
         stop-color="#fcd404"
         stop-opacity="1"
         id="stop248" />
      <stop
         offset="100%"
         stop-color="#dd6c1f"
         stop-opacity="1"
         id="stop250" />
    </linearGradient>
    <linearGradient
       x2="4.8328099"
       y2="2.46735"
       id="Grad34"
       x1="0.0407773"
       gradientUnits="userSpaceOnUse"
       y1="2.46735">
      <stop
         offset="0%"
         stop-color="#f5f3c2"
         stop-opacity="1"
         id="stop253" />
      <stop
         offset="55.1515%"
         stop-color="#fcd404"
         stop-opacity="1"
         id="stop255" />
      <stop
         offset="100%"
         stop-color="#dd6c1f"
         stop-opacity="1"
         id="stop257" />
    </linearGradient>
    <linearGradient
       x2="4.8336201"
       y2="2.4672201"
       id="Grad35"
       x1="0.042161901"
       gradientUnits="userSpaceOnUse"
       y1="2.4672201">
      <stop
         offset="0%"
         stop-color="#f5f3c2"
         stop-opacity="1"
         id="stop260" />
      <stop
         offset="55.1515%"
         stop-color="#fcd404"
         stop-opacity="1"
         id="stop262" />
      <stop
         offset="100%"
         stop-color="#dd6c1f"
         stop-opacity="1"
         id="stop264" />
    </linearGradient>
    <linearGradient
       x2="4.8334098"
       y2="2.4674201"
       id="Grad36"
       x1="0.041825298"
       gradientUnits="userSpaceOnUse"
       y1="2.4674201">
      <stop
         offset="0%"
         stop-color="#f5f3c2"
         stop-opacity="1"
         id="stop267" />
      <stop
         offset="55.1515%"
         stop-color="#fcd404"
         stop-opacity="1"
         id="stop269" />
      <stop
         offset="100%"
         stop-color="#dd6c1f"
         stop-opacity="1"
         id="stop271" />
    </linearGradient>
    <linearGradient
       x2="4.8323002"
       y2="2.4665999"
       id="Grad37"
       x1="0.040570699"
       gradientUnits="userSpaceOnUse"
       y1="2.4665999">
      <stop
         offset="0%"
         stop-color="#f5f3c2"
         stop-opacity="1"
         id="stop274" />
      <stop
         offset="55.1515%"
         stop-color="#fcd404"
         stop-opacity="1"
         id="stop276" />
      <stop
         offset="100%"
         stop-color="#dd6c1f"
         stop-opacity="1"
         id="stop278" />
    </linearGradient>
    <linearGradient
       x2="4.83323"
       y2="2.4671199"
       id="Grad38"
       x1="0.0412593"
       gradientUnits="userSpaceOnUse"
       y1="2.4671199">
      <stop
         offset="0%"
         stop-color="#f5f3c2"
         stop-opacity="1"
         id="stop281" />
      <stop
         offset="55.1515%"
         stop-color="#fcd404"
         stop-opacity="1"
         id="stop283" />
      <stop
         offset="100%"
         stop-color="#dd6c1f"
         stop-opacity="1"
         id="stop285" />
    </linearGradient>
    <linearGradient
       x2="4.8330302"
       y2="2.4680901"
       id="Grad39"
       x1="0.0413411"
       gradientUnits="userSpaceOnUse"
       y1="2.4680901">
      <stop
         offset="0%"
         stop-color="#f5f3c2"
         stop-opacity="1"
         id="stop288" />
      <stop
         offset="55.1515%"
         stop-color="#fcd404"
         stop-opacity="1"
         id="stop290" />
      <stop
         offset="100%"
         stop-color="#dd6c1f"
         stop-opacity="1"
         id="stop292" />
    </linearGradient>
    <linearGradient
       x2="4.83357"
       y2="2.4670899"
       id="Grad40"
       x1="0.041724902"
       gradientUnits="userSpaceOnUse"
       y1="2.4670899">
      <stop
         offset="0%"
         stop-color="#f5f3c2"
         stop-opacity="1"
         id="stop295" />
      <stop
         offset="55.1515%"
         stop-color="#fcd404"
         stop-opacity="1"
         id="stop297" />
      <stop
         offset="100%"
         stop-color="#dd6c1f"
         stop-opacity="1"
         id="stop299" />
    </linearGradient>
    <linearGradient
       x2="4.83354"
       y2="2.4672899"
       id="Grad41"
       x1="0.041524101"
       gradientUnits="userSpaceOnUse"
       y1="2.4672899">
      <stop
         offset="0%"
         stop-color="#f5f3c2"
         stop-opacity="1"
         id="stop302" />
      <stop
         offset="55.1515%"
         stop-color="#fcd404"
         stop-opacity="1"
         id="stop304" />
      <stop
         offset="100%"
         stop-color="#dd6c1f"
         stop-opacity="1"
         id="stop306" />
    </linearGradient>
    <linearGradient
       x2="4.83318"
       y2="2.46715"
       id="Grad42"
       x1="0.0416504"
       gradientUnits="userSpaceOnUse"
       y1="2.46715">
      <stop
         offset="0%"
         stop-color="#f5f3c2"
         stop-opacity="1"
         id="stop309" />
      <stop
         offset="55.1515%"
         stop-color="#fcd404"
         stop-opacity="1"
         id="stop311" />
      <stop
         offset="100%"
         stop-color="#dd6c1f"
         stop-opacity="1"
         id="stop313" />
    </linearGradient>
    <linearGradient
       x2="4.8330698"
       y2="2.46715"
       id="Grad43"
       x1="0.041464001"
       gradientUnits="userSpaceOnUse"
       y1="2.46715">
      <stop
         offset="0%"
         stop-color="#f5f3c2"
         stop-opacity="1"
         id="stop316" />
      <stop
         offset="55.1515%"
         stop-color="#fcd404"
         stop-opacity="1"
         id="stop318" />
      <stop
         offset="100%"
         stop-color="#dd6c1f"
         stop-opacity="1"
         id="stop320" />
    </linearGradient>
    <linearGradient
       x2="4.8332701"
       y2="2.46731"
       id="Grad44"
       x1="0.041574199"
       gradientUnits="userSpaceOnUse"
       y1="2.46731">
      <stop
         offset="0%"
         stop-color="#f5f3c2"
         stop-opacity="1"
         id="stop323" />
      <stop
         offset="55.1515%"
         stop-color="#fcd404"
         stop-opacity="1"
         id="stop325" />
      <stop
         offset="100%"
         stop-color="#dd6c1f"
         stop-opacity="1"
         id="stop327" />
    </linearGradient>
    <linearGradient
       x2="4.8333101"
       y2="2.4670999"
       id="Grad45"
       x1="0.041359302"
       gradientUnits="userSpaceOnUse"
       y1="2.4670999">
      <stop
         offset="0%"
         stop-color="#f5f3c2"
         stop-opacity="1"
         id="stop330" />
      <stop
         offset="55.1515%"
         stop-color="#fcd404"
         stop-opacity="1"
         id="stop332" />
      <stop
         offset="100%"
         stop-color="#dd6c1f"
         stop-opacity="1"
         id="stop334" />
    </linearGradient>
    <linearGradient
       x2="4.8332601"
       y2="2.46703"
       id="Grad46"
       x1="0.041421998"
       gradientUnits="userSpaceOnUse"
       y1="2.46703">
      <stop
         offset="0%"
         stop-color="#f5f3c2"
         stop-opacity="1"
         id="stop337" />
      <stop
         offset="55.1515%"
         stop-color="#fcd404"
         stop-opacity="1"
         id="stop339" />
      <stop
         offset="100%"
         stop-color="#dd6c1f"
         stop-opacity="1"
         id="stop341" />
    </linearGradient>
    <linearGradient
       x2="4.8331599"
       y2="2.4670899"
       id="Grad47"
       x1="0.041416202"
       gradientUnits="userSpaceOnUse"
       y1="2.4670899">
      <stop
         offset="0%"
         stop-color="#f5f3c2"
         stop-opacity="1"
         id="stop344" />
      <stop
         offset="55.1515%"
         stop-color="#fcd404"
         stop-opacity="1"
         id="stop346" />
      <stop
         offset="100%"
         stop-color="#dd6c1f"
         stop-opacity="1"
         id="stop348" />
    </linearGradient>
    <linearGradient
       x2="4.8337002"
       y2="2.46716"
       id="Grad48"
       x1="0.041858099"
       gradientUnits="userSpaceOnUse"
       y1="2.46716">
      <stop
         offset="0%"
         stop-color="#f5f3c2"
         stop-opacity="1"
         id="stop351" />
      <stop
         offset="55.1515%"
         stop-color="#fcd404"
         stop-opacity="1"
         id="stop353" />
      <stop
         offset="100%"
         stop-color="#dd6c1f"
         stop-opacity="1"
         id="stop355" />
    </linearGradient>
    <linearGradient
       x2="4.8336701"
       y2="2.4670601"
       id="Grad49"
       x1="0.041650701"
       gradientUnits="userSpaceOnUse"
       y1="2.4670601">
      <stop
         offset="0%"
         stop-color="#f5f3c2"
         stop-opacity="1"
         id="stop358" />
      <stop
         offset="55.1515%"
         stop-color="#fcd404"
         stop-opacity="1"
         id="stop360" />
      <stop
         offset="100%"
         stop-color="#dd6c1f"
         stop-opacity="1"
         id="stop362" />
    </linearGradient>
    <linearGradient
       x2="4.83324"
       y2="2.46714"
       id="Grad50"
       x1="0.041419201"
       gradientUnits="userSpaceOnUse"
       y1="2.46714">
      <stop
         offset="0%"
         stop-color="#f5f3c2"
         stop-opacity="1"
         id="stop365" />
      <stop
         offset="55.1515%"
         stop-color="#fcd404"
         stop-opacity="1"
         id="stop367" />
      <stop
         offset="100%"
         stop-color="#dd6c1f"
         stop-opacity="1"
         id="stop369" />
    </linearGradient>
    <linearGradient
       x2="4.83324"
       y2="2.4670401"
       id="Grad51"
       x1="0.041340102"
       gradientUnits="userSpaceOnUse"
       y1="2.4670401">
      <stop
         offset="0%"
         stop-color="#f5f3c2"
         stop-opacity="1"
         id="stop372" />
      <stop
         offset="55.1515%"
         stop-color="#fcd404"
         stop-opacity="1"
         id="stop374" />
      <stop
         offset="100%"
         stop-color="#dd6c1f"
         stop-opacity="1"
         id="stop376" />
    </linearGradient>
    <linearGradient
       x2="4.8330998"
       y2="2.4672599"
       id="Grad52"
       x1="0.0414932"
       gradientUnits="userSpaceOnUse"
       y1="2.4672599">
      <stop
         offset="0%"
         stop-color="#f5f3c2"
         stop-opacity="1"
         id="stop379" />
      <stop
         offset="55.1515%"
         stop-color="#fcd404"
         stop-opacity="1"
         id="stop381" />
      <stop
         offset="100%"
         stop-color="#dd6c1f"
         stop-opacity="1"
         id="stop383" />
    </linearGradient>
    <linearGradient
       x2="4.8337002"
       y2="2.4671099"
       id="Grad53"
       x1="0.041487899"
       gradientUnits="userSpaceOnUse"
       y1="2.4671099">
      <stop
         offset="0%"
         stop-color="#f5f3c2"
         stop-opacity="1"
         id="stop386" />
      <stop
         offset="55.1515%"
         stop-color="#fcd404"
         stop-opacity="1"
         id="stop388" />
      <stop
         offset="100%"
         stop-color="#dd6c1f"
         stop-opacity="1"
         id="stop390" />
    </linearGradient>
    <linearGradient
       x2="29.957001"
       y2="15.9952"
       id="Grad54"
       x1="-0.96560001"
       gradientUnits="userSpaceOnUse"
       y1="15.9952">
      <stop
         offset="0%"
         stop-color="#fbef72"
         stop-opacity="1"
         id="stop393" />
      <stop
         offset="13.3333%"
         stop-color="#fbef72"
         stop-opacity="1"
         id="stop395" />
      <stop
         offset="50.9091%"
         stop-color="#fcd404"
         stop-opacity="1"
         id="stop397" />
      <stop
         offset="100%"
         stop-color="#d59420"
         stop-opacity="1"
         id="stop399" />
    </linearGradient>
    <linearGradient
       x2="23.338499"
       y2="22.6668"
       id="Grad55"
       x1="0.99060798"
       gradientUnits="userSpaceOnUse"
       y1="22.6668">
      <stop
         offset="0%"
         stop-color="#dceff6"
         stop-opacity="1"
         id="stop402" />
      <stop
         offset="100%"
         stop-color="#3f6e7a"
         stop-opacity="1"
         id="stop404" />
    </linearGradient>
  </defs>
  <g
     id="Background"
     transform="translate(-17.39065,-94.925446)">
    <g
       id="cloudy"
       style="fill:none;stroke:none"
       clip-path="url(#Clip2)"
       clip-rule="evenodd"
       transform="translate(14.72,92.4018)">
      <path
         d="M 0,3.1777 4.96704,4.93427 3.97275,0 Z"
         style="fill:url(#Grad29);fill-rule:evenodd;stroke:none"
         transform="rotate(162.002,19.173889,11.231504)"
         id="path2396" />
      <path
         d="M 0,3.17861 4.96727,4.93458 3.97304,0 Z"
         style="fill:url(#Grad30);fill-rule:evenodd;stroke:none"
         transform="rotate(140.93,17.253382,12.300927)"
         id="path2398" />
      <path
         d="M 0,3.1784 4.96704,4.93452 3.97317,0 Z"
         style="fill:url(#Grad31);fill-rule:evenodd;stroke:none"
         transform="rotate(126.927,15.724823,12.512923)"
         id="path2400" />
      <path
         d="M 0,3.17901 4.96802,4.93472 3.97414,0 Z"
         style="fill:url(#Grad32);fill-rule:evenodd;stroke:none"
         transform="rotate(113.971,14.044875,12.333286)"
         id="path2402" />
      <path
         d="M 0,3.17896 4.96747,4.93483 3.97386,0 Z"
         style="fill:url(#Grad33);fill-rule:evenodd;stroke:none"
         transform="rotate(103.656,11.936086,12.03214)"
         id="path2404" />
      <path
         d="M 0,3.17883 4.96672,4.93456 3.97239,0 Z"
         style="fill:url(#Grad34);fill-rule:evenodd;stroke:none"
         transform="rotate(82.5829,8.8708349,13.263495)"
         id="path2406" />
      <path
         d="M 0,3.17803 4.96748,4.93398 3.97353,0 Z"
         style="fill:url(#Grad35);fill-rule:evenodd;stroke:none"
         transform="rotate(68.5816,5.4158569,13.698737)"
         id="path2408" />
      <path
         d="M 0,3.17895 4.96708,4.93407 3.97334,0 Z"
         style="fill:url(#Grad36);fill-rule:evenodd;stroke:none"
         transform="rotate(55.6266,0.40037499,13.722321)"
         id="path2410" />
      <path
         d="M 0,3.17857 4.9677,4.93459 3.97329,0 Z"
         style="fill:url(#Grad37);fill-rule:evenodd;stroke:none"
         transform="rotate(44.3193,-6.6838245,14.29334)"
         id="path2412" />
      <path
         d="M 0,3.1789 4.96765,4.93479 3.9733,0 Z"
         style="fill:url(#Grad38);fill-rule:evenodd;stroke:none"
         transform="rotate(23.2475,-29.833181,18.290458)"
         id="path2414" />
      <path
         d="M 0,3.17921 4.96756,4.93497 3.97309,0 Z"
         style="fill:url(#Grad39);fill-rule:evenodd;stroke:none"
         transform="rotate(9.24756,-108.14968,28.5447)"
         id="path2416" />
      <path
         d="M 0,3.17874 4.96773,4.93432 3.97339,0 Z"
         style="fill:url(#Grad40);fill-rule:evenodd;stroke:none"
         transform="rotate(-3.71,353.25508,-27.194921)"
         id="path2418" />
      <path
         d="M 0,3.17878 4.96767,4.93457 3.97318,0 Z"
         style="fill:url(#Grad41);fill-rule:evenodd;stroke:none"
         transform="rotate(-11.128,138.46894,-3.6440184)"
         id="path2420" />
      <path
         d="M 0,3.17848 4.96727,4.93423 3.97325,0 Z"
         style="fill:url(#Grad42);fill-rule:evenodd;stroke:none"
         transform="rotate(-32.201,57.893636,7.0122688)"
         id="path2422" />
      <path
         d="M 0,3.17831 4.96744,4.9342 3.97313,0 Z"
         style="fill:url(#Grad43);fill-rule:evenodd;stroke:none"
         transform="rotate(-46.199,45.950643,8.58359)"
         id="path2424" />
      <path
         d="M 0,3.17885 4.96746,4.9344 3.97319,0 Z"
         style="fill:url(#Grad44);fill-rule:evenodd;stroke:none"
         transform="rotate(-59.157,40.422071,9.2893253)"
         id="path2426" />
      <path
         d="M 0,3.17881 4.96775,4.93426 3.97313,0 Z"
         style="fill:url(#Grad45);fill-rule:evenodd;stroke:none"
         transform="rotate(-68.494,37.840688,8.9502676)"
         id="path2428" />
      <path
         d="M 0,3.17851 4.96769,4.93409 3.97325,0 Z"
         style="fill:url(#Grad46);fill-rule:evenodd;stroke:none"
         transform="rotate(-89.57,31.777468,10.453277)"
         id="path2430" />
      <path
         d="M 0,3.1787 4.96747,4.93419 3.97302,0 Z"
         style="fill:url(#Grad47);fill-rule:evenodd;stroke:none"
         transform="rotate(-103.568,29.420777,10.771992)"
         id="path2432" />
      <path
         d="M 0,3.17896 4.96762,4.93438 3.97308,0 Z"
         style="fill:url(#Grad48);fill-rule:evenodd;stroke:none"
         transform="rotate(-116.524,27.931493,10.768329)"
         id="path2434" />
      <path
         d="M 0,3.17867 4.96787,4.93414 3.97326,0 Z"
         style="fill:url(#Grad49);fill-rule:evenodd;stroke:none"
         transform="rotate(-126.551,26.749879,10.345787)"
         id="path2436" />
      <path
         d="M 0,3.17876 4.96758,4.93429 3.97331,0 Z"
         style="fill:url(#Grad50);fill-rule:evenodd;stroke:none"
         transform="rotate(-147.624,24.108863,11.461563)"
         id="path2438" />
      <path
         d="M 0,3.1788 4.96754,4.93405 3.97326,0 Z"
         style="fill:url(#Grad51);fill-rule:evenodd;stroke:none"
         transform="rotate(-161.621,22.736533,11.649533)"
         id="path2440" />
      <path
         d="M 0,3.17852 4.96719,4.93476 3.97356,0 Z"
         style="fill:url(#Grad52);fill-rule:evenodd;stroke:none"
         transform="rotate(-174.584,21.64819,11.502028)"
         id="path2442" />
      <path
         d="M 0,3.17848 4.96792,4.93419 3.97389,0 Z"
         style="fill:url(#Grad53);fill-rule:evenodd;stroke:none"
         transform="rotate(175.245,20.595071,11.087997)"
         id="path2444" />
      <path
         d="m 28.7177,6.29989 0.25,0.33677 0.2398,0.34113 0.2296,0.34532 0.2197,0.3493 0.2095,0.35314 0.1997,0.35676 0.1894,0.3602 0.1797,0.36346 0.1697,0.36655 0.1597,0.36943 0.1498,0.37215 0.14,0.3747 0.1302,0.377 0.1203,0.3791 0.1105,0.3811 0.1009,0.3829 0.0909,0.3846 0.0813,0.3859 0.0716,0.3872 0.0619,0.3881 0.0524,0.3891 0.0426,0.3897 0.0332,0.3902 0.0235,0.3906 0.0139,0.3906 0.0044,0.3906 -0.005,0.3903 -0.0146,0.39 -0.0238,0.3893 -0.0334,0.3884 -0.0429,0.3875 -0.0521,0.3864 -0.0615,0.385 -0.0708,0.3835 -0.0801,0.3817 -0.0893,0.3798 -0.0987,0.3778 -0.1078,0.3754 -0.117,0.3729 -0.1262,0.3704 -0.1354,0.3674 -0.1444,0.3646 -0.1536,0.3613 -0.1626,0.3579 -0.1717,0.3542 -0.1807,0.3507 -0.1897,0.3466 -0.1987,0.3425 -0.2076,0.3382 -0.2165,0.3336 -0.2254,0.3291 -0.2343,0.3242 -0.2432,0.3191 -0.2519,0.3138 -0.2609,0.3086 -0.2695,0.3028 -0.2782,0.2971 -0.287,0.291 -0.2957,0.285 -0.3043,0.2787 -0.3131,0.2721 -0.3216,0.2654 -0.3302,0.2585 -0.3369,0.2499 -0.3411,0.2398 -0.3454,0.2297 -0.3493,0.2197 -0.3531,0.2097 -0.3568,0.1995 -0.3604,0.1897 -0.3634,0.1796 -0.3666,0.1698 -0.3695,0.1597 -0.3721,0.1499 -0.3748,0.1401 -0.377,0.1302 -0.3792,0.1203 -0.3811,0.1105 -0.383,0.1009 -0.3845,0.0911 -0.3859,0.0814 -0.3873,0.0716 -0.3881,0.0619 -0.3891,0.0524 -0.3897,0.0427 -0.3904,0.0332 -0.3904,0.0235 -0.3907,0.0141 -0.3906,0.0044 -0.3905,-0.0051 -0.3898,-0.0144 -0.3894,-0.0239 -0.3885,-0.0334 -0.3875,-0.0427 -0.3864,-0.052 -0.3849,-0.0615 -0.3835,-0.0707 -0.3818,-0.0802 -0.3798,-0.0892 -0.3777,-0.0987 -0.3755,-0.1077 -0.373,-0.117 L 10.6375,31.0689 10.27,30.9335 9.9055,30.7891 9.54421,30.6356 9.1863,30.4731 8.83197,30.3013 8.48139,30.1207 8.13475,29.9311 7.79224,29.7324 7.45404,29.5248 7.12033,29.3083 6.7913,29.083 6.46713,28.8487 6.14802,28.6055 5.83412,28.3536 5.52565,28.0929 5.22278,27.8234 4.92571,27.5451 4.63459,27.2581 4.34963,26.9624 4.07101,26.6581 3.79893,26.345 3.53354,26.0235 3.27506,25.6932 3.0251,25.3564 2.78526,25.0153 2.55553,24.6698 2.33584,24.3205 2.12622,23.9673 1.92661,23.6105 1.73699,23.2502 1.55734,22.8867 1.38765,22.5201 1.22786,22.1506 1.07797,21.7785 0.937949,21.4037 0.807774,21.0267 0.687418,20.6475 0.576857,20.2664 0.476065,19.8834 0.385018,19.4988 0.30369,19.1129 0.232059,18.7257 0.170097,18.3375 0.11778,17.9484 0.0750835,17.5586 0.041982,17.1683 0.0184509,16.7777 0.0044652,16.387 0,15.9965 0.00503036,15.6061 0.0195314,15.2162 0.0434781,14.8268 0.0768455,14.4383 0.119609,14.0507 0.171743,13.6644 0.233223,13.2793 0.304024,12.8958 0.384123,12.5141 0.473491,12.1342 0.572106,11.7565 0.679943,11.381 0.796976,11.008 0.92318,10.6376 1.05853,10.2701 1.203,9.9056 1.35657,9.54429 1.51922,9.18636 1.69091,8.832 1.87162,8.4814 2.06133,8.13474 2.26001,7.7922 2.46763,7.45396 2.68418,7.12023 2.90962,6.79117 3.14394,6.46698 3.38711,6.14783 3.6391,5.83391 3.89988,5.52541 4.16945,5.22251 4.44775,4.9254 4.73479,4.63425 5.03051,4.34926 5.33491,4.07062 5.64796,3.79849 5.96963,3.53308 6.2999,3.27455 6.63666,3.02464 6.9778,2.78484 7.32312,2.55514 7.67244,2.3355 8.02556,2.1259 8.38233,1.92632 8.74254,1.73673 9.10601,1.55711 9.47256,1.38744 9.842,1.22767 10.2142,1.07781 10.5888,0.937807 10.9658,0.80765 11.345,0.687311 11.7261,0.576766 12.1091,0.475988 12.4936,0.384954 12.8795,0.303639 13.2667,0.232018 13.6549,0.170065 14.0439,0.117756 14.4338,0.0750658 14.824,0.0419702 15.2146,0.018444 15.6051,0.00446217 15.9958,0 l 0.3904,0.00503256 0.3899,0.01450244 0.3893,0.0239475 0.3886,0.0333674 0.3875,0.0427631 0.3863,0.052133 0.3851,0.061479 0.3835,0.070799 0.3817,0.080095 0.3798,0.089366 0.3778,0.098613 0.3755,0.107833 0.3729,0.117029 0.3704,0.126202 0.3676,0.135348 0.3645,0.14447 0.3613,0.15357 0.3579,0.16263 0.3544,0.17169 0.3505,0.1807 0.3468,0.18971 0.3424,0.19868 0.3384,0.20762 0.3336,0.21654 0.3292,0.22545 0.3241,0.23432 0.3192,0.24316 0.3138,0.252 0.3086,0.26079 0.3029,0.26956 0.2971,0.27831 0.2912,0.28703 0.2849,0.29573 0.2787,0.30441 0.2721,0.31306 0.2655,0.32168 z"
         style="fill:url(#Grad54);fill-rule:evenodd;stroke:none"
         transform="rotate(37.316,9.6968,28.717262)"
         id="path2446" />
      <path
         d="m 28.9978,23.9545 c -1.3108,0 -2.3325,-0.0438 -2.9592,-0.0807 -0.7019,-0.0414 -1.6149,-0.073 -2.6718,-0.11 C 15.4871,23.4893 0.82036,22.9782 0.00811361,16.4845 l -0.0045288,-0.0346 -9.792e-4,-0.0348 C -0.156637,11.8107 7.02678,10.0896 9.58567,9.62333 9.03144,7.11646 9.24173,3.01104 13.2246,1.01959 14.559,0.352512 16.1376,0 17.7889,0 c 2.9947,0 5.984,1.16035 7.7063,2.94127 0.0395,-0.02815 0.0794,-0.0563 0.1197,-0.08568 1.0794,-0.77601 2.5571,-1.83722 4.7778,-1.83722 0.5358,0 1.0941,0.06365 1.6603,0.18849 2.5934,0.57651 3.5089,2.69892 3.7032,4.2277 2.4124,0.01714 9.8919,0.73073 11.6858,8.65054 0.4422,1.9542 0.084,3.674 -1.0643,5.1119 -3.3071,4.1395 -12.3089,4.7575 -17.3799,4.7575"
         style="fill:#738a92;fill-rule:nonzero;stroke:none"
         transform="translate(15.4788,14.9534)"
         id="path2448" />
      <path
         d="m 12.042,36.7511 -0.0042,0.0023 -0.0123,0.0069 -0.0203,0.011 -0.0281,0.0149 -0.0357,0.0186 -0.0431,0.0221 -0.0504,0.0253 -0.0575,0.0281 -0.0643,0.0308 -0.071,0.0333 -0.0776,0.0353 -0.0839,0.0372 -0.0901,0.0388 -0.096,0.0403 -0.1018,0.0414 -0.1074,0.0421 -0.1128,0.0428 -0.1181,0.0431 -0.1231,0.0431 -0.128,0.043 -0.1327,0.0426 -0.1372,0.0418 -0.1415,0.0408 -0.1457,0.0396 -0.14959,0.0382 -0.15339,0.0364 -0.15698,0.0345 -0.16039,0.0321 -0.16361,0.0297 -0.16666,0.0268 -0.16951,0.0239 -0.17221,0.0205 -0.17469,0.0169 -0.177,0.0133 -0.17912,0.009 -0.18108,0.0049 -0.18283,10e-5 L 7.68772,37.798 7.50191,37.7883 7.31488,37.7731 7.12683,37.7524 6.93793,37.7258 6.74835,37.6931 6.5583,37.6539 6.36796,37.6081 6.17749,37.5554 5.9871,37.4955 5.79695,37.4282 5.60723,37.3532 5.41813,37.2703 5.22983,37.1791 5.04251,37.0795 4.85635,36.9712 4.67154,36.8538 4.48827,36.7272 4.30671,36.5911 4.12705,36.4453 3.94946,36.2895 3.77413,36.1233 3.60125,35.9467 3.43099,35.7593 3.26355,35.5607 3.09911,35.351 2.97258,35.1787 2.85068,35.0035 2.73341,34.8251 2.62072,34.6437 2.5126,34.4596 2.409,34.2729 2.30993,34.0835 2.21534,33.8917 2.12521,33.6977 2.0395,33.5015 1.95822,33.3032 1.8813,33.103 1.80875,32.901 1.74053,32.6974 1.67661,32.4922 1.61698,32.2857 1.56159,32.0779 1.51043,31.8688 1.46348,31.6589 1.4207,31.448 1.38207,31.2362 1.34758,31.024 1.31717,30.8111 1.29084,30.598 1.26855,30.3846 1.25029,30.171 1.23603,29.9574 1.22574,29.7439 1.21939,29.5308 1.21696,29.318 l 0.00147,-0.2123 0.00533,-0.2116 0.00918,-0.2109 0.01298,-0.21 0.01678,-0.209 0.02054,-0.2078 0.02429,-0.2066 0.02799,-0.2051 0.03169,-0.2036 0.03535,-0.202 0.03898,-0.2001 0.04258,-0.1983 0.04619,-0.1962 0.04973,-0.194 0.05327,-0.1918 0.05678,-0.1892 0.06025,-0.1868 0.06371,-0.1841 0.06714,-0.1813 0.07055,-0.1783 0.07393,-0.1753 0.07727,-0.1721 0.08061,-0.1688 0.08391,-0.1652 0.08719,-0.1618 0.09042,-0.158 0.09367,-0.1543 0.09685,-0.1503 0.10003,-0.1461 0.10317,-0.142 0.1063,-0.1376 L 3.05448,23.4744 3.16694,23.3457 3.10665,23.281 3.0441,23.2156 2.97944,23.1496 2.9128,23.0828 2.84432,23.0152 2.77412,22.9468 2.70236,22.8774 2.62914,22.807 2.55461,22.7356 2.47889,22.663 2.40215,22.5892 2.32447,22.514 2.24603,22.4375 2.16695,22.3597 2.08734,22.2802 2.00736,22.1993 1.92713,22.1168 1.84678,22.0325 1.76646,21.9466 1.6863,21.8587 1.60643,21.769 1.52698,21.6773 1.44808,21.5835 1.36986,21.4878 1.29247,21.3898 1.21603,21.2895 1.14067,21.1871 1.06654,21.0821 0.993768,20.9747 0.92248,20.8649 0.852811,20.7524 0.784897,20.6374 0.718871,20.5196 0.654866,20.3991 0.593013,20.2757 0.533449,20.1492 0.476305,20.02 0.421716,19.8876 0.369813,19.7521 0.320731,19.6134 0.274603,19.4714 0.231562,19.3262 0.191743,19.1775 0.155277,19.0254 0.122297,18.8697 0.0929386,18.7104 0.0673338,18.5475 0.045616,18.3808 0.0279187,18.2103 0.0143751,18.036 0.00511865,17.8578 2.82486e-4,17.6754 0,17.4891 0.0044045,17.2985 0.022715,17.016 0.0566314,16.7474 0.10519,16.4922 0.167427,16.2502 0.242381,16.0211 0.329086,15.8043 0.42658,15.5998 0.533899,15.407 0.65008,15.2258 0.774158,15.0557 0.905172,14.8963 1.04216,14.7475 1.18415,14.6088 1.33018,14.4799 1.4793,14.3603 1.63054,14.2501 1.78293,14.1485 1.93551,14.0553 2.08732,13.9702 2.2374,13.893 2.38477,13.8231 2.52848,13.7605 2.66756,13.7044 2.80105,13.6548 2.92799,13.6114 3.04742,13.5737 3.15835,13.5412 3.25985,13.5141 3.35094,13.4914 3.43066,13.4733 3.49805,13.4592 3.55213,13.4488 3.59196,13.4418 3.61657,13.4379 3.62499,13.4367 3.6231,13.4296 3.61765,13.4089 3.60898,13.3746 3.59738,13.3274 3.58321,13.2675 3.56677,13.1952 3.54839,13.111 3.52839,13.0153 3.50709,12.9082 3.48481,12.7903 3.4619,12.6619 3.43866,12.5234 3.4154,12.375 3.39248,12.2172 3.37019,12.0504 3.34888,11.8748 3.32884,11.691 3.31043,11.4992 3.29394,11.2997 3.27972,11.0931 3.26808,10.8795 3.25935,10.6594 3.25384,10.4332 3.25189,10.2012 3.25381,9.96374 3.25993,9.72123 3.27056,9.474 3.28605,9.22245 3.3067,8.9669 3.33283,8.70774 3.36478,8.44534 3.40287,8.18004 3.44742,7.91222 3.49874,7.64223 3.55718,7.37044 3.62304,7.0972 3.69666,6.82291 3.77835,6.54789 3.86844,6.27251 3.96725,5.99716 4.0751,5.72218 4.19232,5.44793 4.31924,5.17478 4.45617,4.9031 4.60343,4.63324 4.76135,4.36558 4.93025,4.10047 5.11047,3.83827 5.30231,3.57936 5.5061,3.32407 5.72216,3.07279 5.95083,2.82589 6.19242,2.58369 6.44726,2.3466 6.71566,2.11496 6.99795,1.88915 7.29446,1.6695 7.60551,1.4564 7.93141,1.25022 8.2725,1.05129 8.62909,0.859995 9.00152,0.676695 9.3901,0.501751 9.78314,0.346259 10.1688,0.22051 10.5471,0.123755 10.9182,0.0552499 11.282,0.014247 11.6387,0 l 0.3496,0.0117622 0.3425,0.037025 0.3355,0.0615408 0.3285,0.085311 0.3217,0.108333 0.3148,0.13061 0.308,0.15214 0.3013,0.172923 0.2945,0.192961 0.288,0.212254 0.2813,0.23079 0.2749,0.24859 0.2683,0.26564 0.262,0.28195 0.2555,0.2975 0.2492,0.31231 0.243,0.32638 0.2367,0.33969 0.2306,0.35227 0.2246,0.36409 0.2184,0.37517 0.2125,0.3855 0.2065,0.39509 0.2006,0.40392 0.1947,0.41202 0.1889,0.41936 0.1832,0.42597 0.1776,0.4318 0.1719,0.43692 0.1663,0.44127 0.1608,0.44489 0.1554,0.44775 0.1499,0.44988 0.1446,0.45129 0.1392,0.4518 0.1339,0.4518 0.1288,0.4509 0.1236,0.4492 0.1186,0.4469 0.1135,0.4439 0.1085,0.4399 0.1035,0.4354 0.0987,0.4299 0.0937,0.424 0.0891,0.4171 0.0842,0.4094 0.0797,0.4012 0.0751,0.3921 0.0703,0.3822 0.0659,0.3717 0.0614,0.3604 0.0571,0.3482 0.0526,0.3355 0.0485,0.3219 0.044,0.3076 0.0399,0.2927 0.0358,0.2767 0.0358,0.2781 0.0402,0.2967 0.044,0.3147 0.0477,0.3319 0.0509,0.3485 0.054,0.3643 0.0565,0.3794 0.059,0.3938 0.061,0.4076 0.0626,0.4207 0.0642,0.4329 0.0652,0.4446 0.0659,0.4554 0.0664,0.4657 0.0666,0.4753 0.0663,0.4841 0.066,0.4923 0.065,0.4996 0.064,0.5064 0.0626,0.5125 0.0607,0.5177 0.0587,0.5224 0.0563,0.5264 0.0538,0.5295 0.0505,0.532 0.0473,0.534 0.0437,0.535 0.0396,0.5355 0.0355,0.5351 0.0307,0.5343 0.026,0.5325 0.0207,0.5301 0.0152,0.5272 0.0093,0.5233 0.003,0.519 -0.0033,0.5135 -0.0101,0.5079 -0.0173,0.5012 -0.0247,0.494 -0.0325,0.4861 -0.0405,0.4772 -0.0488,0.4679 -0.0577,0.4579 -0.0666,0.4472 -0.0758,0.4356 -0.0856,0.4235 -0.0955,0.4105 -0.1057,0.3971 -0.1164,0.3827 -0.1272,0.3677 -0.1386,0.3522 -0.1499,0.3356 -0.1619,0.3186 -0.174,0.3009 -0.1865,0.2823 -0.1993,0.2633 -0.2125,0.2433 -0.2258,0.2227 -0.2395,0.2015 -0.2536,0.1795 -0.268,0.1568 -0.2827,0.1334 -0.2977,0.1095 -0.2239,0.0418 -0.2215,0.0265 L 19.1991,45.333 18.9828,45.3299 18.7691,45.3126 18.558,45.2816 18.3497,45.2377 18.144,45.181 17.9411,45.1122 17.741,45.0317 17.5437,44.94 17.3493,44.8377 17.1578,44.7251 16.9692,44.6028 16.7835,44.4712 16.6009,44.331 16.4213,44.1822 16.2448,44.0258 16.0714,43.8622 15.901,43.6915 15.7339,43.5147 15.57,43.3318 15.4093,43.1437 15.2519,42.9505 15.0978,42.7531 14.947,42.5516 l -0.1474,-0.2049 -0.1439,-0.2078 -0.1404,-0.2103 -0.1371,-0.2124 -0.1334,-0.2138 -0.13,-0.2149 -0.1263,-0.2154 -0.1227,-0.2155 -0.1191,-0.2151 -0.1153,-0.2141 -0.1116,-0.2129 -0.1078,-0.2109 -0.1042,-0.2085 -0.1001,-0.2058 -0.0963,-0.2024 -0.0926,-0.1987 -0.0885,-0.1944 -0.0844,-0.1896 -0.0806,-0.1843 -0.0765,-0.1786 -0.0723,-0.1723 -0.0683,-0.1656 -0.064,-0.1585 -0.06,-0.151 -0.0557,-0.1426 -0.0514,-0.134 -0.0472,-0.125 -0.0428,-0.1153 -0.0385,-0.1051 -0.0341,-0.0947 -0.0296,-0.0836 -0.0252,-0.0721 -0.0207,-0.06 -0.0162,-0.0476 -0.0115,-0.0345 -0.007,-0.0211 z"
         style="fill:url(#Grad55);fill-rule:evenodd;stroke:none"
         transform="rotate(100.513,23.842778,36.797095)"
         id="path2450" />
      <path
         d="m 0,14.2335 c 2.89072,-2.8067 11.0413,-3.2605 11.0413,-3.2605 0,0 -3.09362,-7.0101 1.9817,-9.54868 4.0137,-2.006142 8.8943,0.43819 11.0637,3.27665 1.3355,-0.83477 3.0112,-3.26074 6.3979,-2.50798 3.2991,0.73318 2.1323,4.51534 2.1323,4.51534 0,0 10.9174,-0.69266 12.9206,8.15347 0.09,0.3999 0.1422,0.7801 0.1607,1.1424 0.1743,-0.7525 0.1759,-1.5896 -0.0353,-2.5221 C 43.6597,4.6361 33.997,5.45373 33.997,5.45373 c 0,0 0.1631,-3.53124 -3.1365,-4.26442 C 27.474,0.436546 25.6732,2.36068 24.3378,3.19545 22.1681,0.35821 16.5605,-1.06897 12.5465,0.938386 7.47166,3.47574 9.53814,9.47567 9.53814,9.47567 c 0,0 -8.01291,1.04593 -9.53814,4.75783"
         style="fill:#dbeff8;fill-rule:nonzero;stroke:none"
         transform="translate(16.5031,15.7274)"
         id="path2452" />
    </g>
  </g>
</svg>
