<?xml version="1.0" encoding="UTF-8" standalone="no"?>
<svg
   width="112.6508pt"
   height="84.363594pt"
   version="1.1"
   viewBox="0 0 112.6508 84.363594"
   id="svg233565"
   sodipodi:docname="Document-3-page001.svg"
   inkscape:version="1.2.2 (b0a8486541, 2022-12-01)"
   inkscape:export-filename="../Github Repos/own-weather-app/src/assets/icons/Document-3-page001.svg"
   inkscape:export-xdpi="96"
   inkscape:export-ydpi="96"
   xmlns:inkscape="http://www.inkscape.org/namespaces/inkscape"
   xmlns:sodipodi="http://sodipodi.sourceforge.net/DTD/sodipodi-0.dtd"
   xmlns="http://www.w3.org/2000/svg"
   xmlns:svg="http://www.w3.org/2000/svg">
  <sodipodi:namedview
     id="namedview233567"
     pagecolor="#00000f"
     bordercolor="#000000"
     borderopacity="0.25"
     inkscape:showpageshadow="2"
     inkscape:pageopacity="0"
     inkscape:pagecheckerboard="0"
     inkscape:deskcolor="#d1d1d1"
     inkscape:document-units="pt"
     showgrid="false"
     inkscape:zoom="0.7594697"
     inkscape:cx="408.17955"
     inkscape:cy="528"
     inkscape:window-width="1920"
     inkscape:window-height="1014"
     inkscape:window-x="0"
     inkscape:window-y="0"
     inkscape:window-maximized="1"
     inkscape:current-layer="Background" />
  <defs
     id="defs233522">
    <clipPath
       id="Clip1">
      <path
         d="M 0,0 H 112.651 V 84.3636 H 0 Z"
         id="path233504" />
    </clipPath>
  </defs>
  <g
     inkscape:groupmode="layer"
     id="Background"
     inkscape:label="Background"
     transform="translate(-48.627399,-65.363197)">
    <g
       id="few_clouds_2"
       style="fill:none;stroke:none"
       clip-path="url(#Clip1)"
       clip-rule="evenodd"
       transform="translate(48.6274,65.3632)"
       inkscape:export-filename="../Github Repos/own-weather-app/src/assets/icons/few_clouds_2.svg"
       inkscape:export-xdpi="96"
       inkscape:export-ydpi="96">
      <path
         d="m 35.2067,0 c -0.7967,0 -1.438,0.640687 -1.438,1.43756 v 8.62854 c 0,0.7969 0.6413,1.4376 1.438,1.4376 0.7968,0 1.4381,-0.6407 1.4381,-1.4376 V 1.43756 C 36.6448,0.640687 36.0035,0 35.2067,0 Z M 11.3289,9.88922 c -0.3677,0 -0.7357,0.14028 -1.0175,0.42238 -0.56323,0.5641 -0.56323,1.471 0,2.0336 l 6.1015,6.1009 c 0.5634,0.5641 1.4704,0.5641 2.0336,0 0.5634,-0.5626 0.5634,-1.4695 0,-2.0337 L 12.3457,10.3116 C 12.0639,10.0295 11.6964,9.88922 11.3289,9.88922 Z m 47.7562,0 c -0.3675,0 -0.735,0.14028 -1.0168,0.42238 l -6.1009,6.1008 c -0.5634,0.5642 -0.5634,1.4711 0,2.0337 0.5632,0.5641 1.4702,0.5641 2.0336,0 l 6.1011,-6.1009 c 0.5632,-0.5626 0.5632,-1.4695 0,-2.0336 -0.2818,-0.2821 -0.6493,-0.42238 -1.017,-0.42238 z M 35.2067,14.1668 c -11.6202,0 -21.04,9.4207 -21.04,21.0407 0,11.6201 9.42,21.0391 21.04,21.0391 11.6201,0 21.0399,-9.419 21.0401,-21.0391 -2e-4,-11.62 -9.42,-21.0407 -21.0401,-21.0407 z M 1.43756,33.7684 C 0.640847,33.7684 0,34.4107 0,35.2075 c 0,0.7953 0.640847,1.4376 1.43756,1.4376 H 10.066 c 0.7967,0 1.4382,-0.6423 1.4382,-1.4376 0,-0.7968 -0.6415,-1.4391 -1.4382,-1.4391 z m 58.90974,0 c -0.7965,0 -1.438,0.6423 -1.438,1.4391 0,0.7953 0.6415,1.4376 1.438,1.4376 h 8.6286 c 0.7966,0 1.438,-0.6423 1.438,-1.4376 0,-0.7968 -0.6414,-1.4391 -1.438,-1.4391 z M 17.4297,51.5451 c -0.3675,0 -0.7352,0.1402 -1.0168,0.4223 l -6.1015,6.1009 c -0.56323,0.5642 -0.56323,1.471 0,2.0336 0.5634,0.5642 1.4709,0.5642 2.0343,0 l 6.1008,-6.1009 c 0.5634,-0.5626 0.5634,-1.4694 0,-2.0336 -0.2816,-0.2821 -0.6491,-0.4223 -1.0168,-0.4223 z m 35.5545,0 c -0.3677,0 -0.7352,0.1402 -1.0168,0.4223 -0.5634,0.5642 -0.5634,1.471 0,2.0336 l 6.1009,6.1009 c 0.5634,0.5642 1.4704,0.5642 2.0338,0 0.5632,-0.5626 0.5632,-1.4694 0,-2.0336 L 54.001,51.9674 c -0.2816,-0.2821 -0.6493,-0.4223 -1.0168,-0.4223 z m -17.7775,7.3647 c -0.7967,0 -1.438,0.6407 -1.438,1.4375 v 8.6286 c 0,0.7969 0.6413,1.4376 1.438,1.4376 0.7968,0 1.4381,-0.6407 1.4381,-1.4376 v -8.6286 c 0,-0.7968 -0.6413,-1.4375 -1.4381,-1.4375 z"
         style="fill:#ffa100;fill-rule:nonzero;stroke:none"
         transform="translate(42.2369)"
         id="path233529" />
      <path
         d="M 38.5853,0 C 25.0918,0.00478125 13.9375,10.5187 13.1355,23.9891 5.62626,25.4841 0,32.0822 0,40.043 0,49.113 7.30177,56.414 16.3716,56.414 H 73.8858 88.011 c 6.3229,0 11.4132,-5.8555 11.4132,-13.1278 0,-7.2722 -5.0903,-13.1261 -11.4132,-13.1261 H 87.2481 C 85.7203,21.1267 77.8976,14.5159 68.737,14.5159 66.4828,14.5175 64.2476,14.9271 62.1381,15.7223 58.1848,6.20287 48.8918,0 38.5853,0"
         style="fill:#ffffff;fill-rule:nonzero;stroke:none"
         transform="translate(0,27.9496)"
         id="path233531" />
    </g>
  </g>
</svg>
