<?xml version="1.0" encoding="UTF-8" standalone="no"?>
<svg
   width="52.689377pt"
   height="35.385986pt"
   version="1.1"
   viewBox="0 0 52.689377 35.385986"
   id="svg6053"
   sodipodi:docname="Weather Icons-page001.svg"
   xmlns:inkscape="http://www.inkscape.org/namespaces/inkscape"
   xmlns:sodipodi="http://sodipodi.sourceforge.net/DTD/sodipodi-0.dtd"
   xmlns="http://www.w3.org/2000/svg"
   xmlns:svg="http://www.w3.org/2000/svg">
  <sodipodi:namedview
     id="namedview6055"
     pagecolor="#ffffff"
     bordercolor="#000000"
     borderopacity="0.25"
     inkscape:showpageshadow="2"
     inkscape:pageopacity="0.0"
     inkscape:pagecheckerboard="0"
     inkscape:deskcolor="#d1d1d1"
     inkscape:document-units="pt"
     showgrid="false" />
  <defs
     id="defs2330">
    <clipPath
       id="Clip3">
      <path
         d="M 0,0 H 53.958 V 35.386 H 0 Z"
         id="path407" />
    </clipPath>
    <linearGradient
       x2="32.681599"
       y2="17.1765"
       id="Grad56"
       x1="-0.000718617"
       gradientUnits="userSpaceOnUse"
       y1="17.1765">
      <stop
         offset="0%"
         stop-color="#dceff6"
         stop-opacity="1"
         id="stop410" />
      <stop
         offset="100%"
         stop-color="#738a92"
         stop-opacity="1"
         id="stop412" />
    </linearGradient>
    <linearGradient
       x2="23.339001"
       y2="22.667101"
       id="Grad57"
       x1="0.990915"
       gradientUnits="userSpaceOnUse"
       y1="22.667101">
      <stop
         offset="0%"
         stop-color="#dceff6"
         stop-opacity="1"
         id="stop415" />
      <stop
         offset="100%"
         stop-color="#3f6e7a"
         stop-opacity="1"
         id="stop417" />
    </linearGradient>
  </defs>
  <g
     inkscape:groupmode="layer"
     id="Background"
     inkscape:label="Background"
     transform="translate(-164.24599,-153.138)">
    <g
       id="night_clouds"
       style="fill:none;stroke:none"
       clip-path="url(#Clip3)"
       clip-rule="evenodd"
       transform="translate(164.246,153.138)">
      <path
         d="m 17.1845,35.386 c -2.7663,0 -5.3734,-0.6218 -7.74916,-1.8483 C 5.87105,31.6983 3.02647,28.6385 1.42671,24.9224 -0.286895,20.9412 -0.460703,16.5706 0.926089,12.2835 3.65683,3.84409 11.4929,0 17.6165,0 c 1.8948,0 3.6586,0.338558 5.2449,1.00613 1.0404,0.43746 2.0832,1.02057 3.1885,1.78214 0.2007,0.13831 0.2779,0.39915 0.1824,0.62461 -0.0808,0.19413 -0.2705,0.31604 -0.4749,0.31604 -0.0331,0 -0.0661,-0.00306 -0.0992,-0.00955 -0.7784,-0.15178 -1.5753,-0.22864 -2.3684,-0.22864 -4.9242,0 -9.3905,2.90724 -11.3771,7.40627 -2.7699,6.276 0.0808,13.6356 6.355,16.4059 1.5961,0.7048 3.2816,1.0622 5.0111,1.0622 3.6867,0 7.1604,-1.6179 9.5288,-4.4385 0.1016,-0.1199 0.2473,-0.1839 0.3966,-0.1839 0.082,0 0.1664,0.0199 0.2436,0.0615 0.2154,0.1157 0.3194,0.3666 0.2497,0.601 -0.038,0.1295 -0.0747,0.2602 -0.1127,0.3917 -0.1909,0.6727 -0.3892,1.3684 -0.7747,2.0131 -3.1212,5.2097 -9.2547,8.576 -15.6256,8.576"
         style="fill:#90a1aa;fill-rule:nonzero;stroke:none"
         id="path2455" />
      <path
         d="M 17.538,27.2584 17.2289,27.1171 16.9253,26.9689 16.6273,26.8137 16.3349,26.6517 16.048,26.4832 15.767,26.308 15.4916,26.1266 15.2219,25.939 14.9583,25.7454 14.7004,25.5457 14.4486,25.3402 14.2027,25.1292 13.963,24.9126 13.7294,24.6907 13.5019,24.4635 13.2806,24.2313 13.0658,23.9941 12.8573,23.7521 12.6551,23.5053 12.4593,23.2542 12.2701,22.9986 12.0875,22.7389 11.9114,22.475 11.7421,22.207 11.5794,21.9353 11.4236,21.66 11.2746,21.3811 11.1324,21.0988 10.9972,20.8133 10.869,20.5245 10.7479,20.233 10.6339,19.9385 10.527,19.6413 10.4273,19.3415 10.335,19.0394 10.2499,18.735 10.1722,18.4285 10.1019,18.12 10.0392,17.8097 9.98394,17.4976 9.93631,17.1839 9.89632,16.8688 9.86403,16.5525 9.83952,16.235 9.8228,15.9165 9.81396,15.5971 9.81303,15.277 9.82008,14.9563 9.83516,14.6352 9.85832,14.3138 9.88963,13.9923 9.92911,13.6706 9.97686,13.3492 10.0329,13.028 l 0.0644,-0.3208 0.0728,-0.3203 0.0813,-0.3196 0.0898,-0.3188 0.0983,-0.3177 0.107,-0.3167 0.1157,-0.3155 0.1244,-0.314 0.1332,-0.3125 0.1212,-0.26655 0.1265,-0.26241 0.1316,-0.25832 0.1367,-0.25417 0.1416,-0.25 L 11.7239,8.63484 11.8753,8.3933 12.0313,8.15603 12.192,7.92306 12.3571,7.69444 12.5268,7.47021 12.7008,7.25039 12.8791,7.03501 13.0614,6.82412 13.248,6.61775 13.4384,6.41593 13.6328,6.21869 13.831,6.02607 14.0329,5.83811 14.2384,5.65483 14.4475,5.47629 14.66,5.30249 14.8759,5.13349 15.095,4.96932 15.3174,4.81 15.5428,4.65558 15.7712,4.50608 16.0026,4.36155 16.2367,4.22203 16.4736,4.08752 16.7131,3.95809 16.9552,3.83375 17.1998,3.71456 17.4467,3.60053 17.6959,3.4917 17.9473,3.38811 18.2008,3.28979 18.4563,3.19678 18.7137,3.10911 18.973,3.02682 19.2341,2.94993 19.4967,2.87848 19.7609,2.81252 20.0266,2.75207 20.2937,2.69716 20.5621,2.64783 20.8317,2.60412 21.1024,2.56605 21.3741,2.53368 21.6468,2.50701 21.9202,2.4861 l 0.2743,-0.01511 0.275,-0.00931 0.2755,-0.00345 0.276,0.00245 0.2764,0.00836 0.2767,0.01432 0.2769,0.02032 0.2771,0.02634 0.277,0.03241 0.2771,0.0385 0.2769,0.04462 0.2766,0.0508 L 25.1204,2.61743 25.0044,2.53909 24.8878,2.46135 24.7705,2.38427 24.6526,2.30784 24.534,2.2321 24.4146,2.1571 24.2946,2.08286 24.1739,2.00939 24.0525,1.93675 23.9303,1.86495 23.8074,1.79403 23.6838,1.724 23.5593,1.65492 23.4342,1.58679 23.3083,1.51967 23.1816,1.45356 23.0542,1.38851 22.9259,1.32454 22.7968,1.26169 22.6669,1.19997 22.5362,1.13943 22.4046,1.08008 22.2723,1.02197 22.139,0.965119 21.8002,0.828934 21.4556,0.703178 21.1058,0.587831 20.751,0.48287 20.3912,0.388277 20.0271,0.304029 19.6587,0.230107 19.2863,0.16649 18.9103,0.113154 18.531,0.0700821 18.1485,0.0372512 17.7632,0.0146412 17.3753,0.00223109 16.9851,0 16.5929,0.00792708 16.199,0.0259915 15.8038,0.0541724 15.4073,0.0924488 15.01,0.1408 14.6121,0.199205 14.2138,0.267644 13.8155,0.346093 13.4175,0.434536 13.0199,0.532948 12.6232,0.64131 12.2276,0.7596 11.8333,0.887799 11.4406,1.02588 11.0499,1.17384 10.6613,1.33164 10.2752,1.49925 9.8919,1.67668 9.51159,1.86388 9.1346,2.06086 8.7612,2.26757 8.39166,2.484 8.02626,2.71013 7.66529,2.94594 7.30902,3.19141 6.95774,3.44651 6.61172,3.71123 6.27124,3.98554 5.93658,4.26943 5.60801,4.56288 5.28583,4.86585 4.97031,5.17834 4.66171,5.50031 4.36034,5.83176 4.06646,6.17266 3.78035,6.52298 3.50229,6.88271 3.23257,7.25183 2.97146,7.63032 2.71923,8.01814 2.47618,8.41529 2.24256,8.82175 2.01868,9.23749 1.8048,9.66249 1.6012,10.0967 1.40818,10.5402 1.22598,10.9928 1.05492,11.4547 0.89525,11.9257 0.765454,12.3429 0.646208,12.7595 0.537411,13.1751 0.438952,13.5897 0.35073,14.0032 0.272639,14.4155 0.204572,14.8266 0.146427,15.2361 0.0980971,15.6442 0.0594773,16.0507 0.0304629,16.4553 0.0109486,16.8583 8.293e-4,17.2593 0,17.6582 l 0.00835559,0.3968 0.01743531,0.3945 0.0264101,0.3923 0.0352797,0.3897 0.0440443,0.3873 0.052704,0.3845 0.061258,0.3818 0.069706,0.379 0.078052,0.376 0.086291,0.3729 0.094425,0.3697 0.102453,0.3666 0.110378,0.363 0.118196,0.3596 0.125912,0.3561 0.13352,0.3524 0.14101,0.3484 0.14842,0.3447 0.15572,0.3408 0.1629,0.3365 0.16999,0.3324 0.17696,0.328 0.18384,0.3236 0.1906,0.3193 0.19726,0.3144 0.20384,0.3099 0.21027,0.3049 0.21662,0.3002 0.22287,0.2949 0.22901,0.2899 0.23503,0.2847 0.24097,0.2793 0.24678,0.2738 0.2525,0.2684 0.25812,0.2627 0.26362,0.2569 0.26903,0.2511 0.27431,0.245 0.27951,0.2391 0.2846,0.2329 0.28958,0.2265 0.29445,0.2202 0.29922,0.2139 0.3039,0.2071 0.30846,0.2005 0.3129,0.1937 0.31726,0.1868 0.32151,0.1798 0.32565,0.1727 0.38251,0.191 0.3858,0.1796 0.38896,0.1685 0.3918,0.1575 0.3946,0.1465 0.3971,0.1356 0.3994,0.1249 0.4015,0.1141 0.4034,0.1034 0.4053,0.093 0.4066,0.0824 0.408,0.0721 0.4092,0.0618 0.4101,0.0515 0.4109,0.0415 0.4114,0.0315 0.4116,0.0214 0.4119,0.0116 0.4117,0.0017 0.4115,-0.0078 0.4112,-0.0175 0.4104,-0.0271 0.4095,-0.0366 0.4086,-0.0457 0.4072,-0.0552 0.4059,-0.0643 0.4042,-0.0734 0.4023,-0.0825 0.4004,-0.0915 0.398,-0.1002 0.3956,-0.1091 0.393,-0.1177 0.3902,-0.1263 0.3871,-0.1348 0.3839,-0.1433 0.3805,-0.1517 0.3768,-0.1598 0.3731,-0.1681 0.369,-0.1761 0.3648,-0.1842 0.3603,-0.1921 0.3557,-0.1999 0.3511,-0.2077 0.3459,-0.2154 0.3406,-0.2229 0.3354,-0.2305 0.3296,-0.2378 0.3239,-0.2452 0.3179,-0.2525 0.3117,-0.2596 0.3053,-0.2666 0.2986,-0.2737 0.292,-0.2806 0.2848,-0.2874 0.2777,-0.2941 0.2703,-0.3009 0.2626,-0.3073 0.255,-0.3139 0.2469,-0.3203 0.2388,-0.3266 0.2303,-0.3328 0.2218,-0.3389 0.213,-0.345 0.0684,-0.1188 0.0643,-0.1205 0.0604,-0.1222 0.057,-0.1236 0.0536,-0.125 0.0506,-0.1261 0.048,-0.1271 0.0457,-0.1281 0.0434,-0.1287 0.0418,-0.1293 0.0401,-0.1297 0.0389,-0.13 0.038,-0.1301 0.0373,-0.1301 0.037,-0.1299 0.0368,-0.1296 0.0371,-0.129 0.0376,-0.1285 -0.1738,0.2026 -0.1776,0.1986 -0.1813,0.1943 -0.1848,0.1903 -0.1884,0.186 -0.1917,0.1818 -0.1951,0.1776 -0.1984,0.1732 -0.2016,0.1689 -0.2046,0.1645 -0.2079,0.1602 -0.2106,0.1557 -0.2136,0.1513 -0.2163,0.1469 -0.2191,0.1422 -0.2218,0.1378 -0.2242,0.1332 -0.2268,0.1286 -0.2293,0.1239 -0.2314,0.1193 -0.2338,0.1146 -0.236,0.1099 -0.2381,0.105 -0.24,0.1004 -0.242,0.0955 -0.2438,0.0907 -0.2457,0.0857 -0.2473,0.0809 -0.249,0.0759 -0.2504,0.0709 -0.252,0.066 -0.2533,0.0609 -0.2547,0.0558 -0.2559,0.0508 -0.2571,0.0456 -0.258,0.0404 -0.2591,0.0353 -0.2601,0.0301 -0.2609,0.0248 -0.2615,0.0195 -0.2623,0.0142 -0.2629,0.0089 -0.2634,0.0034 -0.2639,-0.0018 -0.2643,-0.0073 -0.2645,-0.0129 -0.2648,-0.0184 -0.2648,-0.0237 -0.2649,-0.0294 -0.265,-0.035 -0.2648,-0.0406 -0.2646,-0.0463 -0.2642,-0.0519 -0.2641,-0.0576 -0.2636,-0.0634 -0.263,-0.0692 -0.2626,-0.0749 -0.2618,-0.0809 -0.2612,-0.0867 -0.2604,-0.0925 -0.2593,-0.0984 -0.2585,-0.1045 z"
         style="fill:url(#Grad56);fill-rule:evenodd;stroke:none"
         transform="translate(0.521664,0.516533)"
         id="path2457" />
      <path
         d="M 2.10045,12.0932 C 4.81161,3.71456 12.9597,-0.407747 19.6795,0.234853 12.7626,-1.06173 3.77121,3.03463 0.896027,11.9214 -1.9412,20.6923 2.27058,29.0073 9.15191,32.5591 10.9659,33.4955 12.8997,34.0426 14.8569,34.2507 13.3134,33.9716 11.7957,33.4747 10.3551,32.7305 3.47377,29.1794 -0.738013,20.8642 2.10045,12.0932"
         style="fill:#f3f8f9;fill-rule:nonzero;stroke:none"
         transform="translate(0.520887,0.520845)"
         id="path2459" />
      <path
         d="m 28.9979,23.955 c -1.3109,0 -2.3317,-0.0439 -2.9584,-0.0806 C 25.3369,23.833 24.4238,23.8012 23.3675,23.7642 15.4874,23.4895 0.821457,22.9784 0.00872156,16.485 l -0.004896,-0.0347 -0.001224,-0.0347 C -0.156519,11.8114 7.02714,10.09 9.58653,9.62358 9.03206,7.1167 9.24258,3.01165 13.2254,1.02008 14.5596,0.352757 16.1386,0 17.7897,0 c 2.9939,0 5.9842,1.16047 7.7063,2.94201 0.0392,-0.0284 0.0796,-0.05692 0.1188,-0.08605 1.0795,-0.77553 2.5581,-1.83784 4.7785,-1.83784 0.5361,0 1.0942,0.06377 1.6609,0.1896 2.5925,0.57638 3.508,2.69843 3.7026,4.22684 2.4125,0.01775 9.8924,0.73097 11.6856,8.65084 0.4431,1.9543 0.0844,3.6741 -1.0637,5.1119 -3.3072,4.1395 -12.3085,4.7577 -17.3808,4.7577"
         style="fill:#738a92;fill-rule:nonzero;stroke:none"
         transform="translate(5.06306,7.0653)"
         id="path2461" />
      <path
         d="m 12.0422,36.7515 -0.0042,0.0023 -0.0123,0.0068 -0.0203,0.0109 -0.0281,0.0151 -0.0357,0.0186 -0.0431,0.022 -0.0504,0.0252 -0.0575,0.0282 -0.0643,0.0308 -0.0711,0.0332 -0.0775,0.0354 -0.0839,0.0372 -0.0901,0.0389 -0.096,0.0403 -0.1018,0.0412 -0.1074,0.0423 -0.1128,0.0427 -0.1181,0.0431 -0.1231,0.0432 -0.128,0.0429 -0.1327,0.0425 -0.1372,0.0419 -0.1415,0.0407 -0.1457,0.0397 -0.14959,0.0382 -0.15339,0.0363 -0.15698,0.0344 -0.16039,0.0322 -0.16363,0.0296 -0.16664,0.027 -0.16953,0.0237 -0.17219,0.0206 -0.1747,0.017 -0.17701,0.0131 -0.17912,0.0092 -0.18107,0.0047 -0.18284,2e-4 L 7.6879,37.7981 7.50208,37.7884 7.31505,37.7733 7.127,37.7526 6.93808,37.7259 6.74851,37.6932 6.55846,37.654 6.3681,37.6083 6.17764,37.5555 5.98723,37.4956 5.79708,37.4283 5.60736,37.3533 5.41826,37.2703 5.22994,37.1792 5.04262,37.0796 4.85646,36.9712 4.67165,36.8539 4.48836,36.7273 4.30679,36.5912 4.12712,36.4455 3.94953,36.2895 3.77419,36.1234 3.6013,35.9468 3.43104,35.7594 3.26359,35.5609 3.09913,35.3511 2.97262,35.179 2.85074,35.0036 2.73347,34.8252 2.6208,34.644 2.51269,34.4599 2.4091,34.2731 2.31003,34.0837 2.21544,33.8919 2.12532,33.6979 2.03962,33.5017 1.95834,33.3034 1.88143,33.1032 1.80888,32.9012 1.74066,32.6977 1.67675,32.4925 1.61711,32.2859 1.56173,32.0781 1.51056,31.8692 1.46361,31.6591 1.42083,31.4482 1.38221,31.2366 1.34771,31.0242 1.31731,30.8115 1.29098,30.5983 1.26869,30.3848 1.25043,30.1712 1.23617,29.9576 1.22587,29.7443 1.21953,29.5311 1.2171,29.3182 1.21857,29.106 1.2239,28.8944 1.23307,28.6835 1.24607,28.4734 1.26285,28.2645 1.2834,28.0567 1.3077,27.85 l 0.02799,-0.2051 0.0317,-0.2036 0.03535,-0.2019 0.039,-0.2001 0.04259,-0.1983 0.0462,-0.1962 0.04974,-0.194 0.05329,-0.1918 0.0568,-0.1893 0.06027,-0.1868 0.06373,-0.184 L 1.88152,25.5176 1.9521,25.3392 2.02604,25.164 2.10335,24.9919 2.18398,24.8232 2.26793,24.6578 2.35514,24.4962 2.4456,24.3381 2.5393,24.1839 2.63619,24.0336 2.73626,23.8875 2.83948,23.7455 2.94583,23.6079 3.05526,23.4747 3.16777,23.3462 3.10745,23.2815 3.04488,23.2161 2.98021,23.1501 2.91356,23.0833 2.84505,23.0157 2.77484,22.9473 2.70304,22.8779 2.62981,22.8075 2.55526,22.736 2.47954,22.6635 2.40276,22.5897 2.32509,22.5145 2.24662,22.4381 2.16751,22.3603 2.08789,22.2808 2.00789,22.1999 1.92764,22.1174 1.84729,22.0332 1.76695,21.9472 1.68677,21.8593 1.60688,21.7697 1.52741,21.678 1.44848,21.5843 1.37026,21.4884 1.29284,21.3905 1.21639,21.2903 1.14102,21.1877 1.06688,21.0828 0.994083,20.9754 0.922778,20.8657 0.853096,20.7532 0.785167,20.6381 0.719126,20.5204 0.655106,20.3998 0.593239,20.2764 0.53366,20.1501 0.476503,20.0207 0.421899,19.8884 0.369983,19.7528 0.320888,19.6141 0.274746,19.4722 0.231693,19.327 0.19186,19.1782 0.155381,19.0261 0.122389,18.8704 0.0930185,18.7112 0.0674015,18.5483 0.045672,18.3815 0.0279631,18.211 0.0144081,18.0367 0.0051404,17.8584 2.9325e-4,17.6762 0,17.4897 0.00439395,17.2992 0.0227014,17.0167 0.0566162,16.748 0.105175,16.4928 0.167414,16.2507 0.24237,16.0215 0.329079,15.8048 0.426577,15.6002 0.533903,15.4075 0.650091,15.2262 0.774178,15.0561 0.905199,14.8967 1.04219,14.7479 1.1842,14.6091 1.33024,14.4802 1.47938,14.3607 1.63063,14.2503 1.78303,14.1487 1.93562,14.0556 2.08743,13.9705 2.23752,13.8931 2.3849,13.8232 2.52862,13.7606 2.66772,13.7045 2.80122,13.6549 2.92818,13.6114 3.0476,13.5737 3.15856,13.5414 3.26006,13.5141 3.35115,13.4914 3.43088,13.4733 3.49828,13.4592 3.55237,13.4488 3.5922,13.4418 3.61681,13.4378 3.62522,13.4366 3.62333,13.4296 3.61789,13.4088 3.60921,13.3746 3.59763,13.3274 3.58344,13.2674 3.56701,13.1952 3.54862,13.111 3.52862,13.0153 3.50732,12.9082 3.48505,12.7903 3.46213,12.6619 3.43889,12.5234 3.41565,12.375 3.39271,12.2172 3.37043,12.0504 3.34911,11.8749 3.32908,11.691 3.31066,11.4992 3.29419,11.2998 3.27997,11.0931 3.26832,10.8796 3.25959,10.6595 3.25408,10.4333 3.25213,10.2013 3.25404,9.96385 3.26016,9.72134 3.2708,9.47413 3.28628,9.22257 3.30693,8.96704 3.33307,8.70789 3.36502,8.44549 3.40311,8.1802 3.44765,7.91238 3.49899,7.64239 3.55742,7.37061 3.6233,7.09738 3.69691,6.82308 3.7786,6.54806 3.8687,6.27269 3.9675,5.99733 4.07536,5.72236 4.19258,5.44811 4.3195,5.17496 4.45642,4.90328 4.6037,4.63343 4.76162,4.36575 4.93053,4.10063 5.11074,3.83844 5.30259,3.5795 5.50638,3.32421 5.72246,3.07294 5.95112,2.82601 6.19272,2.58382 6.44755,2.34671 6.71597,2.11506 6.99827,1.88923 7.29478,1.66957 7.60583,1.45645 7.93174,1.25024 8.27283,1.0513 8.62943,0.859981 9.00187,0.676659 9.39045,0.501691 9.78349,0.346205 10.1692,0.220463 10.5475,0.123718 10.9186,0.0552244 11.2824,0.0142337 11.6391,0 l 0.3496,0.0117767 0.3425,0.0370405 0.3355,0.0615578 0.3285,0.085328 0.3217,0.108352 0.3148,0.130629 0.3081,0.152159 0.3012,0.172944 0.2946,0.192981 0.2879,0.212272 0.2814,0.23081 0.2748,0.24862 0.2684,0.26567 0.2619,0.28196 0.2556,0.29753 0.2492,0.31233 0.243,0.3264 0.2367,0.33972 0.2306,0.35229 0.2245,0.36411 0.2185,0.37519 0.2125,0.38552 0.2064,0.39511 0.2007,0.40394 0.1947,0.41204 0.189,0.41938 0.1832,0.42597 0.1775,0.43183 0.172,0.43693 0.1663,0.44129 0.1608,0.4449 0.1554,0.44778 0.1499,0.44988 0.1446,0.45126 0.1391,0.4519 0.1341,0.4517 0.1287,0.4509 0.1237,0.4493 0.1184,0.4469 0.1135,0.4438 0.1086,0.44 0.1034,0.4353 0.0986,0.43 0.0939,0.4239 0.089,0.4171 0.0843,0.4094 0.0796,0.4012 0.075,0.3921 0.0704,0.3822 0.0659,0.3716 0.0614,0.3604 0.0571,0.3482 0.0526,0.3355 0.0483,0.3219 0.0442,0.3076 0.0398,0.2924 0.0357,0.2768 0.036,0.2782 0.0401,0.2967 0.044,0.3147 0.0478,0.3319 0.0509,0.3485 0.0539,0.3643 0.0566,0.3794 0.059,0.3939 0.0609,0.4076 0.0627,0.4207 0.0642,0.4329 0.0652,0.4445 0.066,0.4556 0.0664,0.4657 0.0665,0.4753 0.0665,0.4841 0.0658,0.4923 0.0651,0.4996 0.064,0.5065 0.0626,0.5124 0.0607,0.5178 0.0588,0.5224 0.0563,0.5263 0.0537,0.5296 0.0505,0.5321 0.0474,0.5339 0.0436,0.535 0.0396,0.5355 0.0355,0.5353 0.0309,0.5341 0.0258,0.5326 0.0207,0.5302 0.0152,0.5272 0.0093,0.5232 0.0032,0.5189 -0.0035,0.5137 -0.0101,0.5078 -0.0173,0.5013 -0.0247,0.494 -0.0325,0.486 -0.0405,0.4774 -0.0488,0.4679 -0.0575,0.4579 -0.0666,0.447 -0.076,0.4358 -0.0856,0.4234 -0.0955,0.4106 -0.1057,0.3969 -0.1164,0.3828 -0.1273,0.3678 -0.1384,0.352 -0.1501,0.3358 -0.1618,0.3186 -0.1741,0.3008 -0.1865,0.2824 -0.1993,0.2632 -0.2123,0.2433 -0.2259,0.2228 -0.2396,0.2014 -0.2536,0.1795 -0.2681,0.1569 -0.2826,0.1334 -0.2977,0.1093 -0.224,0.042 -0.2214,0.0263 -0.219,0.0114 -0.2163,-0.0033 -0.2137,-0.0173 -0.211,-0.0309 L 18.3501,45.2383 18.1443,45.1816 17.9415,45.1128 17.7414,45.0323 17.5441,44.9406 17.3497,44.8383 17.1582,44.7257 16.9695,44.6034 16.7839,44.4718 16.6012,44.3314 16.4217,44.1829 16.2451,44.0263 16.0716,43.8627 15.9014,43.692 15.7342,43.515 15.5703,43.3323 15.4095,43.144 15.2521,42.951 15.098,42.7535 14.9474,42.552 14.8,42.3472 14.6561,42.1393 14.5155,41.929 l -0.137,-0.2124 -0.1335,-0.2138 -0.13,-0.215 -0.1263,-0.2154 -0.1226,-0.2155 -0.1191,-0.2151 -0.1153,-0.2142 -0.1116,-0.2127 -0.108,-0.211 -0.104,-0.2086 -0.1002,-0.2058 -0.0964,-0.2023 -0.0924,-0.1986 -0.0885,-0.1944 -0.0845,-0.1896 -0.0805,-0.1843 -0.0765,-0.1786 -0.0724,-0.1724 -0.0683,-0.1657 -0.0641,-0.1585 -0.0598,-0.1508 -0.0557,-0.1426 -0.0516,-0.134 -0.0471,-0.125 -0.0428,-0.1153 -0.0385,-0.1053 -0.0341,-0.0946 -0.0297,-0.0836 -0.0251,-0.0721 -0.0207,-0.0599 -0.0162,-0.0477 -0.0115,-0.0345 -0.007,-0.0211 z"
         style="fill:url(#Grad57);fill-rule:evenodd;stroke:none"
         transform="rotate(100.513,21.915003,28.52322)"
         id="path2463" />
      <path
         d="m 0,14.2338 c 2.89109,-2.8065 11.0417,-3.2604 11.0417,-3.2604 0,0 -3.09427,-7.01059 1.9817,-9.54819 4.0135,-2.007113 8.8935,0.43807 11.0637,3.27616 1.3354,-0.83513 3.011,-3.26135 6.3978,-2.50895 3.2987,0.73329 2.1323,4.51594 2.1323,4.51594 0,0 10.9168,-0.69241 12.9205,8.15354 0.0906,0.4 0.142,0.7801 0.1603,1.1425 0.1751,-0.7526 0.1763,-1.5894 -0.0342,-2.522 -2.0037,-8.84627 -11.666,-8.02851 -11.666,-8.02851 0,0 0.1628,-3.53161 -3.1371,-4.26479 C 27.4739,0.436465 25.6734,2.36096 24.338,3.1961 22.1691,0.357884 16.5607,-1.06881 12.5472,0.938305 7.47252,3.4759 9.53863,9.47571 9.53863,9.47571 c 0,0 -8.01353,1.04619 -9.53863,4.75809"
         style="fill:#dbeff8;fill-rule:nonzero;stroke:none"
         transform="translate(6.0877,7.83937)"
         id="path2465" />
    </g>
  </g>
</svg>
