<?xml version="1.0" encoding="UTF-8" standalone="no"?>
<svg
   width="44.31366pt"
   height="43.667999pt"
   version="1.1"
   viewBox="0 0 44.31366 43.667999"
   id="svg6053"
   sodipodi:docname="Weather Icons-page001.svg"
   xmlns:inkscape="http://www.inkscape.org/namespaces/inkscape"
   xmlns:sodipodi="http://sodipodi.sourceforge.net/DTD/sodipodi-0.dtd"
   xmlns="http://www.w3.org/2000/svg"
   xmlns:svg="http://www.w3.org/2000/svg">
  <sodipodi:namedview
     id="namedview6055"
     pagecolor="#ffffff"
     bordercolor="#000000"
     borderopacity="0.25"
     inkscape:showpageshadow="2"
     inkscape:pageopacity="0.0"
     inkscape:pagecheckerboard="0"
     inkscape:deskcolor="#d1d1d1"
     inkscape:document-units="pt"
     showgrid="false" />
  <defs
     id="defs2330">
    <clipPath
       id="Clip45">
      <path
         d="M 0,0 H 44.3137 V 43.668 H 0 Z"
         id="path1971" />
    </clipPath>
    <linearGradient
       x2="22.074499"
       y2="21.353901"
       id="Grad292"
       x1="-1.39153e-14"
       gradientUnits="userSpaceOnUse"
       y1="21.353901">
      <stop
         offset="0%"
         stop-color="#81a4b6"
         stop-opacity="1"
         id="stop1974" />
      <stop
         offset="100%"
         stop-color="#c6d6e0"
         stop-opacity="1"
         id="stop1976" />
    </linearGradient>
    <linearGradient
       x2="21.204599"
       y2="20.9182"
       id="Grad293"
       x1="-2.7830501e-14"
       gradientUnits="userSpaceOnUse"
       y1="20.9182">
      <stop
         offset="0%"
         stop-color="#718ea5"
         stop-opacity="1"
         id="stop1979" />
      <stop
         offset="100%"
         stop-color="#b4c9d7"
         stop-opacity="1"
         id="stop1981" />
    </linearGradient>
    <linearGradient
       x2="0.095336899"
       y2="0.004896"
       id="Grad294"
       x1="0"
       gradientUnits="userSpaceOnUse"
       y1="0.004896">
      <stop
         offset="0%"
         stop-color="#7e9eb8"
         stop-opacity="1"
         id="stop1984" />
      <stop
         offset="100%"
         stop-color="#9fbcd0"
         stop-opacity="1"
         id="stop1986" />
    </linearGradient>
    <linearGradient
       x2="7.3768601"
       y2="19.974501"
       id="Grad295"
       x1="1.39153e-14"
       gradientUnits="userSpaceOnUse"
       y1="19.974501">
      <stop
         offset="0%"
         stop-color="#7e9eb8"
         stop-opacity="1"
         id="stop1989" />
      <stop
         offset="100%"
         stop-color="#9fbcd0"
         stop-opacity="1"
         id="stop1991" />
    </linearGradient>
    <linearGradient
       x2="12.0968"
       y2="18.604799"
       id="Grad296"
       x1="-5.56611e-14"
       gradientUnits="userSpaceOnUse"
       y1="18.604799">
      <stop
         offset="0%"
         stop-color="#a2bccb"
         stop-opacity="1"
         id="stop1994" />
      <stop
         offset="100%"
         stop-color="#c6d6e0"
         stop-opacity="1"
         id="stop1996" />
    </linearGradient>
    <linearGradient
       x2="5.5956602"
       y2="16.444401"
       id="Grad297"
       x1="2.7830501e-14"
       gradientUnits="userSpaceOnUse"
       y1="16.444401">
      <stop
         offset="0%"
         stop-color="#7696ae"
         stop-opacity="1"
         id="stop1999" />
      <stop
         offset="100%"
         stop-color="#91abbd"
         stop-opacity="1"
         id="stop2001" />
    </linearGradient>
    <linearGradient
       x2="5.6143198"
       y2="7.8556299"
       id="Grad298"
       x1="-2.7830501e-14"
       gradientUnits="userSpaceOnUse"
       y1="7.8556299">
      <stop
         offset="0%"
         stop-color="#a2bccb"
         stop-opacity="1"
         id="stop2004" />
      <stop
         offset="100%"
         stop-color="#c6d6e0"
         stop-opacity="1"
         id="stop2006" />
    </linearGradient>
    <linearGradient
       x2="43.6679"
       y2="19.4102"
       id="Grad299"
       x1="-1.39153e-14"
       gradientUnits="userSpaceOnUse"
       y1="19.4102">
      <stop
         offset="0%"
         stop-color="#c6c2ab"
         stop-opacity="1"
         id="stop2009" />
      <stop
         offset="100%"
         stop-color="#f4f3e4"
         stop-opacity="1"
         id="stop2011" />
    </linearGradient>
    <linearGradient
       x2="41.191502"
       y2="17.4028"
       id="Grad300"
       x1="-1.39153e-14"
       gradientUnits="userSpaceOnUse"
       y1="17.4028">
      <stop
         offset="0%"
         stop-color="#c6c2ab"
         stop-opacity="1"
         id="stop2014" />
      <stop
         offset="100%"
         stop-color="#f4f3e4"
         stop-opacity="1"
         id="stop2016" />
    </linearGradient>
    <linearGradient
       x2="5.0746198"
       y2="2.5376599"
       id="Grad301"
       x1="3.4267399e-05"
       gradientUnits="userSpaceOnUse"
       y1="2.5376599">
      <stop
         offset="0%"
         stop-color="#ece9dc"
         stop-opacity="1"
         id="stop2019" />
      <stop
         offset="100%"
         stop-color="#e2dfcb"
         stop-opacity="1"
         id="stop2021" />
    </linearGradient>
    <linearGradient
       x2="5.4284501"
       y2="3.53282"
       id="Grad302"
       x1="-2.78843e-06"
       gradientUnits="userSpaceOnUse"
       y1="3.53282">
      <stop
         offset="0%"
         stop-color="#ece9dc"
         stop-opacity="1"
         id="stop2024" />
      <stop
         offset="100%"
         stop-color="#e2dfcb"
         stop-opacity="1"
         id="stop2026" />
    </linearGradient>
    <linearGradient
       x2="3.7140801"
       y2="1.85633"
       id="Grad303"
       x1="-0.000638764"
       gradientUnits="userSpaceOnUse"
       y1="1.85633">
      <stop
         offset="0%"
         stop-color="#f4f3e4"
         stop-opacity="1"
         id="stop2029" />
      <stop
         offset="100%"
         stop-color="#e2dfcb"
         stop-opacity="1"
         id="stop2031" />
    </linearGradient>
    <linearGradient
       x2="1.92472"
       y2="0.96170199"
       id="Grad304"
       x1="-0.0023177699"
       gradientUnits="userSpaceOnUse"
       y1="0.96170199">
      <stop
         offset="0%"
         stop-color="#f4f3e4"
         stop-opacity="1"
         id="stop2034" />
      <stop
         offset="100%"
         stop-color="#e2dfcb"
         stop-opacity="1"
         id="stop2036" />
    </linearGradient>
  </defs>
  <g
     inkscape:groupmode="layer"
     id="Background"
     inkscape:label="Background"
     transform="translate(-544.625,-251.70401)">
    <g
       id="night_cloud_2"
       style="fill:none;stroke:none"
       clip-path="url(#Clip45)"
       clip-rule="evenodd"
       transform="translate(544.625,251.704)">
      <path
         d="M 11.3815,37.0162 11.38,36.8854 11.3755,36.7548 11.3681,36.6245 11.3577,36.4947 11.3443,36.3653 11.328,36.2363 11.3088,36.1078 11.2866,35.9798 11.2615,35.8527 11.2336,35.726 11.2027,35.6002 11.169,35.4751 l -0.0366,-0.1244 -0.0395,-0.1234 -0.0423,-0.1225 -0.0452,-0.1215 -0.048,-0.1206 -0.0508,-0.1195 0.1919,-0.0084 0.1905,-0.0141 0.1889,-0.0196 0.1872,-0.0248 0.1855,-0.0304 0.1838,-0.0356 0.1818,-0.0406 0.18,-0.0459 0.1778,-0.0508 0.1757,-0.0558 0.1735,-0.0607 0.1713,-0.0654 0.1689,-0.0701 0.1665,-0.0748 0.1638,-0.0792 0.1614,-0.0837 0.1586,-0.0882 0.1559,-0.0924 0.153,-0.0966 0.1501,-0.1007 0.1471,-0.1048 0.1441,-0.1088 0.1409,-0.1126 0.1375,-0.1165 0.1343,-0.1202 0.1309,-0.1239 0.1274,-0.1273 0.1237,-0.1309 0.1202,-0.1343 0.1164,-0.1377 0.1128,-0.1409 0.1087,-0.1439 0.1047,-0.1472 0.1008,-0.1501 0.0965,-0.1532 0.0924,-0.1558 0.0882,-0.1587 0.0837,-0.1614 0.0792,-0.1639 0.0748,-0.1664 0.0701,-0.1689 0.0654,-0.1714 0.0607,-0.1736 0.0558,-0.1757 0.0508,-0.1779 0.0459,-0.1799 0.0408,-0.1819 0.0356,-0.1837 0.0303,-0.1856 0.025,-0.1872 0.0196,-0.1889 0.0141,-0.1905 0.0085,-0.1919 0.0028,-0.1934 -0.0013,-0.1293 -0.0039,-0.1291 -0.0065,-0.1288 -0.0092,-0.1287 -0.0117,-0.1283 -0.0144,-0.1279 -0.0167,-0.1275 -0.0195,-0.1272 -0.0219,-0.1265 -0.0244,-0.1261 -0.0269,-0.1256 -0.0295,-0.1248 -0.0318,-0.1244 -0.0344,-0.1236 -0.0367,-0.1229 -0.0393,-0.1221 -0.0416,-0.1214 -0.044,-0.1204 -0.0465,-0.1196 -0.0487,-0.1186 -0.0512,-0.1178 -0.0535,-0.1167 -0.0558,-0.1156 -0.0581,-0.1145 -0.0605,-0.1135 -0.0628,-0.1124 -0.065,-0.111 -0.0673,-0.1098 -0.0695,-0.1085 0.1678,-0.0544 0.1661,-0.0575 0.1644,-0.0607 0.1625,-0.0638 0.1607,-0.0669 0.1589,-0.0701 0.1571,-0.0729 0.155,-0.076 0.1533,-0.079 0.1512,-0.0817 0.1492,-0.0847 0.1471,-0.0875 0.145,-0.0903 0.143,-0.093 0.1409,-0.0957 0.1387,-0.0984 0.1364,-0.101 0.1343,-0.1037 0.1319,-0.1061 0.1298,-0.1086 0.1274,-0.1111 0.1251,-0.1136 0.1226,-0.1159 0.1202,-0.1182 0.1179,-0.1206 0.1153,-0.1229 0.1129,-0.1251 0.1103,-0.1273 0.1078,-0.1293 0.105,-0.1316 0.1026,-0.1336 0.0999,-0.1356 0.097,-0.1377 0.0945,-0.1395 0.0917,-0.1415 0.0888,-0.1435 0.0861,-0.1451 0.0832,-0.1472 0.0803,-0.1487 0.0775,-0.1505 0.0744,-0.1522 0.0715,-0.1538 0.0685,-0.1554 0.0655,-0.157 0.0625,-0.1585 0.0592,-0.16 0.0562,-0.1614 0.053,-0.1628 0.0498,-0.1643 0.0466,-0.1655 0.0434,-0.1668 0.04,-0.168 0.0367,-0.1693 0.0333,-0.1704 0.03,-0.1716 0.0267,-0.1727 0.0231,-0.1737 0.0196,-0.1747 0.0161,-0.1757 0.0128,-0.1767 0.009,-0.1774 0.0054,-0.1784 0.0019,-0.1792 -0.0021,-0.1872 -0.0064,-0.1865 -0.0106,-0.1858 -0.0147,-0.1849 -0.0188,-0.184 -0.0228,-0.1832 -0.0269,-0.1821 -0.0308,-0.1812 -0.0346,-0.18 -0.0387,-0.1789 -0.0425,-0.1777 -0.0461,-0.1765 -0.0501,-0.1753 -0.0536,-0.1738 -0.0574,-0.1724 -0.061,-0.171 -0.0645,-0.1696 -0.068,-0.1679 -0.0715,-0.1663 -0.075,-0.1648 -0.0784,-0.1629 -0.0816,-0.1612 -0.0851,-0.1594 -0.0882,-0.1575 -0.0915,-0.1556 -0.0946,-0.1536 -0.0978,-0.1516 -0.1008,-0.1495 -0.104,-0.1474 -0.1068,-0.1452 -0.1099,-0.143 -0.1128,-0.1407 -0.1156,-0.1383 -0.1184,-0.1359 -0.1212,-0.1335 -0.124,-0.131 L 19.521,10.594 19.3917,10.4681 19.2599,10.345 19.1255,10.2245 18.9885,10.1068 18.8491,9.99196 18.7074,9.87996 18.5632,9.77087 18.4167,9.66477 18.2678,9.56168 18.1168,9.46167 17.9635,9.3648 17.8081,9.2711 17.6506,9.18065 17.491,9.09349 17.3293,9.00966 17.1657,8.92923 17.0001,8.85225 16.8327,8.77877 16.6634,8.70883 16.4924,8.64252 16.3196,8.57985 16.1449,8.52089 15.9688,8.46569 15.7909,8.4143 15.6115,8.3668 15.4305,8.3232 15.4422,8.17139 15.4502,8.0221 15.4547,7.87464 15.4562,7.72834 15.4536,7.52606 15.4458,7.32504 15.4329,7.12534 15.4149,6.92704 15.392,6.7302 15.3641,6.53487 15.3315,6.34113 15.294,6.14905 15.2518,5.95866 15.2049,5.77006 15.1534,5.5833 15.0973,5.39844 15.0368,5.21555 14.972,5.03469 14.9027,4.85594 14.8292,4.67934 14.7514,4.50497 14.6695,4.33289 14.5836,4.16317 14.4936,3.99586 14.3996,3.83103 14.3018,3.66876 14.2001,3.50909 14.0946,3.3521 13.9855,3.19783 13.8727,3.04639 13.7564,2.89781 13.6365,2.75215 13.5132,2.60949 13.3865,2.4699 13.2564,2.33343 13.1232,2.20015 12.9868,2.07013 12.8471,1.94341 12.7045,1.82008 12.5589,1.70018 12.4103,1.58381 12.2588,1.471 12.1046,1.36185 11.9476,1.25637 11.7879,1.15468 11.6257,1.05681 11.4608,0.962836 11.2935,0.872821 11.1238,0.786829 10.9517,0.704922 10.7773,0.627168 10.6007,0.553629 10.4219,0.484369 10.241,0.419451 10.0581,0.358943 9.87326,0.302906 9.68647,0.251405 9.49784,0.204505 9.30742,0.162268 9.11529,0.124761 8.9215,0.092046 8.72614,0.0641882 8.52925,0.0412516 8.33089,0.0233003 8.13114,0.0103985 7.93006,0.00261031 7.72772,0 7.52538,0.00261031 7.32431,0.0103985 7.12456,0.0233003 6.92621,0.0412516 6.72932,0.0641882 6.53396,0.092046 6.34019,0.124761 6.14807,0.162268 5.95766,0.204505 5.76903,0.251405 5.58225,0.302906 5.39737,0.358943 5.21448,0.419451 5.03361,0.484369 4.85485,0.553629 4.67825,0.627168 4.50389,0.704922 4.33181,0.786829 4.16209,0.872821 3.99479,0.962836 3.82998,1.05681 3.66772,1.15468 3.50806,1.25637 3.35109,1.36185 3.19686,1.471 3.04542,1.58381 2.89687,1.70018 2.75125,1.82008 2.60861,1.94341 2.46905,2.07013 2.3326,2.20015 2.19936,2.33343 2.06936,2.4699 1.94267,2.60949 1.81938,2.75215 1.69952,2.89781 1.58318,3.04639 1.47042,3.19783 1.36128,3.3521 1.25585,3.50909 1.15419,3.66876 1.05635,3.83103 0.962413,3.99586 0.872432,4.16317 0.786471,4.33289 0.704598,4.50497 0.626875,4.67934 0.553367,4.85594 0.484136,5.03469 0.419248,5.21555 0.358765,5.39844 0.302755,5.5833 0.251277,5.77006 0.204399,5.95866 0.162184,6.14905 0.124695,6.34113 0.0919972,6.53487 0.0641539,6.7302 0.0412292,6.92704 0.0232876,7.12534 0.0103927,7.32504 0.00260885,7.52606 0,7.72834 7.65e-4,7.79413 0.004284,7.87644 0,35.8938 0.003196,36.069 0.0130016,36.2515 0.0297432,36.4446 0.0130016,36.6423 0.003196,36.8324 0,37.0162 l 0.003445,0.1994 0.0102594,0.1978 0.0169606,0.196 0.0235484,0.1938 0.0300228,0.1921 0.0363838,0.1898 0.042632,0.1875 0.048767,0.1851 0.054787,0.1828 0.060696,0.18 0.06649,0.1774 0.072171,0.1744 0.07774,0.1716 0.083194,0.1685 0.088534,0.1653 0.093763,0.162 0.098879,0.1587 0.103877,0.155 0.10877,0.1515 0.11355,0.1477 0.1182,0.1438 0.12274,0.1399 0.1272,0.1358 0.1315,0.1315 0.13571,0.1273 0.13982,0.1229 0.14379,0.1183 0.14765,0.1135 0.15142,0.109 0.15506,0.1039 0.15858,0.099 0.162,0.0938 0.1653,0.0887 0.1685,0.0833 0.17156,0.0778 0.17452,0.0722 0.17738,0.0666 0.1801,0.0607 0.18273,0.0548 0.18524,0.0489 0.18764,0.0427 0.18992,0.0365 0.19208,0.03 0.19414,0.0236 0.19608,0.017 0.19791,0.0103 0.19963,0.0034 0.19943,-0.0034 0.19775,-0.0103 0.19593,-0.017 0.194,-0.0236 0.19196,-0.03 0.18981,-0.0365 0.18754,-0.0427 0.18515,-0.0489 0.18266,-0.0548 0.18004,-0.0607 0.17732,-0.0666 0.17448,-0.0722 0.17153,-0.0778 0.16848,-0.0833 0.16527,-0.0887 0.162,-0.0938 0.15858,-0.099 0.15507,-0.1039 0.15142,-0.109 0.14767,-0.1135 0.14382,-0.1183 0.13985,-0.1229 0.13575,-0.1273 0.13154,-0.1315 0.12724,-0.1358 0.12284,-0.1399 0.1182,-0.1438 0.1136,-0.1477 0.1088,-0.1515 0.104,-0.155 0.0989,-0.1587 0.0938,-0.162 0.0886,-0.1653 0.0832,-0.1685 0.0778,-0.1716 0.0723,-0.1744 0.0665,-0.1774 0.0607,-0.18 0.0549,-0.1828 0.0488,-0.1851 0.0427,-0.1875 0.0364,-0.1898 0.03,-0.1921 0.0236,-0.1938 0.017,-0.196 0.0102,-0.1978 z"
         style="fill:url(#Grad292);fill-rule:evenodd;stroke:none"
         transform="rotate(-90,16.1223,16.1223)"
         id="path5487" />
      <path
         d="M 10.5105,36.5805 10.5088,36.4479 10.504,36.3158 10.4958,36.1844 10.4844,36.0534 10.4698,35.9233 10.452,35.7938 10.4309,35.665 10.4067,35.537 10.3793,35.4098 10.3488,35.2835 10.3151,35.1582 10.2783,35.0337 10.2383,34.9102 10.1953,34.7878 10.1491,34.6664 10.0999,34.5461 10.0476,34.427 9.99221,34.309 9.9338,34.1922 9.87237,34.0768 9.80792,33.9626 9.74047,33.8497 l 0.18129,0.0137 0.17904,0.0088 0.1771,0.0032 0.1983,-0.0032 0.1967,-0.0096 0.1949,-0.0159 0.1932,-0.0221 0.1913,-0.0281 0.1894,-0.0342 0.1872,-0.0399 0.1851,-0.0458 0.1827,-0.0515 0.1804,-0.057 0.1778,-0.0626 0.1753,-0.0678 0.1727,-0.0732 0.1698,-0.0783 0.1669,-0.0835 0.1641,-0.0884 0.1608,-0.0934 0.1576,-0.098 0.1545,-0.1027 0.1511,-0.1073 0.1474,-0.1119 0.1441,-0.1162 0.1403,-0.1204 0.1365,-0.1246 0.1325,-0.1288 0.1288,-0.1327 0.1245,-0.1366 0.1204,-0.1403 0.116,-0.144 0.1118,-0.1476 0.1072,-0.151 0.1027,-0.1545 0.098,-0.1578 0.0932,-0.1609 0.0884,-0.1639 0.0833,-0.1671 0.0782,-0.1698 0.0732,-0.1726 0.0678,-0.1754 0.0625,-0.1778 0.057,-0.1803 0.0514,-0.1827 0.0457,-0.185 0.04,-0.1873 0.034,-0.1892 0.0282,-0.1912 0.022,-0.193 0.0158,-0.195 0.0097,-0.1964 0.0031,-0.1982 -0.0014,-0.1332 -0.0044,-0.1329 -0.0074,-0.1324 -0.0101,-0.1321 -0.0133,-0.1315 -0.0159,-0.1311 -0.0188,-0.1304 -0.0217,-0.1298 -0.0246,-0.1292 -0.0273,-0.1286 -0.0301,-0.1277 -0.0329,-0.1271 -0.0356,-0.1262 -0.0385,-0.1253 -0.0411,-0.1245 -0.0438,-0.1235 -0.0466,-0.1225 -0.0493,-0.1216 -0.0519,-0.1204 -0.0545,-0.1194 -0.0572,-0.1181 -0.0599,-0.117 -0.0624,-0.1158 -0.065,-0.1145 -0.0677,-0.1133 -0.0701,-0.1117 -0.0727,-0.1105 -0.0753,-0.109 -0.0777,-0.1076 -0.0803,-0.106 -0.0827,-0.1044 0.1728,-0.0422 0.1712,-0.0458 0.1697,-0.0493 0.1678,-0.0528 0.1662,-0.0563 0.1644,-0.0597 0.1627,-0.063 0.1608,-0.0664 0.1589,-0.0696 0.157,-0.073 0.1551,-0.076 0.153,-0.0792 0.151,-0.0822 0.1491,-0.0853 0.1469,-0.0884 0.1447,-0.0913 0.1426,-0.0943 0.1404,-0.097 0.1381,-0.0999 0.1359,-0.1027 0.1335,-0.1054 0.1311,-0.1081 0.1288,-0.1107 0.1263,-0.1134 0.1239,-0.1159 0.1213,-0.1184 0.1188,-0.1209 0.1162,-0.1232 0.1136,-0.1258 0.1109,-0.128 0.1083,-0.1302 0.1054,-0.1326 0.1027,-0.1347 0.1,-0.1369 0.0969,-0.1389 0.0943,-0.141 0.0912,-0.1431 0.0882,-0.145 0.0853,-0.147 0.0823,-0.1488 0.079,-0.1506 0.0761,-0.1525 0.0729,-0.1543 0.0696,-0.1559 0.0665,-0.1575 0.0633,-0.1592 0.0598,-0.1607 0.0566,-0.1623 0.0532,-0.1637 0.0499,-0.1652 0.0462,-0.1665 0.0429,-0.168 0.0393,-0.1691 0.0357,-0.1704 0.0322,-0.1717 0.0285,-0.1729 0.0247,-0.1739 0.0212,-0.175 0.0174,-0.176 0.0135,-0.177 0.0097,-0.178 0.0059,-0.1788 0.002,-0.1797 -0.0022,-0.1857 -0.0064,-0.1847 -0.0106,-0.184 -0.015,-0.1829 L 21.1515,15.2829 21.1284,15.102 21.1013,14.9222 21.0702,14.7436 21.0351,14.5662 20.996,14.39 20.9532,14.2152 20.9064,14.0417 20.856,13.8696 20.8018,13.6991 20.7439,13.5301 20.6823,13.3627 20.6172,13.1968 20.5485,13.0327 20.4763,12.8702 20.4007,12.7096 20.3216,12.5509 20.2391,12.394 20.1533,12.239 20.0643,12.0861 19.972,11.9352 19.8765,11.7864 19.7779,11.6397 19.6762,11.4953 19.5715,11.3531 19.4637,11.2132 19.353,11.0757 19.2393,10.9407 19.1228,10.808 19.0035,10.6779 18.8814,10.5504 18.7566,10.4255 18.629,10.3033 18.4988,10.1838 18.366,10.067 18.2307,9.95316 18.0928,9.84217 17.9525,9.7341 17.8098,9.62904 17.6648,9.52702 17.5173,9.42809 17.3676,9.3323 17.2157,9.23972 17.0616,9.15039 16.9053,9.06437 16.7469,8.9817 16.5865,8.90245 16.4241,8.82664 16.2597,8.75437 16.0934,8.68564 15.9252,8.62055 15.7552,8.55911 15.5835,8.50141 15.4099,8.44748 15.2348,8.39737 15.0579,8.35116 14.8794,8.30887 14.6994,8.27057 14.5179,8.2363 14.5363,8.09397 14.552,7.95436 14.5649,7.81733 14.5748,7.68278 14.5819,7.55055 14.5862,7.42054 14.5876,7.29259 14.5851,7.09547 14.5771,6.8996 14.5641,6.70508 14.5461,6.51199 14.523,6.32034 14.4951,6.13026 14.4622,5.94177 14.4245,5.75497 14.382,5.5699 14.3349,5.38664 14.2831,5.20526 14.2269,5.02581 14.1661,4.84837 14.101,4.67301 14.0314,4.49979 13.9576,4.32879 13.8797,4.16005 13.7975,3.99365 13.7112,3.82966 13.621,3.66816 13.5269,3.50918 13.4289,3.35283 13.327,3.19913 13.2214,3.04819 13.1121,2.90006 12.9992,2.7548 12.8828,2.61247 12.7629,2.47317 12.6396,2.33692 12.513,2.20382 12.383,2.07395 12.2499,1.94734 12.1136,1.82407 11.9742,1.7042 11.8318,1.58781 11.6865,1.47497 11.5383,1.36574 11.3873,1.26017 11.2336,1.15835 11.0772,1.06034 10.9182,0.966208 10.7566,0.876016 10.5925,0.78983 10.4261,0.707722 10.2573,0.629754 10.0862,0.555996 9.91294,0.486512 9.73752,0.421371 9.56003,0.360638 9.38052,0.304381 9.19907,0.252667 9.01575,0.20556 8.83062,0.163129 8.64374,0.12544 8.4552,0.0925602 8.26504,0.0645557 8.07334,0.0414935 7.88017,0.0234401 7.68559,0.0104623 7.48967,0.00262669 7.29247,0 7.09536,0.00262669 6.89952,0.0104623 6.70501,0.0234401 6.51192,0.0414935 6.32031,0.0645557 6.13022,0.0925602 5.94175,0.12544 5.75495,0.163129 5.5699,0.20556 5.38665,0.252667 5.20528,0.304381 5.02584,0.360638 4.84841,0.421371 4.67306,0.486512 4.49984,0.555996 4.32884,0.629754 4.16011,0.707722 3.99372,0.78983 3.82974,0.876016 3.66823,0.966208 3.50926,1.06034 3.3529,1.15835 3.19922,1.26017 3.04827,1.36574 2.90013,1.47497 2.75487,1.58781 2.61255,1.7042 2.47324,1.82407 2.33701,1.94734 2.20391,2.07395 2.07402,2.20382 1.94741,2.33692 1.82413,2.47317 1.70427,2.61247 1.58788,2.7548 1.47503,2.90006 1.3658,3.04819 1.26023,3.19913 1.15841,3.35283 1.0604,3.50918 0.966257,3.66816 0.876061,3.82966 0.789873,3.99365 0.70776,4.16005 0.62979,4.32879 0.556028,4.49979 0.48654,4.67301 0.421396,4.84837 0.36066,5.02581 0.3044,5.20526 0.252683,5.38664 0.205573,5.5699 0.16314,5.75497 0.125449,5.94177 0.0925665,6.13026 0.0645602,6.32034 0.0414964,6.51199 0.0234418,6.70508 0.010463,6.8996 0.00262688,7.09547 0,7.29259 9.18e-4,7.3388 0.0029376,7.38317 0.0058752,7.42234 0.0029376,7.47252 9.18e-4,7.5175 0,7.56432 V 35.4581 l 0.0033048,0.1743 0.010404,0.1822 0.0182376,0.193 -0.0182376,0.1992 -0.010404,0.1901 L 0,36.5805 l 0.00380149,0.2013 0.01131311,0.1994 0.0186878,0.1974 0.0259253,0.1951 0.0330259,0.1929 0.0399894,0.1906 0.046817,0.1879 0.053506,0.1851 0.060058,0.1823 0.066473,0.1794 0.072752,0.1761 0.078894,0.1729 0.084899,0.1696 0.090766,0.1659 0.096496,0.1623 0.102089,0.1586 0.107547,0.1545 0.11286,0.1505 0.11805,0.1462 0.1231,0.1419 0.128,0.1373 0.13277,0.1327 0.13741,0.1281 0.14191,0.123 0.14627,0.1181 0.15048,0.1127 0.15457,0.1076 0.15852,0.1021 0.16234,0.0964 0.16601,0.0907 0.16955,0.085 0.17297,0.0788 0.1762,0.0727 0.17936,0.0665 0.18232,0.0601 0.18519,0.0535 0.1879,0.0467 0.19049,0.0399 0.19292,0.0331 0.19524,0.0259 0.19739,0.0187 0.19943,0.0113 0.20132,0.0038 0.20124,-0.0038 0.19934,-0.0113 0.19732,-0.0187 0.19516,-0.0259 0.19285,-0.0331 0.19042,-0.0399 0.18784,-0.0467 0.18515,-0.0535 0.18229,-0.0601 0.17929,-0.0665 0.17618,-0.0727 0.17291,-0.0788 0.16953,-0.085 0.16599,-0.0907 0.16231,-0.0964 0.15851,-0.1021 0.15455,-0.1076 0.15048,-0.1127 0.14626,-0.1181 0.1419,-0.123 0.1374,-0.1281 0.13277,-0.1327 0.128,-0.1373 0.1231,-0.1419 0.11804,-0.1462 0.11288,-0.1505 0.10756,-0.1545 0.10209,-0.1586 0.0965,-0.1623 0.09078,-0.1659 0.08491,-0.1696 0.07894,-0.1729 0.0727,-0.1761 0.0665,-0.1794 0.0601,-0.1823 0.0535,-0.1851 0.0468,-0.1879 0.04,-0.1906 0.033,-0.1929 0.026,-0.1951 0.0187,-0.1974 0.0113,-0.1994 z"
         style="fill:url(#Grad293);fill-rule:evenodd;stroke:none"
         transform="rotate(-90,16.122522,15.686778)"
         id="path5489" />
      <path
         d="M 0.095472,0.009792 0.093483,0.003978 0.090576,0 0,0.004896 0.048654,0.005967 Z"
         style="fill:url(#Grad294);fill-rule:evenodd;stroke:none"
         transform="rotate(90,6.47005,27.24015)"
         id="path5491" />
      <path
         d="M 6.55501,5.01962 6.55155,5.19402 6.54081,5.37522 6.52233,5.5643 6.54081,5.74894 6.55155,5.92434 6.55501,6.09185 V 32.7249 l -0.00165,0.0446 -0.00276,0.0447 -0.00147,0.0465 0.00147,0.0367 0.00276,0.0436 0.00165,0.0446 -0.00258,0.1908 -0.00769,0.1895 -0.01275,0.1881 -0.01773,0.1868 -0.02264,0.1853 -0.02749,0.1838 -0.03227,0.1823 -0.037,0.1805 -0.04164,0.1789 -0.04622,0.177 -0.05074,0.1751 -0.05519,0.1732 -0.05958,0.1714 -0.06389,0.1691 -0.06815,0.1671 -0.07233,0.1649 -0.07645,0.1626 -0.0805,0.1604 -0.08449,0.1579 -0.08841,0.1554 -0.09226,0.153 -0.09604,0.1505 -0.09977,0.1477 -0.10343,0.145 -0.107,0.1423 -0.11053,0.1394 -0.11398,0.1365 -0.11737,0.1335 -0.1207,0.1305 -0.12394,0.1274 -0.12714,0.1241 -0.13025,0.1209 -0.13331,0.1178 -0.1363,0.1142 -0.13923,0.1109 -0.14207,0.1073 -0.14488,0.1037 -0.1476,0.1001 L 3.27123,38.887 3.11838,38.9796 2.96302,39.0685 2.8052,39.1533 2.64498,39.2343 2.48244,39.3112 2.31764,39.384 2.15065,39.4527 1.98155,39.5172 1.81037,39.5773 1.6372,39.6331 1.4621,39.6845 1.28515,39.7314 1.10641,39.7736 0.925939,39.8113 0.743806,39.8444 0.560079,39.8725 0.374826,39.896 0.18811,39.9145 0,39.9281 l 0.205448,0.0147 0.20655,0.0073 0.198004,-0.0028 0.196652,-0.0082 0.195226,-0.0137 0.19373,-0.0191 0.19215,-0.0243 0.1905,-0.0295 0.18878,-0.0347 0.18699,-0.0396 0.18511,-0.0448 0.18317,-0.0496 0.18115,-0.0545 0.17906,-0.0591 0.17689,-0.0639 0.17465,-0.0685 0.17234,-0.073 0.16996,-0.0775 0.16749,-0.0818 0.16494,-0.0862 0.16234,-0.0905 0.15966,-0.0946 0.15689,-0.0986 0.15407,-0.1027 0.15115,-0.1066 0.14818,-0.1106 0.14511,-0.1143 0.142,-0.118 0.13879,-0.1217 0.13551,-0.1252 0.13217,-0.1287 0.12873,-0.1322 0.12523,-0.1355 0.12167,-0.1388 0.11801,-0.142 0.11429,-0.1452 0.11051,-0.1481 0.10663,-0.1511 0.10268,-0.1541 0.09867,-0.157 0.09458,-0.1596 0.09041,-0.1623 0.08617,-0.165 0.08187,-0.1674 0.07747,-0.17 0.073,-0.1722 0.06849,-0.1747 0.06386,-0.1769 0.05919,-0.179 0.05441,-0.1812 0.0496,-0.1831 0.04468,-0.1851 0.0397,-0.187 0.03465,-0.1887 0.02953,-0.1905 0.02433,-0.192 L 7.35207,33.5753 7.36576,33.3802 7.37402,33.1835 7.3768,32.9856 7.37513,32.941 7.37178,32.8974 7.36958,32.8607 7.37178,32.8142 7.37513,32.7695 7.3768,32.7249 V 6.09185 L 7.37336,5.92434 7.36283,5.74894 7.34486,5.5643 7.36283,5.37522 7.37336,5.19402 7.3768,5.01962 7.37281,4.81798 7.36093,4.61835 7.34131,4.42086 7.31411,4.22566 7.27947,4.03293 7.23755,3.8428 7.1885,3.65541 7.13247,3.47095 7.06962,3.28952 7.00008,3.1113 6.92402,2.93645 6.84158,2.76509 6.75292,2.5974 6.65819,2.43352 6.55754,2.27359 6.45112,2.11778 6.33907,1.96623 6.22157,1.8191 6.09874,1.67653 5.97075,1.53867 5.83775,1.40568 5.69989,1.2777 5.5573,1.15489 5.41017,1.0374 5.25862,0.925383 5.10282,0.818983 4.94292,0.718355 4.77906,0.623648 4.6114,0.535013 4.44007,0.452602 4.26525,0.376566 4.08708,0.307055 3.90572,0.244221 3.7213,0.188214 3.53399,0.139185 3.34394,0.097285 3.15129,0.0626648 2.9562,0.0354753 2.75882,0.0158673 2.5593,0.00399199 2.35779,0 2.15133,0.006885 1.94653,0.022032 2.13398,0.04072 2.31937,0.066247 2.50257,0.0984841 2.68344,0.137302 2.86185,0.182572 3.03769,0.234163 3.2108,0.29195 3.38107,0.3558 3.54836,0.425585 3.71256,0.501175 3.87352,0.582443 4.03111,0.669259 4.18522,0.761492 4.3357,0.859015 4.48242,0.961699 4.62528,1.06941 4.7641,1.18203 4.89879,1.29942 5.02922,1.42146 5.15523,1.54801 5.27671,1.67894 5.39354,1.81413 5.50558,1.95344 5.61269,2.09675 5.71476,2.24393 5.81164,2.39485 5.90321,2.54938 5.98935,2.7074 6.06991,2.86877 6.14477,3.03335 6.21381,3.20104 6.27688,3.37169 6.33387,3.54517 6.38464,3.72136 6.42906,3.90013 6.467,4.08134 6.49834,4.26488 6.52294,4.4506 6.54066,4.63838 6.5514,4.8281 Z"
         style="fill:url(#Grad295);fill-rule:evenodd;stroke:none"
         transform="rotate(90,8.85705,32.47135)"
         id="path5493" />
      <path
         d="M 4.88474,5.64386 4.87163,5.77935 4.85451,5.91291 4.8318,6.04656 4.80196,6.18224 4.76342,6.32194 4.7146,6.46762 l 0.1727,0.03264 0.17123,0.03655 0.16972,0.0404 0.16817,0.04421 0.16657,0.04795 0.16494,0.05165 0.16324,0.0553 0.16152,0.05889 0.15975,0.06243 0.15792,0.06593 0.15604,0.06936 0.15416,0.07276 0.1522,0.07608 0.1502,0.07938 0.14815,0.08262 0.14607,0.08579 0.14394,0.08892 0.14177,0.09201 0.13955,0.09503 0.13728,0.09801 0.13497,0.10094 0.13262,0.10381 0.13023,0.10663 0.12778,0.1094 0.1253,0.11213 0.12277,0.11479 0.12019,0.11741 0.11757,0.11997 0.11491,0.12249 0.1122,0.12496 0.10945,0.12735 0.10665,0.12972 0.10382,0.13204 0.10092,0.13428 0.09799,0.13649 0.09502,0.13864 0.092,0.14075 0.08894,0.14277 0.08583,0.1448 0.08262,0.1468 0.0795,0.1486 0.0763,0.1505 0.0729,0.1523 0.0696,0.154 0.0663,0.1557 0.0628,0.1574 0.0594,0.1589 0.0558,0.1605 0.0523,0.1619 0.0488,0.1634 0.045,0.1648 0.0414,0.1661 0.0377,0.1674 0.0338,0.1686 0.0301,0.1697 0.0262,0.171 0.0223,0.172 0.0183,0.1729 0.0143,0.1741 0.0103,0.1748 0.0062,0.1757 0.0021,0.1767 -0.0019,0.1707 -0.0056,0.17 -0.0094,0.1691 -0.0132,0.1681 -0.0167,0.1674 -0.0204,0.1662 -0.024,0.1652 -0.0275,0.1642 -0.031,0.1629 -0.0345,0.1618 -0.038,0.1607 -0.0413,0.1594 -0.0447,0.158 -0.0481,0.1568 -0.0513,0.1553 -0.0546,0.1539 -0.0578,0.1524 -0.061,0.1509 -0.0641,0.1493 -0.0672,0.1477 -0.0703,0.1461 -0.0734,0.1444 -0.0763,0.1426 -0.07931,0.1409 -0.08221,0.1389 -0.0851,0.1372 -0.08795,0.1351 -0.09076,0.1333 -0.09354,0.1312 -0.09627,0.1293 -0.09898,0.127 -0.10163,0.125 L 9.12057,18.8905 9.01372,19.011 8.90431,19.1293 8.79238,19.2452 8.67798,19.3588 8.56112,19.47 8.44187,19.5787 8.32024,19.685 8.19628,19.7888 8.07003,19.8899 7.94152,19.9884 7.81078,20.0842 7.67787,20.1773 7.5428,20.2677 7.40563,20.3552 7.26637,20.4399 7.12509,20.5218 6.98179,20.6007 6.83654,20.6767 6.68937,20.7495 6.5403,20.8194 6.38938,20.8861 6.23665,20.9496 6.08213,21.01 5.92587,21.0671 5.76792,21.121 l -0.15964,0.0504 -0.16126,0.0471 -0.16285,0.0437 -0.16442,0.0403 0.08287,0.1046 0.0802,0.1063 0.07752,0.1079 0.0748,0.1095 0.07208,0.1109 0.06934,0.1123 0.06658,0.1139 0.06382,0.1151 0.06102,0.1164 0.0582,0.1178 0.05538,0.1191 0.05254,0.1201 0.04968,0.1214 0.04679,0.1224 0.04391,0.1235 0.04099,0.1245 0.03807,0.1254 0.03511,0.1265 0.03216,0.1271 0.02918,0.1282 0.02617,0.1289 0.02316,0.1296 0.02013,0.1304 0.01708,0.1309 0.01401,0.1317 0.01092,0.1322 0.00783,0.1327 0.0047,0.1332 0.00158,0.1336 -0.00345,0.2015 -0.01031,0.1994 -0.01702,0.1972 -0.02365,0.1948 -0.03016,0.1927 -0.03655,0.19 -0.04284,0.1875 -0.04902,0.1847 -0.05508,0.182 -0.06103,0.1791 -0.06688,0.176 -0.07262,0.1729 -0.07822,0.1697 -0.08375,0.1663 -0.08914,0.1628 -0.09443,0.1594 -0.09961,0.1557 -0.10468,0.1519 -0.10963,0.1481 -0.11448,0.144 -0.11921,0.1399 -0.12384,0.1359 -0.12835,0.1315 -0.13276,0.127 -0.13704,0.1226 -0.14122,0.118 -0.14529,0.1133 -0.14926,0.1084 -0.15309,0.1036 -0.15683,0.0984 -0.16047,0.0934 -0.16398,0.088 -0.16738,0.0827 -0.17068,0.0772 -0.17385,0.0718 -0.17693,0.0659 -0.17989,0.0603 -0.18275,0.0543 -0.18548,0.0484 -0.18811,0.0422 -0.19062,0.036 -0.19303,0.0297 -0.19534,0.0233 -0.1975,0.0167 -0.19959,0.0102 -0.201552,0.0034 -0.16641,-0.0028 -0.16747,-0.0078 -0.169184,-0.0126 0.064267,0.1067 0.063793,0.1105 0.063092,0.1139 0.06216,0.117 0.061002,0.1198 0.059612,0.1224 0.057996,0.1247 0.056148,0.1267 0.054074,0.1284 0.051771,0.1299 0.049236,0.1311 0.046475,0.1319 0.04349,0.1325 0.04026,0.1329 0.03682,0.1328 0.03314,0.1327 0.02924,0.132 0.0251,0.1314 0.02073,0.1301 0.01614,0.1289 0.01132,0.1271 0.00628,0.1253 L 1.271,33.3086 1.26701,33.5119 1.25651,33.7118 1.23992,33.9079 1.21767,34.1 1.19016,34.2883 1.15784,34.4721 1.12111,34.6517 1.08039,34.8267 1.03612,34.9969 0.988703,35.1622 0.938569,35.3224 0.886137,35.4774 0.831827,35.627 0.776061,35.7708 0.719262,35.909 0.661847,36.0412 0.604241,36.1672 0.546864,36.2869 0.490136,36.4002 0.434478,36.5068 0.380314,36.6067 0.328061,36.6994 0.278144,36.7851 0.230982,36.8635 0.186997,36.9342 0.146608,36.9974 0.110239,37.0527 0.0783094,37.0999 0.051241,37.139 0.0294548,37.1696 0.0133717,37.1917 0.00341312,37.2051 0,37.2096 0.106599,37.122 l 0.10412,-0.0905 0.101582,-0.0933 0.098984,-0.0959 0.096326,-0.0987 0.09361,-0.1012 0.090835,-0.1038 0.087999,-0.1062 0.085105,-0.1087 0.08215,-0.1112 0.07914,-0.1133 0.07606,-0.1157 0.07294,-0.1177 0.06974,-0.12 0.06649,-0.122 0.06318,-0.124 0.05981,-0.126 L 1.49105,35.2461 1.54394,35.1163 1.59329,34.985 1.63903,34.8518 1.68112,34.7169 1.71946,34.5806 1.75402,34.4427 1.78474,34.3033 1.81156,34.1626 1.83441,34.0203 1.85325,33.877 1.868,33.7323 1.87861,33.5864 1.88501,33.4396 1.88716,33.2916 1.88545,33.159 1.88032,33.0269 1.87179,32.8955 1.85987,32.7648 1.84457,32.6347 1.82591,32.5054 1.80392,32.3769 1.77858,32.2491 1.74994,32.1223 1.71799,31.9965 1.68277,31.8715 1.64427,31.7476 1.60251,31.6247 1.55752,31.5029 1.50929,31.3823 1.45786,31.2628 1.40322,31.1444 1.34541,31.0275 1.28442,30.9118 1.22029,30.7974 1.15301,30.6845 l 0.17288,0.0132 0.17114,0.009 0.16994,0.0035 0.19696,-0.0033 0.19532,-0.01 0.19357,-0.0165 0.19172,-0.0227 0.18974,-0.0292 0.18769,-0.0352 0.1855,-0.0414 0.1832,-0.0472 0.18083,-0.0532 0.17831,-0.0588 0.1757,-0.0646 0.17299,-0.07 0.17015,-0.0755 0.16723,-0.0806 0.16418,-0.0861 0.16104,-0.0911 0.15777,-0.0959 0.15441,-0.101 0.15093,-0.1056 0.14736,-0.1103 0.14367,-0.1149 0.13988,-0.1194 0.13597,-0.1237 0.13195,-0.1279 0.12784,-0.132 0.12361,-0.1361 0.11927,-0.1399 0.11483,-0.1438 0.11029,-0.1475 0.10561,-0.1511 0.10086,-0.1544 0.09598,-0.1579 0.091,-0.1611 0.0859,-0.1644 0.08071,-0.1673 0.07541,-0.1703 0.06999,-0.173 0.06448,-0.1759 0.05884,-0.1784 0.05311,-0.181 0.04726,-0.1833 0.04132,-0.1856 0.03524,-0.1879 0.02909,-0.1898 0.0228,-0.192 0.01643,-0.1937 0.00994,-0.1955 0.00333,-0.197 L 7.40456,24.831 7.39974,24.6954 7.39172,24.5603 7.38054,24.4255 7.36619,24.2914 7.34871,24.1578 7.32812,24.0249 7.30443,23.8927 7.27766,23.7613 7.24784,23.6305 7.21498,23.5008 7.1791,23.3718 7.14022,23.2438 7.09836,23.1167 7.05353,22.9908 7.00576,22.8658 6.95507,22.7419 6.90149,22.6193 6.84501,22.4979 6.78567,22.3777 6.72349,22.2589 6.65847,22.1414 6.59065,22.0254 6.52005,21.9107 6.44667,21.7976 6.37055,21.6861 6.29169,21.5762 6.21014,21.4679 6.12588,21.3612 6.29094,21.321 6.45447,21.2772 6.61642,21.23 6.77676,21.1796 6.93547,21.1259 7.09248,21.0688 7.24777,21.0086 7.40132,20.9452 7.55307,20.8787 7.703,20.8092 l 0.14807,-0.0727 0.14618,-0.0756 0.14423,-0.0786 0.14227,-0.0814 0.14027,-0.0843 0.13823,-0.0873 0.13614,-0.09 0.13404,-0.0926 0.13189,-0.0954 0.12971,-0.098 0.12748,-0.1008 0.12522,-0.1031 0.12294,-0.1058 0.12061,-0.1082 0.11826,-0.1106 0.11585,-0.1131 0.1134,-0.1153 0.11091,-0.1178 0.1085,-0.1199 0.1059,-0.1223 0.1033,-0.1244 0.1007,-0.1265 0.098,-0.1287 0.0954,-0.1306 0.0926,-0.1327 0.0899,-0.1346 0.0871,-0.1366 0.0843,-0.1384 0.0814,-0.1403 0.0785,-0.1421 0.0755,-0.1438 0.0726,-0.1456 0.0696,-0.1471 0.0665,-0.1488 0.0635,-0.1505 0.0603,-0.1519 0.0572,-0.1534 0.054,-0.1549 0.0508,-0.1563 0.0475,-0.1576 0.0442,-0.159 0.0409,-0.1603 0.0375,-0.1615 0.0342,-0.1627 0.0306,-0.1638 0.0272,-0.165 0.0237,-0.1659 0.0202,-0.1671 0.0165,-0.1681 0.013,-0.1689 0.0093,-0.1697 0.0056,-0.1708 0.0018,-0.1715 -0.002,-0.1771 L 12.0883,13.4838 12.0782,13.3083 12.064,13.1338 12.0459,12.9601 12.0238,12.7875 11.9979,12.6159 11.9682,12.4454 11.9347,12.2761 11.8975,12.1079 11.8565,11.9411 11.8119,11.7755 11.7637,11.6113 11.712,11.4485 11.6567,11.2871 11.598,11.1273 11.5358,10.969 11.4702,10.8123 11.4013,10.6572 11.3291,10.5039 11.2536,10.3523 11.1749,10.2025 11.093,10.0546 11.008,9.9086 10.9199,9.76453 10.8288,9.62248 10.7346,9.48246 10.6376,9.34457 10.5376,9.20881 10.4347,9.07527 10.329,8.94399 10.2205,8.815 10.1093,8.68837 9.99536,8.56414 9.87878,8.44238 9.7596,8.32311 9.63785,8.20641 9.51358,8.09229 9.38682,7.98085 9.25764,7.87209 9.12606,7.76611 8.99212,7.66293 8.85588,7.56259 8.71738,7.46516 8.57665,7.3707 8.43375,7.27923 8.28872,7.19082 8.1416,7.10552 7.99243,7.02336 7.84125,6.94441 7.68812,6.86873 7.53307,6.79635 7.37614,6.72732 7.21739,6.66169 7.05685,6.59953 6.89456,6.54087 6.73058,6.48577 6.56494,6.43426 6.39768,6.38643 6.22885,6.34229 6.05851,6.3019 5.88667,6.26533 5.71339,6.23261 5.73358,6.07434 5.75011,5.91999 5.76296,5.76916 5.77214,5.62151 5.77765,5.47664 5.77948,5.33419 5.77798,5.18874 5.7735,5.04402 5.76607,4.90003 5.7557,4.75682 5.74246,4.61441 5.72634,4.47284 5.70739,4.33213 5.68564,4.1923 5.66111,4.05341 5.63384,3.91545 5.60386,3.77849 5.57118,3.64253 5.53587,3.5076 5.49791,3.37375 5.45738,3.24099 5.41425,3.10936 5.36861,2.9789 5.32046,2.84961 5.26983,2.72153 5.21675,2.5947 5.16125,2.46914 5.10337,2.34488 5.04314,2.22195 4.98057,2.10038 4.91571,1.98021 4.84857,1.86146 4.77921,1.74415 4.70763,1.62832 4.63386,1.514 4.55796,1.40122 4.47993,1.29 4.3998,1.18038 4.31762,1.07238 4.23341,0.966032 4.14721,0.86137 4.05903,0.758422 3.96891,0.657215 3.87687,0.557779 3.78296,0.460143 3.68719,0.364338 3.5896,0.270391 3.49021,0.178333 3.38907,0.0881932 3.2862,0 3.28872,0.00315202 3.29613,0.0125562 3.3082,0.0281345 3.3247,0.0498093 3.34539,0.0775026 3.37001,0.111136 3.39837,0.150633 3.4302,0.195915 3.46529,0.246903 3.50338,0.30352 3.54425,0.365688 3.58767,0.43333 3.6334,0.506368 3.68119,0.584723 3.73083,0.668317 3.78207,0.757075 3.83468,0.850915 3.88843,0.949762 3.94307,1.05354 3.99837,1.16216 4.05411,1.27555 4.11005,1.39365 4.16593,1.51635 4.22155,1.6436 4.27666,1.77531 4.33103,1.9114 4.3844,2.0518 4.43657,2.19642 4.48729,2.3452 l 0.04904,0.15284 0.04712,0.15684 0.04496,0.16075 0.04258,0.16459 0.03995,0.16836 0.03709,0.17203 0.034,0.17564 0.03068,0.17916 0.02711,0.18261 0.0233,0.18599 0.01929,0.18927 0.01501,0.1925 0.01051,0.19562 0.00578,0.19869 8e-4,0.20166 -0.00441,0.20457 -0.00984,0.2074 z"
         style="fill:url(#Grad296);fill-rule:evenodd;stroke:none"
         transform="rotate(-90,13.29864,10.55076)"
         id="path5495" />
      <path
         d="M 4.82036,3.54103 4.81542,3.72916 4.80077,3.91466 4.77667,4.09728 4.74335,4.27678 4.70107,4.45292 4.65006,4.62548 4.59059,4.7942 4.52289,4.95884 4.44721,5.11918 4.3638,5.27496 4.27291,5.42596 4.17477,5.57193 4.06965,5.71263 3.95779,5.84782 3.83943,5.97726 3.71482,6.10071 3.58421,6.21794 3.44785,6.3287 3.30598,6.43277 3.15884,6.52989 3.00669,6.61983 2.84978,6.70235 2.68834,6.7772 2.52264,6.84417 2.35292,6.90298 2.17941,6.95342 2.00237,6.99525 1.82205,7.02821 1.95735,7.09488 2.08994,7.16609 2.21971,7.24173 2.34657,7.3217 2.47041,7.4059 2.59112,7.49423 2.7086,7.5866 l 0.11415,0.0963 0.1107,0.10012 0.10717,0.10385 0.10352,0.10749 0.09978,0.111 0.09591,0.11445 0.09196,0.11776 0.08791,0.12099 0.08373,0.12413 0.07946,0.12715 0.07508,0.13007 0.07063,0.1329 0.06602,0.13562 0.06135,0.13825 0.05656,0.14078 0.05166,0.14319 0.04668,0.14554 0.04156,0.14773 0.03636,0.14987 0.03105,0.15191 0.02564,0.1538 0.02012,0.1556 0.01451,0.1574 0.00877,0.159 0.00295,0.1605 -0.00337,0.1716 -0.01004,0.17 -0.01657,0.168 -0.02298,0.1662 -0.02926,0.164 -0.03543,0.1618 -0.04145,0.1595 -0.04736,0.157 -0.05312,0.1543 -0.05879,0.1518 -0.06431,0.1488 -0.06969,0.1458 -0.07499,0.1429 -0.08011,0.1395 -0.08514,0.1362 -0.09002,0.1327 -0.09479,0.1291 -0.09943,0.1255 -0.10394,0.1215 -0.10832,0.1177 -0.11259,0.1136 -0.1167,0.1091 -0.12072,0.1051 -0.1246,0.1005 -0.12835,0.0958 -0.13197,0.0912 -0.13547,0.0863 -0.13884,0.0814 -0.14208,0.0762 -0.14522,0.071 -0.14819,0.0657 -0.15106,0.0603 -0.15381,0.0546 -0.15642,0.0489 0.11132,0.0848 0.10921,0.0874 0.10705,0.09 0.10485,0.0924 0.10261,0.0949 0.10031,0.0973 0.09795,0.0997 0.09557,0.102 0.09314,0.1043 0.09065,0.1065 0.08812,0.1087 0.08554,0.1109 0.08291,0.1128 0.08023,0.1149 0.07753,0.1171 0.07475,0.1188 0.07194,0.1209 0.06907,0.1227 0.06615,0.1245 0.06321,0.1263 0.06021,0.128 0.05715,0.1296 0.05405,0.1314 0.05091,0.1329 0.04771,0.1345 0.04448,0.1359 0.04119,0.1374 0.03785,0.1388 0.03447,0.1403 0.03106,0.1415 0.02756,0.1427 0.02404,0.144 0.02048,0.1451 0.01686,0.1464 0.0132,0.1474 0.00948,0.1485 0.00572,0.1493 0.00192,0.1504 -0.00163,0.138 -0.00484,0.1372 -0.00804,0.1363 -0.0112,0.1355 -0.0143,0.1345 -0.01738,0.1336 -0.02041,0.1325 -0.0234,0.1316 -0.02635,0.1305 -0.02928,0.1295 -0.03214,0.1283 -0.035,0.1271 -0.03779,0.126 -0.04055,0.1248 -0.04327,0.1235 -0.04596,0.1222 -0.04861,0.1209 -0.0512,0.1196 -0.05378,0.1182 -0.0563,0.1168 -0.05879,0.1153 -0.06125,0.1138 -0.06366,0.1124 -0.06603,0.1108 -0.06837,0.1092 -0.07066,0.1076 -0.07291,0.1058 -0.07513,0.1043 -0.07732,0.1026 0.12313,0.0781 0.12077,0.0812 0.11838,0.0847 0.11587,0.0877 0.11333,0.0909 0.11074,0.0939 0.10804,0.0968 0.1053,0.0999 0.10251,0.1026 0.09964,0.1055 0.09669,0.1081 0.0937,0.1109 0.09062,0.1133 0.08751,0.116 0.08432,0.1184 0.08105,0.1209 0.07773,0.1232 0.07434,0.1254 0.07088,0.1278 0.06738,0.1299 0.06379,0.1319 0.06014,0.1341 0.05644,0.1359 0.05266,0.1379 0.04881,0.1397 0.04491,0.1415 0.04094,0.1432 0.03691,0.145 0.0328,0.1465 0.02864,0.148 0.02442,0.1495 0.02012,0.151 0.01576,0.1522 0.01134,0.1535 0.00685,0.1547 0.0023,0.156 -0.00343,0.1905 -0.01021,0.189 -0.01687,0.187 -0.0234,0.1851 -0.02984,0.183 -0.03614,0.1807 -0.04234,0.1784 -0.04841,0.176 -0.05437,0.1736 -0.0602,0.1708 -0.06593,0.168 -0.07154,0.165 L 4.28066,29.9901 4.19827,30.149 4.11062,30.3046 4.01784,30.457 3.92004,30.6059 3.81735,30.751 3.70986,30.8925 3.5977,31.0302 3.48101,31.1639 3.35988,31.2936 3.23443,31.4191 3.10479,31.5402 2.97105,31.6569 2.83336,31.7692 2.69183,31.8766 2.54657,31.9794 2.39771,32.0774 2.24533,32.1703 2.08959,32.258 1.93059,32.3405 1.76845,32.4176 1.60327,32.4894 1.4352,32.5555 1.26433,32.6159 1.09079,32.6705 0.914699,32.7191 0.736166,32.7617 0.555313,32.7982 0.372255,32.8283 0.187112,32.852 0,32.8693 l 0.192397,0.0135 0.195611,0.0061 0.199748,-0.0038 0.197845,-0.0112 0.195811,-0.0184 0.193638,-0.0257 0.19134,-0.0327 0.18889,-0.0396 0.18631,-0.0463 0.1836,-0.0529 0.18076,-0.0595 0.17778,-0.0657 0.17466,-0.0721 0.17141,-0.0781 0.16803,-0.084 0.16451,-0.0898 0.16086,-0.0956 0.15706,-0.101 0.15313,-0.1065 0.14909,-0.1117 0.14488,-0.1169 0.14055,-0.1219 0.1361,-0.1269 0.13149,-0.1314 0.12676,-0.1361 0.12189,-0.1407 0.11689,-0.1449 0.11174,-0.1491 0.10647,-0.1531 0.10107,-0.157 0.09553,-0.161 0.08984,-0.1645 0.08403,-0.168 0.07809,-0.1714 0.072,-0.1747 L 5.3056,29.3989 5.36504,29.2181 5.41797,29.0345 5.4643,28.8482 5.50388,28.6592 5.53654,28.4679 5.5622,28.2743 5.58068,28.0784 5.59188,27.8805 5.59564,27.6808 5.59334,27.5248 5.58648,27.3701 5.57512,27.2166 5.55935,27.0644 5.5392,26.9134 5.51476,26.7639 5.48608,26.6159 5.45323,26.4694 5.41629,26.3244 5.37529,26.1812 5.33035,26.0397 5.28147,25.9 5.22877,25.7621 5.17229,25.6262 5.1121,25.4921 5.04825,25.3602 4.98084,25.2303 4.90989,25.1025 4.8355,24.9771 4.75772,24.8539 4.67663,24.733 4.59228,24.6146 4.50474,24.4986 4.41407,24.3853 4.32034,24.2744 4.22362,24.1663 4.12397,24.0608 4.02145,23.9582 3.91614,23.8583 3.80808,23.7615 3.69737,23.6676 3.58404,23.5767 3.46819,23.489 3.34986,23.4043 3.22911,23.3231 3.10602,23.245 3.18348,23.1424 3.25874,23.0381 3.33176,22.9323 3.40251,22.8247 3.47095,22.7155 3.53703,22.6047 3.60073,22.4923 3.66201,22.3785 3.72083,22.2632 3.77713,22.1464 3.8309,22.0282 3.8821,21.9086 3.93069,21.7877 3.97662,21.6655 4.01986,21.542 4.06038,21.4172 4.09812,21.2912 4.13307,21.1641 4.16519,21.0358 4.1944,20.9063 4.22072,20.7758 4.24409,20.6442 4.26444,20.5117 4.28178,20.3781 4.29606,20.2436 4.30722,20.1081 4.31524,19.9718 4.32007,19.8346 4.3217,19.6966 4.31978,19.5462 4.31406,19.3969 4.30459,19.2484 4.29139,19.101 4.27455,18.9546 4.25409,18.8095 4.23006,18.6655 4.20249,18.5228 4.17147,18.3813 4.13701,18.241 4.09916,18.1022 4.05799,17.9648 4.01353,17.8289 3.96583,17.6944 3.91493,17.5615 3.86089,17.4301 3.80374,17.3005 3.74354,17.1725 3.68034,17.0462 3.61418,16.9217 3.5451,16.799 3.47315,16.6781 3.39839,16.5593 3.32086,16.4422 3.2406,16.3273 3.15766,16.2145 3.07208,16.1036 2.98393,15.9949 2.89324,15.8884 2.80005,15.7841 2.70443,15.6821 2.6064,15.5824 2.50602,15.4851 2.40334,15.3902 2.2984,15.2978 2.19125,15.2078 2.08195,15.1204 1.97052,15.0356 2.12699,14.9867 2.28086,14.9321 2.43198,14.8718 2.58023,14.8061 2.72548,14.7351 2.86762,14.6589 3.0065,14.5775 3.14201,14.4912 3.27402,14.4 3.4024,14.3042 3.52703,14.2037 3.64778,14.0986 3.76451,13.9895 3.87712,13.8759 3.98547,13.7582 4.08942,13.6367 4.18887,13.5112 4.28367,13.3821 4.37371,13.2494 4.45886,13.1132 4.53898,12.9737 4.61397,12.8308 4.68367,12.685 4.74799,12.5362 4.80677,12.3844 4.85992,12.2301 4.90727,12.0731 4.94873,11.9136 4.98415,11.7518 5.01342,11.5878 5.03639,11.4216 5.05297,11.2536 5.063,11.0836 5.06638,10.912 5.06343,10.7515 5.05467,10.5925 5.04019,10.4351 5.02009,10.2795 4.99448,10.1257 4.96347,9.97379 4.92714,9.82392 4.88562,9.67619 4.839,9.53065 4.78739,9.38746 4.73088,9.24668 4.6696,9.10843 4.60362,8.97281 4.53307,8.83991 4.45804,8.70984 4.37865,8.58269 4.29498,8.45856 4.20715,8.33757 4.11523,8.21981 4.01938,8.10536 3.91966,7.99436 3.8162,7.88687 3.70909,7.78302 3.59843,7.6829 3.48432,7.5866 3.36689,7.49423 3.24622,7.4059 3.12241,7.3217 2.99558,7.24173 2.86581,7.16609 2.73324,7.09488 2.59794,7.02821 2.77805,6.99525 2.95491,6.95342 3.12825,6.90298 3.29785,6.84417 3.46344,6.7772 3.62478,6.70235 3.78161,6.61983 3.9337,6.52989 4.08079,6.43277 4.22264,6.3287 4.35899,6.21794 4.4896,6.10071 4.61422,5.97726 4.7326,5.84782 4.84448,5.71263 4.94964,5.57193 5.04781,5.42596 5.13874,5.27496 5.22221,5.11918 5.29792,4.95884 5.36567,4.7942 5.4252,4.62548 5.47624,4.45292 5.51856,4.27678 5.5519,4.09728 5.57604,3.91466 5.59069,3.72916 5.59564,3.54103 5.59003,3.33983 5.57341,3.1416 5.54608,2.94666 5.50834,2.75527 5.46047,2.56777 5.4028,2.38441 5.3356,2.20554 5.25919,2.03141 5.17385,1.86234 5.07989,1.69863 4.97762,1.54056 4.86732,1.38844 4.74929,1.24257 4.62384,1.10324 4.49126,0.970741 4.35186,0.845379 4.20592,0.727449 4.05375,0.617247 3.89566,0.51507 3.73193,0.421215 3.56287,0.335978 3.38877,0.259658 3.20994,0.192551 3.02667,0.134953 2.83926,0.0871617 2.64801,0.0494737 2.45324,0.0221862 2.25521,0.00559605 2.05424,0 1.8583,0.013464 1.66623,0.037944 1.85446,0.0638019 2.03943,0.0992386 2.2209,0.143997 2.39859,0.19782 2.57221,0.260453 2.7415,0.331634 2.9062,0.411111 3.06603,0.498625 3.22071,0.593919 3.36998,0.696736 3.51355,0.80682 3.65117,0.923913 3.78254,1.04776 3.90742,1.1781 4.02552,1.31467 4.13657,1.45725 4.2403,1.60553 4.33644,1.75928 4.42471,1.91825 4.50485,2.08217 4.57657,2.25079 4.63962,2.42384 4.69371,2.60107 4.73858,2.78225 4.77394,2.96707 4.79955,3.15533 4.81511,3.34673 Z"
         style="fill:url(#Grad297);fill-rule:evenodd;stroke:none"
         transform="rotate(90,6.92545,30.87165)"
         id="path5497" />
      <path
         d="M 1.25962,2.72952 1.2639,2.93821 1.23881,3.16159 1.41838,3.16923 1.59614,3.18514 1.7719,3.20916 1.94541,3.24109 2.11649,3.28076 2.2849,3.32799 2.45045,3.3826 2.6129,3.44441 2.77205,3.51323 2.92769,3.58889 3.0796,3.67122 3.22757,3.76002 3.37136,3.85511 3.5108,3.95632 3.64565,4.06347 3.7757,4.17639 3.90074,4.29487 4.02055,4.41874 4.13492,4.54783 4.24363,4.68197 4.34649,4.82096 4.44324,4.96462 4.53371,5.11277 4.61766,5.26524 4.6949,5.42185 4.76518,5.58242 4.82831,5.74675 4.88409,5.91469 4.93228,6.08603 4.97267,6.26061 5.00506,6.43824 5.02661,6.59618 5.04163,6.75371 5.05022,6.91066 5.05249,7.06685 5.0485,7.22216 5.03835,7.37644 5.02215,7.5295 4.99997,7.68121 4.9719,7.83141 4.93804,7.97994 4.8985,8.12666 4.85334,8.27141 4.80267,8.41403 4.74657,8.55436 4.68515,8.69227 4.61848,8.82757 4.54667,8.96015 4.4698,9.0898 4.38797,9.21641 4.30125,9.33981 4.20976,9.45984 4.11357,9.57637 4.0128,9.68921 3.9075,9.79823 3.7978,9.90326 3.68376,10.0042 3.5655,10.1008 3.4431,10.1929 3.31665,10.2805 3.18623,10.3633 3.05195,10.4412 2.91389,10.514 l -0.14174,0.0677 -0.14532,0.0622 0.11081,0.1046 0.10466,0.1097 0.09837,0.1146 0.09194,0.1191 0.08535,0.1236 0.07861,0.1276 0.07175,0.1316 0.06471,0.1352 0.05754,0.1385 0.05022,0.1418 0.04275,0.1446 0.03514,0.1473 0.02737,0.1497 0.02309,0.1808 0.01179,0.1789 7.9e-4,0.177 -0.00997,0.1746 -0.02045,0.1718 -0.03066,0.1687 -0.04061,0.1652 -0.05028,0.1615 -0.05972,0.1573 -0.06885,0.1528 -0.07774,0.1479 -0.08636,0.1428 -0.09471,0.1374 -0.10279,0.1313 -0.1106,0.1251 -0.11815,0.1186 -0.12544,0.1117 -0.13245,0.1045 -0.1392,0.0967 -0.14569,0.0888 -0.1519,0.0806 -0.15786,0.0718 -0.16353,0.0629 -0.16896,0.0536 -0.1741,0.0438 -0.17899,0.0338 -0.12699,0.0179 -0.128822,0.0115 0.248162,0.0943 0.20227,0.0171 0.1328,-0.0124 0.12914,-0.017 0.17617,-0.0332 0.17175,-0.043 L 2.14426,15.5541 2.30641,15.492 2.46335,15.4209 2.61484,15.3414 2.76062,15.2536 2.90043,15.1579 3.03401,15.0547 3.1611,14.9443 3.28145,14.8272 3.39479,14.7035 3.50086,14.5739 3.59942,14.4384 3.6902,14.2977 3.77293,14.1518 3.84737,14.0012 3.91325,13.8464 3.97031,13.6876 4.01831,13.5252 4.05697,13.3595 4.08604,13.1909 4.10526,13.0198 4.11438,12.8465 4.11313,12.6715 4.10124,12.4948 4.07849,12.3171 4.05047,12.1643 4.01452,12.0138 3.97084,11.866 3.91958,11.7212 3.86089,11.5795 3.79496,11.4412 3.72195,11.3066 3.64204,11.176 3.55537,11.0495 3.46212,10.9276 3.36246,10.8104 3.25656,10.6982 3.14458,10.5913 3.2883,10.5298 3.42858,10.4631 3.56534,10.3914 3.6985,10.3149 3.82795,10.2336 3.95362,10.1477 4.07543,10.0574 4.19328,9.96271 4.30708,9.8639 4.41677,9.76107 4.52224,9.65437 4.6234,9.54394 4.7202,9.42992 4.81251,9.31246 4.90026,9.19169 4.98338,9.06777 5.06177,8.94084 5.13533,8.81105 5.204,8.67853 5.26767,8.54342 5.32627,8.40587 5.37971,8.26604 5.42791,8.12406 5.47078,7.98006 5.50822,7.8342 5.54015,7.68663 5.56651,7.53748 5.58717,7.3869 5.60208,7.23503 5.61113,7.08202 5.61426,6.928 5.61135,6.77314 5.60235,6.61756 5.58713,6.4614 5.56565,6.30482 5.53271,6.12356 5.49162,5.94542 5.44259,5.77061 5.38583,5.59929 5.32156,5.43166 5.25001,5.26788 5.17138,5.10816 5.08589,4.95266 4.99377,4.80158 4.89523,4.65509 4.79048,4.51339 4.67974,4.37664 4.56324,4.24504 4.44119,4.11877 4.31379,3.99801 4.18128,3.88294 4.04388,3.77375 3.90178,3.67062 3.75522,3.57373 3.60441,3.48326 3.44957,3.3994 3.29092,3.32234 3.12867,3.25224 2.96303,3.18932 2.79423,3.13372 2.62249,3.08564 2.44802,3.04528 2.27103,3.0128 2.09175,2.9884 1.91041,2.97224 1.72719,2.96453 1.71342,2.72493 1.68679,2.50186 1.65741,2.34099 1.62116,2.18309 1.57821,2.02828 1.52878,1.8767 1.473,1.72848 1.41108,1.58376 1.34318,1.44267 1.26951,1.30535 1.19023,1.17193 1.10553,1.04254 1.01559,0.917322 0.920583,0.796403 0.820697,0.67992 0.71611,0.568007 0.607002,0.460798 0.493557,0.358426 0.375953,0.261027 0.254372,0.168733 0.128994,0.0816796 0,0 0.00686849,0.00635404 0.0266614,0.02528 0.0581598,0.0565739 0.100145,0.100031 0.151398,0.155448 0.210701,0.222621 0.276832,0.301344 0.348576,0.391416 0.424712,0.492628 0.504021,0.604781 0.585286,0.727668 0.667287,0.861085 0.748804,1.00483 0.82862,1.15869 0.905514,1.32248 0.97827,1.49597 1.04567,1.67899 1.10649,1.8713 1.15951,2.07271 1.20352,2.28302 1.23729,2.50203 Z"
         style="fill:url(#Grad298);fill-rule:evenodd;stroke:none"
         transform="rotate(-90,16.237,6.0815)"
         id="path5499" />
      <path
         d="M 7.34486,35.5792 7.32264,35.4552 7.30118,35.3311 7.2805,35.207 7.26057,35.0828 7.24142,34.9585 7.22303,34.8342 7.20542,34.7099 7.18859,34.5856 7.17252,34.4612 7.15722,34.3369 7.1427,34.2125 7.12896,34.0882 7.11598,33.9639 7.10379,33.8396 7.09238,33.7154 7.08175,33.5912 7.0719,33.4671 7.06283,33.3431 7.05455,33.2192 7.04705,33.0954 7.04033,32.9716 7.0344,32.848 7.02926,32.7245 7.0249,32.6012 7.02133,32.478 7.01856,32.355 7.01658,32.2321 7.01538,32.1093 7.01499,31.9868 7.02168,31.4681 7.04165,30.9525 7.07473,30.4404 7.12075,29.9318 7.17956,29.427 7.25099,28.9262 7.33486,28.4292 7.43103,27.9367 7.53931,27.4484 7.65957,26.9647 7.79162,26.4858 7.93529,26.0117 8.09043,25.5427 8.25688,25.0788 8.43446,24.6204 8.62302,24.1675 8.82238,23.7203 9.0324,23.279 9.25289,22.8438 9.4837,22.4146 9.72466,21.992 9.9756,21.5757 l 0.2608,-0.4094 0.2704,-0.4027 0.2799,-0.3956 0.2893,-0.3884 0.2984,-0.381 0.3074,-0.3736 0.3163,-0.3659 0.3249,-0.358 0.3334,-0.3499 0.3417,-0.3419 0.35,-0.3335 0.358,-0.325 0.3659,-0.3163 0.3734,-0.3074 0.381,-0.2985 0.3884,-0.2893 0.3956,-0.2799 0.4026,-0.2705 0.4094,-0.2609 0.4163,-0.251 0.4226,-0.241 0.429,-0.2309 0.4354,-0.2205 0.4413,-0.2101 0.4472,-0.1994 0.4529,-0.1886 0.4584,-0.1777 0.4639,-0.1665 0.469,-0.1552 0.4741,-0.1437 0.4791,-0.132 0.4837,-0.1204 0.4882,-0.1083 0.4927,-0.0962 0.4969,-0.0838 0.501,-0.0715 0.5049,-0.0589 0.5087,-0.046 0.5121,-0.0331 0.5157,-0.0199 0.5189,-0.0067 0.2634,0.0017 0.2631,0.0053 0.2627,0.0088 0.2623,0.0123 0.2618,0.0159 0.2615,0.0192 0.2608,0.0227 0.2602,0.0262 0.2598,0.0296 0.259,0.033 0.2585,0.0364 0.2576,0.0398 0.2571,0.0432 0.2563,0.0465 0.2555,0.0498 0.2546,0.0533 0.2539,0.0564 0.253,0.0598 0.252,0.0631 0.2512,0.0663 0.25,0.0695 0.2491,0.0729 0.2481,0.0761 0.247,0.0792 0.2459,0.0825 0.2448,0.0857 0.2436,0.0887 0.2423,0.0919 0.2412,0.0951 0.2399,0.0983 0.2385,0.1014 0.2373,0.1044 0.2358,0.1074 0.2345,0.1106 0.2331,0.1136 0.2316,0.1166 0.2301,0.1197 0.2285,0.1227 0.2269,0.1257 0.2254,0.1286 0.2237,0.1316 0.2222,0.1346 0.2203,0.1375 0.2187,0.1404 0.2169,0.1433 0.2151,0.1462 0.2133,0.149 0.2114,0.1521 0.2095,0.1547 0.2078,0.1576 0.2056,0.1605 0.2037,0.1633 0.2016,0.1659 0.1996,0.1688 0.1975,0.1716 0.1954,0.1743 0.1933,0.1771 0.191,0.1797 0.1889,0.1825 0.1865,0.1851 0.1844,0.1879 0.182,0.1904 0.1797,0.1932 2.2276,2.4272 -0.5936,-3.2412 -0.0952,-0.4885 -0.1059,-0.4841 -0.1164,-0.4795 -0.1266,-0.4751 -0.1368,-0.4702 -0.1469,-0.4655 -0.1568,-0.4605 -0.1666,-0.4554 -0.1762,-0.4503 -0.1857,-0.4451 -0.1951,-0.4395 -0.2044,-0.4342 -0.2135,-0.4285 -0.2225,-0.4228 -0.2314,-0.4169 -0.24,-0.411 L 40.1058,10.1478 39.8488,9.749 39.5835,9.35651 39.31,8.97043 39.0283,8.59085 38.7389,8.21789 38.4417,7.85164 38.1368,7.49225 37.8244,7.1398 37.5047,6.79442 37.1777,6.45621 36.8435,6.12529 36.5025,5.80176 36.1546,5.48575 35.8,5.17735 35.4388,4.8767 35.0713,4.58388 34.6973,4.29901 34.3173,4.02221 33.9312,3.75359 33.5392,3.49327 33.1415,3.24135 32.7381,2.99793 32.3293,2.76314 31.9151,2.53709 31.4956,2.31988 31.0711,2.11164 30.6416,1.91248 30.2073,1.72247 29.7683,1.54179 29.3247,1.37049 28.8767,1.20871 28.4246,1.05657 27.9682,0.914163 27.5077,0.781608 27.0434,0.659019 26.5754,0.546503 26.1036,0.444172 25.6285,0.352141 25.15,0.270519 24.6683,0.199418 24.1835,0.13895 23.6958,0.0892252 23.2052,0.0503565 22.7119,0.022455 22.2162,0.00563235 21.718,0 21.1495,0.00733249 20.5845,0.0292099 20.0232,0.0654522 19.4658,0.115879 l -0.5533,0.064432 -0.549,0.078257 -0.5444,0.091901 -0.5399,0.105366 -0.5351,0.118649 -0.53,0.131754 -0.525,0.144679 -0.5195,0.157423 -0.514,0.16999 -0.5082,0.18237 -0.5024,0.19458 -0.4963,0.20659 -0.4901,0.21845 -0.4835,0.2301 -0.477,0.24159 -0.4702,0.2529 -0.4632,0.26401 -0.456,0.27496 L 9.86001,3.52961 9.41884,3.82592 8.98537,4.13263 8.55979,4.44957 8.14226,4.77655 7.73297,5.11338 7.33211,5.45991 6.93985,5.81593 6.55637,6.18129 6.18186,6.55578 5.81648,6.93924 5.46044,7.33148 5.11388,7.73231 4.77701,8.14158 4.45001,8.55908 4.13306,8.98465 3.82632,9.4181 3.52998,9.85926 3.24424,10.3079 2.96925,10.7639 2.7052,11.2271 2.45228,11.6973 2.21067,12.1742 1.98054,12.6579 1.76208,13.1478 1.55546,13.6442 1.36086,14.1465 1.17847,14.6548 1.00846,15.1688 0.851023,15.6884 0.706326,16.2132 0.574557,16.7433 0.455892,17.2784 0.350513,17.8183 0.258602,18.3628 0.180334,18.9118 0.115895,19.4651 0.065461,20.0224 0.0292138,20.5838 0.0073335,21.1489 0,21.7174 l 0.00153197,0.2594 0.00458993,0.2589 0.0076389,0.2585 0.0106789,0.2581 0.0137099,0.2576 0.016732,0.2571 0.0197449,0.2567 0.0227491,0.2562 0.0257444,0.2555 0.028729,0.2551 0.031708,0.2545 0.034676,0.2539 0.037634,0.2531 0.040586,0.2526 0.043525,0.2518 0.046458,0.2512 0.049383,0.2504 0.052295,0.2497 0.055201,0.2489 0.058097,0.2481 0.060985,0.2473 0.063863,0.2465 0.066733,0.2455 0.069592,0.2447 0.072445,0.2438 0.07529,0.2429 0.07812,0.242 0.08094,0.2408 0.08376,0.24 0.08656,0.2389 0.08937,0.2378 0.09215,0.2367 0.09494,0.2358 0.0977,0.2345 0.10046,0.2334 0.10321,0.2323 0.10596,0.231 0.10871,0.2298 0.11142,0.2287 0.11413,0.2274 0.11685,0.2261 0.11953,0.2247 0.12224,0.2235 0.12491,0.2222 0.12759,0.2207 0.13025,0.2193 0.1329,0.218 0.13555,0.2164 0.13817,0.2151 0.14081,0.2135 0.14343,0.212 0.14605,0.2106 0.14863,0.2089 0.15122,0.2073 0.15381,0.2058 0.15639,0.2042 0.15894,0.2025 0.16151,0.2008 0.16404,0.1991 0.16658,0.1974 0.16912,0.1958 0.17163,0.1938 0.17414,0.1922 2.22744,2.4272 z"
         style="fill:url(#Grad299);fill-rule:evenodd;stroke:none"
         transform="rotate(-90,24.580045,19.087955)"
         id="path5501" />
      <path
         d="m 5.11583,31.0394 0.007,-0.5444 0.02088,-0.541 0.03461,-0.5375 0.04814,-0.5335 0.0615,-0.5298 0.07471,-0.5254 0.08775,-0.5212 0.1006,-0.5168 0.1133,-0.512 0.1258,-0.5073 0.13816,-0.5022 0.15032,-0.4972 0.16234,-0.4917 0.17417,-0.4863 0.18584,-0.4807 0.19732,-0.4746 0.20864,-0.4688 0.21978,-0.4626 0.23077,-0.4562 0.24159,-0.4497 0.25221,-0.4429 0.26267,-0.436 0.27298,-0.4292 0.2831,-0.4217 0.29305,-0.4145 0.30284,-0.4068 0.31244,-0.3992 0.32186,-0.3913 0.3312,-0.3832 0.3402,-0.375 0.3492,-0.3664 0.3579,-0.358 0.3666,-0.3492 0.3749,-0.3403 0.3832,-0.3312 0.3912,-0.3219 0.3991,-0.3124 0.407,-0.3029 0.4145,-0.2931 0.4218,-0.2831 0.429,-0.2731 0.4361,-0.2626 0.4429,-0.2523 0.4497,-0.2416 0.4562,-0.2307 0.4626,-0.2199 0.4688,-0.2087 0.4748,-0.1973 0.4806,-0.1859 0.4863,-0.1742 0.4918,-0.1624 0.4972,-0.1503 0.5023,-0.1382 0.5074,-0.1258 0.5121,-0.1133 0.5168,-0.1006 0.5213,-0.0878 0.5256,-0.0747 0.5297,-0.0616 0.5337,-0.0481 0.5376,-0.0346 0.5411,-0.0209 0.5446,-0.007 0.288,0.0019 0.2871,0.0059 0.2862,0.0097 0.2851,0.0136 0.2842,0.0174 0.283,0.0212 0.282,0.025 0.2809,0.0287 0.2798,0.0324 0.2787,0.0362 0.2775,0.0398 0.2762,0.0435 0.2751,0.047 0.2738,0.0507 0.2725,0.0543 0.2713,0.0577 0.2699,0.0614 0.2685,0.0648 0.2672,0.0682 0.2659,0.0717 0.2644,0.0752 0.2629,0.0785 0.2614,0.0819 0.26,0.0852 0.2585,0.0886 0.2569,0.0918 0.2553,0.0951 0.2538,0.0984 0.2521,0.1016 0.2505,0.1047 0.2488,0.1079 0.2471,0.1111 0.2453,0.1142 0.2437,0.1173 0.2419,0.1203 0.24,0.1234 0.2383,0.1263 0.2364,0.1294 0.2345,0.1323 0.2325,0.1352 0.2308,0.1382 0.2287,0.1411 0.2268,0.144 0.2248,0.1467 0.2227,0.1496 0.2207,0.1524 0.2186,0.1551 0.2167,0.1579 0.2143,0.1605 0.2122,0.1632 0.2102,0.166 0.2078,0.1686 0.2058,0.1711 0.2033,0.1737 0.2012,0.1763 0.1988,0.1787 0.1966,0.1814 0.1941,0.1839 0.1918,0.1861 0.1895,0.1888 0.1869,0.1911 0.1846,0.1935 0.182,0.1958 -0.0895,-0.4587 -0.0995,-0.4551 -0.1093,-0.4513 -0.1192,-0.4474 -0.1288,-0.4434 -0.1382,-0.4392 -0.1477,-0.435 -0.1569,-0.4308 -0.1661,-0.426 -0.1752,-0.4216 -0.1841,-0.4168 -0.1929,-0.4119 -0.2016,-0.407 -0.21,-0.4019 -0.2186,-0.3966 -0.227,-0.3913 L 38.3917,9.78387 38.1485,9.40356 37.8974,9.02895 37.6384,8.66014 37.3717,8.29726 37.0972,7.94044 36.8155,7.58979 36.5262,7.24543 36.2298,6.90748 35.9262,6.57606 35.6156,6.2513 35.2981,5.93329 34.9738,5.62219 34.6429,5.31808 34.3054,5.02112 33.9616,4.7314 33.6114,4.44906 33.255,4.17419 32.8926,3.90695 32.5243,3.64742 32.1501,3.39574 31.7701,3.15204 31.3847,2.91644 30.9938,2.68903 30.5976,2.46995 30.1961,2.25932 29.7895,2.05726 29.3778,1.86389 28.9614,1.67933 28.5401,1.5037 28.1143,1.33711 27.6841,1.17968 27.2493,1.03155 26.8103,0.892826 26.3672,0.763628 25.9199,0.644077 25.4689,0.534293 25.0139,0.434395 24.5554,0.344505 24.0932,0.26474 23.6277,0.195222 23.1588,0.136071 22.6867,0.0874046 22.2116,0.0493448 21.7335,0.0220109 21.2526,0.00552271 20.7688,0 20.2243,0.0069991 19.6831,0.0278825 19.1457,0.0624792 18.612,0.110619 18.0823,0.172129 17.5567,0.24684 17.0354,0.334582 16.5186,0.435182 16.0065,0.54847 15.4991,0.674275 14.9968,0.812426 14.4997,0.962752 14.0079,1.12508 13.5217,1.29925 13.041,1.48508 12.5662,1.68239 12.0975,1.89103 11.6349,2.11081 11.1787,2.34159 10.729,2.58317 10.2861,2.83537 9.84998,3.09805 9.42093,3.37103 8.99912,3.65413 8.58468,3.94718 8.1778,4.25001 7.77867,4.56246 7.38742,4.88434 7.00425,5.2155 6.62932,5.55575 6.2628,5.90493 5.90488,6.26288 5.55571,6.6294 5.21546,7.00434 4.88431,7.38753 4.56244,7.77879 4.25,8.17795 3.94717,8.58484 3.65412,8.9993 3.37103,9.42114 3.09805,9.8502 2.83538,10.2863 2.58317,10.7293 2.3416,11.179 2.11084,11.6352 1.89104,12.0978 1.68241,12.5666 1.48509,13.0415 1.29926,13.522 1.1251,14.0084 0.962765,14.5002 0.812437,14.9974 0.674286,15.4999 0.548479,16.0072 0.43519,16.5193 0.334588,17.0362 0.246845,17.5575 0.172132,18.0831 0.110621,18.6129 0.0624807,19.1467 0.0278832,19.6842 0.00699928,20.2254 0,20.7701 l 0.00156284,0.2572 0.00467651,0.2565 0.00777215,0.2558 0.0108497,0.2549 0.0139092,0.2541 0.0169509,0.2534 0.0199742,0.2525 0.0229796,0.2517 0.0259669,0.2508 0.028937,0.2499 0.031888,0.249 0.03482,0.2481 0.037736,0.2471 0.040634,0.2462 0.043512,0.2451 0.046374,0.2442 0.049217,0.2432 0.052041,0.2421 0.054848,0.2412 0.057639,0.24 0.060409,0.2389 0.063161,0.2378 0.065896,0.2366 0.068613,0.2356 0.071312,0.2344 0.073991,0.2332 0.07666,0.2321 0.0793,0.2307 0.08192,0.2296 0.08454,0.2283 0.08712,0.2271 0.0897,0.2258 0.09225,0.2245 0.09479,0.2231 0.09731,0.2218 0.09981,0.2204 0.10229,0.2191 0.10475,0.2177 0.1072,0.2162 0.10963,0.2149 0.11204,0.2133 0.11443,0.212 0.1168,0.2104 0.11916,0.2089 0.12151,0.2074 0.12382,0.2059 0.12612,0.2044 0.1284,0.2027 0.13067,0.2011 0.13291,0.1995 0.13516,0.1979 0.13736,0.1963 0.13954,0.1945 0.14173,0.193 0.14389,0.1912 0.14603,0.1895 0.14814,0.1878 0.15026,0.1859 0.15234,0.1842 0.15439,0.1825 0.15645,0.1807 0.15849,0.1787 0.1605,0.177 L 5.4417,34.6872 5.42095,34.5686 5.40084,34.4497 5.38138,34.3306 5.36256,34.2113 5.34441,34.0918 5.32691,33.9721 5.31008,33.8523 5.29391,33.7321 5.2784,33.6118 5.26358,33.4913 5.24944,33.3705 5.23599,33.2496 5.22321,33.1285 5.21114,33.0071 5.19976,32.8856 5.18909,32.7639 5.17912,32.642 5.16987,32.5198 5.16133,32.3976 5.15351,32.275 5.14641,32.1523 5.14003,32.0294 5.1344,31.9064 5.1295,31.783 5.12534,31.6596 5.12193,31.5359 5.11927,31.4121 5.11736,31.288 5.11621,31.1638 Z"
         style="fill:url(#Grad300);fill-rule:evenodd;stroke:none"
         transform="rotate(-90,24.57913,18.13967)"
         id="path5503" />
      <path
         d="M 0.601141,4.47403 0.511097,4.37791 0.428449,4.27713 0.353172,4.172 0.285237,4.06284 0.22462,3.94991 0.171295,3.83356 0.125236,3.71404 0.0864159,3.59169 0.0548096,3.4668 0.0303909,3.33966 0.0131338,3.21058 0.00301212,3.07987 0,2.94781 0.00407139,2.81472 0.0152002,2.6809 0.0333606,2.54664 0.0585264,2.41225 0.0906716,2.27802 0.12977,2.14426 0.175796,2.01128 0.228724,1.87935 0.288526,1.74881 0.355179,1.61994 0.428655,1.49305 0.508927,1.36843 0.595972,1.24639 0.689761,1.12722 0.790269,1.01123 0.897471,0.898724 1.01001,0.791403 1.12602,0.690785 1.24522,0.596898 1.36732,0.509765 1.49198,0.429411 1.61892,0.355861 1.74784,0.289139 1.87844,0.229271 2.01041,0.17628 2.14344,0.130192 2.27725,0.0910311 2.41154,0.0588223 2.54598,0.03359 2.68029,0.0153591 2.81417,0.00415419 2.94731,0 3.0794,0.00292121 3.21016,0.0129425 3.33928,0.0300886 3.46645,0.0543842 3.59138,0.0858539 3.71376,0.124522 3.83329,0.170415 3.94966,0.223555 4.06259,0.283968 4.17177,0.35168 4.27689,0.426712 4.37765,0.509093 4.47376,0.598844 4.56367,0.694979 4.64622,0.795777 4.72141,0.900942 4.78928,1.01017 4.84986,1.12315 4.90316,1.23959 4.94921,1.35919 4.98802,1.48164 5.01964,1.60665 5.04408,1.73389 5.06136,1.86309 5.07152,1.99392 5.07457,2.1261 5.07054,2.25931 5.05945,2.39326 5.04134,2.52765 5.01621,2.66216 4.98409,2.79651 4.94502,2.93039 4.89901,3.06349 4.84609,3.19551 4.78628,3.32615 4.71961,3.45511 4.6461,3.58208 4.56578,3.70676 4.47865,3.82887 4.38477,3.94807 4.28415,4.06408 4.17681,4.17659 4.06441,4.28393 3.94853,4.38455 3.82942,4.47846 3.70742,4.56561 3.58283,4.64599 3.45594,4.71956 3.32706,4.78631 3.1965,4.84621 3.06455,4.89921 2.93152,4.94531 2.79771,4.98448 2.66342,5.0167 2.52896,5.04191 2.39463,5.06013 2.26073,5.0713 2.12757,5.07541 1.99544,5.07243 1.86465,5.06233 1.73552,5.04508 1.60832,5.02068 1.48338,4.98907 1.36099,4.95024 1.24145,4.90416 1.12507,4.85081 1.01215,4.79016 0.902997,4.72218 0.797908,4.64685 0.697188,4.56415 Z"
         style="fill:url(#Grad301);fill-rule:evenodd;stroke:none"
         transform="rotate(-90,27.20465,11.68955)"
         id="path5505" />
      <path
         d="M 4.47405,4.47378 C 3.56829,5.38003 1.96852,5.24551 0.898753,4.17684 -0.171023,3.10682 -0.304439,1.50534 0.598873,0.601166 1.50463,-0.304349 3.10684,-0.17179 4.17662,0.896762 5.24639,1.96825 5.38103,3.56827 4.47405,4.47378"
         style="fill:#d8d6c4;fill-rule:nonzero;stroke:none"
         transform="translate(15.5151,33.3249)"
         id="path5507" />
      <path
         d="M 0.712978,1.79719 0.630498,1.92525 0.553176,2.05488 0.48099,2.1859 0.413925,2.31817 0.351962,2.45155 0.295084,2.58586 0.243275,2.72095 0.196514,2.85668 0.154786,2.99289 0.118071,3.12941 0.0863539,3.26611 0.059616,3.40282 0.0378398,3.53939 0.0210078,3.67567 0.00910214,3.8115 0.00210543,3.94673 0,4.0812 0.00276826,4.21475 0.0103926,4.34724 0.0228554,4.47851 0.0401391,4.60841 0.0622261,4.73677 0.0890988,4.86345 0.120739,4.9883 0.157131,5.11115 0.198255,5.23187 0.244094,5.35026 0.294631,5.46621 0.349847,5.57956 0.409728,5.69013 0.474252,5.79779 0.543403,5.90239 0.617164,6.00374 0.695517,6.10173 0.778446,6.19617 0.86593,6.28692 0.957954,6.37383 1.0545,6.45675 1.15555,6.5355 1.26109,6.60995 1.37732,6.68275 1.49605,6.74904 1.61709,6.80888 1.74028,6.86232 1.86547,6.90942 1.99249,6.95023 2.12114,6.9848 2.25129,7.0132 2.38275,7.03545 2.51537,7.05165 2.64897,7.06181 2.78339,7.06601 2.91846,7.06429 3.054,7.05671 3.07742,6.92893 3.1016,6.80141 3.12657,6.67418 3.15231,6.54722 3.17883,6.42054 3.2061,6.29415 3.23414,6.16804 3.26294,6.04221 3.2925,5.91668 3.32282,5.79144 3.35388,5.66651 3.38571,5.54187 3.41828,5.41752 3.45159,5.29348 3.48566,5.16976 3.52046,5.04634 3.556,4.92323 3.59228,4.80044 3.62928,4.67797 3.66703,4.55581 3.7055,4.43399 3.74469,4.31248 3.78461,4.19131 3.82524,4.07047 3.8666,3.94996 3.90867,3.82979 3.95146,3.70996 3.99495,3.59047 4.03915,3.47133 4.08406,3.35252 4.12968,3.23408 4.17598,3.11599 4.223,2.99825 4.2707,2.88087 4.31909,2.76384 4.36817,2.64719 4.41794,2.5309 4.46841,2.41498 4.51955,2.29943 4.57136,2.18425 4.62386,2.06945 4.67703,1.95505 4.73087,1.84101 4.78537,1.72736 4.84055,1.6141 4.89639,1.50122 4.9529,1.38875 5.01006,1.27667 5.06789,1.16499 5.12636,1.05371 5.18548,0.94283 5.24526,0.83236 5.30567,0.7223 5.36674,0.612651 5.42844,0.503418 5.39853,0.479856 5.36797,0.45813 5.25316,0.385506 5.13584,0.319311 5.01618,0.259495 4.89437,0.206009 4.77056,0.158803 4.64495,0.117827 4.51769,0.083031 4.38896,0.0543646 4.25896,0.0317782 4.12783,0.0152219 3.99576,0.00464584 3.86293,0 3.7295,0.0012345 3.59567,0.00829943 3.46159,0.0211448 3.32746,0.0397209 3.19342,0.0639775 3.05966,0.0938649 2.92636,0.129333 2.79371,0.170332 2.66185,0.216812 2.53097,0.268723 2.40126,0.326015 2.27287,0.388638 2.14598,0.456543 2.02078,0.52968 1.89743,0.607998 1.77611,0.691446 1.657,0.779977 1.54027,0.873538 1.42608,0.972082 1.31462,1.07556 1.20608,1.18392 1.1006,1.29711 0.998383,1.41508 0.899589,1.53778 0.804394,1.66517 Z"
         style="fill:url(#Grad302);fill-rule:evenodd;stroke:none"
         transform="rotate(-90,33.75935,7.03365)"
         id="path5509" />
      <path
         d="M 0.438777,3.27495 0.349306,3.17682 0.270127,3.07239 0.201193,2.9622 0.142452,2.84688 0.0938595,2.72696 0.0553662,2.60306 0.026924,2.47572 0.00848455,2.34554 0,2.2131 0.00142212,2.07899 0.0127028,1.94376 0.0337938,1.80801 0.0646472,1.6723 0.105215,1.53723 0.155448,1.40336 0.215299,1.2713 0.284721,1.14159 0.363663,1.01484 0.45208,0.891604 0.54992,0.772477 0.657139,0.658033 0.771573,0.550788 0.890706,0.452902 1.01396,0.364428 1.14075,0.285414 1.2705,0.215911 1.40263,0.155973 1.53655,0.105647 1.67169,0.0649861 1.80748,0.0340401 1.94332,0.0128598 2.07865,0.00149627 2.21286,0 2.34539,0.00842182 2.47566,0.0268125 2.60309,0.0552227 2.72711,0.0937033 2.84711,0.142305 2.96255,0.201079 3.0728,0.270074 3.17732,0.349344 3.27552,0.438937 3.3648,0.537077 3.44381,0.64156 3.5126,0.751804 3.57123,0.867224 3.61974,0.987237 3.65816,1.11126 3.68655,1.23871 3.70497,1.369 3.71344,1.50155 3.71204,1.63578 3.70079,1.77109 3.67974,1.90691 3.64893,2.04266 3.60843,2.17774 3.55827,2.31159 3.4985,2.44361 3.42917,2.5732 3.35032,2.69981 3.26201,2.82285 3.16427,2.94172 3.05716,3.05585 2.94272,3.16309 2.82357,3.26096 2.7003,3.34939 2.57348,3.42836 2.4437,3.49781 2.31155,3.5577 2.17758,3.60796 2.0424,3.64857 1.90659,3.67945 1.77071,3.70059 1.63537,3.7119 1.50113,3.71337 1.36858,3.70493 1.23831,3.68653 1.11088,3.65812 0.986884,3.61967 0.866907,3.57112 0.751525,3.51241 0.641322,3.44353 0.536879,3.36438 Z"
         style="fill:url(#Grad303);fill-rule:evenodd;stroke:none"
         transform="rotate(-90,22.32885,8.34905)"
         id="path5511" />
      <path
         d="M 3.27555,3.27457 C 2.61214,3.93626 1.44199,3.83797 0.658636,3.05633 -0.124724,2.2737 -0.223868,1.10172 0.43954,0.438558 c 0.66341,-0.66096 1.836,-0.564142 2.61691,0.218362 0.78336,0.78189 0.88128,1.95448 0.2191,2.61765"
         style="fill:#e2e0d3;fill-rule:nonzero;stroke:none"
         transform="translate(13.9792,26.5344)"
         id="path5513" />
      <path
         d="M 0.225713,1.69854 0.134387,1.58791 0.066475,1.46419 0.0217544,1.33021 0,1.18876 9.87034e-4,1.04264 0.0244908,0.894646 0.0702865,0.747579 0.138149,0.604235 0.227855,0.467413 0.339178,0.33991 0.466416,0.228655 0.602966,0.13889 0.746046,0.0708769 0.892875,0.0248815 1.04067,0.0011677 1.18664,0 1.32802,0.0216428 1.46201,0.0663604 1.58584,0.134417 1.69672,0.226078 1.78815,0.337322 1.85606,0.461389 1.90071,0.595532 1.92235,0.737005 1.92126,0.88306 1.89769,1.03095 1.85191,1.17793 1.7842,1.32126 1.6948,1.45818 1.58399,1.58594 1.45674,1.69679 1.3201,1.78613 1.17687,1.85371 1.02987,1.89931 0.881899,1.9227 0.735764,1.92365 0.594269,1.90194 0.460225,1.85733 0.336437,1.78962 Z"
         style="fill:url(#Grad304);fill-rule:evenodd;stroke:none"
         transform="rotate(-90,18.0687,7.8051)"
         id="path5515" />
      <path
         d="M 1.70083,1.6994 C 1.35689,2.0431 0.748559,1.99279 0.342191,1.58667 -0.0641768,1.18043 -0.116809,0.571976 0.228359,0.228277 0.574751,-0.1153 1.18063,-0.0657282 1.58823,0.34113 1.99337,0.747376 2.04355,1.35595 1.70083,1.6994"
         style="fill:#e2e0d3;fill-rule:nonzero;stroke:none"
         transform="translate(10.2613,23.7252)"
         id="path5517" />
      <path
         d="M 1.79743,4.71485 C 3.4939,5.84974 5.64691,5.60359 6.6102,4.16527 6.96516,3.631 7.10592,3.00565 7.05696,2.37383 4.71178,1.95093 2.50246,1.13783 0.503664,0 0.487752,0.0211752 0.47184,0.0386784 0.458376,0.0589968 -0.502464,1.49744 0.0960713,3.58142 1.79743,4.71485"
         style="fill:#d8d6c4;fill-rule:nonzero;stroke:none"
         transform="translate(26.7254,34.8943)"
         id="path5519" />
    </g>
  </g>
</svg>
