<?xml version="1.0" encoding="UTF-8" standalone="no"?>
<svg
   width="47.626282pt"
   height="40.800217pt"
   version="1.1"
   viewBox="0 0 47.626282 40.800217"
   id="svg6053"
   sodipodi:docname="Weather Icons-page001.svg"
   xmlns:inkscape="http://www.inkscape.org/namespaces/inkscape"
   xmlns:sodipodi="http://sodipodi.sourceforge.net/DTD/sodipodi-0.dtd"
   xmlns="http://www.w3.org/2000/svg"
   xmlns:svg="http://www.w3.org/2000/svg">
  <sodipodi:namedview
     id="namedview6055"
     pagecolor="#ffffff"
     bordercolor="#000000"
     borderopacity="0.25"
     inkscape:showpageshadow="2"
     inkscape:pageopacity="0.0"
     inkscape:pagecheckerboard="0"
     inkscape:deskcolor="#d1d1d1"
     inkscape:document-units="pt"
     showgrid="false" />
  <defs
     id="defs2330">
    <clipPath
       id="Clip11">
      <path
         d="M 0,0 H 48.8941 V 43.956 H 0 Z"
         id="path746" />
    </clipPath>
    <linearGradient
       x2="23.339001"
       y2="22.6661"
       id="Grad103"
       x1="0.99115503"
       gradientUnits="userSpaceOnUse"
       y1="22.6661">
      <stop
         offset="0%"
         stop-color="#dceff6"
         stop-opacity="1"
         id="stop749" />
      <stop
         offset="100%"
         stop-color="#3f6e7a"
         stop-opacity="1"
         id="stop751" />
    </linearGradient>
    <linearGradient
       x2="3.9684899"
       y2="1.31815"
       id="Grad104"
       x1="0.18983001"
       gradientUnits="userSpaceOnUse"
       y1="1.31815">
      <stop
         offset="0%"
         stop-color="#8cd0f2"
         stop-opacity="1"
         id="stop754" />
      <stop
         offset="90.303%"
         stop-color="#63bae9"
         stop-opacity="1"
         id="stop756" />
      <stop
         offset="100%"
         stop-color="#63bae9"
         stop-opacity="1"
         id="stop758" />
    </linearGradient>
    <linearGradient
       x2="5.0141602"
       y2="1.66572"
       id="Grad105"
       x1="0.240097"
       gradientUnits="userSpaceOnUse"
       y1="1.66572">
      <stop
         offset="0%"
         stop-color="#8cd0f2"
         stop-opacity="1"
         id="stop761" />
      <stop
         offset="90.303%"
         stop-color="#63bae9"
         stop-opacity="1"
         id="stop763" />
      <stop
         offset="100%"
         stop-color="#63bae9"
         stop-opacity="1"
         id="stop765" />
    </linearGradient>
    <linearGradient
       x2="5.0150199"
       y2="1.66562"
       id="Grad106"
       x1="0.240097"
       gradientUnits="userSpaceOnUse"
       y1="1.66562">
      <stop
         offset="0%"
         stop-color="#8cd0f2"
         stop-opacity="1"
         id="stop768" />
      <stop
         offset="90.303%"
         stop-color="#63bae9"
         stop-opacity="1"
         id="stop770" />
      <stop
         offset="100%"
         stop-color="#63bae9"
         stop-opacity="1"
         id="stop772" />
    </linearGradient>
    <linearGradient
       x2="5.0145798"
       y2="1.66688"
       id="Grad107"
       x1="0.23994"
       gradientUnits="userSpaceOnUse"
       y1="1.66688">
      <stop
         offset="0%"
         stop-color="#8cd0f2"
         stop-opacity="1"
         id="stop775" />
      <stop
         offset="90.303%"
         stop-color="#63bae9"
         stop-opacity="1"
         id="stop777" />
      <stop
         offset="100%"
         stop-color="#63bae9"
         stop-opacity="1"
         id="stop779" />
    </linearGradient>
    <linearGradient
       x2="5.0145001"
       y2="1.66641"
       id="Grad108"
       x1="0.239583"
       gradientUnits="userSpaceOnUse"
       y1="1.66641">
      <stop
         offset="0%"
         stop-color="#8cd0f2"
         stop-opacity="1"
         id="stop782" />
      <stop
         offset="90.303%"
         stop-color="#63bae9"
         stop-opacity="1"
         id="stop784" />
      <stop
         offset="100%"
         stop-color="#63bae9"
         stop-opacity="1"
         id="stop786" />
    </linearGradient>
    <linearGradient
       x2="5.0143499"
       y2="1.66631"
       id="Grad109"
       x1="0.239702"
       gradientUnits="userSpaceOnUse"
       y1="1.66631">
      <stop
         offset="0%"
         stop-color="#8cd0f2"
         stop-opacity="1"
         id="stop789" />
      <stop
         offset="90.303%"
         stop-color="#63bae9"
         stop-opacity="1"
         id="stop791" />
      <stop
         offset="100%"
         stop-color="#63bae9"
         stop-opacity="1"
         id="stop793" />
    </linearGradient>
  </defs>
  <g
     inkscape:groupmode="layer"
     id="Background"
     inkscape:label="Background"
     transform="translate(-389.60202,-151.73775)">
    <g
       id="rainy_cloud"
       style="fill:none;stroke:none"
       clip-path="url(#Clip11)"
       clip-rule="evenodd"
       transform="translate(389.602,148.582)">
      <path
         d="m 28.9979,23.9554 c -1.3109,0 -2.3317,-0.0442 -2.9584,-0.0813 C 25.3369,23.833 24.425,23.8013 23.3675,23.7644 15.4874,23.4898 0.820233,22.9786 0.00872156,16.485 l -0.004896,-0.0344 -0.001224,-0.0347 C -0.156519,11.8117 7.02714,10.0898 9.58653,9.62382 9.03206,7.11683 9.24258,3.0119 13.2254,1.02045 14.5596,0.352634 16.1386,0 17.7897,0 c 2.9939,0 5.9842,1.16072 7.7063,2.94225 0.0392,-0.02827 0.0796,-0.05716 0.12,-0.08592 1.0783,-0.77602 2.5569,-1.83796 4.7773,-1.83796 0.5361,0 1.0942,0.06377 1.6597,0.18972 2.5937,0.57601 3.5092,2.69843 3.7038,4.22659 2.4125,0.01775 9.8924,0.73085 11.6856,8.65112 0.4431,1.954 0.0844,3.6737 -1.0637,5.1117 -3.3072,4.1397 -12.3085,4.7579 -17.3808,4.7579"
         style="fill:#738a92;fill-rule:nonzero;stroke:none"
         transform="translate(0,3.15575)"
         id="path2687" />
      <path
         d="m 12.0422,36.7505 -0.0042,0.0023 -0.0123,0.0069 -0.0203,0.011 -0.0281,0.0149 -0.0357,0.0186 -0.0431,0.0222 -0.0504,0.0252 -0.0575,0.0281 -0.0643,0.0309 -0.0711,0.0331 -0.0775,0.0354 -0.0839,0.0374 -0.0901,0.0388 -0.096,0.0402 -0.1018,0.0414 -0.1074,0.0421 -0.1128,0.0428 -0.1181,0.0431 -0.1231,0.0432 -0.128,0.043 -0.1327,0.0426 -0.1372,0.0417 -0.1415,0.0409 -0.1457,0.0397 -0.14959,0.0382 -0.15339,0.0364 -0.15698,0.0344 -0.16039,0.0322 -0.16363,0.0296 -0.16666,0.0268 -0.16952,0.0239 -0.17219,0.0206 -0.1747,0.017 -0.17701,0.0132 -0.17913,0.0091 -0.18108,0.0047 -0.18285,3e-4 L 7.68786,37.7977 7.50204,37.7879 7.315,37.7729 7.12694,37.7522 6.93802,37.7255 6.74844,37.6928 6.55838,37.6537 6.36802,37.6079 6.17754,37.5551 5.98712,37.4953 5.79696,37.4278 5.60723,37.3529 5.41811,37.2699 5.2298,37.1788 5.04245,37.0791 4.85628,36.9707 4.67146,36.8534 4.48815,36.7267 4.30657,36.5906 4.12688,36.4448 3.94926,36.2889 3.77391,36.1228 3.601,35.9461 3.43071,35.7585 3.26325,35.56 3.09876,35.3502 2.97225,35.178 2.85037,35.0027 2.73309,34.8244 2.62041,34.6431 2.5123,34.459 2.40872,34.2722 2.30964,34.0829 2.21506,33.8911 2.12493,33.6971 2.03923,33.5009 1.95795,33.3026 1.88104,33.1023 1.8085,32.9004 1.74027,32.6968 1.67637,32.4917 1.61673,32.2851 1.56135,32.0772 1.5102,31.8683 1.46324,31.6583 1.42048,31.4474 1.38185,31.2357 1.34735,31.0234 1.31695,30.8107 1.29063,30.5974 1.26836,30.384 1.2501,30.1704 1.23584,29.9568 1.22555,29.7433 1.21921,29.5302 1.21679,29.3174 1.21826,29.1051 1.2236,28.8934 l 0.00918,-0.2109 0.01299,-0.2099 0.0168,-0.209 0.02056,-0.2078 0.02429,-0.2066 0.02801,-0.2052 0.03169,-0.2035 0.03536,-0.202 0.039,-0.2002 0.04261,-0.1982 0.04619,-0.1962 0.04976,-0.194 L 1.63333,26.2581 1.69012,26.0688 1.75039,25.8821 1.81414,25.698 1.8813,25.5167 1.95188,25.3384 2.02583,25.1631 2.10313,24.991 2.18376,24.8222 2.2677,24.657 2.35491,24.4952 2.44538,24.3372 2.53908,24.1829 2.63597,24.0328 2.73603,23.8866 2.83925,23.7446 2.94559,23.607 3.05503,23.4739 3.16753,23.3454 3.10721,23.2806 3.04464,23.2152 2.97995,23.1491 2.91329,23.0824 2.8448,23.0149 2.77458,22.9465 2.70279,22.877 2.62954,22.8067 2.555,22.7352 2.47927,22.6626 2.4025,22.5888 2.32482,22.5136 2.24636,22.4371 2.16725,22.3593 2.08764,22.28 2.00764,22.1991 1.92741,22.1165 1.84705,22.0322 1.76672,21.9463 1.68655,21.8584 1.60666,21.7687 1.5272,21.677 1.44829,21.5834 1.37006,21.4876 1.29267,21.3895 1.21621,21.2893 1.14085,21.1868 1.06672,21.0819 0.993935,20.9746 0.922639,20.8647 0.852964,20.7523 0.785044,20.6373 0.719012,20.5195 0.654999,20.3988 0.593142,20.2754 0.533571,20.1491 0.476421,20.0197 0.421826,19.8874 0.369917,19.7519 0.32083,19.6133 0.274696,19.4713 0.231648,19.326 0.191822,19.1773 0.155349,19.0251 0.122363,18.8696 0.0929976,18.7102 0.0673854,18.5473 0.04566,18.3806 0.0279547,18.2102 0.0144028,18.0358 0.0051375,17.8574 2.92144e-4,17.6752 0,17.4888 0.00439436,17.2983 0.0226917,17.0157 0.0565971,16.747 0.105147,16.4918 l 0.06223,-0.242 0.074948,-0.2291 0.086701,-0.2168 0.097491,-0.2045 0.10732,-0.1927 0.11618,-0.1812 0.124081,-0.1702 0.131017,-0.1592 0.136985,-0.1489 0.142,-0.1386 0.14605,-0.1289 0.14912,-0.1195 0.15124,-0.1103 0.15241,-0.1016 0.15258,-0.0931 0.15182,-0.085 0.15008,-0.0772 0.14738,-0.0698 0.14372,-0.0627 0.13909,-0.056 0.1335,-0.0496 0.12695,-0.0434 0.11943,-0.0377 0.11095,-0.0323 0.10151,-0.0273 0.09109,-0.0225 0.07973,-0.0182 0.06739,-0.014 0.05409,-0.0104 0.03983,-0.007 0.0246,-0.0039 L 3.62508,13.4369 3.6232,13.43 3.61775,13.4092 3.60907,13.375 3.59748,13.3278 3.58331,13.2678 3.56687,13.1956 3.54849,13.1114 3.52847,13.0155 3.50718,12.9084 3.48491,12.7906 3.46199,12.6622 3.43874,12.5235 3.4155,12.3751 3.39256,12.2174 3.37028,12.0506 3.34896,11.875 3.32893,11.6912 3.31052,11.4993 3.29403,11.2999 3.27981,11.0932 3.26817,10.8796 3.25943,10.6596 3.25392,10.4333 3.25197,10.2013 3.25388,9.96383 3.26,9.7213 3.27064,9.47407 3.28612,9.2225 3.30677,8.96694 3.33292,8.70778 3.36486,8.44537 3.40295,8.18005 3.44749,7.91222 3.49883,7.64223 3.55726,7.37043 3.62314,7.09719 3.69675,6.82287 3.77845,6.54785 3.86854,6.27247 3.96735,5.99711 4.07521,5.72213 4.19243,5.44789 4.31936,5.17474 4.45629,4.90306 4.60355,4.63321 4.76148,4.36554 4.93039,4.10044 5.11062,3.83824 5.30247,3.57933 5.50627,3.32405 5.72235,3.07279 5.95103,2.82589 6.19262,2.58372 6.44747,2.34664 6.71588,2.11502 6.99818,1.88922 7.29471,1.6696 7.60576,1.45651 7.93169,1.25035 8.2728,1.05145 8.6294,0.860181 9.00185,0.67691 9.39044,0.501997 9.78346,0.346457 10.1691,0.220661 10.5474,0.123865 10.9185,0.0553199 11.2823,0.0142807 11.639,0 l 0.3496,0.0117313 0.3425,0.0369968 0.3355,0.0615149 0.3285,0.085287 0.3217,0.108313 0.3148,0.130591 0.3079,0.152124 0.3013,0.172908 0.2946,0.192948 0.288,0.212236 0.2812,0.23078 0.275,0.24859 0.2683,0.26564 0.2619,0.28194 0.2556,0.2975 0.2492,0.31231 0.2429,0.32638 0.2368,0.33969 0.2306,0.35227 0.2244,0.36409 0.2185,0.37517 0.2125,0.38551 0.2065,0.39508 0.2005,0.40393 0.1949,0.41203 0.1888,0.41936 0.1833,0.42597 0.1776,0.43181 0.1718,0.43692 0.1663,0.44128 0.1609,0.44489 0.1553,0.44776 0.1499,0.44988 0.1446,0.45127 0.1393,0.4518 0.1339,0.4518 0.1288,0.4509 0.1236,0.4493 0.1185,0.4469 0.1134,0.4437 0.1086,0.4401 0.1034,0.4352 0.0987,0.43 0.0939,0.424 0.0889,0.417 0.0844,0.4094 0.0795,0.4013 0.0751,0.392 0.0704,0.3823 0.0658,0.3716 0.0614,0.3603 0.0571,0.3482 0.0526,0.3355 0.0484,0.322 0.044,0.3075 0.0399,0.2926 0.0358,0.2766 0.0358,0.2782 0.0402,0.2967 0.044,0.3147 0.0477,0.332 0.051,0.3484 0.0539,0.3643 0.0566,0.3794 0.059,0.3939 0.061,0.4076 0.0627,0.4207 0.0641,0.4329 0.0652,0.4446 0.066,0.4556 0.0665,0.4657 0.0664,0.4753 0.0665,0.4841 0.0658,0.4923 0.0652,0.4996 0.064,0.5064 0.0625,0.5124 0.0609,0.5178 0.0586,0.5224 0.0564,0.5263 0.0536,0.5296 0.0507,0.5321 0.0472,0.5339 0.0437,0.535 0.0397,0.5355 0.0354,0.5353 0.0308,0.5341 0.026,0.5326 0.0206,0.5302 0.0152,0.5271 0.0093,0.5234 0.0031,0.5188 -0.0033,0.5137 -0.0102,0.5079 -0.0172,0.5012 -0.0248,0.494 -0.0324,0.4859 -0.0405,0.4774 -0.0488,0.4679 -0.0576,0.4579 -0.0666,0.4472 -0.0758,0.4356 -0.0856,0.4235 -0.0956,0.4105 -0.1058,0.3971 -0.1162,0.3827 -0.1273,0.3677 -0.1385,0.3522 -0.15,0.3356 -0.1618,0.3187 -0.1741,0.3008 -0.1865,0.2823 -0.1993,0.2633 -0.2124,0.2433 -0.2258,0.2227 -0.2395,0.2015 -0.2536,0.1795 -0.2681,0.1568 -0.2826,0.1334 -0.2977,0.1093 -0.224,0.042 -0.2214,0.0265 -0.219,0.0112 -0.2163,-0.0032 -0.2137,-0.0173 -0.211,-0.0309 -0.2084,-0.0441 -0.2057,-0.0566 -0.2029,-0.0689 -0.2,-0.0805 L 17.5441,44.9398 17.3496,44.8373 17.158,44.7247 16.9694,44.6024 16.7839,44.4709 16.6012,44.3305 16.4216,44.1819 16.2451,44.0254 16.0716,43.8617 15.9012,43.691 15.7342,43.5142 15.5703,43.3313 15.4095,43.1432 15.2521,42.95 15.098,42.7526 14.9472,42.5511 14.7999,42.3462 14.6559,42.1384 14.5154,41.928 14.3785,41.7156 14.2449,41.5018 14.115,41.287 13.9887,41.0716 13.866,40.856 13.747,40.641 13.6316,40.4268 13.5199,40.2139 13.4121,40.003 13.3081,39.7944 13.2078,39.5887 13.1115,39.3862 13.0191,39.1876 12.9306,38.9932 12.846,38.8036 12.7656,38.6193 12.6891,38.4407 12.6167,38.2684 12.5484,38.1028 12.4843,37.9442 12.4245,37.7934 12.3686,37.6507 12.3172,37.5167 12.2701,37.3917 12.2272,37.2764 12.1888,37.1713 12.1547,37.0766 12.125,36.993 12.0999,36.921 12.0792,36.8609 12.063,36.8133 12.0515,36.7788 12.0445,36.7577 Z"
         style="fill:url(#Grad103);fill-rule:evenodd;stroke:none"
         transform="rotate(100.513,21.00836,24.463235)"
         id="path2689" />
      <path
         d="m 0,14.2341 c 2.89109,-2.8066 11.0417,-3.2603 11.0417,-3.2603 0,0 -3.09304,-7.01062 1.9817,-9.54859 4.0135,-2.006993 8.8935,0.43832 11.0637,3.27628 1.3354,-0.83513 3.011,-3.26147 6.3978,-2.50895 3.2987,0.73342 2.1323,4.51595 2.1323,4.51595 0,0 10.9168,-0.69254 12.9205,8.15381 0.0906,0.3999 0.142,0.7798 0.1603,1.1422 0.1751,-0.7526 0.1763,-1.5896 -0.0355,-2.522 C 43.6601,4.63625 33.9966,5.45389 33.9966,5.45389 c 0,0 0.164,-3.53137 -3.1359,-4.26442 C 27.4739,0.43683 25.6734,2.36096 24.338,3.19622 22.1691,0.358126 16.5607,-1.06894 12.5472,0.938302 7.4713,3.47615 9.53863,9.47607 9.53863,9.47607 c 0,0 -8.01353,1.04643 -9.53863,4.75803"
         style="fill:#dbeff8;fill-rule:nonzero;stroke:none"
         transform="translate(1.02464,3.92982)"
         id="path2691" />
      <path
         d="M 1.4023,4.90714 C 0.539378,4.76711 -0.0493669,3.9911 0.00326511,3.06282 0.0632411,2.02315 1.56264,0.496087 1.73278,0.325462 L 2.05836,0 2.29215,0.396698 C 2.42067,0.615427 3.5443,2.56281 3.31786,3.58302 3.111,4.51191 2.32397,5.05659 1.4023,4.90714"
         style="fill:#2489ca;fill-rule:nonzero;stroke:none"
         transform="translate(35.2848,19.2897)"
         id="path2693" />
      <path
         d="M 3.07447,0.124504 3.25398,0.224196 3.41132,0.340185 3.54607,0.470736 3.65778,0.614114 3.74597,0.768584 3.81023,0.932414 3.8501,1.10387 3.86513,1.28121 3.85489,1.46272 3.81892,1.64663 3.75677,1.83125 3.67085,2.0054 3.56516,2.15893 3.44179,2.29157 3.30292,2.40309 3.15062,2.49324 2.98706,2.56178 2.81436,2.60847 2.63464,2.63304 2.45002,2.63528 2.26265,2.61493 2.07463,2.57175 1.93812,2.52061 1.7985,2.44776 1.65687,2.35583 1.51431,2.24747 1.37192,2.12528 1.23081,1.99191 1.09204,1.85 0.956729,1.70216 0.825961,1.55102 0.700829,1.39923 0.582427,1.24941 0.471848,1.10418 0.370185,0.966193 0.278531,0.838065 0.197978,0.722432 0.129622,0.621924 0.0745514,0.539171 0.0338626,0.476804 0.00864783,0.437455 0,0.423754 0.011359,0.420225 0.044389,0.41016 0.0975189,0.394346 0.169178,0.373566 0.257796,0.348607 0.361801,0.320253 0.479623,0.28929 0.609692,0.256503 0.750436,0.222676 0.900283,0.188596 1.05766,0.155048 1.22101,0.122815 1.38875,0.0926837 1.5593,0.0654394 1.73112,0.0418672 1.9026,0.0227518 2.0722,0.00887876 2.23833,0.0010331 2.39943,0 2.55394,0.00656462 2.70025,0.0215122 2.83684,0.0456277 2.96209,0.0796965 Z"
         style="fill:url(#Grad104);fill-rule:evenodd;stroke:none"
         transform="rotate(76.9822,6.409057,33.580214)"
         id="path2695" />
      <path
         d="M 1.77168,6.20017 C 0.681095,6.02318 -0.0630977,5.04276 0.00422226,3.86906 0.0788863,2.55645 1.97241,0.626688 2.18784,0.411142 L 2.5991,0 2.89409,0.501228 C 3.05688,0.777362 4.47672,3.23772 4.1903,4.52721 3.92959,5.70066 2.93448,6.38867 1.77168,6.20017"
         style="fill:#2489ca;fill-rule:nonzero;stroke:none"
         transform="translate(27.6216,19.6428)"
         id="path2697" />
      <path
         d="m 3.88469,0.157251 0.16899,0.090277 0.154,0.101678 0.13883,0.11221 0.1234,0.121879 0.10778,0.130678 0.09192,0.138612 0.07583,0.145676 0.05952,0.151879 0.043,0.1572 L 4.87421,1.46902 4.88348,1.6343 4.87555,1.8023 4.8502,1.97217 4.8072,2.14304 4.74634,2.31403 4.66324,2.48907 4.56437,2.64806 4.451,2.79088 4.32445,2.91736 4.18602,3.02733 4.03702,3.12065 3.87875,3.19717 3.7125,3.25673 3.5396,3.29919 3.36134,3.32437 3.17901,3.33213 2.99394,3.32233 2.80742,3.29478 2.62076,3.24935 2.48843,3.20225 2.35361,3.13846 2.21691,3.05951 2.07898,2.96689 1.94041,2.86213 1.80186,2.74673 1.66395,2.62221 1.52732,2.49009 1.39257,2.35188 1.26034,2.20908 1.13126,2.06321 1.00597,1.91579 0.885072,1.76834 0.769212,1.62235 0.659013,1.47934 0.555102,1.34083 0.458109,1.20834 0.368659,1.08337 0.287382,0.96743 0.214904,0.862042 0.151856,0.768717 0.0988614,0.688969 0.0565512,0.624307 0.0255525,0.576247 0.00649274,0.546302 0,0.535983 0.00922788,0.53311 0.0362341,0.524823 0.0800024,0.511632 0.139516,0.494046 0.213761,0.472572 0.301718,0.447717 0.402373,0.41999 0.514709,0.389897 0.63771,0.357948 0.77036,0.324649 0.911644,0.290508 1.06054,0.256034 1.21604,0.221734 1.37712,0.188114 1.54278,0.155685 1.71198,0.124953 1.88372,0.0964255 2.05698,0.0706108 2.23074,0.0480167 2.40398,0.0291508 2.57571,0.0145208 2.74488,0.00463468 2.91049,0 3.07153,0.0011246 3.22697,0.00851622 3.3758,0.0226827 3.517,0.0441317 3.64956,0.073371 3.77247,0.110908 Z"
         style="fill:url(#Grad105);fill-rule:evenodd;stroke:none"
         transform="rotate(76.9703,2.5881116,29.402305)"
         id="path2699" />
      <path
         d="M 1.77276,6.19993 C 0.682172,6.02281 -0.0620203,5.04288 0.00407568,3.86943 0.0799637,2.55608 1.97349,0.626688 2.18892,0.411142 L 2.60018,0 2.89516,0.501106 C 3.05796,0.777607 4.4778,3.23785 4.19138,4.52758 3.93067,5.7009 2.93678,6.38879 1.77276,6.19993"
         style="fill:#2489ca;fill-rule:nonzero;stroke:none"
         transform="translate(21.0574,28.2799)"
         id="path2701" />
      <path
         d="M 3.88565,0.157372 4.05454,0.247629 4.20847,0.349287 4.34722,0.461482 4.47057,0.583346 4.5783,0.714014 4.67018,0.852618 4.746,0.99829 4.80551,1.15016 4.84852,1.30738 4.87479,1.46906 4.8841,1.63433 4.87623,1.80235 4.85096,1.97224 4.80804,2.14313 4.7473,2.31416 4.6641,2.48916 4.56512,2.64814 4.45166,2.79093 4.32503,2.91738 4.18652,3.02734 4.03745,3.12065 3.87914,3.19716 3.71286,3.25672 3.53995,3.29917 3.3617,3.32436 3.17943,3.33213 2.99442,3.32234 2.808,3.29481 2.62147,3.24943 2.48909,3.2023 2.35422,3.13851 2.21747,3.05953 2.07948,2.9669 1.94088,2.86213 1.80229,2.74673 1.66435,2.6222 1.52766,2.49007 1.39288,2.35184 1.26061,2.20904 1.1315,2.06317 1.00617,1.91574 0.885252,1.76828 0.769365,1.62229 0.659141,1.47928 0.555209,1.34076 0.458195,1.20826 0.368726,1.08328 0.287433,0.967343 0.214943,0.861953 0.151881,0.768625 0.0988784,0.688873 0.0565608,0.624211 0.0255566,0.57615 0.00649381,0.546204 0,0.535886 0.00922791,0.53301 0.0362343,0.524724 0.0800033,0.511534 0.139519,0.493948 0.213765,0.472474 0.301726,0.44762 0.402385,0.419893 0.514727,0.389802 0.637736,0.357855 0.770395,0.324558 0.91169,0.29042 1.0606,0.255949 1.21612,0.221653 1.37722,0.188038 1.5429,0.155613 1.71212,0.124887 1.8839,0.0963665 2.05719,0.0705593 2.23098,0.0479736 2.40427,0.0291169 2.57603,0.0144972 2.74526,0.00462231 2.91093,0 3.07202,0.00113809 3.22752,0.00854439 3.37642,0.0227267 3.5177,0.0441929 3.65035,0.0734506 3.77333,0.111008 Z"
         style="fill:url(#Grad106);fill-rule:evenodd;stroke:none"
         transform="rotate(76.9704,-6.1253179,29.592946)"
         id="path2703" />
      <path
         d="M 1.77168,6.19993 C 0.681095,6.02294 -0.0630977,5.04215 0.00422226,3.86882 0.0788863,2.55571 1.97241,0.626688 2.18906,0.411142 L 2.60033,0 2.89531,0.500494 C 3.0581,0.776873 4.47794,3.23711 4.1903,4.52696 3.93081,5.70029 2.9357,6.38806 1.77168,6.19993"
         style="fill:#2489ca;fill-rule:nonzero;stroke:none"
         transform="translate(32.2642,28.1562)"
         id="path2705" />
      <path
         d="M 3.88506,0.157274 4.054,0.247763 4.20799,0.349595 4.34678,0.461912 4.47017,0.583858 4.57792,0.714571 4.66983,0.853198 4.74564,0.998877 4.80517,1.15075 4.84817,1.30797 4.87441,1.46966 4.8837,1.63498 4.87578,1.80306 4.85045,1.97304 4.80749,2.14408 4.74666,2.31531 4.66353,2.49009 4.5646,2.64892 4.45119,2.7916 4.3246,2.918 4.18614,3.02793 4.03711,3.12124 3.87882,3.19776 3.71256,3.25732 3.53967,3.29976 3.36142,3.32491 3.17914,3.33262 2.99412,3.32271 2.80767,3.29501 2.62111,3.24938 2.48877,3.2024 2.35392,3.13873 2.21721,3.05985 2.07926,2.96731 1.94068,2.86259 1.80211,2.74724 1.66419,2.62275 1.52753,2.49063 1.39275,2.35242 1.26051,2.2096 1.13142,2.06373 1.0061,1.91627 0.885193,1.76878 0.769317,1.62274 0.659102,1.47969 0.555177,1.34114 0.45817,1.20859 0.368709,1.08357 0.287421,0.967579 0.214933,0.862144 0.151875,0.768776 0.0988748,0.688987 0.056559,0.624294 0.0255559,0.576209 0.00649363,0.546248 0,0.535925 0.00922865,0.53305 0.0362371,0.524763 0.0800091,0.511574 0.139529,0.493989 0.213779,0.472517 0.301744,0.447663 0.402407,0.419937 0.514753,0.389848 0.637765,0.3579 0.770427,0.324605 0.911722,0.290466 1.06063,0.255995 1.21615,0.221698 1.37724,0.188082 1.54291,0.155656 1.71213,0.124928 1.88388,0.0964037 2.05715,0.0705926 2.23094,0.0480021 2.40421,0.0291399 2.57593,0.0145136 2.74513,0.00463108 2.91076,0 3.0718,0.00112814 3.22726,0.00852325 3.37611,0.0226931 3.51732,0.0441453 3.64989,0.0733877 3.77282,0.110928 Z"
         style="fill:url(#Grad107);fill-rule:evenodd;stroke:none"
         transform="rotate(76.9703,-0.44380136,36.579237)"
         id="path2707" />
      <path
         d="M 1.77168,6.19956 C 0.681095,6.02208 -0.0630977,5.04288 0.00422226,3.86906 0.0788863,2.55571 1.97241,0.626688 2.18784,0.41004 L 2.5991,0 2.89531,0.500616 C 3.05688,0.77724 4.47794,3.23748 4.1903,4.52635 3.93081,5.70017 2.9357,6.38806 1.77168,6.19956"
         style="fill:#2489ca;fill-rule:nonzero;stroke:none"
         transform="translate(17.788,37.7255)"
         id="path2709" />
      <path
         d="M 3.88407,0.157906 4.05313,0.248203 4.20721,0.349895 4.34608,0.462119 4.46952,0.584006 4.57733,0.714691 4.66928,0.85331 4.74514,0.998995 4.8047,1.15088 4.84775,1.3081 4.87405,1.46979 4.88339,1.63508 4.87556,1.8031 4.85032,1.973 4.80747,2.1439 4.74678,2.31494 4.66354,2.48993 4.5645,2.6489 4.45099,2.79167 4.32429,2.91811 4.18571,3.02805 4.03658,3.12135 3.87817,3.19785 3.7118,3.25738 3.53878,3.29981 3.36042,3.32496 3.17799,3.33271 2.99284,3.32287 2.80624,3.29531 2.61952,3.24987 2.4873,3.20279 2.35259,3.13901 2.21599,3.06005 2.07813,2.96742 1.93966,2.86263 1.80119,2.74721 1.66335,2.62265 1.52678,2.49049 1.3921,2.35222 1.25994,2.20937 1.13091,2.06346 1.00566,1.91598 0.884816,1.76845 0.768996,1.6224 0.658834,1.47933 0.554957,1.34076 0.457993,1.20821 0.368568,1.08318 0.287314,0.967185 0.214856,0.861747 0.151821,0.768378 0.0988404,0.688589 0.0565396,0.623897 0.0255473,0.575814 0.0064915,0.545854 0,0.535531 0.00922632,0.532655 0.036228,0.524368 0.0799889,0.511177 0.139493,0.49359 0.213725,0.472115 0.301667,0.447262 0.402306,0.419536 0.514622,0.389447 0.637604,0.357503 0.770231,0.324212 0.91149,0.290081 1.06036,0.255619 1.21584,0.221335 1.37689,0.187735 1.54252,0.155328 1.71169,0.124623 1.88341,0.096127 2.05664,0.0703485 2.23037,0.0477955 2.40359,0.0289761 2.57528,0.0143983 2.74443,0.00457023 2.91001,0 3.07102,0.00119567 3.22644,0.00866533 3.37524,0.0229171 3.51643,0.044459 3.64896,0.073799 3.77185,0.111445 Z"
         style="fill:url(#Grad108);fill-rule:evenodd;stroke:none"
         transform="rotate(76.9704,-13.70069,32.259368)"
         id="path2711" />
      <path
         d="M 1.77168,6.20005 C 0.681095,6.02257 -0.0630977,5.04215 0.00422226,3.86955 0.0788863,2.5562 1.97241,0.626688 2.18784,0.410774 L 2.5991,0 2.89531,0.500616 C 3.0581,0.776873 4.47794,3.23797 4.1903,4.52684 3.93081,5.70066 2.9357,6.38855 1.77168,6.20005"
         style="fill:#2489ca;fill-rule:nonzero;stroke:none"
         transform="translate(26.9092,35.2856)"
         id="path2713" />
      <path
         d="M 3.88466,0.157925 4.05373,0.248221 4.20779,0.349913 4.34667,0.462136 4.4701,0.584019 4.57788,0.714701 4.6698,0.853312 4.74562,0.998986 4.80512,1.15086 4.84809,1.30806 4.8743,1.46972 4.88352,1.63498 4.87555,1.80298 4.85015,1.97284 4.8071,2.14369 4.74618,2.31468 4.66318,2.48974 4.56434,2.64875 4.45101,2.79156 4.32448,2.91804 4.18606,3.02802 4.03705,3.12133 3.87877,3.19786 3.71253,3.25743 3.53965,3.29988 3.36141,3.32507 3.17916,3.33285 2.99419,3.32306 2.80779,3.29555 2.62131,3.25016 2.48896,3.20305 2.35411,3.13924 2.21739,3.06024 2.07942,2.96759 1.94082,2.86278 1.80225,2.74733 1.66431,2.62275 1.52764,2.49057 1.39286,2.35228 1.26061,2.20941 1.13151,2.06347 1.00618,1.91598 0.885263,1.76844 0.769377,1.62236 0.659155,1.47929 0.555221,1.34071 0.458207,1.20814 0.368739,1.0831 0.287443,0.967096 0.21495,0.861649 0.151887,0.768274 0.0988827,0.68848 0.0565635,0.623783 0.025558,0.575696 0.00649414,0.545735 0,0.535411 0.00922826,0.532535 0.0362355,0.52425 0.0800055,0.511062 0.139523,0.493478 0.213769,0.472006 0.301729,0.447157 0.402388,0.419435 0.514727,0.389352 0.637732,0.357413 0.770386,0.324127 0.911672,0.290004 1.06057,0.255548 1.21608,0.22127 1.37716,0.187677 1.54282,0.155278 1.71202,0.12458 1.88376,0.0960905 2.05702,0.0703188 2.23078,0.0477724 2.40403,0.0289592 2.57575,0.0143874 2.74492,0.00456502 2.91053,0 3.07155,0.00120039 3.22699,0.00867422 3.37582,0.0229294 3.517,0.0444743 3.64955,0.0738165 3.77245,0.111464 Z"
         style="fill:url(#Grad109);fill-rule:evenodd;stroke:none"
         transform="rotate(76.9703,-7.605567,36.775903)"
         id="path2715" />
      <path
         d="M 4.97801,2.18103 4.63162,2.17357 4.79318,2.01457 C 4.8397,1.96977 4.84214,1.89486 4.79686,1.84872 L 4.77482,1.82607 C 4.72954,1.77956 4.65487,1.77846 4.60591,1.82301 L 4.25218,2.1672 3.7283,2.15949 4.1665,1.73427 C 4.21301,1.68923 4.21301,1.61493 4.16772,1.56781 L 4.14446,1.54602 C 4.10162,1.49841 4.02818,1.49841 3.97922,1.54284 L 3.35254,2.15325 2.78705,2.14419 3.07224,1.67075 C 3.07469,1.66928 3.07714,1.67099 3.08326,1.66928 L 3.96454,1.44822 C 4.02818,1.43195 4.0649,1.36781 4.04899,1.30587 L 4.04165,1.27442 C 4.02574,1.21113 3.96209,1.17295 3.89844,1.18935 L 3.26441,1.3481 3.53614,0.894731 c 0.00367,-6.12e-4 0.00734,0 0.00979,-6.12e-4 L 4.05511,0.765721 C 4.11876,0.751155 4.15915,0.686528 4.14202,0.623859 L 4.13222,0.593504 C 4.11754,0.530958 4.05511,0.492157 3.99146,0.507457 L 3.7283,0.57392 3.91802,0.244909 C 3.95107,0.187503 3.93271,0.116266 3.87641,0.0829735 L 3.84948,0.0660823 C 3.7944,0.0340135 3.72218,0.0518839 3.68914,0.106352 L 3.51533,0.409415 3.46025,0.189829 C 3.44434,0.126303 3.37946,0.0877471 3.31704,0.104271 L 3.28522,0.111982 C 3.22279,0.126303 3.18607,0.190931 3.20076,0.253967 L 3.32071,0.733652 3.05143,1.18396 2.90333,0.593015 C 2.88619,0.529489 2.82377,0.490933 2.76012,0.507457 L 2.72952,0.515658 C 2.66587,0.530958 2.62793,0.59534 2.64262,0.657397 L 2.85559,1.50759 2.56795,1.99095 2.29867,1.50759 C 2.2999,1.50502 2.30357,1.50257 2.30357,1.49841 L 2.55449,0.625328 C 2.5704,0.562659 2.5349,0.496808 2.4737,0.478571 L 2.4431,0.470247 C 2.37946,0.453601 2.31458,0.490321 2.29622,0.552378 L 2.1163,1.18029 1.86048,0.719209 C 1.8617,0.716516 1.86415,0.712355 1.86538,0.710029 L 2.00981,0.20366 C 2.02817,0.141603 1.99022,0.0761191 1.9278,0.0589831 L 1.8972,0.0493135 C 1.836,0.0327895 1.77113,0.0674287 1.75277,0.130343 L 1.67933,0.390687 1.50797,0.0604519 C 1.47614,0.00402555 1.40393,-0.0166601 1.34762,0.0145519 L 1.31947,0.0292399 C 1.26439,0.0616759 1.24236,0.133647 1.27541,0.190319 L 1.42963,0.49485 1.21054,0.432793 C 1.14934,0.413699 1.08446,0.450296 1.06488,0.51272 L 1.05754,0.542708 C 1.0404,0.606234 1.0759,0.670616 1.1371,0.688854 L 1.61323,0.823494 1.86905,1.28286 1.28153,1.11713 C 1.22033,1.09755 1.15423,1.13439 1.1371,1.19669 L 1.12853,1.22668 C 1.11139,1.28874 1.14689,1.35434 1.20931,1.37344 L 2.05265,1.61273 2.32682,2.10453 1.77358,2.09609 C 1.77113,2.09364 1.77113,2.08948 1.76746,2.0874 L 1.13465,1.43427 C 1.08814,1.38764 1.01592,1.38764 0.969408,1.43195 l -0.02448,0.0219 C 0.900864,1.49841 0.898416,1.57344 0.943704,1.6202 L 1.39903,2.08948 0.870264,2.08103 C 0.867816,2.07834 0.867816,2.0754 0.865368,2.07308 l -0.3672,-0.3792 C 0.45288,1.64761 0.37944,1.647 0.331704,1.69131 L 0.309672,1.71347 C 0.26316,1.75716 0.26316,1.83281 0.306,1.88042 L 0.49572,2.0754 0.119952,2.07308 C 0.05508,2.07075 0.001224,2.12363 0.001224,2.18887 L 0,2.21971 C 0,2.28397 0.051408,2.33795 0.113832,2.3404 L 0.459,2.34174 0.294984,2.50086 C 0.249696,2.54554 0.248472,2.61947 0.29376,2.66647 l 0.023256,0.02228 c 0.045288,0.04712 0.118728,0.04835 0.16524,0.0033 L 0.83844,2.34762 1.36231,2.35594 0.925344,2.78055 C 0.878832,2.82498 0.877608,2.90062 0.921672,2.9464 L 0.943704,2.96929 C 0.988992,3.01641 1.06488,3.01825 1.11139,2.97174 L 1.74175,2.36157 2.30357,2.37185 2.0196,2.84567 C 2.01593,2.84664 2.01226,2.8453 2.00736,2.84664 L 1.1273,3.06635 C 1.06488,3.08226 1.02694,3.1464 1.04162,3.21054 L 1.04774,3.24077 C 1.06488,3.3032 1.12975,3.34187 1.19218,3.32633 L 1.82866,3.16672 1.55693,3.62021 c -0.0049,0 -0.00735,-6.1e-4 -0.01224,0 L 1.03428,3.74873 C 0.970632,3.76428 0.933912,3.82841 0.9486,3.89072 L 0.955944,3.92193 C 0.97308,3.98472 1.03795,4.0234 1.10038,4.00651 L 1.36476,3.94102 1.13342,4.31092 C 1.09915,4.36673 1.11751,4.43944 1.17382,4.47273 l 0.0257,0.01432 C 1.25705,4.52083 1.32926,4.50394 1.36109,4.44715 L 1.57529,4.10418 1.62914,4.32585 C 1.6475,4.38852 1.71115,4.42683 1.77358,4.41128 L 1.80295,4.40357 C 1.86905,4.38852 1.90699,4.32328 1.89108,4.26061 L 1.77113,3.78068 2.03918,3.33098 2.18729,3.92193 C 2.2032,3.98656 2.26807,4.02425 2.3305,4.00749 L 2.3611,3.99977 C 2.42352,3.98472 2.46146,3.92046 2.44678,3.85681 L 2.2338,3.00797 2.52266,2.52473 2.79194,3.00797 C 2.79072,3.01115 2.78827,3.01348 2.78705,3.01641 L 2.53735,3.8901 C 2.52022,3.95277 2.55449,4.01777 2.61936,4.03539 L 2.64874,4.04457 C 2.71116,4.06146 2.77603,4.02621 2.79439,3.96305 L 2.9731,3.33465 3.23014,3.79635 C 3.22891,3.79892 3.22646,3.80161 3.22402,3.8054 L 3.08081,4.31092 c -0.01714,0.0623 0.01836,0.12766 0.08078,0.1459 l 0.0306,0.0082 C 3.25584,4.48436 3.31949,4.44715 3.33662,4.38448 L 3.41251,4.12389 3.60346,4.45877 C 3.63528,4.51618 3.7075,4.53674 3.76502,4.50553 L 3.79073,4.48999 C 3.84826,4.45816 3.86906,4.38656 3.83846,4.32891 L 3.66221,4.02095 3.8813,4.08301 C 3.94128,4.10075 4.00738,4.06563 4.02574,4.00308 L 4.03308,3.97223 C 4.05144,3.91042 4.01594,3.8442 3.95352,3.82597 L 3.47738,3.69071 3.22279,3.23135 3.80786,3.39928 C 3.87151,3.41727 3.93516,3.38178 3.95352,3.31874 L 3.96209,3.28937 C 3.97922,3.22608 3.94495,3.16146 3.8813,3.14249 L 3.03919,2.90234 2.76502,2.41029 3.31826,2.41947 c 0.00123,0.00294 0.00245,0.00649 0.00612,0.00967 l 0.63036,0.6519 C 4.00126,3.12755 4.0747,3.12816 4.12121,3.08349 L 4.14446,3.06084 C 4.19098,3.01641 4.19098,2.9415 4.14691,2.89414 L 3.69281,2.42559 4.21913,2.43354 C 4.22158,2.43648 4.2228,2.44126 4.22402,2.44309 l 0.3672,0.37785 C 4.63651,2.86782 4.71118,2.86843 4.75769,2.82351 L 4.78094,2.80136 C 4.82868,2.75582 4.82868,2.68214 4.78217,2.63379 L 4.5949,2.43881 4.97311,2.44774 C 5.03798,2.4486 5.09306,2.39719 5.09306,2.33134 V 2.30123 c 0,-0.06646 -0.04896,-0.1191 -0.11505,-0.1202"
         style="fill:#738a92;fill-rule:nonzero;stroke:none"
         transform="translate(5.10056,27.0189)"
         id="path2717" />
      <path
         d="M 4.97801,2.18102 4.63162,2.17368 4.79318,2.01443 C 4.8397,1.97013 4.84214,1.89497 4.79563,1.84871 L 4.77482,1.82618 C 4.72831,1.77967 4.65365,1.77845 4.60591,1.82288 L 4.25218,2.16695 3.7283,2.1596 4.16527,1.73438 C 4.21301,1.68934 4.21301,1.61468 4.16772,1.56816 L 4.14446,1.54638 C 4.1004,1.49852 4.02696,1.49852 3.97922,1.54295 L 3.35131,2.15373 2.78705,2.1443 3.07102,1.67086 C 3.07469,1.66902 3.07714,1.67147 3.08203,1.66902 L 3.96331,1.44833 C 4.02696,1.43206 4.0649,1.36792 4.04899,1.30623 L 4.04165,1.27453 C 4.02574,1.21149 3.96209,1.17305 3.89722,1.1897 L 3.26318,1.34858 3.53491,0.894839 c 0.0049,-3.67e-4 0.00735,0 0.00979,-3.67e-4 L 4.05511,0.765952 C 4.11876,0.751264 4.15793,0.686882 4.14202,0.623601 L 4.13222,0.593613 C 4.11754,0.531311 4.05511,0.492266 3.99146,0.507566 L 3.7283,0.573907 3.9168,0.244895 C 3.95107,0.187245 3.93271,0.11613 3.87641,0.0830822 L 3.84948,0.0658238 C 3.79318,0.0333878 3.72096,0.0517478 3.68914,0.106093 L 3.51533,0.409891 3.46025,0.190183 C 3.44311,0.126412 3.37824,0.0874886 3.31704,0.104257 L 3.28522,0.111969 C 3.22157,0.126412 3.18485,0.190795 3.20076,0.254075 L 3.32071,0.733639 3.05021,1.18407 2.9021,0.593001 C 2.88619,0.529598 2.82377,0.490675 2.76012,0.507566 L 2.7283,0.515522 C 2.66587,0.531311 2.6267,0.595694 2.64262,0.657506 L 2.85559,1.50733 2.56673,1.99142 2.29745,1.50733 C 2.2999,1.50513 2.30357,1.50268 2.30357,1.49852 L 2.55326,0.625437 C 2.5704,0.562768 2.5349,0.496917 2.47248,0.478679 L 2.44188,0.470723 C 2.37823,0.453465 2.31336,0.490185 2.295,0.552119 L 2.1163,1.18064 1.86048,0.718951 C 1.8617,0.716625 1.86293,0.712463 1.86538,0.709771 L 2.00858,0.203524 C 2.02694,0.141712 1.99022,0.0761054 1.9278,0.0590918 L 1.8972,0.049667 C 1.83478,0.0328982 1.77113,0.0675374 1.75154,0.130451 L 1.67933,0.390429 1.50797,0.0605606 C 1.47492,0.00413413 1.40393,-0.0167962 1.3464,0.0146606 L 1.31947,0.0291038 C 1.26439,0.0617846 1.24114,0.133389 1.27418,0.190795 L 1.42963,0.494959 1.20931,0.432779 C 1.14811,0.413807 1.08324,0.450405 1.06488,0.513074 L 1.05631,0.542817 C 1.03918,0.606098 1.0759,0.670725 1.13587,0.688963 L 1.61201,0.823847 1.86905,1.28297 1.2803,1.11712 C 1.22033,1.0979 1.15301,1.13413 1.13587,1.19656 L 1.1273,1.22704 C 1.11017,1.28885 1.14689,1.35445 1.20931,1.37355 L 2.05142,1.61284 2.3256,2.10464 1.77235,2.09608 C 1.77113,2.09338 1.7699,2.08934 1.76746,2.08751 L 1.13465,1.43438 C 1.08814,1.38775 1.01592,1.38775 0.969408,1.43206 L 0.944928,1.4536 C 0.89964,1.49852 0.898416,1.57355 0.94248,1.62031 L 1.39903,2.08934 0.86904,2.0809 C 0.867816,2.07845 0.866592,2.07551 0.865368,2.07282 L 0.496944,1.69387 C 0.45288,1.64772 0.37944,1.64736 0.331704,1.69142 L 0.309672,1.71382 C 0.261936,1.75727 0.261936,1.83316 0.306,1.88053 L 0.49572,2.07551 0.119952,2.07257 C 0.05508,2.07086 0.001224,2.12337 0,2.18849 V 2.21982 C 0,2.28371 0.050184,2.33745 0.113832,2.34014 L 0.459,2.34185 0.294984,2.50097 C 0.248472,2.54541 0.247248,2.61983 0.29376,2.66634 L 0.317016,2.68923 C 0.362304,2.73562 0.435744,2.73684 0.481032,2.69216 L 0.837216,2.3481 1.36231,2.35605 0.92412,2.7809 C 0.878832,2.82509 0.877608,2.90061 0.920448,2.94651 L 0.94248,2.96915 c 0.046512,0.04737 0.12118,0.04884 0.16769,0.0027 L 1.74053,2.36168 2.30357,2.37221 2.01838,2.84565 C 2.0147,2.84675 2.01103,2.84541 2.00736,2.84675 L 1.1273,3.06646 C 1.06366,3.08262 1.02694,3.14688 1.04162,3.21065 l 0.00612,0.03023 c 0.01714,0.0623 0.08201,0.10111 0.14444,0.08556 L 1.82743,3.16683 1.5557,3.62032 c -0.00367,0 -0.00734,-6.1e-4 -0.01101,0 L 1.03306,3.74884 C 0.970632,3.76439 0.932688,3.82816 0.947376,3.89083 L 0.95472,3.92204 C 0.971856,3.9852 1.03673,4.02314 1.10038,4.00662 L 1.36354,3.94113 1.13342,4.31103 C 1.09793,4.36684 1.11751,4.43955 1.17259,4.47284 l 0.02693,0.01469 c 0.0563,0.03378 0.12852,0.0164 0.16157,-0.04064 L 1.57406,4.10429 1.62914,4.32596 C 1.64628,4.38838 1.71115,4.42694 1.77358,4.41127 L 1.80295,4.40368 C 1.86905,4.38838 1.90577,4.32363 1.88986,4.26035 L 1.7699,3.78103 2.03796,3.33097 2.18729,3.92204 C 2.20198,3.98642 2.26685,4.02437 2.32927,4.0076 L 2.3611,4.00013 C 2.42352,3.9852 2.46146,3.92045 2.44678,3.85692 L 2.23258,3.00808 2.52144,2.52484 2.79194,3.00808 C 2.7895,3.01089 2.78705,3.01359 2.78705,3.01652 L 2.53735,3.89021 C 2.51899,3.95264 2.55449,4.01788 2.61814,4.03538 L 2.64751,4.04432 C 2.71116,4.06157 2.77603,4.02632 2.79439,3.96353 L 2.9731,3.3344 3.23014,3.79633 C 3.22769,3.79903 3.22524,3.80172 3.22402,3.80551 L 3.08081,4.31103 C 3.06367,4.37333 3.09917,4.43832 3.16159,4.45717 L 3.19097,4.46513 C 3.25584,4.48422 3.31949,4.44689 3.33662,4.38459 L 3.41129,4.124 3.60346,4.45889 C 3.63406,4.51629 3.7075,4.53685 3.7638,4.50564 L 3.7895,4.4901 C 3.84826,4.45827 3.86906,4.38679 3.83724,4.32902 L 3.66098,4.02131 3.88008,4.08312 C 3.94128,4.10111 4.00615,4.06549 4.02574,4.00319 L 4.03308,3.97259 C 4.05022,3.91053 4.01472,3.84431 3.95352,3.82632 L 3.47738,3.69083 3.22157,3.23183 3.80664,3.39976 C 3.87151,3.41714 3.93516,3.38177 3.95352,3.31885 L 3.96209,3.28923 C 3.97922,3.22619 3.94373,3.16181 3.8813,3.1426 L 3.03919,2.9022 2.76502,2.4104 3.31826,2.41958 c 0.00123,0.00294 0.00245,0.00649 0.0049,0.0093 L 3.95474,3.08103 C 4.00003,3.1273 4.07347,3.12852 4.11998,3.0836 L 4.14446,3.06083 C 4.19098,3.01652 4.19098,2.94161 4.14691,2.89388 L 3.69281,2.42545 4.21913,2.43365 C 4.22158,2.43696 4.22158,2.441 4.22402,2.44308 l 0.3672,0.37797 C 4.63529,2.86793 4.70995,2.86854 4.75769,2.82362 L 4.78094,2.80147 C 4.82868,2.75618 4.82868,2.68213 4.78217,2.63427 L 4.5949,2.43916 4.97189,2.44785 c 0.06609,0.0011 0.11995,-0.0503 0.11995,-0.1164 V 2.30097 C 5.09306,2.23512 5.04288,2.18225 4.97801,2.18102"
         style="fill:#738a92;fill-rule:nonzero;stroke:none"
         transform="translate(13.9709,27.5849)"
         id="path2719" />
      <path
         d="M 4.97801,2.18094 4.63162,2.17371 4.79441,2.01423 C 4.8397,1.9698 4.84214,1.89476 4.79686,1.84837 L 4.77605,1.8261 C 4.72954,1.77959 4.65487,1.77836 4.60714,1.82279 L 4.25218,2.16723 3.72953,2.15915 4.1665,1.7343 C 4.21423,1.68925 4.21423,1.61484 4.16772,1.56771 L 4.14569,1.54617 C 4.10162,1.49843 4.02818,1.49843 3.97922,1.5425 L 3.35254,2.1534 2.78705,2.14422 3.07224,1.67041 C 3.07591,1.66918 3.07714,1.67102 3.08326,1.66918 L 3.96454,1.44813 C 4.02818,1.43197 4.06613,1.36795 4.04899,1.30578 L 4.04287,1.27432 C 4.02574,1.21104 3.96209,1.17285 3.89844,1.18937 L 3.26441,1.34813 3.53614,0.894633 c 0.00367,-6.12e-4 0.00734,0 0.00979,-6.12e-4 L 4.05511,0.765623 C 4.11998,0.75118 4.15915,0.68643 4.14324,0.623517 L 4.13222,0.593529 C 4.11876,0.530982 4.05511,0.492059 3.99146,0.507114 L 3.72953,0.573577 3.91802,0.244566 C 3.9523,0.187161 3.93271,0.116292 3.87641,0.0827539 L 3.84948,0.0657403 C 3.7944,0.0336715 3.72218,0.0516643 3.68914,0.10601 L 3.51533,0.409439 3.46025,0.189853 C 3.44434,0.126328 3.37946,0.0875275 3.31704,0.104174 L 3.28644,0.111885 C 3.22279,0.126328 3.18607,0.190955 3.20076,0.253624 L 3.32071,0.733554 3.05143,1.18386 2.90333,0.592917 C 2.88619,0.529513 2.82377,0.490713 2.76012,0.507114 L 2.72952,0.515315 C 2.66587,0.530982 2.62793,0.595365 2.64384,0.657421 L 2.85682,1.50749 2.56795,1.99097 2.29867,1.50749 C 2.30112,1.50492 2.30357,1.50259 2.30357,1.49843 L 2.55449,0.625353 C 2.5704,0.562684 2.5349,0.496833 2.4737,0.478595 L 2.4431,0.470394 C 2.37946,0.453258 2.31458,0.490101 2.29622,0.552035 L 2.11752,1.18019 1.8617,0.718866 C 1.86293,0.716418 1.86415,0.712379 1.86538,0.710053 L 2.00981,0.203685 C 2.02817,0.141261 1.99022,0.0760219 1.9278,0.0586411 L 1.89842,0.0492163 C 1.836,0.0326923 1.77113,0.0672091 1.75277,0.130367 L 1.67933,0.390345 1.50797,0.0604771 C 1.47614,0.00392828 1.40393,-0.0166349 1.34762,0.0145771 L 1.3207,0.0292651 C 1.26562,0.0613339 1.24236,0.133427 1.27541,0.190343 L 1.42963,0.494507 1.21054,0.432695 C 1.14934,0.413601 1.08446,0.450321 1.0661,0.512622 L 1.05754,0.54261 C 1.0404,0.606258 1.0759,0.670641 1.1371,0.688878 L 1.61323,0.823518 1.86905,1.28289 1.28153,1.11703 C 1.22033,1.09769 1.15423,1.13368 1.1371,1.19635 L 1.12853,1.22671 C 1.11139,1.28876 1.14811,1.354 1.20931,1.37334 L 2.05265,1.61275 2.32682,2.10456 1.77358,2.09599 C 1.77113,2.0933 1.77113,2.08926 1.76746,2.08742 L 1.13465,1.4343 C 1.08814,1.38729 1.01592,1.38729 0.969408,1.43197 L 0.944928,1.45351 C 0.900864,1.49843 0.898416,1.57334 0.943704,1.62022 L 1.40026,2.08926 0.870264,2.08069 C 0.86904,2.07836 0.867816,2.07543 0.866592,2.07273 L 0.498168,1.69403 C 0.454104,1.64752 0.380664,1.6469 0.332928,1.69134 L 0.310896,1.71337 C 0.26316,1.75719 0.26316,1.83271 0.307224,1.88044 L 0.496944,2.07543 0.119952,2.07237 C 0.05508,2.07041 0.001224,2.12329 0.001224,2.1884 L 0,2.21949 c 0,0.06414 0.051408,0.11812 0.115056,0.12057 l 0.345168,0.00183 -0.164016,0.159 C 0.249696,2.54495 0.248472,2.61962 0.29376,2.66613 L 0.317016,2.68939 C 0.362304,2.7359 0.436968,2.73712 0.482256,2.69183 L 0.83844,2.34764 1.36354,2.35597 0.925344,2.77996 C 0.878832,2.82525 0.877608,2.90114 0.921672,2.94643 L 0.943704,2.96968 C 0.988992,3.01619 1.06488,3.01742 1.11139,2.97213 L 1.74175,2.3616 2.30357,2.37188 2.0196,2.84606 C 2.01593,2.84728 2.01226,2.84483 2.00736,2.84728 L 1.1273,3.06638 C 1.06488,3.08229 1.02694,3.14594 1.04285,3.21081 L 1.04897,3.24019 C 1.0661,3.30261 1.12975,3.34178 1.19218,3.32587 L 1.82866,3.16675 1.55693,3.61963 c -0.0049,0 -0.00735,0 -0.01102,0 L 1.03428,3.74815 C 0.971856,3.76406 0.933912,3.82893 0.9486,3.89013 L 0.955944,3.92195 C 0.97308,3.98438 1.03795,4.02355 1.10038,4.00641 L 1.36476,3.94154 1.13342,4.31119 C 1.09915,4.36627 1.11751,4.43971 1.17382,4.47275 L 1.20074,4.48744 C 1.25705,4.52049 1.32926,4.50335 1.36109,4.44705 L 1.57529,4.10433 1.62914,4.32587 C 1.6475,4.3883 1.71115,4.42624 1.7748,4.41033 L 1.80295,4.40299 C 1.86905,4.3883 1.90699,4.32343 1.89108,4.25978 L 1.77113,3.78119 2.03918,3.33076 2.18729,3.92195 C 2.2032,3.98683 2.26807,4.02355 2.3305,4.00763 L 2.3611,4.00029 C 2.42352,3.98438 2.46146,3.92073 2.44678,3.85708 L 2.2338,3.00763 2.52266,2.52415 2.79194,3.00763 C 2.79072,3.0113 2.78827,3.01375 2.78705,3.01619 L 2.53735,3.89013 C 2.52022,3.95255 2.55449,4.01743 2.61936,4.03579 L 2.64874,4.04435 C 2.71116,4.06149 2.77603,4.02599 2.79439,3.96357 L 2.97432,3.33443 3.23014,3.79588 C 3.22891,3.79833 3.22646,3.80078 3.22402,3.80567 L 3.08081,4.31119 C 3.06367,4.37361 3.09917,4.43848 3.16282,4.45684 L 3.19219,4.46541 C 3.25584,4.48377 3.31949,4.44705 3.33662,4.38463 L 3.41251,4.12391 3.60346,4.45929 C 3.63528,4.51682 3.70872,4.5364 3.76502,4.5058 L 3.79073,4.48989 C 3.84948,4.45807 3.87029,4.38707 3.83846,4.32832 L 3.66221,4.0211 3.8813,4.08352 C 3.94128,4.10066 4.00738,4.06516 4.02574,4.00274 L 4.03308,3.97214 C 4.05144,3.91094 4.01594,3.84362 3.95352,3.82648 L 3.47738,3.69062 3.22279,3.23162 3.80786,3.39931 C 3.87151,3.41767 3.93638,3.38217 3.95352,3.31852 L 3.96209,3.28915 C 3.97922,3.22672 3.94495,3.16185 3.88253,3.14227 L 3.04042,2.90236 2.76502,2.41031 3.31826,2.41937 C 3.31949,2.42243 3.32071,2.42598 3.32438,2.42916 L 3.95474,3.08107 C 4.00126,3.12758 4.0747,3.12758 4.12121,3.08351 L 4.14569,3.06026 C 4.1922,3.01619 4.1922,2.94153 4.14814,2.89379 L 3.69281,2.42537 4.21913,2.43332 C 4.2228,2.43651 4.2228,2.44116 4.22525,2.44299 L 4.59122,2.82035 C 4.63651,2.86809 4.71118,2.86809 4.75891,2.8228 L 4.78094,2.80199 C 4.82868,2.75548 4.82868,2.68204 4.78217,2.63431 L 4.5949,2.43895 4.97311,2.44765 C 5.03921,2.44862 5.09306,2.39709 5.09306,2.33124 V 2.30101 c 0,-0.06622 -0.04896,-0.11885 -0.11505,-0.12007"
         style="fill:#738a92;fill-rule:nonzero;stroke:none"
         transform="translate(9.26951,35.0203)"
         id="path2721" />
      <path
         d="M 4.97801,2.18103 4.63162,2.17332 4.79441,2.0142 C 4.8397,1.96977 4.84214,1.89486 4.79686,1.84835 L 4.77605,1.82571 C 4.72954,1.77956 4.65487,1.77834 4.60714,1.8224 L 4.2534,2.1672 3.72953,2.15912 4.1665,1.73427 C 4.21423,1.68923 4.21423,1.61493 4.16772,1.56781 L 4.14569,1.54602 C 4.10162,1.49841 4.02818,1.49841 3.97922,1.54247 L 3.35254,2.15325 2.78705,2.14419 3.07224,1.67038 C 3.07591,1.66891 3.07714,1.67111 3.08326,1.66891 L 3.96454,1.44786 C 4.02818,1.43195 4.06613,1.36781 4.04899,1.30575 L 4.04287,1.27405 C 4.02696,1.21113 3.96209,1.17282 3.89844,1.18935 L 3.26441,1.3481 3.53614,0.894731 c 0.00367,-6.12e-4 0.00734,0 0.00979,-6.12e-4 L 4.05511,0.765599 C 4.11998,0.751155 4.15915,0.686528 4.14324,0.623492 L 4.13222,0.593504 C 4.11876,0.530835 4.05511,0.492157 3.99269,0.50709 L 3.72953,0.573553 3.91802,0.244542 C 3.9523,0.186891 3.93394,0.116021 3.87641,0.0827287 L 3.8507,0.0657151 C 3.7944,0.0334015 3.72218,0.0512719 3.68914,0.105985 L 3.51655,0.409415 3.46025,0.189829 C 3.44434,0.126303 3.37946,0.0873799 3.31704,0.103904 L 3.28644,0.11186 C 3.22279,0.126303 3.18607,0.190931 3.20076,0.253599 L 3.32071,0.73353 3.05143,1.18372 2.90333,0.592892 C 2.88619,0.529489 2.82377,0.490321 2.76134,0.50709 L 2.72952,0.514923 C 2.6671,0.530835 2.62793,0.59534 2.64384,0.657397 L 2.85682,1.50722 2.56795,1.99095 2.29867,1.50722 C 2.30112,1.50477 2.30479,1.50257 2.30479,1.49841 L 2.55449,0.625083 C 2.5704,0.562659 2.5349,0.496808 2.4737,0.478326 L 2.4431,0.47037 C 2.37946,0.453356 2.31458,0.489954 2.29622,0.552133 L 2.11752,1.18017 1.8617,0.718842 c 0,-0.002693 0.00245,-0.006487 0.0049,-0.00918 L 2.00981,0.203415 C 2.02817,0.141359 1.99022,0.0759967 1.92902,0.0586159 L 1.89842,0.0493135 C 1.836,0.0327895 1.77113,0.0671839 1.75277,0.130465 L 1.67933,0.39032 1.50797,0.0604519 C 1.47614,0.00402555 1.40515,-0.0166601 1.34762,0.0145519 L 1.3207,0.0292399 C 1.26439,0.0611863 1.24236,0.13328 1.27541,0.190319 L 1.42963,0.49436 1.21054,0.432426 C 1.14934,0.413576 1.08446,0.450296 1.0661,0.51272 L 1.05754,0.542341 C 1.0404,0.606234 1.0759,0.670371 1.1371,0.688487 L 1.61323,0.823494 1.86905,1.28286 1.28153,1.11664 C 1.22033,1.09755 1.15423,1.13378 1.1371,1.19645 L 1.12853,1.22668 C 1.11139,1.28874 1.14811,1.3541 1.21054,1.37344 L 2.05265,1.61249 2.32682,2.10453 1.77358,2.09584 C 1.77113,2.09327 1.77113,2.08923 1.76868,2.0874 L 1.13587,1.43427 C 1.08936,1.38715 1.01592,1.38715 0.970632,1.43195 L 0.946152,1.45337 C 0.900864,1.49841 0.898416,1.57344 0.943704,1.6202 L 1.40026,2.08923 0.870264,2.08067 C 0.86904,2.07834 0.867816,2.0754 0.866592,2.07246 L 0.498168,1.69364 C 0.454104,1.64749 0.380664,1.647 0.332928,1.69131 L 0.310896,1.71334 C 0.26316,1.75716 0.26316,1.83281 0.307224,1.88042 L 0.496944,2.0754 0.119952,2.07246 C 0.056304,2.07038 0.002448,2.12326 0.001224,2.18825 L 0,2.21947 C 0,2.2836 0.051408,2.33771 0.115056,2.34015 L 0.460224,2.34174 0.296208,2.50086 C 0.249696,2.5453 0.248472,2.61947 0.294984,2.66623 l 0.022032,0.02252 c 0.045288,0.04712 0.119952,0.04798 0.16524,0.00306 L 0.83844,2.34774 1.36354,2.35594 0.925344,2.78055 C 0.878832,2.82498 0.877608,2.90062 0.921672,2.94652 L 0.943704,2.96868 C 0.988992,3.01641 1.06488,3.01788 1.11139,2.97174 L 1.74175,2.36145 2.30479,2.37173 2.0196,2.84554 C 2.01593,2.8464 2.01226,2.84505 2.00858,2.8464 L 1.1273,3.06611 C 1.06488,3.08226 1.02694,3.1464 1.04285,3.21017 L 1.04897,3.24053 C 1.0661,3.3032 1.12975,3.34187 1.1934,3.32609 L 1.82866,3.16672 1.55693,3.62021 c -0.0049,0 -0.00735,-6.1e-4 -0.01102,0 L 1.03428,3.74861 C 0.971856,3.76415 0.933912,3.82805 0.9486,3.89047 L 0.955944,3.92181 C 0.97308,3.98472 1.03795,4.02303 1.10038,4.00626 L 1.36476,3.94066 1.13342,4.31055 C 1.09915,4.36673 1.11751,4.43907 1.17382,4.47236 L 1.20074,4.48705 C 1.25705,4.52083 1.32926,4.50382 1.36231,4.44678 L 1.57529,4.10418 1.62914,4.32585 C 1.6475,4.38852 1.71115,4.42646 1.7748,4.41092 L 1.80295,4.40357 C 1.86905,4.38852 1.90699,4.32328 1.89108,4.26036 L 1.77113,3.78068 2.03918,3.33074 2.18729,3.92181 C 2.2032,3.98631 2.26807,4.02389 2.3305,4.00749 L 2.3611,3.99977 C 2.42474,3.98472 2.46146,3.92009 2.448,3.85681 L 2.2338,3.00797 2.52266,2.52437 2.79194,3.00797 C 2.79072,3.01078 2.78827,3.01348 2.78705,3.01641 L 2.53858,3.8901 C 2.52022,3.95265 2.55449,4.0174 2.61936,4.03539 L 2.64874,4.04408 C 2.71116,4.06122 2.77726,4.02621 2.79439,3.96293 L 2.97432,3.33404 3.23014,3.79622 C 3.22891,3.79867 3.22646,3.80124 3.22402,3.8054 L 3.08081,4.31055 C 3.06367,4.37322 3.09917,4.43821 3.16159,4.45682 l 0.0306,0.0082 C 3.25706,4.48374 3.31949,4.44678 3.33662,4.38448 L 3.41251,4.12364 3.60346,4.45853 C 3.63528,4.51594 3.70872,4.5365 3.76502,4.50492 L 3.79073,4.48937 C 3.84948,4.45792 3.87029,4.38619 3.83846,4.3283 L 3.66221,4.02095 3.8813,4.08301 C 3.9425,4.10063 4.00738,4.06538 4.02696,4.00283 L 4.03308,3.97223 C 4.05144,3.91042 4.01594,3.8442 3.95352,3.82597 L 3.47738,3.69071 3.22279,3.23135 3.80786,3.39928 C 3.87151,3.41691 3.93638,3.38165 3.95352,3.31874 L 3.96209,3.28875 C 3.97922,3.22584 3.94495,3.16146 3.88253,3.14249 L 3.04042,2.90197 2.76502,2.41041 3.31949,2.41947 c 0,0.00281 0.00122,0.00624 0.00489,0.0093 L 3.95474,3.0808 C 4.00126,3.12694 4.0747,3.12816 4.12121,3.08349 L 4.14569,3.06048 C 4.1922,3.01641 4.1922,2.94114 4.14814,2.89401 L 3.69281,2.42534 4.22035,2.43318 c 0.00245,0.0033 0.00245,0.00808 0.0049,0.00979 l 0.3672,0.37785 c 0.04406,0.04712 0.11873,0.04737 0.16646,0.00269 l 0.02326,-0.0224 c 0.04773,-0.04529 0.04773,-0.11897 0,-0.16732 L 4.5949,2.43881 4.97311,2.44738 C 5.03921,2.44848 5.09306,2.39707 5.09306,2.33122 V 2.30086 C 5.09429,2.23477 5.0441,2.18213 4.97801,2.18103"
         style="fill:#f5fbfc;fill-rule:nonzero;stroke:none"
         transform="translate(9.65874,17.6868)"
         id="path2723" />
      <path
         d="M 4.97801,2.18122 4.63162,2.17351 4.79318,2.01439 C 4.8397,1.96995 4.84214,1.89505 4.79686,1.84853 L 4.77482,1.82589 C 4.72954,1.77962 4.65487,1.77864 4.60591,1.82271 L 4.25218,2.16677 3.7283,2.15931 4.1665,1.73409 C 4.21423,1.68917 4.21423,1.61475 4.16772,1.56799 L 4.14446,1.54621 C 4.10162,1.49835 4.02818,1.49835 3.97922,1.54278 L 3.35254,2.15343 2.78705,2.14437 3.07224,1.67069 C 3.07469,1.6691 3.07714,1.6713 3.08326,1.6691 L 3.96454,1.4478 C 4.02818,1.43188 4.0649,1.36799 4.04899,1.30593 L 4.04165,1.27399 C 4.02574,1.21132 3.96209,1.17301 3.89844,1.18953 L 3.26441,1.34828 3.53614,0.894914 c 0.00367,-6.12e-4 0.00612,0 0.00979,-6.12e-4 L 4.05511,0.765782 C 4.11876,0.751094 4.15915,0.686712 4.14202,0.623676 L 4.13222,0.593443 C 4.11754,0.530774 4.05511,0.492341 3.99146,0.507273 L 3.7283,0.573737 3.91802,0.244113 C 3.95107,0.18683 3.93271,0.115594 3.87641,0.0823009 L 3.84948,0.0656545 C 3.7944,0.0332185 3.72218,0.0514561 3.68914,0.105924 L 3.51533,0.409598 3.46025,0.189645 C 3.44434,0.126487 3.37946,0.0876865 3.31704,0.104088 L 3.28644,0.111677 C 3.22279,0.126487 3.18607,0.190869 3.20076,0.253783 L 3.32071,0.733836 3.05143,1.1839 2.90333,0.592831 C 2.88619,0.529673 2.82377,0.490505 2.76012,0.507273 L 2.72952,0.515229 C 2.66587,0.530774 2.62793,0.595524 2.64262,0.657458 L 2.85559,1.5074 2.56795,1.99113 2.29867,1.5074 C 2.2999,1.50508 2.30357,1.50239 2.30357,1.49835 L 2.55326,0.625267 C 2.5704,0.562843 2.5349,0.496747 2.4737,0.478509 L 2.4431,0.470553 C 2.37946,0.453417 2.31336,0.49026 2.29622,0.551949 L 2.11752,1.18047 1.86048,0.718903 C 1.8617,0.716333 1.86415,0.712538 1.86538,0.709845 L 2.00981,0.203477 C 2.02694,0.141542 1.99022,0.0759361 1.9278,0.0588001 L 1.8972,0.0491305 C 1.836,0.0326065 1.77113,0.0673681 1.75277,0.130649 L 1.67933,0.390259 1.50797,0.0606361 C 1.47614,0.00384254 1.40393,-0.0167207 1.34762,0.0147361 L 1.31947,0.0291793 C 1.26439,0.0611257 1.24236,0.133464 1.27541,0.190257 L 1.42963,0.494544 1.21054,0.432609 C 1.14934,0.41376 1.08446,0.45048 1.06488,0.512904 L 1.05754,0.542525 C 1.0404,0.606173 1.0759,0.670555 1.1371,0.688425 L 1.61323,0.823677 1.86905,1.2828 1.28153,1.11683 C 1.22033,1.09773 1.15423,1.13396 1.1371,1.19663 L 1.12853,1.22686 C 1.11139,1.28892 1.14811,1.35428 1.20931,1.37325 L 2.05265,1.61267 2.32682,2.10435 1.77358,2.09578 C 1.77113,2.09358 1.77113,2.08942 1.76746,2.08734 L 1.13465,1.43445 C 1.08814,1.38745 1.01592,1.38745 0.969408,1.43188 L 0.944928,1.45355 C 0.900864,1.49835 0.898416,1.57338 0.943704,1.62038 L 1.39903,2.08942 0.870264,2.08085 C 0.86904,2.07852 0.867816,2.07522 0.865368,2.07265 L 0.498168,1.69382 C 0.45288,1.64731 0.37944,1.64706 0.332928,1.69149 L 0.309672,1.71353 C 0.261936,1.75747 0.261936,1.83299 0.306,1.88036 L 0.49572,2.07522 0.119952,2.07204 C 0.05508,2.0702 0.001224,2.1232 0.001224,2.18783 L 0,2.21941 C 0,2.28318 0.051408,2.33728 0.115056,2.33997 L 0.459,2.34168 0.294984,2.50105 C 0.249696,2.54511 0.248472,2.61929 0.29376,2.66641 l 0.023256,0.02252 c 0.045288,0.04688 0.118728,0.04774 0.16524,0.00306 L 0.837216,2.34793 1.36231,2.35576 0.925344,2.78036 C 0.878832,2.82516 0.877608,2.90081 0.921672,2.94671 L 0.943704,2.96886 C 0.988992,3.0166 1.06488,3.01782 1.11139,2.97168 L 1.74053,2.36139 2.30357,2.37192 2.0196,2.84573 C 2.01593,2.84658 2.01226,2.84524 2.00736,2.84658 L 1.1273,3.06629 C 1.06488,3.08245 1.02694,3.14622 1.04285,3.21036 l 0.00612,0.03035 c 0.01591,0.06267 0.08078,0.1011 0.14321,0.08556 L 1.82743,3.16678 1.55693,3.62003 c -0.0049,0 -0.00735,-4.9e-4 -0.01224,0 L 1.03428,3.74855 C 0.970632,3.76409 0.933912,3.82799 0.9486,3.89066 L 0.95472,3.92199 C 0.971856,3.98466 1.03795,4.02297 1.10038,4.00645 L 1.36476,3.94096 1.13342,4.31073 C 1.09915,4.36667 1.11751,4.43925 1.17382,4.47254 L 1.20074,4.48699 C 1.25705,4.52077 1.32926,4.50363 1.36109,4.4466 L 1.57529,4.10437 1.62914,4.32579 C 1.64628,4.38846 1.71115,4.42664 1.77358,4.41098 L 1.80295,4.40376 C 1.86905,4.38846 1.90699,4.32346 1.88986,4.26055 L 1.77113,3.78086 2.03918,3.33092 2.18729,3.92199 C 2.2032,3.98649 2.26807,4.02407 2.3305,4.00767 L 2.3611,3.99996 C 2.42352,3.98466 2.46146,3.92028 2.44678,3.85675 L 2.2338,3.00815 2.52266,2.52455 2.79194,3.00815 C 2.79072,3.01097 2.78827,3.01341 2.78705,3.0166 L 2.53735,3.89004 C 2.52022,3.95259 2.55449,4.01758 2.61936,4.03496 L 2.64874,4.04427 C 2.71116,4.0614 2.77603,4.02615 2.79439,3.96312 L 2.9731,3.33422 3.23014,3.79653 C 3.22891,3.79886 3.22646,3.80143 3.22402,3.80559 L 3.08081,4.31073 C 3.06367,4.3734 3.09917,4.43815 3.16159,4.45688 L 3.19219,4.4652 C 3.25584,4.48405 3.31949,4.4466 3.33662,4.38429 L 3.41251,4.12383 3.60346,4.45835 C 3.63528,4.51612 3.7075,4.53668 3.76502,4.50523 L 3.79073,4.48956 C 3.84826,4.45786 3.86906,4.38638 3.83724,4.32848 L 3.66221,4.02113 3.8813,4.08319 C 3.94128,4.10082 4.00738,4.06556 4.02574,4.0029 L 4.03308,3.97205 C 4.05144,3.91036 4.01594,3.84414 3.95352,3.82615 L 3.47738,3.69065 3.22279,3.23153 3.80786,3.39922 c 0.06365,0.0175 0.1273,-0.01738 0.14566,-0.0803 L 3.96209,3.28894 C 3.97922,3.22602 3.94495,3.16152 3.8813,3.14218 L 3.03919,2.90191 2.76502,2.41059 3.31826,2.41928 C 3.31949,2.42259 3.32071,2.42577 3.32438,2.42895 L 3.95474,3.08098 C 4.00126,3.12712 4.0747,3.12835 4.12121,3.08367 L 4.14446,3.06066 C 4.19098,3.0166 4.19098,2.94132 4.14691,2.89395 L 3.69281,2.42553 4.21913,2.43336 C 4.22158,2.43642 4.2228,2.44107 4.22525,2.44315 L 4.59122,2.821 C 4.63651,2.86776 4.71118,2.86813 4.75769,2.82345 L 4.78094,2.8013 C 4.82868,2.75576 4.82868,2.68171 4.78217,2.63397 L 4.5949,2.43899 4.97311,2.44756 C 5.03798,2.44842 5.09306,2.39725 5.09306,2.3314 V 2.30105 c 0,-0.0661 -0.04896,-0.11898 -0.11505,-0.11983"
         style="fill:#f5fbfc;fill-rule:nonzero;stroke:none"
         transform="translate(18.8253,18.4063)"
         id="path2725" />
      <path
         d="M 4.97801,2.18094 4.63162,2.17322 4.79318,2.01423 C 4.8397,1.9698 4.84214,1.89476 4.79686,1.84837 L 4.77482,1.82573 C 4.72954,1.77922 4.65365,1.77836 4.60591,1.82279 L 4.25218,2.16686 3.7283,2.15939 4.1665,1.73405 C 4.21301,1.68925 4.21301,1.61484 4.16772,1.56783 L 4.14446,1.54605 C 4.1004,1.49843 4.02696,1.49843 3.97922,1.5425 L 3.35254,2.15327 2.78705,2.14422 3.07224,1.67041 C 3.07469,1.66918 3.07714,1.67102 3.08203,1.66918 L 3.96454,1.44788 C 4.02696,1.43197 4.0649,1.36783 4.04899,1.3059 L 4.04165,1.27407 C 4.02574,1.21104 3.96209,1.17297 3.89844,1.18925 L 3.26441,1.34813 3.53614,0.894633 c 0.00367,-6.12e-4 0.00612,0 0.00856,-6.12e-4 L 4.05511,0.765501 C 4.11876,0.75118 4.15793,0.68643 4.14202,0.623517 L 4.13222,0.593529 C 4.11754,0.530982 4.05511,0.492059 3.99146,0.507359 L 3.7283,0.573822 3.91802,0.244566 C 3.95107,0.187161 3.93271,0.116047 3.87641,0.0827539 L 3.84948,0.0657403 C 3.7944,0.0333043 3.72096,0.0514195 3.68914,0.10601 L 3.51533,0.409439 3.46025,0.189731 C 3.44434,0.126328 3.37946,0.0876499 3.31704,0.104174 L 3.28522,0.111885 C 3.22279,0.126328 3.18485,0.190955 3.20076,0.253869 L 3.32071,0.733554 3.05143,1.18374 2.90333,0.592917 C 2.88619,0.529513 2.82377,0.49059 2.76012,0.507359 L 2.72952,0.515437 C 2.66587,0.530982 2.6267,0.595365 2.64262,0.657421 L 2.85559,1.50749 2.56795,1.99097 2.29867,1.50749 C 2.2999,1.50492 2.30357,1.50223 2.30357,1.49843 L 2.55326,0.624985 C 2.5704,0.562684 2.5349,0.496465 2.47248,0.47835 L 2.4431,0.470272 C 2.37823,0.453258 2.31336,0.490345 2.29622,0.552035 L 2.1163,1.18019 1.86048,0.718866 C 1.8617,0.716173 1.86293,0.712379 1.86538,0.709686 L 2.00981,0.203685 C 2.02694,0.141628 1.99022,0.0757771 1.9278,0.0586411 L 1.8972,0.0492163 C 1.836,0.0326923 1.77113,0.0674539 1.75277,0.130367 L 1.67933,0.390345 1.50797,0.0604771 C 1.47614,0.00392828 1.40393,-0.0166349 1.34762,0.0145771 L 1.31947,0.0292651 C 1.26439,0.0613339 1.24236,0.133305 1.27541,0.190343 L 1.42963,0.494752 1.21054,0.432695 C 1.14934,0.413601 1.08446,0.450321 1.06488,0.512622 L 1.05754,0.542365 C 1.0404,0.606258 1.0759,0.670273 1.1371,0.688633 L 1.61323,0.823518 1.86905,1.28289 1.28153,1.11703 C 1.22033,1.09757 1.15301,1.13405 1.1371,1.19672 L 1.1273,1.22671 C 1.11139,1.28876 1.14689,1.35437 1.20931,1.37346 L 2.05265,1.61251 2.32682,2.10444 1.77358,2.09599 C 1.77113,2.0933 1.7699,2.08914 1.76746,2.08742 L 1.13465,1.4343 C 1.08814,1.38729 1.01592,1.38729 0.969408,1.43197 L 0.944928,1.45376 C 0.900864,1.49843 0.898416,1.57334 0.943704,1.62022 L 1.39903,2.08914 0.870264,2.08069 C 0.867816,2.078 0.866592,2.07543 0.865368,2.07237 L 0.498168,1.69391 C 0.45288,1.64752 0.37944,1.6469 0.331704,1.69109 L 0.309672,1.71337 C 0.261936,1.75719 0.261936,1.83271 0.306,1.88008 L 0.49572,2.07543 0.119952,2.07237 C 0.05508,2.07041 0.001224,2.12329 0.001224,2.1884 L 0,2.21949 C 0,2.28363 0.051408,2.33736 0.113832,2.34006 L 0.459,2.34177 0.294984,2.50089 C 0.248472,2.54532 0.248472,2.61937 0.29376,2.6665 L 0.317016,2.68877 C 0.362304,2.7359 0.435744,2.73675 0.482256,2.69183 L 0.837216,2.34764 1.36231,2.35572 0.92412,2.78045 C 0.878832,2.825 0.877608,2.90053 0.921672,2.94643 L 0.943704,2.96895 C 0.988992,3.01644 1.06488,3.01791 1.11139,2.97139 L 1.74053,2.3616 2.30357,2.37188 2.0196,2.84557 C 2.01593,2.84642 2.01226,2.84496 2.00736,2.84642 L 1.1273,3.06601 C 1.06488,3.08229 1.02694,3.14643 1.04162,3.2102 L 1.04774,3.24043 C 1.06488,3.3031 1.12975,3.3419 1.19218,3.32635 L 1.82743,3.16638 1.55693,3.62011 c -0.0049,0 -0.00735,-4.8e-4 -0.01224,0 L 1.03428,3.74839 C 0.970632,3.76406 0.933912,3.82807 0.947376,3.89074 L 0.95472,3.92195 C 0.971856,3.98474 1.03795,4.02306 1.10038,4.00653 L 1.36354,3.94093 1.13342,4.31057 C 1.09915,4.36675 1.11751,4.43909 1.17259,4.47239 L 1.19952,4.48707 C 1.25705,4.52086 1.32926,4.50384 1.36109,4.4468 L 1.57529,4.10421 1.62914,4.32587 C 1.64628,4.38854 1.71115,4.42685 1.77358,4.41094 L 1.80295,4.40347 C 1.86905,4.38854 1.90699,4.3233 1.88986,4.26027 L 1.7699,3.7807 2.03918,3.33088 2.18729,3.92195 C 2.2032,3.98621 2.26685,4.02391 2.32927,4.00751 L 2.3611,3.9998 C 2.42352,3.98474 2.46146,3.92012 2.44678,3.85684 L 2.23258,3.00787 2.52266,2.52476 2.79194,3.00787 C 2.79072,3.01044 2.78827,3.0135 2.78705,3.01644 L 2.53735,3.89013 C 2.51899,3.9528 2.55449,4.01743 2.61936,4.03505 L 2.64874,4.04448 C 2.71116,4.06124 2.77603,4.02599 2.79439,3.96308 L 2.9731,3.33431 3.23014,3.79625 C 3.22769,3.79894 3.22524,3.80127 3.22402,3.80531 L 3.08081,4.31057 C 3.06367,4.37324 3.09917,4.43824 3.16159,4.45684 l 0.0306,0.00783 C 3.25584,4.48414 3.31949,4.4468 3.33662,4.38438 L 3.41251,4.12355 3.60346,4.45843 C 3.63406,4.51621 3.7075,4.53677 3.76502,4.50556 L 3.79073,4.48964 C 3.84826,4.45819 3.86906,4.38658 3.83724,4.32857 L 3.66221,4.02097 3.8813,4.08303 C 3.94128,4.10066 4.00615,4.06528 4.02574,4.0031 L 4.03308,3.97214 C 4.05144,3.91008 4.01472,3.84423 3.95352,3.82587 L 3.47738,3.69074 3.22279,3.23137 3.80786,3.39931 C 3.87151,3.41693 3.93516,3.38168 3.95352,3.31877 L 3.96209,3.28878 C 3.97922,3.22611 3.94373,3.16148 3.8813,3.14227 L 3.03919,2.90212 2.76502,2.41031 3.31826,2.41937 C 3.31949,2.42243 3.32071,2.42561 3.32438,2.4288 l 0.63036,0.65227 c 0.04652,0.0459 0.11996,0.047 0.16524,0.00244 L 4.14446,3.0605 C 4.19098,3.01644 4.19098,2.94116 4.14691,2.89404 L 3.69281,2.42525 4.21913,2.43357 C 4.22158,2.43651 4.2228,2.44116 4.22402,2.44299 l 0.3672,0.37785 c 0.04529,0.047 0.11873,0.04737 0.16647,0.0027 L 4.78094,2.80114 C 4.82868,2.75585 4.82868,2.6818 4.78217,2.63382 L 4.5949,2.43883 4.97311,2.4474 C 5.03798,2.4485 5.09306,2.39709 5.09306,2.33124 v -0.0306 c 0,-0.06597 -0.04896,-0.11873 -0.11505,-0.1197"
         style="fill:#f5fbfc;fill-rule:nonzero;stroke:none"
         transform="translate(24.288,12.0148)"
         id="path2727" />
      <path
         d="M 4.97801,2.18092 4.63162,2.17358 4.79441,2.01421 C 4.8397,1.97015 4.84214,1.89475 4.79686,1.84861 L 4.77605,1.82596 C 4.72954,1.77957 4.65487,1.77859 4.60714,1.82303 L 4.2534,2.16709 3.72953,2.1595 4.1665,1.73429 C 4.21423,1.68961 4.21423,1.61482 4.16772,1.56807 L 4.14569,1.5464 C 4.10162,1.49842 4.02818,1.49842 3.97922,1.54273 L 3.35254,2.15363 2.78705,2.14445 3.07224,1.67064 C 3.07591,1.66929 3.07836,1.67125 3.08326,1.66929 L 3.96454,1.44811 C 4.02818,1.43196 4.06613,1.36782 4.05022,1.30613 L 4.04287,1.27431 C 4.02696,1.21128 3.96209,1.17284 3.89844,1.18961 L 3.26441,1.34848 3.53614,0.894871 c 0.00489,-4.89e-4 0.00734,0 0.00979,-4.89e-4 L 4.05634,0.765862 C 4.11998,0.751541 4.15915,0.686791 4.14324,0.62351 L 4.13345,0.593645 C 4.11876,0.531221 4.05634,0.492298 3.99269,0.507353 L 3.72953,0.573816 3.91802,0.24505 C 3.9523,0.187399 3.93394,0.116529 3.87641,0.0833587 L 3.8507,0.0659779 C 3.7944,0.0339091 3.72218,0.0519019 3.68914,0.106247 L 3.51655,0.4098 3.46025,0.190092 C 3.44434,0.126566 3.37946,0.0877651 3.31704,0.104411 L 3.28644,0.111878 C 3.22279,0.126566 3.18607,0.191071 3.20076,0.253862 L 3.32071,0.733426 3.05143,1.1841 2.90333,0.593033 C 2.88742,0.529385 2.82377,0.490584 2.76134,0.507353 L 2.72952,0.515676 C 2.6671,0.531221 2.62793,0.595603 2.64384,0.657293 L 2.85682,1.50748 2.56795,1.99133 2.29867,1.50748 C 2.30112,1.50491 2.30479,1.50246 2.30479,1.49842 L 2.55449,0.625224 C 2.57162,0.562678 2.5349,0.496826 2.4737,0.478589 L 2.4431,0.470633 C 2.37946,0.453252 2.31458,0.490339 2.29622,0.552396 L 2.11752,1.18043 1.8617,0.719105 C 1.86293,0.716412 1.86415,0.71225 1.86538,0.710047 L 2.00981,0.203556 C 2.02817,0.141499 1.99145,0.0758923 1.92902,0.0588787 L 1.89842,0.0494539 C 1.836,0.0328075 1.77235,0.0674467 1.75277,0.130361 L 1.67933,0.390583 1.50797,0.0603475 C 1.47614,0.00416595 1.40515,-0.0166421 1.34762,0.0144475 L 1.3207,0.0295027 C 1.26562,0.0615715 1.24236,0.133298 1.27541,0.190704 L 1.42963,0.494746 1.21054,0.432689 C 1.14934,0.413594 1.08446,0.450314 1.0661,0.512861 L 1.05754,0.542726 C 1.0404,0.60613 1.07712,0.670512 1.1371,0.688872 L 1.61323,0.823757 1.86905,1.28275 1.28153,1.11727 C 1.22033,1.09793 1.15423,1.13441 1.1371,1.19634 L 1.12853,1.22694 C 1.11139,1.28863 1.14811,1.35423 1.21054,1.37345 L 2.05265,1.61286 2.32682,2.10467 1.77358,2.09598 C 1.77235,2.09328 1.77113,2.08949 1.76868,2.08741 L 1.13587,1.43428 C 1.08936,1.38753 1.01714,1.38753 0.970632,1.43196 L 0.946152,1.45374 C 0.900864,1.49842 0.89964,1.57357 0.943704,1.62009 L 1.40026,2.08949 0.870264,2.08068 C 0.86904,2.07823 0.867816,2.07541 0.866592,2.07272 L 0.498168,1.69402 C 0.454104,1.6475 0.380664,1.64714 0.332928,1.6912 L 0.310896,1.7136 C 0.26316,1.75705 0.26316,1.83306 0.307224,1.88031 L 0.496944,2.07541 0.119952,2.07272 C 0.056304,2.07089 0.002448,2.12364 0.001224,2.18888 L 0,2.22009 c 0,0.06402 0.051408,0.11799 0.115056,0.1202 L 0.460224,2.34212 0.296208,2.50088 C 0.249696,2.54555 0.248472,2.6196 0.294984,2.66612 L 0.31824,2.68913 C 0.363528,2.73588 0.436968,2.73674 0.482256,2.69194 L 0.83844,2.348 1.36354,2.35583 0.925344,2.78093 C 0.880056,2.82487 0.877608,2.90051 0.921672,2.94641 L 0.943704,2.9693 C 0.988992,3.01643 1.06488,3.01814 1.11139,2.97163 L 1.74175,2.36146 2.30479,2.37211 2.0196,2.84556 C 2.01593,2.84678 2.01226,2.84519 2.00858,2.84678 L 1.12853,3.06636 C 1.06488,3.08264 1.02694,3.14666 1.04285,3.21043 L 1.04897,3.24078 C 1.0661,3.30309 1.12975,3.34225 1.1934,3.32634 L 1.82866,3.16661 1.55693,3.6201 c -0.0049,0 -0.00735,-3.6e-4 -0.01102,0 L 1.03428,3.74862 C 0.971856,3.76417 0.933912,3.8283 0.9486,3.89097 L 0.955944,3.92182 C 0.97308,3.9851 1.03795,4.02329 1.10038,4.00676 L 1.36476,3.94091 1.13465,4.31093 C 1.09915,4.36674 1.11874,4.43933 1.17382,4.47262 L 1.20074,4.48731 C 1.25705,4.52109 1.32926,4.50383 1.36231,4.44704 L 1.57529,4.10407 1.62914,4.32623 C 1.6475,4.38841 1.71238,4.42672 1.7748,4.41117 L 1.80295,4.40358 C 1.86905,4.38841 1.90699,4.32354 1.89108,4.26038 L 1.77113,3.78106 2.03918,3.33075 2.18851,3.92182 C 2.2032,3.9862 2.26807,4.02414 2.3305,4.00738 L 2.36232,4.00015 C 2.42474,3.9851 2.46146,3.92035 2.448,3.85719 L 2.2338,3.00786 2.52266,2.52474 2.79194,3.00786 C 2.79072,3.0108 2.78827,3.01337 2.78705,3.01643 L 2.53858,3.89036 c -0.01836,0.0623 0.01591,0.1273 0.08078,0.14505 L 2.64874,4.04446 C 2.71116,4.0616 2.77726,4.02623 2.79562,3.96331 L 2.97432,3.33454 3.23014,3.7966 C 3.22891,3.79917 3.22646,3.80162 3.22524,3.80542 L 3.08081,4.31093 C 3.06367,4.37311 3.10039,4.43859 3.16282,4.45707 L 3.19219,4.46491 C 3.25706,4.48437 3.32071,4.44704 3.33785,4.38461 L 3.41251,4.12378 3.60346,4.45879 C 3.63528,4.51607 3.70872,4.537 3.76502,4.50567 L 3.79073,4.49 C 3.84948,4.4583 3.87029,4.38682 3.83846,4.3288 L 3.66221,4.02121 3.8813,4.0829 C 3.9425,4.10089 4.00738,4.06539 4.02696,4.00297 L 4.03308,3.97237 C 4.05144,3.91031 4.01594,3.84446 3.95352,3.82622 L 3.47738,3.6906 3.22279,3.2316 3.80786,3.39954 C 3.87151,3.41716 3.93638,3.38191 3.95352,3.31863 L 3.96209,3.28901 C 3.97922,3.22634 3.94495,3.16159 3.88253,3.1425 L 3.04042,2.90235 2.76502,2.4103 3.31949,2.41948 C 3.32071,2.4223 3.32071,2.42585 3.32438,2.42915 l 0.63159,0.6519 C 4.00126,3.12732 4.0747,3.12854 4.12121,3.08338 L 4.14569,3.06073 C 4.1922,3.01643 4.1922,2.94139 4.14814,2.89427 L 3.69403,2.42523 4.22035,2.43356 C 4.2228,2.43674 4.2228,2.44115 4.22525,2.44323 L 4.59245,2.8212 C 4.63651,2.86795 4.71118,2.86857 4.75891,2.82377 L 4.78217,2.80149 C 4.8299,2.7562 4.8299,2.68203 4.78217,2.63405 L 4.59612,2.43919 4.97311,2.44763 c 0.0661,0.00123 0.11995,-0.0503 0.11995,-0.1164 V 2.30088 c 0,-0.06586 -0.04896,-0.11873 -0.11505,-0.11996"
         style="fill:#f5fbfc;fill-rule:nonzero;stroke:none"
         transform="translate(14.5731,11.3755)"
         id="path2729" />
    </g>
  </g>
</svg>
