<?xml version="1.0" encoding="UTF-8" standalone="no"?>
<svg
   width="120.00897pt"
   height="104.44371pt"
   version="1.1"
   viewBox="0 0 120.00897 104.44371"
   id="svg233565"
   sodipodi:docname="Document-3-page001.svg"
   inkscape:version="1.2.2 (b0a8486541, 2022-12-01)"
   inkscape:export-filename="../Github Repos/own-weather-app/src/assets/icons/Document-3-page001.svg"
   inkscape:export-xdpi="96"
   inkscape:export-ydpi="96"
   xmlns:inkscape="http://www.inkscape.org/namespaces/inkscape"
   xmlns:sodipodi="http://sodipodi.sourceforge.net/DTD/sodipodi-0.dtd"
   xmlns="http://www.w3.org/2000/svg"
   xmlns:svg="http://www.w3.org/2000/svg">
  <sodipodi:namedview
     id="namedview233567"
     pagecolor="#00000f"
     bordercolor="#000000"
     borderopacity="0.25"
     inkscape:showpageshadow="2"
     inkscape:pageopacity="0"
     inkscape:pagecheckerboard="0"
     inkscape:deskcolor="#d1d1d1"
     inkscape:document-units="pt"
     showgrid="false"
     inkscape:zoom="0.7594697"
     inkscape:cx="408.17955"
     inkscape:cy="528"
     inkscape:window-width="1920"
     inkscape:window-height="1014"
     inkscape:window-x="0"
     inkscape:window-y="0"
     inkscape:window-maximized="1"
     inkscape:current-layer="Background" />
  <defs
     id="defs233522">
    <clipPath
       id="Clip6">
      <path
         d="M 0,0 H 120.009 V 104.444 H 0 Z"
         id="path233519" />
    </clipPath>
  </defs>
  <g
     inkscape:groupmode="layer"
     id="Background"
     inkscape:label="Background"
     transform="translate(-326.40002,-227.20601)">
    <g
       id="thunder_storm_w_rain"
       style="fill:none;stroke:none"
       clip-path="url(#Clip6)"
       clip-rule="evenodd"
       transform="translate(326.4,227.206)"
       inkscape:export-filename="../Github Repos/own-weather-app/src/assets/icons/thunder_storm_w_rain.svg"
       inkscape:export-xdpi="96"
       inkscape:export-ydpi="96">
      <path
         d="M 38.5863,0 C 25.092,0.00589688 13.9373,10.5203 13.1357,23.9899 5.62753,25.4842 0,32.0822 0,40.0434 0,49.1133 7.30256,56.4151 16.3726,56.4151 h 57.5137 14.1254 c 6.3224,0 11.4128,-5.8553 11.4128,-13.1277 0,-7.2725 -5.0904,-13.1268 -11.4128,-13.1268 H 87.2483 C 85.7214,21.1283 77.8977,14.5172 68.7384,14.5164 66.4833,14.5189 64.2488,14.9275 62.1387,15.7225 58.1846,6.20431 48.8915,7.96875e-4 38.5863,0"
         style="fill:#8f8f8f;fill-rule:nonzero;stroke:none"
         transform="translate(20.5849)"
         id="path233555" />
      <path
         d="M 38.5847,0 C 25.092,0.00589688 13.9373,10.5202 13.1357,23.9898 5.62594,25.4842 0,32.0822 0,40.0433 0,49.1132 7.30097,56.4149 16.371,56.4149 h 57.5137 14.1254 c 6.324,0 11.4144,-5.8553 11.4144,-13.1277 0,-7.2724 -5.0904,-13.1268 -11.4144,-13.1268 H 87.2483 C 85.7198,21.1282 77.8977,14.517 68.7368,14.5162 66.4817,14.5187 64.2473,14.9274 62.1371,15.7223 58.1846,6.20431 48.8915,7.96875e-4 38.5847,0"
         style="fill:#ffffff;fill-rule:nonzero;stroke:none"
         transform="translate(0,5.66865)"
         id="path233557" />
      <path
         d="m 6.12904,0 c 0,0 -1.20488,1.47565 -2.60897,2.63909 C 1.78766,4.07442 -0.223649,5.42879 0.0201944,7.64665 0.413851,11.2332 5.95213,10.7204 6.2661,7.01537 6.37288,5.76826 6.14976,4.33277 6.11947,3.36903 6.05891,1.46992 6.12904,0 6.12904,0 Z M 67.6638,0 c 0,0 -1.2049,1.47565 -2.609,2.63909 -1.7324,1.43533 -3.7437,2.7897 -3.4999,5.00756 0.3937,3.58655 5.932,3.07375 6.2459,-0.63128 C 67.9076,5.76826 67.6845,4.33277 67.6542,3.36903 67.5936,1.46992 67.6638,0 67.6638,0 Z M 11.849,20.6756 c 0,0 -1.2065,1.4756 -2.61056,2.6389 -1.7324,1.4355 -3.74372,2.7897 -3.49987,5.0076 0.39365,3.5867 5.93193,3.0748 6.24753,-0.6302 0.1052,-1.2471 -0.118,-2.6826 -0.1483,-3.6462 -0.0605,-1.8993 0.0096,-3.3701 0.0096,-3.3701 z m 43.1317,0 c 0,0 -1.2033,1.4756 -2.6074,2.6389 -1.734,1.4355 -3.7453,2.7897 -3.5014,5.0076 0.3936,3.5867 5.9319,3.0748 6.2475,-0.6302 0.1067,-1.2471 -0.118,-2.6826 -0.1483,-3.6462 -0.0589,-1.8993 0.0112,-3.3701 0.0112,-3.3701 z"
         style="fill:#7ae2ff;fill-rule:nonzero;stroke:none"
         transform="translate(16.6377,73.6856)"
         id="path233559" />
      <path
         d="M 27.1495,0 0,27.1492 H 18.7951 L 5.66738,54.0002 38.2628,18.3428 H 20.8574 L 27.1495,0"
         style="fill:#ffd300;fill-rule:nonzero;stroke:none"
         transform="translate(35.8339,47.7539)"
         id="path233561" />
    </g>
  </g>
</svg>
