<?xml version="1.0" encoding="UTF-8" standalone="no"?>
<svg
   width="99.424469pt"
   height="106.32701pt"
   version="1.1"
   viewBox="0 0 99.424469 106.32701"
   id="svg233565"
   sodipodi:docname="Document-3-page001.svg"
   inkscape:version="1.2.2 (b0a8486541, 2022-12-01)"
   inkscape:export-filename="../Github Repos/own-weather-app/src/assets/icons/Document-3-page001.svg"
   inkscape:export-xdpi="96"
   inkscape:export-ydpi="96"
   xmlns:inkscape="http://www.inkscape.org/namespaces/inkscape"
   xmlns:sodipodi="http://sodipodi.sourceforge.net/DTD/sodipodi-0.dtd"
   xmlns="http://www.w3.org/2000/svg"
   xmlns:svg="http://www.w3.org/2000/svg">
  <sodipodi:namedview
     id="namedview233567"
     pagecolor="#00000f"
     bordercolor="#000000"
     borderopacity="0.25"
     inkscape:showpageshadow="2"
     inkscape:pageopacity="0"
     inkscape:pagecheckerboard="0"
     inkscape:deskcolor="#d1d1d1"
     inkscape:document-units="pt"
     showgrid="false"
     inkscape:zoom="0.7594697"
     inkscape:cx="408.17955"
     inkscape:cy="528"
     inkscape:window-width="1920"
     inkscape:window-height="1014"
     inkscape:window-x="0"
     inkscape:window-y="0"
     inkscape:window-maximized="1"
     inkscape:current-layer="Background" />
  <defs
     id="defs233522">
    <clipPath
       id="Clip5">
      <path
         d="M 0,0 H 99.4245 V 106.327 H 0 Z"
         id="path233516" />
    </clipPath>
  </defs>
  <g
     inkscape:groupmode="layer"
     id="Background"
     inkscape:label="Background"
     transform="translate(-474.75601,-70.759598)">
    <g
       id="windy"
       style="fill:none;stroke:none"
       clip-path="url(#Clip5)"
       clip-rule="evenodd"
       transform="translate(474.756,70.7596)"
       inkscape:export-filename="../Github Repos/own-weather-app/src/assets/icons/windy.svg"
       inkscape:export-xdpi="96"
       inkscape:export-ydpi="96">
      <path
         d="M 38.5863,0 C 25.092,0.006375 13.9373,10.5203 13.1357,23.9891 5.62594,25.4841 0,32.0822 0,40.043 c 0,9.07 7.30256,16.3726 16.3726,16.3726 h 57.5136 14.1255 c 6.3224,0 11.4128,-5.8555 11.4128,-13.1278 0,-7.2738 -5.0904,-13.1277 -11.4128,-13.1277 H 87.2482 C 85.7214,21.1283 77.8977,14.5175 68.7368,14.5159 66.4833,14.5191 64.2472,14.9271 62.1387,15.7223 58.1846,6.20447 48.8915,0 38.5863,0"
         style="fill:#ffffff;fill-rule:nonzero;stroke:none"
         id="path233550" />
      <path
         d="m 62.8113,0 c -5.7152,0 -9.5689,3.60028 -10.777,7.55916 -0.2326,0.76022 0.1945,1.56506 0.9547,1.79775 0.7602,0.23268 1.5651,-0.19603 1.7962,-0.95625 0.8654,-2.83369 3.4871,-5.52075 8.0261,-5.52075 2.9229,0 4.998,1.08693 6.4387,2.71734 1.4392,1.63041 2.2106,3.86325 2.2106,6.10085 0,2.2361 -0.7634,4.4402 -2.2871,6.0658 -1.522,1.6273 -3.8074,2.7493 -7.175,2.7493 H 17.5583 c -0.7968,-0.0016 -1.4423,0.6422 -1.4423,1.4391 0,0.7953 0.6455,1.4392 1.4423,1.4376 h 44.4402 c 4.0322,0 7.1989,-1.4424 9.2756,-3.6609 2.0782,-2.2185 3.0632,-5.1414 3.0632,-8.0309 0,-2.89104 -0.9738,-5.79007 -2.9309,-8.00538 C 69.4508,1.47741 66.4817,0 62.8113,0 Z m 0.3809,5.7375 c -0.7953,0 -1.4392,0.64547 -1.4376,1.44075 0,0.79369 0.6439,1.43756 1.4376,1.43916 0.9355,0 1.4455,0.32193 1.8344,0.82875 0.3889,0.5084 0.5976,1.27504 0.5259,2.06554 -0.1434,1.5826 -1.1204,3.1556 -3.9477,3.1556 H 7.64841 c -0.79529,0 -1.43757,0.6439 -1.43916,1.4375 0,0.7953 0.64387,1.4408 1.43916,1.4424 H 61.6048 c 4.0689,0 6.5567,-2.8943 6.8181,-5.7758 C 68.5536,10.3307 68.2045,8.86444 67.312,7.69781 66.4211,6.53278 64.9294,5.7375 63.1922,5.7375 Z M 1.43916,26.3335 C 0.645469,26.3351 0.00159375,26.979 0,27.7727 0,28.568 0.643875,29.215 1.43916,29.215 H 56.3422 c 2.8943,0 4.802,0.9021 6.0531,2.1691 1.2495,1.2671 1.8615,2.966 1.8679,4.7064 0.008,1.7403 -0.6056,3.4807 -1.7292,4.7493 -1.1252,1.2687 -2.7269,2.115 -4.9821,2.115 -4.0051,0 -5.567,-1.5587 -6.7463,-3.7565 -0.3746,-0.7013 -1.2464,-0.9658 -1.9476,-0.5913 -0.7028,0.3761 -0.9642,1.2511 -0.5881,1.9508 1.5045,2.8034 4.4051,5.2737 9.282,5.2737 3.0122,0 5.4984,-1.232 7.1352,-3.0792 1.6384,-1.8471 2.4671,-4.2585 2.4576,-6.673 -0.008,-2.4145 -0.875,-4.8689 -2.6982,-6.7176 -1.8249,-1.8504 -4.5884,-3.0282 -8.1043,-3.0282 z m 8.62694,6.3352 c -0.79526,-0.0016 -1.44073,0.6439 -1.44232,1.4391 0,0.7953 0.64706,1.4392 1.44232,1.4376 h 47.583 c 0.7937,0 1.4376,-0.6439 1.4376,-1.4376 0,-0.7952 -0.6439,-1.4391 -1.4376,-1.4391 z"
         style="fill:#cdfbff;fill-rule:nonzero;stroke:none"
         transform="translate(10.0661,60.4956)"
         id="path233552" />
    </g>
  </g>
</svg>
