<?xml version="1.0" encoding="UTF-8" standalone="no"?>
<svg
   width="47.625748pt"
   height="23.955109pt"
   version="1.1"
   viewBox="0 0 47.625748 23.955109"
   id="svg6053"
   sodipodi:docname="Weather Icons-page001.svg"
   xmlns:inkscape="http://www.inkscape.org/namespaces/inkscape"
   xmlns:sodipodi="http://sodipodi.sourceforge.net/DTD/sodipodi-0.dtd"
   xmlns="http://www.w3.org/2000/svg"
   xmlns:svg="http://www.w3.org/2000/svg">
  <sodipodi:namedview
     id="namedview6055"
     pagecolor="#ffffff"
     bordercolor="#000000"
     borderopacity="0.25"
     inkscape:showpageshadow="2"
     inkscape:pageopacity="0.0"
     inkscape:pagecheckerboard="0"
     inkscape:deskcolor="#d1d1d1"
     inkscape:document-units="pt"
     showgrid="false" />
  <defs
     id="defs2330">
    <clipPath
       id="Clip5">
      <path
         d="M 0,0 H 48.8938 V 31.4372 H 0 Z"
         id="path428" />
    </clipPath>
    <linearGradient
       x2="23.3391"
       y2="22.665899"
       id="Grad59"
       x1="0.99102199"
       gradientUnits="userSpaceOnUse"
       y1="22.665899">
      <stop
         offset="0%"
         stop-color="#758099"
         stop-opacity="1"
         id="stop431" />
      <stop
         offset="100%"
         stop-color="#03253a"
         stop-opacity="1"
         id="stop433" />
    </linearGradient>
  </defs>
  <g
     inkscape:groupmode="layer"
     id="Background"
     inkscape:label="Background"
     transform="translate(-240.54601,-160.20297)">
    <g
       id="black_clouds"
       style="fill:none;stroke:none"
       clip-path="url(#Clip5)"
       clip-rule="evenodd"
       transform="translate(240.546,157.047)">
      <path
         d="m 28.9979,23.9551 c -1.3109,0 -2.3317,-0.044 -2.9584,-0.0807 -0.7026,-0.0414 -1.6145,-0.0732 -2.672,-0.11 C 15.4874,23.4898 0.820233,22.9785 0.00872156,16.4851 l -0.004896,-0.0345 -0.001224,-0.0349 C -0.156519,11.8114 7.02714,10.09 9.58653,9.62394 9.03206,7.11683 9.24258,3.01177 13.2254,1.02045 14.5596,0.352757 16.1373,0 17.7897,0 c 2.9939,0 5.9842,1.1606 7.7063,2.94201 0.0392,-0.02816 0.0796,-0.05692 0.1188,-0.08568 1.0795,-0.7759 2.5581,-1.83796 4.7785,-1.83796 0.5349,0 1.0942,0.06365 1.6597,0.18935 2.5937,0.5765 3.5092,2.69868 3.7038,4.22696 2.4125,0.01787 9.8924,0.73098 11.6856,8.65082 0.4418,1.9544 0.0844,3.674 -1.0649,5.1121 -3.306,4.1394 -12.3073,4.7575 -17.3796,4.7575"
         style="fill:#486172;fill-rule:nonzero;stroke:none"
         transform="translate(0,3.15598)"
         id="path2475" />
      <path
         d="m 12.0424,36.7502 -0.0042,0.0024 -0.0123,0.0068 -0.0203,0.0109 -0.0281,0.0151 -0.0357,0.0186 -0.0431,0.022 -0.0504,0.0253 -0.0574,0.0282 -0.0644,0.0308 -0.071,0.0332 -0.0776,0.0354 -0.0839,0.0372 -0.09,0.0389 -0.0961,0.0403 -0.1018,0.0412 -0.1074,0.0423 -0.1128,0.0428 -0.1181,0.0431 -0.1231,0.0431 -0.128,0.043 -0.1327,0.0425 -0.1372,0.0419 -0.1415,0.0409 -0.1457,0.0396 -0.14959,0.0382 -0.1534,0.0364 -0.15699,0.0344 -0.16039,0.0321 -0.16361,0.0298 -0.16667,0.0268 -0.16953,0.0239 -0.17219,0.0205 -0.1747,0.017 -0.177,0.0131 -0.17914,0.0092 -0.18109,0.0048 -0.18284,2e-4 L 7.68804,37.7975 7.50221,37.7877 7.31519,37.7726 7.12712,37.7518 6.9382,37.7253 6.74862,37.6925 6.55856,37.6533 6.36819,37.6075 6.17772,37.5549 5.98731,37.4949 5.79715,37.4276 5.60741,37.3526 5.41829,37.2696 5.22998,37.1785 5.04265,37.0788 4.85646,36.9704 4.67164,36.853 4.48835,36.7265 4.30677,36.5904 4.12707,36.4445 3.94947,36.2887 3.77412,36.1224 3.60122,35.9458 3.43093,35.7583 3.26347,35.5598 3.099,35.3499 2.97248,35.1778 2.85062,35.0025 2.73336,34.8241 2.62068,34.6427 2.51258,34.4587 2.409,34.2719 2.30993,34.0825 2.21535,33.8908 2.12523,33.6967 2.03955,33.5005 1.95827,33.3022 1.88136,33.1021 1.80881,32.9001 1.7406,32.6965 1.6767,32.4913 1.61706,32.2847 1.56169,32.0769 1.51053,31.8679 1.46359,31.6579 1.42081,31.447 1.38219,31.2354 1.34769,31.0231 1.31729,30.8103 1.29097,30.5971 1.26869,30.3836 1.25043,30.1701 1.23617,29.9565 1.22588,29.7431 1.21954,29.5299 1.21711,29.317 l 0.00147,-0.2122 0.00534,-0.2117 0.00917,-0.2109 0.013,-0.21 0.01678,-0.2089 0.02056,-0.2079 0.02429,-0.2065 0.02801,-0.2051 0.03169,-0.2037 0.03536,-0.2019 0.03899,-0.2002 0.0426,-0.1983 0.04619,-0.1962 0.04975,-0.194 L 1.6336,26.2579 1.69039,26.0685 1.75066,25.8817 1.8144,25.6976 1.88156,25.5164 1.95212,25.338 2.02607,25.1629 2.10338,24.9908 2.18401,24.822 2.26795,24.6566 2.35516,24.4949 2.44563,24.3369 2.53931,24.1827 2.6362,24.0325 2.73626,23.8862 2.83948,23.7444 2.94583,23.6067 3.05525,23.4736 3.16776,23.345 3.10744,23.2802 3.04488,23.2149 2.9802,23.1489 2.91355,23.0822 2.84505,23.0146 2.77483,22.9461 2.70304,22.8768 2.62981,22.8064 2.55527,22.7349 2.47954,22.6622 2.40277,22.5884 2.3251,22.5134 2.24664,22.4369 2.16753,22.3591 2.08791,22.2796 2.00792,22.1987 1.92768,22.1162 1.84732,22.032 1.76699,21.946 1.68682,21.8582 1.60693,21.7685 1.52745,21.6768 1.44854,21.583 1.37032,21.4872 1.29291,21.3893 1.21646,21.289 1.1411,21.1865 1.06696,21.0816 0.994167,20.9742 0.922865,20.8644 0.853184,20.7521 0.785257,20.6369 0.719218,20.5191 0.655199,20.3986 0.593333,20.2752 0.533755,20.1489 0.476596,20.0195 0.421992,19.8872 0.370075,19.7517 0.320978,19.613 0.274835,19.471 0.231777,19.3257 0.19194,19.177 0.155457,19.0249 0.12246,18.8692 0.0930832,18.7099 0.0674597,18.547 0.0457225,18.3803 0.0280052,18.2098 0.0144411,18.0355 0.0051633,17.8572 3.05168e-4,17.6749 0,17.4885 0.00438108,17.2981 0.0227172,17.0156 0.056659,16.747 0.105243,16.4918 0.167506,16.2499 0.242484,16.0208 0.329214,15.8042 0.426733,15.5996 0.534076,15.407 0.650281,15.2257 0.774383,15.0556 0.90542,14.8963 1.04243,14.7475 1.18444,14.6088 1.3305,14.4799 1.47964,14.3605 1.63089,14.2501 1.78331,14.1485 1.9359,14.0553 l 0.15183,-0.0849 0.1501,-0.0774 0.14738,-0.0698 0.14373,-0.0627 0.1391,-0.056 0.1335,-0.0496 0.12695,-0.0435 0.11944,-0.0377 0.11094,-0.0325 0.10152,-0.0273 0.09109,-0.0225 0.07973,-0.0181 0.0674,-0.0141 0.05409,-0.0104 0.03983,-0.007 0.02461,-0.004 L 3.62555,13.4366 3.62366,13.4296 3.61822,13.4088 3.60954,13.3746 3.59795,13.3274 3.58377,13.2674 3.56734,13.1952 3.54895,13.111 3.52894,13.0153 3.50764,12.9082 3.48538,12.7903 3.46245,12.6619 3.43921,12.5234 3.41595,12.375 3.39303,12.2172 3.37074,12.0504 3.34941,11.8749 3.32939,11.691 3.31097,11.4992 3.29448,11.2998 3.28026,11.0931 3.26862,10.8796 3.25988,10.6595 3.25437,10.4333 3.25241,10.2013 3.25432,9.96385 3.26044,9.72134 3.27108,9.47413 3.28655,9.22257 3.3072,8.96705 3.33333,8.70789 3.36528,8.44549 3.40337,8.1802 3.44791,7.91239 3.49923,7.6424 3.55767,7.37061 3.62353,7.09739 3.69714,6.82309 3.77883,6.54807 3.86892,6.27271 3.96772,5.99734 4.07557,5.72237 4.19279,5.44812 4.3197,5.17497 4.45662,4.9033 4.60388,4.63344 4.7618,4.36578 4.9307,4.10066 5.11092,3.83845 5.30276,3.57953 5.50654,3.32424 5.72262,3.07295 5.95128,2.82603 6.19286,2.58384 6.4477,2.34674 6.7161,2.11508 6.99839,1.88926 7.29491,1.6696 7.60595,1.45649 7.93185,1.25028 8.27294,1.05133 8.62954,0.860015 9.00197,0.676693 9.39054,0.501727 9.78359,0.34624 10.1693,0.220494 10.5476,0.123744 10.9187,0.0552429 11.2825,0.0142437 11.6392,0 l 0.3496,0.0117652 0.3425,0.0370277 0.3355,0.0615431 0.3285,0.085313 0.3217,0.108335 0.3148,0.130612 0.3081,0.152141 0.3012,0.172923 0.2946,0.19296 0.2879,0.21225 0.2814,0.2308 0.2748,0.24858 0.2684,0.26564 0.262,0.28194 0.2555,0.2975 0.2492,0.31231 0.243,0.32638 0.2367,0.33968 0.2306,0.35227 0.2245,0.36408 0.2185,0.37517 0.2125,0.38548 0.2065,0.39509 0.2005,0.40392 0.1948,0.41199 0.1889,0.41936 0.1832,0.42595 0.1776,0.43179 0.1719,0.43691 0.1663,0.44126 0.1608,0.44488 0.1554,0.44774 0.1499,0.44985 0.1446,0.45126 0.1393,0.4518 0.1339,0.4518 0.1287,0.4508 0.1237,0.4493 0.1184,0.4469 0.1136,0.4437 0.1085,0.44 0.1035,0.4353 0.0985,0.43 0.0939,0.4238 0.089,0.4171 0.0843,0.4095 0.0796,0.4011 0.075,0.3921 0.0704,0.3821 0.0659,0.3717 0.0614,0.3602 0.0571,0.3484 0.0526,0.3354 0.0483,0.3219 0.0441,0.3076 0.0399,0.2925 0.0357,0.2768 0.036,0.2781 0.0401,0.2967 0.044,0.3146 0.0478,0.332 0.0509,0.3485 0.0539,0.3643 0.0566,0.3794 0.059,0.3938 0.0609,0.4076 0.0628,0.4207 0.0641,0.433 0.0652,0.4445 0.066,0.4556 0.0664,0.4657 0.0666,0.4753 0.0664,0.4841 0.0658,0.4923 0.0651,0.4996 0.064,0.5065 0.0626,0.5124 0.0608,0.5179 0.0587,0.5224 0.0563,0.5263 0.0537,0.5295 0.0505,0.5321 0.0474,0.5339 0.0436,0.5351 0.0398,0.5354 0.0353,0.5352 0.0309,0.5343 0.0258,0.5326 0.0207,0.5301 0.0152,0.5272 0.0093,0.5232 0.0032,0.519 -0.0035,0.5136 -0.0101,0.5078 -0.0173,0.5014 -0.0247,0.4939 -0.0325,0.486 -0.0405,0.4774 -0.0488,0.4679 -0.0575,0.4579 -0.0666,0.4471 -0.076,0.4356 -0.0856,0.4234 -0.0955,0.4107 -0.1057,0.3969 -0.1164,0.3828 -0.1273,0.3678 -0.1384,0.352 -0.15,0.3357 -0.1619,0.3187 -0.1741,0.3008 -0.1864,0.2824 -0.1994,0.2631 -0.2123,0.2434 -0.2259,0.2227 -0.2395,0.2015 -0.2536,0.1796 -0.2681,0.1568 -0.2826,0.1334 -0.2978,0.1093 -0.2239,0.042 -0.2214,0.0263 -0.2188,0.0114 -0.2164,-0.0033 -0.2137,-0.0173 -0.2111,-0.031 -0.2083,-0.044 -0.2056,-0.0567 -0.203,-0.0688 -0.2001,-0.0805 -0.1973,-0.0917 -0.1944,-0.1023 -0.1915,-0.1126 -0.1886,-0.1223 -0.1856,-0.1316 -0.1827,-0.1404 -0.1796,-0.1486 -0.1765,-0.1565 -0.1734,-0.1637 -0.1704,-0.1706 -0.1671,-0.177 -0.1639,-0.1827 -0.1607,-0.1883 -0.1574,-0.193 -0.1541,-0.1976 -0.1508,-0.2014 -0.1474,-0.2049 -0.1439,-0.2079 -0.1405,-0.2102 -0.137,-0.2124 -0.1334,-0.2138 -0.13,-0.215 -0.1263,-0.2154 -0.1228,-0.2155 -0.119,-0.2151 -0.1154,-0.2142 -0.1116,-0.2127 -0.1079,-0.2111 -0.104,-0.2085 -0.1002,-0.2058 -0.0964,-0.2024 -0.0924,-0.1986 -0.0885,-0.1943 -0.0846,-0.1896 -0.0804,-0.1844 -0.0765,-0.1785 -0.0723,-0.1724 -0.0683,-0.1657 -0.0641,-0.1585 -0.06,-0.1508 -0.0557,-0.1426 -0.0514,-0.134 -0.0471,-0.125 -0.0429,-0.1153 -0.0385,-0.1053 -0.0341,-0.0946 -0.0296,-0.0836 -0.0252,-0.0721 -0.0207,-0.06 -0.0161,-0.0476 -0.0116,-0.0345 -0.007,-0.0212 z"
         style="fill:url(#Grad59);fill-rule:evenodd;stroke:none"
         transform="rotate(100.513,21.008226,24.463091)"
         id="path2477" />
      <path
         d="m 0,14.2338 c 2.88986,-2.8065 11.0417,-3.2604 11.0417,-3.2604 0,0 -3.09304,-7.0107 1.9817,-9.54817 4.0135,-2.007121 8.8935,0.43819 11.0637,3.27615 1.3354,-0.83513 3.0098,-3.26134 6.3978,-2.50883 3.2987,0.73318 2.1323,4.51595 2.1323,4.51595 0,0 10.9168,-0.69254 12.9205,8.1537 0.0906,0.3997 0.142,0.7798 0.1603,1.1422 0.1738,-0.7524 0.1763,-1.5895 -0.0355,-2.5222 C 43.6589,4.63614 33.9966,5.45402 33.9966,5.45402 c 0,0 0.1628,-3.53161 -3.1359,-4.26491 C 27.4739,0.436722 25.6734,2.36097 24.338,3.19611 22.1691,0.358019 16.5607,-1.0688 12.5472,0.938195 7.4713,3.47592 9.53863,9.47596 9.53863,9.47596 c 0,0 -8.01353,1.04614 -9.53863,4.75784"
         style="fill:#7885a7;fill-rule:nonzero;stroke:none"
         transform="translate(1.02464,3.93016)"
         id="path2479" />
    </g>
  </g>
</svg>
