<?xml version="1.0" encoding="UTF-8" standalone="no"?>
<svg
   width="45.860931pt"
   height="42.812943pt"
   version="1.1"
   viewBox="0 0 45.860931 42.812943"
   id="svg6053"
   sodipodi:docname="Weather Icons-page001.svg"
   xmlns:inkscape="http://www.inkscape.org/namespaces/inkscape"
   xmlns:sodipodi="http://sodipodi.sourceforge.net/DTD/sodipodi-0.dtd"
   xmlns="http://www.w3.org/2000/svg"
   xmlns:svg="http://www.w3.org/2000/svg">
  <sodipodi:namedview
     id="namedview6055"
     pagecolor="#ffffff"
     bordercolor="#000000"
     borderopacity="0.25"
     inkscape:showpageshadow="2"
     inkscape:pageopacity="0.0"
     inkscape:pagecheckerboard="0"
     inkscape:deskcolor="#d1d1d1"
     inkscape:document-units="pt"
     showgrid="false" />
  <defs
     id="defs2330">
    <clipPath
       id="Clip13">
      <path
         d="M 0,0 H 55.1014 V 54.9128 H 0 Z"
         id="path814" />
    </clipPath>
    <linearGradient
       x2="34.824001"
       y2="21.5128"
       id="Grad113"
       x1="-0.75952703"
       gradientUnits="userSpaceOnUse"
       y1="21.5128">
      <stop
         offset="0%"
         stop-color="#fdf6ce"
         stop-opacity="1"
         id="stop817" />
      <stop
         offset="13.3333%"
         stop-color="#fdf6ce"
         stop-opacity="1"
         id="stop819" />
      <stop
         offset="74.5455%"
         stop-color="#fbef72"
         stop-opacity="1"
         id="stop821" />
      <stop
         offset="100%"
         stop-color="#d59420"
         stop-opacity="1"
         id="stop823" />
    </linearGradient>
    <linearGradient
       x2="4.8342199"
       y2="2.4665899"
       id="Grad114"
       x1="0.042182799"
       gradientUnits="userSpaceOnUse"
       y1="2.4665899">
      <stop
         offset="0%"
         stop-color="#f5f3c2"
         stop-opacity="1"
         id="stop826" />
      <stop
         offset="55.1515%"
         stop-color="#fcd404"
         stop-opacity="1"
         id="stop828" />
      <stop
         offset="100%"
         stop-color="#dd6c1f"
         stop-opacity="1"
         id="stop830" />
    </linearGradient>
    <linearGradient
       x2="4.83354"
       y2="2.4670501"
       id="Grad115"
       x1="0.041805699"
       gradientUnits="userSpaceOnUse"
       y1="2.4670501">
      <stop
         offset="0%"
         stop-color="#f5f3c2"
         stop-opacity="1"
         id="stop833" />
      <stop
         offset="55.1515%"
         stop-color="#fcd404"
         stop-opacity="1"
         id="stop835" />
      <stop
         offset="100%"
         stop-color="#dd6c1f"
         stop-opacity="1"
         id="stop837" />
    </linearGradient>
    <linearGradient
       x2="4.8331099"
       y2="2.4671099"
       id="Grad116"
       x1="0.0413948"
       gradientUnits="userSpaceOnUse"
       y1="2.4671099">
      <stop
         offset="0%"
         stop-color="#f5f3c2"
         stop-opacity="1"
         id="stop840" />
      <stop
         offset="55.1515%"
         stop-color="#fcd404"
         stop-opacity="1"
         id="stop842" />
      <stop
         offset="100%"
         stop-color="#dd6c1f"
         stop-opacity="1"
         id="stop844" />
    </linearGradient>
    <linearGradient
       x2="4.83285"
       y2="2.4674001"
       id="Grad117"
       x1="0.041028101"
       gradientUnits="userSpaceOnUse"
       y1="2.4674001">
      <stop
         offset="0%"
         stop-color="#f5f3c2"
         stop-opacity="1"
         id="stop847" />
      <stop
         offset="55.1515%"
         stop-color="#fcd404"
         stop-opacity="1"
         id="stop849" />
      <stop
         offset="100%"
         stop-color="#dd6c1f"
         stop-opacity="1"
         id="stop851" />
    </linearGradient>
    <linearGradient
       x2="4.8330102"
       y2="2.46698"
       id="Grad118"
       x1="0.041243698"
       gradientUnits="userSpaceOnUse"
       y1="2.46698">
      <stop
         offset="0%"
         stop-color="#f5f3c2"
         stop-opacity="1"
         id="stop854" />
      <stop
         offset="55.1515%"
         stop-color="#fcd404"
         stop-opacity="1"
         id="stop856" />
      <stop
         offset="100%"
         stop-color="#dd6c1f"
         stop-opacity="1"
         id="stop858" />
    </linearGradient>
    <linearGradient
       x2="4.8337998"
       y2="2.46663"
       id="Grad119"
       x1="0.042038299"
       gradientUnits="userSpaceOnUse"
       y1="2.46663">
      <stop
         offset="0%"
         stop-color="#f5f3c2"
         stop-opacity="1"
         id="stop861" />
      <stop
         offset="55.1515%"
         stop-color="#fcd404"
         stop-opacity="1"
         id="stop863" />
      <stop
         offset="100%"
         stop-color="#dd6c1f"
         stop-opacity="1"
         id="stop865" />
    </linearGradient>
    <linearGradient
       x2="4.8326898"
       y2="2.46631"
       id="Grad120"
       x1="0.040933002"
       gradientUnits="userSpaceOnUse"
       y1="2.46631">
      <stop
         offset="0%"
         stop-color="#f5f3c2"
         stop-opacity="1"
         id="stop868" />
      <stop
         offset="55.1515%"
         stop-color="#fcd404"
         stop-opacity="1"
         id="stop870" />
      <stop
         offset="100%"
         stop-color="#dd6c1f"
         stop-opacity="1"
         id="stop872" />
    </linearGradient>
    <linearGradient
       x2="4.8336"
       y2="2.4671199"
       id="Grad121"
       x1="0.041755699"
       gradientUnits="userSpaceOnUse"
       y1="2.4671199">
      <stop
         offset="0%"
         stop-color="#f5f3c2"
         stop-opacity="1"
         id="stop875" />
      <stop
         offset="55.1515%"
         stop-color="#fcd404"
         stop-opacity="1"
         id="stop877" />
      <stop
         offset="100%"
         stop-color="#dd6c1f"
         stop-opacity="1"
         id="stop879" />
    </linearGradient>
    <linearGradient
       x2="4.8336601"
       y2="2.4668701"
       id="Grad122"
       x1="0.0413578"
       gradientUnits="userSpaceOnUse"
       y1="2.4668701">
      <stop
         offset="0%"
         stop-color="#f5f3c2"
         stop-opacity="1"
         id="stop882" />
      <stop
         offset="55.1515%"
         stop-color="#fcd404"
         stop-opacity="1"
         id="stop884" />
      <stop
         offset="100%"
         stop-color="#dd6c1f"
         stop-opacity="1"
         id="stop886" />
    </linearGradient>
    <linearGradient
       x2="4.8340502"
       y2="2.46702"
       id="Grad123"
       x1="0.041822601"
       gradientUnits="userSpaceOnUse"
       y1="2.46702">
      <stop
         offset="0%"
         stop-color="#f5f3c2"
         stop-opacity="1"
         id="stop889" />
      <stop
         offset="55.1515%"
         stop-color="#fcd404"
         stop-opacity="1"
         id="stop891" />
      <stop
         offset="100%"
         stop-color="#dd6c1f"
         stop-opacity="1"
         id="stop893" />
    </linearGradient>
    <linearGradient
       x2="4.83324"
       y2="2.4667799"
       id="Grad124"
       x1="0.041546199"
       gradientUnits="userSpaceOnUse"
       y1="2.4667799">
      <stop
         offset="0%"
         stop-color="#f5f3c2"
         stop-opacity="1"
         id="stop896" />
      <stop
         offset="55.1515%"
         stop-color="#fcd404"
         stop-opacity="1"
         id="stop898" />
      <stop
         offset="100%"
         stop-color="#dd6c1f"
         stop-opacity="1"
         id="stop900" />
    </linearGradient>
    <linearGradient
       x2="4.8329101"
       y2="2.4672101"
       id="Grad125"
       x1="0.041228399"
       gradientUnits="userSpaceOnUse"
       y1="2.4672101">
      <stop
         offset="0%"
         stop-color="#f5f3c2"
         stop-opacity="1"
         id="stop903" />
      <stop
         offset="55.1515%"
         stop-color="#fcd404"
         stop-opacity="1"
         id="stop905" />
      <stop
         offset="100%"
         stop-color="#dd6c1f"
         stop-opacity="1"
         id="stop907" />
    </linearGradient>
    <linearGradient
       x2="4.8336802"
       y2="2.46734"
       id="Grad126"
       x1="0.041404199"
       gradientUnits="userSpaceOnUse"
       y1="2.46734">
      <stop
         offset="0%"
         stop-color="#f5f3c2"
         stop-opacity="1"
         id="stop910" />
      <stop
         offset="55.1515%"
         stop-color="#fcd404"
         stop-opacity="1"
         id="stop912" />
      <stop
         offset="100%"
         stop-color="#dd6c1f"
         stop-opacity="1"
         id="stop914" />
    </linearGradient>
    <linearGradient
       x2="4.8340402"
       y2="2.4677401"
       id="Grad127"
       x1="0.042517401"
       gradientUnits="userSpaceOnUse"
       y1="2.4677401">
      <stop
         offset="0%"
         stop-color="#f5f3c2"
         stop-opacity="1"
         id="stop917" />
      <stop
         offset="55.1515%"
         stop-color="#fcd404"
         stop-opacity="1"
         id="stop919" />
      <stop
         offset="100%"
         stop-color="#dd6c1f"
         stop-opacity="1"
         id="stop921" />
    </linearGradient>
    <linearGradient
       x2="4.8329301"
       y2="2.4675901"
       id="Grad128"
       x1="0.041466799"
       gradientUnits="userSpaceOnUse"
       y1="2.4675901">
      <stop
         offset="0%"
         stop-color="#f5f3c2"
         stop-opacity="1"
         id="stop924" />
      <stop
         offset="55.1515%"
         stop-color="#fcd404"
         stop-opacity="1"
         id="stop926" />
      <stop
         offset="100%"
         stop-color="#dd6c1f"
         stop-opacity="1"
         id="stop928" />
    </linearGradient>
    <linearGradient
       x2="4.8336802"
       y2="2.4674201"
       id="Grad129"
       x1="0.042118002"
       gradientUnits="userSpaceOnUse"
       y1="2.4674201">
      <stop
         offset="0%"
         stop-color="#f5f3c2"
         stop-opacity="1"
         id="stop931" />
      <stop
         offset="55.1515%"
         stop-color="#fcd404"
         stop-opacity="1"
         id="stop933" />
      <stop
         offset="100%"
         stop-color="#dd6c1f"
         stop-opacity="1"
         id="stop935" />
    </linearGradient>
    <linearGradient
       x2="4.83389"
       y2="2.4674799"
       id="Grad130"
       x1="0.041515701"
       gradientUnits="userSpaceOnUse"
       y1="2.4674799">
      <stop
         offset="0%"
         stop-color="#f5f3c2"
         stop-opacity="1"
         id="stop938" />
      <stop
         offset="55.1515%"
         stop-color="#fcd404"
         stop-opacity="1"
         id="stop940" />
      <stop
         offset="100%"
         stop-color="#dd6c1f"
         stop-opacity="1"
         id="stop942" />
    </linearGradient>
    <linearGradient
       x2="4.8331099"
       y2="2.4665401"
       id="Grad131"
       x1="0.041422099"
       gradientUnits="userSpaceOnUse"
       y1="2.4665401">
      <stop
         offset="0%"
         stop-color="#f5f3c2"
         stop-opacity="1"
         id="stop945" />
      <stop
         offset="55.1515%"
         stop-color="#fcd404"
         stop-opacity="1"
         id="stop947" />
      <stop
         offset="100%"
         stop-color="#dd6c1f"
         stop-opacity="1"
         id="stop949" />
    </linearGradient>
    <linearGradient
       x2="4.83287"
       y2="2.4672699"
       id="Grad132"
       x1="0.0413872"
       gradientUnits="userSpaceOnUse"
       y1="2.4672699">
      <stop
         offset="0%"
         stop-color="#f5f3c2"
         stop-opacity="1"
         id="stop952" />
      <stop
         offset="55.1515%"
         stop-color="#fcd404"
         stop-opacity="1"
         id="stop954" />
      <stop
         offset="100%"
         stop-color="#dd6c1f"
         stop-opacity="1"
         id="stop956" />
    </linearGradient>
    <linearGradient
       x2="4.8339601"
       y2="2.4662299"
       id="Grad133"
       x1="0.0419681"
       gradientUnits="userSpaceOnUse"
       y1="2.4662299">
      <stop
         offset="0%"
         stop-color="#f5f3c2"
         stop-opacity="1"
         id="stop959" />
      <stop
         offset="55.1515%"
         stop-color="#fcd404"
         stop-opacity="1"
         id="stop961" />
      <stop
         offset="100%"
         stop-color="#dd6c1f"
         stop-opacity="1"
         id="stop963" />
    </linearGradient>
    <linearGradient
       x2="4.83355"
       y2="2.46703"
       id="Grad134"
       x1="0.0415303"
       gradientUnits="userSpaceOnUse"
       y1="2.46703">
      <stop
         offset="0%"
         stop-color="#f5f3c2"
         stop-opacity="1"
         id="stop966" />
      <stop
         offset="55.1515%"
         stop-color="#fcd404"
         stop-opacity="1"
         id="stop968" />
      <stop
         offset="100%"
         stop-color="#dd6c1f"
         stop-opacity="1"
         id="stop970" />
    </linearGradient>
    <linearGradient
       x2="4.8334098"
       y2="2.4676001"
       id="Grad135"
       x1="0.041588102"
       gradientUnits="userSpaceOnUse"
       y1="2.4676001">
      <stop
         offset="0%"
         stop-color="#f5f3c2"
         stop-opacity="1"
         id="stop973" />
      <stop
         offset="55.1515%"
         stop-color="#fcd404"
         stop-opacity="1"
         id="stop975" />
      <stop
         offset="100%"
         stop-color="#dd6c1f"
         stop-opacity="1"
         id="stop977" />
    </linearGradient>
    <linearGradient
       x2="4.8334298"
       y2="2.4668901"
       id="Grad136"
       x1="0.0421126"
       gradientUnits="userSpaceOnUse"
       y1="2.4668901">
      <stop
         offset="0%"
         stop-color="#f5f3c2"
         stop-opacity="1"
         id="stop980" />
      <stop
         offset="55.1515%"
         stop-color="#fcd404"
         stop-opacity="1"
         id="stop982" />
      <stop
         offset="100%"
         stop-color="#dd6c1f"
         stop-opacity="1"
         id="stop984" />
    </linearGradient>
    <linearGradient
       x2="4.8323498"
       y2="2.4672201"
       id="Grad137"
       x1="0.0407505"
       gradientUnits="userSpaceOnUse"
       y1="2.4672201">
      <stop
         offset="0%"
         stop-color="#f5f3c2"
         stop-opacity="1"
         id="stop987" />
      <stop
         offset="55.1515%"
         stop-color="#fcd404"
         stop-opacity="1"
         id="stop989" />
      <stop
         offset="100%"
         stop-color="#dd6c1f"
         stop-opacity="1"
         id="stop991" />
    </linearGradient>
    <linearGradient
       x2="4.8343101"
       y2="2.4668"
       id="Grad138"
       x1="0.0419758"
       gradientUnits="userSpaceOnUse"
       y1="2.4668">
      <stop
         offset="0%"
         stop-color="#f5f3c2"
         stop-opacity="1"
         id="stop994" />
      <stop
         offset="55.1515%"
         stop-color="#fcd404"
         stop-opacity="1"
         id="stop996" />
      <stop
         offset="100%"
         stop-color="#dd6c1f"
         stop-opacity="1"
         id="stop998" />
    </linearGradient>
    <linearGradient
       x2="29.957199"
       y2="15.9965"
       id="Grad139"
       x1="-0.96537399"
       gradientUnits="userSpaceOnUse"
       y1="15.9965">
      <stop
         offset="0%"
         stop-color="#fbef72"
         stop-opacity="1"
         id="stop1001" />
      <stop
         offset="13.3333%"
         stop-color="#fbef72"
         stop-opacity="1"
         id="stop1003" />
      <stop
         offset="50.9091%"
         stop-color="#fcd404"
         stop-opacity="1"
         id="stop1005" />
      <stop
         offset="100%"
         stop-color="#d59420"
         stop-opacity="1"
         id="stop1007" />
    </linearGradient>
    <linearGradient
       x2="34.463501"
       y2="10.5267"
       id="Grad140"
       x1="4.1663599"
       gradientUnits="userSpaceOnUse"
       y1="10.5267">
      <stop
         offset="0%"
         stop-color="#dceff6"
         stop-opacity="1"
         id="stop1010" />
      <stop
         offset="100%"
         stop-color="#3f6e7a"
         stop-opacity="1"
         id="stop1012" />
    </linearGradient>
    <linearGradient
       x2="17.239201"
       y2="8.9944496"
       id="Grad141"
       x1="0.195724"
       gradientUnits="userSpaceOnUse"
       y1="8.9944496">
      <stop
         offset="0%"
         stop-color="#dceff6"
         stop-opacity="1"
         id="stop1015" />
      <stop
         offset="100%"
         stop-color="#3f6e7a"
         stop-opacity="1"
         id="stop1017" />
    </linearGradient>
    <linearGradient
       x2="25.299801"
       y2="5.0960898"
       id="Grad142"
       x1="-4.9960899"
       gradientUnits="userSpaceOnUse"
       y1="5.0960898">
      <stop
         offset="0%"
         stop-color="#dceff6"
         stop-opacity="1"
         id="stop1020" />
      <stop
         offset="100%"
         stop-color="#3f6e7a"
         stop-opacity="1"
         id="stop1022" />
    </linearGradient>
  </defs>
  <g
     inkscape:groupmode="layer"
     id="Background"
     inkscape:label="Background"
     transform="translate(-168.54565,-92.821335)">
    <g
       id="broken_clouds"
       style="fill:none;stroke:none"
       clip-path="url(#Clip13)"
       clip-rule="evenodd"
       transform="translate(162.38,86.9084)">
      <path
         d="m 37.371,28.4287 2.3691,4.2926 -4.0774,-0.2127 1.3878,3.9078 -4.8904,-1.0675 0.4941,4.2763 -4.1459,-1.9588 -0.5399,4.1539 -3.7948,-3.1037 -2.3377,4.3092 -1.9034,-3.3448 -2.2907,3.1649 -1.8934,-4.6331 -3.2421,2.8329 -0.7382,-4.5262 -3.72837,1.9114 0.40473,-4.8853 -4.87563,0.518 1.90081,-3.9312 -4.37038,-0.401 3.0194,-3.9913 L 0.0288691,24.3964 3.54407,21.4526 0,19.2217 4.40832,17.0774 1.47563,13.1477 5.94324,12.7683 3.90701,8.66947 8.89008,9.14526 7.88728,4.95878 12.2384,6.40744 12.277,2.21833 16.416,4.84599 18.2221,0.288254 20.7202,3.66082 23.269,0 l 1.7469,4.06307 3.0399,-3.03737 1.134,4.87602 3.6505,-2.28278 0.0111,4.58542 3.9834,-1.29503 -1.1739,4.75827 4.896,0.2627 -2.3988,3.4342 4.2191,0.9804 -3.5359,3.5412 3.8672,1.8905 -3.8844,2.4356 3.2067,2.695 z"
         style="fill:url(#Grad113);fill-rule:evenodd;stroke:none"
         transform="rotate(69.8572,20.1971,28.921088)"
         id="path2747" />
      <path
         d="M 0,3.17874 4.96754,4.9342 3.97347,0 Z"
         style="fill:url(#Grad114);fill-rule:evenodd;stroke:none"
         transform="rotate(162.002,21.32453,14.123416)"
         id="path2749" />
      <path
         d="M 0,3.17883 4.96736,4.9349 3.97276,0 Z"
         style="fill:url(#Grad115);fill-rule:evenodd;stroke:none"
         transform="rotate(140.929,18.914555,15.69301)"
         id="path2751" />
      <path
         d="M 0,3.17805 4.96704,4.93418 3.97189,0 Z"
         style="fill:url(#Grad116);fill-rule:evenodd;stroke:none"
         transform="rotate(126.927,17.026073,16.272313)"
         id="path2753" />
      <path
         d="M 0,3.17952 4.96768,4.93445 3.97258,0 Z"
         style="fill:url(#Grad117);fill-rule:evenodd;stroke:none"
         transform="rotate(113.971,14.971823,16.475614)"
         id="path2755" />
      <path
         d="M 0,3.17861 4.96744,4.93435 3.97395,0 Z"
         style="fill:url(#Grad118);fill-rule:evenodd;stroke:none"
         transform="rotate(103.656,12.523821,16.521352)"
         id="path2757" />
      <path
         d="M 0,3.1783 4.96803,4.93347 3.97356,0 Z"
         style="fill:url(#Grad119);fill-rule:evenodd;stroke:none"
         transform="rotate(82.5829,8.5814447,18.648586)"
         id="path2759" />
      <path
         d="M 0,3.17734 4.96725,4.93386 3.97326,0 Z"
         style="fill:url(#Grad120);fill-rule:evenodd;stroke:none"
         transform="rotate(68.5816,4.3097979,19.918753)"
         id="path2761" />
      <path
         d="M 0,3.17856 4.96836,4.93396 3.97306,0 Z"
         style="fill:url(#Grad121);fill-rule:evenodd;stroke:none"
         transform="rotate(55.6266,-1.7728186,21.033347)"
         id="path2763" />
      <path
         d="M 0,3.1796 4.96823,4.93511 3.97434,0 Z"
         style="fill:url(#Grad122);fill-rule:evenodd;stroke:none"
         transform="rotate(44.3194,-10.25003,23.029282)"
         id="path2765" />
      <path
         d="M 0,3.17903 4.96787,4.93484 3.97364,0 Z"
         style="fill:url(#Grad123);fill-rule:evenodd;stroke:none"
         transform="rotate(23.2475,-39.38869,33.147972)"
         id="path2767" />
      <path
         d="M 0,3.17892 4.9673,4.9346 3.97288,0 Z"
         style="fill:url(#Grad124);fill-rule:evenodd;stroke:none"
         transform="rotate(9.24756,-136.38155,62.493335)"
         id="path2769" />
      <path
         d="M 0,3.17878 4.96662,4.93441 3.9729,0 Z"
         style="fill:url(#Grad125);fill-rule:evenodd;stroke:none"
         transform="rotate(-3.71,432.6449,-103.2738)"
         id="path2771" />
      <path
         d="M 0,3.17885 4.96756,4.93462 3.97343,0 Z"
         style="fill:url(#Grad126);fill-rule:evenodd;stroke:none"
         transform="rotate(-11.128,166.56239,-27.273836)"
         id="path2773" />
      <path
         d="M 0,3.17839 4.96789,4.93452 3.97319,0 Z"
         style="fill:url(#Grad127);fill-rule:evenodd;stroke:none"
         transform="rotate(-32.201,69.060723,0.68691978)"
         id="path2775" />
      <path
         d="M 0,3.17892 4.96702,4.93454 3.9727,0 Z"
         style="fill:url(#Grad128);fill-rule:evenodd;stroke:none"
         transform="rotate(-46.199,54.329784,5.1070593)"
         id="path2777" />
      <path
         d="M 0,3.17829 4.96749,4.93366 3.97367,0 Z"
         style="fill:url(#Grad129);fill-rule:evenodd;stroke:none"
         transform="rotate(-59.157,47.35196,7.2954672)"
         id="path2779" />
      <path
         d="M 0,3.17847 4.96822,4.93479 3.97326,0 Z"
         style="fill:url(#Grad130);fill-rule:evenodd;stroke:none"
         transform="rotate(-68.494,44.041136,7.7018216)"
         id="path2781" />
      <path
         d="M 0,3.17802 4.96744,4.93397 3.97313,0 Z"
         style="fill:url(#Grad131);fill-rule:evenodd;stroke:none"
         transform="rotate(-89.57,36.829667,10.378358)"
         id="path2783" />
      <path
         d="M 0,3.17876 4.96726,4.93408 3.97279,0 Z"
         style="fill:url(#Grad132);fill-rule:evenodd;stroke:none"
         transform="rotate(-103.568,33.924724,11.257614)"
         id="path2785" />
      <path
         d="M 0,3.17852 4.96762,4.93423 3.97287,0 Z"
         style="fill:url(#Grad133);fill-rule:evenodd;stroke:none"
         transform="rotate(-116.524,32.015539,11.683188)"
         id="path2787" />
      <path
         d="M 0,3.17828 4.96797,4.93382 3.97297,0 Z"
         style="fill:url(#Grad134);fill-rule:evenodd;stroke:none"
         transform="rotate(-126.551,30.547549,11.553423)"
         id="path2789" />
      <path
         d="M 0,3.17919 4.96806,4.93456 3.97421,0 Z"
         style="fill:url(#Grad135);fill-rule:evenodd;stroke:none"
         transform="rotate(-147.624,27.376113,13.212002)"
         id="path2791" />
      <path
         d="M 0,3.17865 4.96724,4.93413 3.97279,0 Z"
         style="fill:url(#Grad136);fill-rule:evenodd;stroke:none"
         transform="rotate(-161.621,25.68372,13.726735)"
         id="path2793" />
      <path
         d="M 0,3.17853 4.96642,4.93448 3.97233,0 Z"
         style="fill:url(#Grad137);fill-rule:evenodd;stroke:none"
         transform="rotate(-174.584,24.310159,13.870538)"
         id="path2795" />
      <path
         d="M 0,3.17814 4.96829,4.93387 3.97362,0 Z"
         style="fill:url(#Grad138);fill-rule:evenodd;stroke:none"
         transform="rotate(175.245,23.036086,13.682486)"
         id="path2797" />
      <path
         d="m 28.7174,6.2999 0.2498,0.33676 0.2398,0.34113 0.2297,0.34532 0.2197,0.34931 0.2096,0.35313 0.1995,0.35676 0.1896,0.3602 0.1797,0.36346 0.1696,0.36654 0.1597,0.36943 0.1499,0.37216 0.14,0.3746 0.1301,0.377 0.1203,0.3792 0.1107,0.3811 0.1007,0.3829 0.0909,0.3845 0.0814,0.3859 0.0716,0.3871 0.062,0.3883 0.0522,0.389 0.0428,0.3897 0.033,0.3902 0.0235,0.3906 0.014,0.3907 0.0045,0.3906 -0.005,0.3903 -0.0146,0.3899 -0.024,0.3893 -0.0333,0.3885 -0.0428,0.3875 -0.0522,0.3863 -0.0614,0.385 -0.0709,0.3834 -0.08,0.3818 -0.0894,0.3798 -0.0986,0.3777 -0.1079,0.3754 -0.117,0.373 -0.1262,0.3704 -0.1353,0.3674 -0.1445,0.3645 -0.1536,0.3614 -0.1627,0.3579 -0.1716,0.3543 -0.1808,0.3506 -0.1897,0.3466 -0.1986,0.3425 -0.2076,0.3383 -0.2165,0.3336 -0.2255,0.3291 -0.2343,0.3242 -0.2432,0.3191 -0.252,0.3138 -0.2607,0.3086 -0.2695,0.3028 -0.2784,0.2971 -0.287,0.2912 -0.2957,0.2849 -0.3044,0.2787 -0.313,0.2721 -0.3217,0.2654 -0.3302,0.2585 -0.3369,0.2499 -0.3411,0.2398 -0.3453,0.2298 -0.3493,0.2197 -0.3531,0.2095 -0.3568,0.1996 -0.3603,0.1896 -0.3635,0.1797 -0.3666,0.1697 -0.3694,0.1597 -0.3722,0.1499 -0.3747,0.1401 -0.377,0.1301 -0.3791,0.1204 -0.3812,0.1105 -0.3829,0.1009 -0.3845,0.091 -0.386,0.0813 -0.3871,0.0717 -0.3882,0.062 -0.3891,0.0523 -0.3897,0.0427 -0.3902,0.0332 -0.3906,0.0235 -0.3907,0.0139 -0.3906,0.0045 -0.3903,-0.005 -0.39,-0.0144 L 14.8263,31.948 14.4378,31.9147 14.0503,31.872 13.6639,31.8198 13.2789,31.7584 12.8955,31.6876 12.5138,31.6075 12.134,31.5181 11.7562,31.4196 11.3808,31.3118 11.0078,31.1947 10.6375,31.0685 10.27,30.9333 9.90548,30.7889 9.5442,30.6353 9.1863,30.4727 8.83197,30.3011 8.4814,30.1203 8.13477,29.9307 7.79225,29.7321 7.45406,29.5245 7.12035,29.3079 6.79133,29.0825 6.46715,28.8482 6.14804,28.6051 5.83415,28.3532 5.52569,28.0924 5.22281,27.8229 4.92573,27.5447 4.63461,27.2576 4.34966,26.962 4.07105,26.6576 3.79895,26.3446 3.53357,26.023 3.27507,25.6927 3.02513,25.3559 2.7853,25.0148 2.55555,24.6694 2.33589,24.32 2.12626,23.9669 1.92666,23.6101 1.73704,23.2499 1.55739,22.8864 1.3877,22.5198 1.22792,22.1502 1.07803,21.7781 0.938006,21.4034 0.807829,21.0264 0.687472,20.6472 0.576909,20.266 0.476115,19.8831 0.385066,19.4986 0.303736,19.1126 0.2321,18.7254 0.170134,18.3372 0.117812,17.9481 0.0751095,17.5584 0.0420023,17.1681 0.0184649,16.7775 0.00447243,16.3869 0,15.9962 0.00502267,15.6059 0.0195156,15.2159 0.0434537,14.8267 0.0768121,14.4381 0.119566,14.0505 0.17169,13.6642 0.233161,13.2792 0.303951,12.8957 0.384039,12.5139 0.473395,12.1342 0.571998,11.7564 0.679823,11.381 0.796844,11.008 0.923036,10.6376 1.05837,10.2701 1.20283,9.90557 1.35639,9.54427 1.51902,9.18636 1.69069,8.83202 1.87139,8.48143 2.06108,8.13478 2.25974,7.79225 2.46735,7.45404 2.68389,7.12031 2.90931,6.79127 3.14362,6.46708 3.38677,6.14794 3.63874,5.83404 3.89952,5.52555 4.16905,5.22266 4.44734,4.92557 4.73436,4.63443 5.03006,4.34946 5.33445,4.07083 5.64749,3.79871 5.96914,3.53331 6.29939,3.2748 6.63617,3.02487 6.97734,2.78505 7.32268,2.55533 7.67202,2.33567 8.02517,2.12606 8.38195,1.92647 8.74219,1.73686 9.10568,1.55723 9.47224,1.38754 9.84169,1.22777 10.2139,1.07789 10.5885,0.937878 10.9656,0.807711 11.3448,0.687364 11.7259,0.57681 12.1088,0.476026 12.4934,0.384986 12.8793,0.303665 13.2664,0.232037 13.6547,0.170081 14.0438,0.117768 14.4335,0.0750744 14.8237,0.041976 15.2143,0.0184473 15.605,0.00446363 15.9956,0 l 0.3903,0.00503152 0.39,0.01450178 0.3894,0.0239471 0.3885,0.0333676 0.3875,0.042763 0.3864,0.052133 0.3849,0.061481 0.3835,0.070799 0.3818,0.080098 0.3798,0.089366 0.3777,0.098614 0.3755,0.107835 0.373,0.117031 0.3704,0.126203 0.3675,0.135349 0.3645,0.14447 0.3612,0.15357 0.3581,0.16264 0.3543,0.17168 0.3506,0.18071 0.3466,0.18971 0.3426,0.19868 0.3382,0.20763 0.3338,0.21655 0.329,0.22543 0.3242,0.23433 0.3191,0.24317 0.314,0.25198 0.3084,0.26079 0.303,0.26956 0.297,0.27831 0.2912,0.28703 0.285,0.29573 0.2787,0.30441 0.2721,0.31305 0.2653,0.32168 z"
         style="fill:url(#Grad139);fill-rule:evenodd;stroke:none"
         transform="rotate(37.316,4.869856,38.741923)"
         id="path2799" />
      <path
         d="M 7.70263,17.3287 C 3.45535,17.3287 0,14.3917 0,10.7816 0,7.79431 2.37456,5.20543 5.7222,4.45365 6.30727,1.8786 8.67449,0 11.4542,0 c 3.2387,0 5.874,2.54922 5.874,5.68193 0,0.03354 0,0.06769 -0.0013,0.10184 3.4762,0.4661 7.7198,1.31029 7.5056,5.70893 -0.2852,5.836 -6.9829,5.836 -10.2033,5.836 H 7.70263"
         style="fill:#92a4ab;fill-rule:nonzero;stroke:none"
         transform="translate(7.87561,24.224)"
         id="path2801" />
      <path
         d="m 12.9357,13.3276 c -0.6254,0 -1.3966,-0.0143 -2.1432,-0.0281 -0.7161,-0.0133 -1.4578,-0.0272 -2.03185,-0.0272 -0.33171,0 -0.5814,0.0044 -0.76256,0.0134 -0.47736,0.0241 -0.9388,0.0362 -1.37332,0.0362 -3.94373,0 -6.142032,-0.9981 -6.5361597,-2.9665 C -0.158638,9.11868 0.115538,7.87815 0.860954,6.86248 1.47295,6.02857 2.65656,4.99992 4.88546,4.59233 c 0,-0.00906 0,-0.01812 0,-0.02718 C 4.88546,1.56819 7.69454,0 10.4706,0 c 2.612,0 4.4064,1.25962 4.9046,3.4015 2.9902,0.69376 5.1053,3.02022 5.1053,5.70347 0,3.36193 -3.0698,3.76083 -5.7798,4.11323 l -0.4712,0.0617 c -0.2485,0.0331 -0.6475,0.0477 -1.2938,0.0477"
         style="fill:#92a4ab;fill-rule:nonzero;stroke:none"
         transform="translate(31.5461,32.9496)"
         id="path2803" />
      <path
         d="M 6.06614,9.3073 C 2.04163,9.3073 0,7.97864 0,5.35818 0,3.28791 2.37456,1.61568 5.48474,1.42841 6.04411,0.547128 7.01842,0 8.08697,0 9.7871,0 11.1702,1.38312 11.1702,3.08326 c 0,0.03806 0,0.07625 -0.0024,0.11456 0.6328,0.63673 0.9645,1.37664 0.9645,2.16036 0,2.62046 -2.0404,3.94912 -6.06616,3.94912"
         style="fill:#92a4ab;fill-rule:nonzero;stroke:none"
         transform="translate(32.1231,22.623)"
         id="path2805" />
      <path
         d="M 8.20928,4.65346 8.0912,4.55497 7.96987,4.4596 7.84492,4.36773 7.71597,4.27979 7.58269,4.19614 7.41546,4.10031 7.24592,4.01198 7.07427,3.9311 6.90069,3.85763 6.72537,3.79151 6.5485,3.73269 6.37028,3.68112 6.19088,3.63675 6.01051,3.59951 5.82935,3.56939 5.6476,3.54631 5.46543,3.53021 5.28303,3.52106 5.10062,3.5188 4.91835,3.52338 4.73644,3.53474 4.55507,3.55286 4.37443,3.57764 4.1947,3.60906 4.01608,3.64707 3.83876,3.69161 3.66293,3.74264 3.48877,3.80008 3.31648,3.86391 3.14624,3.93406 2.97826,4.0105 2.8127,4.09315 2.64978,4.18198 2.48966,4.27693 2.33256,4.37794 2.17865,4.48498 2.02812,4.59799 1.88117,4.71692 1.73798,4.8417 1.59874,4.97232 1.46365,5.10868 1.33289,5.25076 1.20665,5.3985 1.08513,5.55184 0.968502,5.71076 0.85697,5.87516 0.75072,6.04504 0.657759,6.20621 0.571102,6.36919 0.490716,6.53383 0.416564,6.69999 0.34861,6.86751 0.286817,7.03623 0.231152,7.20598 0.181579,7.37664 0.138061,7.54805 0.100563,7.72005 0.0690493,7.89247 0.0434844,8.06519 0.0238326,8.23803 0.0100584,8.41085 0.00212606,8.5835 0,8.75581 0.00364458,8.92764 0.0130242,9.09882 0.0281032,9.26923 0.048846,9.43869 0.075217,9.60705 0.10718,9.77417 0.144701,9.93988 0.187742,10.104 l 0.048528,0.1625 0.053977,0.1606 0.059392,0.1585 0.064771,0.1564 0.070113,0.1541 0.075422,0.1516 0.080693,0.149 0.08593,0.1462 0.09113,0.1432 0.096295,0.1402 0.101427,0.1369 0.10652,0.1335 0.11157,0.13 0.1166,0.1263 0.12159,0.1224 0.12654,0.1185 0.13144,0.1142 0.13634,0.1099 -0.07445,0.1923 -0.06912,0.1927 -0.0638,0.1934 -0.05848,0.1938 -0.05321,0.1939 -0.04793,0.1941 -0.04268,0.1941 -0.03745,0.194 -0.03224,0.1938 -0.02705,0.1935 -0.02189,0.1929 -0.01672,0.1923 -0.01159,0.1917 -0.00646,0.1908 -0.00137,0.1898 0.00371,0.1888 0.00876,0.1875 0.01381,0.1862 0.01883,0.1848 0.02385,0.1832 0.02881,0.1815 0.03379,0.1797 0.03874,0.1778 0.04366,0.1756 0.04859,0.1736 0.05346,0.1712 0.05835,0.1688 0.06319,0.1663 0.06803,0.1637 0.07284,0.1608 0.07765,0.1579 0.08242,0.1548 0.08718,0.1518 0.09192,0.1485 0.09665,0.145 0.10135,0.1417 0.10603,0.1379 0.1107,0.1341 0.11534,0.1304 0.11998,0.1263 0.12459,0.1222 0.12916,0.118 0.13375,0.1136 0.1383,0.109 0.14283,0.1045 0.14734,0.0998 0.15185,0.0949 0.14237,0.0822 0.1442,0.077 0.14595,0.0716 0.14759,0.0666 0.14917,0.0613 0.15062,0.0562 0.15202,0.051 0.15331,0.0461 0.15452,0.041 0.15563,0.0358 0.15664,0.031 0.15759,0.0261 0.15844,0.021 0.15918,0.0162 0.15985,0.0114 0.16043,0.0064 0.16091,0.0018 0.16131,-0.0031 0.16162,-0.0078 0.16182,-0.0125 0.16196,-0.0172 0.16199,-0.0217 0.16193,-0.0265 0.1618,-0.031 0.16156,-0.0356 0.16124,-0.04 0.16082,-0.0445 0.16032,-0.049 0.15973,-0.0534 0.15905,-0.0579 0.15826,-0.062 0.15742,-0.0665 0.15645,-0.0709 0.15541,-0.075 0.15429,-0.0792 0.15306,-0.0835 0.15175,-0.0876 0.15034,-0.0918 0.14887,-0.0958 0.14724,-0.1 0.1456,-0.1041 0.1439,-0.1079 0.142,-0.112 0.14,-0.1161 0.138,-0.1198 0.1359,-0.1237 0.1337,-0.1277 0.1314,-0.1313 0.129,-0.1353 0.1266,-0.139 0.1239,-0.1428 0.1213,-0.1463 0.1185,-0.1501 0.1158,-0.1537 0.1127,-0.1575 0.1098,-0.1608 0.1066,-0.1645 0.1035,-0.1679 0.7644,-1.2741 2.7992,-4.6654 0.1267,-0.2122 0.1246,-0.2112 0.1224,-0.2103 0.1204,-0.2092 0.1179,-0.2082 L 16.6432,10.183 16.7563,9.97693 16.867,9.77195 16.9749,9.56807 17.0801,9.36531 17.1825,9.16371 17.282,8.96325 17.3785,8.76399 17.4719,8.56593 17.562,8.36909 17.649,8.17348 17.7325,7.97913 17.8126,7.78606 17.8891,7.5943 17.9621,7.40384 18.0314,7.21472 18.0967,7.02696 18.1582,6.84057 18.2157,6.65556 18.2692,6.47197 18.3184,6.28982 18.3634,6.10912 18.4041,5.92989 18.4403,5.75214 18.472,5.5759 18.4992,5.40118 18.5216,5.22802 18.5391,5.05642 18.5518,4.8864 18.5595,4.71799 18.5622,4.5512 18.5598,4.38606 18.552,4.22257 18.5389,4.06077 18.5205,3.90066 18.4966,3.74227 18.467,3.58562 18.4317,3.43073 18.3906,3.27761 18.3437,3.12629 18.2908,2.97678 18.232,2.82912 18.1669,2.68329 18.0956,2.53935 18.018,2.39729 17.934,2.25714 17.8436,2.11893 17.7464,1.98266 17.6427,1.84835 17.5322,1.71605 17.4148,1.58574 17.2906,1.45745 17.1593,1.33122 17.0207,1.20704 16.875,1.08495 16.7222,0.964964 16.5617,0.847097 16.3939,0.731369 16.2381,0.63085 16.0834,0.538304 15.9296,0.453601 15.777,0.376604 15.6253,0.30718 15.4747,0.245197 15.3251,0.190518 15.1764,0.14301 15.0288,0.10254 14.8821,0.0689734 14.7363,0.0421759 14.5917,0.0220139 14.4479,0.00835318 14.3049,0.00105988 14.1629,0 14.0219,0.00503954 13.8816,0.0160446 13.7423,0.0328809 13.604,0.0554148 13.4664,0.0835121 13.3297,0.117039 13.1939,0.155862 13.0587,0.199845 12.9246,0.248856 12.7912,0.302761 12.6585,0.361425 12.5267,0.424716 12.3956,0.492497 12.2653,0.564636 12.1358,0.640999 12.0069,0.721451 11.8788,0.80586 11.7515,0.894089 11.6248,0.986007 11.4989,1.08148 11.3736,1.18037 11.249,1.28254 11.125,1.38787 11.0017,1.49622 10.8791,1.60744 10.7571,1.72142 10.6356,1.83802 10.5148,1.9571 10.3946,2.07852 10.275,2.20216 10.156,2.32788 10.0375,2.45554 9.91957,2.58501 9.80217,2.71617 9.68532,2.84887 9.56897,2.98297 9.45314,3.11836 9.3378,3.25489 9.22295,3.39241 9.10857,3.53082 8.99465,3.66997 8.88118,3.80972 8.76816,3.94995 8.65558,4.09051 8.5434,4.23128 8.43163,4.37212 8.32026,4.51289 Z"
         style="fill:url(#Grad140);fill-rule:evenodd;stroke:none"
         transform="rotate(59.0365,-6.697571,31.928953)"
         id="path2807" />
      <path
         d="M 2.62558,11.402 2.46167,11.3527 2.29883,11.2971 2.13731,11.2343 1.97734,11.1632 1.81749,11.0826 1.6648,10.9959 1.5192,10.9036 1.38065,10.8056 1.24909,10.7023 1.12445,10.5938 1.0067,10.4803 0.895761,10.3621 0.791591,10.2392 0.694133,10.1119 0.603329,9.98035 0.519127,9.84479 0.441469,9.70539 0.3703,9.56234 0.305567,9.41584 0.247213,9.26607 0.195184,9.11323 0.149423,8.95751 0.109877,8.79909 0.0764894,8.63818 0.0492053,8.47496 0.0279695,8.30963 0.0127268,8.14237 0.00342207,7.97338 0,7.80285 0.00240543,7.63097 0.0105831,7.45794 0.0244779,7.28394 0.0440346,7.10916 0.069198,6.9338 0.0999128,6.75806 0.136123,6.58211 0.177776,6.40616 0.224815,6.23039 0.277182,6.05499 0.334826,5.88017 0.397691,5.7061 0.465721,5.53299 0.53886,5.36102 0.617054,5.19038 0.704402,5.01283 0.795188,4.84071 0.88936,4.67411 0.986871,4.51313 1.08767,4.35784 1.19172,4.20833 1.29896,4.0647 1.40934,3.92701 1.52282,3.79535 1.63934,3.66983 1.75886,3.55053 1.88135,3.43752 2.00672,3.3309 2.13496,3.23074 2.266,3.13714 2.3998,3.05018 2.5363,2.96995 2.67547,2.89653 2.81724,2.83002 2.96159,2.77049 3.10845,2.71803 3.25776,2.67273 3.4095,2.63467 3.56361,2.60395 3.72004,2.58063 3.87875,2.56483 4.03968,2.55661 4.20278,2.55607 4.368,2.56328 4.53531,2.57834 4.70465,2.60133 4.87598,2.63235 5.04923,2.67147 5.22436,2.71877 5.40134,2.77436 5.51991,2.60678 5.64235,2.44378 5.7685,2.28543 5.89825,2.13179 6.03142,1.98293 6.1679,1.8389 6.30754,1.69978 6.4502,1.56563 6.59574,1.43651 6.74403,1.3125 6.89493,1.19363 7.04829,1.08 7.20399,0.971663 7.36186,0.868679 7.52179,0.771115 7.68361,0.679037 7.84722,0.59251 8.01245,0.511597 8.17917,0.436361 8.34725,0.36687 8.51654,0.303187 8.68691,0.245377 8.85821,0.193502 9.0303,0.14763 9.20305,0.107825 9.37632,0.0741505 9.54997,0.0466714 9.72385,0.0254521 9.89783,0.0105574 10.0718,0.00205188 10.2455,0 l 0.1735,0.00446638 0.173,0.01104912 0.1723,0.0176966 0.1717,0.0244086 0.1708,0.031185 0.1697,0.0380263 0.1686,0.044932 0.1674,0.051901 0.1658,0.058937 0.1643,0.066036 0.1626,0.0732 0.1622,0.081243 0.1524,0.08485 0.1427,0.088395 0.1333,0.091876 0.1243,0.095292 0.1151,0.098645 0.1065,0.101931 0.0979,0.10516 0.0898,0.10832 0.0816,0.11142 0.0739,0.11446 0.0662,0.11742 0.0589,0.12033 0.0517,0.12317 0.0448,0.12595 0.0382,0.12866 0.0315,0.13132 0.0255,0.1339 0.0193,0.13643 0.0136,0.13888 0.008,0.14128 0.0026,0.14361 L 13.7427,3.09026 13.7354,3.23835 13.7232,3.38857 13.7068,3.54086 13.686,3.69518 13.6613,3.85144 13.6329,4.00959 13.6008,4.16956 13.5655,4.33127 13.527,4.4947 13.4857,4.65974 13.4417,4.82635 13.3953,4.99447 13.3467,5.16402 13.2962,5.33494 13.2439,5.50718 13.1901,5.68067 13.1349,5.85533 13.0787,6.03111 13.0216,6.20796 12.964,6.38578 12.906,6.56454 12.8477,6.74417 12.7896,6.92458 12.7716,6.97795 12.75,7.0372 l -0.0249,0.06494 -0.0283,0.07038 -0.0313,0.07559 -0.0344,0.0806 -0.0374,0.08538 -0.04,0.08992 -0.0426,0.09425 -0.045,0.09836 -0.0475,0.10223 -0.0496,0.10589 -0.0518,0.10931 -0.0536,0.11254 -0.0554,0.1155 -0.0571,0.11827 -0.0587,0.1208 -0.06,0.12311 -0.0613,0.12519 -0.0625,0.12705 -0.0634,0.12869 -0.0643,0.13011 -0.0651,0.1313 -0.0656,0.13225 -0.0661,0.13302 -0.0664,0.13351 -0.0666,0.13381 -0.0667,0.13388 -0.0666,0.13372 -0.0664,0.1334 -0.066,0.1327 -0.0656,0.1319 -0.0649,0.1309 -0.0642,0.1296 -0.0633,0.128 -0.0623,0.1264 -0.0612,0.1244 -0.0599,0.1222 -0.0584,0.1199 -0.057,0.1172 -0.0552,0.1144 -0.0534,0.1113 -0.0514,0.108 -0.0494,0.1045 -0.0472,0.1008 -0.0448,0.0968 -0.0423,0.0926 -0.0396,0.0882 -0.037,0.0836 -0.034,0.0785 -0.031,0.0737 -0.0752,0.1795 L 9.99245,12.8527 9.9163,13.028 9.83965,13.2011 9.76254,13.3718 9.68495,13.5404 9.60689,13.7066 9.52837,13.8704 9.4494,14.0317 9.36996,14.1906 9.29007,14.3469 9.20974,14.5007 9.12897,14.6518 9.04776,14.8002 8.96611,14.9459 8.88402,15.0889 8.80153,15.229 8.71859,15.3662 8.63525,15.5006 8.55149,15.6319 8.46731,15.7603 8.38274,15.8856 8.29777,16.0077 8.21238,16.1268 8.12661,16.2426 8.04046,16.3551 7.95392,16.4644 7.86699,16.5703 7.7797,16.6728 7.69202,16.7719 7.60398,16.8673 7.51557,16.9594 7.4268,17.0479 7.33768,17.1326 7.24821,17.2137 7.15839,17.2911 7.06823,17.3646 6.97773,17.4344 6.88688,17.5003 6.79572,17.5622 6.70422,17.6201 6.6124,17.6741 6.52026,17.7239 6.42781,17.7697 6.33504,17.8112 6.24197,17.8486 6.1486,17.8817 6.05493,17.9104 5.96098,17.9349 5.86672,17.9549 5.77219,17.9704 5.67736,17.9814 5.58227,17.9879 5.4869,17.9899 5.39125,17.987 5.29535,17.9796 5.1992,17.9675 5.10277,17.9504 5.0061,17.9285 4.86152,17.8891 4.719,17.8442 4.57869,17.7938 4.44073,17.7378 4.30531,17.6765 4.17254,17.6097 4.04261,17.5375 3.91566,17.46 3.79183,17.3773 3.67129,17.2891 3.5542,17.1959 3.4407,17.0973 3.33094,16.9935 3.22508,16.8847 3.12328,16.7709 3.02569,16.6518 2.93246,16.5278 2.84374,16.3988 2.75969,16.2648 2.68047,16.1258 2.60623,15.982 2.53711,15.8334 2.47328,15.6799 2.41489,15.5215 2.36209,15.3585 2.31502,15.1908 2.27386,15.0184 2.23876,14.8411 2.20986,14.6595 2.18731,14.4731 2.17129,14.2822 2.16193,14.0868 2.15939,13.8869 2.16382,13.6826 2.17539,13.4739 2.19423,13.2607 2.22052,13.0432 2.25439,12.8214 2.29599,12.5953 2.3455,12.3651 2.40307,12.1305 2.46883,11.8918 2.54295,11.649 Z"
         style="fill:url(#Grad141);fill-rule:evenodd;stroke:none"
         transform="rotate(64.593,-1.2536473,52.205213)"
         id="path2809" />
      <path
         d="M 4.466,0.580133 4.30346,0.447825 4.12614,0.329119 3.94105,0.229074 3.75107,0.14748 3.55731,0.0840573 3.36091,0.0385238 3.16296,0.0105984 2.9646,0 2.76695,0.00644742 2.5711,0.0296595 2.37818,0.069355 2.18932,0.125253 2.00562,0.197071 1.82822,0.28453 1.65821,0.387348 1.49672,0.505243 1.34487,0.637934 1.20378,0.785141 1.07456,0.94658 0.958328,1.12197 0.877308,1.2686 0.807962,1.41846 0.75015,1.57096 0.703734,1.72556 0.668571,1.8817 0.64452,2.03884 0.631444,2.19641 0.629201,2.35384 0.637651,2.5106 0.656654,2.66612 0.686069,2.81983 0.725756,2.9712 0.775575,3.11966 0.835386,3.26465 0.905049,3.40562 0.984423,3.54201 1.07337,3.67327 0.974721,3.84663 0.880826,4.02057 0.791681,4.19493 0.707288,4.36957 0.627648,4.54432 0.55276,4.71905 0.482623,4.89356 0.417242,5.06775 0.356612,5.24143 0.300738,5.41446 0.249619,5.58668 0.203254,5.75794 0.161644,5.92809 0.124789,6.09698 0.0926908,6.26443 0.065349,6.43031 0.042764,6.59446 0.0249362,6.75672 0.011866,6.91695 0.00355379,7.07498 0,7.23066 0.00120501,7.38385 0.00716921,7.53438 0.017893,7.68209 0.0333768,7.82686 0.0536209,7.9685 0.0786258,8.10687 0.108392,8.24182 0.142919,8.37318 0.18221,8.50081 0.226261,8.62455 0.275076,8.74426 0.328654,8.85976 0.386996,8.97093 0.4501,9.07759 0.51797,9.17958 0.590604,9.27677 0.668004,9.369 0.75017,9.4561 0.837101,9.53793 0.928798,9.61434 1.02526,9.68516 1.12649,9.75025 1.2295,9.80996 1.33346,9.86592 1.43837,9.918 l 0.10587,0.04804 0.10681,0.04386 0.10778,0.0395 0.10872,0.0351 0.10969,0.0303 0.11063,0.0256 0.11161,0.0207 0.11256,0.0156 0.11351,0.0103 0.11448,0.0049 0.11545,-6e-4 L 2.77189,10.185 2.88926,10.1728 3.0076,10.1547 3.1269,10.1304 3.24719,10.0998 3.36842,10.0627 3.49064,10.0191 3.61382,9.96867 3.73797,9.91136 3.8631,9.84701 3.98921,9.77544 4.11629,9.69653 4.24434,9.61011 4.37336,9.51604 4.50338,9.41415 4.63436,9.30431 4.76633,9.18636 4.89928,9.06016 5.03321,8.92553 5.16812,8.78236 5.30402,8.63046 5.4409,8.46971 5.57877,8.29994 5.71763,8.12102 5.85748,7.93277 5.99831,7.73507 6.14013,7.52773 6.28295,7.31065 6.42676,7.08363 6.57156,6.84655 6.71248,6.60742 6.845,6.37388 6.96925,6.14586 7.08536,5.9233 7.19346,5.70612 7.29368,5.49424 7.38617,5.28761 7.47104,5.08612 7.54843,4.88975 7.61848,4.6984 7.68131,4.51199 7.73706,4.33048 7.78586,4.15378 7.82785,3.98181 7.86314,3.81451 7.89187,3.65182 7.91419,3.49364 7.93022,3.33993 7.94009,3.1906 7.94393,3.04558 7.94189,2.90481 7.93408,2.7682 7.92063,2.6357 7.90169,2.50723 7.87738,2.38271 7.84785,2.26209 7.81321,2.14528 7.7736,2.03222 7.72916,1.92283 7.68001,1.81704 7.62628,1.71479 7.56811,1.616 7.50564,1.52059 7.43899,1.42851 7.36831,1.33967 7.29369,1.25401 7.21531,1.17146 7.13328,1.09194 7.04773,1.01539 6.95879,0.941727 6.8666,0.870887 6.7713,0.802798 6.673,0.737389 6.57185,0.674589 6.44229,0.603485 6.3085,0.542906 6.17073,0.492698 6.02925,0.452703 5.88431,0.422765 5.73615,0.402728 5.58505,0.392435 5.43124,0.391733 5.27499,0.400462 5.11655,0.418467 4.95617,0.445594 4.79413,0.481684 4.63065,0.526583 Z"
         style="fill:url(#Grad142);fill-rule:evenodd;stroke:none"
         transform="rotate(59.0364,0.91257744,46.922803)"
         id="path2811" />
      <path
         d="m 15.5656,7.28072 c 0.0428,-0.25227 0.0698,-0.50906 0.0698,-0.77259 0,-2.71043 -2.2828,-4.90714 -5.1004,-4.90714 -2.61572,0 -4.76874,1.89635 -5.0625,4.3381 C 2.72462,6.37741 0.55692,8.16971 0,10.4504 0.953496,8.52247 3.31214,7.08108 5.77728,6.68769 6.07104,4.24618 7.61818,2.28154 10.2339,2.28154 c 2.8176,0 4.694,2.16709 4.694,4.87715 0,0.26365 -0.093,0.89144 -0.1346,1.14382 3.7258,0.47761 8.2387,0.71482 8.0465,4.66009 -0.0281,0.5756 -0.126,1.0862 -0.2815,1.5425 0.3366,-0.6101 0.5386,-1.342 0.5814,-2.224 C 23.3331,8.33593 19.2915,7.75857 15.5656,7.28072 Z M 42.4581,18.6568 c 0,-2.5061 -2.153,-4.5918 -5.0013,-5.0462 -0.2607,-2.1735 -1.9069,-3.2849 -4.235,-3.2849 -2.508,0 -4.8115,1.3788 -4.8115,3.7913 0,0.2349 0.0244,0.4634 0.0624,0.688 -3.1237,0.3371 -4.6732,1.9687 -4.9131,3.7264 0.6817,-1.3625 2.4418,-2.4528 5.1138,-2.7413 -0.0367,-0.2246 0,-0.9763 0,-1.211 0,-2.4125 1.7393,-3.5719 4.2473,-3.5719 2.3281,0 3.9743,1.1113 4.235,3.285 2.8483,0.4543 5.0013,2.54 5.0013,5.0461 0,0.342 -0.0404,0.6448 -0.1138,0.9146 0.2644,-0.4106 0.4149,-0.9295 0.4149,-1.5961 z M 28.9855,2.09304 c 0.3513,-0.82987 1.1714,-1.412496 2.1286,-1.412496 1.2754,0 2.3097,1.034276 2.3097,2.309686 0,0.1437 -0.082,0.55288 -0.1077,0.68936 0.6279,0.52203 1.0697,0.89205 1.0697,1.58508 0,0.29694 -0.0342,0.58348 -0.1089,0.85606 0.2925,-0.45545 0.41,-0.97944 0.41,-1.53734 0,-0.69315 -0.3745,-1.33232 -1.0024,-1.85436 0.0257,-0.13648 0.0404,-0.2765 0.0404,-0.42057 C 33.7249,1.03306 32.6906,0 31.4152,0 30.458,0 29.6379,0.5814 29.2866,1.41127 26.682,1.4431 24.5449,2.60259 24.1679,4.10958 c 0.7589,-1.1617 2.623,-1.99084 4.8176,-2.01654 z"
         style="fill:#eef7fb;fill-rule:nonzero;stroke:none"
         transform="translate(8.79484,23.3978)"
         id="path2813" />
    </g>
  </g>
</svg>
