<?xml version="1.0" encoding="UTF-8" standalone="no"?>
<svg
   width="120.00902pt"
   height="62.082901pt"
   version="1.1"
   viewBox="0 0 120.00902 62.082901"
   id="svg233565"
   sodipodi:docname="Document-3-page001.svg"
   inkscape:version="1.2.2 (b0a8486541, 2022-12-01)"
   inkscape:export-filename="../Github Repos/own-weather-app/src/assets/icons/Document-3-page001.svg"
   inkscape:export-xdpi="96"
   inkscape:export-ydpi="96"
   xmlns:inkscape="http://www.inkscape.org/namespaces/inkscape"
   xmlns:sodipodi="http://sodipodi.sourceforge.net/DTD/sodipodi-0.dtd"
   xmlns="http://www.w3.org/2000/svg"
   xmlns:svg="http://www.w3.org/2000/svg">
  <sodipodi:namedview
     id="namedview233567"
     pagecolor="#00000f"
     bordercolor="#000000"
     borderopacity="0.25"
     inkscape:showpageshadow="2"
     inkscape:pageopacity="0"
     inkscape:pagecheckerboard="0"
     inkscape:deskcolor="#d1d1d1"
     inkscape:document-units="pt"
     showgrid="false"
     inkscape:zoom="0.7594697"
     inkscape:cx="408.17955"
     inkscape:cy="528"
     inkscape:window-width="1920"
     inkscape:window-height="1014"
     inkscape:window-x="0"
     inkscape:window-y="0"
     inkscape:window-maximized="1"
     inkscape:current-layer="Background" />
  <defs
     id="defs233522">
    <clipPath
       id="Clip0">
      <path
         d="M 0,0 H 120.009 V 62.0829 H 0 Z"
         id="path233501" />
    </clipPath>
  </defs>
  <g
     inkscape:groupmode="layer"
     id="Background"
     inkscape:label="Background"
     transform="translate(-187.201,-87.643799)">
    <g
       id="Cloudy3"
       style="fill:none;stroke:none"
       clip-path="url(#Clip0)"
       clip-rule="evenodd"
       transform="translate(187.201,87.6438)"
       inkscape:export-filename="../Github Repos/own-weather-app/src/assets/icons/Cloudy3.svg"
       inkscape:export-xdpi="96"
       inkscape:export-ydpi="96">
      <path
         d="M 38.5847,0 C 25.0904,0.00478125 13.9373,10.5203 13.1341,23.9891 5.62594,25.4841 0,32.0822 0,40.043 c 0,9.07 7.30097,16.371 16.371,16.371 h 57.5137 14.1254 c 6.3224,0 11.4128,-5.8539 11.4128,-13.1278 0,-7.2722 -5.0904,-13.1261 -11.4128,-13.1261 H 87.2467 C 85.7198,21.1283 77.8961,14.5175 68.7368,14.5159 66.4817,14.5191 64.2473,14.9271 62.1371,15.7223 58.1846,6.20447 48.8915,0 38.5847,0"
         style="fill:#8f8f8f;fill-rule:nonzero;stroke:none"
         transform="translate(20.5865)"
         id="path233524" />
      <path
         d="M 38.5847,0 C 25.092,0.00478125 13.9373,10.5187 13.1357,23.9891 5.62594,25.4841 0,32.0822 0,40.043 c 0,9.07 7.30097,16.371 16.371,16.371 h 57.5153 14.1254 c 6.3224,0 11.4128,-5.8555 11.4128,-13.1278 0,-7.2722 -5.0904,-13.1261 -11.4128,-13.1261 H 87.2483 C 85.7198,21.1267 77.8977,14.5159 68.7368,14.5159 66.4833,14.5175 64.2473,14.9271 62.1387,15.7223 58.1846,6.20287 48.8915,0 38.5847,0"
         style="fill:#ffffff;fill-rule:nonzero;stroke:none"
         transform="translate(0,5.66897)"
         id="path233526" />
    </g>
  </g>
</svg>
