<?xml version="1.0" encoding="UTF-8" standalone="no"?>
<svg
   width="54.552094pt"
   height="27.779999pt"
   version="1.1"
   viewBox="0 0 54.552094 27.779999"
   id="svg6053"
   sodipodi:docname="Weather Icons-page001.svg"
   xmlns:inkscape="http://www.inkscape.org/namespaces/inkscape"
   xmlns:sodipodi="http://sodipodi.sourceforge.net/DTD/sodipodi-0.dtd"
   xmlns="http://www.w3.org/2000/svg"
   xmlns:svg="http://www.w3.org/2000/svg">
  <sodipodi:namedview
     id="namedview6055"
     pagecolor="#ffffff"
     bordercolor="#000000"
     borderopacity="0.25"
     inkscape:showpageshadow="2"
     inkscape:pageopacity="0.0"
     inkscape:pagecheckerboard="0"
     inkscape:deskcolor="#d1d1d1"
     inkscape:document-units="pt"
     showgrid="false" />
  <defs
     id="defs2330">
    <clipPath
       id="Clip39">
      <path
         d="M 0,0 H 54.5521 V 27.78 H 0 Z"
         id="path1878" />
    </clipPath>
    <linearGradient
       x2="27.780001"
       y2="27.2756"
       id="Grad277"
       x1="-1.39153e-14"
       gradientUnits="userSpaceOnUse"
       y1="27.2756">
      <stop
         offset="0%"
         stop-color="#c7e6f9"
         stop-opacity="1"
         id="stop1881" />
      <stop
         offset="100%"
         stop-color="#e8f5fc"
         stop-opacity="1"
         id="stop1883" />
    </linearGradient>
    <linearGradient
       x2="26.634701"
       y2="26.689301"
       id="Grad278"
       x1="-6.03343e-05"
       gradientUnits="userSpaceOnUse"
       y1="26.689301">
      <stop
         offset="0%"
         stop-color="#a1caed"
         stop-opacity="1"
         id="stop1886" />
      <stop
         offset="100%"
         stop-color="#d3ecfb"
         stop-opacity="1"
         id="stop1888" />
    </linearGradient>
    <linearGradient
       x2="9.1660604"
       y2="11.2473"
       id="Grad279"
       x1="-1.39153e-14"
       gradientUnits="userSpaceOnUse"
       y1="11.2473">
      <stop
         offset="0%"
         stop-color="#c7e6f9"
         stop-opacity="1"
         id="stop1891" />
      <stop
         offset="100%"
         stop-color="#ffffff"
         stop-opacity="1"
         id="stop1893" />
    </linearGradient>
    <linearGradient
       x2="6.4799099"
       y2="7.9509902"
       id="Grad280"
       x1="1.7350199e-05"
       gradientUnits="userSpaceOnUse"
       y1="7.9509902">
      <stop
         offset="0%"
         stop-color="#c7e6f9"
         stop-opacity="1"
         id="stop1896" />
      <stop
         offset="100%"
         stop-color="#ffffff"
         stop-opacity="1"
         id="stop1898" />
    </linearGradient>
  </defs>
  <g
     inkscape:groupmode="layer"
     id="Background"
     inkscape:label="Background"
     transform="translate(-393.69901,-264.75699)">
    <g
       id="cloud_with_wind"
       style="fill:none;stroke:none"
       clip-path="url(#Clip39)"
       clip-rule="evenodd"
       transform="translate(393.699,264.757)">
      <path
         d="M 5.14202,21.1189 5.0494,21.0343 4.95071,20.9598 l 0.08857,0.0294 0.09021,0.0286 0.09186,0.0278 0.0935,0.027 0.09519,0.0261 0.09686,0.0252 0.09855,0.0244 0.10027,0.0234 0.10199,0.0223 0.10372,0.0215 0.10546,0.0203 0.10722,0.0192 0.10899,0.0182 0.11077,0.0172 0.11256,0.0159 0.11437,0.0147 0.11618,0.0136 0.11802,0.0122 0.11985,0.0111 0.12172,0.0097 0.12359,0.0085 0.12546,0.0071 0.12735,0.0056 0.12926,0.0043 0.13117,0.0028 0.1331,0.0015 0.13504,-2e-4 0.13701,-0.0017 0.13896,-0.0032 0.14094,-0.0047 0.14293,-0.0064 0.14493,-0.0081 0.14696,-0.0096 0.14897,-0.0114 0.15102,-0.0131 0.15307,-0.015 0.15513,-0.0166 0.32239,-0.0395 0.31565,-0.0453 0.3091,-0.0512 0.3025,-0.0567 0.296,-0.0623 0.2895,-0.0675 0.2832,-0.073 0.2769,-0.078 0.2707,-0.0831 0.2646,-0.088 0.2585,-0.0927 0.2525,-0.0976 0.2465,-0.1021 0.2406,-0.1065 0.2349,-0.1109 0.229,-0.115 0.2235,-0.1192 0.2179,-0.1233 0.2124,-0.127 0.2068,-0.1309 0.2016,-0.1345 0.1962,-0.138 0.191,-0.1414 0.1856,-0.1447 0.1807,-0.148 0.1757,-0.1509 0.1707,-0.154 0.1657,-0.1567 0.161,-0.1595 0.1562,-0.162 0.1515,-0.1645 0.1469,-0.167 0.1423,-0.1691 0.1379,-0.1713 0.1334,-0.1733 0.1291,-0.1753 0.1248,-0.177 0.1207,-0.1787 0.1164,-0.1801 0.1125,-0.1817 0.1085,-0.183 0.1045,-0.1842 0.1007,-0.1853 0.0969,-0.1862 0.0931,-0.1871 0.0896,-0.1878 0.0859,-0.1885 0.0825,-0.189 0.079,-0.1893 0.0756,-0.1896 0.0723,-0.1898 0.0692,-0.1899 0.066,-0.1897 0.0629,-0.1896 0.0598,-0.1892 0.057,-0.1889 0.0539,-0.1883 0.0512,-0.1876 0.0485,-0.1869 0.0459,-0.186 0.0432,-0.185 0.0406,-0.1838 0.0382,-0.1827 0.0249,-0.1282 0.023,-0.1291 0.0213,-0.1299 0.0194,-0.1309 0.0176,-0.1316 0.016,-0.1325 0.014,-0.1332 0.0122,-0.1339 0.0104,-0.1346 0.0084,-0.1353 0.0066,-0.136 0.0048,-0.1365 0.0028,-0.1372 10e-4,-0.1377 L 19.5709,9.99499 19.5681,9.85462 19.5634,9.71486 19.5569,9.57577 19.5489,9.43735 19.5391,9.29966 19.5276,9.16273 19.5146,9.02658 19.5,8.89127 19.484,8.75681 19.4666,8.62324 19.4478,8.49061 19.4276,8.35893 19.4063,8.22825 19.3836,8.09861 19.3599,7.97003 19.3349,7.84255 19.309,7.71619 19.282,7.59102 19.2541,7.46704 19.2252,7.34429 19.1955,7.22282 19.165,7.10265 19.1337,6.98383 19.1017,6.86638 19.0691,6.75034 19.0359,6.63573 19.002,6.52261 18.9677,6.41099 18.933,6.30093 18.8977,6.19244 18.8622,6.08557 18.8263,5.98034 18.7902,5.8768 18.7539,5.77498 18.7174,5.6749 18.6808,5.57661 18.6442,5.48014 18.6076,5.38553 18.571,5.29281 18.5345,5.202 l 0.0716,0.12365 0.0691,0.12367 0.0666,0.1237 0.064,0.12371 0.0617,0.12371 0.0592,0.1237 0.0569,0.12367 0.0546,0.12363 0.0523,0.1236 0.0502,0.12355 0.0479,0.12347 0.0458,0.1234 0.0438,0.12332 0.0418,0.12321 0.0396,0.1231 0.0379,0.12298 0.0358,0.12286 0.0341,0.1227 0.0321,0.12255 0.0305,0.12239 0.0287,0.12221 0.027,0.12203 0.0254,0.12183 0.0237,0.12162 0.0223,0.12139 0.0207,0.12118 0.0192,0.12092 0.0178,0.12069 0.0164,0.1204 0.0151,0.12014 0.0138,0.11985 0.0126,0.11956 0.0114,0.11926 0.0102,0.11892 0.009,0.1186 0.0081,0.11827 0.007,0.11791 0.006,0.11755 0.005,0.11717 0.0042,0.11683 0.0033,0.1164 0.0024,0.116 0.0017,0.1155 10e-4,0.1152 4e-4,0.1147 -0.0049,0.4835 -0.0094,0.2425 -0.0156,0.2396 -0.0215,0.2369 -0.0273,0.2339 -0.0328,0.2312 -0.0385,0.2281 -0.0435,0.2255 -0.0487,0.2224 -0.0538,0.2196 -0.0585,0.2167 -0.0631,0.2137 -0.0677,0.2109 -0.072,0.208 -0.0761,0.205 -0.0801,0.2021 -0.0839,0.1993 -0.0877,0.1962 -0.0912,0.1932 -0.0945,0.1902 -0.0976,0.1874 -0.1007,0.1844 -0.1035,0.1814 -0.1064,0.1783 -0.1087,0.1754 -0.1112,0.1725 -0.1134,0.1693 -0.1154,0.1664 -0.1174,0.1633 -0.1191,0.1603 -0.1207,0.1572 -0.122,0.1542 -0.1232,0.1512 -0.1244,0.1481 -0.1253,0.145 -0.1261,0.142 -0.1267,0.1389 -0.127,0.1358 -0.1275,0.1327 -0.1274,0.1296 -0.1274,0.1264 -0.1273,0.1234 -0.1268,0.1203 -0.1263,0.117 -0.1256,0.1141 -0.1249,0.1108 -0.1237,0.1077 -0.1225,0.1045 -0.1212,0.1014 -0.1198,0.0981 -0.118,0.095 -0.1163,0.0918 -0.1142,0.0886 -0.1121,0.0854 -0.1097,0.0822 -0.1073,0.079 -0.1047,0.0757 -0.1018,0.0725 -0.0989,0.0694 -0.0959,0.066 -0.0924,0.0628 -0.0891,0.0594 -0.0854,0.0563 -0.0817,0.053 -0.0909,0.0667 -0.1324,0.0704 -0.1851,0.0164 -0.1843,0.0205 -0.1828,0.024 -0.1805,0.027 -0.1774,0.0298 -0.1735,0.0319 -0.169,0.0337 -0.1636,0.0348 -0.1574,0.0357 -0.1506,0.0359 -0.1429,0.0358 -0.1345,0.0351 -0.1253,0.0339 -0.1153,0.0325 -0.1047,0.0303 -0.0932,0.0279 -0.0809,0.0247 -0.0679,0.0215 -0.0542,0.0175 -0.0396,0.0129 -0.0244,0.0082 -0.0083,0.0029 -0.1336,0.057 -0.1324,0.0579 -0.1314,0.0585 -0.1302,0.0592 -0.1291,0.06 -0.128,0.0607 -0.12697,0.0614 -0.12585,0.062 -0.1248,0.0627 -0.12373,0.0634 -0.12268,0.064 L 9.28581,22.0168 9.1652,22.0822 9.04559,22.148 8.927,22.2145 8.80941,22.2816 8.6928,22.3493 8.57718,22.4176 9.30436,21.6305 7.94241,21.6685 7.81541,21.6709 7.68235,21.671 7.54414,21.6688 7.40167,21.6642 7.25588,21.6572 7.10765,21.6478 6.95788,21.6358 6.80748,21.6212 6.65736,21.6041 6.50842,21.5843 6.36156,21.5616 6.21768,21.5363 6.0777,21.5081 5.94251,21.477 5.81301,21.4431 5.69012,21.4062 5.57473,21.3661 5.46775,21.3231 5.37009,21.2769 5.28265,21.2275 5.20632,21.1748 Z m 12.31738,33.4225 0.1252,0.0098 0.1945,-0.0038 0.1928,-0.0111 0.1907,-0.0184 0.1886,-0.0254 0.1864,-0.0326 0.1841,-0.0393 0.1816,-0.046 0.1789,-0.0525 0.1761,-0.059 0.1733,-0.0652 0.1701,-0.0714 0.1671,-0.0774 0.1637,-0.0832 0.1602,-0.0888 0.1567,-0.0945 0.153,-0.0999 0.149,-0.1053 0.1451,-0.1103 0.141,-0.1153 0.1367,-0.1202 0.1323,-0.1249 0.1278,-0.1295 0.123,-0.1339 0.1184,-0.1383 0.1133,-0.1424 0.1082,-0.1464 0.1031,-0.1503 0.0978,-0.154 0.0922,-0.1576 0.0866,-0.1611 0.0809,-0.1644 0.0749,-0.1677 0.0691,-0.1705 0.0628,-0.1735 0.0564,-0.1763 0.05,-0.1788 0.0435,-0.1814 0.0368,-0.1836 0.03,-0.1858 0.023,-0.188 0.0158,-0.1898 0.0087,-0.1915 0.0012,-0.1933 -0.0062,-0.1946 -0.0139,-0.1961 0.167,-0.0399 0.1654,-0.0442 0.1634,-0.0484 0.1616,-0.0525 0.1596,-0.0566 0.1575,-0.0606 0.1556,-0.0644 0.1533,-0.0684 0.1511,-0.0722 0.1489,-0.0759 0.1466,-0.0796 0.1441,-0.0831 0.1419,-0.0867 0.1393,-0.0903 0.1367,-0.0935 0.1342,-0.0969 0.1314,-0.1003 0.1289,-0.1034 0.126,-0.1065 0.1231,-0.1096 0.1203,-0.1128 0.1174,-0.1155 0.1143,-0.1185 0.1114,-0.1214 0.1081,-0.124 0.105,-0.1268 0.1018,-0.1294 0.0984,-0.1319 0.0953,-0.1344 0.0916,-0.1369 0.0883,-0.1391 0.0848,-0.1415 0.0812,-0.1439 0.0776,-0.1459 0.0738,-0.1479 0.0701,-0.1501 0.0664,-0.152 0.0624,-0.1539 0.0585,-0.1557 0.0546,-0.1575 0.0505,-0.1592 0.0464,-0.1609 0.0422,-0.1624 0.0381,-0.164 0.0338,-0.1654 0.0295,-0.1667 0.0251,-0.1682 0.0207,-0.1693 0.0161,-0.1705 0.0117,-0.1716 0.0071,-0.1727 0.0023,-0.1737 L 27.6486,42.6316 27.6434,42.4825 27.6349,42.334 27.623,42.1863 27.6077,42.0393 27.5891,41.893 27.5673,41.7476 27.5422,41.6031 27.5139,41.4596 27.4825,41.317 27.4478,41.1755 27.41,41.035 l -0.0409,-0.1393 -0.0438,-0.1382 -0.047,-0.1371 -0.0499,-0.1357 -0.053,-0.1344 -0.0558,-0.1331 -0.0589,-0.1317 -0.0617,-0.1302 -0.0645,-0.1288 -0.0673,-0.1272 -0.0702,-0.1257 -0.0729,-0.124 -0.0757,-0.1222 -0.0783,-0.1206 -0.081,-0.1188 -0.0836,-0.1172 -0.0863,-0.1152 -0.0889,-0.1132 -0.0914,-0.1112 -0.0939,-0.1095 -0.0964,-0.1072 -0.0989,-0.1051 -0.1014,-0.1031 -0.1037,-0.1009 -0.1061,-0.0986 -0.1083,-0.0963 -0.1108,-0.094 -0.113,-0.0917 -0.1153,-0.0894 -0.1175,-0.0868 -0.1195,-0.0842 -0.122,-0.0817 -0.1238,-0.0791 -0.1261,-0.0765 -0.1281,-0.0738 0.0664,-0.1182 0.0634,-0.1196 0.0602,-0.1207 0.0572,-0.1218 0.054,-0.1229 0.0509,-0.1239 0.0476,-0.1249 0.0446,-0.126 0.0412,-0.1268 0.0381,-0.1276 0.0349,-0.1287 0.0315,-0.1294 0.0283,-0.1301 0.0251,-0.1308 0.0218,-0.1316 0.0185,-0.1321 0.015,-0.1328 0.0119,-0.1334 0.0085,-0.1338 0.005,-0.1344 0.0017,-0.1347 -0.0036,-0.1988 -0.0107,-0.1971 -0.0177,-0.1952 -0.0244,-0.193 -0.0314,-0.191 -0.0378,-0.1887 -0.0443,-0.1863 -0.0507,-0.1837 -0.0569,-0.1812 -0.063,-0.1783 -0.0691,-0.1755 -0.0749,-0.1724 -0.0806,-0.1694 -0.0862,-0.166 -0.0917,-0.1626 -0.0972,-0.1591 -0.1022,-0.1556 -0.1074,-0.1517 -0.1125,-0.1478 -0.1173,-0.144 -0.122,-0.1396 -0.1267,-0.1355 -0.1312,-0.1311 -0.1355,-0.1267 -0.1398,-0.1219 -0.1439,-0.1173 -0.148,-0.1123 -0.1518,-0.1074 -0.1554,-0.1023 -0.1593,-0.0969 -0.1627,-0.0917 -0.1661,-0.0862 -0.1692,-0.0805 -0.1725,-0.0749 -0.1755,-0.069 -0.1784,-0.063 -0.1811,-0.0568 -0.1837,-0.0507 -0.1863,-0.0443 -0.1886,-0.0378 -0.191,-0.0312 -0.193,-0.0245 -0.1951,-0.0176 -0.197,-0.0108 -0.1987,-0.0035 -0.1629,0.0028 -0.1642,0.0084 -0.1666,0.0146 -0.1697,0.0207 0.015,-0.1127 0.023,-0.1151 0.0305,-0.1173 0.0376,-0.1191 0.0443,-0.1209 0.0507,-0.1224 0.0565,-0.1239 0.0623,-0.1252 0.0673,-0.1262 0.0723,-0.127 0.0766,-0.1278 0.0808,-0.1283 0.0843,-0.1286 0.0876,-0.1289 0.0905,-0.1289 0.093,-0.1288 0.0951,-0.1284 0.097,-0.1277 0.0981,-0.1272 0.0993,-0.1263 0.0997,-0.1252 0.1,-0.124 0.0999,-0.1227 0.0993,-0.121 0.0983,-0.1194 0.0969,-0.1174 0.3844,-0.4675 0.1077,-0.1354 0.1058,-0.1377 0.1043,-0.14 0.1025,-0.1423 0.1007,-0.1444 0.0989,-0.1466 0.0973,-0.1489 0.0954,-0.1509 0.0936,-0.1531 0.0918,-0.1551 0.09,-0.157 0.0882,-0.1593 0.0863,-0.161 0.0845,-0.1631 0.0826,-0.165 0.0808,-0.1668 0.0789,-0.1687 0.077,-0.1705 0.075,-0.1723 0.0732,-0.1741 0.0713,-0.1757 0.0694,-0.1775 0.0674,-0.1792 0.0654,-0.1808 0.0635,-0.1824 0.0614,-0.1839 0.0597,-0.1856 0.0575,-0.187 0.0554,-0.1885 0.0536,-0.19 0.0514,-0.1913 0.0495,-0.1928 0.0475,-0.1941 0.0453,-0.1955 0.0433,-0.1967 0.0413,-0.198 0.039,-0.1993 0.0371,-0.2005 0.0349,-0.2016 0.0328,-0.2028 0.0306,-0.2038 0.0285,-0.205 0.0264,-0.206 0.0241,-0.207 0.0221,-0.2081 0.0199,-0.2089 0.0177,-0.2099 0.0154,-0.2109 0.0132,-0.2116 0.011,-0.2125 0.0088,-0.2134 0.0065,-0.214 0.0043,-0.2148 0.0021,-0.2156 -3e-4,-0.2163 -0.0025,-0.2169 -0.0049,-0.2175 -0.0071,-0.2181 -0.0096,-0.2186 -0.0117,-0.2192 -0.0142,-0.2196 -0.0166,-0.2202 -0.0188,-0.2206 -0.017,-0.1521 -0.0179,-0.1509 -0.0185,-0.15 -0.0193,-0.1487 -0.02,-0.1476 L 24.2176,12.6771 24.1962,12.5317 24.1741,12.3874 24.1514,12.2442 24.128,12.102 24.1039,11.961 24.079,11.8211 24.0537,11.6822 24.0276,11.5445 24.0009,11.4078 23.9735,11.2722 23.9455,11.1376 23.917,11.0041 23.8877,10.8717 23.8578,10.7403 23.8274,10.61 23.7964,10.4807 23.7647,10.3524 23.7325,10.2252 23.6997,10.099 23.6663,9.9739 23.6324,9.84977 23.5979,9.72668 23.5629,9.60458 23.5272,9.48352 23.4911,9.36345 23.4545,9.24438 23.4173,9.12633 23.3796,9.00926 23.3414,8.89318 23.3026,8.7781 23.2635,8.664 23.2237,8.55088 23.1835,8.43872 23.1429,8.32755 23.1018,8.21734 23.0602,8.10808 23.0181,7.99979 22.9756,7.89245 22.9326,7.78606 22.8893,7.68062 22.8455,7.57612 22.8012,7.47256 22.7565,7.36992 22.7114,7.26823 22.666,7.16745 22.6201,7.0676 22.5739,6.96866 22.5272,6.87063 22.4802,6.77352 22.4327,6.6773 22.385,6.58199 22.3369,6.48757 22.2884,6.39404 22.2397,6.30141 22.1905,6.20966 22.1411,6.11878 l 0.0833,0.13055 0.0821,0.131 0.0807,0.13146 0.0794,0.13191 0.0781,0.13236 0.0768,0.13282 0.0755,0.13326 0.0741,0.13371 0.0728,0.13415 0.0715,0.13461 0.0701,0.13505 0.0688,0.13551 0.0674,0.13593 0.0662,0.13639 0.0648,0.13685 0.0635,0.13727 0.0622,0.13772 0.0608,0.13817 0.0595,0.1386 0.0583,0.13906 0.0568,0.13949 0.0555,0.13993 0.0543,0.14037 0.0527,0.1408 0.0516,0.14125 0.0503,0.14169 0.0488,0.14212 0.0475,0.14256 0.0463,0.14303 0.0448,0.1434 0.0435,0.1439 0.0423,0.1443 0.0407,0.1447 0.0396,0.1452 0.0381,0.1456 0.037,0.146 0.0355,0.1465 0.0341,0.1469 0.0329,0.1473 0.0315,0.1477 0.0301,0.1482 0.0289,0.1486 0.0276,0.1491 0.0262,0.1494 0.0247,0.1499 0.0235,0.1504 0.0221,0.1506 0.0209,0.1512 0.0194,0.1516 0.0181,0.1521 0.0169,0.1524 0.0154,0.1528 0.0141,0.1533 0.0127,0.1537 0.0116,0.1541 0.01,0.1546 0.0087,0.155 0.0074,0.1553 0.006,0.1558 0.0048,0.1562 0.0033,0.1567 0.0021,0.157 6e-4,0.1574 -5e-4,0.1301 -0.0013,0.1302 -0.0023,0.1304 -0.0034,0.1305 -0.0041,0.1305 -0.005,0.1306 -0.006,0.1307 -0.007,0.1307 -0.0078,0.1309 -0.0089,0.1309 -0.0097,0.131 -0.0106,0.1312 -0.0116,0.1311 -0.0125,0.1312 -0.0133,0.1313 -0.0143,0.1315 -0.0153,0.1315 -0.0162,0.1314 -0.017,0.1316 -0.0181,0.1317 -0.0189,0.1317 -0.0198,0.1317 -0.0208,0.1318 -0.0217,0.132 -0.0226,0.1319 -0.0235,0.132 -0.0244,0.132 -0.0253,0.1321 -0.0263,0.1321 -0.0272,0.1322 -0.0282,0.1322 -0.029,0.1323 -0.0298,0.1323 -0.0309,0.1323 -0.0318,0.1323 -0.0326,0.1325 -0.0336,0.1323 -0.0345,0.1325 -0.0354,0.1325 -0.0364,0.1324 -0.0372,0.1326 -0.038,0.1325 -0.0392,0.1326 -0.0399,0.1325 -0.0409,0.1327 -0.0417,0.1326 -0.0428,0.1325 -0.0435,0.1327 -0.0446,0.1327 -0.0454,0.1326 -0.0464,0.1326 -0.0472,0.1327 -0.0481,0.1327 -0.0491,0.1326 -0.05,0.1326 -0.0507,0.1327 -0.0518,0.1326 -0.0528,0.1327 -0.0535,0.1325 -0.0544,0.1327 -0.0555,0.1326 -0.0563,0.1325 -0.0571,0.1326 -0.0661,0.1518 -0.0683,0.1732 -0.0566,0.1711 -0.045,0.1685 -0.0336,0.1657 -0.0225,0.1626 -0.0116,0.159 -9e-4,0.1551 0.0098,0.1508 0.0201,0.1461 0.0301,0.1411 0.0401,0.1359 0.0499,0.1302 0.0593,0.1242 0.0687,0.1177 0.0778,0.111 0.0868,0.1039 0.0955,0.0965 0.1039,0.0887 0.1123,0.0804 0.1204,0.0721 0.1283,0.0631 0.136,0.054 0.1435,0.0443 0.1473,0.0337 0.1481,0.0226 0.1482,0.0117 0.1479,0.0011 0.1467,-0.0092 0.1452,-0.0194 0.1428,-0.0294 0.1399,-0.039 0.1365,-0.0485 0.1324,-0.0577 0.1277,-0.0665 0.1224,-0.0753 0.1164,-0.0839 0.1098,-0.0919 0.1027,-0.1 0.095,-0.1077 0.0865,-0.1153 0.0775,-0.1225 0.0255,-0.0452 0.0262,-0.0491 0.0268,-0.053 0.0275,-0.0566 0.028,-0.0604 0.0288,-0.0641 0.0292,-0.0677 0.0298,-0.0714 0.0302,-0.0748 0.0306,-0.0783 0.031,-0.0816 0.0314,-0.0851 0.0317,-0.0885 0.032,-0.0917 0.0323,-0.0948 0.0324,-0.0981 0.0327,-0.1012 0.0327,-0.1043 0.0329,-0.1072 0.033,-0.1103 0.0329,-0.1131 0.0329,-0.116 0.0329,-0.1189 0.0328,-0.1216 0.0327,-0.1243 0.0326,-0.127 0.0323,-0.1295 0.0321,-0.1322 0.0318,-0.1347 0.0316,-0.137 0.031,-0.1396 0.0309,-0.1418 0.0303,-0.1442 0.03,-0.1465 0.0294,-0.1486 0.029,-0.1508 0.0283,-0.1529 0.0278,-0.155 0.027,-0.157 0.0265,-0.1589 0.0258,-0.1608 0.025,-0.1627 0.0241,-0.1645 0.0234,-0.1662 0.0225,-0.1678 0.0216,-0.1697 0.0207,-0.1711 0.0197,-0.1727 0.0188,-0.1742 0.0177,-0.1756 0.0165,-0.1771 0.0156,-0.1784 0.0143,-0.1796 0.0131,-0.181 0.0119,-0.1821 0.0106,-0.1832 0.0094,-0.1844 0.008,-0.1854 0.0066,-0.1863 0.0053,-0.1873 0.0038,-0.1882 0.0023,-0.189 7e-4,-0.1898 -3e-4,-0.1309 -0.0011,-0.1307 -0.0019,-0.1302 -0.0025,-0.1301 -0.0034,-0.1297 -0.004,-0.1293 L 27.762,16.2651 27.7565,16.1365 27.7503,16.0082 27.7432,15.8802 27.7355,15.7526 27.727,15.6255 27.7177,15.4988 27.7078,15.3725 27.697,15.2466 27.6855,15.1213 27.6733,14.9963 27.6603,14.872 27.6466,14.748 27.5771,14.2076 27.4983,13.6803 27.4104,13.1658 27.3139,12.6641 27.2092,12.1749 27.0964,11.6981 26.976,11.2337 26.8482,10.7813 26.7134,10.341 26.5719,9.91248 26.4242,9.49569 26.2705,9.09045 26.111,8.69663 25.9462,8.31408 25.7763,7.94265 25.6019,7.58219 25.4231,7.23258 25.2402,6.89364 25.0536,6.56525 24.8637,6.24726 24.6707,5.93953 24.4751,5.64191 24.2771,5.35423 24.0771,5.07639 23.8752,4.80821 23.6722,4.54957 23.468,4.30032 23.2631,4.06029 23.0577,3.82936 22.8524,3.60739 22.6474,3.39421 22.4429,3.1897 22.2395,2.9937 22.0371,2.80606 21.8365,2.62664 21.6379,2.45532 21.4414,2.29193 21.2475,2.13632 21.0566,1.98835 20.8688,1.8479 20.6847,1.71479 20.5046,1.58889 20.3287,1.47005 20.1573,1.35814 19.9909,1.253 19.8297,1.15449 19.674,1.06247 19.5243,0.976783 19.3807,0.897292 19.2437,0.823852 19.1136,0.756318 18.9908,0.694544 18.8755,0.638385 18.7681,0.587695 18.6689,0.542331 18.5782,0.502147 18.4965,0.466999 18.4239,0.436742 18.3609,0.411229 18.3077,0.390318 18.2647,0.373861 18.2322,0.361715 18.2107,0.353736 18.1984,0.34874 18.1621,0.334673 18.102,0.312923 18.0187,0.284875 17.9128,0.251913 17.7845,0.215424 17.6344,0.176793 17.4631,0.137405 17.2709,0.0986468 17.0584,0.0619027 16.826,0.0285586 16.5742,0 16.5995,0.0273105 16.67,0.103224 l 0.1076,0.11549 0.1362,0.146038 0.157,0.167561 0.1691,0.180055 0.1733,0.183523 0.1693,0.177969 0.1569,0.16337 0.1364,0.13977 0.1076,0.10712 0.0707,0.06546 L 17.8509,1.41596 17.6515,1.29122 17.4566,1.17508 17.266,1.06722 17.0802,0.967339 16.8994,0.875138 16.724,0.79031 16.5542,0.712552 16.3905,0.641557 16.2328,0.577024 16.0815,0.518648 15.9371,0.466124 15.7996,0.419149 15.6695,0.377418 15.5471,0.340628 15.4324,0.308474 15.3259,0.280652 15.2279,0.256859 15.1386,0.236789 15.0581,0.22014 14.987,0.206606 14.9256,0.195884 14.8739,0.18767 14.8323,0.181659 14.8011,0.177549 14.7807,0.175032 14.7711,0.173808 14.7492,0.170246 14.6874,0.160606 14.5913,0.146461 14.4671,0.12938 14.3202,0.110937 14.1567,0.0926998 13.9824,0.0762412 13.8029,0.0631321 13.6242,0.0549435 13.4521,0.0532464 13.2925,0.0596122 13.151,0.0756116 13.0336,0.102816 l 0.0089,0.003333 0.0259,0.009989 0.0421,0.016632 0.0572,0.023263 0.0712,0.02988 0.0846,0.036485 0.0966,0.043077 0.1079,0.049654 0.1181,0.056219 0.1274,0.062771 0.1358,0.069311 0.1431,0.075837 0.1493,0.082349 0.1547,0.088849 0.1593,0.095336 0.1625,0.10181 0.165,0.108269 0.1665,0.11472 0.1669,0.12116 0.1666,0.12757 0.165,0.13399 0.1627,0.14038 0.1591,0.14676 0.1548,0.15313 0.1495,0.15949 0.1431,0.16582 0.1358,0.17216 0.1276,0.17848 0.1339,1.30234 0.0401,0.12274 0.0388,0.12293 0.0376,0.12311 0.0361,0.12328 0.0348,0.12345 0.0335,0.12361 0.0321,0.12375 0.0307,0.12391 0.0295,0.12402 0.028,0.12417 0.0267,0.12428 0.0253,0.1244 0.024,0.12449 0.0227,0.12459 0.0212,0.12469 0.0199,0.12476 0.0185,0.12485 0.0172,0.1249 0.0158,0.12497 0.0145,0.125 0.0131,0.12507 0.0116,0.1251 0.0104,0.12511 0.0089,0.12514 0.0076,0.12517 0.0063,0.12516 0.0047,0.12516 0.0035,0.12514 0.0021,0.12514 7e-4,0.12511 -0.0016,0.18889 -0.0047,0.18738 -0.0078,0.18585 -0.0108,0.18426 -0.0139,0.18266 -0.0169,0.18099 -0.02,0.17929 -0.0227,0.17756 -0.0258,0.17579 -0.0288,0.17395 -0.0316,0.17211 -0.0344,0.17021 -0.0373,0.16828 -0.04,0.1663 -0.0429,0.1643 -0.0456,0.1622 -0.0484,0.1601 -0.051,0.158 -0.0538,0.1558 -0.0563,0.1536 -0.059,0.1514 -0.0615,0.149 -0.0642,0.1467 -0.0665,0.1443 -0.0693,0.142 -0.0716,0.1394 -0.0742,0.137 -0.0766,0.1344 -0.079,0.1319 -0.0814,0.1293 -0.0837,0.1266 -0.086,0.1238 -0.0883,0.1212 -0.0907,0.1184 -0.0929,0.1156 -0.0951,0.1126 -0.0973,0.11 -0.0994,0.1068 -0.1016,0.1039 -0.1038,0.101 -0.1059,0.0978 -0.1078,0.0947 -0.1099,0.0917 -0.112,0.0885 -0.114,0.0852 -0.1159,0.082 -0.1177,0.0787 -0.1197,0.0754 -0.1217,0.072 -0.1235,0.0685 -0.1253,0.0651 -0.1271,0.0617 -0.1289,0.0582 -0.1306,0.0544 -0.1323,0.051 -0.1341,0.0473 -0.1358,0.0436 -0.1373,0.0398 -0.1389,0.0361 -0.1407,0.0323 -0.1421,0.0284 -0.056,0.01 -0.0693,0.0115 -0.0817,0.0127 -0.093,0.0129 -0.1035,0.0131 -0.1129,0.0125 -0.1215,0.0114 -0.1289,0.0097 -0.1356,0.0077 -0.1411,0.005 -0.1459,0.0018 -0.1495,-0.0019 -0.1523,-0.0062 -0.154,-0.0108 -0.1549,-0.0162 -0.1547,-0.022 L 10.3245,15.0732 10.173,15.0381 10.0244,14.9955 9.87987,14.945 9.74025,14.886 9.60653,14.8182 9.47967,14.7409 9.36065,14.6535 9.25039,14.5557 9.14989,14.4467 9.0601,14.3262 8.98196,14.1935 8.91404,14.0509 8.84155,13.9125 8.76457,13.7782 8.68322,13.6482 8.59758,13.5226 8.50777,13.4013 8.41386,13.2846 8.31598,13.1723 8.2142,13.0646 8.10865,12.9615 7.99939,12.8631 7.88656,12.7695 7.77023,12.6808 7.65051,12.5968 7.52751,12.5178 7.40131,12.4438 7.27202,12.3749 7.13971,12.3111 7.00454,12.2525 6.86655,12.199 6.72587,12.1509 6.58259,12.1081 6.43681,12.0708 6.28862,12.0389 6.13814,12.0125 5.98545,11.9918 5.83065,11.9766 5.67385,11.9672 5.51515,11.9636 5.35463,11.9658 5.18797,11.9744 5.02275,11.9894 4.85913,12.0107 4.69731,12.0381 4.53747,12.0716 4.37978,12.1111 4.22444,12.1564 4.07162,12.2073 3.9215,12.2639 3.77427,12.3258 3.6301,12.3931 3.48918,12.4656 3.3517,12.5432 3.21783,12.6258 3.08775,12.7132 2.96165,12.8052 2.8397,12.9019 2.72209,13.0032 2.609,13.1087 l -0.10838,0.1098 -0.1035,0.1139 -0.09844,0.1179 -0.09319,0.1218 -0.08776,0.1254 -0.08214,0.1292 -0.07637,0.1327 -0.07038,0.1359 -0.06422,0.1393 -0.0579,0.1425 -0.04858,0.1324 -0.04501,0.133 -0.04143,0.1333 -0.03787,0.1334 -0.03432,0.1336 -0.0308,0.1339 -0.02727,0.1339 -0.02377,0.134 -0.02027,0.1339 -0.01679,0.1337 -0.01332,0.1336 -0.00986,0.1333 -0.00642,0.133 -0.00298,0.1327 4.3e-4,0.1322 0.00384,0.1317 0.00723,0.1312 0.01062,0.1305 0.01399,0.1299 0.01734,0.1291 0.02067,0.1283 0.02403,0.1274 0.02733,0.1263 0.03064,0.1255 0.03393,0.1243 0.03721,0.1233 0.04049,0.122 0.04373,0.1207 0.04698,0.1195 0.05021,0.118 0.05343,0.1165 0.05663,0.115 0.05982,0.1135 0.063,0.1117 0.06617,0.1101 0.06932,0.1083 0.07248,0.1065 0.07559,0.1045 0.0787,0.1026 0.08183,0.1006 0.08491,0.0984 0.08798,0.0962 0.09105,0.0942 0.0941,0.0918 0.09715,0.0893 0.10153,0.0884 0.10773,0.0886 0.11402,0.0885 0.12049,0.0881 0.12706,0.0875 0.13375,0.0866 0.14059,0.0853 0.14754,0.0836 0.15463,0.0819 0.16184,0.0795 0.16917,0.0771 -0.14368,-0.0124 -0.14663,0.0039 -0.14868,0.0203 -0.1498,0.0371 -0.15002,0.054 -0.15651,0.0745 -0.14692,0.0893 -0.13657,0.1031 -0.12546,0.1157 -0.11358,0.1269 -0.10094,0.1372 -0.08753,0.1463 -0.07336,0.1541 -0.05844,0.1608 -0.04273,0.1665 -0.02628,0.1709 -0.00904,0.174 0.00302,0.1018 0.00984,0.1085 0.01788,0.1144 0.0271,0.1197 0.03753,0.1244 0.04914,0.1282 0.06196,0.1315 0.07598,0.1342 0.09117,0.136 0.10758,0.1373 0.12518,0.1379 0.14398,0.1377 0.16396,0.1371 0.09886,0.0698 0.10321,0.0608 0.1073,0.0523 0.11114,0.0439 0.1147,0.0359 0.11799,0.028 0.12105,0.0206 0.12382,0.0135 0.12632,0.0063 0.12859,-10e-5 0.13056,-0.0066 0.13229,-0.0127 0.13375,-0.0185 0.13493,-0.024 0.13589,-0.0294 0.13654,-0.0343 0.13695,-0.039 0.1371,-0.0433 0.13698,-0.0476 0.1366,-0.0516 L 6.16586,24.099 6.30091,24.0406 6.00953,24.2931 5.72728,24.5494 5.454,24.8093 5.18955,25.0724 4.9338,25.3386 4.68659,25.6077 4.44777,25.8793 4.21721,26.1532 3.99474,26.4293 3.78025,26.7072 3.57357,26.9866 3.37456,27.2675 3.18309,27.5494 2.99898,27.8323 2.82212,28.1156 2.65235,28.3995 2.48953,28.6833 2.33351,28.9672 2.18414,29.2505 2.04129,29.5334 1.9048,29.8153 l -0.13027,0.2809 -0.12419,0.2794 -0.11826,0.278 -0.11247,0.2761 -0.10683,0.274 -0.10134,0.2717 -0.09598,0.269 -0.09078,0.2664 -0.085715,0.2633 -0.080803,0.2598 -0.076031,0.2564 -0.071404,0.2526 -0.066925,0.2486 -0.062589,0.2441 -0.0584,0.2398 -0.054353,0.2349 -0.050453,0.23 L 0.37131,34.4649 0.328223,34.684 0.2886,34.8975 0.252298,35.1048 0.219171,35.3059 0.189074,35.5007 0.161862,35.6885 0.13739,35.8694 0.115512,36.0431 0.0960849,36.2093 0.078962,36.3679 0.0639987,36.5184 0.05105,36.6608 0.0399707,36.7945 0.030616,36.9198 0.0228406,37.036 0.0164996,37.143 0.0114478,37.2407 0.00754029,37.3286 0.0046319,37.4067 0.00257758,37.4745 0.0012323,37.5319 4.50982e-4,37.5786 8.85686e-5,37.6145 0,37.6392 l 0.0017289,0.1412 0.0032895,0.1134 0.027935,0.2421 0.0550805,0.2219 0.0796231,0.2017 0.101564,0.1812 0.120901,0.1603 0.137636,0.1397 0.151769,0.1186 0.163296,0.0974 0.172227,0.0761 0.17855,0.0545 0.18226,0.0328 0.18339,0.0111 0.18818,-0.0107 0.18716,-0.0325 0.18346,-0.0544 0.17704,-0.0759 0.16794,-0.0972 0.15616,-0.1186 0.14168,-0.1396 0.1245,-0.1606 0.10464,-0.1815 0.08207,-0.2021 0.05683,-0.2225 0.02889,-0.243 0.02025,-0.3504 0.02508,-0.3462 0.02977,-0.3418 0.03437,-0.3375 0.03885,-0.3332 0.04322,-0.329 0.04748,-0.3246 0.05163,-0.3203 0.05567,-0.3162 0.0596,-0.312 0.06343,-0.3076 0.06713,-0.3035 0.07073,-0.2992 0.07424,-0.2951 0.0776,-0.2909 0.08087,-0.2867 0.08404,-0.2826 0.08709,-0.2785 0.09001,-0.2743 0.09286,-0.2701 0.09557,-0.2661 0.09818,-0.2619 0.10069,-0.2579 0.10306,-0.2539 0.10535,-0.2497 0.10751,-0.2458 0.10958,-0.2416 0.11153,-0.2377 0.11335,-0.2335 0.11509,-0.2298 0.11671,-0.2255 0.11822,-0.2217 0.11961,-0.2176 0.1209,-0.2139 0.12207,-0.2098 0.12315,-0.2058 0.1241,-0.2019 0.12495,-0.198 0.12569,-0.1943 0.1263,-0.1902 0.12683,-0.1864 0.12724,-0.1825 0.12753,-0.1787 0.12771,-0.1748 0.1278,-0.171 L 7.3982,26.0757 7.5258,25.9123 7.65317,25.7527 7.78016,25.5969 7.90667,25.4449 8.03261,25.2965 8.15785,25.152 8.28228,25.0112 8.4058,24.874 8.52829,24.7407 8.64965,24.611 8.76976,24.4849 8.88852,24.3626 9.0058,24.2439 9.12152,24.1288 9.23555,24.0175 9.34777,23.9097 9.45809,23.8056 9.30185,23.9751 9.1476,24.1474 l -0.15223,0.1751 -0.15021,0.1776 -0.14815,0.1803 -0.1461,0.1828 -0.14401,0.1853 -0.14193,0.1881 -0.1398,0.1904 -0.13768,0.1928 -0.13553,0.1953 -0.13338,0.1977 -0.1312,0.2001 -0.129,0.2025 -0.12679,0.2046 -0.12457,0.207 -0.12232,0.2093 -0.12008,0.2114 -0.11778,0.2136 -0.1155,0.2157 -0.1132,0.2178 -0.11087,0.22 -0.10853,0.2219 -0.10617,0.224 -0.10379,0.2259 -0.10141,0.228 -0.099,0.2298 -0.09658,0.2317 -0.09414,0.2336 -0.09169,0.2353 -0.08921,0.2372 -0.08673,0.239 -0.08422,0.2406 -0.08171,0.2424 -0.07916,0.244 -0.07661,0.2456 -0.07404,0.2472 -0.07146,0.2489 -0.06886,0.2503 -0.06623,0.2517 -0.06362,0.2534 -0.06094,0.2547 -0.05829,0.2561 -0.0556,0.2575 -0.0529,0.2589 -0.05019,0.2601 -0.04744,0.2614 -0.0447,0.2627 -0.04195,0.2639 -0.03914,0.265 -0.03636,0.2662 -0.03354,0.2673 -0.03071,0.2685 -0.02786,0.2695 -0.02501,0.2704 -0.02211,0.2714 -0.01923,0.2725 -0.01631,0.2733 -0.01338,0.2743 -0.01044,0.2751 -0.00747,0.2758 -0.0045,0.2768 -0.0015,0.2775 3.2e-4,0.1264 9.6e-4,0.1263 0.00161,0.1262 0.00224,0.1259 0.00287,0.1257 0.00353,0.1254 0.00416,0.1254 0.0048,0.1249 0.00544,0.1249 0.00608,0.1247 0.00671,0.1244 0.00736,0.1242 0.00799,0.124 0.00863,0.1237 0.00927,0.1237 0.0099,0.1233 0.01054,0.123 0.01117,0.1229 0.0118,0.1227 0.01245,0.1225 0.01309,0.1222 0.01371,0.1219 0.01434,0.1218 0.01498,0.1215 0.01562,0.1212 0.01626,0.121 0.01687,0.1208 0.01752,0.1206 0.01814,0.1202 0.01878,0.1201 0.01941,0.1198 0.02005,0.1196 0.02067,0.1193 0.0213,0.119 0.02193,0.1189 0.02256,0.1184 0.0232,0.1184 0.02383,0.118 0.02444,0.1179 0.02508,0.1175 0.02572,0.1172 0.02632,0.1169 0.02697,0.1168 0.0276,0.1164 0.02821,0.1163 0.02885,0.1159 0.02948,0.1155 0.0301,0.1154 0.03072,0.1151 0.03134,0.1148 0.03199,0.1146 0.03259,0.1143 0.03322,0.114 0.03386,0.1137 0.03447,0.1133 0.03509,0.1131 0.03573,0.1129 0.03634,0.1126 0.03696,0.1122 0.03759,0.1119 0.0382,0.1117 0.03884,0.1114 0.03945,0.111 0.15749,0.4207 0.16519,0.4068 0.17257,0.3929 0.17963,0.3793 0.18635,0.366 0.19276,0.3528 0.19882,0.3401 0.20458,0.3274 0.21,0.3152 0.21511,0.3028 0.21987,0.291 0.22432,0.2794 0.22845,0.2679 0.23224,0.2568 0.2357,0.2457 0.23885,0.2351 0.24168,0.2246 0.24417,0.2143 0.24633,0.2043 0.24817,0.1945 0.2497,0.1851 0.25093,0.1756 0.2517,0.1667 0.2523,0.1578 0.2525,0.1493 0.2524,0.1409 0.2519,0.1328 0.2512,0.1248 0.2501,0.1173 0.2487,0.1099 0.247,0.1027 0.2449,0.0957 0.2425,0.0891 0.2397,0.0827 0.2368,0.0763 0.2333,0.0705 0.2297,0.0647 0.2256,0.0592 0.2213,0.0539 0.2166,0.0489 0.2117,0.0441 0.2063,0.0395 0.2006,0.0351 0.1948,0.0313 0.1883,0.0273 0.1818,0.0236 0.1748,0.0203 0.1676,0.0171 0.1599,0.0142 0.1521,0.0117 0.1437,0.0091 0.1352,0.007 0.1262,0.005 0.1171,0.0033 0.1075,0.0019 0.0976,6e-4 0.0875,-4e-4 0.0768,-0.0012 0.066,-0.0017 0.0549,-0.002 0.0433,-0.0021 0.0314,-0.0018 z"
         style="fill:url(#Grad277);fill-rule:evenodd;stroke:none"
         transform="rotate(-90,13.89,13.89)"
         id="path5023" />
      <path
         d="m 22.8606,23.2903 -0.0925,0.2453 -0.0639,0.2298 -0.0368,0.2145 -0.0118,0.1992 0.0117,0.1838 0.0332,0.1685 0.053,0.1531 0.071,0.138 0.0873,0.1225 0.1018,0.1072 0.1145,0.0919 0.1253,0.0768 0.1344,0.0614 0.1418,0.0462 0.1473,0.0309 0.1511,0.0157 0.1531,5e-4 0.1532,-0.0147 0.1518,-0.0299 0.1484,-0.0451 0.1432,-0.0604 0.1363,-0.0754 0.1276,-0.0907 0.1171,-0.1057 0.1049,-0.1209 0.0908,-0.1362 0.0272,-0.0487 0.0283,-0.0542 0.0293,-0.0597 0.0305,-0.065 0.0312,-0.0703 0.0322,-0.0754 0.033,-0.0805 0.0336,-0.0856 0.0344,-0.0904 0.035,-0.0954 0.0355,-0.1001 0.036,-0.1046 0.0363,-0.1095 0.0368,-0.1138 0.0369,-0.1182 0.0374,-0.1226 0.0373,-0.1268 0.0375,-0.1309 0.0375,-0.1352 0.0375,-0.139 0.0373,-0.143 0.0372,-0.1467 0.0371,-0.1506 0.0366,-0.1542 0.0364,-0.1578 0.0358,-0.1612 0.0355,-0.1646 0.0349,-0.1679 0.0343,-0.1713 0.0335,-0.1743 0.0329,-0.1773 0.032,-0.1805 0.0312,-0.1832 0.0302,-0.1862 0.0293,-0.1887 0.0281,-0.1914 0.0271,-0.194 0.0258,-0.1965 0.0246,-0.1989 0.0234,-0.2011 0.0219,-0.2034 0.0204,-0.2055 0.019,-0.2075 0.0174,-0.2096 0.0157,-0.2113 0.014,-0.2133 0.0123,-0.2148 0.0105,-0.2165 0.0086,-0.2181 0.0065,-0.2195 0.0046,-0.2209 0.0025,-0.2222 3e-4,-0.2233 L 26.6328,16.2709 26.6286,16.0454 26.6221,15.819 26.6132,15.5917 26.6019,15.3635 26.588,15.1348 26.5714,14.9054 26.5522,14.6754 26.5303,14.445 26.5057,14.2143 26.4371,13.684 26.3588,13.1662 26.2713,12.6606 26.1749,12.1673 26.0699,11.686 25.9566,11.2167 25.8355,10.7591 25.7067,10.3133 25.5708,9.87894 25.428,9.45605 25.2788,9.04445 25.1235,8.64401 24.9623,8.25461 24.7955,7.87611 24.6238,7.50838 24.4473,7.15129 24.2664,6.80473 24.0815,6.46856 23.8928,6.14263 23.7009,5.82684 23.5058,5.52106 23.3083,5.22513 23.1083,4.93896 22.9063,4.6624 22.7028,4.39532 22.498,4.1376 22.2923,3.88911 22.0861,3.64971 21.8796,3.41928 21.6732,3.19769 21.4674,2.98481 21.2625,2.78052 21.0586,2.58467 20.8563,2.39716 20.6559,2.21783 20.4577,2.04656 20.2621,1.88325 20.0694,1.72772 19.8801,1.57989 19.6943,1.43961 19.5125,1.30673 19.3352,1.18116 19.1623,1.06275 18.9945,0.951369 18.8322,0.846894 18.6755,0.749194 18.525,0.658144 18.3808,0.573609 18.2435,0.495463 18.1131,0.423577 17.9904,0.357822 17.8754,0.298068 17.7686,0.244188 17.6703,0.196051 17.5808,0.153529 17.5006,0.116492 17.43,0.0848117 17.3692,0.0583595 17.3187,0.037006 17.2788,0.0206224 17.25,0.00907953 17.2323,0.00224838 17.2265,0 l 0.5605,0.457666 0.5342,0.461428 0.5083,0.464856 0.483,0.46799 0.4583,0.47076 0.4339,0.47322 0.4103,0.47537 0.3871,0.47717 0.3647,0.47867 0.3424,0.47984 0.3211,0.48066 0.3002,0.48119 0.2798,0.48139 0.26,0.48124 0.2408,0.48079 0.222,0.48 0.2039,0.4789 0.1863,0.47746 0.1692,0.47571 0.1527,0.47362 0.1369,0.47123 0.1214,0.46854 0.1066,0.4654 0.0924,0.4621 0.0786,0.4583 0.0654,0.4543 0.0528,0.45 0.0407,0.4453 0.0292,0.4404 0.0183,0.4348 0.0079,0.4294 -0.0021,0.4234 -0.0112,0.417 -0.0201,0.4104 -0.0283,0.4035 -0.0358,0.3962 -0.043,0.3886 -0.0496,0.3806 -0.0554,0.3725 -0.061,0.3639 -0.0658,0.355 -0.0702,0.3456 -0.0738,0.3363 -0.0771,0.3263 -0.0798,0.3161 -0.0819,0.3057 -0.0834,0.2947 -0.0845,0.2836 -0.0849,0.2721 -0.0849,0.2603 -0.0842,0.2481 -0.083,0.2357 -0.0811,0.223 -0.079,0.2097 -0.076,0.1963 -0.0726,0.1826 -0.0686,0.1685 -0.0642,0.154 -0.059,0.1394 -0.0534,0.1243 -0.0472,0.1089 -0.0405,0.0932 z m -15.47443,-1.6488 -0.01055,3e-4 -0.03071,6e-4 -0.04949,5e-4 -0.06688,4e-4 -0.08289,-5e-4 L 7.04815,21.6414 6.93742,21.6389 6.81485,21.6346 6.68183,21.6284 6.53975,21.6201 6.38998,21.6092 6.23393,21.5954 6.07297,21.5785 5.90849,21.5581 5.74189,21.5338 5.57456,21.5054 5.40788,21.4725 5.24322,21.4349 5.082,21.3922 4.92557,21.3441 4.77536,21.2904 4.63273,21.2305 4.49907,21.1643 4.37578,21.0914 4.26423,21.0114 4.16582,20.9243 4.06214,20.8382 3.95067,20.7764 3.83327,20.7375 3.71184,20.7202 3.5882,20.7237 3.46425,20.7463 3.34183,20.7871 3.2228,20.8448 3.10906,20.9182 3.00244,21.006 2.90481,21.107 2.81805,21.2201 2.744,21.3441 l -0.05945,0.1336 -0.04301,0.1419 -0.02469,0.1491 -0.0045,0.1551 0.01754,0.16 0.04144,0.1634 0.06721,0.1657 0.09486,0.1668 0.12435,0.1667 0.15571,0.1655 0.18895,0.1629 0.08827,0.0599 0.0953,0.0496 0.10187,0.0395 0.10799,0.0301 0.11364,0.0209 0.1188,0.0122 0.12353,0.0036 0.12776,-0.0044 0.13153,-0.012 0.13485,-0.0194 0.13769,-0.0263 0.14006,-0.033 0.14196,-0.039 0.14341,-0.0451 0.14437,-0.0504 0.14489,-0.0554 0.14493,-0.0603 0.1445,-0.0646 0.1436,-0.0685 L 5.8736,22.74 6.014,22.6646 6.15212,22.5862 6.28746,22.5054 6.41957,22.4226 6.548,22.3379 6.67224,22.2517 6.79187,22.1647 6.9064,22.0769 7.01534,21.9889 7.11827,21.901 7.2147,21.8135 7.30415,21.727 Z m -7.38121193,15.6207 0.03362803,0.2387 0.0703519,0.2054 0.101827,0.1723 0.12806,0.1398 0.149043,0.1074 0.164781,0.0752 0.175273,0.0437 0.180518,0.0122 0.18052,-0.0189 0.17526,-0.0496 0.16478,-0.0801 0.14903,-0.1102 0.12804,-0.14 0.10182,-0.1695 0.07033,-0.1988 0.03361,-0.2276 0.03275,-0.5341 0.04343,-0.5241 0.05376,-0.5144 0.06372,-0.5045 0.0733,-0.4947 0.08254,-0.485 0.09139,-0.4753 0.09991,-0.4656 0.10803,-0.456 0.11581,-0.4464 0.12321,-0.437 0.13025,-0.4274 0.13693,-0.4181 0.14323,-0.4086 0.14919,-0.3994 0.15476,-0.39 0.15999,-0.3808 0.16484,-0.3716 0.16933,-0.3624 0.17345,-0.3534 0.17722,-0.3441 0.1806,-0.3353 0.18364,-0.3262 0.18631,-0.3173 0.1886,-0.3084 0.19054,-0.2995 0.19212,-0.2907 0.19332,-0.282 0.19416,-0.2733 0.19464,-0.2647 0.19477,-0.2559 0.1945,-0.2475 0.1939,-0.2388 0.1929,-0.2305 0.19157,-0.2219 0.18985,-0.2135 0.18779,-0.2052 0.18535,-0.1968 0.18253,-0.1887 0.17938,-0.1804 0.17584,-0.1722 0.17195,-0.164 0.16769,-0.156 0.16306,-0.1479 0.15806,-0.1399 0.15272,-0.1321 0.14699,-0.124 0.14091,-0.1163 0.13447,-0.1083 0.12764,-0.1006 0.12048,-0.0929 0.11292,-0.0852 0.10502,-0.0776 0.09671,-0.0699 0.0882,-0.0624 0.0791,-0.055 0.0697,-0.0473 0.06,-0.0401 0.05,-0.0327 0.0394,-0.0252 0.0286,-0.0181 0.0175,-0.0108 0.0059,-0.0035 -0.4673,0.206 -0.45327,0.2151 -0.43953,0.2236 -0.42596,0.232 -0.41261,0.2401 -0.39947,0.2475 -0.38654,0.2548 -0.37382,0.2617 -0.3613,0.2681 -0.349,0.2742 -0.33692,0.28 -0.32502,0.2854 -0.31335,0.2903 -0.30189,0.295 -0.29064,0.2993 -0.27959,0.3033 -0.26875,0.3067 -0.25813,0.3098 -0.24772,0.3128 -0.23751,0.3151 -0.22752,0.3172 -0.21773,0.319 L 2.88647,27.5879 2.68768,27.909 2.49805,28.2308 2.31737,28.5529 2.14543,28.8746 1.982,29.1961 1.82689,29.5165 1.6799,29.8357 1.54081,30.1534 1.4094,30.469 1.28547,30.7823 1.16881,31.0928 1.05921,31.4003 0.956458,31.7043 0.860346,32.0045 0.770665,32.3005 0.687204,32.5919 0.609753,32.8785 0.538103,33.1598 0.472045,33.4353 0.411369,33.7048 0.355863,33.968 0.305321,34.2243 0.25953,34.4736 0.218282,34.7153 0.181366,34.9491 0.148574,35.1747 0.119695,35.3917 0.0945195,35.5998 0.072838,35.7985 0.0544408,35.9874 0.0391181,36.1664 0.0266599,36.3348 0.0168569,36.4925 0.0094991,36.639 0.00437683,36.7739 0.00128038,36.8969 0,37.0075 3.25976e-4,37.1056 0.00204857,37.1906 Z M 11.9649,15.0124 l -0.11,0.0194 -0.1149,0.0184 -0.1194,0.017 -0.1235,0.0155 -0.1272,0.0137 -0.1305,0.0117 -0.1334,0.0095 -0.136,0.007 -0.1381,0.0043 -0.1398,0.0015 -0.1413,-0.0019 -0.1422,-0.0051 -0.1427,-0.0087 -0.143,-0.0126 L 9.98008,15.0856 9.83788,15.0646 9.69664,15.0392 9.55676,15.0089 9.41864,14.9738 9.28266,14.9334 9.1492,14.8876 9.01868,14.8362 8.89145,14.7788 8.76794,14.7154 8.6485,14.6455 8.53356,14.5691 8.42347,14.486 8.31865,14.3958 8.21947,14.2983 8.12632,14.1934 8.03961,14.0807 7.95972,13.96 7.88703,13.8312 7.80938,13.6707 7.72575,13.5177 7.63645,13.3722 7.5417,13.2341 7.44176,13.1034 7.33691,12.98 7.2274,12.8639 7.1135,12.7548 6.99544,12.653 6.87351,12.5581 6.74794,12.4702 6.61901,12.3893 6.48698,12.3153 6.35211,12.248 6.21464,12.1874 6.07486,12.1336 5.933,12.0864 5.78932,12.0457 5.64411,12.0115 5.4976,11.9838 5.35006,11.9624 5.20174,11.9474 5.05292,11.9386 4.90385,11.9359 4.75477,11.9395 4.60596,11.949 4.45767,11.9646 4.31018,11.9861 4.16372,12.0135 4.01856,12.0467 3.87498,12.0857 3.7332,12.1304 3.5935,12.1807 3.45615,12.2366 3.3214,12.2979 3.18949,12.3647 3.06071,12.4369 2.9353,12.5145 2.81354,12.5974 2.69565,12.6854 2.58193,12.7786 2.47261,12.8767 2.36799,12.98 l -0.09971,0.1082 -0.09452,0.1131 -0.08907,0.118 -0.08335,0.1227 -0.0774,0.1274 -0.07115,0.1321 -0.06467,0.1367 -0.05793,0.1411 -0.05502,0.1515 -0.05011,0.1522 -0.04517,0.1526 -0.0402,0.1531 -0.03521,0.1534 -0.0302,0.1536 -0.02516,0.1536 -0.02012,0.1536 -0.01504,0.1534 -0.00993,0.1531 -0.0048,0.1528 3.3e-4,0.1521 0.00551,0.1516 0.01069,0.1508 0.01592,0.1499 0.02116,0.149 0.02641,0.1477 0.03169,0.1466 0.03702,0.1452 0.04232,0.1438 0.04769,0.1422 0.05306,0.1406 0.05846,0.1386 0.06388,0.1368 0.06931,0.1347 0.0748,0.1326 0.08027,0.1302 0.08579,0.1279 0.09132,0.1254 0.09688,0.1227 0.10247,0.12 0.10806,0.1171 0.11369,0.1141 0.11934,0.111 0.12502,0.1078 0.1307,0.1044 0.13642,0.101 0.14216,0.0975 0.14792,0.0937 0.15371,0.09 0.15952,0.086 0.16534,0.082 0.17121,0.0779 0.17708,0.0735 0.18298,0.0692 0.18889,0.0646 0.19485,0.06 0.20081,0.0553 0.20681,0.0505 0.21282,0.0454 0.21885,0.0404 0.22492,0.0351 0.23099,0.0297 0.2371,0.0244 0.24323,0.0188 0.24937,0.0131 0.25555,0.0074 0.26175,0.0013 0.26797,-0.0046 0.2742,-0.0108 0.28048,-0.017 0.28676,-0.0234 0.29306,-0.03 0.29332,-0.0357 0.28764,-0.0409 0.28203,-0.0458 0.27645,-0.0506 0.27099,-0.0555 0.2654,-0.0601 0.2601,-0.0649 0.2547,-0.0692 0.2494,-0.0739 0.2442,-0.0782 0.2389,-0.0826 0.2339,-0.0866 0.2287,-0.091 0.2237,-0.0948 0.2186,-0.0991 0.2137,-0.1028 0.2089,-0.1066 0.2041,-0.1103 0.1991,-0.1141 0.1945,-0.1176 0.1898,-0.121 0.1852,-0.1245 0.1807,-0.1278 0.1761,-0.131 0.1716,-0.1341 0.1672,-0.1374 0.1629,-0.1402 0.1586,-0.1432 0.1542,-0.1459 0.15,-0.1489 0.1461,-0.1514 0.1417,-0.154 0.1378,-0.1565 0.1338,-0.1589 0.1298,-0.1612 0.1259,-0.1635 0.1222,-0.1657 0.1182,-0.1679 0.1146,-0.1697 0.1109,-0.1717 0.1072,-0.1736 0.1037,-0.1754 0.1001,-0.177 0.0967,-0.1786 0.0932,-0.1802 0.0899,-0.1815 0.0865,-0.183 0.0834,-0.1842 0.08,-0.1854 0.0769,-0.1864 0.0738,-0.1875 0.0707,-0.1885 0.0679,-0.1894 0.0647,-0.1901 0.0618,-0.1908 0.0591,-0.1914 0.0562,-0.1921 0.0535,-0.1924 0.0508,-0.1927 0.0482,-0.1931 0.0456,-0.1933 0.043,-0.1934 0.0407,-0.1935 0.0367,-0.1934 0.0321,-0.1933 0.0274,-0.193 0.0229,-0.1927 0.0185,-0.1923 0.0142,-0.1918 L 18.4169,9.94007 18.423,9.74964 18.4254,9.56002 18.424,9.37129 18.4191,9.18357 18.4108,8.99696 18.3992,8.81154 18.3844,8.6274 18.3665,8.44466 18.3458,8.2634 18.3224,8.08371 18.2964,7.90572 18.2678,7.72947 18.237,7.55512 18.2041,7.38272 18.1689,7.21237 18.132,7.04419 18.0932,6.87827 18.0527,6.71468 18.0108,6.55355 17.9675,6.39496 17.9229,6.239 17.8773,6.08578 17.8306,5.93538 17.7831,5.78792 17.7349,5.64347 17.6863,5.50215 17.6371,5.36405 17.5878,5.22925 17.5382,5.09786 17.4886,4.96997 17.4392,4.84568 17.39,4.72509 17.3413,4.60829 17.293,4.49538 17.2454,4.38645 17.1988,4.28161 17.1529,4.18094 17.1082,4.08454 17.0648,3.99252 17.0227,3.90495 16.982,3.82195 16.943,3.7436 16.9058,3.67002 16.8704,3.60128 16.8371,3.53749 16.806,3.47874 16.7772,3.42513 16.7509,3.37676 16.7271,3.33371 16.7061,3.2961 16.6879,3.26399 16.6727,3.23752 16.6607,3.21676 16.6519,3.20181 16.6465,3.19278 16.6448,3.18974 l 0.0819,0.25441 0.0761,0.25478 0.0707,0.25501 0.0648,0.25513 0.0594,0.25512 0.0537,0.25499 0.0482,0.25474 0.0428,0.25436 0.0372,0.25386 0.0318,0.25323 0.0263,0.25249 0.0211,0.2516 0.0156,0.25062 0.0104,0.24948 0.0052,0.24824 -10e-5,0.24688 -0.0054,0.24539 -0.0106,0.24376 -0.0156,0.24202 -0.0208,0.24018 -0.0259,0.23816 -0.0309,0.23606 -0.0359,0.23384 -0.041,0.23145 -0.0459,0.22899 -0.0507,0.22638 -0.0557,0.22365 -0.0605,0.22074 -0.0654,0.2179 -0.0701,0.2147 -0.075,0.2115 -0.0796,0.2081 -0.0844,0.2046 -0.089,0.2011 -0.0935,0.1973 -0.0983,0.1935 -0.1026,0.1896 -0.1074,0.1854 -0.1119,0.1812 -0.1161,0.1768 -0.1208,0.1725 -0.1251,0.1678 -0.1295,0.1632 -0.1338,0.1582 -0.1381,0.1533 -0.1424,0.1482 -0.1467,0.1431 -0.1508,0.1377 -0.1551,0.1322 -0.1591,0.1267 -0.1633,0.1209 -0.1673,0.1152 -0.1713,0.1091 -0.1754,0.1031 -0.1795,0.0969 -0.1833,0.0906 -0.1873,0.0841 -0.1912,0.0776 -0.195,0.0709 -0.1988,0.064 -0.2025,0.0572 -0.2064,0.05 z M 5.39092,45.2452 5.24621,44.8268 5.11079,44.4044 4.98461,43.9782 4.86762,43.5485 4.75979,43.1154 4.66109,42.6792 4.57146,42.2402 4.49088,41.7987 4.41929,41.3548 4.35667,40.9089 4.30296,40.4612 4.25812,40.0119 4.22214,39.5613 4.19494,39.1096 4.17651,38.6571 4.16679,38.2041 4.16575,37.7507 4.17335,37.2972 4.18954,36.844 4.21429,36.3911 4.24755,35.939 4.2893,35.4878 4.33947,35.0377 4.39804,34.5891 4.46497,34.1423 4.54022,33.6972 4.62373,33.2544 4.71548,32.814 4.81542,32.3763 4.92353,31.9415 5.03973,31.5099 5.16402,31.0818 5.29633,30.6573 5.43664,30.2367 5.5849,29.8203 5.74107,29.4083 5.90513,29.0011 6.077,28.5988 6.25666,28.2016 6.44408,27.8098 6.63921,27.4237 6.84201,27.0435 7.05244,26.6696 7.27045,26.302 7.49602,25.9412 7.72909,25.5872 7.96965,25.2405 8.21762,24.9011 8.47298,24.5695 8.73569,24.2457 9.00571,23.9301 9.283,23.623 l 0.28451,-0.2986 0.2917,-0.2895 0.29879,-0.2804 0.306,-0.271 0.313,-0.2612 0.3201,-0.2514 0.327,-0.2412 0.334,-0.2308 0.3409,-0.22 0.3477,-0.2092 0.3546,-0.1981 0.0743,-0.0405 0.08,-0.0446 0.0854,-0.0488 0.0907,-0.053 0.0956,-0.057 0.1003,-0.0612 0.1051,-0.0652 0.1093,-0.0694 0.1134,-0.0736 0.1173,-0.0776 0.121,-0.0816 0.1245,-0.0858 0.1277,-0.0899 0.1307,-0.0937 0.1336,-0.098 0.1361,-0.1019 0.1385,-0.106 0.1407,-0.1101 0.1426,-0.1139 0.1443,-0.118 0.1459,-0.122 0.147,-0.1261 0.1482,-0.13 0.149,-0.1339 0.1495,-0.1379 0.1501,-0.1419 0.1502,-0.1458 0.15,-0.1497 0.15,-0.1537 0.1494,-0.1575 0.1487,-0.1616 0.1479,-0.1654 0.1468,-0.1693 0.1452,-0.1732 0.1439,-0.1769 0.1419,-0.1811 0.1401,-0.1847 0.1378,-0.1886 0.1354,-0.1925 0.1327,-0.1964 0.1297,-0.2001 0.1267,-0.2039 0.1235,-0.2077 0.1198,-0.2116 0.1162,-0.2153 0.1121,-0.2193 0.1079,-0.2229 0.1036,-0.2266 0.0989,-0.2304 0.0941,-0.2343 0.089,-0.2378 0.0837,-0.2417 0.0782,-0.2454 0.0726,-0.2491 0.0666,-0.2528 0.0604,-0.2565 0.0541,-0.2602 0.0474,-0.2639 0.0407,-0.2675 0.0335,-0.2712 0.0265,-0.2749 0.0188,-0.2785 0.0113,-0.2821 0.002,-0.1357 0.0018,-0.1378 8e-4,-0.1397 10e-5,-0.14166 -8e-4,-0.14358 L 19.8393,9.69604 19.8361,9.54883 19.8317,9.39985 19.8259,9.2492 19.8184,9.09689 19.8093,8.943 19.7984,8.78756 19.7855,8.63062 19.7707,8.47225 19.7535,8.31248 19.7342,8.15137 19.7124,7.98897 19.688,7.82534 19.661,7.66051 19.6312,7.49455 19.5986,7.3275 19.5628,7.15941 19.524,6.99034 19.4818,6.82032 19.4363,6.64943 19.3872,6.4777 19.3345,6.30519 19.2781,6.13195 19.2177,5.95802 19.1534,5.78346 19.0849,5.60832 19.0121,5.43265 18.935,5.25649 18.8534,5.07992 18.7671,4.90295 18.6762,4.72567 18.5803,4.5481 18.4795,4.37032 18.3735,4.19235 18.2623,4.01425 18.1458,3.83609 18.0238,3.6579 17.8961,3.47973 17.7628,3.30165 17.6235,3.12368 17.4784,2.94591 17.3272,2.76836 17.1697,2.59109 17.0059,2.41414 16.8356,2.23758 16.6588,2.06145 16.4753,1.8858 16.285,1.7107 16.0876,1.53616 15.8832,1.36226 15.6716,1.18905 15.4528,1.01658 15.2264,0.844888 14.9925,0.674035 14.751,0.504069 14.5016,0.335041 14.2443,0.167 13.9791,0 l 0.0058,9.79007e-4 0.0175,0.003085753 0.0289,0.00541559 0.0398,0.00796855 0.0503,0.0107446 0.0605,0.0137437 0.0705,0.016966 0.0799,0.0204111 0.0891,0.0240797 0.0981,0.027972 0.1063,0.032086 0.1146,0.036422 0.1224,0.040985 0.1299,0.045769 0.1368,0.050775 0.1436,0.056005 0.15,0.061459 0.1561,0.067135 0.1617,0.073035 0.1671,0.079157 0.1719,0.085502 0.1768,0.092071 0.181,0.098864 0.185,0.105879 0.1885,0.11311 0.1918,0.12059 0.1946,0.12825 0.1972,0.13617 0.1993,0.14429 0.2014,0.15266 0.2027,0.16123 0.2039,0.17003 0.2047,0.17905 0.2051,0.1883 0.2053,0.19776 0.205,0.20746 0.2044,0.21738 0.2035,0.22751 0.2022,0.23787 0.2005,0.24846 0.1986,0.25927 0.1962,0.27029 0.1935,0.28155 0.1904,0.29303 0.1871,0.30472 0.1833,0.31666 0.1793,0.32879 0.1748,0.34117 0.17,0.35376 0.1649,0.36656 0.1595,0.37961 0.1536,0.39288 0.1474,0.40636 0.1409,0.42006 0.134,0.434 0.1267,0.44815 0.1192,0.46253 0.1113,0.47708 0.1029,0.492 0.0944,0.507 0.0854,0.5223 0.076,0.5377 0.0665,0.5535 0.0192,0.2247 0.0166,0.2239 0.0141,0.223 0.0116,0.2219 0.0092,0.2211 0.0068,0.2199 0.0041,0.219 0.0019,0.218 -5e-4,0.2168 -0.003,0.2158 -0.0054,0.2145 -0.0075,0.2135 -0.01,0.2122 -0.0122,0.2112 -0.0146,0.2098 -0.0166,0.2085 -0.019,0.2074 -0.0212,0.206 -0.0232,0.2046 -0.0255,0.2033 -0.0275,0.2019 -0.0298,0.2006 -0.0317,0.199 -0.0339,0.1977 -0.0358,0.1961 -0.0378,0.1947 -0.04,0.193 -0.0418,0.1916 -0.0437,0.1901 -0.0458,0.1884 -0.0476,0.1866 -0.0494,0.1851 -0.0513,0.1835 -0.0533,0.1816 -0.0549,0.1801 -0.0568,0.178 -0.0585,0.1765 -0.0604,0.1746 -0.0619,0.1728 -0.0638,0.171 -0.0653,0.169 -0.067,0.1671 -0.0687,0.1653 -0.0702,0.1632 -0.0719,0.1612 -0.0734,0.1593 -0.0749,0.1573 -0.0765,0.1552 -0.078,0.153 -0.0794,0.151 -0.0809,0.1489 -0.0823,0.1466 -0.0837,0.1445 -0.0852,0.1424 -0.0864,0.14 -0.0878,0.1378 -0.0891,0.1355 -0.0904,0.1332 -0.0917,0.131 -0.0929,0.1285 -0.0941,0.1261 -0.0954,0.1237 -0.0964,0.1213 -0.0891,0.1096 -0.0912,0.1112 -0.0929,0.1128 -0.0944,0.1144 -0.0957,0.1158 -0.0966,0.117 -0.0972,0.1185 -0.0975,0.1194 -0.0976,0.1207 -0.0974,0.1217 -0.0968,0.1225 -0.0961,0.1234 -0.095,0.1241 -0.0936,0.1247 -0.092,0.1253 -0.09,0.1258 -0.0878,0.1261 -0.0853,0.1264 -0.0825,0.1267 -0.0793,0.1268 -0.076,0.1268 -0.0725,0.1268 -0.0683,0.1266 -0.0643,0.1264 -0.0596,0.1259 -0.0548,0.1258 -0.0497,0.1252 -0.0444,0.1246 -0.0387,0.1238 -0.0327,0.1233 -0.0266,0.1223 -0.0199,0.1214 -0.0131,0.1204 -0.0061,0.1193 0.0013,0.1181 0.0091,0.1167 0.017,0.1156 0.0252,0.1139 0.0338,0.1125 0.1401,-0.0325 0.1412,-0.0295 0.1424,-0.0262 0.1437,-0.0222 0.1452,-0.0181 0.1465,-0.0133 0.148,-0.0084 0.1498,-0.0028 0.2001,0.0041 0.1981,0.0121 0.1959,0.0198 0.1936,0.0275 0.191,0.0352 0.1884,0.0426 0.1854,0.0497 0.1827,0.0566 0.1793,0.0638 0.1761,0.0704 0.1726,0.077 0.169,0.0835 0.1653,0.0897 0.1613,0.0959 0.1571,0.1018 0.153,0.1077 0.1486,0.1133 0.144,0.1187 0.1393,0.1241 0.1345,0.1294 0.1294,0.1344 0.1242,0.1392 0.1189,0.1439 0.1133,0.1486 0.1077,0.1529 0.102,0.1572 0.0959,0.1613 0.0898,0.1651 0.0836,0.169 0.0769,0.1726 0.0705,0.176 0.0638,0.1795 0.0568,0.1825 0.0498,0.1855 0.0425,0.1884 0.0351,0.1911 0.0277,0.1936 0.0199,0.196 0.012,0.1981 0.0042,0.2003 -0.0022,0.1425 -0.0064,0.1413 -0.0104,0.1402 -0.0145,0.1388 -0.0185,0.1377 -0.0225,0.1362 -0.0262,0.135 -0.0301,0.1334 -0.0338,0.1321 -0.0375,0.1306 -0.041,0.129 -0.0445,0.1274 -0.0479,0.1259 -0.0513,0.1241 -0.0546,0.1225 -0.0578,0.1207 -0.0609,0.1188 -0.064,0.117 -0.067,0.1152 -0.07,0.1132 -0.0728,0.1113 -0.0757,0.1093 -0.0782,0.1072 0.1385,0.0618 0.1366,0.0654 0.1346,0.0687 0.1327,0.0719 0.1306,0.0753 0.1284,0.0785 0.1263,0.0816 0.124,0.0848 0.1217,0.0878 0.1194,0.0907 0.1169,0.0938 0.1146,0.0965 0.112,0.0994 0.1094,0.1022 0.1067,0.1049 0.1042,0.1076 0.1013,0.1103 0.0987,0.1127 0.0957,0.1152 0.0928,0.1176 0.0898,0.1201 0.0869,0.1224 0.0838,0.1247 0.0806,0.127 0.0775,0.1291 0.0743,0.1311 0.0709,0.1333 0.0675,0.1352 0.0643,0.1372 0.0607,0.1392 0.0572,0.1409 0.0537,0.1427 0.0499,0.1444 0.0464,0.1462 0.0426,0.1478 0.0388,0.1494 0.0349,0.1508 0.0311,0.1522 0.027,0.1538 0.0232,0.155 0.0189,0.1563 0.015,0.1576 0.0106,0.1589 0.0065,0.1598 0.0022,0.161 -0.0029,0.186 -0.0087,0.1846 -0.0142,0.183 -0.0198,0.1813 -0.0254,0.1795 -0.0306,0.1777 -0.036,0.1758 -0.0412,0.1738 -0.0463,0.1716 -0.0514,0.1695 -0.0563,0.1674 -0.0611,0.165 -0.0659,0.1624 -0.0708,0.1601 -0.0753,0.1574 -0.0798,0.1548 -0.0842,0.152 -0.0886,0.1494 -0.0928,0.1462 -0.097,0.1434 -0.1011,0.1402 -0.1053,0.1373 -0.1091,0.1339 -0.1128,0.1304 -0.1167,0.1273 -0.1204,0.1237 -0.1239,0.1202 -0.1274,0.1165 -0.1308,0.1128 -0.1342,0.109 -0.1373,0.1051 -0.1405,0.1011 -0.1437,0.0971 -0.1465,0.093 -0.1495,0.0887 -0.1524,0.0845 -0.1549,0.08 -0.1577,0.0757 -0.1602,0.071 -0.1627,0.0664 -0.165,0.0619 -0.1673,0.0569 -0.1696,0.0521 -0.1717,0.0471 -0.1736,0.0421 -0.1757,0.037 -0.1776,0.0318 -0.1792,0.0266 0.0281,0.1487 0.0232,0.1501 0.0181,0.1514 0.0131,0.1527 0.0079,0.1544 0.0026,0.1558 -0.0044,0.1993 -0.0129,0.1971 -0.0213,0.1947 -0.0297,0.192 -0.0375,0.1892 -0.0454,0.1865 -0.0533,0.1831 -0.0606,0.1798 -0.0679,0.1764 -0.0752,0.1727 -0.082,0.1686 -0.0888,0.1648 -0.0954,0.1604 -0.1018,0.1562 -0.1081,0.1514 -0.1142,0.1468 -0.1199,0.1417 -0.1257,0.1366 -0.1311,0.1312 -0.1366,0.1257 -0.1417,0.1201 -0.1466,0.1142 -0.1514,0.1082 -0.1559,0.102 -0.1605,0.0955 -0.1646,0.0888 -0.1688,0.0821 -0.1726,0.0752 -0.1763,0.0681 -0.1798,0.0607 -0.1832,0.0532 -0.1863,0.0455 -0.1892,0.0376 -0.1922,0.0296 -0.1946,0.0215 -0.1972,0.0128 -0.1993,0.0044 -0.0771,-0.0073 -0.0181,0.0011 -0.0299,0.0016 -0.0411,0.0017 -0.0522,0.0018 -0.0631,0.0015 -0.0734,0.0011 -0.0836,4e-4 -0.0934,-7e-4 L 16.3768,53.3769 16.2646,53.3737 16.1437,53.3691 16.0142,53.3625 15.8764,53.3539 15.7306,53.343 15.5772,53.3296 15.4165,53.3133 15.249,53.2942 15.0745,53.2718 14.8938,53.246 14.707,53.2165 14.5144,53.1832 14.3165,53.1456 14.1135,53.1037 13.9055,53.0573 13.6931,53.0062 13.4766,52.9499 13.2562,52.8884 13.0322,52.8214 12.805,52.7486 12.5749,52.6699 12.3421,52.5851 12.107,52.4939 11.87,52.396 11.6313,52.2914 11.3912,52.1795 11.1501,52.0604 10.9083,51.9337 10.666,51.7993 10.4237,51.6568 10.1816,51.5062 9.93993,51.347 9.69915,51.1792 9.45951,51.0025 9.22133,50.8166 8.98494,50.6213 8.75063,50.4166 8.51873,50.2019 8.28955,49.9773 8.06339,49.7423 7.84058,49.4967 7.62143,49.2405 7.40624,48.9733 7.19535,48.6949 6.98904,48.4052 6.78766,48.1037 6.59148,47.7903 6.40086,47.4649 6.21608,47.1271 6.03747,46.7768 5.86533,46.4136 5.69998,46.0375 5.54175,45.648 Z"
         style="fill:url(#Grad278);fill-rule:evenodd;stroke:none"
         transform="rotate(-90,13.89726,13.30974)"
         id="path5025" />
      <path
         d="M 5.98609,4.48474 5.98373,4.62873 5.97672,4.77145 5.96513,4.91284 5.94906,5.05287 5.92859,5.19145 5.9038,5.32855 5.8748,5.46412 5.84166,5.59809 5.80448,5.73041 5.76333,5.86104 5.71831,5.9899 5.66949,6.11696 5.61698,6.24216 5.56086,6.36544 5.50122,6.48675 5.43813,6.60603 5.37171,6.72324 5.30201,6.8383 5.22914,6.95119 5.15317,7.06184 5.07421,7.17019 5.21441,7.23311 5.35249,7.29984 5.48838,7.3703 5.62202,7.44444 5.75333,7.52219 5.88224,7.60348 6.00869,7.68824 6.13262,7.7764 l 0.12132,0.09151 0.11867,0.09477 0.11594,0.098 0.11313,0.10111 0.11026,0.10419 0.10733,0.1072 0.10432,0.11013 0.10126,0.113 0.09812,0.1158 0.09491,0.11855 0.09163,0.12121 0.08828,0.12381 0.08489,0.12634 0.0814,0.12881 0.07784,0.13122 0.07425,0.13355 0.07055,0.13581 0.06681,0.13801 0.06298,0.14018 0.05911,0.1422 0.05514,0.1442 0.05113,0.1461 0.04704,0.148 0.04287,0.1498 0.03866,0.1516 0.03437,0.1532 0.02999,0.1548 0.02558,0.1563 0.02106,0.1578 0.01651,0.1591 0.01188,0.1606 0.00717,0.1617 0.00241,0.163 -0.00317,0.1873 -0.00946,0.1856 -0.01563,0.1839 -0.02172,0.182 -0.02768,0.18 -0.03356,0.178 -0.03932,0.1759 -0.04499,0.1736 -0.05055,0.1711 -0.05602,0.1688 -0.06137,0.1662 -0.06663,0.1635 -0.07178,0.1609 -0.07681,0.1579 -0.08178,0.155 -0.08662,0.1521 -0.09136,0.1488 -0.096,0.1455 -0.10053,0.1423 -0.10497,0.1389 -0.1093,0.1352 -0.11353,0.1316 -0.11765,0.128 -0.12166,0.1242 -0.1256,0.1201 -0.12941,0.1162 -0.13312,0.112 -0.13674,0.1078 -0.14024,0.1035 -0.14366,0.0991 -0.14696,0.0945 -0.15016,0.09 -0.15325,0.0853 -0.15626,0.0804 -0.15914,0.0755 -0.16194,0.0705 -0.16462,0.0655 -0.16721,0.0602 -0.16969,0.055 -0.17207,0.0494 -0.17435,0.0441 -0.17652,0.0384 -0.1786,0.0328 -0.18056,0.027 0.0265,0.1375 0.02192,0.1388 0.01721,0.1399 0.01244,0.1414 0.00752,0.1427 0.00254,0.1442 -0.00448,0.1937 -0.01331,0.1911 -0.02192,0.1885 -0.03037,0.186 L 3.61671,19.3081 3.57009,19.4879 3.51563,19.6642 3.45354,19.837 3.38402,20.006 3.30726,20.1713 3.22345,20.3324 3.1328,20.489 3.03552,20.6414 2.93179,20.789 2.82181,20.9317 2.70577,21.0694 2.5839,21.2019 2.45636,21.3289 2.32337,21.4504 2.18513,21.5659 2.04184,21.6756 1.89369,21.779 1.74087,21.8761 1.58359,21.9665 1.42204,22.0502 1.25644,22.1271 1.08696,22.1968 0.913815,22.2591 0.737199,22.3139 0.557313,22.361 0.374351,22.4002 0.188514,22.4314 0,22.4543 0.199955,22.4806 0.403308,22.4959 0.603263,22.4911 0.800771,22.477 0.995616,22.4537 1.18758,22.4214 1.37645,22.3805 1.562,22.3309 1.74402,22.2731 1.92229,22.2072 2.0966,22.1335 2.26673,22.0521 2.43246,21.9632 2.59357,21.8671 2.74986,21.7641 2.9011,21.6542 3.04706,21.5377 3.18755,21.415 3.32235,21.2861 3.45123,21.1513 3.57397,21.0108 3.69037,20.8648 3.8002,20.7135 3.90325,20.5572 3.9993,20.396 4.08814,20.2303 4.16954,20.0601 4.2433,19.8857 4.30919,19.7074 4.367,19.5252 l 0.04951,-0.1855 0.04099,-0.189 0.03227,-0.192 0.0233,-0.1949 0.01415,-0.1977 0.00476,-0.2 L 4.52936,18.2219 4.52165,18.0792 4.50903,17.9378 4.49173,17.7979 4.46994,17.6591 4.44385,17.5216 l 0.18048,-0.027 0.17854,-0.0328 0.17645,-0.0384 0.17428,-0.0441 0.17202,-0.0494 0.16965,-0.055 0.16717,-0.0602 0.1646,-0.0655 0.16189,-0.0705 0.15914,-0.0755 0.15623,-0.0804 0.15324,-0.0853 0.15015,-0.09 0.14695,-0.0945 0.14365,-0.0991 0.14025,-0.1035 0.13674,-0.1078 0.13314,-0.112 0.12942,-0.1162 0.12561,-0.1201 0.12169,-0.1242 0.11768,-0.128 0.11355,-0.1316 0.10931,-0.1352 0.105,-0.1389 0.10056,-0.1423 0.09602,-0.1455 0.09139,-0.1488 0.08664,-0.1521 0.0818,-0.155 0.07686,-0.1579 0.0718,-0.1609 0.06666,-0.1635 0.06139,-0.1662 0.05604,-0.1688 0.05057,-0.1711 0.04501,-0.1736 0.03935,-0.1759 0.03356,-0.178 0.02772,-0.18 0.02171,-0.182 L 9.1534,12.5309 9.16286,12.3453 9.16605,12.158 9.16364,11.995 9.15646,11.8333 9.14459,11.6727 9.12808,11.5136 9.10701,11.3558 9.08143,11.1995 9.05144,11.0447 9.01707,10.8915 8.97842,10.7399 8.93554,10.5901 8.8885,10.4421 8.83738,10.296 8.78224,10.1518 8.72313,10.0096 8.66014,9.86942 8.59334,9.73141 8.52279,9.5956 8.44854,9.46205 8.37069,9.33083 8.2893,9.20202 8.20441,9.07568 8.11612,8.95187 8.0245,8.83066 7.92959,8.71211 7.83147,8.59631 7.73021,8.48331 7.62589,8.37318 7.51855,8.26598 7.4083,8.16179 7.29516,8.06068 7.17923,7.96268 7.06056,7.86791 6.93924,7.7764 6.81531,7.68824 6.68885,7.60348 6.55994,7.52219 6.42863,7.44444 6.295,7.3703 6.15911,7.29984 6.02103,7.23311 5.88083,7.17019 5.95979,7.06184 6.03573,6.95119 6.10856,6.8383 6.1782,6.72324 6.24458,6.60603 6.30759,6.48675 6.36716,6.36544 6.42321,6.24216 6.47563,6.11696 6.52435,5.9899 6.56928,5.86104 6.61035,5.73041 6.64745,5.59809 6.68051,5.46412 6.70944,5.32855 6.73415,5.19145 6.75456,5.05287 6.77059,4.91284 6.78215,4.77145 6.78914,4.62873 6.79149,4.48474 6.78712,4.28493 6.77412,4.08736 6.7527,3.89222 6.723,3.69969 6.68524,3.50994 6.6396,3.32316 6.58623,3.13954 6.52535,2.95925 6.45711,2.78247 6.38173,2.6094 6.29935,2.4402 6.21018,2.27509 6.11441,2.11419 6.01219,1.95774 5.90373,1.80589 5.7892,1.65884 5.66878,1.51676 5.54266,1.37983 5.41102,1.24824 5.27404,1.12217 5.13191,1.0018 4.98481,0.887317 4.83292,0.778901 4.67641,0.676732 4.51548,0.580995 4.35032,0.491869 4.18109,0.409538 4.00796,0.334185 3.83116,0.26599 3.65084,0.205135 3.46719,0.151804 3.28038,0.106178 3.09061,0.0684398 2.89806,0.0387706 2.70291,0.0173528 2.50533,0.00436854 2.30553,0 2.10363,0.015606 1.90356,0.040392 2.0877,0.0607575 2.26955,0.0884088 2.44895,0.123197 2.62576,0.164971 2.79981,0.213582 2.97097,0.268881 3.13905,0.330719 3.30391,0.398946 3.4654,0.473411 3.62336,0.553966 3.77763,0.640463 3.92806,0.73275 4.07449,0.830679 4.21678,0.934099 4.35475,1.04286 4.48826,1.15682 4.61716,1.27581 4.74129,1.39971 4.86048,1.52835 4.97459,1.66158 5.08346,1.79926 5.18693,1.94124 5.28486,2.08736 5.37708,2.23747 5.46345,2.39144 5.54379,2.5491 5.61796,2.71032 5.68581,2.87493 5.74718,3.04279 5.80191,3.21375 5.84984,3.38766 5.89083,3.56437 5.92471,3.74374 5.95133,3.92561 5.97054,4.10984 5.98218,4.29625 Z"
         style="fill:url(#Grad279);fill-rule:evenodd;stroke:none"
         transform="rotate(-90,20.7343,-9.6894)"
         id="path5027" />
      <path
         d="M 4.23125,3.16996 4.22811,3.31214 4.21856,3.45254 4.20276,3.59102 4.18089,3.72751 4.15309,3.86189 4.11958,3.99407 4.08049,4.12395 4.03601,4.25142 3.9863,4.37638 3.93154,4.49871 3.8719,4.61835 3.80756,4.73517 3.73866,4.84907 3.6654,4.95995 3.58795,5.06771 3.72759,5.13135 3.86419,5.20032 3.99762,5.27451 4.12774,5.35376 4.25443,5.43796 4.37754,5.52697 4.49693,5.62064 4.61247,5.71887 4.72403,5.8215 4.83147,5.92841 4.93464,6.03945 5.03343,6.1545 5.12769,6.27343 5.21729,6.3961 5.30207,6.52238 5.38194,6.65212 5.45673,6.78521 5.5263,6.9215 5.59053,7.06086 5.64929,7.20317 5.70243,7.34827 5.74981,7.49606 5.79132,7.64638 5.8268,7.7991 5.85612,7.95409 5.87914,8.11123 5.89574,8.27037 5.90578,8.43138 5.90909,8.59412 5.9044,8.78788 5.89021,8.97902 5.86675,9.16734 5.83426,9.35262 5.79295,9.53464 5.74307,9.71319 5.68484,9.88804 5.6185,10.059 l -0.07423,0.1668 -0.08189,0.1624 -0.08931,0.1579 -0.09652,0.1531 -0.10347,0.148 -0.11021,0.1429 -0.11672,0.1374 -0.123,0.1317 -0.12905,0.1258 -0.13486,0.1198 -0.14045,0.1134 -0.14581,0.1069 -0.15093,0.1001 -0.15582,0.0931 -0.1605,0.086 -0.16493,0.0785 -0.16914,0.0709 -0.17311,0.063 -0.17686,0.055 -0.18038,0.0466 -0.18367,0.0382 -0.18673,0.0294 0.02709,0.1459 0.01967,0.1476 0.01211,0.1498 0.00437,0.1522 L 2.62696,13.186 2.60592,13.3866 2.57148,13.5829 2.52411,13.7743 2.46428,13.9603 2.39247,14.1406 2.30916,14.3147 2.2148,14.482 2.10989,14.6423 1.99489,14.795 1.87027,14.9395 1.73651,15.0758 1.59408,15.2029 1.44345,15.3207 1.28509,15.4286 1.11948,15.5263 0.94709,15.6132 0.768393,15.6889 0.583864,15.7529 0.393973,15.8047 0.199194,15.8439 0,15.8703 0.141351,15.8902 0.284522,15.902 0.484279,15.8951 0.680441,15.8752 0.872569,15.8425 1.06023,15.7974 1.24298,15.7405 1.42039,15.6722 1.59203,15.5928 1.75746,15.5029 1.91622,15.4028 2.06791,15.293 l 0.14415,-0.1189 0.13621,-0.128 0.12781,-0.1362 0.11897,-0.1443 0.1097,-0.1517 0.1,-0.1588 L 2.89461,14.2895 2.97389,14.1177 3.04217,13.9403 3.09898,13.7574 3.14391,13.5695 3.17652,13.3772 3.19637,13.1809 3.20302,12.981 3.19927,12.8289 3.18734,12.679 3.16801,12.5313 3.14201,12.3854 3.32857,12.356 3.5121,12.3178 3.69234,12.2712 3.86908,12.2162 4.04209,12.1532 4.21112,12.0823 4.37596,12.0038 4.53638,11.9178 4.69213,11.8247 4.843,11.7246 4.98875,11.6177 5.12916,11.5043 5.26398,11.3846 5.39301,11.2587 5.51599,11.127 5.63271,10.9896 5.74293,10.8468 5.84642,10.6987 5.94296,10.5456 6.0323,10.3877 6.11423,10.2253 6.18851,10.0585 6.25491,9.88756 6.31321,9.71271 6.36316,9.53416 6.40456,9.35214 6.43714,9.16685 6.4607,8.97853 6.47501,8.78738 6.47982,8.59363 6.47638,8.43101 6.46625,8.27012 6.44957,8.11108 6.42648,7.95404 6.3971,7.79914 6.36157,7.6465 6.32003,7.49624 6.27261,7.34853 6.21945,7.20347 6.16069,7.06121 6.09644,6.92188 6.02685,6.78561 5.95205,6.65255 5.87219,6.52281 5.78739,6.39654 5.69779,6.27387 5.60352,6.15492 5.50472,6.03984 5.40152,5.92876 5.29406,5.82181 5.18246,5.71913 5.06687,5.62085 4.94742,5.52709 4.82425,5.43801 4.69748,5.35373 4.56726,5.27439 4.43372,5.2001 4.29699,5.13102 4.15721,5.06727 4.23492,4.9595 4.30837,4.84861 4.3774,4.73471 4.44186,4.61791 4.50155,4.49829 4.55635,4.37597 4.60608,4.25106 4.65058,4.12366 4.68968,3.99386 4.72323,3.86177 4.75107,3.72751 4.77302,3.59117 4.78894,3.45284 4.79866,3.31265 4.80201,3.17069 4.79617,2.97764 4.779,2.78765 4.7508,2.60102 4.71191,2.41813 4.66267,2.23928 4.6034,2.0648 4.53445,1.89505 4.45613,1.73033 4.36879,1.57098 4.27275,1.41734 4.16834,1.26974 4.0559,1.12851 3.93576,0.99398 3.80824,0.866483 3.67369,0.74635 3.53243,0.633914 3.3848,0.529507 3.23112,0.43346 3.07173,0.346106 2.90696,0.267774 2.73715,0.1988 2.5626,0.139513 2.38369,0.0902441 2.20072,0.0513268 2.01402,0.0230926 1.82393,0.00587306 1.63078,0 1.48683,0.011193 1.34487,0.029664 1.52962,0.051685 1.71102,0.0840325 1.88873,0.126404 2.06245,0.178495 2.23187,0.240003 2.39664,0.310624 2.55648,0.390057 2.71105,0.477996 2.86005,0.574139 3.00313,0.678184 3.14001,0.789826 3.27034,0.908762 3.39383,1.03469 3.51016,1.1673 3.61899,1.3063 3.72003,1.45138 3.81293,1.60224 3.8974,1.75858 3.97312,1.92009 4.03975,2.08645 4.097,2.2574 l 0.04754,0.1752 0.0375,0.17916 0.02717,0.18282 0.0165,0.18617 z"
         style="fill:url(#Grad280);fill-rule:evenodd;stroke:none"
         transform="rotate(-87.983,22.093442,-9.7640083)"
         id="path5029" />
    </g>
  </g>
</svg>
