<?xml version="1.0" encoding="UTF-8" standalone="no"?>
<svg
   width="47.625671pt"
   height="47.128197pt"
   version="1.1"
   viewBox="0 0 47.625671 47.128197"
   id="svg6053"
   sodipodi:docname="Weather Icons-page001.svg"
   xmlns:inkscape="http://www.inkscape.org/namespaces/inkscape"
   xmlns:sodipodi="http://sodipodi.sourceforge.net/DTD/sodipodi-0.dtd"
   xmlns="http://www.w3.org/2000/svg"
   xmlns:svg="http://www.w3.org/2000/svg">
  <sodipodi:namedview
     id="namedview6055"
     pagecolor="#ffffff"
     bordercolor="#000000"
     borderopacity="0.25"
     inkscape:showpageshadow="2"
     inkscape:pageopacity="0.0"
     inkscape:pagecheckerboard="0"
     inkscape:deskcolor="#d1d1d1"
     inkscape:document-units="pt"
     showgrid="false" />
  <defs
     id="defs2330">
    <clipPath
       id="Clip10">
      <path
         d="M 0,0 H 48.8937 V 50.2842 H 0 Z"
         id="path738" />
    </clipPath>
    <linearGradient
       x2="23.338699"
       y2="22.665899"
       id="Grad102"
       x1="0.99056"
       gradientUnits="userSpaceOnUse"
       y1="22.665899">
      <stop
         offset="0%"
         stop-color="#dceff6"
         stop-opacity="1"
         id="stop741" />
      <stop
         offset="100%"
         stop-color="#3f6e7a"
         stop-opacity="1"
         id="stop743" />
    </linearGradient>
  </defs>
  <g
     inkscape:groupmode="layer"
     id="Background"
     inkscape:label="Background"
     transform="translate(-536.27899,-97.7994)">
    <g
       id="drizzels"
       style="fill:none;stroke:none"
       clip-path="url(#Clip10)"
       clip-rule="evenodd"
       transform="translate(536.279,94.6434)">
      <path
         d="m 28.9979,23.9548 c -1.3109,0 -2.3317,-0.0436 -2.9596,-0.0803 C 25.3369,23.833 24.4238,23.8013 23.3675,23.7642 15.4874,23.4899 0.820233,22.9788 0.00872156,16.4852 l -0.004896,-0.0351 -0.001224,-0.0347 C -0.156519,11.8116 7.02714,10.0907 9.58653,9.62431 9.03206,7.11634 9.24258,3.01226 13.2254,1.01959 14.5596,0.352512 16.1386,0 17.7897,0 c 2.9939,0 5.9842,1.16035 7.7063,2.9425 0.0392,-0.02938 0.0784,-0.05753 0.1188,-0.08691 1.0795,-0.77479 2.5569,-1.83722 4.7785,-1.83722 0.5349,0 1.0942,0.06365 1.6597,0.18972 2.5937,0.57528 3.5092,2.69769 3.7038,4.22647 2.4125,0.01836 9.8924,0.73073 11.6856,8.65124 0.4418,1.9537 0.0844,3.6742 -1.0649,5.1115 -3.306,4.1394 -12.3073,4.7575 -17.3796,4.7575"
         style="fill:#738a92;fill-rule:nonzero;stroke:none"
         transform="translate(0,3.156)"
         id="path2654" />
      <path
         d="m 12.042,36.7502 -0.0041,0.0024 -0.0123,0.0068 -0.0203,0.0109 -0.0281,0.0151 -0.0357,0.0186 -0.0431,0.022 -0.0504,0.0253 -0.0575,0.0282 -0.0643,0.0308 -0.0711,0.0332 -0.0775,0.0354 -0.0839,0.0372 -0.0901,0.0389 -0.096,0.0403 -0.1018,0.0412 -0.1074,0.0423 -0.1129,0.0428 -0.118,0.0431 -0.1231,0.0431 -0.128,0.043 -0.1327,0.0425 -0.1372,0.0419 -0.1415,0.0409 -0.1457,0.0396 -0.14961,0.0382 -0.15339,0.0364 -0.15698,0.0344 -0.1604,0.0321 -0.16361,0.0297 -0.16666,0.0269 -0.16952,0.0239 -0.17219,0.0205 -0.17469,0.017 -0.17701,0.0131 -0.17913,0.0092 -0.18108,0.0048 -0.18284,2e-4 L 7.68777,37.7975 7.50196,37.7877 7.31493,37.7726 7.12687,37.7518 6.93796,37.7253 6.74839,37.6925 6.55834,37.6533 6.36798,37.6075 6.17752,37.5548 5.98711,37.4949 5.79696,37.4276 5.60724,37.3526 5.41813,37.2696 5.22983,37.1784 5.0425,37.0788 4.85634,36.9704 4.67153,36.853 4.48825,36.7265 4.30668,36.5904 4.127,36.4445 3.94941,36.2885 3.77407,36.1224 3.60118,35.9457 3.43092,35.7582 3.26348,35.5596 3.09902,35.3499 2.9725,35.1778 2.85061,35.0024 2.73333,34.824 2.62065,34.6427 2.51253,34.4587 2.40894,34.2719 2.30986,34.0825 2.21527,33.8907 2.12515,33.6967 2.03944,33.5005 1.95816,33.3022 1.88125,33.1021 1.8087,32.9 1.74048,32.6965 1.67657,32.4913 1.61693,32.2847 1.56155,32.0769 1.5104,31.8679 1.46345,31.6579 1.42068,31.447 1.38206,31.2354 1.34756,31.023 1.31717,30.8103 1.29084,30.5971 1.26857,30.3836 1.25032,30.17 1.23607,29.9564 1.22579,29.743 1.21945,29.5299 1.21703,29.317 1.21851,29.1048 1.22385,28.893 l 0.0092,-0.2108 0.01299,-0.21 0.0168,-0.2089 0.02056,-0.2079 0.02431,-0.2066 0.02802,-0.2051 0.0317,-0.2036 0.03537,-0.2019 0.039,-0.2003 0.04262,-0.1982 0.0462,-0.1962 0.04976,-0.1941 0.05331,-0.1917 0.0568,-0.1893 0.0603,-0.1867 L 1.81453,25.6976 1.8817,25.5164 1.95229,25.338 2.02626,25.1627 2.10358,24.9907 2.18422,24.8219 2.26817,24.6566 2.3554,24.4948 2.44588,24.3368 2.53959,24.1826 2.6365,24.0324 2.73658,23.8861 2.83981,23.7443 2.94617,23.6066 3.05562,23.4735 3.16814,23.3449 3.10777,23.2801 3.04517,23.2149 2.98045,23.1488 2.91376,23.0821 2.84522,23.0145 2.77497,22.9461 2.70314,22.8767 2.62989,22.8063 2.55531,22.7348 2.47955,22.6622 2.40276,22.5884 2.32505,22.5133 2.24657,22.4369 2.16743,22.3589 2.0878,22.2796 2.00779,22.1987 1.92753,22.1162 1.84716,22.0319 1.76681,21.946 1.68662,21.8581 1.60672,21.7685 1.52725,21.6768 1.44832,21.583 1.37008,21.4872 1.29267,21.3893 1.21622,21.289 1.14085,21.1865 1.0667,21.0816 0.993911,20.9742 0.92261,20.8644 0.85293,20.7519 0.785005,20.6369 0.718968,20.5191 0.654953,20.3986 0.593093,20.2752 0.533521,20.1489 0.47637,20.0195 0.421773,19.8871 0.369865,19.7516 0.320777,19.6129 0.274645,19.471 0.231599,19.3257 0.191775,19.177 0.155305,19.0249 0.122323,18.8692 0.0929607,18.7099 0.0673527,18.547 0.0456319,18.3803 0.0279316,18.2098 0.0143849,18.0355 0.00512528,17.8572 2.85885e-4,17.6748 0,17.4885 0.00440088,17.2979 0.022708,17.0154 0.0566219,16.7468 0.105179,16.4916 l 0.062237,-0.242 0.074953,-0.2293 0.086706,-0.2166 0.097495,-0.2046 0.107322,-0.1927 0.116183,-0.1813 0.124082,-0.17 0.131018,-0.1594 0.136985,-0.1487 0.142,-0.1388 0.14605,-0.1289 0.14912,-0.1195 0.15123,-0.1102 0.1524,-0.1016 0.15259,-0.0931 0.15181,-0.085 0.15009,-0.0773 0.14737,-0.0697 0.14372,-0.0627 0.13908,-0.0561 0.1335,-0.0494 0.12695,-0.0435 0.11942,-0.0378 0.11096,-0.0323 0.10149,-0.0272 0.0911,-0.0225 0.07972,-0.0181 0.0674,-0.0141 0.05408,-0.0104 0.03983,-0.007 L 3.61668,13.4379 3.6251,13.4366 3.6232,13.4296 3.61776,13.4088 3.60909,13.3746 3.5975,13.3274 3.58331,13.2674 3.56687,13.1952 3.54849,13.111 3.52849,13.0152 3.50719,12.9082 3.48491,12.7902 3.462,12.6618 3.43874,12.5232 3.4155,12.3749 3.39256,12.2171 3.37028,12.0502 3.34896,11.8747 3.32893,11.6909 3.3105,11.499 3.29403,11.2996 3.27981,11.0929 3.26815,10.8793 3.25943,10.6592 3.25391,10.433 3.25195,10.201 3.25387,9.96352 3.25999,9.72098 3.27061,9.47376 3.2861,9.22219 3.30675,8.96663 3.33288,8.70747 3.36482,8.44506 3.4029,8.17975 3.44746,7.91191 3.49878,7.64192 3.55721,7.37012 3.62308,7.09689 3.69669,6.82258 3.77838,6.54756 3.86846,6.27218 3.96727,5.99682 4.07511,5.72183 4.19233,5.4476 4.31925,5.17445 4.45617,4.90277 4.60343,4.63293 4.76135,4.36526 4.93025,4.10016 5.11046,3.83796 5.30231,3.57905 5.50609,3.32377 5.72216,3.07251 5.95083,2.82562 6.19241,2.58345 6.44725,2.34637 6.71565,2.11475 6.99794,1.88895 7.29444,1.66933 7.6055,1.45625 7.9314,1.25008 8.27248,1.05119 8.62908,0.859927 9.0015,0.676659 9.39009,0.501749 9.78315,0.346259 10.1688,0.22051 10.5472,0.123755 10.9183,0.0552501 11.2822,0.0142472 11.6389,0 l 0.3496,0.0117618 0.3426,0.0370244 0.3355,0.0615398 0.3285,0.08531 0.3217,0.108332 0.3148,0.13061 0.308,0.152137 0.3013,0.172921 0.2946,0.192958 0.288,0.212246 0.2814,0.23079 0.2748,0.24859 0.2683,0.26564 0.2619,0.28193 0.2556,0.29751 0.2493,0.3123 0.243,0.32638 0.2367,0.33969 0.2306,0.35225 0.2246,0.36409 0.2184,0.37516 0.2125,0.3855 0.2064,0.39507 0.2007,0.40392 0.1947,0.412 0.189,0.41935 0.1832,0.42594 0.1775,0.4318 0.172,0.43691 0.1663,0.44126 0.1608,0.44488 0.1554,0.44774 0.1498,0.44985 0.1445,0.45121 0.1393,0.4519 0.1341,0.4517 0.1287,0.4509 0.1237,0.4492 0.1184,0.4469 0.1135,0.4438 0.1084,0.4399 0.1036,0.4354 0.0986,0.43 0.0938,0.4238 0.089,0.4171 0.0843,0.4094 0.0796,0.4011 0.075,0.392 0.0704,0.3823 0.0658,0.3716 0.0615,0.3603 0.057,0.3483 0.0527,0.3355 0.0483,0.3219 0.0441,0.3076 0.0399,0.2925 0.0357,0.2766 0.0359,0.2783 0.04,0.2967 0.0441,0.3146 0.0477,0.332 0.0509,0.3485 0.054,0.3642 0.0566,0.3795 0.0589,0.3938 0.061,0.4076 0.0627,0.4207 0.0641,0.433 0.0653,0.4445 0.0659,0.4556 0.0665,0.4657 0.0665,0.4753 0.0664,0.4841 0.0659,0.4923 0.0651,0.4996 0.064,0.5065 0.0625,0.5124 0.0609,0.5177 0.0586,0.5224 0.0564,0.5264 0.0536,0.5296 0.0507,0.5321 0.0473,0.5339 0.0437,0.535 0.0396,0.5355 0.0354,0.5352 0.0308,0.5342 0.026,0.5325 0.0207,0.5303 0.0151,0.527 0.0094,0.5234 0.0031,0.5189 -0.0034,0.5137 -0.0102,0.5078 -0.0172,0.5012 -0.0246,0.4941 -0.0325,0.486 -0.0405,0.4772 -0.0489,0.4681 -0.0576,0.4578 -0.0665,0.4471 -0.0759,0.4356 -0.0856,0.4235 -0.0955,0.4106 -0.1058,0.397 -0.1163,0.3828 -0.1273,0.3677 -0.1384,0.3521 -0.1501,0.3357 -0.1618,0.3187 -0.1741,0.3008 -0.1865,0.2824 -0.1993,0.2631 -0.2123,0.2434 -0.2259,0.2227 -0.2396,0.2015 -0.2536,0.1795 -0.2681,0.1568 -0.2826,0.1334 -0.2977,0.1094 -0.224,0.0419 -0.2214,0.0264 -0.2189,0.0114 -0.2164,-0.0033 -0.2135,-0.0173 -0.2112,-0.031 -0.2083,-0.044 -0.2056,-0.0567 -0.203,-0.0688 -0.2001,-0.0805 -0.1973,-0.0917 -0.1944,-0.1023 -0.1915,-0.1126 -0.1887,-0.1224 -0.1855,-0.1316 -0.1828,-0.1403 -0.1795,-0.1487 -0.1766,-0.1564 -0.1735,-0.1638 -0.1702,-0.1705 -0.1672,-0.177 -0.1639,-0.1827 -0.1608,-0.1883 -0.1574,-0.193 L 15.098,42.7522 14.9474,42.5508 14.8,42.3459 14.6561,42.138 14.5155,41.9278 14.3785,41.7154 14.245,41.5016 14.115,41.2866 13.9887,41.0712 13.866,40.8557 13.747,40.6406 13.6316,40.4264 13.5199,40.2137 13.4121,40.0026 13.3081,39.7941 13.2078,39.5883 13.1115,39.3859 13.0191,39.1873 12.9306,38.993 12.846,38.8034 12.7655,38.619 l -0.0764,-0.1785 -0.0725,-0.1724 -0.0683,-0.1657 -0.064,-0.1585 -0.06,-0.1508 -0.0557,-0.1426 -0.0515,-0.134 -0.0471,-0.125 -0.0429,-0.1153 -0.0384,-0.1053 -0.0341,-0.0946 -0.0297,-0.0836 -0.0251,-0.0721 -0.0207,-0.06 -0.0162,-0.0476 -0.0116,-0.0345 -0.0069,-0.0212 z"
         style="fill:url(#Grad102);fill-rule:evenodd;stroke:none"
         transform="rotate(100.513,21.00818,24.463044)"
         id="path2656" />
      <path
         d="m 0,14.2339 c 2.89109,-2.8071 11.0417,-3.2612 11.0417,-3.2612 0,0 -3.09427,-7.00985 1.9804,-9.54721 4.0148,-2.007353 8.8948,0.4382 11.065,3.27665 1.3354,-0.83599 3.011,-3.26196 6.3978,-2.5092 3.2987,0.73318 2.1323,4.51534 2.1323,4.51534 0,0 10.9168,-0.69156 12.9205,8.15382 0.0906,0.4 0.142,0.7801 0.1603,1.1424 0.1738,-0.7525 0.1763,-1.5893 -0.0355,-2.5226 C 43.6601,4.63605 33.9966,5.45368 33.9966,5.45368 c 0,0 0.164,-3.53124 -3.1359,-4.26441 C 27.4739,0.436505 25.6734,2.36063 24.338,3.19662 22.1691,0.358169 16.5607,-1.06901 12.5472,0.938345 7.4713,3.47569 9.53863,9.47574 9.53863,9.47574 c 0,0 -8.01353,1.04656 -9.53863,4.75816"
         style="fill:#dbeff8;fill-rule:nonzero;stroke:none"
         transform="translate(1.02464,3.93003)"
         id="path2658" />
      <path
         d="M 4.97801,2.18114 4.63162,2.1738 4.79318,2.01443 C 4.8397,1.97025 4.84214,1.89497 4.79563,1.84858 L 4.77482,1.82618 C 4.72954,1.77967 4.65365,1.77857 4.60591,1.823 L 4.25218,2.16707 3.7283,2.15936 4.1665,1.73438 C 4.21301,1.68946 4.21301,1.61468 4.16772,1.56804 L 4.14446,1.5465 C 4.1004,1.49864 4.02696,1.49864 3.97922,1.54307 L 3.35254,2.15348 2.78705,2.14442 3.07102,1.67086 C 3.07469,1.66914 3.07714,1.67147 3.08203,1.66914 L 3.96454,1.44833 C 4.02696,1.43218 4.0649,1.36804 4.04899,1.30598 L 4.04165,1.27453 C 4.02574,1.21161 3.96209,1.17305 3.89722,1.18982 L 3.26441,1.34833 3.53614,0.894839 c 0.00367,-6.12e-4 0.00612,0 0.00856,-6.12e-4 L 4.05511,0.766075 C 4.11876,0.751387 4.15793,0.686882 4.14202,0.623723 L 4.13222,0.593735 C 4.11754,0.531311 4.05511,0.492266 3.99146,0.507321 L 3.7283,0.574029 3.91802,0.245018 C 3.95107,0.187 3.93271,0.11613 3.87641,0.0832046 L 3.84948,0.0658238 C 3.79318,0.0335102 3.72218,0.0517478 3.68914,0.106216 L 3.51533,0.409646 3.46025,0.190305 C 3.44434,0.126412 3.37824,0.087611 3.31704,0.10438 L 3.28522,0.112091 C 3.22279,0.126412 3.18485,0.190917 3.20076,0.254075 L 3.32071,0.733761 3.05143,1.18395 2.9021,0.593123 C 2.88619,0.529598 2.82377,0.490797 2.76012,0.507321 L 2.7283,0.515522 C 2.66587,0.531311 2.62793,0.595816 2.64262,0.657628 L 2.85559,1.50745 2.56795,1.99155 2.29867,1.50745 C 2.2999,1.50501 2.30357,1.50268 2.30357,1.49864 L 2.55326,0.625437 C 2.5704,0.562891 2.5349,0.497039 2.47248,0.478802 L 2.44188,0.470479 C 2.37823,0.453465 2.31336,0.490185 2.29622,0.552242 L 2.1163,1.18077 1.86048,0.719073 C 1.8617,0.716747 1.86293,0.712586 1.86538,0.709893 L 2.00981,0.203524 C 2.02694,0.141467 1.99022,0.0762278 1.9278,0.0590918 L 1.8972,0.049667 C 1.836,0.0328982 1.77113,0.0676598 1.75277,0.130574 L 1.67933,0.390551 1.50797,0.0605606 C 1.47614,0.00413413 1.40393,-0.0167962 1.34762,0.0146606 L 1.31947,0.0291038 C 1.26439,0.0617846 1.24114,0.133511 1.27541,0.19055 L 1.42963,0.494959 1.21054,0.432902 C 1.14934,0.413685 1.08446,0.450527 1.06488,0.513196 L 1.05754,0.542817 C 1.0404,0.606098 1.0759,0.670847 1.1371,0.688963 L 1.61323,0.82397 1.86905,1.28309 1.2803,1.11687 C 1.22033,1.09802 1.15301,1.13425 1.1371,1.19656 L 1.1273,1.22691 C 1.11139,1.28885 1.14689,1.35445 1.20931,1.37367 L 2.05265,1.61296 2.32682,2.10464 1.77358,2.0962 C 1.77113,2.09351 1.7699,2.08934 1.76746,2.08763 L 1.13465,1.4345 C 1.08814,1.38775 1.01592,1.38775 0.969408,1.43218 L 0.944928,1.4536 C 0.89964,1.49864 0.898416,1.57367 0.943704,1.62031 L 1.39903,2.08934 0.86904,2.0809 C 0.867816,2.07857 0.866592,2.07563 0.865368,2.07294 L 0.498168,1.69387 C 0.45288,1.64772 0.37944,1.64711 0.331704,1.69154 L 0.309672,1.71394 C 0.261936,1.75739 0.261936,1.83328 0.306,1.88053 L 0.49572,2.07563 0.119952,2.07257 C 0.05508,2.07086 0.001224,2.12349 0,2.18849 V 2.21994 C 0,2.28371 0.051408,2.33757 0.113832,2.34026 L 0.459,2.34198 0.294984,2.5011 C 0.248472,2.54541 0.248472,2.61958 0.29376,2.66634 l 0.023256,0.02289 c 0.045288,0.04651 0.118728,0.04761 0.16524,0.00306 L 0.837216,2.34822 1.36231,2.35618 0.92412,2.78103 C 0.878832,2.82521 0.877608,2.90073 0.920448,2.94663 L 0.943704,2.96928 C 0.988992,3.01665 1.06488,3.01799 1.11139,2.97185 L 1.74053,2.36168 2.30357,2.37221 2.01838,2.84578 C 2.01593,2.84688 2.01226,2.84516 2.00736,2.84688 L 1.1273,3.06659 C 1.06488,3.08274 1.02694,3.14688 1.04162,3.21065 l 0.00612,0.03036 c 0.01714,0.0623 0.08201,0.1011 0.14444,0.08555 L 1.82743,3.16683 1.55693,3.62032 c -0.0049,0 -0.00857,-6.1e-4 -0.01224,0 L 1.03428,3.74884 C 0.970632,3.76439 0.933912,3.82816 0.947376,3.89058 L 0.95472,3.92204 C 0.971856,3.9852 1.03673,4.02314 1.10038,4.00649 L 1.36354,3.94113 1.13342,4.31115 C 1.09915,4.36696 1.11751,4.4393 1.17382,4.47284 l 0.0257,0.01469 c 0.0563,0.03378 0.12974,0.0164 0.16157,-0.04052 l 0.21297,-0.3426 0.05508,0.22167 c 0.01714,0.0623 0.08201,0.10061 0.14444,0.08531 L 1.80295,4.40368 C 1.86905,4.38838 1.90699,4.32339 1.88986,4.26047 L 1.7699,3.78091 2.03918,3.33097 2.18729,3.92204 C 2.2032,3.98642 2.26685,4.02437 2.32927,4.0076 L 2.3611,4.00001 C 2.42352,3.9852 2.46146,3.92057 2.44678,3.85704 L 2.23258,3.00808 2.52266,2.52497 2.79194,3.00808 C 2.79072,3.01102 2.78827,3.01371 2.78705,3.01665 L 2.53735,3.89021 C 2.51899,3.95264 2.55449,4.01788 2.61936,4.0355 L 2.64874,4.04432 C 2.70994,4.06145 2.77603,4.02645 2.79439,3.96353 L 2.9731,3.33452 3.23014,3.79646 C 3.22891,3.79878 3.22524,3.80172 3.22402,3.80551 L 3.08081,4.31115 c -0.01714,0.0623 0.01836,0.12729 0.08078,0.14614 l 0.0306,0.00796 C 3.25584,4.48434 3.31949,4.44701 3.33662,4.38422 L 3.41251,4.124 3.60346,4.45901 c 0.0306,0.0574 0.10404,0.07784 0.16156,0.04675 L 3.7895,4.49022 C 3.84826,4.4584 3.86906,4.38691 3.83724,4.32902 L 3.66098,4.02143 3.88008,4.08312 C 3.94128,4.10087 4.00615,4.06549 4.02574,4.00319 L 4.03308,3.97259 C 4.05144,3.91053 4.01472,3.84444 3.95352,3.82644 L 3.47738,3.69083 3.22279,3.23183 3.80664,3.39976 C 3.87151,3.41714 3.93516,3.38177 3.95352,3.31885 L 3.96209,3.28923 C 3.97922,3.22595 3.94373,3.16193 3.8813,3.14272 L 3.03919,2.9022 2.76502,2.41052 3.31826,2.41958 C 3.31949,2.42264 3.32071,2.42607 3.32438,2.429 L 3.95474,3.08091 C 4.00003,3.12742 4.0747,3.12827 4.12121,3.0836 L 4.14446,3.06095 C 4.19098,3.01665 4.19098,2.94161 4.14691,2.894 L 3.69281,2.42545 4.21913,2.43341 C 4.22158,2.43671 4.22158,2.441 4.22402,2.4432 l 0.3672,0.37785 c 0.04529,0.047 0.11873,0.04761 0.16647,0.00233 L 4.78094,2.80159 C 4.82868,2.7563 4.82868,2.68225 4.78217,2.63427 L 4.5949,2.43929 4.97311,2.44785 C 5.03798,2.44908 5.09306,2.3973 5.09306,2.33133 V 2.3011 c 0,-0.06586 -0.04896,-0.11885 -0.11505,-0.11996"
         style="fill:#738a92;fill-rule:nonzero;stroke:none"
         transform="translate(7.41759,28.8005)"
         id="path2660" />
      <path
         d="M 4.97801,2.18122 4.63162,2.17363 4.79318,2.01426 C 4.8397,1.97008 4.84214,1.8948 4.79563,1.84866 L 4.77482,1.82577 C 4.72954,1.7795 4.65365,1.77864 4.60591,1.82283 L 4.25218,2.16677 3.7283,2.15943 4.16527,1.73397 C 4.21301,1.68929 4.21301,1.6145 4.16772,1.56787 L 4.14446,1.54633 C 4.1004,1.49835 4.02696,1.49835 3.97922,1.54253 L 3.35131,2.15331 2.78705,2.1445 3.07224,1.67069 C 3.07469,1.66897 3.07714,1.6713 3.08203,1.66897 L 3.96331,1.4478 C 4.02696,1.43164 4.0649,1.36787 4.04899,1.30606 L 4.04165,1.27399 C 4.02574,1.21108 3.96209,1.17289 3.89844,1.18966 L 3.26441,1.34816 3.53614,0.895043 c 0.00367,-6.12e-4 0.00612,0 0.00856,-6.12e-4 L 4.05511,0.765911 C 4.11876,0.751223 4.15793,0.686718 4.14202,0.623804 L 4.13222,0.593327 C 4.11754,0.530903 4.05511,0.492102 3.99146,0.507402 L 3.7283,0.573865 3.9168,0.244242 C 3.95107,0.186836 3.93271,0.115722 3.87641,0.0824297 L 3.84948,0.0654161 C 3.7944,0.0331025 3.72096,0.0512177 3.68914,0.105686 L 3.51533,0.409482 3.46025,0.189774 C 3.44434,0.126615 3.37946,0.0874481 3.31704,0.104217 L 3.28522,0.111561 C 3.22157,0.126615 3.18607,0.190998 3.20076,0.253911 L 3.32071,0.733597 3.05143,1.18403 2.9021,0.592959 C 2.88619,0.529434 2.82377,0.490633 2.76012,0.507402 L 2.7283,0.515358 C 2.66587,0.530903 2.6267,0.595652 2.64262,0.657342 L 2.85559,1.50753 2.56795,1.99125 2.29867,1.50753 C 2.2999,1.50483 2.30357,1.50214 2.30357,1.49835 L 2.55326,0.625028 C 2.5704,0.562727 2.5349,0.496508 2.47248,0.478638 L 2.44188,0.470682 C 2.37823,0.453301 2.31336,0.490021 2.295,0.552078 L 2.1163,1.1806 1.86048,0.718909 C 1.8617,0.716461 1.86293,0.712299 1.86538,0.709729 L 2.00858,0.20336 C 2.02694,0.141548 1.99022,0.0760649 1.9278,0.0589289 L 1.8972,0.0492593 C 1.83478,0.0324905 1.77113,0.0674969 1.75277,0.13041 L 1.67933,0.390387 1.50797,0.0603977 C 1.47492,0.00397126 1.40393,-0.0165919 1.3464,0.0144977 L 1.31947,0.0291857 C 1.26439,0.0613769 1.24114,0.133347 1.27418,0.190386 L 1.42963,0.494795 1.20931,0.432738 C 1.14934,0.413276 1.08324,0.450363 1.06488,0.51291 L 1.05631,0.542408 C 1.0404,0.605934 1.0759,0.670683 1.1371,0.688554 L 1.61323,0.823806 1.86905,1.28256 1.2803,1.11708 C 1.22033,1.09786 1.15301,1.13409 1.1371,1.19664 L 1.1273,1.22699 C 1.11139,1.28868 1.14689,1.35428 1.20931,1.37338 L 2.05265,1.61279 2.3256,2.10447 1.77358,2.09566 C 1.77113,2.09333 1.7699,2.08942 1.76746,2.08709 L 1.13465,1.43458 C 1.08814,1.38758 1.01592,1.38758 0.969408,1.43164 L 0.944928,1.45343 C 0.900864,1.49835 0.898416,1.57338 0.943704,1.62038 L 1.39903,2.08942 0.870264,2.08073 C 0.867816,2.0784 0.866592,2.0751 0.865368,2.07277 L 0.498168,1.6937 C 0.45288,1.64755 0.37944,1.64694 0.331704,1.69125 L 0.309672,1.7134 C 0.261936,1.75747 0.261936,1.83311 0.306,1.88011 L 0.49572,2.0751 0.119952,2.07216 C 0.05508,2.07008 0.001224,2.12332 0,2.18807 V 2.21953 C 0,2.2833 0.051408,2.33715 0.113832,2.33972 L 0.459,2.34181 0.294984,2.50117 C 0.248472,2.54523 0.248472,2.61941 0.29376,2.66617 L 0.317016,2.68881 C 0.362304,2.73593 0.435744,2.73667 0.481032,2.69199 L 0.837216,2.34793 1.36231,2.35588 0.92412,2.78049 C 0.878832,2.82492 0.877608,2.90056 0.921672,2.94609 L 0.943704,2.96898 C 0.988992,3.01635 1.06366,3.01782 1.11139,2.97143 L 1.74053,2.36127 2.30357,2.37204 2.01838,2.8456 C 2.01593,2.84646 2.01103,2.84524 2.00736,2.84646 L 1.1273,3.06641 C 1.06366,3.08257 1.02694,3.14646 1.04162,3.21048 L 1.04774,3.24083 C 1.06488,3.30277 1.12853,3.34194 1.19218,3.32639 L 1.82743,3.16641 1.5557,3.61978 c -0.00367,0 -0.00734,-2.4e-4 -0.01101,0 L 1.03428,3.7483 C 0.970632,3.76397 0.932688,3.82799 0.947376,3.89066 L 0.95472,3.92162 C 0.971856,3.98478 1.03795,4.02297 1.10038,4.00645 L 1.36354,3.94096 1.13342,4.31085 C 1.09793,4.36679 1.11751,4.43937 1.17259,4.47267 l 0.02693,0.01432 c 0.0563,0.0339 0.12974,0.01652 0.16157,-0.04027 L 1.57406,4.10449 1.62914,4.32591 c 0.01714,0.0623 0.08201,0.10086 0.14444,0.08531 L 1.80295,4.40327 C 1.86905,4.38821 1.90699,4.32358 1.88986,4.2603 L 1.7699,3.78074 2.03796,3.3308 2.18729,3.92162 c 0.01469,0.06463 0.07956,0.10257 0.14198,0.0858 L 2.3611,4.00008 C 2.42352,3.98478 2.46146,3.9204 2.44678,3.85687 L 2.2338,3.00791 2.52266,2.52479 2.79194,3.00791 C 2.79072,3.01084 2.78827,3.01354 2.78705,3.01635 L 2.53735,3.89004 C 2.51899,3.95247 2.55449,4.01746 2.61814,4.03509 l 0.0306,0.00905 C 2.71116,4.06153 2.77603,4.02591 2.79439,3.96324 L 2.9731,3.33435 3.23014,3.79665 C 3.22769,3.79898 3.22524,3.80155 3.22402,3.80571 L 3.08081,4.31085 C 3.06367,4.37328 3.09917,4.43827 3.16159,4.45712 L 3.19097,4.46508 C 3.25584,4.48417 3.31949,4.44672 3.33662,4.38442 L 3.41129,4.12383 3.60346,4.45822 C 3.63406,4.51587 3.7075,4.53644 3.76502,4.50535 L 3.7895,4.48968 C 3.84826,4.45786 3.86906,4.3865 3.83724,4.3286 L 3.66098,4.02126 3.88008,4.08331 C 3.94128,4.10069 4.00615,4.06532 4.02574,4.00302 L 4.03308,3.97217 C 4.05022,3.91012 4.01472,3.84427 3.95352,3.82627 L 3.47738,3.69041 3.22157,3.23165 3.80664,3.39934 C 3.87151,3.41697 3.93516,3.38196 3.95352,3.31868 L 3.96209,3.28906 C 3.97922,3.22602 3.94373,3.16164 3.8813,3.1423 L 3.03919,2.90203 2.76502,2.41023 3.31826,2.41916 c 0.00123,0.00318 0.00245,0.00673 0.00612,0.00967 l 0.63036,0.6519 C 4.00126,3.12725 4.0747,3.12847 4.11998,3.08318 L 4.14446,3.06078 C 4.19098,3.01635 4.19098,2.94144 4.14691,2.89407 l -0.4541,-0.46879 0.52632,0.0082 c 0.00245,0.00306 0.00245,0.00735 0.00489,0.0098 l 0.3672,0.37784 C 4.63651,2.86764 4.70995,2.86813 4.75769,2.82345 L 4.78094,2.80117 C 4.82868,2.75588 4.82868,2.68171 4.78217,2.6341 L 4.5949,2.43911 4.97189,2.44768 C 5.03798,2.44854 5.09306,2.39738 5.09306,2.33116 V 2.30092 c 0,-0.06585 -0.04896,-0.11885 -0.11505,-0.1197"
         style="fill:#738a92;fill-rule:nonzero;stroke:none"
         transform="translate(19.1252,29.3668)"
         id="path2662" />
      <path
         d="M 4.97801,2.18122 4.63162,2.17363 4.79318,2.01426 C 4.8397,1.97008 4.84214,1.8948 4.79563,1.84866 L 4.77482,1.82564 C 4.72954,1.77962 4.65365,1.77864 4.60591,1.82283 L 4.25218,2.1669 3.7283,2.15955 4.1665,1.73397 C 4.21423,1.68929 4.21423,1.6145 4.16772,1.56787 L 4.14446,1.54633 C 4.10162,1.49847 4.02696,1.49847 3.97922,1.54278 L 3.35254,2.15331 2.78705,2.1445 3.07102,1.67069 C 3.07469,1.66897 3.07714,1.6713 3.08326,1.66897 L 3.96454,1.4478 C 4.02696,1.43164 4.0649,1.36787 4.04899,1.30606 L 4.04165,1.27399 C 4.02574,1.21108 3.96209,1.17289 3.89844,1.18966 L 3.26318,1.34816 3.53614,0.89492 c 0.00367,-4.89e-4 0.00612,0 0.00856,-4.89e-4 L 4.05511,0.765911 C 4.11876,0.751223 4.15793,0.686718 4.14202,0.623804 l -0.0098,-0.0306 C 4.11754,0.530903 4.05511,0.492347 3.99146,0.507402 L 3.7283,0.573865 3.91802,0.244731 C 3.95107,0.187448 3.93271,0.116334 3.87641,0.0830417 L 3.84948,0.0656609 C 3.7944,0.0335921 3.72218,0.0518297 3.68914,0.106298 L 3.51533,0.409727 3.46025,0.189774 C 3.44434,0.126615 3.37946,0.0874481 3.31704,0.104217 L 3.28522,0.111561 C 3.22157,0.126615 3.18485,0.190998 3.20076,0.253911 L 3.32071,0.73323 3.05143,1.18403 2.9021,0.592959 C 2.88619,0.529434 2.82377,0.490633 2.76012,0.507402 L 2.7283,0.515358 C 2.66587,0.530903 2.6267,0.595652 2.64262,0.657342 L 2.85559,1.50753 2.56795,1.99125 2.29745,1.50753 C 2.2999,1.50483 2.30357,1.50226 2.30357,1.49847 L 2.55326,0.625273 C 2.5704,0.562971 2.5349,0.496875 2.47248,0.478638 L 2.4431,0.470682 C 2.37823,0.453301 2.31336,0.490021 2.295,0.552078 L 2.1163,1.18048 1.86048,0.718787 C 1.8617,0.716461 1.86293,0.712422 1.86538,0.709729 L 2.00981,0.20336 C 2.02694,0.141548 1.99022,0.0760649 1.9278,0.0589289 L 1.8972,0.0492593 C 1.836,0.0324905 1.77113,0.0674969 1.75277,0.13041 L 1.67933,0.390265 1.50797,0.0603977 C 1.47614,0.00397126 1.40393,-0.0165919 1.34762,0.0144977 L 1.31947,0.0291857 C 1.26439,0.0612545 1.24236,0.133347 1.27541,0.190386 L 1.42963,0.494672 1.21054,0.432738 C 1.14934,0.413521 1.08446,0.450363 1.06488,0.51291 L 1.05754,0.542408 C 1.0404,0.605934 1.0759,0.670561 1.1371,0.688554 L 1.61323,0.823806 1.86905,1.28256 1.2803,1.11695 C 1.22033,1.09786 1.15301,1.13409 1.1371,1.19676 L 1.1273,1.22699 C 1.11139,1.28868 1.14689,1.35428 1.20931,1.3735 L 2.05265,1.61279 2.32682,2.10447 1.77235,2.09566 C 1.77113,2.09333 1.77113,2.08954 1.76746,2.08709 L 1.13465,1.43458 C 1.08814,1.38745 1.01592,1.38745 0.969408,1.43164 L 0.944928,1.45343 C 0.900864,1.49847 0.898416,1.57338 0.943704,1.62014 L 1.39903,2.08954 0.870264,2.0806 C 0.867816,2.07828 0.866592,2.0751 0.865368,2.07277 L 0.498168,1.6937 C 0.45288,1.64743 0.37944,1.64694 0.331704,1.69125 L 0.309672,1.7134 C 0.261936,1.75747 0.261936,1.83311 0.307224,1.88011 L 0.49572,2.0751 0.119952,2.07277 C 0.05508,2.07069 0.001224,2.12357 0,2.18856 V 2.21977 C 0,2.28391 0.050184,2.33764 0.115056,2.34009 L 0.459,2.34181 0.294984,2.50117 C 0.248472,2.54523 0.248472,2.61941 0.29376,2.66617 l 0.023256,0.02264 c 0.045288,0.04712 0.118728,0.04786 0.164016,0.0033 L 0.837216,2.34805 1.36231,2.356 0.925344,2.78049 C 0.878832,2.82504 0.877608,2.90056 0.921672,2.94646 L 0.943704,2.96911 C 0.988992,3.01647 1.06366,3.01782 1.11139,2.97143 L 1.74053,2.36114 2.30357,2.37204 2.01838,2.8456 C 2.01593,2.84646 2.01226,2.84524 2.00736,2.84646 L 1.1273,3.06641 C 1.06366,3.08257 1.02694,3.14646 1.04162,3.21048 L 1.04774,3.24083 C 1.06488,3.30314 1.12975,3.34194 1.19218,3.32639 L 1.82743,3.16641 1.55693,3.61978 c -0.0049,0 -0.00735,-2.4e-4 -0.01224,0 L 1.03428,3.7483 C 0.971856,3.76385 0.933912,3.82799 0.947376,3.89066 L 0.955944,3.92187 C 0.971856,3.98478 1.03795,4.02297 1.10038,4.00657 L 1.36354,3.94096 1.13342,4.31098 C 1.09915,4.36642 1.11751,4.43937 1.17382,4.47267 l 0.0257,0.01444 C 1.25705,4.52089 1.32926,4.50351 1.36109,4.44672 L 1.57406,4.10449 1.62914,4.32591 c 0.01714,0.0623 0.08201,0.10086 0.14444,0.08531 L 1.80295,4.40327 C 1.86905,4.38821 1.90699,4.32358 1.88986,4.2603 L 1.77113,3.78098 2.03918,3.3308 2.18729,3.92187 C 2.2032,3.98625 2.26685,4.02419 2.32927,4.00742 L 2.3611,4.00008 C 2.42352,3.98478 2.46146,3.9204 2.44678,3.85687 L 2.23258,3.00791 2.52266,2.52467 2.79194,3.00791 C 2.79072,3.01084 2.78827,3.01317 2.78705,3.01647 L 2.53735,3.89004 C 2.52022,3.95234 2.55449,4.01746 2.61936,4.03509 L 2.64751,4.04414 C 2.71116,4.06153 2.77603,4.02603 2.79439,3.96336 L 2.9731,3.33435 3.23014,3.79653 C 3.22769,3.79898 3.22524,3.80155 3.22402,3.80571 L 3.08081,4.31098 c -0.01714,0.0623 0.01836,0.12729 0.08078,0.14614 l 0.0306,0.00784 C 3.25584,4.48405 3.31949,4.44672 3.33662,4.38442 L 3.41251,4.12383 3.60346,4.45847 C 3.63528,4.51587 3.7075,4.53668 3.76502,4.50559 L 3.79073,4.49005 C 3.84826,4.45786 3.86906,4.38674 3.83724,4.32848 L 3.66098,4.02126 3.8813,4.08295 C 3.94128,4.10057 4.00615,4.06532 4.02574,4.00302 L 4.03308,3.97217 C 4.05144,3.91012 4.01472,3.84414 3.95352,3.82627 L 3.47738,3.69041 3.22157,3.23165 3.80786,3.39922 C 3.87151,3.41684 3.93516,3.38196 3.95352,3.31868 L 3.96209,3.28906 C 3.97922,3.22602 3.94373,3.16164 3.8813,3.1423 L 3.03919,2.90191 2.76502,2.41035 3.31826,2.41916 c 0.00123,0.00318 0.00245,0.00673 0.00612,0.00967 l 0.63036,0.6519 c 0.04652,0.04652 0.11873,0.04774 0.16524,0.0027 L 4.14446,3.06078 C 4.19098,3.01647 4.19098,2.94144 4.14691,2.89407 L 3.69281,2.42528 4.21913,2.43361 c 0.00245,0.00281 0.00245,0.00734 0.00489,0.00967 l 0.3672,0.37784 C 4.63651,2.86764 4.70995,2.86825 4.75769,2.82345 L 4.78094,2.80117 C 4.82868,2.75588 4.82868,2.68171 4.78217,2.6341 L 4.5949,2.43911 4.97311,2.44768 C 5.03798,2.44854 5.09306,2.39738 5.09306,2.33116 V 2.30092 c 0,-0.06585 -0.04896,-0.11885 -0.11505,-0.1197"
         style="fill:#738a92;fill-rule:nonzero;stroke:none"
         transform="translate(30.7544,29.6656)"
         id="path2664" />
      <path
         d="M 4.97801,2.18122 4.63162,2.17375 4.79318,2.01439 C 4.8397,1.97008 4.84214,1.89505 4.79563,1.84853 L 4.77482,1.82589 C 4.72831,1.77974 4.65365,1.77852 4.60591,1.82295 L 4.25218,2.16702 3.7283,2.15943 4.1665,1.73446 C 4.21301,1.68917 4.21301,1.61487 4.16772,1.56799 L 4.14446,1.54633 C 4.1004,1.49835 4.02696,1.49835 3.97922,1.54302 L 3.35254,2.15343 2.78705,2.14437 3.07102,1.67093 C 3.07469,1.66922 3.07714,1.67118 3.08203,1.66922 L 3.96331,1.44804 C 4.02696,1.43188 4.0649,1.36799 4.04899,1.30606 L 4.04165,1.27423 C 4.02574,1.21132 3.96209,1.17313 3.89722,1.18953 L 3.26318,1.34841 3.53491,0.894914 c 0.0049,-6.12e-4 0.00735,0 0.00979,-6.12e-4 L 4.05511,0.766027 C 4.11876,0.751094 4.15793,0.686712 4.14202,0.623798 L 4.13222,0.593443 C 4.11754,0.531141 4.05511,0.492341 3.99146,0.507273 L 3.7283,0.573737 3.91802,0.244358 C 3.95107,0.18683 3.93271,0.115839 3.87641,0.0826681 L 3.84948,0.0652873 C 3.7944,0.0332185 3.72218,0.0515785 3.68914,0.105924 L 3.51533,0.409721 3.46025,0.190013 C 3.44434,0.126487 3.37824,0.0876865 3.31704,0.104455 L 3.28522,0.111799 C 3.22157,0.126487 3.18485,0.190869 3.20076,0.253783 L 3.32071,0.733713 3.05143,1.18402 2.9021,0.592831 C 2.88619,0.529673 2.82377,0.490749 2.76012,0.507273 L 2.7283,0.515597 C 2.66587,0.531141 2.6267,0.595524 2.64262,0.657581 L 2.85559,1.5074 2.56795,1.9915 2.29867,1.5074 C 2.2999,1.50508 2.30357,1.50251 2.30357,1.49835 L 2.55326,0.625512 C 2.5704,0.562843 2.5349,0.496992 2.47248,0.478754 L 2.44188,0.470553 C 2.37823,0.45354 2.31336,0.49026 2.29622,0.552317 L 2.1163,1.18047 1.86048,0.719025 C 1.8617,0.7167 1.86293,0.712538 1.86538,0.709845 L 2.00981,0.203477 C 2.02694,0.14142 1.99022,0.0761809 1.9278,0.0589225 L 1.8972,0.0493753 C 1.83478,0.0327289 1.77113,0.0676129 1.75277,0.130649 L 1.6781,0.390626 1.50797,0.0606361 C 1.47492,0.00384254 1.40393,-0.0167207 1.34762,0.0147361 L 1.31947,0.0290569 C 1.26439,0.0614929 1.24236,0.133586 1.27541,0.190257 L 1.42963,0.494666 1.21054,0.432977 C 1.14934,0.413882 1.08446,0.450602 1.06488,0.512904 L 1.05754,0.542892 C 1.0404,0.606173 1.0759,0.6708 1.1371,0.688793 L 1.61323,0.8238 1.86905,1.2828 1.2803,1.11695 C 1.2191,1.0981 1.15301,1.13433 1.1371,1.19663 L 1.1273,1.22699 C 1.11139,1.28892 1.14689,1.35428 1.20931,1.37338 L 2.05142,1.61304 2.3256,2.10447 1.77235,2.0959 C 1.77113,2.09358 1.7699,2.08942 1.76746,2.08734 L 1.13465,1.43445 C 1.08814,1.38782 1.01592,1.38782 0.969408,1.43188 L 0.944928,1.45367 C 0.900864,1.49835 0.898416,1.57338 0.94248,1.62038 L 1.39903,2.08942 0.86904,2.08085 C 0.867816,2.07852 0.866592,2.07534 0.865368,2.07302 L 0.498168,1.69394 C 0.45288,1.64743 0.37944,1.64719 0.331704,1.69162 L 0.309672,1.71389 C 0.261936,1.75747 0.261936,1.83299 0.306,1.88036 L 0.49572,2.07534 0.119952,2.0724 C 0.05508,2.07057 0.001224,2.1232 0,2.18819 V 2.21965 C 0,2.28354 0.050184,2.33728 0.113832,2.33997 L 0.459,2.34181 0.294984,2.50105 C 0.248472,2.5456 0.247248,2.61941 0.29376,2.66641 L 0.317016,2.6893 C 0.362304,2.73581 0.435744,2.73704 0.481032,2.69224 L 0.837216,2.34793 1.36231,2.35613 0.92412,2.78073 C 0.878832,2.82516 0.877608,2.90068 0.920448,2.94658 L 0.94248,2.96923 C 0.988992,3.0166 1.06366,3.01807 1.11139,2.97192 L 1.74053,2.36151 2.30357,2.37204 2.01838,2.84573 C 2.0147,2.84695 2.01226,2.84511 2.00736,2.84695 L 1.1273,3.06666 C 1.06366,3.08245 1.02694,3.14634 1.04162,3.21048 l 0.00612,0.03048 c 0.01714,0.0623 0.08201,0.10085 0.14444,0.08531 L 1.82743,3.16654 1.55693,3.62003 c -0.0049,0 -0.00735,-6.1e-4 -0.01224,0 L 1.03306,3.74855 C 0.970632,3.76446 0.933912,3.82835 0.947376,3.89066 L 0.95472,3.92211 c 0.017136,0.06255 0.08323,0.1011 0.14566,0.08434 L 1.36354,3.94121 1.13342,4.31085 C 1.09915,4.36691 1.11751,4.43937 1.17259,4.47254 L 1.19952,4.48723 C 1.25705,4.52114 1.32926,4.50376 1.36109,4.44696 L 1.57406,4.10437 1.62914,4.32615 C 1.64628,4.38846 1.71115,4.42677 1.77358,4.41147 L 1.80295,4.40376 C 1.86905,4.38846 1.90699,4.32346 1.88986,4.26055 L 1.7699,3.78086 2.03918,3.33104 2.18729,3.92211 C 2.2032,3.98649 2.26685,4.02407 2.32927,4.00767 L 2.3611,3.99996 C 2.42352,3.98466 2.46146,3.92052 2.44678,3.85675 L 2.23258,3.00803 2.52266,2.52467 2.79194,3.00803 C 2.7895,3.01109 2.78827,3.01341 2.78705,3.0166 L 2.53735,3.88992 C 2.52022,3.95259 2.55449,4.01795 2.61936,4.03533 L 2.64874,4.04439 C 2.71116,4.0614 2.77603,4.02652 2.79439,3.96324 L 2.9731,3.33447 3.23014,3.79653 C 3.22769,3.79886 3.22524,3.80179 3.22402,3.80559 L 3.08081,4.31085 C 3.06367,4.37352 3.09917,4.4384 3.16159,4.457 l 0.0306,0.0082 C 3.25584,4.4843 3.31949,4.44696 3.33662,4.38442 l 0.07589,-0.26035 0.19095,0.3344 c 0.0306,0.05765 0.10404,0.07821 0.16156,0.047 L 3.79073,4.48993 C 3.84826,4.45822 3.86906,4.38674 3.83724,4.32872 L 3.66098,4.0215 3.88008,4.08319 C 3.94128,4.10082 4.00615,4.06556 4.02574,4.0029 L 4.03308,3.9723 C 4.05144,3.91024 4.01472,3.84439 3.95352,3.82615 L 3.47738,3.69065 3.22157,3.23165 3.80664,3.39946 C 3.87151,3.41709 3.93516,3.38184 3.95352,3.31892 L 3.96209,3.28918 C 3.97922,3.22602 3.94373,3.16189 3.8813,3.14255 L 3.03919,2.90228 2.76502,2.41059 3.31826,2.41965 C 3.31949,2.42259 3.32071,2.42614 3.32438,2.42908 L 3.95474,3.0811 C 4.00003,3.12749 4.07347,3.12835 4.11998,3.08367 L 4.14446,3.06103 C 4.19098,3.0166 4.19098,2.94157 4.14691,2.89395 L 3.69281,2.42553 4.21913,2.43348 c 0.00245,0.00294 0.00245,0.00771 0.00489,0.00967 l 0.3672,0.37797 C 4.63529,2.86776 4.70995,2.86837 4.75769,2.82345 L 4.78094,2.8013 C 4.82868,2.75601 4.82868,2.68196 4.78217,2.63434 L 4.5949,2.43936 4.97311,2.44793 C 5.03798,2.44854 5.09306,2.39738 5.09306,2.33152 V 2.30117 C 5.09306,2.2352 5.0441,2.18232 4.97801,2.18122"
         style="fill:#738a92;fill-rule:nonzero;stroke:none"
         transform="translate(12.8766,36.8019)"
         id="path2666" />
      <path
         d="M 4.16405,1.82503 3.87518,1.81879 4.01105,1.68562 C 4.04899,1.64853 4.05022,1.58599 4.01227,1.54682 L 3.99514,1.52797 C 3.95597,1.48892 3.89354,1.48868 3.85438,1.52528 L 3.55694,1.81353 3.11875,1.80704 3.48595,1.45147 c 0.03917,-0.03758 0.03917,-0.09988 0,-0.13929 L 3.46759,1.29394 C 3.43087,1.25391 3.36967,1.25391 3.32806,1.291 L 2.80418,1.80214 2.33172,1.79443 2.56918,1.39798 c 0.00367,-7.4e-4 0.00489,3.7e-4 0.00979,-7.4e-4 L 3.31582,1.21156 C 3.36967,1.19834 3.4015,1.14461 3.38681,1.09308 L 3.38191,1.06627 C 3.36845,1.01339 3.31459,0.981937 3.26074,0.995156 l -0.53,0.133174 0.22767,-0.37932 c 0.00245,-6.12e-4 0.00489,0 0.00734,-6.12e-4 L 3.39293,0.641053 C 3.44678,0.62869 3.47861,0.57459 3.46514,0.522325 L 3.45658,0.496743 C 3.44556,0.444601 3.39293,0.412042 3.33907,0.42465 L 3.11875,0.480219 3.27787,0.204942 C 3.30602,0.156716 3.29011,0.0973521 3.24238,0.0694449 L 3.22034,0.0553689 C 3.17383,0.0283185 3.11386,0.0436185 3.0857,0.0891513 L 2.94127,0.342886 2.89476,0.159042 C 2.8813,0.106165 2.82622,0.0732393 2.77481,0.0873153 L 2.7491,0.0935577 C 2.69525,0.106165 2.66465,0.160021 2.67689,0.212653 L 2.77726,0.613758 2.55204,0.99075 2.42842,0.496376 C 2.41373,0.443254 2.36232,0.410818 2.30846,0.42465 L 2.28276,0.431382 C 2.23013,0.444601 2.19708,0.498457 2.21054,0.550477 L 2.38925,1.26126 2.14812,1.66652 1.9229,1.26126 C 1.92413,1.25954 1.92658,1.25722 1.92658,1.25391 L 2.13588,0.523182 C 2.15057,0.471162 2.11997,0.415837 2.06856,0.400782 L 2.04286,0.393805 C 1.99022,0.379606 1.93514,0.410206 1.92046,0.462349 L 1.77113,0.987812 1.5557,0.601762 C 1.55693,0.599559 1.55815,0.596132 1.5606,0.594296 L 1.68055,0.170547 C 1.69646,0.118772 1.66464,0.0638145 1.61201,0.0497385 L 1.58753,0.0414153 C 1.5349,0.0273393 1.48104,0.0564705 1.46513,0.10947 L 1.40393,0.32673 1.26072,0.0505953 C 1.23379,0.00347128 1.17382,-0.0141543 1.12608,0.0124065 L 1.10405,0.0244017 C 1.05754,0.0518193 1.03795,0.111795 1.0661,0.159654 L 1.19585,0.414001 1.01225,0.362348 C 0.96084,0.346436 0.906984,0.377036 0.891072,0.429301 L 0.883728,0.454393 C 0.86904,0.50727 0.89964,0.56137 0.949824,0.576426 L 1.34885,0.689646 1.56305,1.07337 1.071,0.934813 C 1.01959,0.918656 0.964512,0.949256 0.949824,1.00128 L 0.943704,1.02661 C 0.929016,1.07839 0.959616,1.13335 1.01102,1.1495 L 1.71605,1.34951 1.94616,1.76126 1.48349,1.75416 C 1.48104,1.75184 1.48104,1.74853 1.47859,1.74682 L 0.9486,1.20042 C 0.910656,1.16101 0.849456,1.16101 0.810288,1.19834 L 0.790704,1.21658 C 0.75276,1.25391 0.751536,1.31683 0.788256,1.356 L 1.17014,1.74853 0.727056,1.74156 C 0.725832,1.73923 0.724608,1.73678 0.724608,1.73446 L 0.41616,1.41781 C 0.378216,1.37888 0.317016,1.3784 0.276624,1.4156 L 0.258264,1.43384 C 0.219096,1.47068 0.219096,1.53421 0.255816,1.57362 L 0.413712,1.73678 0.099144,1.73446 C 0.045288,1.73262 0,1.77681 0,1.83115 v 0.0262 C 0,1.9112 0.041616,1.95612 0.094248,1.9582 L 0.383112,1.95967 0.246024,2.09297 C 0.20808,2.12993 0.206856,2.19199 0.2448,2.23152 L 0.264384,2.25025 C 0.302328,2.28966 0.364752,2.29028 0.402696,2.25258 L 0.700128,1.96469 1.13954,1.97142 0.773568,2.327 C 0.7344,2.36408 0.733176,2.42736 0.769896,2.46555 l 0.01836,0.01934 C 0.8262,2.5243 0.889848,2.52553 0.929016,2.4866 L 1.45534,1.97656 1.92658,1.98501 1.68912,2.38146 C 1.68545,2.38195 1.683,2.3811 1.67933,2.38195 L 0.94248,2.5658 C 0.889848,2.57963 0.858024,2.63287 0.871488,2.68661 l 0.004896,0.02533 c 0.014688,0.05202 0.068544,0.0847 0.119952,0.07173 L 1.52878,2.64989 1.30234,3.02933 c -0.0049,0 -0.00612,-3.7e-4 -0.0098,0 L 0.864144,3.13679 C 0.811512,3.14952 0.779688,3.20362 0.791928,3.25564 l 0.00612,0.0262 c 0.014688,0.053 0.069768,0.08445 0.1224,0.07123 L 1.14077,3.29799 0.947376,3.60705 C 0.919224,3.65418 0.933912,3.71477 0.980424,3.74292 L 1.00368,3.75504 C 1.05142,3.78331 1.11139,3.76862 1.13832,3.72113 L 1.31702,3.43447 1.36231,3.61978 C 1.377,3.67229 1.43086,3.70448 1.48349,3.69151 L 1.50797,3.68502 C 1.56305,3.67229 1.59487,3.61795 1.58141,3.56507 L 1.48104,3.16397 1.70503,2.78722 1.82988,3.28184 c 0.01224,0.0541 0.0661,0.08556 0.11873,0.07172 L 1.97554,3.34744 C 2.02694,3.33484 2.05877,3.28098 2.04653,3.22749 L 1.86782,2.51696 2.11018,2.11292 2.33539,2.51696 C 2.33417,2.51929 2.33172,2.52198 2.33172,2.5243 L 2.12242,3.2554 C 2.10773,3.30742 2.1371,3.36189 2.19096,3.37682 L 2.21544,3.38453 C 2.26807,3.39861 2.32193,3.36923 2.33784,3.3166 L 2.48717,2.7904 2.70137,3.17719 C 2.70014,3.1789 2.69892,3.18098 2.6977,3.18453 L 2.57652,3.60705 C 2.56306,3.65969 2.59243,3.71415 2.64506,3.7297 L 2.66954,3.73619 C 2.7234,3.75234 2.77726,3.72113 2.79072,3.6685 L 2.85437,3.45124 3.01471,3.73092 C 3.04042,3.77915 3.10162,3.79616 3.14935,3.76997 L 3.17138,3.75712 C 3.21912,3.73068 3.23748,3.67095 3.21055,3.62235 L 3.06245,3.36507 3.24605,3.41684 C 3.29746,3.43153 3.35254,3.40216 3.36845,3.34977 L 3.37334,3.32394 C 3.38926,3.27217 3.35866,3.21684 3.30725,3.20191 L 2.90945,3.08832 2.69525,2.7046 3.18485,2.84487 C 3.2387,2.85956 3.29256,2.82994 3.30725,2.77718 L 3.31459,2.75221 C 3.32806,2.69958 3.2999,2.64572 3.24727,2.62994 L 2.54225,2.42846 2.31336,2.01708 2.77603,2.02467 c 0.00123,0.00269 0.00123,0.00563 0.0049,0.00795 l 0.52754,0.54554 c 0.03795,0.0388 0.10037,0.03966 0.13831,0.00233 L 3.46759,2.56139 C 3.50676,2.5243 3.50676,2.46139 3.47004,2.42173 L 3.08938,2.02969 3.53002,2.03642 C 3.53246,2.03887 3.53246,2.0429 3.53369,2.04437 L 3.84091,2.36078 C 3.87886,2.39995 3.94006,2.40019 3.98045,2.36286 L 4.00003,2.34401 C 4.0392,2.30643 4.0392,2.24438 4.00126,2.20411 L 3.84458,2.04082 4.16038,2.04854 C 4.21546,2.04915 4.26074,2.00618 4.26074,1.95086 V 1.9254 c 0,-0.05483 -0.04161,-0.09927 -0.09669,-0.10037"
         style="fill:#738a92;fill-rule:nonzero;stroke:none"
         transform="translate(8.06142,41.6935)"
         id="path2668" />
      <path
         d="M 4.97801,2.18091 4.63162,2.17332 4.79318,2.0142 C 4.8397,1.96989 4.84214,1.89486 4.79563,1.84835 L 4.77482,1.82571 C 4.72954,1.77956 4.65365,1.77834 4.60591,1.82277 L 4.25218,2.16683 3.7283,2.15949 4.1665,1.73391 C 4.21301,1.68923 4.21301,1.61493 4.16772,1.56781 L 4.14446,1.54602 C 4.1004,1.49841 4.02696,1.49841 3.97922,1.54247 L 3.35131,2.15337 2.78705,2.14419 3.07102,1.67038 c 0.00367,-0.0011 0.00612,6.1e-4 0.01224,-0.0011 L 3.96331,1.44786 C 4.02696,1.43195 4.0649,1.36793 4.04899,1.30575 L 4.04165,1.27405 C 4.02574,1.21113 3.96209,1.17282 3.89722,1.18935 L 3.26441,1.34822 3.53491,0.894731 c 0.0049,-6.12e-4 0.00735,0 0.00979,-6.12e-4 L 4.05511,0.765599 C 4.11876,0.751155 4.15793,0.686528 4.14202,0.623615 L 4.13222,0.593504 C 4.11754,0.530958 4.05511,0.492035 3.99146,0.50709 L 3.7283,0.573553 3.91802,0.244542 C 3.95107,0.187136 3.93271,0.116021 3.87641,0.0827287 L 3.84948,0.0657151 C 3.79318,0.0334015 3.72218,0.0516391 3.68914,0.105985 L 3.51533,0.409537 3.46025,0.189829 C 3.44434,0.126303 3.37824,0.0875023 3.31704,0.103904 L 3.28522,0.11186 C 3.22279,0.126303 3.18485,0.190931 3.20076,0.253967 L 3.32071,0.73353 3.05143,1.18372 2.90333,0.593015 C 2.88619,0.529489 2.82377,0.490321 2.76012,0.50709 L 2.72952,0.515046 C 2.66587,0.530958 2.6267,0.59534 2.64262,0.657397 L 2.85559,1.50722 2.56795,1.99095 2.29867,1.50722 C 2.2999,1.5049 2.30357,1.5022 2.30357,1.49841 L 2.55326,0.625083 C 2.5704,0.562659 2.5349,0.496563 2.47248,0.478326 L 2.4431,0.47037 C 2.37946,0.453234 2.31336,0.490321 2.29622,0.552133 L 2.1163,1.18017 1.86048,0.718842 C 1.8617,0.716149 1.86293,0.712355 1.86538,0.709662 L 2.00981,0.203538 C 2.02694,0.141603 1.99022,0.0757519 1.9278,0.0586159 L 1.8972,0.0491911 C 1.836,0.0327895 1.77113,0.0671839 1.75277,0.130343 L 1.67933,0.39032 1.50797,0.0604519 C 1.47492,0.00402555 1.40393,-0.0166601 1.34762,0.0145519 L 1.31947,0.0292399 C 1.26439,0.0613087 1.24236,0.13328 1.27541,0.190441 L 1.42963,0.494483 1.21054,0.432426 C 1.14934,0.413576 1.08446,0.450419 1.06488,0.51272 L 1.05631,0.542463 C 1.0404,0.606234 1.0759,0.670249 1.1371,0.688854 L 1.61323,0.823494 1.86905,1.28286 1.28153,1.11701 C 1.22033,1.09767 1.15301,1.13378 1.1371,1.19645 L 1.1273,1.22668 C 1.11139,1.28874 1.14689,1.35398 1.20931,1.37344 L 2.05265,1.61249 2.32682,2.10453 1.77358,2.09597 C 1.77113,2.09327 1.7699,2.08923 1.76746,2.08752 L 1.13465,1.43439 C 1.08814,1.38727 1.01592,1.38727 0.969408,1.43195 L 0.944928,1.45373 C 0.900864,1.49841 0.898416,1.57344 0.943704,1.6202 L 1.39903,2.08923 0.870264,2.08067 C 0.867816,2.07834 0.866592,2.0754 0.865368,2.07246 L 0.498168,1.694 C 0.45288,1.64749 0.37944,1.64688 0.331704,1.69107 L 0.309672,1.71334 C 0.261936,1.75716 0.261936,1.83281 0.306,1.88017 L 0.49572,2.0754 0.119952,2.07222 C 0.05508,2.07038 0.001224,2.12338 0,2.18825 V 2.21947 C 0,2.2836 0.051408,2.33771 0.113832,2.34003 L 0.459,2.34187 0.294984,2.50086 C 0.248472,2.5453 0.248472,2.61947 0.29376,2.66623 l 0.023256,0.02264 c 0.045288,0.047 0.118728,0.04786 0.16524,0.00294 L 0.837216,2.34774 1.36231,2.35558 0.92412,2.78055 C 0.878832,2.82498 0.877608,2.90062 0.921672,2.9464 L 0.943704,2.9688 C 0.988992,3.01641 1.06366,3.01788 1.11139,2.97137 L 1.74053,2.36157 2.30357,2.37173 2.0196,2.84554 C 2.01593,2.84677 2.01103,2.84493 2.00736,2.84677 L 1.1273,3.06611 C 1.06366,3.08226 1.02694,3.1464 1.04162,3.21017 L 1.04774,3.24041 C 1.06488,3.30307 1.12975,3.342 1.19218,3.32609 L 1.82743,3.16648 1.55693,3.62021 c -0.0049,0 -0.00735,-6.1e-4 -0.01224,0 L 1.03428,3.74861 C 0.970632,3.76391 0.933912,3.82805 0.947376,3.89047 L 0.95472,3.92181 c 0.017136,0.06303 0.08323,0.10147 0.14566,0.0847 L 1.36354,3.94066 1.13342,4.31067 c -0.03427,0.05606 -0.01591,0.1284 0.0404,0.16169 l 0.0257,0.01469 C 1.25705,4.52083 1.32926,4.50382 1.36109,4.44678 L 1.57406,4.10418 1.62914,4.32597 C 1.64628,4.38852 1.71115,4.42646 1.77358,4.41092 L 1.80295,4.40357 C 1.86905,4.38852 1.90699,4.32328 1.88986,4.26036 L 1.7699,3.78068 2.03918,3.33074 2.18729,3.92181 C 2.20198,3.98631 2.26685,4.02389 2.3305,4.00749 L 2.3611,3.99977 C 2.42352,3.98484 2.46146,3.92009 2.44678,3.85693 L 2.23258,3.00785 2.52266,2.52473 2.79194,3.00785 C 2.79072,3.01091 2.78827,3.01348 2.78705,3.01641 L 2.53735,3.8901 C 2.51899,3.95277 2.55449,4.0174 2.61936,4.03539 L 2.64874,4.04445 C 2.71116,4.06122 2.77603,4.02597 2.79439,3.96305 L 2.9731,3.33404 3.23014,3.79635 C 3.22769,3.79892 3.22524,3.80136 3.22402,3.8054 L 3.08081,4.31067 C 3.06367,4.37322 3.09917,4.43821 3.16159,4.45682 l 0.0306,0.00783 C 3.25584,4.48411 3.31949,4.44678 3.33662,4.38448 L 3.41251,4.12352 3.60346,4.4589 C 3.63406,4.51618 3.7075,4.53674 3.76502,4.50529 L 3.79073,4.48974 C 3.84826,4.45829 3.86906,4.38644 3.83724,4.32854 L 3.66221,4.02095 3.8813,4.08301 C 3.94128,4.10063 4.00615,4.06538 4.02574,4.00271 L 4.03308,3.97223 C 4.05022,3.91006 4.01594,3.8442 3.95352,3.82597 L 3.47738,3.69071 3.22279,3.23135 3.80786,3.39928 C 3.87151,3.41691 3.93516,3.38165 3.95352,3.31874 L 3.96209,3.28875 C 3.97922,3.22608 3.94373,3.16133 3.8813,3.14224 L 3.03919,2.90197 2.76502,2.41029 3.31826,2.41947 c 0.00123,0.00294 0.00245,0.00649 0.00612,0.00942 l 0.63036,0.65227 c 0.04529,0.04578 0.11873,0.047 0.16524,0.00233 L 4.14446,3.06048 C 4.19098,3.01641 4.19098,2.94114 4.14691,2.89401 L 3.69281,2.42534 4.21913,2.43354 C 4.22158,2.43648 4.2228,2.44126 4.22402,2.44297 l 0.3672,0.37785 C 4.63651,2.86794 4.70995,2.86819 4.75769,2.82351 L 4.78094,2.80111 C 4.82868,2.75595 4.82868,2.68202 4.78217,2.63379 L 4.5949,2.43893 4.97311,2.44738 C 5.03798,2.4486 5.09306,2.39707 5.09306,2.33122 v -0.0306 c 0,-0.06585 -0.04896,-0.11849 -0.11505,-0.11971"
         style="fill:#738a92;fill-rule:nonzero;stroke:none"
         transform="translate(16.3381,45.7642)"
         id="path2670" />
      <path
         d="M 4.14446,1.81535 3.8556,1.80923 3.99146,1.67679 C 4.02941,1.63983 4.03063,1.57716 3.99269,1.53897 L 3.97555,1.51976 C 3.93761,1.48157 3.87518,1.48046 3.83479,1.51718 L 3.53981,1.80385 3.10406,1.79736 3.46882,1.44362 C 3.50798,1.40629 3.50798,1.34423 3.47004,1.30507 L 3.45046,1.28683 C 3.41374,1.24717 3.35254,1.24717 3.31337,1.28401 L 2.79072,1.79234 2.3207,1.78475 2.55816,1.39075 c 0.00245,-0.0016 0.00367,2.4e-4 0.00857,-0.0016 L 3.2999,1.20506 C 3.35254,1.1916 3.38436,1.13835 3.3709,1.08695 L 3.36478,1.06075 C 3.35131,1.00849 3.29868,0.976297 3.24482,0.990128 L 2.7185,1.1222 2.94372,0.744593 c 0.00367,-2.44e-4 0.00612,0 0.00857,-2.44e-4 L 3.37579,0.637616 C 3.42965,0.625498 3.4627,0.571397 3.44923,0.51901 L 3.44066,0.494041 C 3.42842,0.442021 3.37579,0.409707 3.32316,0.422314 L 3.10406,0.477639 3.26196,0.203463 C 3.29011,0.155849 3.2742,0.096486 3.22769,0.0688236 L 3.20566,0.0545028 C 3.15914,0.027942 3.09917,0.0429972 3.07102,0.0882852 L 2.92658,0.340551 2.8813,0.157685 C 2.86783,0.105054 2.81398,0.0727404 2.76134,0.0868164 L 2.73564,0.0926916 C 2.68301,0.105054 2.65241,0.158909 2.66465,0.211419 L 2.76502,0.610565 2.5398,0.985477 2.4174,0.493551 C 2.40271,0.440552 2.3513,0.408238 2.29867,0.422314 L 2.27297,0.428801 C 2.22034,0.442021 2.18729,0.495632 2.20075,0.547285 L 2.37823,1.25451 2.13833,1.65709 1.91311,1.25451 C 1.91556,1.2528 1.91801,1.25048 1.91801,1.24717 L 2.12609,0.520234 C 2.14078,0.468214 2.11018,0.413257 2.05877,0.398201 L 2.03306,0.391469 C 1.98043,0.377638 1.92658,0.407871 1.91189,0.459646 L 1.76256,0.982539 1.54958,0.598203 C 1.55081,0.596122 1.55203,0.59294 1.55326,0.590859 L 1.67321,0.169436 C 1.68912,0.117661 1.6573,0.0629484 1.60589,0.0491172 L 1.58018,0.0409164 C 1.52878,0.0270852 1.47492,0.0558492 1.45901,0.108236 L 1.39781,0.325006 1.25582,0.049974 C 1.2289,0.00333954 1.17014,-0.0140412 1.12241,0.0123972 L 1.09915,0.0243924 C 1.05386,0.0509532 1.03428,0.110929 1.06243,0.158175 L 1.19095,0.411788 1.00735,0.360257 C 0.957168,0.344345 0.903312,0.374945 0.8874,0.427088 L 0.880056,0.45169 C 0.866592,0.504322 0.895968,0.558178 0.947376,0.573233 L 1.34395,0.685474 1.5557,1.06748 1.06733,0.929907 C 1.01592,0.91375 0.96084,0.943738 0.947376,0.996003 L 0.938808,1.02134 C 0.925344,1.07275 0.955944,1.12722 1.00735,1.14337 L 1.7087,1.34215 1.93759,1.75183 1.47737,1.74448 C 1.47492,1.7424 1.4737,1.73922 1.47247,1.73738 L 0.944928,1.19392 C 0.906984,1.15488 0.845784,1.15488 0.80784,1.1916 L 0.787032,1.20984 C 0.750312,1.24717 0.749088,1.30959 0.785808,1.34864 L 1.16525,1.73922 0.724608,1.73212 C 0.723384,1.72979 0.72216,1.72747 0.720936,1.72526 l -0.306,-0.31542 C 0.378216,1.37128 0.317016,1.37092 0.277848,1.40776 L 0.258264,1.42636 C 0.219096,1.46272 0.219096,1.52575 0.255816,1.56504 L 0.413712,1.72747 0.100368,1.72526 C 0.046512,1.72331 0.001224,1.76774 0.001224,1.82159 L 0,1.84766 C 0,1.90091 0.04284,1.94558 0.095472,1.94791 L 0.383112,1.9495 0.246024,2.08206 C 0.20808,2.11878 0.206856,2.18023 0.2448,2.21964 L 0.264384,2.23788 C 0.302328,2.27729 0.363528,2.2779 0.401472,2.24081 L 0.69768,1.95452 1.13465,1.96088 0.769896,2.31462 c -0.037944,0.03684 -0.039168,0.1 -0.002448,0.13795 l 0.01836,0.01885 C 0.823752,2.51083 0.886176,2.5123 0.925344,2.4735 L 1.44922,1.96554 1.91801,1.97447 1.68178,2.36884 C 1.6781,2.3697 1.67566,2.36811 1.67198,2.3697 L 0.938808,2.55257 C 0.886176,2.56579 0.855576,2.6194 0.867816,2.67252 L 0.872712,2.69786 C 0.8874,2.74963 0.941256,2.78194 0.992664,2.76872 L 1.52266,2.6358 1.29622,3.0134 c -0.00368,0 -0.00612,-3.6e-4 -0.0098,0 L 0.861696,3.12038 C 0.809064,3.13335 0.77724,3.18635 0.78948,3.23837 L 0.7956,3.26457 C 0.810288,3.3172 0.864144,3.3489 0.916776,3.33507 L 1.13587,3.28048 0.943704,3.58856 C 0.914328,3.63483 0.93024,3.69529 0.976752,3.72296 L 1.00001,3.73507 C 1.04652,3.76322 1.1065,3.74915 1.13342,3.70141 L 1.3109,3.41647 1.35619,3.60092 C 1.3721,3.65306 1.42474,3.68477 1.47737,3.67179 L 1.50185,3.66567 C 1.5557,3.65306 1.58753,3.59884 1.57406,3.54621 L 1.4737,3.14719 1.69769,2.77289 1.82131,3.26457 C 1.83478,3.3183 1.88741,3.34976 1.94004,3.33605 L 1.96574,3.32944 C 2.01838,3.3172 2.0502,3.26359 2.03796,3.21047 L 1.85926,2.50373 2.10038,2.10152 2.32438,2.50373 C 2.32315,2.50642 2.3207,2.50814 2.3207,2.51083 L 2.11262,3.23837 C 2.09794,3.29015 2.12731,3.34425 2.18117,3.35894 L 2.20565,3.36653 C 2.25706,3.38097 2.31214,3.35135 2.32682,3.29884 L 2.47615,2.77546 2.68913,3.16016 C 2.6879,3.16212 2.68546,3.1642 2.68423,3.16775 L 2.5655,3.58856 C 2.55082,3.64034 2.58019,3.6948 2.63282,3.70998 L 2.6573,3.71647 C 2.71116,3.73238 2.76379,3.70141 2.77848,3.64952 L 2.8409,3.43299 3.00002,3.71157 C 3.02573,3.75919 3.08693,3.77644 3.13466,3.75001 L 3.15547,3.7374 C 3.20443,3.71096 3.22157,3.65147 3.19464,3.60325 L 3.04898,3.34719 3.23136,3.39896 C 3.28154,3.41365 3.3354,3.38415 3.35131,3.33213 L 3.35743,3.30655 C 3.37334,3.25478 3.34274,3.20006 3.29134,3.18476 L 2.89476,3.07215 2.68301,2.69014 3.17016,2.82956 C 3.22279,2.84437 3.27665,2.81487 3.29134,2.7626 L 3.29868,2.73776 C 3.31337,2.68549 3.28399,2.63164 3.23136,2.61585 L 2.53123,2.41548 2.30234,2.00617 2.76379,2.01376 c 0,0.00269 0.00123,0.00563 0.00367,0.00832 l 0.5251,0.54248 C 3.3305,2.60312 3.3917,2.60373 3.43087,2.56676 L 3.45046,2.54792 C 3.48962,2.51083 3.48962,2.44853 3.4529,2.40875 L 3.07469,2.01878 3.51288,2.02563 c 0.00245,0.00233 0.00245,0.00612 0.0049,0.00821 L 3.82255,2.34791 C 3.85927,2.38733 3.9217,2.38733 3.96086,2.35024 L 3.98045,2.332 C 4.02084,2.29406 4.02084,2.23237 3.98167,2.19234 L 3.825,2.03029 4.13957,2.03738 C 4.19465,2.03824 4.23994,1.99528 4.23994,1.94032 V 1.91498 c 0,-0.05459 -0.0404,-0.0984 -0.09548,-0.09963"
         style="fill:#738a92;fill-rule:nonzero;stroke:none"
         transform="translate(25.922,43.3855)"
         id="path2672" />
      <path
         d="M 4.97801,2.18102 4.63284,2.17368 4.79441,2.01443 C 4.8397,1.97025 4.84337,1.89497 4.79686,1.84871 L 4.77605,1.82618 C 4.72954,1.77967 4.65487,1.77881 4.60714,1.823 L 4.25218,2.16695 3.72953,2.1596 4.1665,1.73438 C 4.21423,1.68946 4.21423,1.61468 4.16772,1.56829 L 4.14569,1.5465 C 4.10162,1.49852 4.02818,1.49852 3.97922,1.54295 L 3.35254,2.15373 2.78705,2.14455 3.07224,1.67086 C 3.07591,1.66914 3.07836,1.67147 3.08326,1.66914 L 3.96454,1.44833 C 4.02818,1.43206 4.06613,1.36792 4.05022,1.30623 L 4.04287,1.27453 C 4.02696,1.21149 3.96209,1.17305 3.89844,1.18982 L 3.26441,1.34858 3.53614,0.895084 c 0.00489,-4.89e-4 0.00734,0 0.00979,-4.89e-4 L 4.05511,0.766075 C 4.11998,0.751387 4.15915,0.686882 4.14324,0.623723 L 4.13345,0.593368 C 4.11876,0.531067 4.05511,0.492511 3.99269,0.507443 L 3.72953,0.573907 3.91802,0.244895 C 3.9523,0.187612 3.93271,0.116375 3.87641,0.0832046 L 3.8507,0.0658238 C 3.7944,0.033755 3.72218,0.0519926 3.68914,0.106461 L 3.51533,0.409891 3.46025,0.190183 C 3.44434,0.126779 3.37946,0.087611 3.31704,0.10438 L 3.28644,0.111724 C 3.22279,0.126779 3.18607,0.190795 3.20076,0.254075 L 3.32071,0.733639 3.05143,1.18419 2.90333,0.593123 C 2.88742,0.529598 2.82377,0.490797 2.76134,0.507443 L 2.72952,0.515399 C 2.6671,0.531067 2.62793,0.595816 2.64384,0.657506 L 2.85682,1.50733 2.56795,1.99142 2.29867,1.50733 C 2.30112,1.50501 2.30479,1.50268 2.30479,1.49852 L 2.55449,0.625437 C 2.5704,0.562891 2.5349,0.496917 2.4737,0.478679 L 2.4431,0.470723 C 2.37946,0.453465 2.31458,0.490185 2.29622,0.552242 L 2.11752,1.18064 1.8617,0.719073 C 1.86293,0.716625 1.86415,0.712463 1.86538,0.709893 L 2.00981,0.203524 C 2.02817,0.141712 1.99145,0.0761054 1.92902,0.0590918 L 1.8972,0.0492998 C 1.836,0.0328982 1.77113,0.0676598 1.75277,0.130574 L 1.67933,0.390429 1.50797,0.0605606 C 1.47614,0.00413413 1.40393,-0.0167962 1.34762,0.0146606 L 1.3207,0.0291038 C 1.26562,0.0616622 1.24236,0.133511 1.27541,0.19055 L 1.42963,0.494836 1.21054,0.432902 C 1.14934,0.413685 1.08446,0.450527 1.0661,0.513074 L 1.05754,0.542817 C 1.0404,0.606098 1.07712,0.670725 1.1371,0.688718 L 1.61323,0.82397 1.86905,1.28273 1.28153,1.11712 C 1.22033,1.09802 1.15423,1.13425 1.1371,1.19656 L 1.12853,1.22716 C 1.11139,1.28885 1.14811,1.35445 1.21054,1.37355 L 2.05265,1.61296 2.32682,2.10464 1.77358,2.09608 C 1.77113,2.09351 1.77113,2.08959 1.76746,2.08763 L 1.13587,1.43438 C 1.08936,1.38762 1.01592,1.38762 0.970632,1.43206 L 0.944928,1.45348 C 0.900864,1.49852 0.89964,1.57355 0.943704,1.62031 L 1.40026,2.08959 0.870264,2.08078 C 0.86904,2.07845 0.867816,2.07551 0.866592,2.07294 L 0.498168,1.69387 C 0.454104,1.6476 0.380664,1.64736 0.332928,1.69142 L 0.310896,1.71382 C 0.26316,1.75727 0.26316,1.83316 0.306,1.88028 L 0.496944,2.07551 0.119952,2.07294 C 0.05508,2.07111 0.001224,2.12374 0.001224,2.18873 L 0,2.22019 C 0,2.28408 0.051408,2.33782 0.115056,2.34051 L 0.460224,2.34198 0.296208,2.5011 C 0.249696,2.54541 0.248472,2.61958 0.294984,2.66634 L 0.31824,2.68923 C 0.363528,2.73574 0.436968,2.73684 0.482256,2.69216 L 0.83844,2.3481 1.36354,2.35605 0.925344,2.78103 C 0.878832,2.82509 0.877608,2.90073 0.921672,2.94651 L 0.943704,2.96915 C 0.988992,3.01652 1.06488,3.01799 1.11139,2.97185 L 1.74175,2.36156 2.30479,2.37221 2.0196,2.84578 C 2.01593,2.84688 2.01226,2.84541 2.00858,2.84688 L 1.12853,3.06659 C 1.06488,3.08274 1.02694,3.14651 1.04285,3.21065 L 1.04897,3.24101 C 1.0661,3.30331 1.12975,3.34211 1.1934,3.32644 L 1.82866,3.16683 1.55693,3.61996 c -0.0049,0 -0.00735,0 -0.01102,0 L 1.03428,3.74872 C 0.971856,3.76439 0.933912,3.82816 0.9486,3.89083 L 0.955944,3.92192 C 0.97308,3.9852 1.03795,4.02314 1.10038,4.00662 L 1.36476,3.94113 1.13342,4.31103 C 1.09915,4.36696 1.11874,4.43955 1.17382,4.47272 l 0.02692,0.01481 c 0.05631,0.03353 0.12852,0.0164 0.16035,-0.04064 l 0.2142,-0.3426 0.05508,0.22179 C 1.6475,4.38838 1.71238,4.42682 1.7748,4.41139 L 1.80418,4.40368 C 1.86905,4.38838 1.90699,4.32376 1.89108,4.26047 L 1.77113,3.78116 2.03918,3.33085 2.18851,3.92192 C 2.2032,3.98642 2.26807,4.02437 2.3305,4.0076 L 2.36232,4.00025 C 2.42352,3.9852 2.46146,3.92057 2.448,3.85704 L 2.2338,3.00808 2.52266,2.52484 2.79194,3.00808 C 2.79072,3.01102 2.78827,3.01359 2.78705,3.01652 L 2.53858,3.89021 C 2.52022,3.95252 2.55449,4.01788 2.61936,4.03514 L 2.64874,4.04432 C 2.71116,4.0617 2.77726,4.02645 2.79562,3.96341 L 2.97432,3.3344 3.23014,3.7967 C 3.22891,3.79915 3.22646,3.80172 3.22402,3.80551 L 3.08081,4.31103 C 3.06367,4.37333 3.10039,4.43832 3.16282,4.45717 L 3.19219,4.46513 C 3.25706,4.48422 3.32071,4.44689 3.33662,4.38459 L 3.41251,4.124 3.60346,4.45864 C 3.63528,4.51629 3.70872,4.53722 3.76502,4.50576 L 3.79073,4.49022 C 3.84948,4.4584 3.87029,4.38691 3.83846,4.32902 L 3.66221,4.02131 3.8813,4.08312 C 3.94128,4.10111 4.00738,4.06549 4.02696,4.00319 L 4.03308,3.97259 C 4.05144,3.91053 4.01594,3.84431 3.95352,3.82644 L 3.47861,3.69058 3.22279,3.23183 3.80786,3.39976 C 3.87151,3.41702 3.93516,3.38201 3.95352,3.31885 L 3.96209,3.28923 C 3.97922,3.22619 3.94495,3.16181 3.8813,3.14235 L 3.04042,2.9022 2.76502,2.4104 3.31949,2.41958 C 3.32071,2.42252 3.32071,2.42607 3.32438,2.429 L 3.95597,3.08091 C 4.00126,3.12742 4.0747,3.12864 4.12121,3.0836 L 4.14569,3.06095 C 4.1922,3.01652 4.1922,2.94161 4.14814,2.89425 L 3.69403,2.42545 4.22035,2.43365 C 4.2228,2.43671 4.2228,2.441 4.22525,2.44332 L 4.59122,2.8213 c 0.04529,0.04675 0.11996,0.047 0.16769,0.00232 L 4.78217,2.80159 C 4.82868,2.7563 4.82868,2.68188 4.78339,2.63427 L 4.5949,2.43929 4.97311,2.44785 c 0.0661,0.0011 0.11995,-0.0503 0.11995,-0.11652 V 2.3011 c 0,-0.06586 -0.04896,-0.11885 -0.11505,-0.12008"
         style="fill:#738a92;fill-rule:nonzero;stroke:none"
         transform="translate(23.6968,36.5938)"
         id="path2674" />
      <path
         d="M 4.97678,2.18109 4.63039,2.17375 4.79318,2.01439 C 4.83847,1.96995 4.84092,1.89492 4.79563,1.84853 L 4.77482,1.82589 C 4.72831,1.77974 4.65365,1.77852 4.60591,1.82295 L 4.25218,2.16702 3.7283,2.15943 4.16527,1.73446 C 4.21301,1.68917 4.21301,1.61475 4.1665,1.56799 L 4.14446,1.54621 C 4.1004,1.49835 4.02696,1.49835 3.978,1.54302 L 3.35131,2.15343 2.78705,2.14437 3.07102,1.67093 C 3.07469,1.6691 3.07714,1.67118 3.08203,1.6691 L 3.96331,1.44804 C 4.02696,1.43188 4.0649,1.36799 4.04899,1.30593 L 4.04165,1.27423 C 4.02574,1.2112 3.96086,1.17301 3.89722,1.18953 L 3.26318,1.34828 3.53491,0.894792 c 0.00367,-4.9e-4 0.00735,0 0.00979,-4.9e-4 L 4.05511,0.765782 C 4.11876,0.751094 4.15793,0.686589 4.14202,0.623798 L 4.131,0.593443 C 4.11754,0.531019 4.05511,0.492218 3.99146,0.507273 L 3.7283,0.573737 3.9168,0.244603 C 3.95107,0.18732 3.93271,0.116451 3.87518,0.0829129 L 3.84948,0.0658993 C 3.79318,0.0338305 3.72096,0.0520681 3.68791,0.106536 L 3.51533,0.409598 3.45902,0.190013 C 3.44311,0.126487 3.37824,0.0876865 3.31704,0.104333 L 3.28522,0.111799 C 3.22157,0.126487 3.18485,0.190869 3.19954,0.253783 L 3.31949,0.733713 3.05021,1.1839 2.9021,0.592831 C 2.88619,0.529673 2.82377,0.490749 2.76012,0.507273 L 2.7283,0.515474 C 2.66587,0.531019 2.6267,0.595524 2.64262,0.657581 L 2.85559,1.5074 2.56673,1.99125 2.29745,1.5074 C 2.2999,1.50508 2.30357,1.50239 2.30357,1.49835 L 2.55326,0.625512 C 2.5704,0.562843 2.53368,0.496992 2.47248,0.478754 L 2.44188,0.470553 C 2.37823,0.45354 2.31336,0.49026 2.295,0.552317 L 2.1163,1.18035 1.86048,0.719025 C 1.8617,0.716577 1.86293,0.712538 1.86538,0.709845 L 2.00858,0.203477 C 2.02694,0.14142 1.989,0.0761809 1.9278,0.0588001 L 1.8972,0.0493753 C 1.83478,0.0327289 1.7699,0.0676129 1.75154,0.130526 L 1.6781,0.390504 1.50797,0.0606361 C 1.47492,0.00384254 1.40393,-0.0167207 1.3464,0.0147361 L 1.31947,0.0290569 C 1.26439,0.0614929 1.24114,0.133464 1.27418,0.190257 L 1.42963,0.494544 1.20931,0.432854 C 1.14811,0.41376 1.08324,0.450602 1.06488,0.512904 L 1.05631,0.542892 C 1.03918,0.606173 1.0759,0.6708 1.13587,0.68867 L 1.61201,0.823677 1.86905,1.28268 1.2803,1.11683 C 1.2191,1.0981 1.15301,1.13433 1.13587,1.19663 L 1.1273,1.22686 C 1.11017,1.28892 1.14689,1.35416 1.20931,1.37338 L 2.05142,1.61304 2.3256,2.10435 1.77235,2.0959 C 1.7699,2.09346 1.7699,2.08942 1.76746,2.08734 L 1.13465,1.43445 C 1.08814,1.38745 1.01592,1.38745 0.969408,1.43188 L 0.944928,1.45355 C 0.89964,1.49835 0.897192,1.57326 0.94248,1.62038 L 1.39903,2.08942 0.86904,2.08085 C 0.867816,2.07852 0.866592,2.07534 0.865368,2.07289 L 0.496944,1.69382 C 0.45288,1.64743 0.37944,1.64706 0.331704,1.69149 L 0.309672,1.71389 C 0.261936,1.75735 0.261936,1.83299 0.306,1.88024 L 0.494496,2.07534 0.118728,2.07289 C 0.05508,2.07081 0.001224,2.12381 0,2.18881 V 2.2199 C 0,2.28379 0.050184,2.33789 0.113832,2.34058 L 0.459,2.34168 0.294984,2.50105 C 0.248472,2.54548 0.247248,2.61929 0.29376,2.66641 L 0.315792,2.6893 c 0.046512,0.04651 0.119952,0.04761 0.16524,0.00269 L 0.837216,2.34793 1.36231,2.35613 0.92412,2.78073 C 0.878832,2.82516 0.876384,2.90068 0.920448,2.94658 L 0.94248,2.96923 C 0.988992,3.0166 1.06366,3.01807 1.11017,2.97192 L 1.74053,2.36139 2.30357,2.37192 2.01838,2.84573 C 2.0147,2.84695 2.01103,2.84511 2.00614,2.84695 L 1.12608,3.06666 C 1.06366,3.08245 1.02571,3.14634 1.04162,3.21036 l 0.00612,0.03035 c 0.01714,0.06255 0.08201,0.1011 0.14444,0.08556 L 1.82743,3.1669 1.5557,3.62003 c -0.00489,0 -0.00734,-6.1e-4 -0.01101,0 L 1.03306,3.74855 C 0.970632,3.76434 0.932688,3.82823 0.947376,3.89053 L 0.95472,3.92199 C 0.971856,3.98466 1.03673,4.02321 1.10038,4.00645 L 1.36354,3.94121 1.1322,4.31085 C 1.09793,4.36691 1.11751,4.43925 1.17259,4.47254 L 1.19952,4.48723 C 1.25582,4.52077 1.32804,4.504 1.36109,4.44696 L 1.57406,4.10437 1.62792,4.32579 C 1.64628,4.38846 1.71115,4.42664 1.77358,4.4111 L 1.80295,4.40363 C 1.86905,4.38846 1.90699,4.32346 1.88986,4.26055 L 1.7699,3.78086 2.03796,3.33092 2.18606,3.92199 C 2.20198,3.98637 2.26685,4.02407 2.32927,4.00767 L 2.3611,3.99996 C 2.42352,3.98466 2.46146,3.92052 2.44678,3.85675 L 2.23258,3.00803 2.52144,2.52455 2.79072,3.00803 C 2.7895,3.01097 2.78705,3.01341 2.78705,3.0166 L 2.53735,3.88992 C 2.51899,3.95259 2.55449,4.01795 2.61814,4.03521 L 2.64751,4.04439 C 2.70994,4.0614 2.77481,4.0264 2.79439,3.96324 L 2.9731,3.33447 3.22891,3.79653 C 3.22769,3.79886 3.22524,3.80155 3.22279,3.80559 L 3.07958,4.31085 C 3.06245,4.3734 3.09794,4.4384 3.16159,4.457 L 3.19097,4.4652 C 3.25584,4.48405 3.31826,4.44696 3.3354,4.38429 L 3.41129,4.12407 3.60346,4.45871 C 3.63406,4.51636 3.7075,4.53693 3.7638,4.50547 L 3.7895,4.49017 C 3.84826,4.4581 3.86906,4.38699 3.83724,4.32872 L 3.66098,4.02113 3.88008,4.08319 C 3.94128,4.10082 4.00615,4.06556 4.02574,4.0029 L 4.03186,3.9723 C 4.05022,3.91024 4.01472,3.84414 3.9523,3.82615 L 3.47616,3.69053 3.22157,3.23153 3.80664,3.39946 C 3.87029,3.41709 3.93516,3.38184 3.9523,3.31892 L 3.96086,3.28918 C 3.978,3.2259 3.94373,3.16164 3.8813,3.14242 L 3.03919,2.90215 2.76379,2.41047 3.31826,2.41965 c 0,0.00294 0.00123,0.00649 0.0049,0.00943 l 0.63158,0.6519 C 4.00003,3.12749 4.07347,3.12835 4.11998,3.08367 L 4.14446,3.06103 C 4.19098,3.0166 4.19098,2.94157 4.14691,2.89395 L 3.69281,2.42553 4.21913,2.43348 C 4.22158,2.43642 4.22158,2.44107 4.22402,2.44315 L 4.59122,2.821 C 4.63529,2.86776 4.70995,2.86837 4.75769,2.82333 L 4.77972,2.8013 C 4.82868,2.75601 4.82868,2.68196 4.78094,2.63422 L 4.5949,2.43936 4.97189,2.4478 C 5.03798,2.44842 5.09184,2.39725 5.09184,2.3314 V 2.30117 c 0,-0.06622 -0.04896,-0.11885 -0.11506,-0.12008"
         style="fill:#f5fbfc;fill-rule:nonzero;stroke:none"
         transform="translate(14.8142,19.4682)"
         id="path2676" />
      <path
         d="M 4.97801,2.18118 4.63162,2.17359 4.79318,2.01447 C 4.8397,1.97004 4.84214,1.89513 4.79686,1.84862 L 4.77482,1.82598 C 4.72954,1.77946 4.65487,1.77861 4.60714,1.82304 L 4.25218,2.1671 3.72953,2.15939 4.1665,1.73418 C 4.21423,1.68925 4.21423,1.61484 4.16772,1.56771 L 4.14569,1.54629 C 4.10162,1.49843 4.02818,1.49843 3.97922,1.54274 L 3.35254,2.15327 2.78705,2.14409 3.07224,1.67102 c 0.00245,-0.00172 0.0049,0 0.01102,-0.00172 L 3.96454,1.44813 C 4.02818,1.43197 4.0649,1.36783 4.04899,1.30578 L 4.04287,1.27432 C 4.02574,1.21104 3.96209,1.17285 3.89844,1.18962 L 3.26441,1.34813 3.53614,0.894638 c 0.00367,-2.45e-4 0.00734,0 0.00979,-2.45e-4 L 4.05511,0.765873 C 4.11876,0.751185 4.15793,0.686802 4.14202,0.623889 L 4.13222,0.593534 C 4.11754,0.530865 4.05511,0.492064 3.99146,0.507364 L 3.72953,0.573827 3.91802,0.244449 C 3.9523,0.187166 3.93394,0.116295 3.87641,0.0830026 L 3.8507,0.0656218 C 3.7944,0.033553 3.72218,0.0515458 3.68914,0.106014 L 3.51533,0.409444 3.46025,0.189736 C 3.44434,0.126578 3.37946,0.0877762 3.31704,0.104178 L 3.28644,0.111767 C 3.22279,0.126578 3.18607,0.19096 3.20076,0.253874 L 3.32071,0.733559 3.05143,1.18399 2.90333,0.592922 C 2.88619,0.529396 2.82377,0.490962 2.76012,0.507364 L 2.72952,0.515565 C 2.66587,0.530865 2.62793,0.595614 2.64384,0.657671 L 2.85559,1.50749 2.56795,1.99097 2.29867,1.50749 C 2.2999,1.5048 2.30357,1.50247 2.30357,1.49843 L 2.55449,0.62499 C 2.5704,0.562689 2.5349,0.496715 2.47248,0.478845 L 2.4431,0.470644 C 2.37946,0.453508 2.31458,0.49035 2.29622,0.55204 L 2.1163,1.18044 1.86048,0.719116 C 1.8617,0.716423 1.86293,0.712384 1.86538,0.709936 L 2.00981,0.203567 C 2.02817,0.14151 1.99022,0.0762706 1.9278,0.0588898 L 1.8972,0.0492202 C 1.836,0.0326962 1.77113,0.0677026 1.75277,0.130617 L 1.67933,0.390594 1.50797,0.0603586 C 1.47614,0.00393217 1.40393,-0.016631 1.34762,0.014581 L 1.3207,0.029269 C 1.26439,0.0615826 1.24236,0.133677 1.27541,0.190348 L 1.42963,0.494757 1.21054,0.432945 C 1.14934,0.413606 1.08446,0.450326 1.06488,0.512627 L 1.05754,0.542615 C 1.0404,0.606263 1.0759,0.670523 1.1371,0.688761 L 1.61323,0.823768 1.86905,1.28289 1.28153,1.11692 C 1.22033,1.09782 1.15301,1.1343 1.1371,1.19672 L 1.12853,1.22671 C 1.11139,1.28901 1.14811,1.35425 1.20931,1.37346 L 2.05265,1.61275 2.32682,2.10444 1.77358,2.09587 C 1.77113,2.09354 1.77113,2.0895 1.76746,2.08742 L 1.13465,1.4343 C 1.08936,1.38754 1.01592,1.38754 0.970632,1.43197 L 0.944928,1.45363 C 0.900864,1.49843 0.898416,1.57334 0.943704,1.62047 L 1.40026,2.0895 0.870264,2.08093 C 0.86904,2.07824 0.867816,2.0753 0.866592,2.07298 L 0.498168,1.69391 C 0.45288,1.64752 0.380664,1.6469 0.332928,1.69158 L 0.309672,1.71337 C 0.26316,1.75743 0.26316,1.83295 0.306,1.88044 L 0.49572,2.0753 0.119952,2.07273 C 0.056304,2.07029 0.001224,2.12353 0.001224,2.18852 L 0,2.21949 C 0,2.28351 0.051408,2.33773 0.115056,2.34006 L 0.459,2.34177 0.296208,2.50113 C 0.249696,2.54557 0.248472,2.61937 0.29376,2.6665 l 0.023256,0.02227 c 0.045288,0.047 0.118728,0.04823 0.16524,0.00331 L 0.837216,2.34764 1.36354,2.35585 0.925344,2.78057 C 0.878832,2.82525 0.877608,2.90053 0.921672,2.94643 L 0.943704,2.96931 C 0.988992,3.01632 1.06488,3.01815 1.11139,2.97164 L 1.74175,2.36148 2.30357,2.37212 2.0196,2.84581 C 2.01593,2.84667 2.01226,2.8452 2.00736,2.84667 L 1.1273,3.06638 C 1.06488,3.08253 1.02694,3.1463 1.04285,3.21044 L 1.04897,3.24043 C 1.06488,3.3031 1.12975,3.3419 1.19218,3.32635 L 1.82866,3.16662 1.55693,3.62011 c -0.0049,0 -0.00735,-6.1e-4 -0.01224,0 L 1.03428,3.74863 C 0.971856,3.76418 0.933912,3.82832 0.9486,3.89062 L 0.955944,3.92183 C 0.97308,3.98474 1.03795,4.0233 1.10038,4.00653 L 1.36476,3.94129 1.13342,4.31094 C 1.09915,4.36675 1.11751,4.43934 1.17382,4.47263 L 1.20074,4.48732 C 1.25705,4.52086 1.32926,4.50384 1.36109,4.44705 L 1.57529,4.10421 1.62914,4.32587 C 1.6475,4.38854 1.71115,4.42673 1.7748,4.41106 L 1.80295,4.40347 C 1.86905,4.38854 1.90699,4.32355 1.89108,4.26051 L 1.77113,3.7807 2.03918,3.33101 2.18729,3.92183 C 2.2032,3.98658 2.26807,4.02416 2.3305,4.00776 L 2.3611,4.00004 C 2.42352,3.98474 2.46146,3.92036 2.44678,3.85684 L 2.2338,3.00824 2.52266,2.52463 2.79194,3.00824 C 2.79072,3.01105 2.78827,3.0135 2.78705,3.01632 L 2.53735,3.89013 C 2.52022,3.95268 2.55449,4.01767 2.61936,4.0353 L 2.64874,4.04448 C 2.71116,4.06149 2.77603,4.02624 2.79439,3.96296 L 2.9731,3.33456 3.23014,3.79649 C 3.22891,3.79882 3.22646,3.80127 3.22402,3.80531 L 3.08081,4.31094 C 3.06367,4.37349 3.10039,4.43848 3.16159,4.45672 l 0.0306,0.0082 C 3.25706,4.48414 3.31949,4.44705 3.33662,4.38438 L 3.41251,4.12416 3.60346,4.45855 C 3.63528,4.51584 3.70872,4.5364 3.76502,4.50556 L 3.79073,4.48989 C 3.84826,4.45794 3.86906,4.38646 3.83846,4.32857 L 3.66221,4.02097 3.8813,4.08328 C 3.94128,4.10066 4.00738,4.06565 4.02574,4.00298 L 4.03308,3.97214 C 4.05144,3.91033 4.01594,3.84423 3.95352,3.82599 L 3.47738,3.69074 3.22279,3.23162 3.80786,3.39931 C 3.87151,3.41718 3.93638,3.38156 3.95352,3.31901 L 3.96209,3.28927 C 3.97922,3.22599 3.94495,3.1616 3.8813,3.14251 L 3.04042,2.90224 2.76502,2.41031 3.31826,2.41937 C 3.31949,2.42231 3.32071,2.42623 3.32438,2.42916 L 3.95474,3.08107 C 4.00126,3.12758 4.0747,3.12819 4.12121,3.08339 L 4.14569,3.06075 C 4.1922,3.01632 4.1922,2.94177 4.14691,2.89404 L 3.69281,2.42561 4.21913,2.43357 C 4.22158,2.43651 4.2228,2.44116 4.22525,2.44287 L 4.59122,2.82109 C 4.63651,2.86784 4.71118,2.86846 4.75769,2.82341 L 4.78094,2.80138 C 4.82868,2.75585 4.82868,2.68204 4.78217,2.63406 L 4.5949,2.43883 4.97311,2.44765 C 5.03921,2.4485 5.09306,2.39734 5.09306,2.33124 V 2.30125 c 0,-0.06621 -0.04896,-0.11909 -0.11505,-0.12007"
         style="fill:#f5fbfc;fill-rule:nonzero;stroke:none"
         transform="translate(23.9795,20.1877)"
         id="path2678" />
      <path
         d="M 4.97801,2.18106 4.63162,2.17347 4.79318,2.01435 C 4.8397,1.96992 4.84214,1.89464 4.79686,1.8485 L 4.77482,1.82585 C 4.72954,1.77934 4.65487,1.77848 4.60714,1.82279 L 4.25218,2.16698 3.7283,2.15952 4.1665,1.73405 C 4.21423,1.68938 4.21423,1.61471 4.16772,1.56796 L 4.14446,1.54617 C 4.10162,1.49856 4.02696,1.49856 3.97922,1.54262 L 3.35254,2.1534 2.78705,2.14422 3.07224,1.67053 c 0.00367,-0.0011 0.0049,6.1e-4 0.01102,-0.0011 L 3.96454,1.44788 C 4.02696,1.43173 4.0649,1.36771 4.04899,1.3059 L 4.04287,1.2742 C 4.02574,1.21117 3.96209,1.17273 3.89844,1.1895 L 3.26441,1.34825 3.53614,0.894762 c 0.00367,-4.89e-4 0.00734,0 0.00979,-4.89e-4 L 4.05511,0.765753 C 4.11876,0.75131 4.15915,0.68656 4.14324,0.623646 L 4.13222,0.593414 C 4.11876,0.53099 4.05511,0.492189 3.99146,0.507489 L 3.7283,0.573952 3.91802,0.244574 C 3.9523,0.18729 3.93271,0.116176 3.87641,0.082883 L 3.84948,0.0658694 C 3.7944,0.0334334 3.72218,0.0514262 3.68914,0.105772 L 3.51533,0.409569 3.46025,0.189983 C 3.44434,0.126458 3.37946,0.0875342 3.31704,0.104303 L 3.28644,0.111769 C 3.22279,0.126458 3.18607,0.19084 3.20076,0.253998 L 3.32071,0.733439 3.05143,1.18412 2.90333,0.593169 C 2.88619,0.529276 2.82377,0.49072 2.76012,0.507489 L 2.72952,0.515445 C 2.66587,0.53099 2.62793,0.595494 2.64262,0.657184 L 2.85682,1.50761 2.56795,1.99109 2.29867,1.50761 C 2.30112,1.50468 2.30357,1.50235 2.30357,1.49856 L 2.55326,0.625115 C 2.5704,0.562569 2.5349,0.496595 2.4737,0.478725 L 2.4431,0.470402 C 2.37946,0.453388 2.31458,0.490108 2.29622,0.552165 L 2.11752,1.18032 1.86048,0.718874 C 1.8617,0.716303 1.86415,0.712142 1.86538,0.709816 L 2.00981,0.203447 C 2.02817,0.141635 1.99022,0.0757838 1.9278,0.059015 L 1.8972,0.0493454 C 1.836,0.0325766 1.77113,0.067583 1.75277,0.13013 L 1.67933,0.390474 1.50797,0.060239 C 1.47614,0.00405739 1.40393,-0.0165058 1.34762,0.014339 L 1.3207,0.0293942 C 1.26439,0.0613406 1.24236,0.133434 1.27541,0.190473 L 1.42963,0.494882 1.21054,0.432825 C 1.14934,0.413363 1.08446,0.450206 1.06488,0.512752 L 1.05754,0.542495 C 1.0404,0.606021 1.0759,0.670403 1.1371,0.688641 L 1.61323,0.823648 1.86905,1.28264 1.28153,1.11716 C 1.22033,1.0977 1.15423,1.13418 1.1371,1.19685 L 1.12853,1.22683 C 1.11139,1.28852 1.14689,1.35437 1.20931,1.37322 L 2.05265,1.61263 2.32682,2.10456 1.77358,2.09611 C 1.77113,2.09342 1.77113,2.08963 1.76746,2.0873 L 1.13465,1.43417 C 1.08814,1.38766 1.01592,1.38766 0.969408,1.43173 L 0.944928,1.45351 C 0.900864,1.49856 0.898416,1.57346 0.943704,1.62022 L 1.39903,2.08963 0.870264,2.08081 C 0.86904,2.07812 0.867816,2.07518 0.866592,2.07261 L 0.498168,1.69378 C 0.45288,1.64764 0.37944,1.64703 0.332928,1.69109 L 0.310896,1.71349 C 0.26316,1.75731 0.26316,1.83295 0.306,1.8802 L 0.49572,2.07518 0.119952,2.07261 C 0.05508,2.07041 0.001224,2.12341 0.001224,2.1884 L 0,2.21961 c 0,0.06414 0.051408,0.11788 0.115056,0.1202 L 0.459,2.34189 0.294984,2.50101 C 0.249696,2.54544 0.248472,2.61949 0.29376,2.66625 L 0.317016,2.6889 c 0.045288,0.04712 0.118728,0.04798 0.16524,0.00293 L 0.83844,2.34777 1.36231,2.35572 0.925344,2.7807 C 0.878832,2.82476 0.877608,2.90065 0.921672,2.94618 L 0.943704,2.96919 C 0.988992,3.01644 1.06488,3.01803 1.11139,2.97152 L 1.74175,2.36135 2.30357,2.37188 2.0196,2.84569 C 2.01593,2.84655 2.01226,2.84508 2.00736,2.84655 L 1.1273,3.06625 C 1.06488,3.08241 1.02694,3.14643 1.04285,3.21056 L 1.04897,3.24055 C 1.06488,3.30298 1.12975,3.34202 1.19218,3.32648 L 1.82743,3.1665 1.55693,3.61999 c -0.0049,0 -0.00735,-3.6e-4 -0.01224,0 L 1.03428,3.74839 C 0.971856,3.76406 0.933912,3.82819 0.9486,3.89086 L 0.95472,3.92171 C 0.97308,3.98487 1.03795,4.02318 1.10038,4.00665 L 1.36476,3.94105 1.13342,4.3107 C 1.09915,4.36663 1.11751,4.43922 1.17382,4.47275 L 1.20074,4.4872 C 1.25705,4.52098 1.32926,4.50397 1.36109,4.4468 L 1.57529,4.10433 1.62914,4.326 C 1.6475,4.3883 1.71115,4.42685 1.7748,4.41106 L 1.80295,4.40335 C 1.86905,4.3883 1.90699,4.32343 1.89108,4.26051 L 1.77113,3.78083 2.03918,3.33064 2.18729,3.92171 C 2.2032,3.98634 2.26685,4.02403 2.3305,4.00751 L 2.3611,3.99992 C 2.42352,3.98487 2.46146,3.92048 2.44678,3.85696 L 2.2338,3.00775 2.52266,2.52488 2.79194,3.00775 C 2.79072,3.01093 2.78827,3.01326 2.78705,3.01644 l -0.2497,0.87381 c -0.01713,0.0623 0.01714,0.1273 0.08201,0.14492 L 2.64874,4.04423 C 2.71116,4.06161 2.77603,4.02599 2.79439,3.96308 L 2.9731,3.33443 3.23014,3.79649 C 3.22891,3.79906 3.22646,3.80139 3.22402,3.80555 L 3.08081,4.3107 C 3.06367,4.373 3.09917,4.43836 3.16159,4.45684 L 3.19219,4.4648 C 3.25584,4.48426 3.31949,4.4468 3.33662,4.3845 L 3.41251,4.12391 3.60346,4.45868 c 0.03182,0.05728 0.10404,0.07821 0.16156,0.047 L 3.79073,4.48989 C 3.84948,4.45807 3.87029,4.38658 3.83846,4.32869 L 3.66221,4.02097 3.8813,4.08315 C 3.94128,4.10078 4.00738,4.06541 4.02574,4.0031 L 4.03308,3.97226 C 4.05144,3.9102 4.01472,3.84435 3.95352,3.82611 L 3.47738,3.69049 3.22279,3.23149 3.80786,3.39943 C 3.87151,3.41705 3.93638,3.3818 3.95352,3.31852 L 3.96209,3.28915 C 3.97922,3.22623 3.94495,3.16148 3.8813,3.14239 L 3.04042,2.90212 2.76502,2.41007 3.31826,2.41925 C 3.31949,2.42219 3.32071,2.42574 3.32438,2.42892 L 3.95474,3.08094 C 4.00126,3.12709 4.0747,3.12831 4.12121,3.08351 L 4.14446,3.06062 C 4.1922,3.01644 4.1922,2.94128 4.14814,2.89416 L 3.69281,2.42537 4.21913,2.43369 C 4.2228,2.43663 4.2228,2.44104 4.22525,2.44312 L 4.59122,2.82097 C 4.63651,2.86772 4.70995,2.86833 4.75891,2.82366 L 4.78094,2.80126 C 4.82868,2.75597 4.82868,2.68192 4.78217,2.63394 L 4.5949,2.43895 4.97311,2.44752 C 5.03798,2.44862 5.09306,2.39722 5.09306,2.331 V 2.30101 c 0,-0.0661 -0.04896,-0.1191 -0.11505,-0.11995"
         style="fill:#f5fbfc;fill-rule:nonzero;stroke:none"
         transform="translate(32.0322,20.2717)"
         id="path2680" />
      <path
         d="M 4.97801,2.18139 4.63162,2.17404 4.79318,2.01492 C 4.8397,1.97086 4.84214,1.89497 4.79563,1.84846 L 4.77482,1.82643 C 4.72954,1.77992 4.65365,1.77869 4.60591,1.82276 L 4.25218,2.16792 3.7283,2.15936 4.1665,1.73463 C 4.21301,1.69056 4.21301,1.61468 4.16772,1.56816 L 4.14446,1.54613 C 4.1004,1.4984 4.02696,1.4984 3.97922,1.54368 L 3.35254,2.15446 2.78705,2.14467 3.07224,1.67098 C 3.07469,1.66976 3.07714,1.6722 3.08326,1.66976 L 3.96454,1.44821 C 4.02696,1.4323 4.0649,1.36865 4.04899,1.30623 L 4.04165,1.2744 C 4.02574,1.21198 3.96209,1.17403 3.89844,1.18994 L 3.26441,1.34907 3.53614,0.894961 c 0.00367,0 0.00612,0 0.00856,0 L 4.05511,0.766441 C 4.11876,0.751753 4.15793,0.686881 4.14202,0.624457 l -0.0098,-0.0306 C 4.11876,0.531433 4.05511,0.492265 3.99146,0.508177 L 3.7283,0.574273 3.91802,0.245017 C 3.95107,0.187489 3.93271,0.116497 3.87641,0.0834488 L 3.84948,0.0663128 C 3.7944,0.0332648 3.72218,0.0516248 3.68914,0.106705 L 3.51533,0.410257 3.46025,0.189937 C 3.44434,0.126289 3.37946,0.0883448 3.31704,0.105481 L 3.28644,0.112825 C 3.22157,0.126289 3.18607,0.191161 3.20076,0.253585 L 3.32071,0.734617 3.05143,1.18382 2.9021,0.593857 C 2.88619,0.530209 2.82377,0.491041 2.76012,0.508177 L 2.7283,0.515521 C 2.66587,0.531433 2.62793,0.596305 2.64262,0.657505 L 2.85559,1.50819 2.56795,1.99167 2.29867,1.50819 C 2.2999,1.50574 2.30357,1.50329 2.30357,1.4984 L 2.55326,0.625681 C 2.5704,0.563257 2.5349,0.497161 2.47248,0.478801 L 2.4431,0.471457 C 2.37823,0.454321 2.31336,0.491041 2.29622,0.552241 L 2.1163,1.18138 1.86048,0.719929 C 1.8617,0.717481 1.86293,0.712585 1.86538,0.710137 L 2.00981,0.204625 C 2.02694,0.142201 1.99022,0.0761048 1.9278,0.0589688 L 1.8972,0.0491768 C 1.836,0.0332648 1.77113,0.0675368 1.75277,0.131185 L 1.67933,0.390673 1.50797,0.0614168 C 1.47614,0.00388873 1.40393,-0.0169192 1.34762,0.0149048 L 1.31947,0.0295928 C 1.26439,0.0614168 1.24236,0.133633 1.27541,0.191161 L 1.42963,0.494713 1.21054,0.433513 C 1.14934,0.413929 1.08446,0.450649 1.06488,0.513073 L 1.05754,0.542449 C 1.0404,0.606097 1.0759,0.670969 1.1371,0.689329 L 1.61323,0.823969 1.86905,1.28297 1.2803,1.11773 C 1.22033,1.09814 1.15301,1.13486 1.1371,1.19729 L 1.1273,1.22667 C 1.11139,1.28909 1.14689,1.35519 1.20931,1.37355 L 2.05265,1.61345 2.32682,2.1055 1.77358,2.09571 C 1.77113,2.09448 1.77113,2.08959 1.76746,2.08836 L 1.13465,1.43475 C 1.08814,1.38824 1.01592,1.38824 0.969408,1.4323 L 0.946152,1.45433 C 0.900864,1.4984 0.898416,1.57428 0.943704,1.6208 L 1.39903,2.08959 0.870264,2.08102 C 0.867816,2.07857 0.866592,2.07612 0.865368,2.07245 L 0.498168,1.69424 C 0.45288,1.64772 0.380664,1.64772 0.331704,1.69179 L 0.309672,1.71382 C 0.26316,1.75788 0.26316,1.83377 0.306,1.88151 L 0.49572,2.07612 0.119952,2.07245 C 0.05508,2.07123 0.001224,2.12386 0,2.18873 v 0.0306 C 0,2.2842 0.051408,2.33806 0.115056,2.34051 L 0.459,2.34173 0.294984,2.50208 C 0.248472,2.54614 0.248472,2.61958 0.29376,2.66732 L 0.317016,2.68935 C 0.362304,2.73586 0.435744,2.73708 0.482256,2.6918 L 0.837216,2.34785 1.36231,2.35642 0.92412,2.78115 C 0.878832,2.82521 0.877608,2.9011 0.921672,2.94639 L 0.943704,2.96964 C 0.988992,3.01738 1.06366,3.0186 1.11139,2.97209 L 1.74053,2.36254 2.30357,2.37233 2.01838,2.84602 c -0.00245,0.00122 -0.00612,0 -0.01102,0.00122 L 1.1273,3.06634 C 1.06366,3.08225 1.02694,3.14712 1.04162,3.21077 l 0.00612,0.0306 C 1.06488,3.3038 1.12975,3.34174 1.19218,3.32705 L 1.82866,3.16671 1.55693,3.62081 c -0.0049,0 -0.00735,-0.00122 -0.01224,0 L 1.03428,3.74933 C 0.970632,3.76524 0.933912,3.82889 0.947376,3.89132 L 0.95472,3.92192 C 0.97308,3.98556 1.03795,4.02351 1.10038,4.00637 L 1.36354,3.9415 1.13342,4.31127 C 1.09915,4.36745 1.11751,4.43979 1.17382,4.47296 l 0.0257,0.01469 C 1.25705,4.52119 1.32926,4.50442 1.36109,4.44738 L 1.57406,4.10429 1.62914,4.3262 C 1.64628,4.38887 1.71115,4.42706 1.7748,4.41152 L 1.80295,4.40417 C 1.86905,4.38887 1.90699,4.32388 1.89108,4.26096 L 1.77113,3.78116 2.03918,3.33072 2.18729,3.92192 C 2.2032,3.98679 2.26807,4.02473 2.32927,4.0076 L 2.3611,4.00025 C 2.42352,3.98556 2.46146,3.92069 2.44678,3.85704 L 2.2338,3.00881 2.52266,2.52533 2.79194,3.00881 C 2.79072,3.01126 2.78827,3.01371 2.78705,3.01738 L 2.53735,3.89009 C 2.52022,3.95252 2.55449,4.01739 2.61936,4.03575 L 2.64874,4.04432 C 2.71116,4.06145 2.77603,4.02718 2.79439,3.96353 L 2.9731,3.3344 3.23014,3.79707 C 3.22769,3.79952 3.22524,3.80196 3.22402,3.80564 L 3.08081,4.31127 c -0.01714,0.06267 0.01836,0.1273 0.08078,0.14615 l 0.0306,0.0082 C 3.25584,4.48447 3.31949,4.44738 3.33662,4.38471 L 3.41251,4.12388 3.60346,4.45889 C 3.63528,4.51654 3.7075,4.5371 3.76502,4.50564 L 3.79073,4.49034 C 3.84826,4.45852 3.86906,4.38679 3.83724,4.3289 L 3.66098,4.02106 3.88008,4.08348 C 3.94128,4.10184 4.00615,4.06635 4.02574,4.00392 L 4.03308,3.97332 C 4.05144,3.9109 4.01472,3.8448 3.95352,3.82644 L 3.47738,3.69058 3.22157,3.23158 3.80786,3.39927 C 3.87151,3.41763 3.93516,3.38213 3.95352,3.31971 L 3.96209,3.28911 C 3.97922,3.22668 3.94373,3.16181 3.8813,3.14223 L 3.03919,2.90232 2.76502,2.41028 3.31826,2.42007 C 3.31949,2.42252 3.32071,2.42619 3.32438,2.42986 L 3.95474,3.08103 C 4.00126,3.12754 4.0747,3.12876 4.12121,3.08348 L 4.14446,3.06144 C 4.19098,3.01738 4.19098,2.94149 4.14691,2.89498 L 3.69281,2.42619 4.21913,2.43353 C 4.22158,2.4372 4.22158,2.44088 4.22402,2.44332 l 0.3672,0.37822 C 4.63651,2.86805 4.71118,2.86928 4.75769,2.82399 L 4.78094,2.80196 C 4.82868,2.75667 4.82868,2.682 4.78217,2.63427 L 4.5949,2.43965 4.97311,2.44822 C 5.03798,2.44944 5.09306,2.39804 5.09306,2.33194 v -0.0306 c 0,-0.0661 -0.04896,-0.11873 -0.11505,-0.11995"
         style="fill:#f5fbfc;fill-rule:nonzero;stroke:none"
         transform="translate(29.4422,13.796)"
         id="path2682" />
      <path
         d="M 4.97678,2.18089 4.63162,2.17354 4.79318,2.01442 C 4.8397,1.97036 4.84214,1.89447 4.79563,1.84796 L 4.77482,1.82593 C 4.72831,1.77941 4.65365,1.77819 4.60591,1.82225 L 4.25218,2.1662 3.7283,2.15885 4.1665,1.73413 c 0.04651,-0.04529 0.04651,-0.11996 0,-0.16647 L 4.14446,1.54563 C 4.1004,1.49789 4.02696,1.49789 3.978,1.54196 L 3.35131,2.15273 2.78705,2.14417 3.07102,1.67048 c 0.00367,-0.00123 0.00612,0 0.01101,-0.00123 L 3.96331,1.44771 C 4.02696,1.4318 4.0649,1.36815 4.04899,1.30573 L 4.04165,1.2739 C 4.02574,1.21025 3.96209,1.17231 3.89722,1.18944 L 3.26318,1.34734 3.53491,0.894458 c 0.0049,0 0.00735,0 0.00979,0 L 4.05389,0.765938 C 4.11876,0.75125 4.15793,0.686378 4.14202,0.623954 l -0.0098,-0.0306 C 4.11754,0.53093 4.05389,0.491762 3.99146,0.50645 L 3.7283,0.57377 3.9168,0.244514 C 3.95107,0.186986 3.93271,0.115993 3.87641,0.082945 L 3.84948,0.065809 C 3.79318,0.033985 3.72096,0.051121 3.68791,0.106201 L 3.51533,0.409754 3.46025,0.189434 C 3.44311,0.125786 3.37824,0.086617 3.31582,0.103753 L 3.28522,0.111097 C 3.22157,0.125786 3.18485,0.190658 3.19954,0.254306 L 3.31949,0.73289 3.05021,1.18332 2.9021,0.59213 C 2.88619,0.529706 2.82254,0.490538 2.76012,0.50645 L 2.7283,0.515018 C 2.66587,0.53093 2.6267,0.595802 2.64262,0.657002 L 2.85559,1.50769 2.56673,1.99117 2.29745,1.50769 C 2.2999,1.50401 2.30357,1.50157 2.30357,1.49789 L 2.55326,0.625178 C 2.5704,0.562754 2.5349,0.496658 2.47248,0.478298 L 2.44188,0.46973 C 2.37823,0.452594 2.31336,0.489314 2.295,0.551738 L 2.1163,1.17965 1.86048,0.718202 C 1.8617,0.715754 1.86293,0.712082 1.86538,0.709634 L 2.00858,0.202898 C 2.02694,0.141698 1.99022,0.075601 1.9278,0.058465 L 1.8972,0.048673 C 1.83478,0.032761 1.77113,0.067033 1.75154,0.129458 L 1.6781,0.39017 1.50797,0.059689 C 1.47492,0.00338498 1.40393,-0.016199 1.3464,0.014401 L 1.31947,0.029089 C 1.26439,0.060913 1.24114,0.13313 1.27418,0.190658 L 1.42963,0.49421 1.21054,0.43301 C 1.14811,0.413426 1.08324,0.450146 1.06488,0.51257 L 1.05631,0.541946 C 1.0404,0.605594 1.0759,0.670466 1.13587,0.688826 L 1.61323,0.823466 1.86905,1.28247 1.2803,1.11723 C 1.2191,1.09764 1.15301,1.13436 1.13587,1.19679 L 1.1273,1.22739 C 1.11017,1.28859 1.14689,1.35346 1.20931,1.37305 L 2.05142,1.61295 2.3256,2.10377 1.77235,2.09643 C 1.77113,2.09276 1.7699,2.08909 1.76746,2.08664 L 1.13465,1.43425 C 1.08814,1.38773 1.0147,1.38773 0.969408,1.4318 L 0.944928,1.45261 C 0.89964,1.49789 0.898416,1.57256 0.94248,1.62029 L 1.39903,2.08909 0.86904,2.08052 C 0.867816,2.07807 0.866592,2.0744 0.865368,2.07195 L 0.496944,1.69373 C 0.45288,1.64722 0.37944,1.646 0.331704,1.69129 L 0.309672,1.71332 C 0.261936,1.75738 0.261936,1.83327 0.306,1.87978 L 0.49572,2.0744 0.118728,2.07195 C 0.05508,2.0695 0.001224,2.12336 0,2.18823 V 2.22005 C 0,2.2837 0.050184,2.33756 0.113832,2.34001 L 0.459,2.34123 0.294984,2.50035 C 0.248472,2.54441 0.247248,2.61908 0.29376,2.66559 L 0.317016,2.68885 C 0.362304,2.73536 0.435744,2.73658 0.481032,2.69129 L 0.837216,2.34735 1.36231,2.35592 0.92412,2.78065 C 0.877608,2.82471 0.877608,2.9006 0.920448,2.94589 L 0.94248,2.96914 C 0.988992,3.01688 1.06366,3.0181 1.11017,2.97159 L 1.74053,2.36081 2.30357,2.37183 2.01838,2.84552 c -0.00368,0.00122 -0.00735,0 -0.01102,0.00122 L 1.1273,3.06584 C 1.06366,3.08175 1.02694,3.14662 1.04162,3.21027 l 0.00612,0.0306 C 1.06488,3.30329 1.12853,3.34124 1.19218,3.32655 L 1.82743,3.16621 1.5557,3.62031 c -0.00367,0 -0.00734,-0.00122 -0.01101,0 L 1.03306,3.74761 C 0.970632,3.76352 0.932688,3.82839 0.947376,3.89081 l 0.007344,0.0306 c 0.017136,0.06365 0.08201,0.1016 0.14566,0.08446 L 1.36354,3.941 1.13342,4.31065 C 1.09793,4.36695 1.11751,4.43917 1.17259,4.47221 L 1.19952,4.4869 c 0.0563,0.03305 0.12852,0.01714 0.16034,-0.04039 l 0.2142,-0.34272 0.05508,0.22154 c 0.01714,0.06243 0.08201,0.1016 0.14444,0.08568 L 1.80295,4.40367 C 1.86905,4.38776 1.90577,4.32289 1.88986,4.26046 L 1.7699,3.78065 2.03796,3.33022 2.18729,3.92141 C 2.20198,3.98629 2.26685,4.02423 2.32927,4.00709 L 2.3611,3.99975 C 2.42352,3.98506 2.46024,3.92019 2.44678,3.85654 L 2.23258,3.00709 2.52144,2.52483 2.79194,3.00709 C 2.7895,3.01076 2.78705,3.01321 2.78705,3.01688 L 2.53735,3.88959 C 2.51899,3.95201 2.55449,4.01811 2.61814,4.03525 L 2.64751,4.04381 C 2.70994,4.06095 2.77603,4.02545 2.79439,3.96303 L 2.9731,3.33389 3.22891,3.79657 C 3.22769,3.79901 3.22524,3.80146 3.22402,3.80513 L 3.07958,4.31065 C 3.06367,4.37307 3.09917,4.43794 3.16159,4.4563 L 3.19097,4.46487 C 3.25584,4.48323 3.31949,4.44651 3.33662,4.38409 L 3.41129,4.12337 3.60346,4.45875 C 3.63406,4.51628 3.7075,4.53709 3.7638,4.50526 L 3.7895,4.48935 C 3.84826,4.45753 3.86906,4.38653 3.83724,4.32901 L 3.66098,4.02056 3.88008,4.08298 C 3.94128,4.10012 4.00615,4.06462 4.02574,4.0022 L 4.03308,3.9716 C 4.05022,3.90917 4.01472,3.8443 3.95352,3.82594 L 3.47738,3.69008 3.22157,3.23108 3.80664,3.39877 C 3.87151,3.41713 3.93516,3.38163 3.95352,3.31798 L 3.96209,3.28861 C 3.978,3.22618 3.94373,3.16131 3.8813,3.14295 L 3.03919,2.90182 2.76379,2.40977 3.31826,2.41834 c 0.00123,0.00367 0.00123,0.00735 0.0049,0.01102 L 3.95474,3.08053 C 4.00003,3.12704 4.07347,3.12826 4.11998,3.08297 L 4.14446,3.06094 C 4.19098,3.01688 4.19098,2.94099 4.14691,2.89325 L 3.69281,2.42446 4.21913,2.43303 C 4.22158,2.4367 4.22158,2.44037 4.22402,2.44282 l 0.3672,0.37822 C 4.63529,2.86755 4.70995,2.86755 4.75769,2.82349 L 4.78094,2.80145 C 4.82868,2.75617 4.82868,2.6815 4.78217,2.63377 L 4.5949,2.43915 4.97189,2.44772 c 0.06609,0 0.11995,-0.05019 0.11995,-0.11628 v -0.0306 c 0,-0.0661 -0.04896,-0.11873 -0.11506,-0.11995"
         style="fill:#f5fbfc;fill-rule:nonzero;stroke:none"
         transform="translate(19.7286,13.1576)"
         id="path2684" />
    </g>
  </g>
</svg>
