<?xml version="1.0" encoding="UTF-8" standalone="no"?>
<svg
   width="33.720276pt"
   height="35.38559pt"
   version="1.1"
   viewBox="0 0 33.720276 35.38559"
   id="svg6053"
   sodipodi:docname="Weather Icons-page001.svg"
   xmlns:inkscape="http://www.inkscape.org/namespaces/inkscape"
   xmlns:sodipodi="http://sodipodi.sourceforge.net/DTD/sodipodi-0.dtd"
   xmlns="http://www.w3.org/2000/svg"
   xmlns:svg="http://www.w3.org/2000/svg">
  <sodipodi:namedview
     id="namedview6055"
     pagecolor="#ffffff"
     bordercolor="#000000"
     borderopacity="0.25"
     inkscape:showpageshadow="2"
     inkscape:pageopacity="0.0"
     inkscape:pagecheckerboard="0"
     inkscape:deskcolor="#d1d1d1"
     inkscape:document-units="pt"
     showgrid="false" />
  <defs
     id="defs2330">
    <clipPath
       id="Clip1">
      <path
         d="M 0,0 H 33.7203 V 35.3856 H 0 Z"
         id="path198" />
    </clipPath>
    <linearGradient
       x2="32.680901"
       y2="17.176901"
       id="Grad27"
       x1="-0.00129452"
       gradientUnits="userSpaceOnUse"
       y1="17.176901">
      <stop
         offset="0%"
         stop-color="#dceff6"
         stop-opacity="1"
         id="stop201" />
      <stop
         offset="100%"
         stop-color="#738a92"
         stop-opacity="1"
         id="stop203" />
    </linearGradient>
  </defs>
  <g
     inkscape:groupmode="layer"
     id="Background"
     inkscape:label="Background"
     transform="translate(-470.03101,-93.938904)">
    <g
       id="night"
       style="fill:none;stroke:none"
       clip-path="url(#Clip1)"
       clip-rule="evenodd"
       transform="translate(470.031,93.9389)">
      <path
         d="m 17.1859,35.3856 c -2.7674,0 -5.3746,-0.6214 -7.74914,-1.8476 C 5.87125,31.6979 3.02667,28.6382 1.4269,24.922 -0.287923,20.941 -0.460507,16.5705 0.927509,12.2828 3.65703,3.84336 11.4931,0 17.6168,0 c 1.8947,0 3.6597,0.337824 5.2448,1.00613 1.0404,0.43697 2.0833,1.02081 3.1885,1.78214 0.2008,0.13831 0.2779,0.39903 0.1836,0.62424 -0.082,0.19462 -0.2717,0.31579 -0.4761,0.31579 -0.033,0 -0.0661,-0.00244 -0.0991,-0.00856 C 24.88,3.56796 24.0832,3.49085 23.2913,3.49085 c -4.9254,0 -9.3918,2.907 -11.3784,7.40645 -2.7699,6.2754 0.0808,13.635 6.3551,16.4054 1.5961,0.705 3.2815,1.0623 5.011,1.0623 3.6867,0 7.1604,-1.6178 9.5301,-4.4389 0.1003,-0.1195 0.246,-0.1839 0.3953,-0.1839 0.0833,0 0.1665,0.0205 0.2436,0.0617 0.2154,0.1159 0.3207,0.3667 0.2509,0.6014 -0.0391,0.1297 -0.0759,0.2599 -0.1126,0.3913 -0.1922,0.6729 -0.3892,1.3687 -0.776,2.0135 -3.1212,5.2096 -9.2547,8.5755 -15.6244,8.5755"
         style="fill:#90a1aa;fill-rule:nonzero;stroke:none"
         id="path2387" />
      <path
         d="M 17.5373,27.2587 17.2284,27.1175 16.9247,26.9692 16.6267,26.814 16.3343,26.6521 16.0475,26.4834 15.7663,26.3084 15.4909,26.127 15.2214,25.9394 14.9576,25.7456 14.6999,25.546 14.448,25.3406 14.2022,25.1295 13.9624,24.9129 13.7288,24.6909 13.5013,24.4637 13.2802,24.2315 13.0652,23.9943 12.8567,23.7522 12.6544,23.5056 12.4587,23.2544 12.2695,22.9988 12.0869,22.739 11.9109,22.4751 11.7415,22.2072 11.5789,21.9355 11.423,21.6601 11.274,21.3812 11.1319,21.0989 10.9967,20.8134 10.8685,20.5246 10.7473,20.233 10.6333,19.9386 10.5264,19.6414 10.4268,19.3416 10.3344,19.0394 10.2493,18.735 10.1716,18.4285 10.1014,18.12 10.0386,17.8097 9.98336,17.4976 9.93573,17.1839 9.89575,16.8688 9.86346,16.5524 9.83894,16.2349 9.82222,15.9164 9.81337,15.5971 9.81245,15.277 9.8195,14.9563 l 0.01508,-0.3212 0.02316,-0.3214 0.03131,-0.3215 0.03949,-0.3217 0.04775,-0.3214 0.05601,-0.3212 0.0644,-0.3208 0.0728,-0.3203 0.0813,-0.3196 0.0898,-0.3188 0.0984,-0.3178 0.1069,-0.3167 0.1157,-0.3154 0.1244,-0.3141 0.1332,-0.3125 0.1212,-0.26642 0.1265,-0.26237 0.1316,-0.25827 0.1367,-0.25413 0.1416,-0.24997 0.1466,-0.24575 0.1513,-0.24152 0.1561,-0.23725 0.1606,-0.23293 0.1652,-0.22859 0.1697,-0.22421 0.1739,-0.2198 0.1782,-0.21536 0.1824,-0.21087 0.1866,-0.20635 0.1904,-0.20182 0.1944,-0.19722 0.1981,-0.19261 0.202,-0.18794 0.2055,-0.18327 0.2091,-0.17855 0.2125,-0.17378 0.2159,-0.169 0.2192,-0.16417 0.2223,-0.15932 0.2254,-0.15442 0.2284,-0.14949 0.2314,-0.14453 0.2341,-0.13953 0.237,-0.13451 0.2395,-0.12944 0.242,-0.12433 0.2446,-0.11921 0.247,-0.11402 0.2492,-0.10883 0.2514,-0.1036 0.2535,-0.09832 0.2554,-0.09301 0.2574,-0.08768 0.2594,-0.0823 0.2609,-0.07688 0.2627,-0.07146 0.2643,-0.06596 0.2657,-0.06045 0.2671,-0.05491 0.2683,-0.04933 0.2696,-0.04371 0.2708,-0.03806 0.2717,-0.03238 0.2726,-0.02666 0.2736,-0.02089 0.2743,-0.01512 0.2749,-0.0093 0.2755,-0.00343 0.2759,0.00245 0.2765,0.00839 0.2766,0.01433 0.277,0.02033 0.277,0.02636 0.2771,0.03243 0.277,0.03852 0.2769,0.04466 0.2766,0.05082 L 25.1198,2.61793 25.0039,2.53949 24.8872,2.46167 24.77,2.38451 24.652,2.30802 24.5334,2.23225 24.414,2.1572 24.2941,2.08293 24.1734,2.00944 24.052,1.93678 23.9298,1.86497 23.8069,1.79404 23.6833,1.72402 23.5589,1.65493 23.4338,1.58681 23.308,1.51968 23.1815,1.45357 23.054,1.38852 22.9258,1.32455 22.7968,1.26169 22.667,1.19996 22.5364,1.13939 22.405,1.08003 22.2728,1.02189 22.1396,0.964995 21.8007,0.828816 21.4562,0.703067 21.1063,0.587727 20.7513,0.482774 20.3916,0.388189 20.0275,0.30395 19.659,0.230036 19.2866,0.166427 18.9106,0.113102 18.5311,0.0700397 18.1486,0.0372191 17.7632,0.0146196 17.3753,0.00222019 16.9851,0 16.5929,0.00793818 16.199,0.0260138 15.8037,0.0542061 15.4072,0.0924941 15.0099,0.140857 14.6119,0.199273 14.2137,0.267723 13.8153,0.346185 13.4172,0.434639 13.0197,0.533063 12.623,0.641436 12.2273,0.759738 11.833,0.887948 11.4404,1.02604 11.0496,1.17401 10.6611,1.33181 10.275,1.49945 9.89163,1.67688 9.51132,1.8641 9.13433,2.06108 8.76094,2.2678 8.3914,2.48424 8.02601,2.71038 7.66506,2.94619 7.30881,3.19167 6.95753,3.44678 6.61153,3.71151 6.27107,3.98583 5.93644,4.26972 5.60789,4.56317 5.28573,4.86615 4.97024,5.17863 4.66167,5.50062 4.36033,5.83207 4.06647,6.17296 3.7804,6.52328 3.50238,6.88302 3.23269,7.25214 2.97161,7.63062 2.71943,8.01845 2.47641,8.4156 2.24285,8.82205 2.01901,9.23779 1.80518,9.66277 1.60164,10.097 l -0.19299,0.4435 -0.18213,0.4526 -0.17101,0.4618 -0.159613,0.471 -0.129853,0.4173 -0.1193,0.4165 -0.108852,0.4157 -0.09851,0.4145 -0.088273,0.4136 -0.07814,0.4123 -0.068113,0.411 -0.05819,0.4097 L 0.098292,15.6446 0.0596302,16.0509 0.0305753,16.4557 0.011022,16.8586 8.65284e-4,17.2596 0,17.6585 l 0.00832103,0.3968 0.01740227,0.3945 0.0263783,0.3923 0.0352493,0.3898 0.0440151,0.3872 0.052676,0.3846 0.061232,0.3818 0.069682,0.3789 0.078026,0.376 0.086269,0.373 0.094402,0.3696 0.102433,0.3666 0.110358,0.3631 0.118178,0.3596 0.125888,0.356 0.13351,0.3524 0.141,0.3485 0.14841,0.3447 0.1557,0.3406 0.16289,0.3366 0.16997,0.3325 0.17695,0.328 0.18383,0.3236 0.19059,0.3191 0.19726,0.3146 0.20381,0.3098 0.21027,0.305 0.21662,0.3 0.22286,0.295 0.229,0.2898 0.23503,0.2847 0.24095,0.2793 0.24679,0.2739 0.2525,0.2683 0.25811,0.2626 0.26362,0.2569 0.26902,0.2511 0.27432,0.2452 0.27952,0.2389 0.28459,0.2329 0.28957,0.2266 0.29446,0.2202 0.29923,0.2137 0.30388,0.2072 0.30846,0.2005 0.31291,0.1936 0.31726,0.1868 0.32151,0.1798 0.32564,0.1727 0.38251,0.191 0.38582,0.1795 0.38892,0.1686 0.3919,0.1575 0.3945,0.1465 0.3971,0.1356 0.3994,0.1249 0.4016,0.1141 0.4034,0.1034 0.4053,0.0929 0.4066,0.0825 0.4081,0.0721 0.4091,0.0618 0.4102,0.0515 0.4108,0.0415 0.4114,0.0313 0.4117,0.0216 0.4119,0.0115 0.4117,0.0018 0.4117,-0.0078 0.411,-0.0176 0.4105,-0.0271 0.4096,-0.0365 0.4085,-0.0457 0.4073,-0.0552 0.4059,-0.0643 0.4042,-0.0734 0.4024,-0.0825 0.4002,-0.0915 0.3982,-0.1002 0.3956,-0.1091 0.393,-0.1176 0.3902,-0.1263 0.3872,-0.1349 0.3838,-0.1432 0.3806,-0.1517 0.3768,-0.1598 0.373,-0.1681 0.369,-0.1761 0.3649,-0.1842 0.3603,-0.1921 0.3557,-0.2 0.3509,-0.2076 0.346,-0.2154 0.3407,-0.2229 0.3353,-0.2304 0.3297,-0.2379 0.3239,-0.2451 0.3179,-0.2524 0.3116,-0.2596 0.3053,-0.2667 0.2986,-0.2737 0.2918,-0.2806 0.2848,-0.2874 0.2778,-0.2941 0.2702,-0.3009 0.2627,-0.3073 0.2548,-0.3138 0.2469,-0.3204 0.2388,-0.3265 0.2302,-0.3328 0.2218,-0.3389 0.2129,-0.3451 0.0684,-0.1187 0.0644,-0.1206 0.0605,-0.1221 0.0569,-0.1237 0.0536,-0.1249 0.0507,-0.1261 0.0479,-0.1272 0.0457,-0.128 0.0436,-0.1288 0.0417,-0.1292 0.0402,-0.1298 0.039,-0.13 0.0381,-0.1301 0.0374,-0.1301 0.0371,-0.13 0.037,-0.1295 0.0373,-0.1291 0.0377,-0.1285 -0.1738,0.2027 -0.1777,0.1985 -0.1813,0.1944 -0.1848,0.1903 -0.1884,0.1861 -0.1919,0.1817 -0.1951,0.1775 -0.1984,0.1733 -0.2016,0.1689 -0.2048,0.1645 -0.2078,0.1603 -0.2107,0.1556 -0.2136,0.1515 -0.2164,0.1467 -0.2192,0.1424 -0.2218,0.1377 -0.2242,0.1333 -0.2268,0.1285 -0.2293,0.124 -0.2316,0.1193 -0.2338,0.1146 -0.2359,0.1098 -0.2381,0.1051 -0.24,0.1004 -0.242,0.0954 -0.244,0.0907 -0.2456,0.0857 -0.2474,0.0809 -0.249,0.0759 -0.2504,0.071 -0.252,0.066 -0.2534,0.0608 -0.2547,0.056 -0.2558,0.0506 -0.257,0.0457 -0.2582,0.0404 -0.2591,0.0354 -0.2601,0.0299 -0.2608,0.0249 -0.2617,0.0194 -0.2623,0.0142 -0.263,0.009 -0.2634,0.0034 -0.2639,-0.0018 -0.2642,-0.0074 -0.2645,-0.0128 -0.2648,-0.0184 -0.2648,-0.0237 -0.2649,-0.0294 -0.2649,-0.035 -0.2649,-0.0406 -0.2645,-0.0463 -0.2644,-0.0519 -0.264,-0.0577 -0.2636,-0.0634 -0.2631,-0.0691 -0.2625,-0.0749 -0.2618,-0.0809 -0.2612,-0.0867 -0.2602,-0.0925 -0.2595,-0.0984 -0.2585,-0.1046 z"
         style="fill:url(#Grad27);fill-rule:evenodd;stroke:none"
         transform="translate(0.522436,0.516044)"
         id="path2389" />
      <path
         d="M 2.09986,12.0941 C 4.81102,3.71456 12.9592,-0.406654 19.6802,0.234722 12.7622,-1.06149 3.77062,3.03524 0.89666,11.9215 -1.94179,20.6927 2.26999,29.0076 9.15132,32.559 10.9653,33.4956 12.8992,34.0429 14.8564,34.2502 13.313,33.972 11.7964,33.4751 10.3545,32.731 3.47441,29.1795 -0.73738,20.8644 2.09986,12.0941"
         style="fill:#f3f8f9;fill-rule:nonzero;stroke:none"
         transform="translate(0.521674,0.520487)"
         id="path2391" />
    </g>
  </g>
</svg>
