<?xml version="1.0" encoding="UTF-8" standalone="no"?>
<svg
   width="56.211014pt"
   height="29.057007pt"
   version="1.1"
   viewBox="0 0 56.211014 29.057007"
   id="svg6053"
   sodipodi:docname="Weather Icons-page001.svg"
   xmlns:inkscape="http://www.inkscape.org/namespaces/inkscape"
   xmlns:sodipodi="http://sodipodi.sourceforge.net/DTD/sodipodi-0.dtd"
   xmlns="http://www.w3.org/2000/svg"
   xmlns:svg="http://www.w3.org/2000/svg">
  <sodipodi:namedview
     id="namedview6055"
     pagecolor="#ffffff"
     bordercolor="#000000"
     borderopacity="0.25"
     inkscape:showpageshadow="2"
     inkscape:pageopacity="0.0"
     inkscape:pagecheckerboard="0"
     inkscape:deskcolor="#d1d1d1"
     inkscape:document-units="pt"
     showgrid="false" />
  <defs
     id="defs2330">
    <clipPath
       id="Clip26">
      <path
         d="M 0,0 H 56.211 V 29.057 H 0 Z"
         id="path1512" />
    </clipPath>
    <linearGradient
       x2="29.057501"
       y2="28.105499"
       id="Grad212"
       x1="-4.1745799e-14"
       gradientUnits="userSpaceOnUse"
       y1="28.105499">
      <stop
         offset="0%"
         stop-color="#c7e6f9"
         stop-opacity="1"
         id="stop1515" />
      <stop
         offset="100%"
         stop-color="#e8f5fc"
         stop-opacity="1"
         id="stop1517" />
    </linearGradient>
    <linearGradient
       x2="27.9104"
       y2="27.531401"
       id="Grad213"
       x1="-4.1745799e-14"
       gradientUnits="userSpaceOnUse"
       y1="27.531401">
      <stop
         offset="0%"
         stop-color="#a1caed"
         stop-opacity="1"
         id="stop1520" />
      <stop
         offset="100%"
         stop-color="#d3ecfb"
         stop-opacity="1"
         id="stop1522" />
    </linearGradient>
    <linearGradient
       x2="0.12585001"
       y2="0.004896"
       id="Grad214"
       x1="-0.0001224"
       gradientUnits="userSpaceOnUse"
       y1="0.004896">
      <stop
         offset="0%"
         stop-color="#a1caed"
         stop-opacity="1"
         id="stop1525" />
      <stop
         offset="100%"
         stop-color="#d2e4f7"
         stop-opacity="1"
         id="stop1527" />
    </linearGradient>
    <linearGradient
       x2="9.7076702"
       y2="26.2903"
       id="Grad215"
       x1="4.1745799e-14"
       gradientUnits="userSpaceOnUse"
       y1="26.2903">
      <stop
         offset="0%"
         stop-color="#a1caed"
         stop-opacity="1"
         id="stop1530" />
      <stop
         offset="100%"
         stop-color="#d2e4f7"
         stop-opacity="1"
         id="stop1532" />
    </linearGradient>
    <linearGradient
       x2="15.9192"
       y2="24.486099"
       id="Grad216"
       x1="-4.1745799e-14"
       gradientUnits="userSpaceOnUse"
       y1="24.486099">
      <stop
         offset="0%"
         stop-color="#c7e6f9"
         stop-opacity="1"
         id="stop1535" />
      <stop
         offset="100%"
         stop-color="#ffffff"
         stop-opacity="1"
         id="stop1537" />
    </linearGradient>
    <linearGradient
       x2="7.3636198"
       y2="21.643999"
       id="Grad217"
       x1="-0.0001224"
       gradientUnits="userSpaceOnUse"
       y1="21.643999">
      <stop
         offset="0%"
         stop-color="#a1caed"
         stop-opacity="1"
         id="stop1540" />
      <stop
         offset="100%"
         stop-color="#d2e4f7"
         stop-opacity="1"
         id="stop1542" />
    </linearGradient>
    <linearGradient
       x2="7.39083"
       y2="10.3391"
       id="Grad218"
       x1="-1.39153e-14"
       gradientUnits="userSpaceOnUse"
       y1="10.3391">
      <stop
         offset="0%"
         stop-color="#c7e6f9"
         stop-opacity="1"
         id="stop1545" />
      <stop
         offset="100%"
         stop-color="#f4fafe"
         stop-opacity="1"
         id="stop1547" />
    </linearGradient>
  </defs>
  <g
     inkscape:groupmode="layer"
     id="Background"
     inkscape:label="Background"
     transform="translate(-238.23698,-260.98898)">
    <g
       id="white_cloud"
       style="fill:none;stroke:none"
       clip-path="url(#Clip26)"
       clip-rule="evenodd"
       transform="translate(238.237,260.989)">
      <path
         d="M 14.9822,48.7201 14.9811,48.5907 14.9778,48.4616 14.9722,48.3327 14.9645,48.2042 14.9546,48.0758 14.9423,47.9479 14.928,47.8202 14.9115,47.6929 14.8929,47.5661 14.872,47.4397 14.849,47.3136 14.8239,47.1881 14.7966,47.063 l -0.0295,-0.1244 -0.0315,-0.1239 -0.0338,-0.1234 -0.0357,-0.1228 -0.038,-0.122 -0.04,-0.1214 -0.0421,-0.1208 -0.044,-0.1201 -0.0463,-0.1192 -0.0484,-0.1186 -0.0504,-0.1178 0.2167,-0.0091 0.2151,-0.0146 0.2137,-0.02 0.2122,-0.0252 0.2105,-0.0304 0.2088,-0.0355 0.2072,-0.0407 0.2053,-0.0455 0.2034,-0.0506 0.2015,-0.0554 0.1994,-0.0602 0.1974,-0.065 0.1952,-0.0697 0.1931,-0.0741 0.1907,-0.0789 0.1883,-0.0832 0.1861,-0.0876 0.1835,-0.0921 0.1809,-0.0962 0.1783,-0.1005 0.1757,-0.1045 0.1729,-0.1087 0.17,-0.1127 0.1672,-0.1166 0.1643,-0.1205 0.1613,-0.1243 0.1581,-0.128 0.155,-0.1317 0.1518,-0.1352 0.1486,-0.139 0.1451,-0.1422 0.1418,-0.1458 0.1382,-0.1489 0.1347,-0.1524 0.1311,-0.1555 0.1274,-0.1587 0.1237,-0.1617 0.1198,-0.1648 0.116,-0.1677 0.112,-0.1705 0.108,-0.1734 0.104,-0.176 0.0998,-0.1788 0.0954,-0.1814 0.0914,-0.1839 0.0869,-0.1864 0.0825,-0.1887 0.078,-0.1912 0.0735,-0.1934 0.0688,-0.1956 0.0642,-0.1977 0.0594,-0.1999 0.0546,-0.2018 0.0498,-0.2037 0.0447,-0.2056 0.0398,-0.2075 0.0346,-0.2092 0.0295,-0.2109 0.0244,-0.2124 0.0189,-0.214 0.0137,-0.2154 0.0082,-0.2169 0.0029,-0.2183 -10e-4,-0.1297 -0.0031,-0.1296 -0.005,-0.1294 -0.0071,-0.1292 -0.0089,-0.1291 -0.0111,-0.1288 -0.0129,-0.1286 -0.0151,-0.1284 -0.0169,-0.1279 -0.0188,-0.1278 -0.0208,-0.1273 -0.0227,-0.1269 -0.0247,-0.1265 -0.0266,-0.1262 -0.0285,-0.1257 -0.0303,-0.1254 -0.0323,-0.1247 -0.0342,-0.1242 -0.0361,-0.1238 -0.0379,-0.1231 -0.0398,-0.1227 -0.0416,-0.1219 -0.0435,-0.1214 -0.0453,-0.1207 -0.0471,-0.1199 -0.049,-0.1194 -0.0508,-0.1186 -0.0526,-0.1177 -0.0543,-0.1172 -0.0562,-0.1161 -0.0579,-0.1154 -0.0597,-0.1147 -0.0615,-0.1137 -0.0633,-0.1129 -0.065,-0.1119 -0.0667,-0.111 -0.0684,-0.1099 -0.0701,-0.1091 0.2209,-0.0714 0.2187,-0.0758 0.2163,-0.0799 0.2141,-0.084 0.2116,-0.0881 0.2092,-0.0921 0.2066,-0.0962 0.2043,-0.1 0.2016,-0.1038 0.199,-0.1077 0.1965,-0.1115 0.1936,-0.1152 0.1909,-0.1188 0.1883,-0.1224 0.1854,-0.126 0.1826,-0.1295 0.1797,-0.133 0.1768,-0.1364 0.1737,-0.1396 0.1708,-0.143 0.1677,-0.1463 0.1646,-0.1494 0.1615,-0.1525 0.1584,-0.1557 0.1551,-0.1588 0.1517,-0.1617 0.1486,-0.1646 0.1452,-0.1676 0.1419,-0.1702 0.1384,-0.1732 0.1349,-0.1758 0.1314,-0.1786 0.1279,-0.1811 0.1243,-0.1837 0.1207,-0.1863 0.117,-0.1886 0.1133,-0.1912 0.1096,-0.1935 0.1057,-0.1958 0.1019,-0.1981 0.098,-0.2003 0.0941,-0.2024 0.0902,-0.2046 0.0862,-0.2066 0.0821,-0.2085 0.0781,-0.2106 0.074,-0.2125 0.0697,-0.2142 0.0655,-0.2161 0.0613,-0.2178 0.0571,-0.2195 0.0527,-0.2212 0.0484,-0.2228 0.0439,-0.2242 0.0396,-0.2257 0.0348,-0.2273 0.0305,-0.2286 0.026,-0.2298 0.0213,-0.2312 0.0165,-0.2325 0.012,-0.2335 0.0071,-0.2348 0.0024,-0.2357 -0.0028,-0.2464 -0.0083,-0.2455 -0.014,-0.2446 -0.0193,-0.2435 -0.0247,-0.2422 -0.0301,-0.2411 -0.0353,-0.2398 -0.0406,-0.2383 -0.0458,-0.2371 -0.0508,-0.2355 -0.0559,-0.2339 -0.0609,-0.2323 -0.0658,-0.2306 -0.0706,-0.2289 -0.0756,-0.2271 -0.0803,-0.225 -0.0849,-0.2231 -0.0896,-0.2211 -0.0941,-0.2189 -0.0987,-0.2168 -0.1032,-0.2145 -0.1076,-0.2123 -0.1118,-0.2098 -0.1163,-0.2073 -0.1205,-0.2048 -0.1246,-0.2022 -0.1287,-0.1995 -0.1328,-0.1968 -0.1367,-0.194 -0.1408,-0.1911 -0.1446,-0.1881 -0.1484,-0.1852 -0.1522,-0.182 -0.1559,-0.179 -0.1596,-0.1756 -0.1632,-0.1723 -0.1667,-0.1691 -0.1701,-0.1656 -0.1736,-0.162 -0.177,-0.1586 -0.1802,-0.1549 -0.1834,-0.1512 -0.1867,-0.1473 -0.1898,-0.1436 -0.1929,-0.1396 -0.1959,-0.1356 -0.1989,-0.1316 -0.2017,-0.1275 -0.2045,-0.1232 -0.2074,-0.119 -0.21,-0.1147 -0.2127,-0.1103 -0.2153,-0.1058 -0.2179,-0.1012 -0.2203,-0.0967 -0.2228,-0.0919 -0.2252,-0.0872 -0.2274,-0.0825 -0.2298,-0.0775 -0.2319,-0.0725 -0.2341,-0.0676 -0.2361,-0.0624 -0.2382,-0.0573 0.013,-0.1598 0.0097,-0.158 0.0066,-0.1562 0.0038,-0.1547 0.0012,-0.1534 L 20.3424,9.90751 20.3321,9.64281 20.3152,9.37985 20.2916,9.11873 20.2614,8.85953 20.2246,8.60235 20.1817,8.34724 20.1324,8.09431 20.0767,7.84365 20.015,7.59532 19.9473,7.34942 19.8735,7.10604 19.7939,6.86526 19.7085,6.62714 19.6173,6.3918 19.5205,6.1593 19.4181,5.92974 19.3104,5.7032 19.1972,5.47975 19.0787,5.2595 18.9551,5.04251 18.8263,4.82889 18.6924,4.6187 18.5536,4.41203 18.4101,4.20898 18.2616,4.00962 18.1083,3.81402 17.9506,3.62231 17.7883,3.43452 17.6216,3.25077 17.4504,3.07114 17.2749,2.8957 17.0954,2.72455 16.9116,2.55776 16.7239,2.39543 16.5322,2.23763 16.3366,2.08445 16.1373,1.93598 15.9343,1.79229 15.7277,1.65349 15.5175,1.51963 15.3039,1.39083 15.0869,1.26715 14.8667,1.14867 14.6433,1.0355 14.4168,0.9277 14.1873,0.825369 13.9548,0.728585 13.7196,0.637433 13.4815,0.552 13.2407,0.472367 12.9974,0.398621 12.7515,0.330845 12.5033,0.269123 12.2526,0.21354 11.9998,0.16418 11.7447,0.121129 11.4876,0.0844685 11.2284,0.0542848 10.9674,0.0306617 10.7045,0.0136837 10.4398,0.00343497 10.1735,0 9.9072,0.00343497 9.64256,0.0136837 9.37966,0.0306617 9.11859,0.0542848 8.85945,0.0844685 8.6023,0.121129 8.34724,0.16418 8.09436,0.21354 7.84372,0.269123 7.59543,0.330845 7.34957,0.398621 7.10621,0.472367 6.86545,0.552 6.62736,0.637433 6.39205,0.728585 6.15956,0.825369 5.93002,0.9277 5.7035,1.0355 5.48007,1.14867 5.25982,1.26715 5.04284,1.39083 4.82922,1.51963 4.61903,1.65349 4.41237,1.79229 4.20932,1.93598 4.00996,2.08445 3.81436,2.23763 3.62264,2.39543 3.43486,2.55776 3.2511,2.72455 3.07146,2.8957 2.89602,3.07114 2.72486,3.25077 2.55806,3.43452 2.39572,3.62231 2.23791,3.81402 2.08472,4.00962 1.93623,4.20898 1.79254,4.41203 1.65372,4.6187 1.51985,4.82889 1.39103,5.04251 1.26733,5.2595 1.14885,5.47975 1.03566,5.7032 0.92785,5.92974 0.825504,6.1593 0.728707,6.3918 0.637542,6.62714 0.552096,6.86526 0.472452,7.10604 0.398694,7.34942 0.330906,7.59532 0.269174,7.84365 0.213581,8.09431 0.164212,8.34724 0.121152,8.60235 0.0844854,8.85953 0.0542958,9.11873 0.0306681,9.37985 0.0136865,9.64281 0.00343571,9.90751 0,10.1739 0.0021573,10.2591 0.0066096,10.3673 0,47.2415 0.00164799,47.3794 0.00654497,47.5203 0.0146204,47.665 0.0258039,47.8142 0.0400248,47.9686 0.0258039,48.1257 0.0146204,48.2787 0.00654497,48.4284 0.00164799,48.5753 0,48.7201 l 0.00252997,0.1961 0.00754843,0.1948 0.0125048,0.1936 0.0173989,0.1921 0.0222308,0.1908 0.0270004,0.1894 0.0317077,0.1878 0.036354,0.1861 0.040937,0.1846 0.045457,0.1828 0.049917,0.181 0.054313,0.1792 0.058648,0.1772 0.062919,0.1754 0.067131,0.1732 0.071278,0.1712 0.075363,0.169 0.079387,0.1668 0.083349,0.1645 0.087248,0.1622 0.091088,0.1597 0.09486,0.1573 0.09857,0.1548 0.10222,0.1522 0.10582,0.1494 0.10932,0.1469 0.11281,0.1439 0.1162,0.1413 0.11954,0.1382 0.12283,0.1354 0.12603,0.1323 0.12918,0.1291 0.13228,0.1261 0.13532,0.1227 0.13827,0.1196 0.14118,0.1162 0.14401,0.1128 0.1468,0.1093 0.14952,0.1059 0.15217,0.1022 0.15477,0.0986 0.1573,0.0948 0.15977,0.0911 0.16217,0.0872 0.16451,0.0834 0.16681,0.0794 0.16901,0.0753 0.17119,0.0714 0.17327,0.067 0.17531,0.063 0.17727,0.0587 0.1792,0.0542 0.18103,0.05 0.18283,0.0455 0.18454,0.0409 0.18621,0.0363 0.18779,0.0317 0.18935,0.0271 0.1908,0.0222 0.19223,0.0173 0.19358,0.0126 0.19486,0.0075 0.19608,0.0026 0.19613,-0.0026 0.19491,-0.0075 0.1936,-0.0126 0.19226,-0.0173 0.19084,-0.0222 0.18936,-0.0271 0.18784,-0.0317 0.18623,-0.0363 0.18455,-0.0409 0.18284,-0.0455 0.18106,-0.05 0.1792,-0.0542 0.1773,-0.0587 0.17536,-0.063 0.1732,-0.067 0.1712,-0.0714 0.1691,-0.0753 0.1668,-0.0794 0.1645,-0.0834 0.1622,-0.0872 0.1597,-0.0911 0.1573,-0.0948 0.1548,-0.0986 0.1522,-0.1022 0.1495,-0.1059 0.1468,-0.1093 0.144,-0.1128 0.1411,-0.1162 0.1383,-0.1196 0.1353,-0.1227 0.1323,-0.1261 0.1291,-0.1291 0.1261,-0.1323 0.1228,-0.1354 0.1196,-0.1382 0.1161,-0.1413 0.1128,-0.1439 0.1094,-0.1469 0.1057,-0.1494 0.1022,-0.1522 0.0986,-0.1548 0.0948,-0.1573 0.0911,-0.1597 0.0873,-0.1622 0.0833,-0.1645 0.0793,-0.1668 0.0754,-0.169 0.0713,-0.1712 0.067,-0.1732 0.063,-0.1754 0.0586,-0.1772 0.0543,-0.1792 0.05,-0.181 0.0454,-0.1828 0.0409,-0.1846 0.0363,-0.1861 0.0317,-0.1878 0.0271,-0.1894 0.0221,-0.1908 0.0175,-0.1921 0.0125,-0.1936 0.0075,-0.1948 z"
         style="fill:url(#Grad212);fill-rule:evenodd;stroke:none"
         transform="rotate(-90,14.5285,14.5285)"
         id="path3764" />
      <path
         d="M 13.8359,48.1473 13.8346,48.0148 13.831,47.8829 13.8247,47.7513 13.816,47.6202 13.805,47.4895 13.7914,47.3593 13.7755,47.2296 13.757,47.1004 13.7362,46.9719 13.713,46.8438 l -0.0256,-0.1274 -0.0282,-0.1268 -0.0303,-0.1262 -0.033,-0.1255 -0.0351,-0.1248 -0.0376,-0.124 -0.04,-0.1234 -0.0422,-0.1225 -0.0447,-0.1218 -0.047,-0.1209 -0.0492,-0.1201 -0.0516,-0.1193 -0.054,-0.1184 -0.0563,-0.1174 -0.0585,-0.1165 -0.0609,-0.1157 -0.0631,-0.1145 -0.0655,-0.1136 -0.0677,-0.1126 0.1431,0.012 0.1421,0.0095 0.1412,0.007 0.1406,0.0043 0.1399,0.0014 0.2072,-0.0026 0.2059,-0.008 0.2045,-0.0132 0.2031,-0.0184 0.2015,-0.0235 0.2002,-0.0285 0.1984,-0.0335 0.1968,-0.0385 0.195,-0.0432 0.1931,-0.0481 0.1913,-0.0527 0.1894,-0.0574 0.1873,-0.062 0.1853,-0.0666 0.1831,-0.0708 0.1809,-0.0754 0.1786,-0.0796 0.1762,-0.084 0.1738,-0.0881 0.1714,-0.0922 0.1689,-0.0962 0.1662,-0.1003 0.1636,-0.1042 0.1608,-0.1079 0.1579,-0.1119 0.1552,-0.1156 0.1521,-0.1192 0.1492,-0.1227 0.1462,-0.1264 0.143,-0.1298 0.1397,-0.1332 0.1366,-0.1366 0.1332,-0.1398 0.1297,-0.1429 0.1264,-0.1462 0.1229,-0.1492 0.119,-0.1521 0.1156,-0.1552 0.1119,-0.1581 0.108,-0.1608 0.1042,-0.1635 0.1003,-0.1662 0.0962,-0.169 0.0922,-0.1713 0.0881,-0.1738 0.0839,-0.1764 0.0796,-0.1786 0.0754,-0.1809 0.0708,-0.1831 0.0666,-0.1853 0.062,-0.1873 0.0574,-0.1893 0.0527,-0.1913 0.0481,-0.1933 0.0432,-0.195 0.0385,-0.1968 0.0335,-0.1984 0.0285,-0.2002 0.0235,-0.2017 0.0184,-0.203 0.0132,-0.2047 0.008,-0.2059 0.0027,-0.2072 L 21.4444,36.537 21.4411,36.4046 21.4354,36.2724 21.4277,36.1404 21.4178,36.009 21.4057,35.8778 21.3914,35.747 21.375,35.6167 21.3564,35.4868 21.3355,35.3574 21.3127,35.2284 21.2877,35.1 21.2606,34.9721 21.2314,34.8447 21.2,34.7179 21.1666,34.5917 21.1311,34.4662 21.0936,34.3413 21.0539,34.217 21.0122,34.0934 20.9685,33.9707 20.9227,33.8485 20.875,33.7271 l -0.0499,-0.1206 -0.0517,-0.1197 -0.0539,-0.119 -0.0558,-0.1181 -0.0578,-0.1172 -0.0597,-0.1163 -0.0617,-0.1156 -0.0637,-0.1144 -0.0656,-0.1135 -0.0674,-0.1126 -0.0694,-0.1115 -0.0714,-0.1105 -0.0733,-0.1094 -0.0751,-0.1085 -0.077,-0.1072 -0.079,-0.1063 -0.0808,-0.105 -0.0826,-0.1038 0.2276,-0.0554 0.2254,-0.0602 0.2233,-0.0649 0.221,-0.0695 0.2188,-0.0741 0.2165,-0.0784 0.2141,-0.083 0.2116,-0.0874 0.2092,-0.0916 0.2067,-0.0959 0.2042,-0.1 0.2015,-0.1043 0.1989,-0.1084 0.196,-0.1122 0.1934,-0.1163 0.1906,-0.1202 0.1876,-0.124 0.1849,-0.1277 0.1817,-0.1315 0.1789,-0.1353 0.1757,-0.1386 0.1727,-0.1424 0.1696,-0.1458 0.1662,-0.1492 0.163,-0.1525 0.1597,-0.1559 0.1563,-0.1591 0.153,-0.1623 0.1495,-0.1654 0.146,-0.1685 0.1425,-0.1715 0.1388,-0.1745 0.1351,-0.1773 0.1316,-0.1802 0.1277,-0.1828 0.1238,-0.1857 0.1201,-0.1883 0.1163,-0.1909 0.1121,-0.1934 0.1083,-0.196 0.1042,-0.1983 0.1,-0.2006 0.096,-0.2029 0.0918,-0.2053 0.0874,-0.2073 0.0832,-0.2095 0.0788,-0.2116 0.0744,-0.2135 0.07,-0.2155 0.0655,-0.2173 0.061,-0.2192 0.0564,-0.2209 0.0518,-0.2227 0.047,-0.2243 0.0423,-0.2258 0.0375,-0.2275 0.0327,-0.2287 0.0278,-0.2304 0.0227,-0.2316 0.0179,-0.2329 0.0128,-0.234 0.0078,-0.2354 0.0025,-0.2363 -0.0028,-0.2444 -0.0084,-0.243 -0.0141,-0.242 -0.0196,-0.2408 -0.025,-0.2394 -0.0303,-0.2381 -0.0358,-0.2366 -0.0408,-0.235 -0.0463,-0.2334 -0.0513,-0.2318 -0.0564,-0.2301 -0.0615,-0.2283 -0.0664,-0.2265 -0.0714,-0.2244 -0.0762,-0.2224 -0.0809,-0.2205 -0.0859,-0.2182 -0.0903,-0.2161 -0.095,-0.2137 -0.0996,-0.2115 -0.104,-0.2089 -0.1085,-0.2065 -0.113,-0.2039 L 26.41,15.9089 26.2886,15.7103 26.1629,15.5144 26.0331,15.3214 25.8994,15.1313 25.7614,14.9442 25.6197,14.76 25.4739,14.5791 25.3243,14.4012 25.1709,14.2267 25.0139,14.0553 24.8532,13.8875 24.6889,13.723 24.521,13.5622 24.3498,13.4049 24.175,13.2511 23.9969,13.1012 23.8155,12.9552 23.6308,12.8128 23.4429,12.6745 23.252,12.5402 23.058,12.41 22.861,12.2839 22.661,12.162 22.4582,12.0444 22.2524,11.9312 22.044,11.8223 21.8329,11.718 21.6191,11.6182 21.4027,11.523 21.1839,11.4326 20.9625,11.3468 20.7387,11.266 20.5126,11.19 20.2843,11.119 20.0536,11.053 19.8208,10.9922 19.586,10.9365 19.349,10.8861 19.1101,10.841 l 0.0192,-0.1458 0.0168,-0.1436 0.0143,-0.1414 0.0121,-0.1395 0.0098,-0.1375 L 19.1899,9.99758 19.1951,9.86374 19.1983,9.73158 19.1994,9.60106 19.1962,9.34967 19.1866,9.09986 19.1705,8.85171 19.1481,8.6053 19.1197,8.36068 19.0851,8.11797 19.0445,7.87722 18.9979,7.63854 18.9454,7.40198 18.8872,7.16763 18.8233,6.93558 18.7536,6.70589 18.6785,6.47866 18.5979,6.25395 18.5119,6.03186 18.4206,5.81246 18.324,5.59582 18.2223,5.38203 18.1156,5.17117 18.0037,4.96332 17.887,4.75854 17.7655,4.55695 17.6392,4.35859 17.5082,4.16357 17.3726,3.97194 17.2326,3.7838 17.088,3.59923 16.9391,3.4183 16.7859,3.24109 16.6285,3.06769 16.4671,2.89817 16.3015,2.73262 16.132,2.5711 15.9586,2.4137 15.7814,2.26052 15.6005,2.11161 15.416,1.96705 15.2279,1.82694 15.0362,1.69135 14.8412,1.56036 14.643,1.43405 14.4414,1.3125 14.2367,1.19577 14.0289,1.08397 13.818,0.977173 13.6043,0.875448 13.3876,0.778879 13.1683,0.687547 12.9462,0.60153 12.7216,0.520907 12.4945,0.445761 12.2647,0.376168 12.0328,0.312209 11.7985,0.253964 11.562,0.201512 11.3233,0.154933 11.0827,0.114306 10.84,0.0797106 10.5955,0.051227 10.3491,0.0289345 10.101,0.0129128 9.85127,0.00324148 9.59995,0 9.34864,0.00324148 9.09891,0.0129128 8.85082,0.0289345 8.60446,0.051227 8.35992,0.0797106 8.11726,0.114306 7.87659,0.154933 7.63794,0.201512 7.40144,0.253964 7.16714,0.312209 6.93514,0.376168 6.7055,0.445761 6.4783,0.520907 6.25364,0.60153 6.03158,0.687547 5.81221,0.778879 5.5956,0.875448 5.38184,0.977173 5.17101,1.08397 4.96319,1.19577 4.75843,1.3125 4.55687,1.43405 4.35853,1.56036 4.16352,1.69135 3.97192,1.82694 3.78379,1.96705 3.59923,2.11161 3.41831,2.26052 3.24112,2.4137 3.06772,2.5711 2.89821,2.73262 2.73267,2.89817 2.57116,3.06769 2.41376,3.24109 2.26058,3.4183 2.11167,3.59923 1.96713,3.7838 1.82702,3.97194 1.69142,4.16357 1.56043,4.35859 1.43411,4.55695 1.31256,4.75854 1.19584,4.96332 1.08404,5.17117 0.977233,5.38203 0.875504,5.59582 0.778932,5.81246 0.687595,6.03186 0.601574,6.25395 0.520948,6.47866 0.445797,6.70589 0.376199,6.93558 0.312236,7.16763 0.253986,7.40198 0.20153,7.63854 0.154947,7.87722 0.114317,8.11797 0.0797185,8.36068 0.0512322,8.6053 0.0289376,8.85171 0.0129143,9.09986 0.00324184,9.34967 0,9.60106 0.0017442,9.66026 0.0051408,9.71856 0.0086904,9.77119 0.0051408,9.83606 0.0017442,9.89635 0,9.95846 V 46.6687 l 0.00174787,0.1372 0.00524362,0.1403 0.00873931,0.1444 0.0122352,0.1491 0.0157308,0.1548 -0.0157308,0.1584 -0.0122352,0.154 -0.00873931,0.15 L 0.00174787,48.0036 0,48.1473 l 0.00275516,0.1967 0.00821644,0.1953 0.0136042,0.1939 0.0189184,0.1924 0.024159,0.1909 0.029326,0.1893 0.0344198,0.1875 0.03944,0.1857 0.044385,0.1838 0.049259,0.182 0.054058,0.1798 0.058783,0.1779 0.063436,0.1758 0.068014,0.1734 0.07252,0.1711 0.07695,0.1688 0.081309,0.1663 0.085593,0.1639 0.089804,0.1612 0.09394,0.1585 0.09801,0.1559 0.10199,0.153 0.10591,0.1501 0.10975,0.1472 0.11353,0.144 0.11722,0.141 0.12085,0.1379 0.12438,0.1346 0.12787,0.1312 0.13126,0.1278 0.13461,0.1244 0.13784,0.1208 0.14103,0.1172 0.14414,0.1135 0.14717,0.1097 0.15014,0.1058 0.15301,0.102 0.15584,0.098 0.15857,0.0939 0.16124,0.0897 0.16383,0.0856 0.16634,0.0813 0.1688,0.077 0.17117,0.0724 0.17346,0.0681 0.17568,0.0634 0.17785,0.0587 0.17992,0.054 0.18192,0.0492 0.18386,0.0444 0.1857,0.0395 0.18749,0.0343 0.18921,0.0294 0.19083,0.0241 0.19241,0.0189 0.19389,0.0136 0.1953,0.0083 0.19665,0.0027 0.19668,-0.0027 0.19534,-0.0083 0.19393,-0.0136 0.19244,-0.0189 0.19087,-0.0241 0.18923,-0.0294 0.18752,-0.0343 0.18574,-0.0395 0.18388,-0.0444 0.18195,-0.0492 0.17994,-0.054 0.17787,-0.0587 0.1757,-0.0634 0.17349,-0.0681 0.17119,-0.0724 0.16882,-0.077 0.16635,-0.0813 0.1639,-0.0856 0.1612,-0.0897 0.1586,-0.0939 0.1559,-0.098 0.153,-0.102 0.1501,-0.1058 0.1472,-0.1097 0.1442,-0.1135 0.141,-0.1172 0.1379,-0.1208 0.1346,-0.1244 0.1313,-0.1278 0.1278,-0.1312 0.1244,-0.1346 0.1209,-0.1379 0.1173,-0.141 0.1134,-0.144 0.1098,-0.1472 0.1059,-0.1501 0.102,-0.153 0.098,-0.1559 0.094,-0.1585 0.0897,-0.1612 0.0857,-0.1639 0.0813,-0.1663 0.077,-0.1688 0.0724,-0.1711 0.0681,-0.1734 0.0634,-0.1758 0.0589,-0.1779 0.0539,-0.1798 0.0494,-0.182 0.0443,-0.1838 0.0394,-0.1857 0.0345,-0.1875 0.0293,-0.1893 0.0242,-0.1909 0.0188,-0.1924 0.0136,-0.1939 0.0082,-0.1953 z"
         style="fill:url(#Grad213);fill-rule:evenodd;stroke:none"
         transform="rotate(-90,14.528166,13.955334)"
         id="path3766" />
      <path
         d="M 0.125827,0.011016 0.122904,0.004131 0.11934,0 0.05967,0.001377 0,0.003672 0.0629595,0.006885 Z"
         style="fill:url(#Grad214);fill-rule:evenodd;stroke:none"
         transform="rotate(90,15.2072,29.1604)"
         id="path3768" />
      <path
         d="M 8.62675,6.60715 8.62509,6.74354 8.62012,6.88282 8.61182,7.02549 8.60019,7.17211 8.58526,7.32319 8.60341,7.50737 8.61638,7.68397 8.62416,7.85369 8.62675,8.0172 v 35.0554 l -0.0021,0.0591 -0.00377,0.0571 -0.00294,0.0637 0.00294,0.0489 0.00377,0.0555 0.0021,0.0572 -0.00287,0.2313 -0.0086,0.2299 -0.01423,0.2284 -0.01981,0.2268 -0.02531,0.2253 -0.03076,0.2235 -0.03612,0.2219 -0.04142,0.22 -0.04666,0.2181 -0.05182,0.2161 -0.05693,0.2142 -0.06195,0.2122 -0.06691,0.2099 -0.0718,0.2077 -0.07664,0.2054 -0.08138,0.203 -0.08607,0.2008 -0.0907,0.1981 -0.09524,0.1956 -0.09973,0.1929 -0.10415,0.1904 -0.10848,0.1875 -0.11278,0.1847 -0.11698,0.1818 -0.12113,0.1788 -0.12519,0.1759 -0.1292,0.1727 -0.13315,0.1695 -0.137,0.1663 -0.14083,0.1631 -0.14454,0.1596 -0.14821,0.1562 -0.1518,0.1527 L 5.73302,50.0836 5.57422,50.229 5.41204,50.3709 5.24653,50.509 5.07775,50.6431 4.9058,50.7734 4.73072,50.8997 4.55261,51.022 4.37149,51.1401 4.18748,51.2541 4.00061,51.3638 3.81095,51.4692 3.6186,51.5703 3.4236,51.6669 3.22602,51.7589 3.02595,51.8464 2.82344,51.9293 2.61855,52.0074 2.41137,52.0808 2.20195,52.1493 1.99037,52.2129 1.77668,52.2714 1.56098,52.325 1.34332,52.3734 1.12376,52.4166 0.902384,52.4545 0.67925,52.4872 0.45443,52.5144 0.22799,52.5362 0,52.5524 l 0.179507,0.0128 0.179668,0.0109 0.180976,0.0045 0.240006,-0.0031 0.238503,-0.0093 0.23693,-0.0153 0.23527,-0.0213 0.23355,-0.0271 0.23173,-0.0331 0.22985,-0.0388 0.2279,-0.0444 0.22586,-0.0502 0.22375,-0.0556 0.22157,-0.0611 0.2193,-0.0664 0.21697,-0.0717 0.21454,-0.077 0.21206,-0.0823 0.2095,-0.0871 0.20684,-0.0923 0.20414,-0.0971 0.20134,-0.1021 0.19847,-0.1067 0.19551,-0.1114 0.1925,-0.1161 0.1894,-0.1206 0.18622,-0.1251 0.18297,-0.1295 0.17965,-0.1338 0.17624,-0.138 0.17277,-0.1422 0.16921,-0.1463 0.16558,-0.1502 0.16187,-0.1543 0.15808,-0.1581 0.15424,-0.1618 0.15029,-0.1656 0.14628,-0.1692 0.1422,-0.1728 0.13803,-0.1763 0.13379,-0.1795 0.12948,-0.183 0.12509,-0.1862 0.12061,-0.1893 0.11607,-0.1926 0.11146,-0.1954 0.10676,-0.1984 0.102,-0.2014 0.09713,-0.2042 0.09222,-0.2067 0.08721,-0.2095 0.08214,-0.212 0.07699,-0.2145 0.07176,-0.217 0.06647,-0.2192 0.06107,-0.2216 0.05562,-0.2237 0.05009,-0.2258 0.04448,-0.2278 0.0388,-0.2298 0.03304,-0.2317 0.02719,-0.2335 0.0213,-0.2353 0.0153,-0.2368 L 9.70457,43.654 9.70767,43.4141 9.70583,43.3569 9.70179,43.3014 9.69898,43.2525 9.70179,43.1888 9.70583,43.1317 9.70767,43.0726 V 8.0172 L 9.70519,7.85369 9.69768,7.68397 9.685,7.50737 9.66703,7.32319 9.68183,7.17211 9.69324,7.02549 9.70129,6.88282 9.70609,6.74354 9.70767,6.60715 9.70474,6.40908 9.69601,6.21245 9.68158,6.01733 9.66151,5.8238 9.63589,5.63197 9.60481,5.44188 9.56834,5.25364 9.52656,5.06732 9.47957,4.88303 9.42746,4.70081 9.37027,4.52077 9.30812,4.34298 9.24108,4.16754 9.16923,3.99451 9.09266,3.82398 9.01144,3.65605 8.92567,3.49077 8.83542,3.32825 8.74078,3.16856 8.64182,3.01177 8.53864,2.85799 8.4313,2.70729 8.31991,2.55975 8.20453,2.41545 8.08525,2.27447 7.96216,2.13691 7.83534,2.00283 7.70486,1.87233 7.57081,1.74549 7.43328,1.62238 7.29235,1.50308 7.14809,1.3877 7.00058,1.27629 6.84993,1.16895 6.69621,1.06576 6.53949,0.966802 6.37986,0.872158 6.21741,0.781908 6.0522,0.696137 5.88434,0.614927 5.71391,0.538358 5.54097,0.466515 5.36562,0.399481 5.18795,0.337334 5.00802,0.280161 4.82593,0.228042 4.64175,0.181059 4.45557,0.139296 4.26746,0.102834 4.07754,0.0717553 3.88585,0.046143 3.69249,0.0260789 3.49754,0.0116455 3.30108,0.00292509 3.10321,0 2.92055,0.00398933 2.74033,0.0139627 2.56159,0.026928 2.74574,0.0446136 2.9284,0.0673128 3.10951,0.0949557 3.28899,0.127472 3.46677,0.164792 3.64278,0.206846 3.81696,0.253563 3.98922,0.304873 4.15951,0.360707 4.32773,0.420994 4.49384,0.485664 4.65775,0.554647 4.8194,0.627873 4.97872,0.705272 5.13562,0.786775 5.29005,0.872311 5.44194,0.961809 5.59121,1.0552 5.73779,1.15241 5.88161,1.25338 6.02259,1.35803 6.16069,1.46629 6.2958,1.5781 6.42787,1.69338 6.55683,1.81206 6.6826,1.93407 6.80512,2.05934 6.92431,2.18781 7.04012,2.31939 7.15244,2.45403 7.26123,2.59166 7.36641,2.7322 l 0.10151,0.14338 0.09775,0.14615 0.09394,0.14885 0.09004,0.15148 0.08607,0.15405 0.08204,0.15654 0.07793,0.15896 0.07377,0.16131 0.06952,0.16359 0.0652,0.1658 0.06081,0.16795 0.05635,0.17002 0.05182,0.17201 0.04724,0.17396 0.04254,0.17581 0.03783,0.1776 0.03299,0.17932 0.02812,0.18098 0.02317,0.18256 0.01814,0.18406 0.01304,0.18551 0.00788,0.18688 z"
         style="fill:url(#Grad215);fill-rule:evenodd;stroke:none"
         transform="rotate(90,18.3494,36.0464)"
         id="path3770" />
      <path
         d="M 6.42955,7.42478 6.41661,7.5601 6.40109,7.69326 6.38213,7.82545 6.35886,7.95784 6.33043,8.09161 6.29597,8.22792 6.25464,8.36796 6.20556,8.51292 6.42922,8.55512 6.65102,8.60231 6.8709,8.6544 7.08881,8.71134 7.3047,8.77307 7.51849,8.83951 7.73015,8.91061 7.9396,8.9863 l 0.20721,0.08021 0.2049,0.08468 0.20253,0.08907 0.20011,0.0934 0.19763,0.09766 0.19511,0.10188 0.19252,0.10601 0.18987,0.11008 0.18717,0.11409 0.18442,0.11803 0.18163,0.12189 0.1787,0.1258 0.1758,0.1294 0.1729,0.1332 0.1698,0.1368 0.1667,0.1403 0.1636,0.1438 0.1603,0.1473 0.1572,0.1506 0.1538,0.1539 0.1504,0.1572 0.147,0.1603 0.1435,0.1634 0.14,0.1665 0.1364,0.1694 0.1328,0.1724 0.129,0.1751 0.1253,0.178 0.1214,0.1807 0.1177,0.1833 0.1135,0.186 0.1097,0.1885 0.1056,0.1909 0.1016,0.1933 0.0975,0.1956 0.0931,0.1979 0.089,0.2001 0.0846,0.2022 0.0801,0.2043 0.0759,0.2062 0.0713,0.2084 0.0668,0.21 0.0622,0.212 0.0575,0.2136 0.0528,0.2154 0.0481,0.2169 0.0432,0.2186 0.0384,0.22 0.0334,0.2214 0.0284,0.2229 0.0234,0.2241 0.0182,0.2252 0.0133,0.2266 0.0078,0.2275 0.0027,0.2287 -0.0025,0.2213 -0.0072,0.2201 -0.012,0.2191 -0.0166,0.218 -0.0215,0.2169 -0.0259,0.2155 -0.0306,0.2142 -0.0351,0.2128 -0.0397,0.2114 -0.0439,0.21 -0.0485,0.2084 -0.0528,0.2067 -0.057,0.2051 -0.0613,0.2036 -0.0656,0.2016 -0.0697,0.1999 -0.0738,0.198 -0.0778,0.1961 -0.0819,0.194 -0.0859,0.192 -0.0899,0.19 -0.0936,0.1879 -0.0976,0.1855 -0.1012,0.1834 -0.1051,0.181 -0.1087,0.1787 -0.1124,0.1762 -0.116,0.1738 -0.1196,0.1712 -0.1231,0.1687 -0.1265,0.166 -0.13,0.1632 -0.1333,0.1605 -0.1367,0.1578 -0.1399,0.1548 -0.1432,0.1519 -0.1464,0.149 -0.1495,0.1459 -0.1526,0.1428 -0.1556,0.1397 -0.1587,0.1364 -0.1616,0.1333 -0.1645,0.1299 -0.1674,0.1266 -0.1702,0.1231 -0.1729,0.1196 -0.17572,0.1161 -0.17838,0.1125 -0.181,0.109 -0.1836,0.1051 -0.18612,0.1015 -0.18863,0.0975 -0.19107,0.0938 -0.19346,0.0898 -0.19583,0.086 -0.19813,0.0817 -0.20039,0.0777 -0.20263,0.0737 -0.20477,0.0694 -0.20689,0.0651 -0.20899,0.0609 -0.211,0.0565 -0.21299,0.052 0.08344,0.1048 0.08141,0.1061 0.07936,0.1074 0.07731,0.1086 0.07524,0.1097 0.07317,0.1109 0.07108,0.112 0.06897,0.1133 0.06688,0.1143 0.06475,0.1153 0.06263,0.1164 0.06048,0.1174 0.05834,0.1182 0.05617,0.1193 0.05402,0.1202 0.05182,0.1212 0.04964,0.122 0.04743,0.1229 0.04522,0.1237 0.043,0.1244 0.04077,0.1253 0.03852,0.1259 0.03627,0.1267 0.034,0.1274 0.03174,0.128 0.02944,0.1287 0.02715,0.1292 0.02484,0.1299 0.02253,0.1304 0.0202,0.1309 0.01786,0.1315 0.01552,0.1319 0.01315,0.1323 0.01079,0.1327 0.00841,0.1332 0.00603,0.1335 0.00361,0.1339 L 8.3904,32.6906 8.3878,32.8907 8.38007,33.0894 8.36726,33.2863 8.34943,33.4818 8.32664,33.6754 8.29896,33.8673 8.26647,34.0574 8.2292,34.2457 8.18721,34.432 8.1406,34.6162 8.08942,34.7984 8.0337,34.9785 7.97354,35.1565 7.90899,35.3321 7.84011,35.5054 7.76697,35.6764 7.68962,35.845 7.60814,36.0111 7.52257,36.1747 7.433,36.3355 7.33946,36.4939 7.24205,36.6495 7.1408,36.8023 7.0358,36.9522 6.92709,37.0992 6.81474,37.2433 6.69882,37.3843 6.57938,37.5222 6.4565,37.6571 6.33022,37.7887 6.20062,37.9171 6.06777,38.042 5.93171,38.1637 5.79251,38.2819 5.65024,38.3966 5.50495,38.5078 5.35673,38.6152 5.20561,38.719 5.05167,38.8192 4.89496,38.9155 4.73556,39.0079 4.57352,39.0964 4.40891,39.1809 4.2418,39.2614 4.07222,39.3378 3.90028,39.41 3.72599,39.4779 3.54945,39.5416 3.37072,39.6009 3.18985,39.6559 3.00692,39.7064 2.82197,39.7523 2.63508,39.7937 2.4463,39.8304 2.2557,39.8625 2.06335,39.8898 1.86928,39.9122 1.6736,39.9298 1.47634,39.9424 1.27757,39.95 1.07736,39.9526 0.913387,39.9505 0.748721,39.9443 0.582953,39.934 0.41567,39.9195 l 0.062127,0.1029 0.061819,0.1055 0.061395,0.108 0.060854,0.1104 0.060195,0.1127 0.059417,0.1146 0.058525,0.1166 0.057513,0.1183 0.056385,0.1201 0.05514,0.1215 0.05377,0.1228 0.0523,0.1241 0.05069,0.125 0.04898,0.1261 0.04715,0.1267 0.04519,0.1272 0.04314,0.1278 0.04094,0.1282 0.03863,0.1283 0.03623,0.1282 0.03367,0.1282 0.03103,0.1278 0.02825,0.1274 0.02537,0.1269 0.02235,0.1262 0.01923,0.1252 0.01599,0.1244 0.01263,0.123 0.00915,0.1219 0.00556,0.1203 0.00382,0.206 -0.00147,0.2036 -0.00651,0.201 L 1.6538,44.3747 1.6379,44.5701 1.61768,44.7627 1.59334,44.9523 1.56517,45.1388 1.53338,45.322 1.49821,45.5021 1.45991,45.6787 1.41871,45.8519 1.37486,46.0215 1.32859,46.1874 1.28014,46.3496 1.22975,46.5078 1.17766,46.6622 1.12411,46.8124 1.06933,46.9585 1.01358,47.1003 0.957077,47.2377 0.900073,47.3708 0.842805,47.4992 0.785509,47.6229 0.728428,47.742 0.671799,47.8561 0.615862,47.9654 0.560856,48.0695 0.50702,48.1686 0.454594,48.2623 0.403816,48.3508 0.354926,48.4338 0.308163,48.5113 0.263767,48.5831 0.221976,48.6492 0.18303,48.7096 0.147168,48.7639 0.114629,48.8121 0.0856526,48.8544 0.0604777,48.8904 0.0393436,48.92 0.0224897,48.9432 0.0101549,48.96 0.00257859,48.97 0,48.9735 0.104706,48.8879 0.207619,48.8004 0.308707,48.7107 0.407937,48.619 0.505279,48.5254 0.600698,48.4298 0.694162,48.3322 0.78564,48.2327 0.8751,48.1315 0.962507,48.0283 1.04783,47.9234 1.13104,47.8168 1.2121,47.7083 1.29098,47.5982 1.36764,47.4864 1.44207,47.3731 1.51421,47.258 l 0.06983,-0.1165 0.06749,-0.1181 0.06512,-0.1195 0.0627,-0.121 0.06027,-0.1226 0.0578,-0.1238 0.05529,-0.1252 0.05275,-0.1266 0.05019,-0.1279 0.04759,-0.1291 0.04495,-0.1305 0.04229,-0.1316 0.03959,-0.1327 0.03685,-0.1339 0.0341,-0.135 0.0313,-0.1361 0.02847,-0.1371 0.02562,-0.1381 0.02272,-0.1391 0.01979,-0.14 L 2.44576,44.5327 2.45962,44.3908 2.47044,44.2482 2.47822,44.1048 2.48291,43.9604 2.48448,43.8155 2.4832,43.6846 2.4794,43.5541 2.47306,43.424 2.46419,43.2943 2.45282,43.1652 2.43894,43.0366 2.42258,42.9085 2.40372,42.781 2.38238,42.6541 2.35856,42.5278 2.3323,42.4021 2.30357,42.277 2.27239,42.1526 2.23879,42.029 2.20275,41.906 2.16429,41.7838 2.12342,41.6624 2.08015,41.5418 2.03447,41.422 1.98642,41.303 1.93598,41.1849 1.88317,41.0678 1.82801,40.9515 1.77048,40.8362 1.71061,40.7217 1.64841,40.6084 1.58388,40.496 1.51703,40.3847 l 0.17056,0.0134 0.16903,0.0104 0.16794,0.0068 0.16726,0.0024 0.19776,-0.0026 0.19652,-0.0076 0.19524,-0.0126 0.19389,-0.0176 0.19245,-0.0224 0.19096,-0.0272 0.18943,-0.032 0.18782,-0.0366 0.18614,-0.0414 0.1844,-0.0458 0.18261,-0.0504 0.18075,-0.0547 0.17883,-0.0593 0.17684,-0.0634 0.17479,-0.0678 0.17268,-0.0718 0.1705,-0.076 0.16827,-0.0802 0.16596,-0.0841 0.1636,-0.088 0.16117,-0.0919 0.1587,-0.0956 L 6.31726,39.1892 6.47077,39.086 6.62162,38.9793 6.76972,38.869 6.91502,38.7551 7.05745,38.638 7.19696,38.5173 7.33347,38.3935 7.46693,38.2663 7.59727,38.1359 7.72443,38.0025 7.84835,37.8659 7.96896,37.7265 8.08621,37.584 8.20003,37.4387 8.31035,37.2906 8.41711,37.1397 8.52025,36.9862 8.61971,36.83 8.71543,36.6714 8.80734,36.5102 8.89537,36.3466 8.97947,36.1806 9.05958,36.0123 9.13563,35.8417 9.20755,35.669 9.27529,35.4942 9.33878,35.3173 9.39797,35.1383 9.45277,34.9576 9.50315,34.7749 9.54901,34.5905 9.59032,34.4043 9.627,34.2164 9.65901,34.0268 9.68626,33.8358 9.70869,33.6432 9.72625,33.4493 9.73887,33.254 9.74648,33.0574 9.74904,32.8595 9.74786,32.7262 9.74435,32.5933 9.7385,32.4606 9.73033,32.3283 9.71986,32.1963 9.70708,32.0648 9.69201,31.9337 9.67467,31.8029 9.65506,31.6728 9.63317,31.5431 9.60906,31.414 9.5827,31.2853 9.5541,31.1573 9.5233,31.0299 9.49028,30.9031 9.45507,30.7769 9.41766,30.6514 9.37809,30.5266 9.33635,30.4026 9.29245,30.2793 9.2464,30.1568 9.19823,30.035 9.14792,29.9142 9.0955,29.7941 9.04098,29.675 8.98436,29.5568 8.92565,29.4395 8.86487,29.3231 8.80203,29.2078 8.73713,29.0935 8.67019,28.9802 8.60122,28.8679 8.53023,28.7568 8.45723,28.6467 8.38221,28.5378 8.30522,28.4301 8.22623,28.3235 8.14528,28.2182 8.06237,28.1141 l 0.21717,-0.053 0.21514,-0.0576 0.21308,-0.0619 0.21096,-0.0663 0.20879,-0.0707 0.20659,-0.075 0.20434,-0.0792 0.20202,-0.0833 0.19968,-0.0876 0.19726,-0.0915 0.1948,-0.0956 0.1924,-0.0995 0.1898,-0.1033 0.1872,-0.1073 0.1845,-0.111 0.1819,-0.1147 0.1792,-0.1184 0.1763,-0.122 0.1736,-0.1255 0.1707,-0.129 0.1677,-0.1325 0.1648,-0.1358 0.1617,-0.1392 0.1588,-0.1425 0.1556,-0.1456 0.1525,-0.1489 0.1492,-0.1519 0.146,-0.1548 0.1427,-0.158 0.1394,-0.1609 0.1359,-0.1636 0.1326,-0.1666 0.129,-0.1693 0.1255,-0.172 0.122,-0.1746 0.1182,-0.1773 0.1147,-0.1796 0.1109,-0.1823 0.1071,-0.1847 0.1033,-0.187 0.0994,-0.1893 0.0956,-0.1915 0.0915,-0.1938 0.0877,-0.1959 0.0834,-0.198 0.0795,-0.2 0.0752,-0.2019 0.071,-0.2038 0.0669,-0.2058 0.0625,-0.2074 0.0583,-0.2093 0.0537,-0.2109 0.0495,-0.2126 0.0449,-0.2141 0.0403,-0.2157 0.0358,-0.2171 0.0312,-0.2185 0.0265,-0.2198 0.0218,-0.2211 0.0171,-0.2224 0.0122,-0.2235 0.0074,-0.2246 0.0024,-0.2257 -0.0027,-0.2332 -0.008,-0.232 -0.0134,-0.231 -0.0187,-0.2299 -0.0239,-0.2285 -0.0289,-0.2272 -0.0341,-0.2258 -0.0391,-0.2244 -0.044,-0.2229 -0.0491,-0.2213 -0.0537,-0.2195 -0.0588,-0.2179 -0.0634,-0.2162 -0.0681,-0.2143 -0.0727,-0.2124 -0.0772,-0.2102 -0.0819,-0.2084 -0.0862,-0.2062 -0.0907,-0.204 -0.0949,-0.2019 -0.0994,-0.1995 -0.1036,-0.1971 -0.1077,-0.1947 -0.1117,-0.1922 -0.1159,-0.1896 -0.12,-0.187 -0.1237,-0.1842 -0.1278,-0.1815 -0.1316,-0.1787 -0.1354,-0.1757 -0.139,-0.1728 -0.1428,-0.1697 -0.1463,-0.1667 -0.15,-0.1635 L 13.0015,11.1115 12.8447,10.9546 12.6844,10.801 12.5209,10.6508 12.3541,10.5041 12.1841,10.361 12.0109,10.2215 11.8347,10.0857 11.6554,9.95367 11.4731,9.82545 11.2879,9.70112 11.0998,9.58074 10.909,9.46438 10.7153,9.35212 10.519,9.244 10.32,9.1401 10.1185,9.04049 9.91438,8.94522 9.70783,8.85437 9.49885,8.768 9.28753,8.68619 9.0739,8.60898 8.85804,8.53646 8.63998,8.46867 8.4198,8.4057 8.19754,8.34761 7.97327,8.29446 7.74704,8.24632 7.51891,8.20325 7.537,8.06369 7.55292,7.92644 7.56669,7.79135 7.57831,7.65829 7.5878,7.52711 7.59516,7.39767 7.6004,7.26984 7.60355,7.14347 7.60459,7.01842 7.60349,6.87559 7.60022,6.73327 7.59477,6.59148 7.58717,6.45026 7.57744,6.30959 7.56559,6.1695 7.55164,6.03001 7.5356,5.89112 7.5175,5.75287 7.49734,5.61527 7.47514,5.47833 7.45092,5.34207 7.42469,5.2065 7.39647,5.07164 7.36628,4.93751 7.33412,4.80411 7.30003,4.67148 7.26401,4.53962 7.22608,4.40855 7.18625,4.2783 7.14455,4.14886 7.10099,4.02026 7.05558,3.89253 7.00833,3.76565 6.95927,3.63967 6.90843,3.51459 6.85578,3.39043 6.80139,3.26721 6.74523,3.14495 6.68734,3.02365 6.62774,2.90333 6.56643,2.78401 6.50343,2.66573 6.43877,2.54845 6.37245,2.43225 6.30449,2.31709 6.23491,2.20303 6.16372,2.09007 6.09094,1.9782 6.0166,1.86748 5.94068,1.75791 5.86324,1.64949 5.78426,1.54225 5.70377,1.43622 5.6218,1.33138 5.53833,1.22778 5.45341,1.12543 5.36704,1.02433 5.27923,0.924504 5.19003,0.825974 5.09942,0.728751 5.00742,0.632852 4.91407,0.538294 4.81935,0.445093 4.72331,0.353264 4.62595,0.262823 4.52728,0.17379 4.42733,0.086176 4.32611,0 4.32803,0.00238454 4.33368,0.00950842 4.34295,0.0213271 4.35569,0.037796 4.37177,0.0588707 4.39105,0.0845064 4.4134,0.114659 4.43869,0.149283 4.46678,0.188334 4.49753,0.231769 4.53082,0.279542 4.5665,0.33161 4.60443,0.387925 4.6445,0.448445 4.68656,0.513127 4.73048,0.581923 4.77612,0.65479 4.82336,0.731684 4.87203,0.81256 4.92203,0.897373 4.97322,0.986079 5.02545,1.07863 5.07861,1.17499 5.13254,1.2751 5.1871,1.37893 5.2422,1.48644 5.29766,1.59756 5.35336,1.71228 5.40917,1.83052 5.46495,1.95226 5.52057,2.07743 5.5759,2.20602 5.63079,2.33796 5.68511,2.47321 5.73874,2.61175 5.79153,2.7535 l 0.05182,0.14492 0.05071,0.14807 0.04948,0.15116 0.0481,0.1542 0.04658,0.1572 0.04495,0.16016 0.04317,0.16307 0.04125,0.16594 0.03922,0.16877 0.03702,0.17154 0.0347,0.17428 0.03227,0.17697 0.02967,0.17961 0.02694,0.18222 0.0241,0.18476 0.0211,0.18728 L 6.43059,5.6134 6.4453,5.80557 6.45662,6.00012 6.46442,6.197 6.46856,6.39617 6.46889,6.59758 6.46529,6.80119 6.45763,7.00696 6.44576,7.21484 Z"
         style="fill:url(#Grad216);fill-rule:evenodd;stroke:none"
         transform="rotate(-90,10.81152,7.19338)"
         id="path3772" />
      <path
         d="M 6.3446,4.66222 6.34107,4.84503 6.33053,5.02601 6.31313,5.20502 6.28901,5.38194 6.25829,5.55664 6.22109,5.72901 6.17756,5.89888 6.12782,6.06617 6.07201,6.23074 6.01024,6.39245 5.94265,6.55119 5.8694,6.70682 5.79057,6.85923 5.70634,7.00828 5.6168,7.15385 5.52211,7.29582 5.42238,7.43405 5.31775,7.56842 5.20836,7.6988 5.09434,7.82508 4.97579,7.94711 4.85288,8.06479 4.72572,8.17797 4.59443,8.28653 4.45918,8.39035 4.32006,8.48931 4.17722,8.58326 4.03079,8.6721 3.8809,8.75569 3.72767,8.8339 3.57125,8.90661 3.41177,8.97369 3.24933,9.03503 3.0841,9.09049 2.91618,9.13994 2.74573,9.18326 2.57285,9.22032 2.39769,9.25099 2.5338,9.31736 2.66784,9.38722 2.79977,9.4605 2.9295,9.53715 3.057,9.6171 3.18219,9.70031 3.30503,9.7867 l 0.12042,0.08952 0.11792,0.09261 0.1154,0.09557 0.11278,0.0986 0.11012,0.1015 0.10739,0.1043 0.10462,0.107 0.10178,0.1099 0.09887,0.1124 0.0959,0.1151 0.09289,0.1176 0.08979,0.1201 0.08666,0.1225 0.08344,0.1249 0.08019,0.1272 0.07686,0.1294 0.07347,0.1317 0.07004,0.1337 0.06652,0.1359 0.06295,0.1378 0.05934,0.1398 0.05564,0.1417 0.0519,0.1436 0.0481,0.1453 0.04423,0.1471 0.0403,0.1487 0.03632,0.1503 0.03226,0.1518 0.02817,0.1534 0.02399,0.1548 0.01977,0.156 0.01547,0.1576 0.01114,0.1586 0.00672,0.1599 0.00225,0.161 L 5.6461,14.5345 5.63853,14.7042 5.62601,14.8725 5.6086,15.0394 5.58637,15.2048 5.55941,15.3687 5.52777,15.531 5.49154,15.6914 5.45078,15.8502 5.40556,16.0072 5.35595,16.1622 5.30205,16.3153 5.2439,16.4662 5.18158,16.6152 5.11517,16.7618 5.04474,16.9063 4.97035,17.0484 4.89208,17.1881 4.81,17.3254 4.72419,17.46 4.63471,17.5921 4.54164,17.7213 4.44504,17.848 4.345,17.9717 4.24159,18.0926 4.13486,18.2105 4.02489,18.3254 3.91177,18.4371 3.79556,18.5456 3.67633,18.6509 3.55415,18.7529 3.4291,18.8514 3.30124,18.9465 3.17065,19.0381 3.0374,19.126 l -0.13583,0.0842 -0.13835,0.0805 -0.1408,0.0767 -0.14317,0.0728 -0.14547,0.0688 -0.1477,0.0647 -0.14986,0.0606 -0.15193,0.0564 -0.15396,0.0523 -0.1559,0.0479 0.1095,0.0828 0.10797,0.0848 0.10641,0.0867 0.10483,0.0885 0.1032,0.0903 0.10158,0.0922 0.09992,0.0939 0.09823,0.0957 0.09652,0.0973 0.09477,0.0991 0.09302,0.1008 0.09122,0.1024 0.0894,0.1041 0.08757,0.1056 0.08569,0.1072 0.08381,0.1088 0.08188,0.1103 0.07994,0.1119 0.07798,0.1132 0.07598,0.1148 0.07395,0.1162 0.07191,0.1176 0.06984,0.1189 0.06774,0.1203 0.06562,0.1216 0.06346,0.1231 0.0613,0.1242 0.05908,0.1255 0.05687,0.1268 0.05461,0.1279 0.05234,0.1291 0.05004,0.1302 0.0477,0.1315 0.04535,0.1324 0.04297,0.1337 0.04057,0.1346 0.03814,0.1358 0.03566,0.1367 0.0332,0.1377 0.03068,0.1387 0.02816,0.1396 0.02559,0.1405 0.02301,0.1414 0.02039,0.1422 0.01776,0.1431 0.01511,0.144 0.01241,0.1446 0.00969,0.1456 0.00697,0.1462 0.00418,0.1469 0.00141,0.1476 -0.00125,0.1388 -0.00372,0.1384 -0.00618,0.1374 -0.00862,0.137 -0.01103,0.1362 -0.01342,0.1355 -0.01578,0.1348 -0.01814,0.134 -0.02045,0.1333 -0.02276,0.1324 -0.02503,0.1317 -0.02729,0.1309 -0.02953,0.13 -0.03173,0.1292 -0.03392,0.1283 -0.0361,0.1274 -0.03824,0.1265 -0.04035,0.1254 -0.04246,0.1246 -0.04453,0.1236 -0.0466,0.1227 -0.04863,0.1215 -0.05062,0.1206 -0.05263,0.1196 -0.05459,0.1185 -0.05654,0.1173 -0.05846,0.1162 -0.06035,0.1152 -0.06223,0.1139 -0.06409,0.1129 -0.06593,0.1116 -0.06773,0.1104 -0.06953,0.1092 -0.07128,0.108 -0.07302,0.1067 -0.07475,0.1054 -0.07646,0.1041 -0.07812,0.1029 0.12188,0.0766 0.12016,0.0792 0.1184,0.0815 0.1166,0.0838 0.11475,0.0862 0.11288,0.0886 0.11096,0.0907 0.10902,0.093 0.10706,0.0953 0.10502,0.0974 0.10296,0.0995 0.10088,0.1017 0.09875,0.1037 0.0966,0.1056 0.0944,0.1077 0.09215,0.1097 0.08989,0.1116 0.08759,0.1135 0.08524,0.1154 0.08286,0.1172 0.08046,0.1188 0.078,0.1208 0.07552,0.1224 0.073,0.124 0.07044,0.1258 0.06785,0.1273 0.06522,0.129 0.06254,0.1305 0.05986,0.132 0.05712,0.1334 0.05433,0.135 0.05153,0.1362 0.04869,0.1377 0.04582,0.1391 0.04289,0.1402 0.03994,0.1417 0.03695,0.1428 0.03392,0.1441 0.03087,0.1451 0.02777,0.1463 0.02464,0.1475 0.02147,0.1485 0.01826,0.1494 0.01502,0.1506 0.01175,0.1514 0.00843,0.1524 0.00509,0.1532 0.0017,0.1541 L 6.34203,36.6243 6.33436,36.8125 6.32165,36.9994 6.30397,37.1849 6.2814,37.3688 6.25398,37.5512 6.2218,37.7321 6.18491,37.9112 6.14339,38.0887 6.09729,38.2643 6.04671,38.438 5.99168,38.6099 5.93228,38.7796 5.86857,38.9473 5.80062,39.1129 5.7285,39.2763 5.65229,39.4374 5.57203,39.5962 5.4878,39.7526 5.39966,39.9064 5.30769,40.0578 5.21194,40.2067 5.11249,40.3527 5.00939,40.4962 4.90273,40.6367 4.79255,40.7744 4.67894,40.9093 4.56195,41.041 4.44165,41.1697 4.31811,41.2953 4.1914,41.4177 4.06157,41.5368 3.92871,41.6527 3.79287,41.7651 3.65412,41.874 3.51253,41.9795 3.36817,42.0814 3.22108,42.1795 3.07136,42.274 2.91906,42.3647 2.76424,42.4515 2.607,42.5344 l -0.15964,0.0789 -0.16194,0.0748 -0.16419,0.0707 -0.16637,0.0666 -0.16848,0.0623 -0.17053,0.0581 -0.17251,0.0536 -0.17442,0.049 -0.17626,0.0447 -0.178048,0.04 -0.17976,0.0354 -0.181408,0.0307 -0.182989,0.0259 -0.184504,0.021 L 0,43.2623 l 0.168957,0.0126 0.169801,0.0094 0.171405,0.0037 0.198554,-0.0028 0.197153,-0.0085 0.19568,-0.0139 0.19412,-0.0194 0.19249,-0.0247 0.19079,-0.03 0.18901,-0.0352 0.18715,-0.0403 0.18521,-0.0454 0.18321,-0.0504 0.18113,-0.0554 0.17895,-0.0601 0.17672,-0.0648 0.17441,-0.0696 0.17202,-0.0741 0.16955,-0.0787 0.167,-0.0831 0.16438,-0.0876 0.16169,-0.0918 0.15891,-0.0959 0.15608,-0.1001 0.15314,-0.1043 0.15015,-0.1082 0.14708,-0.1122 0.14392,-0.1159 0.14068,-0.1197 0.13738,-0.1235 0.13401,-0.1269 0.13055,-0.1306 0.127,-0.134 0.12341,-0.1374 0.11971,-0.1406 0.11597,-0.1439 0.11212,-0.1472 0.1082,-0.15 0.10421,-0.1533 0.10015,-0.156 0.09599,-0.1589 0.09179,-0.1617 0.08749,-0.1644 0.08313,-0.1669 0.07866,-0.1696 0.07415,-0.1719 0.06955,-0.1745 0.06487,-0.1767 0.06012,-0.179 0.05529,-0.181 0.05039,-0.1832 0.04541,-0.1852 0.04035,-0.1872 0.03522,-0.1889 0.03,-0.1907 0.02473,-0.1926 0.01936,-0.194 L 7.35247,36.8304 7.36089,36.6333 7.36371,36.4348 7.36201,36.2807 7.35691,36.1275 7.34847,35.9751 7.33672,35.8237 7.32169,35.6731 7.30341,35.5237 7.28194,35.3752 7.25729,35.2277 7.22952,35.0814 7.19864,34.9363 7.16471,34.7922 7.12774,34.6494 7.0878,34.5077 7.0449,34.3675 6.99909,34.2284 6.95039,34.0907 6.89886,33.9545 6.84451,33.8195 6.78739,33.6861 6.72753,33.5541 6.66499,33.4236 6.59977,33.2946 6.53192,33.1673 6.4615,33.0415 6.38851,32.9175 6.313,32.7951 6.23502,32.6743 6.15459,32.5555 6.07174,32.4383 5.98652,32.3229 5.89897,32.2094 5.80912,32.0978 5.717,31.9881 5.62265,31.8804 5.5261,31.7748 5.4274,31.6711 5.32658,31.5694 5.22368,31.4699 5.11872,31.3725 5.01175,31.2772 4.90282,31.1842 4.79194,31.0935 4.67914,31.0049 4.56449,30.9187 4.448,30.8349 4.32972,30.7534 4.20968,30.6742 4.08792,30.5976 4.16599,30.4947 4.2424,30.3906 4.3171,30.2852 4.39007,30.1785 4.46131,30.0705 4.53078,29.9613 4.59847,29.8509 4.66433,29.7393 4.72837,29.6264 4.79056,29.5125 4.85087,29.3973 4.90928,29.2811 4.96577,29.1638 5.02031,29.0453 5.07289,28.9257 5.12348,28.8051 5.17206,28.6836 5.21861,28.5609 5.2631,28.4373 5.30553,28.3127 5.34584,28.1873 5.38405,28.0608 5.4201,27.9334 5.45398,27.8051 5.48569,27.6759 5.51518,27.5459 5.54244,27.415 5.56745,27.2833 5.59018,27.1509 5.61062,27.0176 5.62872,26.8836 5.64449,26.7488 5.6579,26.6133 5.66892,26.4771 5.67752,26.3401 5.68369,26.2027 5.68741,26.0643 5.68866,25.9255 5.68725,25.7779 5.68307,25.631 5.67612,25.4848 5.66642,25.3392 5.65401,25.1946 5.63893,25.0506 5.62117,24.9075 5.60079,24.7653 5.57779,24.6239 5.55221,24.4834 5.52407,24.3438 5.4934,24.2051 5.46022,24.0674 5.42455,23.9307 5.38643,23.7949 5.34588,23.6603 5.30293,23.5266 5.25759,23.3942 5.20989,23.2627 5.15988,23.1325 5.10756,23.0034 5.05295,22.8755 4.9961,22.7487 4.93703,22.6232 4.87574,22.499 4.81229,22.3759 4.74668,22.2543 4.67895,22.134 4.60912,22.0151 4.53722,21.8975 4.46327,21.7813 4.38729,21.6665 4.30932,21.5533 4.22939,21.4414 4.1475,21.3311 4.06369,21.2223 3.97799,21.1151 3.89041,21.0095 3.801,20.9054 3.70977,20.803 3.61675,20.7022 3.52195,20.6031 3.42543,20.5058 3.32717,20.4101 3.22724,20.3162 3.12563,20.224 3.02239,20.1337 2.91753,20.0452 2.81109,19.9585 2.70308,19.8737 2.59353,19.7909 2.74943,19.743 2.90339,19.6907 3.05532,19.6343 3.20518,19.5737 3.35288,19.509 3.49835,19.4402 3.64152,19.3674 3.78232,19.2907 3.92067,19.2102 4.05651,19.126 4.18975,19.0381 4.32034,18.9465 4.4482,18.8514 4.57326,18.7529 4.69544,18.6509 4.81467,18.5456 4.93087,18.4371 5.04399,18.3254 5.15396,18.2105 5.26069,18.0926 5.36411,17.9717 5.46414,17.848 5.56074,17.7213 5.65382,17.5921 5.74329,17.46 5.8291,17.3254 5.91119,17.1881 5.98945,17.0484 6.06384,16.9063 6.13427,16.7618 6.20069,16.6152 6.263,16.4662 6.32115,16.3153 6.37506,16.1622 6.42467,16.0072 6.46988,15.8502 6.51064,15.6914 6.54687,15.531 6.57851,15.3687 6.60548,15.2048 6.6277,15.0394 6.64511,14.8725 6.65763,14.7042 6.66521,14.5345 6.66774,14.3636 6.66549,14.2026 6.65877,14.0427 6.64763,13.8841 6.63216,13.7265 6.61239,13.5705 6.5884,13.4157 6.56024,13.2623 6.52797,13.1105 6.49167,12.9602 6.45137,12.8115 6.40715,12.6644 6.35906,12.5191 6.30717,12.3755 6.25153,12.2338 6.19222,12.094 6.12927,11.9562 6.06277,11.8203 5.99275,11.6866 5.9193,11.5549 5.84246,11.4255 5.7623,11.2983 5.67888,11.1734 5.59226,11.0509 5.50249,10.9308 5.40965,10.8132 5.31378,10.6981 5.21495,10.5857 5.11322,10.4758 5.00866,10.3688 4.90131,10.2645 4.79124,10.163 4.67852,10.0644 4.56319,9.96883 4.44532,9.87622 4.32498,9.7867 4.20222,9.70031 4.07711,9.6171 3.94969,9.53715 3.82004,9.4605 3.68821,9.38722 3.55426,9.31736 3.41826,9.25099 3.59342,9.22032 3.76628,9.18326 3.93673,9.13994 4.10462,9.09049 4.26984,9.03503 4.43224,8.97369 4.59169,8.90661 4.74808,8.8339 4.90126,8.75569 5.05111,8.6721 5.1975,8.58326 5.34028,8.48931 5.47935,8.39035 5.61455,8.28653 5.74577,8.17797 5.87289,8.06479 5.99574,7.94711 6.11422,7.82508 6.2282,7.6988 6.33754,7.56842 6.44211,7.43405 6.54178,7.29582 6.63642,7.15385 6.72589,7.00828 6.81008,6.85923 6.88884,6.70682 6.96206,6.55119 7.02959,6.39245 7.09132,6.23074 7.1471,6.06617 7.19679,5.89888 7.24029,5.72901 7.27746,5.55664 7.30816,5.38194 7.33226,5.20502 7.34964,5.02601 7.36017,4.84503 7.36371,4.66222 7.3594,4.45977 7.34659,4.25953 7.32547,4.06171 7.2962,3.86644 7.25896,3.67393 7.21391,3.48434 7.16124,3.29784 7.10113,3.1146 7.03375,2.93481 6.95927,2.75864 6.87786,2.58625 6.78972,2.41783 6.695,2.25354 6.59387,2.09357 6.48654,1.93807 6.37315,1.78725 6.25388,1.64125 6.12892,1.50026 5.99844,1.36445 5.86262,1.234 5.72161,1.10908 5.57561,0.989861 5.42479,0.87652 5.26932,0.76923 5.10938,0.668166 4.94513,0.5735 4.77677,0.485408 4.60446,0.404063 4.42837,0.32964 4.2487,0.262313 4.06559,0.202254 3.87924,0.149639 3.68981,0.104641 3.49749,0.0674341 3.30244,0.0381926 3.10485,0.0170905 2.90488,0.00430163 2.70271,0 2.53049,0.008976 2.36148,0.029376 2.19316,0.051408 2.37609,0.075289 2.55676,0.106063 2.73503,0.143595 2.91073,0.187749 3.08376,0.238391 3.25393,0.295384 3.42113,0.358593 3.58521,0.427882 3.74603,0.503117 3.90342,0.58416 4.05728,0.670878 4.20743,0.763136 4.35373,0.860796 4.49607,0.963725 4.63427,1.07179 4.7682,1.18484 4.89773,1.30276 5.0227,1.42541 5.14295,1.55264 5.25838,1.68433 5.36882,1.82035 5.47413,1.96054 5.57417,2.10479 5.66878,2.25294 5.75784,2.40488 5.84121,2.56046 5.91873,2.71954 5.99024,2.88201 6.05564,3.0477 6.11476,3.21649 6.16745,3.38825 6.2136,3.56283 6.25302,3.74012 6.28562,3.91996 6.31121,4.10224 6.32967,4.28678 6.34085,4.47349 Z"
         style="fill:url(#Grad217);fill-rule:evenodd;stroke:none"
         transform="rotate(90,15.8082,33.9413)"
         id="path3774" />
      <path
         d="M 1.65828,3.59244 1.66619,3.77617 1.65957,3.96155 1.63208,4.1616 1.81113,4.16809 1.98884,4.18084 2.1651,4.19976 l 0.17467,0.025 0.17299,0.03094 0.17118,0.03682 0.16923,0.04257 0.16717,0.04823 0.165,0.05378 0.16269,0.05923 0.16026,0.06456 0.15772,0.06983 0.15506,0.07496 0.15228,0.08 0.14936,0.08493 0.14633,0.08977 0.14319,0.09451 0.13991,0.09912 0.13651,0.10366 0.133,0.10806 0.12938,0.1124 L 5.07664,5.59474 5.19838,5.71547 5.3161,5.84021 5.42971,5.96886 5.53909,6.10131 5.6441,6.23747 5.74462,6.37722 5.84054,6.52047 5.93172,6.66713 6.01808,6.81707 6.09945,6.9702 6.17573,7.12642 6.24679,7.28562 6.31254,7.44771 6.37282,7.61257 6.42753,7.78011 6.47654,7.95022 6.51973,8.12281 6.55699,8.29775 6.58818,8.47498 6.61008,8.62869 6.62725,8.7821 6.63977,8.93516 6.64768,9.08776 6.65101,9.23984 6.64983,9.3913 6.64419,9.54206 6.63412,9.69205 6.61969,9.84117 6.60092,9.98936 6.57789,10.1365 6.55064,10.2826 6.51921,10.4275 6.48366,10.5711 6.44403,10.7133 6.40037,10.8541 6.35273,10.9934 6.30118,11.1312 6.24573,11.2672 6.18645,11.4015 6.12339,11.5339 6.0566,11.6644 5.98613,11.7929 5.91202,11.9194 5.83432,12.0436 5.75308,12.1656 5.66836,12.2853 5.58019,12.4025 5.48864,12.5174 5.39374,12.6295 5.29555,12.739 5.19412,12.8459 5.08948,12.9498 4.9817,13.0509 4.87083,13.1489 4.75692,13.244 4.64,13.3358 l -0.11987,0.0887 -0.12276,0.0853 -0.12563,0.082 -0.12843,0.0784 -0.13117,0.075 -0.13388,0.0712 -0.13654,0.0674 -0.13916,0.0638 -0.1417,0.0599 0.10584,0.0991 0.10165,0.1026 0.0974,0.1061 0.09306,0.1093 0.08868,0.1125 0.08421,0.1155 0.07969,0.1185 0.07509,0.1213 0.07045,0.124 0.0657,0.1264 0.06092,0.129 0.05606,0.1313 0.05112,0.1335 0.04615,0.1355 0.04108,0.1376 0.03596,0.1393 0.03076,0.1411 0.02549,0.1426 0.02376,0.1767 0.01553,0.1757 0.00747,0.1743 -4.7e-4,0.1727 -0.00826,0.1709 -0.0159,0.1691 -0.0234,0.167 -0.03076,0.1646 -0.03798,0.162 -0.04507,0.1595 -0.05199,0.1567 -0.05879,0.1536 -0.06544,0.1503 -0.07194,0.1469 -0.07832,0.1433 -0.08453,0.1396 -0.09061,0.1355 -0.09656,0.1313 -0.10235,0.1271 -0.10801,0.1224 -0.11351,0.1176 -0.11889,0.1128 -0.12411,0.1076 -0.12921,0.1025 -0.13413,0.0968 -0.13895,0.0912 -0.1436,0.0853 -0.14812,0.0793 -0.1525,0.073 -0.15672,0.0667 -0.16082,0.0599 -0.16476,0.0532 -0.16856,0.0462 -0.17223,0.039 -0.17575,0.0317 -0.1667,0.0231 -0.171,0.0148 0.16254,0.0812 0.16604,0.0436 0.15061,0.018 0.11628,0.0041 0.17399,-0.0153 0.17032,-0.0227 0.17425,-0.0315 0.17104,-0.039 0.16768,-0.0464 0.16417,-0.0533 0.16054,-0.0602 0.15675,-0.0669 0.15282,-0.0734 0.14875,-0.0797 0.14452,-0.0858 0.14017,-0.0917 0.13566,-0.0973 0.131,-0.1028 0.12622,-0.1082 0.12129,-0.1132 0.1162,-0.1181 0.11097,-0.1229 0.10562,-0.1273 0.1001,-0.1317 0.09444,-0.1358 0.08866,-0.1396 0.0827,-0.1435 0.07662,-0.1469 0.0704,-0.1503 0.06402,-0.1532 0.05751,-0.1563 0.05084,-0.1591 0.04404,-0.1615 0.0371,-0.1639 0.03,-0.1661 L 5.39363,17.248 5.40902,17.0783 5.4169,16.9071 5.41711,16.7345 5.4095,16.5607 5.39395,16.3861 5.3703,16.2107 5.34452,16.065 5.31332,15.9209 5.2768,15.7786 5.235,15.6382 5.18802,15.4999 5.13593,15.3636 5.07879,15.2296 5.0167,15.098 4.94971,14.9689 4.8779,14.8425 4.80135,14.7187 4.72012,14.5979 4.63432,14.48 4.54399,14.3654 4.44922,14.2538 4.35006,14.1458 4.24662,14.0411 l -0.10766,-0.101 0.1415,-0.0597 0.13899,-0.0635 0.13645,-0.0672 0.13383,-0.0709 0.1312,-0.0745 0.12851,-0.0779 0.12575,-0.0814 0.12299,-0.0846 0.12015,-0.0878 0.11726,-0.0911 0.11434,-0.0941 0.11138,-0.0972 0.10836,-0.1001 0.10529,-0.103 0.10217,-0.1056 0.09903,-0.1084 0.09581,-0.1111 0.09257,-0.1136 0.08927,-0.116 0.08592,-0.1185 0.08255,-0.1207 0.07909,-0.123 0.07562,-0.1251 0.0721,-0.1273 0.06852,-0.1292 0.06488,-0.1311 0.06123,-0.133 0.05751,-0.1347 0.05375,-0.1364 0.04994,-0.138 L 7.151,10.6758 7.19319,10.5348 7.23143,10.3925 7.26566,10.2488 7.29587,10.1039 7.32199,9.95788 7.34398,9.81079 7.36177,9.66271 7.37535,9.51374 7.38466,9.36394 7.38964,9.21339 7.39027,9.06217 7.38647,8.91035 7.37822,8.75801 7.36547,8.60525 7.34816,8.45212 7.32625,8.29872 7.2953,8.12222 7.25844,7.94793 7.21582,7.77595 7.16754,7.60636 7.11372,7.43929 7.05446,7.2748 6.98988,7.11299 6.92012,6.95398 6.84526,6.79786 6.76543,6.64473 6.68074,6.49467 6.59131,6.34777 6.49726,6.20416 6.39869,6.06393 6.29573,5.92715 6.18848,5.79394 6.07707,5.66438 5.9616,5.53859 5.8422,5.41664 5.71897,5.29866 5.59203,5.1847 5.46149,5.07491 5.32748,4.96935 5.1901,4.86814 5.04947,4.77135 4.90571,4.67911 4.75892,4.59148 4.60923,4.50858 4.45674,4.4305 4.30158,4.35735 4.14385,4.28921 3.98369,4.22619 3.82118,4.16837 3.65646,4.11586 3.48964,4.06875 3.32082,4.02714 3.15014,3.99113 2.97769,3.96083 2.8036,3.9363 2.62798,3.91766 2.45094,3.90501 2.2726,3.89844 2.26692,3.7389 2.25637,3.5851 2.24102,3.4368 2.22095,3.29378 2.19341,3.13626 2.16085,2.98088 2.12337,2.82771 2.08107,2.67684 2.03404,2.52832 1.98238,2.38222 1.92618,2.23862 1.86556,2.09761 1.80059,1.95922 1.73138,1.82354 1.65803,1.69065 1.58064,1.5606 1.49928,1.43348 1.41407,1.30935 1.32511,1.18828 1.23251,1.07034 1.13632,0.95561 1.03668,0.844152 0.933666,0.736039 0.827385,0.63134 0.717929,0.530128 0.605398,0.432471 0.489888,0.338442 0.371496,0.24811 0.250319,0.161545 0.126455,0.0788179 0,0 0.00524273,0.00480983 0.0205036,0.0191625 0.0450818,0.0429424 0.0782764,0.0760346 0.119386,0.118324 0.167711,0.169694 0.222549,0.23003 0.283199,0.299218 0.348962,0.37714 0.419136,0.463684 0.493019,0.558732 0.569912,0.662168 0.649112,0.77388 0.729919,0.89375 0.811633,1.02166 0.893553,1.15751 0.974976,1.30116 1.0552,1.45251 1.13353,1.61144 1.20927,1.77785 1.2817,1.95161 1.35013,2.13259 1.41387,2.3207 1.47219,2.51582 1.52442,2.71782 1.56984,2.9266 1.60776,3.14204 1.63747,3.36403 Z"
         style="fill:url(#Grad218);fill-rule:evenodd;stroke:none"
         transform="rotate(-90,14.67975,1.31245)"
         id="path3776" />
    </g>
  </g>
</svg>
