<?xml version="1.0" encoding="UTF-8" standalone="no"?>
<svg
   width="47.625767pt"
   height="23.955002pt"
   version="1.1"
   viewBox="0 0 47.625767 23.955002"
   id="svg6053"
   sodipodi:docname="Weather Icons-page001.svg"
   xmlns:inkscape="http://www.inkscape.org/namespaces/inkscape"
   xmlns:sodipodi="http://sodipodi.sourceforge.net/DTD/sodipodi-0.dtd"
   xmlns="http://www.w3.org/2000/svg"
   xmlns:svg="http://www.w3.org/2000/svg">
  <sodipodi:namedview
     id="namedview6055"
     pagecolor="#ffffff"
     bordercolor="#000000"
     borderopacity="0.25"
     inkscape:showpageshadow="2"
     inkscape:pageopacity="0.0"
     inkscape:pagecheckerboard="0"
     inkscape:deskcolor="#d1d1d1"
     inkscape:document-units="pt"
     showgrid="false" />
  <defs
     id="defs2330">
    <clipPath
       id="Clip4">
      <path
         d="M 0,0 H 48.894 V 31.4373 H 0 Z"
         id="path420" />
    </clipPath>
    <linearGradient
       x2="23.339199"
       y2="22.6668"
       id="Grad58"
       x1="0.99110401"
       gradientUnits="userSpaceOnUse"
       y1="22.6668">
      <stop
         offset="0%"
         stop-color="#dceff6"
         stop-opacity="1"
         id="stop423" />
      <stop
         offset="100%"
         stop-color="#3f6e7a"
         stop-opacity="1"
         id="stop425" />
    </linearGradient>
  </defs>
  <g
     inkscape:groupmode="layer"
     id="Background"
     inkscape:label="Background"
     transform="translate(-18.0079,-160.53908)">
    <g
       id="big_cloud"
       style="fill:none;stroke:none"
       clip-path="url(#Clip4)"
       clip-rule="evenodd"
       transform="translate(18.0079,157.383)">
      <path
         d="m 28.9982,23.955 c -1.3108,0 -2.3327,-0.0438 -2.9593,-0.0806 C 25.337,23.833 24.4243,23.8012 23.3671,23.7643 15.4876,23.4895 0.820467,22.9784 0.00822036,16.485 l -0.0044064,-0.0347 -0.001224,-0.0347 C -0.156163,11.8114 7.02664,10.0902 9.5859,9.62382 9.0318,7.11683 9.24196,3.01177 13.225,1.02008 14.5594,0.352757 16.1377,0 17.7891,0 c 2.9948,0 5.984,1.16047 7.7063,2.94201 0.0397,-0.02828 0.0795,-0.05692 0.1197,-0.08581 1.0791,-0.77577 2.5571,-1.83808 4.7777,-1.83808 0.5357,0 1.0942,0.06377 1.6605,0.1896 2.5931,0.57638 3.5087,2.69843 3.7033,4.22684 2.4124,0.01775 9.892,0.73097 11.6854,8.65084 0.4427,1.9544 0.0846,3.6741 -1.0642,5.1122 -3.3068,4.1392 -12.3086,4.7574 -17.3796,4.7574"
         style="fill:#738a92;fill-rule:nonzero;stroke:none"
         transform="translate(0,3.15608)"
         id="path2468" />
      <path
         d="m 12.0425,36.7512 -0.0042,0.0023 -0.0123,0.0068 -0.0203,0.011 -0.0281,0.0149 -0.0357,0.0186 -0.0431,0.0222 -0.0504,0.0252 -0.0575,0.0281 -0.0643,0.0309 -0.0711,0.0332 -0.0775,0.0353 -0.0839,0.0372 -0.0901,0.039 -0.096,0.0401 -0.1018,0.0414 -0.1074,0.0421 -0.1129,0.0428 -0.118,0.0431 -0.1232,0.0431 -0.128,0.0431 -0.1327,0.0425 -0.1371,0.0418 -0.1416,0.0408 -0.1456,0.0396 -0.14966,0.0382 -0.15339,0.0364 -0.15698,0.0345 -0.1604,0.0321 -0.16361,0.0296 -0.16668,0.0269 -0.16952,0.0239 -0.17221,0.0204 -0.17468,0.017 -0.17701,0.0133 -0.17914,0.009 -0.18108,0.0048 -0.18284,2e-4 L 7.68808,37.798 7.50225,37.7882 7.31522,37.7731 7.12716,37.7524 6.93824,37.7258 6.74867,37.6931 6.55861,37.6539 6.36825,37.6081 6.17777,37.5554 5.98737,37.4955 5.79722,37.4282 5.60749,37.3532 5.41838,37.2702 5.23007,37.1791 5.04275,37.0795 4.85657,36.971 4.67176,36.8538 4.48847,36.7272 4.3069,36.5911 4.12722,36.4453 3.94963,36.2894 3.77429,36.1233 3.6014,35.9467 3.43113,35.7592 3.26369,35.5607 3.09922,35.351 2.9727,35.1787 2.85082,35.0035 2.73356,34.8251 2.62088,34.6437 2.51276,34.4596 2.40917,34.2729 2.3101,34.0835 2.21553,33.8917 2.12539,33.6976 2.0397,33.5014 1.95841,33.3031 1.88151,33.103 1.80896,32.901 1.74075,32.6973 1.67683,32.4922 1.6172,32.2856 1.56181,32.0777 1.51066,31.8688 1.46371,31.6588 1.42094,31.4479 1.38231,31.2362 1.34782,31.0239 1.31742,30.811 1.29109,30.5979 1.26881,30.3845 1.25056,30.1709 1.2363,29.9573 1.22601,29.7438 1.21967,29.5306 1.21724,29.3179 1.21871,29.1055 1.22405,28.8939 1.23323,28.683 1.24623,28.4731 1.26302,28.264 1.28357,28.0562 1.30786,27.8497 1.33587,27.6445 1.36756,27.4409 1.40292,27.2389 1.44191,27.0388 1.48452,26.8405 1.53071,26.6443 1.58045,26.4503 1.63375,26.2586 1.69054,26.0692 1.75081,25.8825 1.81454,25.6984 1.8817,25.5171 1.95227,25.3388 2.02622,25.1635 2.10353,24.9914 2.18415,24.8226 2.26808,24.6572 2.35529,24.4955 2.44576,24.3375 2.53945,24.1833 2.63634,24.033 2.7364,23.8868 2.83961,23.7449 2.94595,23.6072 3.05537,23.474 3.16787,23.3455 3.10755,23.2807 3.04498,23.2154 2.98029,23.1494 2.91363,23.0826 2.84513,23.015 2.77491,22.9466 2.70312,22.8772 2.62987,22.8068 2.55532,22.7354 2.47959,22.6627 2.40281,22.5889 2.32512,22.5139 2.24665,22.4374 2.16754,22.3595 2.08792,22.2801 2.00791,22.1992 1.92767,22.1167 1.84731,22.0325 1.76697,21.9464 1.68678,21.8587 1.60689,21.769 1.52741,21.6773 1.44849,21.5835 1.37026,21.4877 1.29285,21.3898 1.21639,21.2895 1.14102,21.187 1.06687,21.0821 0.994078,20.9747 0.922771,20.8649 0.853086,20.7524 0.785157,20.6374 0.719115,20.5196 0.655093,20.3991 0.593226,20.2757 0.533647,20.1494 0.476489,20.02 0.421885,19.8876 0.369969,19.7521 0.320873,19.6134 0.274732,19.4715 0.231679,19.3262 0.191846,19.1775 0.155367,19.0254 0.122377,18.8697 0.0930067,18.7104 0.067391,18.5475 0.0456628,18.3808 0.0279553,18.2104 0.0144021,18.036 0.00513616,17.8578 2.91043e-4,17.6754 0,17.4891 0.00439635,17.2985 0.0227101,17.016 0.0566324,16.7474 0.1052,16.4922 l 0.062248,-0.242 0.074966,-0.2291 0.086721,-0.2167 0.09751,-0.2046 0.107337,-0.1927 0.116201,-0.1813 0.124101,-0.1701 0.131035,-0.1593 0.137011,-0.1488 0.14202,-0.1388 0.14606,-0.1289 0.14914,-0.1194 0.15127,-0.1104 0.15241,-0.1016 0.15261,-0.0932 0.15183,-0.0849 0.1501,-0.0774 0.1474,-0.0698 0.14374,-0.0627 0.1391,-0.056 0.13352,-0.0496 0.12695,-0.0435 0.11945,-0.0377 0.11096,-0.0323 0.10152,-0.0273 0.0911,-0.0226 0.07973,-0.0182 0.0674,-0.0141 0.05411,-0.0104 0.03982,-0.007 L 3.61718,13.4379 3.6256,13.4367 3.62371,13.4297 3.61827,13.4089 3.60959,13.3746 3.598,13.3274 3.58382,13.2675 3.56737,13.1953 3.54899,13.1111 3.52899,13.0153 3.50768,12.9082 3.48541,12.7903 3.46249,12.6619 3.43923,12.5234 3.41599,12.375 3.39305,12.2172 3.37076,12.0504 3.34944,11.8749 3.3294,11.691 3.31098,11.4992 3.29449,11.2998 3.28027,11.0931 3.26862,10.8796 3.25988,10.6595 3.25437,10.4333 3.2524,10.2013 3.25432,9.96381 3.26043,9.7213 3.27107,9.47408 3.28654,9.22252 3.30717,8.96699 3.33331,8.70783 3.36525,8.44543 3.40334,8.18013 3.44789,7.9123 3.49921,7.64233 3.55763,7.37054 3.62349,7.0973 3.6971,6.823 3.77879,6.54798 3.86888,6.27261 3.96768,5.99726 4.07553,5.72227 4.19275,5.44804 4.31967,5.17489 4.45658,4.90321 4.60384,4.63335 4.76176,4.36569 4.93068,4.10057 5.11089,3.83838 5.30272,3.57945 5.50652,3.32416 5.72259,3.07289 5.95126,2.82597 6.19285,2.58379 6.44769,2.34669 6.7161,2.11505 6.99839,1.88922 7.29491,1.66957 7.60596,1.45647 7.93186,1.25028 8.27297,1.05135 8.62957,0.860044 9.00201,0.676736 9.39059,0.501785 9.78363,0.346287 10.1693,0.220531 10.5476,0.123771 10.9187,0.0552599 11.2826,0.0142519 11.6392,0 l 0.3496,0.0117576 0.3425,0.0370206 0.3355,0.0615368 0.3287,0.085307 0.3215,0.10833 0.3148,0.130607 0.3081,0.152137 0.3012,0.172921 0.2946,0.192957 0.2879,0.212246 0.2814,0.2308 0.2748,0.24858 0.2684,0.26564 0.262,0.28194 0.2554,0.29751 0.2493,0.31231 0.243,0.32637 0.2367,0.3397 0.2306,0.35226 0.2245,0.36409 0.2185,0.37517 0.2124,0.3855 0.2064,0.39508 0.2007,0.40392 0.1947,0.41203 0.189,0.41935 0.1832,0.42597 0.1776,0.4318 0.1719,0.43692 0.1663,0.44127 0.1608,0.44489 0.1554,0.44775 0.1499,0.44987 0.1446,0.45126 0.1391,0.4519 0.1341,0.4517 0.1287,0.4509 0.1237,0.4493 0.1184,0.4468 0.1135,0.4438 0.1086,0.44 0.1034,0.4353 0.0986,0.43 0.0939,0.424 0.089,0.417 0.0843,0.4095 0.0796,0.4012 0.075,0.392 0.0704,0.3823 0.0659,0.3716 0.0614,0.3603 0.0571,0.3484 0.0526,0.3355 0.0483,0.3219 0.0442,0.3076 0.0399,0.2925 0.0358,0.2768 0.0358,0.2781 0.0402,0.2968 0.0439,0.3147 0.0478,0.3318 0.0509,0.3485 0.0539,0.3642 0.0566,0.3795 0.059,0.3939 0.0609,0.4076 0.0627,0.4205 0.0642,0.4329 0.0652,0.4446 0.066,0.4556 0.0663,0.4657 0.0666,0.4753 0.0665,0.4841 0.0658,0.4923 0.0651,0.4996 0.064,0.5064 0.0626,0.5125 0.0607,0.5177 0.0588,0.5224 0.0563,0.5263 0.0536,0.5295 0.0506,0.5321 0.0473,0.5339 0.0437,0.535 0.0396,0.5355 0.0354,0.5352 0.0309,0.5342 0.0259,0.5326 0.0207,0.5301 0.0152,0.5272 0.0093,0.5234 0.003,0.5188 -0.0033,0.5137 -0.0101,0.5078 -0.0173,0.5013 -0.0247,0.4939 -0.0325,0.486 -0.0405,0.4774 -0.0488,0.4679 -0.0577,0.4579 -0.0665,0.447 -0.0759,0.4358 -0.0856,0.4234 -0.0955,0.4106 -0.1057,0.397 -0.1164,0.3827 -0.1273,0.3678 -0.1384,0.352 -0.1501,0.3358 -0.1618,0.3186 -0.1741,0.3009 -0.1864,0.2823 -0.1994,0.2633 -0.2123,0.2433 -0.2259,0.2227 -0.2395,0.2015 -0.2537,0.1795 -0.268,0.1568 -0.2827,0.1334 -0.2977,0.1095 -0.2239,0.0419 -0.2214,0.0264 -0.219,0.0113 -0.2162,-0.0031 -0.2137,-0.0174 -0.2111,-0.0309 -0.2084,-0.044 L 18.1445,45.1809 17.9416,45.1121 17.7415,45.0316 17.5442,44.94 17.3498,44.8376 17.1583,44.725 16.9697,44.6027 16.784,44.4711 16.6014,44.3308 16.4218,44.1821 16.2452,44.0257 16.0717,43.862 l -0.1702,-0.1706 -0.1671,-0.1769 -0.164,-0.1828 -0.1606,-0.1881 -0.1574,-0.1932 -0.1541,-0.1974 -0.1508,-0.2015 -0.1474,-0.2049 -0.1439,-0.2078 -0.1405,-0.2103 -0.137,-0.2124 -0.1334,-0.2138 -0.13,-0.2148 -0.1263,-0.2156 -0.1228,-0.2154 -0.119,-0.215 -0.1154,-0.2142 -0.1115,-0.2129 -0.108,-0.2109 -0.104,-0.2086 -0.1001,-0.2057 -0.0963,-0.2025 -0.0926,-0.1985 -0.0885,-0.1944 -0.0844,-0.1896 -0.0806,-0.1843 -0.0765,-0.1786 -0.0723,-0.1723 -0.0683,-0.1658 -0.064,-0.1583 -0.06,-0.151 -0.0557,-0.1426 -0.0514,-0.134 -0.0472,-0.125 -0.0428,-0.1153 -0.0385,-0.1051 -0.0341,-0.0947 -0.0297,-0.0836 -0.0251,-0.072 -0.0207,-0.0601 -0.0162,-0.0475 -0.0115,-0.0346 -0.007,-0.0211 z"
         style="fill:url(#Grad58);fill-rule:evenodd;stroke:none"
         transform="rotate(100.513,21.008301,24.463204)"
         id="path2470" />
      <path
         d="m 0,14.2338 c 2.89048,-2.8066 11.0412,-3.2605 11.0412,-3.2605 0,0 -3.09328,-7.01055 1.9817,-9.54815 4.014,-2.007109 8.8945,0.43807 11.0642,3.27628 1.3351,-0.83513 3.0105,-3.26135 6.3975,-2.50883 3.2993,0.7333 2.1324,4.51595 2.1324,4.51595 0,0 10.9169,-0.69254 12.9203,8.15325 0.0904,0.4 0.1424,0.7802 0.1607,1.1425 0.1743,-0.7525 0.1759,-1.5894 -0.0352,-2.5221 -2.0033,-8.84613 -11.666,-8.02813 -11.666,-8.02813 0,0 0.1632,-3.53185 -3.1363,-4.26502 C 27.4739,0.436409 25.6732,2.3609 24.3379,3.19616 22.1684,0.358073 16.5605,-1.06887 12.5465,0.938249 7.47166,3.47584 9.53802,9.47589 9.53802,9.47589 c 0,0 -8.01292,1.04591 -9.53802,4.75791"
         style="fill:#dbeff8;fill-rule:nonzero;stroke:none"
         transform="translate(1.02451,3.93021)"
         id="path2472" />
    </g>
  </g>
</svg>
