<?xml version="1.0" encoding="UTF-8" standalone="no"?>
<svg
   width="47.626282pt"
   height="45.689255pt"
   version="1.1"
   viewBox="0 0 47.626282 45.689255"
   id="svg6053"
   sodipodi:docname="Weather Icons-page001.svg"
   xmlns:inkscape="http://www.inkscape.org/namespaces/inkscape"
   xmlns:sodipodi="http://sodipodi.sourceforge.net/DTD/sodipodi-0.dtd"
   xmlns="http://www.w3.org/2000/svg"
   xmlns:svg="http://www.w3.org/2000/svg">
  <sodipodi:namedview
     id="namedview6055"
     pagecolor="#ffffff"
     bordercolor="#000000"
     borderopacity="0.25"
     inkscape:showpageshadow="2"
     inkscape:pageopacity="0.0"
     inkscape:pagecheckerboard="0"
     inkscape:deskcolor="#d1d1d1"
     inkscape:document-units="pt"
     showgrid="false" />
  <defs
     id="defs2330">
    <clipPath
       id="Clip9">
      <path
         d="M 0,0 H 48.8941 V 48.8456 H 0 Z"
         id="path646" />
    </clipPath>
    <linearGradient
       x2="23.3391"
       y2="22.6663"
       id="Grad89"
       x1="0.99102199"
       gradientUnits="userSpaceOnUse"
       y1="22.6663">
      <stop
         offset="0%"
         stop-color="#758099"
         stop-opacity="1"
         id="stop649" />
      <stop
         offset="100%"
         stop-color="#03253a"
         stop-opacity="1"
         id="stop651" />
    </linearGradient>
    <linearGradient
       x2="3.96873"
       y2="1.31892"
       id="Grad90"
       x1="0.190069"
       gradientUnits="userSpaceOnUse"
       y1="1.31892">
      <stop
         offset="0%"
         stop-color="#8cd0f2"
         stop-opacity="1"
         id="stop654" />
      <stop
         offset="90.303%"
         stop-color="#63bae9"
         stop-opacity="1"
         id="stop656" />
      <stop
         offset="100%"
         stop-color="#63bae9"
         stop-opacity="1"
         id="stop658" />
    </linearGradient>
    <linearGradient
       x2="3.9688499"
       y2="1.31823"
       id="Grad91"
       x1="0.19018801"
       gradientUnits="userSpaceOnUse"
       y1="1.31823">
      <stop
         offset="0%"
         stop-color="#8cd0f2"
         stop-opacity="1"
         id="stop661" />
      <stop
         offset="90.303%"
         stop-color="#63bae9"
         stop-opacity="1"
         id="stop663" />
      <stop
         offset="100%"
         stop-color="#63bae9"
         stop-opacity="1"
         id="stop665" />
    </linearGradient>
    <linearGradient
       x2="3.9674101"
       y2="1.31806"
       id="Grad92"
       x1="0.188995"
       gradientUnits="userSpaceOnUse"
       y1="1.31806">
      <stop
         offset="0%"
         stop-color="#8cd0f2"
         stop-opacity="1"
         id="stop668" />
      <stop
         offset="90.303%"
         stop-color="#63bae9"
         stop-opacity="1"
         id="stop670" />
      <stop
         offset="100%"
         stop-color="#63bae9"
         stop-opacity="1"
         id="stop672" />
    </linearGradient>
    <linearGradient
       x2="5.01404"
       y2="1.66688"
       id="Grad93"
       x1="0.239702"
       gradientUnits="userSpaceOnUse"
       y1="1.66688">
      <stop
         offset="0%"
         stop-color="#8cd0f2"
         stop-opacity="1"
         id="stop675" />
      <stop
         offset="90.303%"
         stop-color="#63bae9"
         stop-opacity="1"
         id="stop677" />
      <stop
         offset="100%"
         stop-color="#63bae9"
         stop-opacity="1"
         id="stop679" />
    </linearGradient>
    <linearGradient
       x2="5.0144701"
       y2="1.66628"
       id="Grad94"
       x1="0.239821"
       gradientUnits="userSpaceOnUse"
       y1="1.66628">
      <stop
         offset="0%"
         stop-color="#8cd0f2"
         stop-opacity="1"
         id="stop682" />
      <stop
         offset="90.303%"
         stop-color="#63bae9"
         stop-opacity="1"
         id="stop684" />
      <stop
         offset="100%"
         stop-color="#63bae9"
         stop-opacity="1"
         id="stop686" />
    </linearGradient>
    <linearGradient
       x2="5.0145602"
       y2="1.66566"
       id="Grad95"
       x1="0.240216"
       gradientUnits="userSpaceOnUse"
       y1="1.66566">
      <stop
         offset="0%"
         stop-color="#8cd0f2"
         stop-opacity="1"
         id="stop689" />
      <stop
         offset="90.303%"
         stop-color="#63bae9"
         stop-opacity="1"
         id="stop691" />
      <stop
         offset="100%"
         stop-color="#63bae9"
         stop-opacity="1"
         id="stop693" />
    </linearGradient>
    <linearGradient
       x2="5.0143499"
       y2="1.66628"
       id="Grad96"
       x1="0.239702"
       gradientUnits="userSpaceOnUse"
       y1="1.66628">
      <stop
         offset="0%"
         stop-color="#8cd0f2"
         stop-opacity="1"
         id="stop696" />
      <stop
         offset="90.303%"
         stop-color="#63bae9"
         stop-opacity="1"
         id="stop698" />
      <stop
         offset="100%"
         stop-color="#63bae9"
         stop-opacity="1"
         id="stop700" />
    </linearGradient>
    <linearGradient
       x2="5.01474"
       y2="1.66562"
       id="Grad97"
       x1="0.240097"
       gradientUnits="userSpaceOnUse"
       y1="1.66562">
      <stop
         offset="0%"
         stop-color="#8cd0f2"
         stop-opacity="1"
         id="stop703" />
      <stop
         offset="90.303%"
         stop-color="#63bae9"
         stop-opacity="1"
         id="stop705" />
      <stop
         offset="100%"
         stop-color="#63bae9"
         stop-opacity="1"
         id="stop707" />
    </linearGradient>
    <linearGradient
       x2="5.0144701"
       y2="1.66585"
       id="Grad98"
       x1="0.239821"
       gradientUnits="userSpaceOnUse"
       y1="1.66585">
      <stop
         offset="0%"
         stop-color="#8cd0f2"
         stop-opacity="1"
         id="stop710" />
      <stop
         offset="90.303%"
         stop-color="#63bae9"
         stop-opacity="1"
         id="stop712" />
      <stop
         offset="100%"
         stop-color="#63bae9"
         stop-opacity="1"
         id="stop714" />
    </linearGradient>
    <linearGradient
       x2="5.0144"
       y2="1.66589"
       id="Grad99"
       x1="0.24006"
       gradientUnits="userSpaceOnUse"
       y1="1.66589">
      <stop
         offset="0%"
         stop-color="#8cd0f2"
         stop-opacity="1"
         id="stop717" />
      <stop
         offset="90.303%"
         stop-color="#63bae9"
         stop-opacity="1"
         id="stop719" />
      <stop
         offset="100%"
         stop-color="#63bae9"
         stop-opacity="1"
         id="stop721" />
    </linearGradient>
    <linearGradient
       x2="5.0144401"
       y2="1.66571"
       id="Grad100"
       x1="0.240097"
       gradientUnits="userSpaceOnUse"
       y1="1.66571">
      <stop
         offset="0%"
         stop-color="#8cd0f2"
         stop-opacity="1"
         id="stop724" />
      <stop
         offset="90.303%"
         stop-color="#63bae9"
         stop-opacity="1"
         id="stop726" />
      <stop
         offset="100%"
         stop-color="#63bae9"
         stop-opacity="1"
         id="stop728" />
    </linearGradient>
    <linearGradient
       x2="5.0149798"
       y2="1.6657"
       id="Grad101"
       x1="0.240336"
       gradientUnits="userSpaceOnUse"
       y1="1.6657">
      <stop
         offset="0%"
         stop-color="#8cd0f2"
         stop-opacity="1"
         id="stop731" />
      <stop
         offset="90.303%"
         stop-color="#63bae9"
         stop-opacity="1"
         id="stop733" />
      <stop
         offset="100%"
         stop-color="#63bae9"
         stop-opacity="1"
         id="stop735" />
    </linearGradient>
  </defs>
  <g
     inkscape:groupmode="layer"
     id="Background"
     inkscape:label="Background"
     transform="translate(-461.20102,-150.77036)">
    <g
       id="black_cloud_with_rain"
       style="fill:none;stroke:none"
       clip-path="url(#Clip9)"
       clip-rule="evenodd"
       transform="translate(461.201,147.614)">
      <path
         d="m 28.9991,23.9548 c -1.3121,0 -2.3329,-0.0438 -2.9596,-0.0806 C 25.3369,23.8327 24.425,23.8013 23.3675,23.7646 15.4886,23.4899 0.820194,22.9785 0.00868243,16.4848 l -0.004896,-0.0346 -0.001224,-0.0344 C -0.155334,11.8111 7.02709,10.0899 9.58648,9.62382 9.03201,7.11658 9.24253,3.01141 13.2254,1.0202 14.5596,0.353002 16.1386,0 17.7897,0 c 2.9952,0 5.9842,1.16047 7.7063,2.94201 0.0392,-0.02828 0.0796,-0.0568 0.12,-0.08593 1.0783,-0.77577 2.5569,-1.83783 4.7773,-1.83783 0.5361,0 1.0942,0.0634 1.6609,0.18959 2.5925,0.57638 3.508,2.69831 3.7026,4.22672 2.4125,0.0175 9.8924,0.73097 11.6856,8.65094 0.4431,1.954 0.0844,3.6741 -1.0637,5.1121 -3.3072,4.1394 -12.3085,4.7572 -17.3796,4.7572"
         style="fill:#486172;fill-rule:nonzero;stroke:none"
         transform="translate(0,3.15635)"
         id="path2599" />
      <path
         d="m 12.0426,36.7506 -0.0041,0.0023 -0.0123,0.0068 -0.0203,0.011 -0.0281,0.0149 -0.0357,0.0186 -0.0432,0.0222 -0.0503,0.0252 -0.0575,0.0281 -0.0643,0.0309 -0.0711,0.0333 -0.0776,0.0352 -0.0838,0.0374 -0.0901,0.0388 -0.096,0.0402 -0.1018,0.0414 -0.1074,0.0422 -0.1129,0.0427 -0.118,0.0431 -0.1232,0.0432 -0.128,0.043 -0.1327,0.0426 -0.1372,0.0417 -0.1415,0.0409 -0.1456,0.0397 -0.14965,0.0382 -0.15339,0.0364 -0.15699,0.0344 -0.16039,0.0322 -0.16363,0.0296 -0.16666,0.027 -0.16952,0.0237 -0.17221,0.0206 -0.17469,0.017 -0.177,0.0132 -0.17914,0.0091 -0.18108,0.0049 -0.18284,10e-5 L 7.68827,37.7977 7.50246,37.7881 7.31542,37.7729 7.12735,37.7522 6.93844,37.7255 6.74887,37.6928 6.5588,37.6537 6.36844,37.6079 6.17796,37.5551 5.98755,37.4953 5.79738,37.428 5.60766,37.3529 5.41854,37.2699 5.23023,37.1788 5.04288,37.0791 4.85671,36.9708 4.67189,36.8534 4.48859,36.7269 4.307,36.5907 4.12732,36.4448 3.9497,36.2889 3.77436,36.1228 3.60146,35.9461 3.43118,35.7585 3.26371,35.56 3.09924,35.3502 2.97273,35.1781 2.85084,35.0027 2.73358,34.8244 2.62091,34.6431 2.5128,34.459 2.40922,34.2722 2.31015,34.0829 2.21556,33.8911 2.12544,33.6971 2.03976,33.5009 1.95847,33.3026 1.88157,33.1023 1.80902,32.9004 1.74081,32.6968 1.6769,32.4917 1.61727,32.2851 1.5619,32.0772 1.51075,31.8683 1.46379,31.6583 1.42103,31.4474 1.38241,31.2357 1.34791,31.0234 1.31751,30.8107 1.29119,30.5974 1.26892,30.384 1.25066,30.1704 1.23641,29.9568 1.22612,29.7433 1.21978,29.5302 1.21736,29.3174 l 0.00147,-0.2123 0.00534,-0.2117 0.00919,-0.2109 0.013,-0.2099 0.0168,-0.2091 0.02055,-0.2077 0.02429,-0.2066 0.02801,-0.2052 0.0317,-0.2035 0.03536,-0.202 0.039,-0.2002 0.04261,-0.1982 0.04619,-0.1962 0.04975,-0.194 0.05329,-0.1918 0.0568,-0.1893 L 1.75098,25.8821 1.81473,25.698 1.88189,25.5167 1.95246,25.3384 2.02642,25.1631 2.10373,24.991 2.18435,24.8222 2.26829,24.657 2.3555,24.4952 2.44598,24.3372 2.53967,24.1829 2.63656,24.0328 2.73663,23.8866 2.83984,23.7446 2.94618,23.607 3.05562,23.4739 3.16813,23.3454 3.10778,23.2806 3.04521,23.2152 2.98053,23.1491 2.91385,23.0824 2.84535,23.0149 2.77513,22.9465 2.70333,22.877 2.63008,22.8067 2.55552,22.7352 2.47979,22.6626 2.40301,22.5888 2.32532,22.5136 2.24685,22.4373 2.16773,22.3593 2.08811,22.28 2.00809,22.1991 1.92785,22.1166 1.84748,22.0322 1.76715,21.9463 1.68695,21.8584 1.60706,21.7687 1.52759,21.677 1.44867,21.5834 1.37043,21.4876 1.29302,21.3896 1.21656,21.2894 1.14119,21.1868 1.06704,21.0819 0.994244,20.9746 0.922936,20.8648 0.853249,20.7523 0.785317,20.6373 0.719273,20.5195 0.655248,20.3989 0.593378,20.2756 0.533795,20.1492 0.476632,20.0199 0.422024,19.8874 0.370102,19.7519 0.321001,19.6133 0.274855,19.4714 0.231795,19.3261 0.191955,19.1774 0.155469,19.0252 0.12247,18.8696 0.093091,18.7103 0.0674655,18.5474 0.0457268,18.3807 0.0280082,18.2102 0.014443,18.0359 0.00516428,17.8575 3.05539e-4,17.6753 0,17.4889 0.00438095,17.2983 0.0227184,17.0158 0.0566615,16.7471 0.105247,16.4919 0.167511,16.2499 0.242489,16.0207 0.329221,15.804 0.426739,15.5995 0.534083,15.4067 0.650288,15.2256 0.774391,15.0554 0.905427,14.8961 1.04244,14.7472 l 0.14201,-0.1386 0.14606,-0.1289 0.14913,-0.1195 0.15127,-0.1103 0.15241,-0.1016 0.1526,-0.093 0.15182,-0.0851 0.15009,-0.0772 0.14739,-0.0698 0.14372,-0.0627 0.1391,-0.056 0.1335,-0.0496 0.12695,-0.0434 0.11944,-0.0377 0.11096,-0.0323 0.1015,-0.0273 0.09109,-0.0225 0.07973,-0.0182 0.0674,-0.014 L 3.5527,13.4492 3.59253,13.4421 3.61714,13.4382 3.62555,13.4369 3.62366,13.43 3.61822,13.4092 3.60954,13.375 3.59795,13.3278 3.58377,13.2678 3.56734,13.1956 3.54894,13.1114 3.52894,13.0155 3.50764,12.9084 3.48536,12.7906 3.46245,12.6622 3.4392,12.5236 3.41595,12.3753 3.39301,12.2174 3.37072,12.0506 3.3494,11.875 3.32938,11.6912 3.31096,11.4993 3.29447,11.2999 3.28025,11.0932 3.26861,10.8797 3.25987,10.6596 3.25436,10.4333 3.2524,10.2013 3.25431,9.96385 3.26043,9.72131 3.27107,9.47409 3.28654,9.22252 3.30719,8.96696 3.33332,8.70781 3.36527,8.44539 3.40336,8.18008 3.4479,7.91224 3.49923,7.64225 3.55767,7.37045 3.62353,7.09722 3.69714,6.82291 3.77883,6.54789 3.86893,6.27251 3.96773,5.99715 4.07559,5.72216 4.19281,5.44791 4.31973,5.17478 4.45666,4.9031 4.60393,4.63324 4.76185,4.36558 4.93076,4.10047 5.11098,3.83828 5.30282,3.57937 5.50663,3.32409 5.7227,3.07283 5.95138,2.82592 6.19297,2.58375 6.44782,2.34668 6.71623,2.11506 6.99854,1.88926 7.29505,1.66963 7.60612,1.45655 7.93203,1.25039 8.27314,1.05148 8.62975,0.860217 9.00219,0.676945 9.39079,0.502033 9.78381,0.346491 10.1695,0.220692 10.5478,0.12389 10.9189,0.0553381 11.2827,0.0142904 11.6394,0 l 0.3495,0.0117202 0.3425,0.0369844 0.3355,0.0615024 0.3286,0.085272 0.3216,0.108297 0.3148,0.130575 0.308,0.152107 0.3013,0.172891 0.2945,0.192929 0.288,0.212222 0.2814,0.23076 0.2748,0.24857 0.2683,0.26561 0.262,0.28192 0.2555,0.29748 0.2492,0.3123 0.243,0.32635 0.2368,0.33967 0.2307,0.35226 0.2244,0.36407 0.2184,0.37515 0.2125,0.38549 0.2065,0.39507 0.2006,0.40391 0.1947,0.41201 0.189,0.41934 0.1832,0.42595 0.1775,0.4318 0.172,0.43691 0.1663,0.44128 0.1609,0.44487 0.1553,0.44775 0.1499,0.44987 0.1446,0.45121 0.1393,0.4519 0.1339,0.4518 0.1287,0.4508 0.1237,0.4493 0.1186,0.4469 0.1134,0.4438 0.1085,0.4399 0.1035,0.4354 0.0987,0.43 0.0938,0.424 0.0891,0.417 0.0842,0.4096 0.0797,0.4011 0.0749,0.3921 0.0705,0.3823 0.0658,0.3716 0.0615,0.3603 0.057,0.3484 0.0526,0.3355 0.0484,0.3219 0.044,0.3076 0.0399,0.2927 0.0358,0.2767 0.0358,0.2781 0.0402,0.2968 0.0441,0.3147 0.0477,0.332 0.0509,0.3484 0.054,0.3643 0.0565,0.3794 0.059,0.3939 0.061,0.4076 0.0627,0.4206 0.0641,0.433 0.0652,0.4446 0.066,0.4556 0.0664,0.4657 0.0665,0.4753 0.0664,0.4841 0.066,0.4923 0.0651,0.4996 0.0639,0.5064 0.0625,0.5124 0.0608,0.5178 0.0587,0.5224 0.0564,0.5263 0.0536,0.5296 0.0506,0.5321 0.0473,0.5339 0.0436,0.535 0.0398,0.5355 0.0354,0.5353 0.0308,0.5341 0.0258,0.5326 0.0207,0.5302 0.0152,0.5271 0.0093,0.5234 0.0032,0.5188 -0.0034,0.5137 -0.0102,0.5079 -0.0173,0.5012 -0.0247,0.494 -0.0324,0.4861 -0.0405,0.4773 -0.0489,0.468 -0.0576,0.4579 -0.0666,0.447 -0.0759,0.4357 -0.0856,0.4234 -0.0954,0.4106 -0.1059,0.397 -0.1163,0.3827 -0.1273,0.3678 -0.1384,0.3521 -0.1501,0.3357 -0.1618,0.3186 -0.174,0.3009 -0.1866,0.2824 -0.1993,0.2631 -0.2124,0.2433 -0.2259,0.2228 -0.2395,0.2015 -0.2536,0.1794 -0.2681,0.1569 -0.2826,0.1335 -0.2978,0.1093 -0.2239,0.0419 -0.2214,0.0264 -0.2188,0.0113 -0.2164,-0.0033 -0.2137,-0.0172 -0.2111,-0.031 -0.2083,-0.0441 -0.2056,-0.0566 -0.203,-0.0688 -0.2001,-0.0806 -0.1972,-0.0916 -0.1945,-0.1024 -0.1915,-0.1126 -0.1885,-0.1224 -0.1857,-0.1315 -0.1826,-0.1403 -0.1797,-0.1487 -0.1765,-0.1565 -0.1734,-0.1637 -0.1703,-0.1705 -0.1672,-0.177 -0.1639,-0.1828 -0.1607,-0.1882 -0.1574,-0.193 -0.154,-0.1976 -0.1508,-0.2015 -0.1474,-0.2049 -0.1439,-0.2078 -0.1405,-0.2103 -0.137,-0.2123 -0.1334,-0.2139 -0.13,-0.2149 -0.1263,-0.2154 -0.1228,-0.2156 -0.1189,-0.215 -0.1153,-0.2142 -0.1117,-0.2129 -0.1078,-0.2109 -0.1042,-0.2086 -0.1001,-0.2057 -0.0963,-0.2025 -0.0926,-0.1986 -0.0883,-0.1944 -0.0846,-0.1895 -0.0805,-0.1843 -0.0764,-0.1786 -0.0725,-0.1724 -0.0682,-0.1656 -0.0641,-0.1586 -0.06,-0.1508 -0.0557,-0.1427 -0.0514,-0.134 -0.0471,-0.1248 -0.0429,-0.1155 -0.0385,-0.1051 -0.034,-0.0947 -0.0297,-0.0836 -0.0252,-0.072 -0.0207,-0.0601 -0.0161,-0.0475 -0.0116,-0.0346 -0.0069,-0.0211 z"
         style="fill:url(#Grad89);fill-rule:evenodd;stroke:none"
         transform="rotate(100.513,21.008351,24.463245)"
         id="path2601" />
      <path
         d="m 0,14.234 c 2.89109,-2.807 11.0417,-3.2607 11.0417,-3.2607 0,0 -3.09304,-7.01058 1.9817,-9.54793 4.0135,-2.007605 8.8948,0.43758 11.0637,3.27604 1.3354,-0.83501 3.011,-3.26159 6.3978,-2.50871 3.2987,0.73281 2.1323,4.5157 2.1323,4.5157 0,0 10.9168,-0.69254 12.9205,8.1534 0.0906,0.3999 0.1432,0.7802 0.1603,1.1427 0.1751,-0.7525 0.1763,-1.5897 -0.0355,-2.5223 C 43.6601,4.63605 33.9966,5.4538 33.9966,5.4538 c 0,0 0.164,-3.53136 -3.1359,-4.26491 C 27.4739,0.4365 25.6734,2.36088 24.338,3.19626 22.1691,0.358164 16.5607,-1.0689 12.5472,0.938218 7.4713,3.47594 9.53863,9.47599 9.53863,9.47599 c 0,0 -8.01353,1.04591 -9.53863,4.75801"
         style="fill:#7885a7;fill-rule:nonzero;stroke:none"
         transform="translate(1.0246,3.93038)"
         id="path2603" />
      <path
         d="M 1.4023,4.90653 C 0.539378,4.76699 -0.0493669,3.99097 0.00326511,3.06196 0.0632411,2.02278 1.56264,0.495475 1.734,0.325094 L 2.05836,0 2.29215,0.396331 C 2.42067,0.61506 3.5443,2.56257 3.31786,3.58338 3.111,4.51117 2.32397,5.05585 1.4023,4.90653"
         style="fill:#2489ca;fill-rule:nonzero;stroke:none"
         transform="translate(12.2491,37.5902)"
         id="path2605" />
      <path
         d="M 3.07439,0.123947 3.25378,0.223926 3.41106,0.340154 3.54578,0.470903 3.65748,0.614443 3.74573,0.769044 3.81007,0.932978 3.85004,1.10451 3.86522,1.28192 3.85512,1.46348 3.81932,1.64746 3.75736,1.83211 3.67127,2.00622 3.5654,2.1597 3.44192,2.29232 3.30293,2.40381 3.15058,2.49395 2.98698,2.56248 2.81426,2.60916 2.63456,2.63375 2.45002,2.63601 2.26275,2.61568 2.07488,2.57252 1.93829,2.52137 1.79862,2.4485 1.65693,2.35657 1.51435,2.24819 1.37192,2.126 1.23078,1.99264 1.092,1.85071 0.956677,1.70287 0.825903,1.55173 0.700769,1.39994 0.582369,1.25011 0.471796,1.10489 0.370139,0.9669 0.278493,0.838775 0.197949,0.723144 0.1296,0.622638 0.0745385,0.539887 0.0338565,0.477522 0.00864615,0.438174 0,0.424473 0.0113543,0.420943 0.0443706,0.410875 0.0974796,0.395053 0.169112,0.374264 0.257697,0.349292 0.361666,0.320922 0.479449,0.289937 0.609476,0.257126 0.75018,0.22327 0.899988,0.189156 1.05733,0.155568 1.22064,0.123292 1.38835,0.0931113 1.55889,0.0658117 1.73067,0.0421779 1.90216,0.022995 2.07174,0.00904784 2.23789,0.00112119 2.39902,0 2.55356,0.00646917 2.69992,0.0213136 2.83657,0.0453182 2.96192,0.0792678 Z"
         style="fill:url(#Grad90);fill-rule:evenodd;stroke:none"
         transform="rotate(76.9822,-16.615301,28.246165)"
         id="path2607" />
      <path
         d="M 1.4023,4.90702 C 0.539378,4.76748 -0.0493669,3.99146 0.00326511,3.06245 0.0632411,2.02327 1.56264,0.496944 1.73278,0.325584 L 2.05836,0 2.29215,0.396576 C 2.42067,0.615672 3.5443,2.56306 3.31664,3.58387 3.111,4.51166 2.32397,5.05634 1.4023,4.90702"
         style="fill:#2489ca;fill-rule:nonzero;stroke:none"
         transform="translate(25.9787,41.4477)"
         id="path2609" />
      <path
         d="M 3.07424,0.124443 3.2537,0.224125 3.41103,0.340112 3.54579,0.470665 3.65753,0.614054 3.74581,0.768541 3.81017,0.932393 3.85015,1.10388 3.86533,1.28125 3.85525,1.46279 3.81944,1.64676 3.75748,1.83141 3.67141,2.00552 3.56562,2.15903 3.44223,2.29167 3.30336,2.40319 3.1511,2.49335 2.98758,2.56189 2.81491,2.60859 2.6352,2.63318 2.45057,2.63541 2.26313,2.61504 2.075,2.57182 1.93841,2.52067 1.79873,2.4478 1.65705,2.35587 1.51444,2.2475 1.37203,2.1253 1.23088,1.99193 1.09209,1.85 0.956754,1.70216 0.825971,1.55102 0.700829,1.39923 0.582421,1.2494 0.471837,1.10417 0.370172,0.966184 0.278519,0.838057 0.197967,0.722424 0.129613,0.621917 0.0745458,0.539165 0.0338598,0.476798 0.00864702,0.43745 0,0.423749 0.0113608,0.42022 0.0443956,0.410156 0.0975331,0.394343 0.169202,0.373567 0.257831,0.34861 0.361847,0.32026 0.479682,0.289299 0.609763,0.256515 0.750516,0.222691 0.900374,0.188612 1.05776,0.155065 1.22111,0.122833 1.38885,0.0927033 1.55941,0.0654587 1.73121,0.0418849 1.90268,0.0227673 2.07227,0.00889044 2.23838,0.00103969 2.39946,0 2.55391,0.00655639 2.70019,0.0214939 2.83673,0.0455975 2.96193,0.0796524 Z"
         style="fill:url(#Grad91);fill-rule:evenodd;stroke:none"
         transform="rotate(76.9822,-12.176772,38.807763)"
         id="path2611" />
      <path
         d="M 1.4023,4.90702 C 0.53816,4.76626 -0.0493609,3.99024 0.00327118,3.06245 0.0620231,2.02205 1.56142,0.49572 1.73278,0.32436 L 2.05714,0 2.29092,0.396576 C 2.42067,0.614448 3.5443,2.56183 3.31664,3.58265 3.111,4.51166 2.32275,5.05634 1.4023,4.90702"
         style="fill:#2489ca;fill-rule:nonzero;stroke:none"
         transform="translate(17.1965,43.9141)"
         id="path2613" />
      <path
         d="M 3.07424,0.124552 3.25366,0.224255 3.4109,0.340299 3.54552,0.47094 3.65709,0.614437 3.74517,0.769045 3.80933,0.933022 3.84913,1.10462 3.86413,1.28212 3.8539,1.46373 3.81801,1.64776 3.75602,1.83244 3.67027,2.00634 3.56469,2.15971 3.44141,2.29227 3.30255,2.40375 3.15025,2.49389 2.98665,2.56242 2.81388,2.60907 2.63408,2.6336 2.44937,2.6357 2.2619,2.61515 2.0738,2.57166 1.93719,2.52067 1.79751,2.44794 1.65584,2.35611 1.51327,2.24781 1.3709,2.12568 1.22981,1.99234 1.09111,1.85044 0.955863,1.7026 0.825173,1.55146 0.700129,1.39964 0.581821,1.24979 0.471338,1.10453 0.36977,0.9665 0.278209,0.838331 0.197742,0.722657 0.129462,0.62211 0.0744575,0.539324 0.0338189,0.476932 0.00863641,0.437564 0,0.423858 0.0113549,0.420326 0.0443728,0.410259 0.0974843,0.394441 0.169119,0.373655 0.257707,0.348689 0.36168,0.320328 0.479467,0.289357 0.609497,0.256561 0.750203,0.222726 0.900012,0.188637 1.05736,0.15508 1.22067,0.122838 1.38837,0.0927001 1.5589,0.0654494 1.73069,0.0418718 1.90216,0.0227527 2.07174,0.0088774 2.23788,0.00103138 2.39899,0 2.55351,0.00656864 2.69985,0.0215227 2.83647,0.0456476 2.96179,0.0797287 Z"
         style="fill:url(#Grad92);fill-rule:evenodd;stroke:none"
         transform="rotate(76.9822,-18.118599,34.518846)"
         id="path2615" />
      <path
         d="M 1.7729,6.19993 C 0.681094,6.02281 -0.0630978,5.04239 0.00422216,3.86906 0.0788862,2.55608 1.97364,0.626688 2.18906,0.411019 L 2.60033,0 2.89531,0.500861 C 3.0581,0.77724 4.47794,3.23736 4.19153,4.52684 3.93081,5.70029 2.9357,6.38806 1.7729,6.19993"
         style="fill:#2489ca;fill-rule:nonzero;stroke:none"
         transform="translate(30.9178,18.7186)"
         id="path2617" />
      <path
         d="M 3.88482,0.157267 4.05379,0.247761 4.20779,0.349598 4.34661,0.46192 4.47002,0.58387 4.5778,0.714588 4.66971,0.853217 4.74553,0.9989 4.80507,1.15078 4.84807,1.30799 4.87431,1.46968 4.88358,1.63499 4.87564,1.80307 4.8503,1.97305 4.8073,2.14408 4.74643,2.31529 4.66338,2.49011 4.56452,2.64894 4.45115,2.79165 4.32459,2.91804 4.18613,3.02798 4.03709,3.12129 3.87878,3.1978 3.7125,3.25736 3.53956,3.29978 3.36128,3.32492 3.17894,3.33262 2.99387,3.32269 2.80737,3.295 2.62076,3.24934 2.48843,3.20238 2.35361,3.13869 2.2169,3.05983 2.07896,2.96728 1.94039,2.86258 1.80185,2.74723 1.66394,2.62274 1.52729,2.49063 1.39256,2.35242 1.26033,2.20961 1.13125,2.06373 1.00595,1.91628 0.885058,1.76879 0.7692,1.62277 0.659002,1.47972 0.555093,1.34116 0.458099,1.20862 0.368652,1.0836 0.287376,0.967616 0.2149,0.862184 0.151852,0.768818 0.0988592,0.689031 0.0565499,0.624339 0.0255519,0.576256 0.00649259,0.546296 0,0.535972 0.00922788,0.533097 0.0362341,0.524811 0.0800025,0.511621 0.139516,0.494035 0.213761,0.472561 0.30172,0.447705 0.402374,0.419978 0.514712,0.389886 0.637714,0.357937 0.770365,0.324638 0.911649,0.290498 1.06055,0.256024 1.21605,0.221724 1.37713,0.188106 1.54279,0.155677 1.712,0.124945 1.88374,0.0964183 2.05701,0.0706046 2.23076,0.0480114 2.40402,0.0291466 2.57575,0.014518 2.74493,0.00463316 2.91055,0 3.07159,0.00112625 3.22704,0.00851969 3.37588,0.0226881 3.51709,0.0441392 3.64966,0.0733808 3.77258,0.110921 Z"
         style="fill:url(#Grad93);fill-rule:evenodd;stroke:none"
         transform="rotate(76.9704,4.8182705,31.01382)"
         id="path2619" />
      <path
         d="M 1.77168,6.19968 C 0.681095,6.02281 -0.0630977,5.04276 0.00422226,3.86943 0.0788863,2.55608 1.97241,0.626688 2.18784,0.411142 L 2.5991,0 2.89531,0.500861 C 3.0581,0.77724 4.47794,3.23736 4.1903,4.52696 3.92959,5.70066 2.9357,6.38879 1.77168,6.19968"
         style="fill:#2489ca;fill-rule:nonzero;stroke:none"
         transform="translate(22.553,18.0693)"
         id="path2621" />
      <path
         d="M 3.88514,0.157974 4.05401,0.248227 4.20794,0.349884 4.34669,0.462081 4.47006,0.583948 4.5778,0.714619 4.66969,0.853226 4.74552,0.998902 4.80504,1.15078 4.84804,1.30799 4.8743,1.46967 4.88358,1.63495 4.87566,1.80294 4.85031,1.97282 4.80731,2.14368 4.74643,2.31467 4.66333,2.4897 4.56443,2.6487 4.45104,2.79152 4.32447,2.91798 4.18602,3.02794 4.03698,3.12126 3.8787,3.19779 3.71243,3.25735 3.53953,3.29979 3.36126,3.32498 3.17895,3.33274 2.9939,3.32294 2.80743,3.29541 2.62083,3.24999 2.4885,3.20288 2.35367,3.13908 2.21696,3.06009 2.07901,2.96744 1.94044,2.86263 1.80189,2.74718 1.66398,2.62262 1.52733,2.49044 1.39257,2.35215 1.26034,2.20928 1.13126,2.06336 1.00596,1.91587 0.885068,1.76833 0.769207,1.62227 0.659008,1.47919 0.555096,1.34061 0.458103,1.20805 0.368654,1.08301 0.287377,0.967019 0.214901,0.861577 0.151852,0.768204 0.0988594,0.688413 0.05655,0.623719 0.0255519,0.575634 0.00649259,0.545673 0,0.535349 0.00922867,0.532474 0.0362371,0.524189 0.0800092,0.511 0.139529,0.493418 0.213779,0.471947 0.301744,0.447099 0.402408,0.419379 0.514754,0.389297 0.637768,0.35736 0.77043,0.324077 0.911726,0.289955 1.06064,0.255503 1.21615,0.221227 1.37726,0.187637 1.54293,0.155241 1.71214,0.124546 1.8839,0.0960611 2.05718,0.0702935 2.23096,0.0477514 2.40423,0.0289431 2.57596,0.0143764 2.74516,0.00455933 2.91079,0 3.07185,0.00120641 3.22731,0.00868658 3.37616,0.0229485 3.51738,0.0445004 3.64997,0.0738499 3.77289,0.111505 Z"
         style="fill:url(#Grad94);fill-rule:evenodd;stroke:none"
         transform="rotate(76.9703,1.043844,25.428086)"
         id="path2623" />
      <path
         d="M 1.77153,6.19993 C 0.680954,6.02281 -0.0620142,5.04251 0.00408177,3.86919 0.0787458,2.55608 1.97349,0.626443 2.18892,0.410897 L 2.60018,0 2.89516,0.500738 C 3.05796,0.77724 4.4778,3.23772 4.19138,4.52721 3.93067,5.7009 2.93556,6.38842 1.77153,6.19993"
         style="fill:#2489ca;fill-rule:nonzero;stroke:none"
         transform="translate(24.3549,27.3558)"
         id="path2625" />
      <path
         d="m 3.88554,0.157357 0.16887,0.090474 0.15393,0.101816 0.13874,0.112299 0.12336,0.121922 0.10772,0.130685 0.09188,0.138586 0.07581,0.14563 0.05951,0.151811 0.043,0.15713 0.02627,0.1616 0.0093,0.1652 L 4.87605,1.80245 4.85075,1.97227 4.80784,2.14311 4.74705,2.31411 4.66387,2.48913 4.5649,2.6481 4.45146,2.79089 4.32484,2.91736 4.18637,3.02732 4.03733,3.12064 3.87903,3.19715 3.71277,3.25671 3.53987,3.29917 3.36162,3.32435 3.17933,3.33212 2.9943,3.32232 2.80782,3.29479 2.62123,3.24938 2.48889,3.20227 2.35406,3.13848 2.21734,3.05952 2.07938,2.96689 1.9408,2.86213 1.80223,2.74673 1.6643,2.6222 1.52764,2.49008 1.39286,2.35185 1.26061,2.20905 1.13151,2.06319 1.00618,1.91576 0.885267,1.76829 0.769382,1.6223 0.659159,1.47929 0.555227,1.34078 0.458213,1.20828 0.368743,1.0833 0.287448,0.967359 0.214954,0.861968 0.151891,0.76864 0.0988846,0.688887 0.0565647,0.624224 0.0255585,0.576163 0.0064943,0.546216 0,0.535898 0.00922791,0.533023 0.0362343,0.524736 0.0800032,0.511546 0.139519,0.49396 0.213764,0.472486 0.301725,0.447633 0.402384,0.419905 0.514725,0.389815 0.637733,0.357866 0.770392,0.324569 0.911684,0.290431 1.0606,0.255959 1.21611,0.221663 1.37721,0.188048 1.54288,0.155623 1.71211,0.124896 1.88387,0.0963738 2.05715,0.0705657 2.23095,0.0479788 2.40423,0.029121 2.57599,0.0145001 2.74521,0.00462384 2.91087,0 3.07196,0.00113642 3.22746,0.0085409 3.37634,0.0227212 3.51762,0.0441853 3.65025,0.0734407 3.77322,0.110996 Z"
         style="fill:url(#Grad95);fill-rule:evenodd;stroke:none"
         transform="rotate(76.9704,-3.8953704,31.204646)"
         id="path2627" />
      <path
         d="M 1.77168,6.19956 C 0.681095,6.02294 -0.0630977,5.04215 0.00422226,3.86906 0.0788863,2.55583 1.97241,0.626688 2.18784,0.411142 L 2.5991,0 2.89531,0.500616 C 3.05688,0.77724 4.47672,3.23748 4.1903,4.5266 3.93081,5.70029 2.9357,6.38842 1.77168,6.19956"
         style="fill:#2489ca;fill-rule:nonzero;stroke:none"
         transform="translate(35.5617,27.2317)"
         id="path2629" />
      <path
         d="M 3.88502,0.157971 4.05395,0.248237 4.20793,0.349906 4.34672,0.462109 4.4701,0.583981 4.57785,0.714654 4.66974,0.853261 4.74557,0.998937 4.80509,1.15081 4.84808,1.30802 4.87434,1.46969 4.88361,1.63497 4.87569,1.80298 4.85036,1.97286 4.80738,2.14373 4.74654,2.31473 4.6634,2.48975 4.56448,2.64874 4.45108,2.79154 4.3245,2.918 4.18604,3.02798 4.03702,3.1213 3.87873,3.19782 3.71249,3.25738 3.53958,3.29983 3.3613,3.32501 3.17897,3.33277 2.9939,3.32296 2.80738,3.29541 2.62072,3.24999 2.4884,3.20289 2.35359,3.13908 2.21691,3.0601 2.07898,2.96745 1.94042,2.86265 1.80189,2.74721 1.66398,2.62264 1.52734,2.49046 1.39259,2.35217 1.26037,2.20932 1.13129,2.06338 1.00599,1.91589 0.885099,1.76836 0.769236,1.6223 0.659036,1.47922 0.555123,1.34065 0.458126,1.20808 0.368674,1.08304 0.287394,0.967047 0.214914,0.861604 0.151862,0.76823 0.0988662,0.688439 0.0565541,0.623743 0.0255538,0.575658 0.00649309,0.545697 0,0.535374 0.00922827,0.532499 0.0362357,0.524212 0.0800059,0.511024 0.139523,0.49344 0.21377,0.47197 0.301732,0.44712 0.402392,0.419399 0.514734,0.389316 0.637742,0.357379 0.770399,0.324093 0.911689,0.28997 1.0606,0.255516 1.21611,0.221239 1.3772,0.187649 1.54286,0.155251 1.71208,0.124554 1.88382,0.0960683 2.0571,0.0702993 2.23087,0.0477561 2.40413,0.0289464 2.57587,0.0143786 2.74505,0.00456035 2.91068,0 3.07174,0.00120547 3.2272,0.00868482 3.37605,0.0229461 3.51726,0.0444973 3.64985,0.0738465 3.77277,0.111502 Z"
         style="fill:url(#Grad96);fill-rule:evenodd;stroke:none"
         transform="rotate(76.9703,1.7858971,38.190626)"
         id="path2631" />
      <path
         d="M 1.77276,6.19956 C 0.682172,6.02281 -0.0620203,5.04264 0.00407568,3.86931 0.0799637,2.55608 1.97349,0.626688 2.18892,0.411019 L 2.60018,0 2.89516,0.501106 C 3.05796,0.77724 4.4778,3.23772 4.19138,4.52721 3.93067,5.70078 2.93678,6.3883 1.77276,6.19956"
         style="fill:#2489ca;fill-rule:nonzero;stroke:none"
         transform="translate(16.6412,26.0569)"
         id="path2633" />
      <path
         d="M 3.88542,0.157319 4.05432,0.24758 4.20827,0.349243 4.34702,0.461439 4.47039,0.583306 4.57811,0.713974 4.66999,0.852576 4.7458,0.998248 4.80531,1.15012 4.84831,1.30733 4.87458,1.46901 4.88388,1.63428 4.876,1.8023 4.85072,1.97219 4.80781,2.14308 4.74705,2.31411 4.66384,2.48913 4.56485,2.64815 4.45137,2.791 4.32472,2.91754 4.1862,3.02758 4.03713,3.12098 3.87881,3.19757 3.71253,3.25717 3.5396,3.29965 3.36134,3.32482 3.17903,3.33255 2.99401,3.32263 2.80756,3.29495 2.62099,3.24932 2.48866,3.20234 2.35384,3.13867 2.21713,3.0598 2.07918,2.96726 1.94062,2.86254 1.80206,2.74719 1.66414,2.6227 1.52748,2.49058 1.39273,2.35237 1.26049,2.20956 1.1314,2.06368 1.00608,1.91623 0.885177,1.76873 0.769305,1.62271 0.659093,1.47966 0.555171,1.3411 0.458165,1.20855 0.368706,1.08353 0.287418,0.967541 0.214932,0.862106 0.151875,0.768738 0.0988744,0.688949 0.0565587,0.624256 0.0255559,0.576172 0.00649361,0.54621 0,0.535887 0.00922867,0.533012 0.0362373,0.524726 0.0800095,0.511537 0.13953,0.493953 0.21378,0.47248 0.301747,0.447627 0.402412,0.419902 0.514761,0.389812 0.637775,0.357866 0.770439,0.324571 0.911739,0.290433 1.06066,0.255963 1.21618,0.221668 1.37728,0.188053 1.54295,0.155629 1.71218,0.124903 1.88394,0.0963814 2.05724,0.0705733 2.23102,0.0479859 2.4043,0.0291272 2.57605,0.0145048 2.74526,0.00462641 2.91092,0 3.07198,0.00113323 3.22747,0.00853385 3.37634,0.0227096 3.51758,0.0441684 3.65019,0.0734177 3.77314,0.110966 Z"
         style="fill:url(#Grad97);fill-rule:evenodd;stroke:none"
         transform="rotate(76.9703,-6.9353598,25.704034)"
         id="path2635" />
      <path
         d="M 1.77168,6.19907 C 0.681095,6.02281 -0.0630977,5.04239 0.00422226,3.86857 0.0788863,2.55632 1.97241,0.626688 2.18784,0.411019 L 2.5991,0 2.89409,0.500861 C 3.05688,0.77724 4.47794,3.23699 4.1903,4.52709 3.92959,5.7009 2.9357,6.38879 1.77168,6.19907"
         style="fill:#2489ca;fill-rule:nonzero;stroke:none"
         transform="translate(19.8369,35.5742)"
         id="path2637" />
      <path
         d="M 3.88466,0.157435 4.05373,0.247731 4.20779,0.349423 4.34667,0.461645 4.4701,0.58353 4.57788,0.71421 4.6698,0.852821 4.74562,0.998495 4.80512,1.15037 4.84809,1.30756 4.8743,1.46923 4.88352,1.63449 4.87555,1.80249 4.85015,1.97235 4.8071,2.1432 4.74618,2.31419 4.66318,2.48924 4.56434,2.64826 4.451,2.79107 4.32445,2.91754 4.18599,3.02752 4.03695,3.12083 3.87862,3.19733 3.71231,3.25688 3.53933,3.29932 3.36098,3.32448 3.17858,3.33223 2.99343,3.3224 2.80684,3.29484 2.62012,3.2494 2.48787,3.2023 2.3531,3.13852 2.21646,3.05955 2.07857,2.9669 1.94006,2.86212 1.80156,2.74668 1.6637,2.62211 1.52709,2.48995 1.39237,2.35167 1.26018,2.20882 1.13113,2.06289 1.00585,1.9154 0.884979,1.76788 0.769137,1.62182 0.658954,1.47875 0.555056,1.34018 0.458073,1.20762 0.368633,1.08258 0.287363,0.966587 0.214892,0.861146 0.151847,0.767774 0.0988568,0.687983 0.0565489,0.623289 0.0255515,0.575204 0.00649255,0.545243 0,0.53492 0.00922737,0.53205 0.0362321,0.523774 0.0799981,0.510603 0.139509,0.493042 0.21375,0.471599 0.301703,0.446781 0.402353,0.419094 0.514683,0.389047 0.63768,0.357149 0.770324,0.323902 0.911601,0.289817 1.06049,0.255401 1.21599,0.221161 1.37706,0.187602 1.54272,0.155235 1.71191,0.124564 1.88365,0.0960977 2.05691,0.0703433 2.23065,0.0478078 2.40391,0.0289985 2.57563,0.0144226 2.7448,0.00458741 2.91041,0 3.07144,0.00116766 3.22689,0.00859763 3.37573,0.0227971 3.51694,0.0442733 3.64952,0.0735336 3.77242,0.111085 Z"
         style="fill:url(#Grad98);fill-rule:evenodd;stroke:none"
         transform="rotate(76.9703,-11.323725,32.472173)"
         id="path2639" />
      <path
         d="M 1.77168,6.20005 C 0.681095,6.02294 -0.0630977,5.04251 0.00422226,3.86919 0.0788863,2.55583 1.97241,0.626443 2.18784,0.410897 L 2.5991,0 2.89409,0.500861 C 3.05688,0.776995 4.47672,3.23785 4.1903,4.52733 3.93081,5.70066 2.9357,6.38818 1.77168,6.20005"
         style="fill:#2489ca;fill-rule:nonzero;stroke:none"
         transform="translate(7.8454,27.3554)"
         id="path2641" />
      <path
         d="M 3.8849,0.157476 4.05388,0.247752 4.20787,0.349426 4.34668,0.461634 4.47006,0.583508 4.57782,0.714181 4.66972,0.852789 4.74553,0.998463 4.80506,1.15034 4.84806,1.30755 4.87432,1.46923 4.88363,1.63451 4.87573,1.80252 4.85045,1.9724 4.80754,2.1433 4.74678,2.31431 4.66356,2.48932 4.56458,2.6483 4.45112,2.79109 4.32449,2.91754 4.18599,3.0275 4.03694,3.12081 3.87862,3.19732 3.71234,3.25688 3.53942,3.29933 3.36114,3.32451 3.17881,3.33227 2.99374,3.32246 2.80724,3.29492 2.6206,3.2495 2.48828,3.20239 2.35347,3.13859 2.21679,3.05961 2.07887,2.96696 1.94032,2.86215 1.80178,2.74672 1.66388,2.62215 1.52725,2.48997 1.39251,2.3517 1.26029,2.20883 1.13122,2.06289 1.00593,1.91541 0.885039,1.76788 0.769184,1.62182 0.658989,1.47874 0.555083,1.34017 0.458093,1.20761 0.368647,1.08257 0.287373,0.966574 0.214898,0.861134 0.151851,0.767761 0.0988586,0.687971 0.0565497,0.623275 0.0255517,0.575192 0.00649257,0.545231 0,0.534906 0.00922699,0.532036 0.0362306,0.523761 0.0799951,0.510589 0.139504,0.493027 0.213742,0.471584 0.301693,0.446765 0.402341,0.419078 0.51467,0.389031 0.637664,0.357131 0.770306,0.323885 0.911583,0.2898 1.06048,0.255384 1.21597,0.221143 1.37705,0.187585 1.54269,0.155218 1.7119,0.124548 1.88364,0.0960828 2.05691,0.0703298 2.23067,0.0477962 2.40392,0.0289892 2.57565,0.0144159 2.74484,0.00458381 2.91048,0 3.07153,0.00117179 3.22699,0.00860643 3.37585,0.0228112 3.51709,0.0442933 3.64969,0.0735601 3.77263,0.111119 Z"
         style="fill:url(#Grad99);fill-rule:evenodd;stroke:none"
         transform="rotate(76.9704,-12.15052,20.820995)"
         id="path2643" />
      <path
         d="M 1.77276,6.19993 C 0.682172,6.02281 -0.0620203,5.04239 0.00407568,3.86882 0.0799637,2.55608 1.97349,0.626321 2.18892,0.410774 L 2.60018,0 2.89516,0.500861 C 3.05796,0.776995 4.4778,3.23736 4.19138,4.52684 3.93067,5.70029 2.93556,6.38806 1.77276,6.19993"
         style="fill:#2489ca;fill-rule:nonzero;stroke:none"
         transform="translate(12.602,18.7186)"
         id="path2645" />
      <path
         d="m 3.88482,0.157267 0.16897,0.090494 0.154,0.101834 0.13883,0.112316 0.1234,0.121936 L 4.5778,0.714544 4.66972,0.853141 4.74557,0.998779 4.80511,1.1506 4.84812,1.30773 4.87438,1.46933 4.88369,1.63453 4.87579,1.80246 4.85047,1.97228 4.80752,2.14311 4.7467,2.31411 4.6636,2.48914 4.56471,2.64814 4.45132,2.79094 4.32473,2.9174 4.18628,3.02737 4.03724,3.12069 3.87893,3.1972 3.71265,3.25676 3.5397,3.29921 3.36141,3.32437 3.17906,3.33213 2.99395,3.32232 2.80743,3.29478 2.62076,3.24934 2.48843,3.20238 2.35361,3.13869 2.2169,3.05983 2.07896,2.96728 1.94039,2.86258 1.80185,2.74723 1.66394,2.62274 1.52729,2.49063 1.39256,2.35242 1.26033,2.20961 1.13125,2.06373 1.00595,1.91628 0.885058,1.76879 0.7692,1.62277 0.659002,1.47972 0.555093,1.34116 0.458099,1.20862 0.368652,1.0836 0.287376,0.967616 0.2149,0.862184 0.151852,0.768818 0.0988592,0.689031 0.0565499,0.624339 0.0255519,0.576256 0.00649259,0.546296 0,0.535972 0.00922788,0.533097 0.0362341,0.524811 0.0800025,0.511621 0.139516,0.494035 0.213761,0.472561 0.30172,0.447705 0.402374,0.419978 0.514712,0.389886 0.637714,0.357937 0.770365,0.324638 0.911649,0.290498 1.06055,0.256024 1.21605,0.221724 1.37713,0.188106 1.54279,0.155677 1.712,0.124945 1.88374,0.0964183 2.05701,0.0706046 2.23076,0.0480114 2.40402,0.0291466 2.57575,0.014518 2.74493,0.00463316 2.91055,0 3.07159,0.00112625 3.22704,0.00851969 3.37588,0.0226881 3.51709,0.0441392 3.64966,0.0733808 3.77258,0.110921 Z"
         style="fill:url(#Grad100);fill-rule:evenodd;stroke:none"
         transform="rotate(76.9704,-4.3397295,19.49453)"
         id="path2647" />
      <path
         d="M 1.77168,6.19907 C 0.681095,6.02281 -0.0630977,5.04239 0.00422226,3.86931 0.0788863,2.55608 1.97241,0.626566 2.18784,0.411019 L 2.5991,0 2.89409,0.500494 C 3.05688,0.77675 4.47672,3.23736 4.1903,4.52709 3.92959,5.69968 2.9357,6.38879 1.77168,6.19907"
         style="fill:#2489ca;fill-rule:nonzero;stroke:none"
         transform="translate(30.2067,34.3612)"
         id="path2649" />
      <path
         d="M 3.88529,0.157316 4.05415,0.247564 4.20808,0.349221 4.34684,0.46142 4.47022,0.583291 4.57799,0.713969 4.66991,0.852583 4.74578,0.998266 4.80534,1.15015 4.84837,1.30737 4.87467,1.46906 4.88397,1.63433 4.87606,1.80234 4.85072,1.97222 4.80771,2.14308 4.74682,2.31407 4.66381,2.48913 4.56498,2.64814 4.45164,2.79095 4.32509,2.91743 4.18664,3.02739 4.0376,3.12071 3.87928,3.19722 3.71298,3.25677 3.54003,3.29922 3.3617,3.32438 3.17933,3.33213 2.99421,3.32232 2.80766,3.29476 2.62099,3.24934 2.48869,3.20224 2.35389,3.13846 2.2172,3.0595 2.07927,2.96688 1.94071,2.86212 1.80217,2.74673 1.66426,2.62221 1.5276,2.49008 1.39285,2.35187 1.26061,2.20906 1.13151,2.0632 1.0062,1.91578 0.885281,1.76831 0.7694,1.62231 0.659179,1.47931 0.555247,1.34079 0.45823,1.20829 0.368759,1.08332 0.287463,0.967375 0.214966,0.861984 0.1519,0.768655 0.098891,0.688901 0.0565685,0.624238 0.0255604,0.576176 0.0064948,0.54623 0,0.535911 0.00922829,0.533036 0.0362357,0.52475 0.0800061,0.51156 0.139524,0.493975 0.213772,0.472501 0.301734,0.447647 0.402396,0.419921 0.51474,0.389831 0.637749,0.357883 0.770409,0.324586 0.911703,0.290449 1.06061,0.255978 1.21613,0.22168 1.37723,0.188065 1.5429,0.155639 1.71212,0.124912 1.88388,0.0963887 2.05715,0.0705791 2.23095,0.0479905 2.40422,0.0291305 2.57597,0.0145068 2.74516,0.00462745 2.91081,0 3.07189,0.00113229 3.22736,0.00853209 3.37622,0.0227072 3.51747,0.0441653 3.65008,0.0734143 3.77302,0.110962 Z"
         style="fill:url(#Grad101);fill-rule:evenodd;stroke:none"
         transform="rotate(76.9703,-5.375717,38.386965)"
         id="path2651" />
    </g>
  </g>
</svg>
