<?xml version="1.0" encoding="UTF-8" standalone="no"?>
<svg
   width="106.04001pt"
   height="106.04pt"
   version="1.1"
   viewBox="0 0 106.04001 106.04"
   id="svg233565"
   sodipodi:docname="Document-3-page001.svg"
   inkscape:version="1.2.2 (b0a8486541, 2022-12-01)"
   inkscape:export-filename="../Github Repos/own-weather-app/src/assets/icons/Document-3-page001.svg"
   inkscape:export-xdpi="96"
   inkscape:export-ydpi="96"
   xmlns:inkscape="http://www.inkscape.org/namespaces/inkscape"
   xmlns:sodipodi="http://sodipodi.sourceforge.net/DTD/sodipodi-0.dtd"
   xmlns="http://www.w3.org/2000/svg"
   xmlns:svg="http://www.w3.org/2000/svg">
  <sodipodi:namedview
     id="namedview233567"
     pagecolor="#00000f"
     bordercolor="#000000"
     borderopacity="0.25"
     inkscape:showpageshadow="2"
     inkscape:pageopacity="0"
     inkscape:pagecheckerboard="0"
     inkscape:deskcolor="#d1d1d1"
     inkscape:document-units="pt"
     showgrid="false"
     inkscape:zoom="0.7594697"
     inkscape:cx="408.17955"
     inkscape:cy="528"
     inkscape:window-width="1920"
     inkscape:window-height="1014"
     inkscape:window-x="0"
     inkscape:window-y="0"
     inkscape:window-maximized="1"
     inkscape:current-layer="Background" />
  <defs
     id="defs233522" />
  <g
     inkscape:groupmode="layer"
     id="Background"
     inkscape:label="Background"
     transform="translate(-333.13199,-68.499702)">
    <path
       d="M 53.0193,0 C 51.8208,0 50.8534,0.965812 50.8534,2.16591 V 15.1597 c 0,1.2001 0.9674,2.166 2.1659,2.166 1.2001,0 2.1659,-0.9659 2.1659,-2.166 V 2.16591 C 55.1852,0.965812 54.2194,0 53.0193,0 Z M 17.0611,14.8936 c -0.553,0 -1.1077,0.212 -1.5316,0.6359 -0.8495,0.8479 -0.8495,2.2137 0,3.0616 l 9.188,9.188 c 0.8478,0.8494 2.2137,0.8494 3.0632,0 0.8478,-0.8479 0.8478,-2.2138 0,-3.0616 l -9.188,-9.188 c -0.4239,-0.4239 -0.9786,-0.6359 -1.5316,-0.6359 z m 71.918,0 c -0.5531,0 -1.1077,0.212 -1.5316,0.6359 l -9.188,9.188 c -0.8479,0.8478 -0.8479,2.2137 0,3.0616 0.8495,0.8494 2.2153,0.8494 3.0632,0 l 9.188,-9.188 c 0.8478,-0.8479 0.8478,-2.2137 0,-3.0616 -0.424,-0.4239 -0.9786,-0.6359 -1.5316,-0.6359 z m -35.9598,6.4419 c -17.4994,0 -31.6838,14.186 -31.6854,31.6838 0.0016,17.4994 14.186,31.6853 31.6854,31.6853 17.4994,0 31.6853,-14.1859 31.6853,-31.6853 0,-17.4978 -14.1859,-31.6838 -31.6853,-31.6838 z M 2.16591,50.855 C 0.965813,50.855 0,51.8208 0,53.0193 c 0,1.2001 0.965813,2.1659 2.16591,2.1659 H 15.1598 c 1.2,0 2.1659,-0.9658 2.1659,-2.1659 0,-1.1985 -0.9659,-2.1643 -2.1659,-2.1643 z m 88.71449,0 c -1.2001,0 -2.1659,0.9658 -2.1659,2.1643 0,1.2001 0.9658,2.1659 2.1659,2.1659 h 12.9936 c 1.2,0 2.166,-0.9658 2.166,-2.1659 0,-1.1985 -0.966,-2.1643 -2.166,-2.1643 z M 26.2491,77.6236 c -0.5547,0 -1.1077,0.212 -1.5316,0.6359 l -9.188,9.188 c -0.8495,0.8494 -0.8495,2.2153 0,3.0632 0.8479,0.8478 2.2137,0.8478 3.0632,0 l 9.188,-9.188 c 0.8478,-0.8479 0.8478,-2.2137 0,-3.0632 -0.4256,-0.4239 -0.9786,-0.6359 -1.5316,-0.6359 z m 53.542,0 c -0.553,0 -1.1061,0.212 -1.5316,0.6359 -0.8479,0.8495 -0.8479,2.2153 0,3.0632 l 9.188,9.188 c 0.8494,0.8478 2.2153,0.8478 3.0632,0 0.8478,-0.8479 0.8478,-2.2138 0,-3.0632 l -9.188,-9.188 c -0.4239,-0.4239 -0.977,-0.6359 -1.5316,-0.6359 z M 53.0193,88.7145 c -1.1985,0 -2.1659,0.9658 -2.1659,2.1659 v 12.9936 c 0,1.2 0.9674,2.166 2.1659,2.166 1.2001,0 2.1659,-0.966 2.1659,-2.166 V 90.8804 c 0,-1.2001 -0.9658,-2.1659 -2.1659,-2.1659 z"
       id="sunny3"
       style="fill:#ffa100;fill-rule:nonzero;stroke:none"
       transform="translate(333.132,68.4997)"
       inkscape:export-filename="../Github Repos/own-weather-app/src/assets/icons/sunny3.svg"
       inkscape:export-xdpi="96"
       inkscape:export-ydpi="96" />
  </g>
</svg>
