<?xml version="1.0" encoding="UTF-8" standalone="no"?>
<svg
   width="44.151001pt"
   height="23.654068pt"
   version="1.1"
   viewBox="0 0 44.151001 23.654068"
   id="svg6053"
   sodipodi:docname="Weather Icons-page001.svg"
   xmlns:inkscape="http://www.inkscape.org/namespaces/inkscape"
   xmlns:sodipodi="http://sodipodi.sourceforge.net/DTD/sodipodi-0.dtd"
   xmlns="http://www.w3.org/2000/svg"
   xmlns:svg="http://www.w3.org/2000/svg">
  <sodipodi:namedview
     id="namedview6055"
     pagecolor="#ffffff"
     bordercolor="#000000"
     borderopacity="0.25"
     inkscape:showpageshadow="2"
     inkscape:pageopacity="0.0"
     inkscape:pagecheckerboard="0"
     inkscape:deskcolor="#d1d1d1"
     inkscape:document-units="pt"
     showgrid="false" />
  <defs
     id="defs2330">
    <clipPath
       id="Clip12">
      <path
         d="M 0,0 H 46.2645 V 29.8285 H 0 Z"
         id="path796" />
    </clipPath>
    <linearGradient
       x2="34.462898"
       y2="10.5272"
       id="Grad110"
       x1="4.16677"
       gradientUnits="userSpaceOnUse"
       y1="10.5272">
      <stop
         offset="0%"
         stop-color="#dceff6"
         stop-opacity="1"
         id="stop799" />
      <stop
         offset="100%"
         stop-color="#3f6e7a"
         stop-opacity="1"
         id="stop801" />
    </linearGradient>
    <linearGradient
       x2="17.240101"
       y2="8.9947796"
       id="Grad111"
       x1="0.19657999"
       gradientUnits="userSpaceOnUse"
       y1="8.9947796">
      <stop
         offset="0%"
         stop-color="#dceff6"
         stop-opacity="1"
         id="stop804" />
      <stop
         offset="100%"
         stop-color="#3f6e7a"
         stop-opacity="1"
         id="stop806" />
    </linearGradient>
    <linearGradient
       x2="25.2999"
       y2="5.0962501"
       id="Grad112"
       x1="-4.9959302"
       gradientUnits="userSpaceOnUse"
       y1="5.0962501">
      <stop
         offset="0%"
         stop-color="#dceff6"
         stop-opacity="1"
         id="stop809" />
      <stop
         offset="100%"
         stop-color="#3f6e7a"
         stop-opacity="1"
         id="stop811" />
    </linearGradient>
  </defs>
  <g
     inkscape:groupmode="layer"
     id="Background"
     inkscape:label="Background"
     transform="translate(-389.54352,-97.018433)">
    <g
       id="clouds_no_sun"
       style="fill:none;stroke:none"
       clip-path="url(#Clip12)"
       clip-rule="evenodd"
       transform="translate(387.741,95.6401)">
      <path
         d="M 7.70141,17.3283 C 3.45535,17.3283 0,14.3914 0,10.781 0,7.79443 2.37456,5.20567 5.72098,4.45414 6.30605,1.87884 8.67449,0 11.4542,0 c 3.2387,0 5.874,2.54959 5.874,5.68181 0,0.03305 0,0.06732 -0.0013,0.10159 3.4762,0.46634 7.7198,1.3109 7.5056,5.7087 -0.2852,5.8362 -6.9841,5.8362 -10.2033,5.8362 H 7.70141"
         style="fill:#92a4ab;fill-rule:nonzero;stroke:none"
         transform="translate(1.80252,2.97932)"
         id="path2732" />
      <path
         d="m 12.9345,13.3272 c -0.6242,0 -1.3966,-0.0144 -2.142,-0.0282 -0.7173,-0.0132 -1.4578,-0.0273 -2.03185,-0.0273 -0.33171,0 -0.5814,0.0044 -0.76256,0.0135 -0.47736,0.0241 -0.9388,0.0362 -1.37332,0.0362 -3.94373,0 -6.142032,-0.9982 -6.5361597,-2.9666 C -0.158638,9.11819 0.115538,7.87779 0.860954,6.86174 1.47173,6.02844 2.65656,5.00004 4.88546,4.59122 c 0,-0.00856 0,-0.01713 0,-0.02692 C 4.88546,1.56794 7.69454,0 10.4693,0 c 2.6133,0 4.4077,1.25827 4.9059,3.4015 2.989,0.69278 5.1053,3.01985 5.1053,5.70286 0,3.36184 -3.0711,3.76124 -5.7798,4.11314 l -0.4724,0.062 c -0.2473,0.033 -0.6463,0.0477 -1.2938,0.0477"
         style="fill:#92a4ab;fill-rule:nonzero;stroke:none"
         transform="translate(25.473,11.7052)"
         id="path2734" />
      <path
         d="M 6.06614,9.30607 C 2.04163,9.30607 0,7.97803 0,5.35745 0,3.28766 2.37334,1.61568 5.48474,1.42841 6.04411,0.547128 7.01842,0 8.08697,0 9.7871,0 11.1702,1.38312 11.1702,3.08326 c 0,0.03794 -0.0012,0.07588 -0.0024,0.11383 0.6328,0.63648 0.9645,1.377 0.9645,2.16036 0,2.62058 -2.0404,3.94862 -6.06616,3.94862"
         style="fill:#92a4ab;fill-rule:nonzero;stroke:none"
         transform="translate(26.05,1.37833)"
         id="path2736" />
      <path
         d="M 8.20906,4.6536 8.09079,4.55553 7.96942,4.46021 7.84455,4.3682 7.71578,4.28007 7.58268,4.19641 7.41541,4.10055 7.24584,4.0122 7.07414,3.93132 6.90052,3.85783 6.72517,3.79171 6.54828,3.73289 6.37001,3.68133 6.1906,3.63697 6.01021,3.59975 5.82902,3.56964 5.64724,3.54658 5.46505,3.53051 5.28265,3.52137 5.10021,3.51915 4.91795,3.52375 4.73602,3.53514 4.55465,3.55328 4.374,3.57809 4.19427,3.60955 4.01565,3.64759 3.83833,3.69216 3.6625,3.7432 3.48835,3.80068 3.31607,3.86454 3.14585,3.93471 2.97788,4.01116 2.81234,4.09383 2.64943,4.18267 2.48933,4.27762 2.33226,4.37865 2.17837,4.48569 2.02786,4.59869 1.88093,4.71761 1.73777,4.84239 1.59857,4.97297 1.46351,5.10931 1.33279,5.25135 1.20658,5.39905 1.0851,5.55236 0.968514,5.71121 0.857025,5.87555 0.750818,6.04536 0.657856,6.20652 0.571199,6.36951 0.490811,6.53415 0.416654,6.70031 0.348696,6.86783 0.286898,7.03653 0.231227,7.2063 0.181648,7.37695 0.138122,7.54835 0.100617,7.72034 0.0690948,7.89277 0.0435214,8.06547 0.0238608,8.23832 0.0100774,8.41113 0.00213564,8.58377 0,8.75607 0.0036349,8.92789 0.0130048,9.09908 0.028074,9.26947 0.0488071,9.43894 0.0751685,9.60729 0.107123,9.7744 l 0.037511,0.1657 0.043032,0.1642 0.048519,0.1624 0.05397,0.1606 0.059384,0.1585 0.064763,0.1564 0.070108,0.1541 0.075416,0.1516 0.080687,0.149 0.085926,0.1462 0.091127,0.1432 0.096292,0.1402 0.101422,0.1369 0.10652,0.1335 0.11158,0.13 0.11659,0.1263 0.1216,0.1224 0.12653,0.1184 0.13146,0.1143 0.13634,0.1099 -0.07445,0.1922 -0.06912,0.1929 -0.0638,0.1934 -0.05849,0.1936 -0.05322,0.194 -0.04795,0.1941 -0.04269,0.1942 -0.03748,0.194 -0.03225,0.1939 -0.02708,0.1933 -0.02189,0.1931 -0.01675,0.1923 -0.01161,0.1916 -0.00649,0.1909 -0.0014,0.1898 0.00368,0.1887 0.00874,0.1877 0.01378,0.1862 0.01881,0.1848 0.02381,0.1832 0.02879,0.1815 0.03375,0.1797 0.03872,0.1779 0.04363,0.1757 0.04855,0.1736 0.05344,0.1712 0.05831,0.1688 0.06316,0.1664 0.068,0.1636 0.07282,0.1608 0.07761,0.1581 0.0824,0.1548 0.08716,0.1518 0.0919,0.1484 0.09661,0.1452 0.10134,0.1416 0.10601,0.138 0.11067,0.1341 0.11533,0.1304 0.11996,0.1263 0.12457,0.1222 0.12915,0.1179 0.13374,0.1136 0.1383,0.1092 0.14281,0.1044 0.14735,0.0998 0.15185,0.095 0.14236,0.0822 0.1442,0.0769 0.14595,0.0717 0.14759,0.0665 0.14917,0.0613 0.15063,0.0563 0.15202,0.051 0.15332,0.0461 0.15451,0.0408 0.15562,0.036 0.15666,0.031 0.15759,0.0259 0.15844,0.0211 0.15919,0.0163 0.15985,0.0112 0.16042,0.0065 0.16092,0.0017 0.16131,-0.003 0.16162,-0.0077 0.16182,-0.0125 0.16196,-0.0172 0.162,-0.0219 0.16194,-0.0263 0.1618,-0.0311 0.16155,-0.0355 0.16124,-0.04 0.16083,-0.0445 0.16032,-0.049 0.15973,-0.0534 0.15905,-0.0579 0.15828,-0.062 0.1574,-0.0665 0.15647,-0.0709 0.15542,-0.075 0.15429,-0.0792 0.15306,-0.0835 0.15175,-0.0876 0.15034,-0.0918 0.14886,-0.0958 0.14724,-0.1 0.1457,-0.1041 0.1438,-0.1079 0.142,-0.112 0.14,-0.1159 0.1381,-0.12 0.1359,-0.1237 0.1337,-0.1276 0.1314,-0.1314 0.129,-0.1353 0.1265,-0.139 0.1239,-0.1428 0.1213,-0.1463 0.1186,-0.1501 0.1157,-0.1537 0.1128,-0.1573 0.1097,-0.161 0.1067,-0.1644 0.1034,-0.168 3.5644,-5.9406 0.1266,-0.2122 0.1246,-0.2112 0.1225,-0.2102 0.1202,-0.2092 0.1181,-0.2082 0.1156,-0.2071 0.1132,-0.20608 0.1105,-0.20498 0.108,-0.20389 L 17.0798,9.3654 17.1821,9.16379 17.2817,8.96335 17.3781,8.76408 17.4715,8.56602 17.5617,8.36917 17.6486,8.17358 17.7322,7.97923 17.8123,7.78617 17.8889,7.59439 17.9618,7.40394 18.031,7.21482 18.0965,7.02706 18.1579,6.84067 18.2154,6.65567 18.2689,6.47208 18.3181,6.28994 18.3632,6.10923 18.4038,5.93 18.44,5.75225 18.4718,5.57601 18.4989,5.4013 18.5213,5.22813 18.5388,5.05654 18.5516,4.88651 18.5593,4.7181 18.562,4.55131 18.5595,4.38617 18.5518,4.22268 18.5387,4.06088 18.5202,3.90077 18.4962,3.74238 18.4667,3.58572 18.4314,3.43082 18.3904,3.27771 18.3435,3.12638 18.2906,2.97688 18.2316,2.82919 18.1666,2.68338 18.0952,2.53942 18.0176,2.39735 17.9337,2.2572 17.8432,2.11898 17.746,1.98271 17.6424,1.8484 17.5318,1.71607 17.4145,1.58577 17.2901,1.45747 17.1588,1.33122 17.0203,1.20704 16.8746,1.08494 16.7217,0.964943 16.5612,0.847063 16.3934,0.731325 16.2376,0.63081 16.0829,0.53827 15.9291,0.453572 15.7765,0.376578 15.6248,0.307159 15.4742,0.245178 15.3246,0.190503 15.176,0.142999 15.0283,0.102531 14.8816,0.0689664 14.736,0.0421708 14.5912,0.0220105 14.4474,0.00835114 14.3045,0.00105898 14.1625,0 14.0214,0.00504024 13.8813,0.0160457 13.742,0.0328825 13.6035,0.0554165 13.466,0.0835139 13.3292,0.117041 13.1934,0.155863 13.0584,0.199846 12.9241,0.248858 12.7907,0.302763 12.6581,0.361426 12.5262,0.424716 12.3952,0.492497 12.2648,0.564636 12.1353,0.640999 12.0065,0.72145 11.8784,0.805858 11.751,0.894088 11.6244,0.986005 11.4984,1.08148 11.3731,1.18037 11.2485,1.28254 11.1246,1.38787 11.0013,1.49622 10.8786,1.60745 10.7566,1.72143 10.6352,1.83803 10.5144,1.9571 10.3942,2.07854 10.2746,2.20217 10.1556,2.3279 10.0371,2.45556 9.91916,2.58504 9.80178,2.7162 9.68492,2.8489 9.56858,2.98301 9.45277,3.11841 9.33743,3.25493 9.2226,3.39248 9.10822,3.53089 8.99432,3.67004 8.88087,3.8098 8.76787,3.95003 8.65528,4.09061 8.54313,4.23138 8.43138,4.37223 8.32003,4.51301 Z"
         style="fill:url(#Grad110);fill-rule:evenodd;stroke:none"
         transform="rotate(59.0364,9.02715,15.943615)"
         id="path2738" />
      <path
         d="M 2.6247,11.4029 2.46135,11.353 2.29871,11.2972 2.13717,11.2342 1.97708,11.163 1.81724,11.0824 1.66455,10.9957 1.51896,10.9034 1.38041,10.8054 1.24886,10.7021 1.12424,10.5936 1.00649,10.4802 0.895565,10.3619 0.791408,10.239 0.693961,10.1117 0.603171,9.98021 0.518982,9.84467 0.441338,9.70529 0.370184,9.56227 0.305464,9.41578 0.247124,9.26603 0.195108,9.11322 0.149361,8.95751 0.109827,8.79913 0.0764504,8.63825 0.0491768,8.47506 0.0279502,8.30976 0.0127154,8.14254 0.00341718,7.97359 0,7.8031 0.00240857,7.63126 0.0105875,7.45827 0.0244815,7.28432 0.0440352,7.10959 0.0691932,6.93429 0.0999001,6.7586 0.1361,6.58271 0.177739,6.40682 0.224761,6.23111 0.27711,6.05579 0.334732,5.88103 0.39757,5.70703 0.465569,5.534 0.538675,5.36211 0.616831,5.19155 0.704225,5.01391 0.79505,4.84169 0.889262,4.67502 0.98681,4.51395 1.08765,4.35859 1.19172,4.20902 1.29899,4.06532 1.4094,3.92757 1.5229,3.79588 1.63946,3.67031 1.75901,3.55095 1.88151,3.4379 2.00691,3.33124 2.13516,3.23104 2.26622,3.13742 2.40003,3.05043 2.53656,2.97017 2.67574,2.89673 2.81754,2.83021 2.96188,2.77066 3.10876,2.71819 3.25809,2.67287 3.40986,2.63481 3.56397,2.60407 3.72042,2.58077 3.87914,2.56495 4.04007,2.55673 4.20319,2.55619 4.36843,2.56341 4.53575,2.57848 4.7051,2.60147 4.87644,2.63249 5.04971,2.67161 5.22486,2.71892 5.40187,2.77451 5.52042,2.60694 5.64285,2.44392 5.76898,2.28558 5.89871,2.13193 6.03187,1.98306 6.16834,1.83902 6.30797,1.6999 6.45061,1.56574 6.59615,1.43662 6.74444,1.31259 6.89532,1.19373 7.04867,1.0801 7.20434,0.971753 7.36221,0.868766 7.52213,0.771198 7.68395,0.679116 7.84754,0.592582 8.01277,0.511665 8.17949,0.436426 8.34756,0.366929 8.51684,0.303241 8.68719,0.245427 8.85848,0.193547 9.03056,0.147671 9.20329,0.10786 9.37655,0.0741805 9.55019,0.0466957 9.72406,0.0254708 9.89802,0.0105702 10.072,0.00205838 10.2457,0 l 0.1734,0.00445957 0.173,0.01104203 0.1724,0.0176891 0.1716,0.0244007 0.1708,0.0311769 0.1697,0.0380177 0.1686,0.044923 0.1673,0.051893 0.1658,0.058925 0.1643,0.066027 0.1626,0.073189 0.1622,0.081245 0.1524,0.084854 0.1427,0.088398 0.1333,0.09188 0.1243,0.095296 0.1151,0.098649 0.1065,0.101935 0.0981,0.10517 0.0897,0.10832 0.0816,0.11142 0.0738,0.11446 0.0662,0.11743 0.0589,0.12033 0.0518,0.12317 0.0448,0.12595 0.0381,0.12867 0.0317,0.13132 0.0253,0.1339 0.0193,0.13643 0.0136,0.13889 0.0081,0.14127 0.0026,0.14361 -0.0025,0.14588 -0.0073,0.14808 -0.0121,0.15022 -0.0166,0.1523 -0.0206,0.15431 -0.0248,0.15626 -0.0285,0.15814 -0.0321,0.15996 -0.0353,0.16172 -0.0385,0.16342 -0.0413,0.16503 -0.044,0.16661 -0.0464,0.1681 -0.0486,0.16955 -0.0506,0.17091 -0.0523,0.17223 -0.0539,0.17346 -0.0552,0.17466 -0.0561,0.17577 -0.0571,0.17682 -0.0577,0.17781 -0.0581,0.17874 -0.0582,0.17961 -0.0583,0.1804 -0.018,0.05338 -0.0215,0.05926 -0.025,0.06495 -0.0281,0.07039 -0.0314,0.07561 -0.0344,0.08061 -0.0372,0.08538 -0.04,0.08993 -0.0426,0.09426 -0.045,0.09836 -0.0475,0.10226 -0.0496,0.10588 -0.0517,0.10933 -0.0537,0.11254 -0.0554,0.11551 -0.0571,0.11827 -0.0586,0.1208 -0.0601,0.12312 -0.0612,0.12519 -0.0625,0.12706 -0.0634,0.12869 -0.0643,0.13012 -0.0651,0.13129 -0.0656,0.13227 -0.0661,0.133 -0.0664,0.13353 -0.0666,0.1338 -0.0667,0.13388 -0.0665,0.1337 -0.0664,0.1334 -0.0661,0.1327 -0.0656,0.1319 -0.0649,0.1309 -0.0642,0.1296 -0.0634,0.128 -0.0623,0.1264 -0.0612,0.1244 -0.0598,0.1222 -0.0585,0.1199 -0.057,0.1172 -0.0552,0.1144 -0.0534,0.1113 -0.0515,0.108 -0.0494,0.1045 -0.0472,0.1007 -0.0448,0.0968 -0.0423,0.0926 -0.0397,0.0881 -0.037,0.0836 -0.034,0.0787 -0.031,0.0736 -0.0752,0.1794 -0.07566,0.1775 -0.07614,0.1753 -0.07662,0.173 -0.07709,0.1709 -0.07757,0.1684 -0.07803,0.1663 -0.07851,0.1638 -0.07895,0.1614 -0.07942,0.1588 -0.07987,0.1563 -0.08032,0.1538 -0.08075,0.1511 -0.0812,0.1485 -0.08164,0.1457 -0.08205,0.1429 -0.0825,0.1402 -0.08292,0.1373 -0.08333,0.1343 -0.08374,0.1313 -0.08416,0.1284 -0.08457,0.1254 -0.08496,0.1221 -0.08537,0.119 -0.08576,0.1158 -0.08614,0.1126 -0.08654,0.1093 -0.08691,0.1059 -0.0873,0.1024 -0.08766,0.099 -0.08803,0.0956 -0.0884,0.0921 -0.08876,0.0883 -0.08912,0.0849 -0.08948,0.0811 -0.08981,0.0774 -0.09016,0.0735 -0.09051,0.0697 -0.09083,0.066 -0.09118,0.0618 -0.09149,0.058 -0.09182,0.054 L 6.52038,17.7239 6.42793,17.7697 6.33517,17.8112 6.24209,17.8485 6.14872,17.8817 6.05504,17.9104 5.96106,17.9348 5.8668,17.9549 5.77226,17.9704 5.67743,17.9814 5.58232,17.9879 5.48695,17.9897 5.39129,17.987 5.29538,17.9796 5.1992,17.9673 5.10276,17.9503 5.00607,17.9285 4.86146,17.8891 4.7189,17.8443 4.57857,17.7939 4.44059,17.738 4.30514,17.6766 4.17236,17.6099 4.04241,17.5378 3.91543,17.4604 3.7916,17.3775 3.67105,17.2895 3.55393,17.1962 3.44042,17.0977 3.33066,16.994 3.2248,16.8852 3.12299,16.7712 3.02539,16.6523 2.93215,16.5283 2.84343,16.3993 2.75939,16.2652 2.68016,16.1263 2.6059,15.9825 2.53678,15.8338 2.47295,15.6803 2.41454,15.522 2.36173,15.359 2.31467,15.1912 2.27349,15.0187 2.23838,14.8416 2.20947,14.6598 2.18691,14.4736 2.17086,14.2826 2.16149,14.0873 2.15893,13.8874 2.16333,13.6831 2.17488,13.4744 2.19369,13.2612 2.21994,13.0438 2.25378,12.822 2.29535,12.5959 2.34482,12.3657 2.40233,12.1312 2.46805,11.8926 2.54213,11.6498 Z"
         style="fill:url(#Grad111);fill-rule:evenodd;stroke:none"
         transform="rotate(64.593,12.515159,36.778637)"
         id="path2740" />
      <path
         d="M 4.46552,0.579919 4.30339,0.448382 4.1263,0.329282 3.94121,0.229232 3.75119,0.147622 3.5574,0.084174 3.36094,0.0386075 3.16293,0.0106429 2.96449,0 2.76675,0.00639905 2.57082,0.0295601 2.37782,0.0692034 2.18887,0.125049 2.0051,0.196817 1.8276,0.284227 1.65752,0.386999 1.49597,0.504856 1.34406,0.637514 1.20293,0.784695 1.07368,0.94612 0.95744,1.12151 0.876423,1.26816 0.807091,1.41805 0.749301,1.57062 0.702913,1.72531 0.667786,1.88156 0.64378,2.0388 0.630755,2.19648 0.628571,2.35403 0.637085,2.51089 0.656158,2.6665 0.685651,2.82028 0.725421,2.97169 0.775329,3.12017 0.835234,3.26514 0.904997,3.40605 0.984475,3.54233 1.07353,3.67343 0.974841,3.84686 0.880909,4.02086 0.791733,4.1953 0.707314,4.36999 0.627651,4.54479 0.552745,4.71954 0.482595,4.8941 0.417202,5.06831 0.356565,5.24202 0.300685,5.41509 0.249563,5.58733 0.203197,5.7586 0.16159,5.92876 0.124739,6.09764 0.0926457,6.26511 0.0653101,6.43098 0.0427322,6.59512 0.0249122,6.75737 0.01185,6.9176 0.00354594,7.07561 0,7.23128 0.00121232,7.38444 0.00718301,7.53494 0.0179121,7.68264 0.0333999,7.82737 0.0536465,7.96899 0.0786517,8.10732 0.108416,8.24223 0.142939,8.37356 0.182222,8.50116 0.226263,8.62487 0.275065,8.74453 0.328624,8.86 l 0.05832,0.11111 0.06308,0.10661 0.067839,0.10196 0.072601,0.09715 0.077359,0.09218 0.082119,0.08705 0.08688,0.08179 0.091641,0.07636 0.096397,0.07078 0.10116,0.06504 0.10302,0.05972 0.10398,0.05597 0.10492,0.05208 0.10587,0.04806 0.10683,0.04384 0.10777,0.0395 0.10874,0.0351 0.10968,0.0304 0.11064,0.0256 0.11161,0.0206 0.11255,0.0156 0.11353,0.0103 0.11448,0.0049 0.11544,-6e-4 L 2.77149,10.1848 2.88886,10.1727 3.00718,10.1545 3.12649,10.1302 3.24676,10.0996 3.368,10.0625 3.4902,10.0189 3.61338,9.96846 3.73752,9.91116 3.86265,9.8468 3.98875,9.77523 4.11581,9.69631 4.24385,9.60989 4.37287,9.5158 4.50288,9.41392 4.63386,9.30408 4.76582,9.18612 4.89875,9.05991 5.03268,8.92529 5.16759,8.7821 5.30348,8.6302 5.44036,8.46946 5.57822,8.29969 5.71707,8.12075 5.85691,7.9325 5.99775,7.73479 6.13956,7.52747 6.28238,7.31036 6.42618,7.08335 6.57098,6.84627 6.7119,6.60714 6.84442,6.37361 6.96868,6.14559 7.08479,5.92303 7.1929,5.70585 7.29313,5.49397 7.38562,5.28734 7.4705,5.08587 7.54789,4.88949 7.61794,4.69814 7.68078,4.51175 7.73655,4.33023 7.78535,4.15353 7.82733,3.98157 7.86265,3.81428 7.89139,3.65158 7.91371,3.49342 7.92975,3.33971 7.93962,3.19038 7.94348,3.04537 7.94143,2.9046 7.93363,2.768 7.9202,2.6355 7.90126,2.50703 7.87697,2.38253 7.84743,2.2619 7.8128,2.1451 7.7732,2.03204 7.72875,1.92265 7.67961,1.81687 7.62589,1.71462 7.56772,1.61581 7.50525,1.52042 7.4386,1.42833 7.3679,1.3395 7.2933,1.25384 7.2149,1.17128 7.13287,1.09176 7.04731,1.01521 6.95837,0.941539 6.86617,0.870695 6.77085,0.802599 6.67255,0.737183 6.57139,0.674375 6.44189,0.60331 6.30815,0.542768 6.17044,0.492593 6.02901,0.452625 5.88411,0.422711 5.73598,0.402691 5.58489,0.39241 5.4311,0.391709 5.27483,0.400433 5.11637,0.418424 4.95595,0.445525 4.79383,0.481579 4.63028,0.526429 Z"
         style="fill:url(#Grad112);fill-rule:evenodd;stroke:none"
         transform="rotate(59.0364,16.637243,30.937241)"
         id="path2742" />
      <path
         d="m 15.5668,7.28158 c 0.0416,-0.25215 0.0698,-0.50919 0.0698,-0.77235 0,-2.71116 -2.284,-4.90701 -5.1004,-4.90701 -2.6157,0 -4.76871,1.89597 -5.06247,4.33785 C 2.72585,6.37826 0.558144,8.1702 0,10.4517 0.95472,8.52271 3.31337,7.08206 5.7785,6.68916 c 0.29376,-2.44188 1.8409,-4.4064 4.4566,-4.4064 2.8176,0 4.694,2.16648 4.694,4.87764 0,0.26316 -0.093,0.89107 -0.1346,1.14322 3.7258,0.47736 8.2387,0.71481 8.0453,4.65978 -0.0269,0.5753 -0.1248,1.0869 -0.2815,1.5422 0.3366,-0.6095 0.5398,-1.3415 0.5826,-2.224 C 23.3343,8.33666 19.2927,7.75894 15.5668,7.28158 Z M 42.4593,18.6577 c 0,-2.5058 -2.153,-4.5915 -5.0012,-5.0456 -0.2607,-2.1738 -1.907,-3.2852 -4.2363,-3.2852 -2.5067,0 -4.8103,1.3782 -4.8103,3.7907 0,0.235 0.0245,0.4639 0.0612,0.6879 -3.1224,0.3378 -4.672,1.9693 -4.9119,3.727 0.6817,-1.3625 2.4419,-2.4532 5.1138,-2.7411 -0.0367,-0.2247 0,-0.9761 0,-1.2111 0,-2.4125 1.7394,-3.5729 4.2461,-3.5729 2.3293,0 3.9743,1.1126 4.2363,3.2852 2.8482,0.4542 5.0012,2.5407 5.0012,5.0467 0,0.342 -0.0404,0.6449 -0.1138,0.915 0.2644,-0.4109 0.4149,-0.9299 0.4149,-1.5966 z M 28.9868,2.09304 c 0.35,-0.82865 1.1713,-1.411272 2.1285,-1.411272 1.2754,0 2.3097,1.034282 2.3097,2.309692 0,0.1432 -0.082,0.55202 -0.1077,0.68911 0.6279,0.52142 1.0698,0.89229 1.0698,1.58508 0,0.29743 -0.0343,0.58385 -0.109,0.85557 0.2926,-0.45532 0.4101,-0.9792 0.4101,-1.53734 0,-0.69278 -0.3746,-1.33171 -1.0025,-1.85436 0.0245,-0.13586 0.0404,-0.2754 0.0404,-0.41983 C 33.7261,1.03428 32.6918,0 31.4164,0 c -0.9572,0 -1.7785,0.582624 -2.1285,1.4125 -2.6047,0.03182 -4.7418,1.19095 -5.1188,2.69769 0.7577,-1.16157 2.6218,-1.989 4.8177,-2.01715 z"
         style="fill:#eef7fb;fill-rule:nonzero;stroke:none"
         transform="translate(2.72052,2.1519)"
         id="path2744" />
    </g>
  </g>
</svg>
