<?xml version="1.0" encoding="UTF-8" standalone="no"?>
<svg
   width="63.28302pt"
   height="34.11499pt"
   version="1.1"
   viewBox="0 0 63.28302 34.11499"
   id="svg6053"
   sodipodi:docname="Weather Icons-page001.svg"
   xmlns:inkscape="http://www.inkscape.org/namespaces/inkscape"
   xmlns:sodipodi="http://sodipodi.sourceforge.net/DTD/sodipodi-0.dtd"
   xmlns="http://www.w3.org/2000/svg"
   xmlns:svg="http://www.w3.org/2000/svg">
  <sodipodi:namedview
     id="namedview6055"
     pagecolor="#ffffff"
     bordercolor="#000000"
     borderopacity="0.25"
     inkscape:showpageshadow="2"
     inkscape:pageopacity="0.0"
     inkscape:pagecheckerboard="0"
     inkscape:deskcolor="#d1d1d1"
     inkscape:document-units="pt"
     showgrid="false" />
  <defs
     id="defs2330">
    <clipPath
       id="Clip36">
      <path
         d="M 0,0 H 61.4681 V 32.4626 H 0 Z"
         id="path1697" />
    </clipPath>
    <linearGradient
       x2="19.943899"
       y2="19.289"
       id="Grad243"
       x1="-2.7830501e-14"
       gradientUnits="userSpaceOnUse"
       y1="19.289">
      <stop
         offset="0%"
         stop-color="#81a4b6"
         stop-opacity="1"
         id="stop1700" />
      <stop
         offset="100%"
         stop-color="#c6d6e0"
         stop-opacity="1"
         id="stop1702" />
    </linearGradient>
    <linearGradient
       x2="19.1555"
       y2="18.896099"
       id="Grad244"
       x1="-1.39153e-14"
       gradientUnits="userSpaceOnUse"
       y1="18.896099">
      <stop
         offset="0%"
         stop-color="#718ea5"
         stop-opacity="1"
         id="stop1705" />
      <stop
         offset="100%"
         stop-color="#b4c9d7"
         stop-opacity="1"
         id="stop1707" />
    </linearGradient>
    <linearGradient
       x2="0.085864604"
       y2="0.003672"
       id="Grad245"
       x1="2.7830501e-14"
       gradientUnits="userSpaceOnUse"
       y1="0.003672">
      <stop
         offset="0%"
         stop-color="#7e9eb8"
         stop-opacity="1"
         id="stop1710" />
      <stop
         offset="100%"
         stop-color="#9fbcd0"
         stop-opacity="1"
         id="stop1712" />
    </linearGradient>
    <linearGradient
       x2="6.6620202"
       y2="18.042999"
       id="Grad246"
       x1="2.7830501e-14"
       gradientUnits="userSpaceOnUse"
       y1="18.042999">
      <stop
         offset="0%"
         stop-color="#7e9eb8"
         stop-opacity="1"
         id="stop1715" />
      <stop
         offset="100%"
         stop-color="#9fbcd0"
         stop-opacity="1"
         id="stop1717" />
    </linearGradient>
    <linearGradient
       x2="10.9248"
       y2="16.8067"
       id="Grad247"
       x1="-2.7830501e-14"
       gradientUnits="userSpaceOnUse"
       y1="16.8067">
      <stop
         offset="0%"
         stop-color="#a2bccb"
         stop-opacity="1"
         id="stop1720" />
      <stop
         offset="100%"
         stop-color="#c6d6e0"
         stop-opacity="1"
         id="stop1722" />
    </linearGradient>
    <linearGradient
       x2="5.0533099"
       y2="14.8545"
       id="Grad248"
       x1="4.1745799e-14"
       gradientUnits="userSpaceOnUse"
       y1="14.8545">
      <stop
         offset="0%"
         stop-color="#7696ae"
         stop-opacity="1"
         id="stop1725" />
      <stop
         offset="100%"
         stop-color="#91abbd"
         stop-opacity="1"
         id="stop1727" />
    </linearGradient>
    <linearGradient
       x2="5.0725002"
       y2="7.0967498"
       id="Grad249"
       x1="-4.1745799e-14"
       gradientUnits="userSpaceOnUse"
       y1="7.0967498">
      <stop
         offset="0%"
         stop-color="#a2bccb"
         stop-opacity="1"
         id="stop1730" />
      <stop
         offset="100%"
         stop-color="#c6d6e0"
         stop-opacity="1"
         id="stop1732" />
    </linearGradient>
    <linearGradient
       x2="0.12665001"
       y2="0.00612"
       id="Grad250"
       x1="2.7830501e-14"
       gradientUnits="userSpaceOnUse"
       y1="0.00612">
      <stop
         offset="0%"
         stop-color="#7e9eb8"
         stop-opacity="1"
         id="stop1735" />
      <stop
         offset="100%"
         stop-color="#9fbcd0"
         stop-opacity="1"
         id="stop1737" />
    </linearGradient>
    <linearGradient
       x2="9.7076702"
       y2="26.2903"
       id="Grad251"
       x1="2.7830501e-14"
       gradientUnits="userSpaceOnUse"
       y1="26.2903">
      <stop
         offset="0%"
         stop-color="#7e9eb8"
         stop-opacity="1"
         id="stop1740" />
      <stop
         offset="100%"
         stop-color="#9fbcd0"
         stop-opacity="1"
         id="stop1742" />
    </linearGradient>
    <linearGradient
       x2="15.9192"
       y2="24.487301"
       id="Grad252"
       x1="-2.7830501e-14"
       gradientUnits="userSpaceOnUse"
       y1="24.487301">
      <stop
         offset="0%"
         stop-color="#a2bccb"
         stop-opacity="1"
         id="stop1745" />
      <stop
         offset="100%"
         stop-color="#c6d6e0"
         stop-opacity="1"
         id="stop1747" />
    </linearGradient>
    <linearGradient
       x2="7.36376"
       y2="21.645201"
       id="Grad253"
       x1="2.7830501e-14"
       gradientUnits="userSpaceOnUse"
       y1="21.645201">
      <stop
         offset="0%"
         stop-color="#7696ae"
         stop-opacity="1"
         id="stop1750" />
      <stop
         offset="100%"
         stop-color="#91abbd"
         stop-opacity="1"
         id="stop1752" />
    </linearGradient>
    <linearGradient
       x2="7.3909898"
       y2="10.3404"
       id="Grad254"
       x1="-2.7830501e-14"
       gradientUnits="userSpaceOnUse"
       y1="10.3404">
      <stop
         offset="0%"
         stop-color="#a2bccb"
         stop-opacity="1"
         id="stop1755" />
      <stop
         offset="100%"
         stop-color="#c6d6e0"
         stop-opacity="1"
         id="stop1757" />
    </linearGradient>
    <linearGradient
       x2="29.0562"
       y2="28.105499"
       id="Grad255"
       x1="-2.7830501e-14"
       gradientUnits="userSpaceOnUse"
       y1="28.105499">
      <stop
         offset="0%"
         stop-color="#81a4b6"
         stop-opacity="1"
         id="stop1760" />
      <stop
         offset="100%"
         stop-color="#c6d6e0"
         stop-opacity="1"
         id="stop1762" />
    </linearGradient>
    <linearGradient
       x2="27.908899"
       y2="27.531401"
       id="Grad256"
       x1="-2.7830501e-14"
       gradientUnits="userSpaceOnUse"
       y1="27.531401">
      <stop
         offset="0%"
         stop-color="#718ea5"
         stop-opacity="1"
         id="stop1765" />
      <stop
         offset="100%"
         stop-color="#b4c9d7"
         stop-opacity="1"
         id="stop1767" />
    </linearGradient>
  </defs>
  <g
     inkscape:groupmode="layer"
     id="Background"
     inkscape:label="Background"
     transform="translate(-315.978,-329.082)">
    <g
       id="clouds_2">
      <g
         id="Group77"
         style="fill:none;stroke:none"
         clip-path="url(#Clip36)"
         clip-rule="evenodd"
         transform="translate(317.793,329.082)">
        <path
           d="m 10.2833,5.1408 -0.0017,0.13295 -0.0052,0.13262 -0.0086,0.13221 -0.012,0.13173 -0.0154,0.13122 -0.0187,0.13063 -0.0221,0.12999 -0.0254,0.12931 -0.0287,0.12852 -0.032,0.12771 -0.0353,0.12684 -0.0385,0.12589 -0.04166,0.1249 -0.04491,0.12384 -0.04808,0.12273 -0.05124,0.12156 0.19489,0.00903 0.1932,0.0154 0.1914,0.02165 0.1895,0.02781 0.1875,0.03387 0.1854,0.03982 0.1832,0.04566 0.1808,0.05141 0.1784,0.05704 0.1759,0.06258 0.1733,0.06802 0.1706,0.07335 0.1677,0.07857 0.1647,0.08371 0.1618,0.08872 0.1585,0.09363 0.1554,0.09845 0.152,0.10316 0.1484,0.10776 0.1451,0.11227 0.1412,0.11667 0.1376,0.12095 0.1336,0.12516 0.1297,0.12924 0.1256,0.13323 0.1214,0.13711 0.1171,0.1409 0.1128,0.14457 0.1083,0.14814 0.1037,0.15161 0.099,0.15497 0.0941,0.15829 0.0892,0.1613 0.0843,0.1645 0.0791,0.1674 0.074,0.1703 0.0686,0.173 0.0632,0.1756 0.0577,0.1782 0.052,0.1806 0.0462,0.1829 0.0406,0.1852 0.0345,0.1873 0.0284,0.1893 0.0224,0.1912 0.016,0.193 0.0097,0.1949 0.0033,0.1963 -0.0015,0.1302 -0.0044,0.1298 -0.0073,0.1298 -0.0103,0.1292 -0.0132,0.129 -0.0161,0.1285 -0.019,0.1281 -0.0216,0.1276 -0.0246,0.127 -0.0274,0.1263 -0.0303,0.1257 -0.0329,0.125 -0.0357,0.1242 -0.0385,0.1234 -0.0412,0.1225 -0.0438,0.1215 -0.0467,0.1206 -0.0492,0.1196 -0.0519,0.1185 -0.0544,0.1172 -0.0572,0.1162 -0.0597,0.1149 -0.0623,0.1137 -0.0649,0.1123 -0.0674,0.111 -0.0701,0.1094 0.1566,0.0508 0.1549,0.0539 0.1533,0.057 0.1515,0.0599 0.1497,0.0629 0.148,0.0659 0.1463,0.0687 0.1443,0.0716 0.1423,0.0746 0.1405,0.0771 0.1386,0.08 0.1366,0.0826 0.1346,0.0854 0.1326,0.0878 0.1305,0.0906 0.1284,0.093 0.1263,0.0956 0.1241,0.0981 0.1219,0.1005 0.1197,0.1028 0.1174,0.1051 0.1152,0.1076 0.1128,0.1098 0.1106,0.112 0.108,0.1142 0.1057,0.1163 0.1033,0.1185 0.1008,0.1205 0.0983,0.1225 0.0957,0.1247 0.0932,0.1265 0.0906,0.1284 0.088,0.1304 0.0853,0.1322 0.0826,0.1339 0.0799,0.1357 0.0771,0.1375 0.0745,0.1391 0.0714,0.1408 0.0688,0.1425 0.0658,0.1439 0.063,0.1454 0.06,0.147 0.0569,0.1485 0.0541,0.1498 0.0509,0.1512 0.048,0.1526 0.0448,0.1537 0.0417,0.1551 0.0385,0.1563 0.0353,0.1576 0.0322,0.1586 0.0289,0.1597 0.0256,0.1607 0.0223,0.1618 0.0189,0.1628 0.0156,0.1637 0.0121,0.1646 0.0088,0.1655 0.0053,0.1663 0.0017,0.1671 -0.002,0.1692 -0.0057,0.1684 -0.0096,0.1678 -0.0132,0.1671 -0.017,0.1662 -0.0206,0.1655 -0.0242,0.1646 -0.0279,0.1635 -0.0313,0.1627 -0.0349,0.1617 -0.0385,0.1606 -0.0417,0.1593 -0.0452,0.1583 -0.0484,0.1571 -0.0519,0.1558 -0.0551,0.1544 -0.0583,0.1533 -0.0614,0.1516 -0.0646,0.1503 -0.0679,0.1489 -0.0707,0.1471 -0.0738,0.1457 -0.0769,0.144 -0.0797,0.1423 -0.0827,0.1406 -0.0854,0.1388 -0.0884,0.137 -0.0912,0.135 -0.0939,0.1331 -0.0966,0.1313 -0.0992,0.1291 -0.1019,0.1272 -0.1045,0.1249 -0.107,0.1228 -0.1095,0.1206 -0.112,0.1183 -0.1143,0.1161 -0.1169,0.1137 -0.1191,0.1112 -0.1214,0.1088 -0.1238,0.1064 -0.1259,0.1038 -0.1282,0.1011 -0.1302,0.0987 -0.1325,0.0958 -0.1345,0.0931 -0.1364,0.0904 -0.1385,0.0875 -0.1404,0.0846 -0.1423,0.0817 -0.1442,0.0789 -0.146,0.0756 -0.1479,0.0727 -0.1496,0.0695 -0.1513,0.0665 -0.153,0.0631 -0.1544,0.0599 -0.1562,0.0567 -0.1578,0.0532 -0.1592,0.0498 -0.1607,0.0465 -0.1621,0.0429 -0.1635,0.0394 0.0134,0.1816 0.0075,0.1785 0.0023,0.176 -0.0028,0.1985 -0.0082,0.1972 -0.0138,0.1957 -0.0191,0.1943 -0.0244,0.1927 -0.0296,0.1909 -0.0346,0.1894 -0.0398,0.1873 -0.0448,0.1856 -0.0498,0.1837 -0.0545,0.1817 -0.0593,0.1794 -0.0641,0.1774 -0.0686,0.1751 -0.0731,0.1728 -0.0777,0.1704 -0.082,0.168 -0.0865,0.1653 -0.0905,0.1628 -0.0949,0.16 -0.0989,0.1573 -0.1029,0.1544 -0.1069,0.1517 -0.1108,0.1485 -0.1145,0.1455 -0.1183,0.1424 -0.1219,0.1391 -0.1255,0.1359 -0.129,0.1324 -0.1325,0.1292 -0.1358,0.1255 -0.1391,0.1219 -0.1423,0.1184 -0.1455,0.1146 -0.1485,0.1107 -0.1515,0.107 -0.1544,0.103 -0.1572,0.0989 -0.16,0.0948 -0.1627,0.0906 -0.1653,0.0864 -0.16786,0.0821 -0.17032,0.0776 -0.17271,0.0732 -0.17502,0.0687 -0.17728,0.064 L 9.07936,38.2565 8.89783,38.3111 8.71427,38.3608 8.52876,38.4056 8.34139,38.4454 8.15221,38.4801 7.9613,38.5097 7.76875,38.5341 7.57463,38.5532 7.37899,38.567 7.18194,38.5752 6.98353,38.578 6.78501,38.5752 6.58784,38.567 6.39211,38.5532 6.19787,38.5341 6.00521,38.5097 5.81421,38.4801 5.62493,38.4454 5.43745,38.4056 5.25184,38.3608 5.06818,38.3111 4.88655,38.2565 4.70701,38.1971 4.52966,38.1331 4.35454,38.0644 4.18173,37.9912 4.01133,37.9136 3.8434,37.8315 3.678,37.7451 3.51523,37.6545 3.35514,37.5597 3.19782,37.4608 3.04334,37.3578 2.89179,37.2508 2.7432,37.1401 2.5977,37.0255 2.45532,36.9071 2.31615,36.7852 2.18027,36.6597 2.04775,36.5305 1.91867,36.3981 1.79309,36.2622 1.67109,36.1231 1.55275,35.9807 1.43815,35.8352 1.32734,35.6867 1.22043,35.535 1.11746,35.3806 1.01852,35.2233 0.923682,35.0633 0.83302,34.9005 0.746611,34.7352 0.664527,34.5672 0.586841,34.3968 0.51363,34.224 0.444967,34.0489 0.380925,33.8715 0.32158,33.6921 0.267007,33.5104 0.217278,33.3267 0.172469,33.1411 0.132653,32.9538 0.0979048,32.7644 0.0682988,32.5735 0.0439093,32.3808 0.0248104,32.1865 0.0110764,31.9908 0.00278147,31.7936 0,31.5951 0.001683,31.5362 0.00612,31.4617 0,6.15427 0.003264,5.99601 0.013056,5.83068 0.029376,5.6561 0.013056,5.4779 0.003264,5.30676 0,5.1408 0.00389883,4.93924 0.0154993,4.73962 0.0346573,4.54209 0.0612288,4.34679 0.0950697,4.15385 0.136037,3.96345 0.183983,3.7757 0.238768,3.59076 0.300247,3.40877 0.368273,3.22987 0.442706,3.05421 0.5234,2.88193 0.610209,2.71318 0.702993,2.5481 0.801605,2.38682 0.905902,2.22952 1.01574,2.07631 1.13097,1.92733 1.25147,1.78277 1.37706,1.64272 1.50761,1.50736 1.643,1.37682 1.78305,1.25123 1.92764,1.13076 2.07661,1.01554 2.22985,0.905723 2.38717,0.801443 2.54844,0.702848 2.71353,0.610081 2.88229,0.523287 3.05457,0.442609 3.23023,0.368191 3.40913,0.300177 3.59112,0.238713 3.77605,0.18394 3.96379,0.136004 4.15419,0.0950464 4.34711,0.0612135 4.5424,0.0346485 4.73992,0.0154952 4.93951,0.0038978 5.14104,0 l 0.20161,0.0038978 0.19966,0.0115974 0.19758,0.0191533 0.19535,0.026565 0.19297,0.0338329 0.19046,0.0409576 0.1878,0.047936 0.18499,0.054773 0.18203,0.061464 0.17895,0.068014 0.17571,0.074418 0.17233,0.080678 0.1688,0.086794 0.16513,0.092767 0.16131,0.098595 0.15736,0.10428 0.15325,0.109817 0.14901,0.11522 0.14462,0.12047 0.14008,0.12559 0.13542,0.13054 0.13057,0.13536 0.12562,0.14005 0.12052,0.14456 0.11525,0.14898 0.10985,0.15321 0.10432,0.1573 0.09863,0.16128 0.09279,0.16508 0.08684,0.16875 0.08069,0.17228 0.07445,0.17566 0.06804,0.1789 0.06147,0.18199 0.0548,0.18494 0.048,0.18775 0.0409,0.1904 0.0339,0.19294 0.0265,0.1953 0.0192,0.19753 0.0116,0.19962 z"
           style="fill:url(#Grad243);fill-rule:evenodd;stroke:none"
           transform="rotate(-90,21.41675,-1.47325)"
           id="path4928" />
        <path
           d="M 9.49604,4.7479 9.49425,4.87961 9.4889,5.01071 9.47999,5.14115 9.46757,5.2709 9.45161,5.39988 9.43216,5.52809 9.40922,5.65544 9.3828,5.78191 9.35294,5.90745 9.31962,6.03203 9.2829,6.15558 9.24275,6.27807 9.19923,6.39944 9.15231,6.51966 9.10204,6.63869 9.04842,6.75647 8.99148,6.87297 8.93121,6.98812 8.86765,7.10191 8.8008,7.21426 8.96406,7.2017 9.12556,7.19377 9.28637,7.191 9.48512,7.19459 9.68211,7.20528 9.8772,7.22295 l 0.1931,0.02453 0.1909,0.03124 0.1887,0.03786 0.1862,0.04434 0.1838,0.05069 0.1811,0.05692 0.1783,0.06304 0.1755,0.06902 0.1725,0.07488 0.1693,0.08063 0.166,0.08623 0.1627,0.09172 0.1592,0.0971 0.1555,0.10233 0.1518,0.10745 0.148,0.11245 0.1438,0.11732 0.1398,0.12207 0.1356,0.12669 0.1311,0.13119 0.1267,0.13555 0.122,0.13982 0.1172,0.14394 0.1125,0.14795 0.1074,0.15182 0.1023,0.15559 0.0971,0.1592 0.0918,0.16268 0.0861,0.1661 0.0807,0.1694 0.0748,0.1725 0.069,0.1755 0.0631,0.1784 0.0569,0.1812 0.0506,0.1838 0.0444,0.1863 0.0378,0.1888 0.0313,0.191 0.0245,0.1931 0.0176,0.1951 0.0108,0.1972 0.0035,0.1987 -0.0016,0.1333 -0.0049,0.133 -0.0082,0.1324 -0.0112,0.1319 -0.0146,0.1314 -0.0177,0.1307 -0.021,0.13 -0.024,0.1294 -0.0271,0.1286 -0.0303,0.1278 -0.0332,0.1268 -0.0364,0.1261 -0.0394,0.1249 -0.0425,0.124 -0.0454,0.1229 -0.0485,0.1219 -0.0514,0.1206 -0.0543,0.1195 -0.0573,0.1181 -0.0601,0.1169 -0.063,0.1154 -0.066,0.1141 -0.0688,0.1126 -0.0716,0.111 -0.0743,0.1094 -0.0772,0.108 -0.08,0.1061 -0.0827,0.1045 0.1667,0.0409 0.165,0.0444 0.1634,0.0483 0.1616,0.0517 0.1598,0.0552 0.158,0.0589 0.1561,0.0622 0.1542,0.0656 0.1523,0.069 0.1503,0.0724 0.1482,0.0755 0.1462,0.0787 0.144,0.0819 0.142,0.0849 0.1397,0.088 0.1374,0.0911 0.1353,0.094 0.1328,0.0968 0.1305,0.0998 0.1281,0.1024 0.1256,0.1054 0.1231,0.108 0.1207,0.1106 0.118,0.1132 0.1156,0.1158 0.1127,0.1184 0.1102,0.1207 0.1073,0.1232 0.1045,0.1255 0.1019,0.1279 0.0989,0.13 0.0959,0.1323 0.093,0.1345 0.0901,0.1366 0.0872,0.1386 0.084,0.1406 0.0809,0.1426 0.0777,0.1446 0.0744,0.1464 0.0714,0.1481 0.068,0.1499 0.0648,0.1517 0.0613,0.1533 0.0579,0.155 0.0546,0.1565 0.051,0.158 0.0475,0.1595 0.0439,0.1609 0.0404,0.1623 0.0368,0.1636 0.0329,0.1648 0.0294,0.1661 0.0254,0.1673 0.0217,0.1683 0.0179,0.1695 0.0139,0.1704 0.01,0.1715 0.006,0.1723 0.0021,0.1732 -0.0022,0.1761 -0.0063,0.1752 -0.0107,0.1744 -0.0147,0.1733 -0.019,0.1725 -0.0228,0.1712 -0.027,0.1703 -0.0309,0.1689 -0.0349,0.1678 -0.0388,0.1666 -0.0426,0.1651 -0.0463,0.1638 -0.0502,0.1623 -0.0537,0.1608 -0.0574,0.1593 -0.0611,0.1576 -0.0645,0.156 -0.0682,0.1542 -0.0714,0.1525 -0.075,0.1507 -0.0782,0.1487 -0.0816,0.1469 -0.0848,0.1448 -0.088,0.1428 -0.0914,0.1406 -0.0943,0.1386 -0.0973,0.1362 -0.1005,0.1341 -0.1034,0.1318 -0.1064,0.1292 -0.1092,0.127 -0.112,0.1244 -0.1149,0.122 -0.1175,0.1192 -0.1203,0.1166 -0.1229,0.114 -0.1256,0.1111 -0.1281,0.1085 -0.1306,0.1055 -0.1329,0.1025 -0.1355,0.0997 -0.1378,0.0965 -0.14,0.0934 -0.1424,0.0904 -0.1447,0.0872 -0.1466,0.0839 -0.1489,0.0806 -0.151,0.0773 -0.153,0.0738 -0.1549,0.0704 -0.1569,0.0668 -0.1588,0.0633 -0.1606,0.0596 -0.1624,0.0559 -0.1641,0.0522 -0.1659,0.0484 -0.1674,0.0446 -0.1691,0.0406 -0.1707,0.0367 -0.1721,0.0327 0.0192,0.1494 0.0157,0.146 0.0118,0.1428 0.0085,0.14 0.005,0.1374 0.0017,0.1351 -0.0029,0.1974 -0.0087,0.1961 -0.0143,0.1945 -0.0201,0.193 -0.0255,0.1912 -0.0311,0.1896 -0.0362,0.1877 -0.0417,0.1858 -0.0468,0.1837 -0.052,0.1818 -0.0569,0.1794 -0.0621,0.1774 -0.0668,0.1749 -0.0716,0.1725 -0.0763,0.1701 -0.081,0.1674 -0.0854,0.1649 -0.0901,0.162 -0.0943,0.1593 -0.0987,0.1563 -0.1028,0.1533 -0.1071,0.1504 -0.111,0.1471 -0.1151,0.1439 -0.1189,0.1405 -0.1227,0.1372 -0.1265,0.1338 -0.1301,0.1301 -0.1337,0.1266 -0.1372,0.1228 -0.1405,0.1189 -0.1439,0.1151 -0.1471,0.1111 -0.1502,0.107 -0.1534,0.103 -0.1563,0.0987 -0.15921,0.0944 -0.16205,0.09 -0.1648,0.0855 -0.16744,0.0811 -0.17004,0.0763 -0.17252,0.0716 -0.17495,0.067 -0.17727,0.0619 -0.17952,0.0571 -0.1817,0.052 -0.18378,0.0467 -0.18579,0.0418 -0.1877,0.0363 -0.18955,0.031 L 7.37057,37.745 7.17758,37.7649 6.98302,37.7794 6.78692,37.7881 6.5894,37.791 6.39187,37.7881 6.19578,37.7794 6.00119,37.7649 5.80819,37.745 5.61686,37.7194 5.4273,37.6884 5.23956,37.6521 5.05376,37.6103 4.86995,37.5636 4.68823,37.5116 4.50868,37.4545 4.33137,37.3926 4.1564,37.3256 3.98384,37.254 3.81376,37.1777 3.64628,37.0966 3.48145,37.0111 3.31937,36.9211 3.1601,36.8267 3.00374,36.728 2.85038,36.625 2.70007,36.518 2.55293,36.4069 2.40902,36.2918 2.26841,36.1729 2.13122,36.0501 1.99751,35.9235 1.86735,35.7934 1.74085,35.6596 1.61805,35.5224 1.49908,35.3819 1.384,35.238 1.2729,35.0909 1.16585,34.9405 1.06293,34.7872 0.964235,34.6309 0.869842,34.4716 0.779832,34.3096 0.69429,34.1447 0.613295,33.9773 0.536931,33.8072 0.465278,33.6347 0.398421,33.4598 0.336441,33.2824 0.279418,33.103 0.227438,32.9212 0.180579,32.7375 0.138926,32.5517 0.102561,32.364 0.0715653,32.1744 0.0460208,31.9832 0.0260099,31.7902 0.0116147,31.5957 0.00291736,31.3996 0,31.2022 9.18e-4,31.1612 0.003672,31.1202 0.007344,31.0859 0.003672,31.0406 9.18e-4,30.999 0,30.9574 V 5.76137 L 0.003264,5.6037 0.013056,5.43842 0.029376,5.26442 0.013056,5.08454 0.003264,4.91309 0,4.7479 0.00417514,4.5474 0.0165896,4.34901 0.0370769,4.15289 0.0654705,3.9592 0.101604,3.76811 0.145311,3.57977 0.196425,3.39437 0.25478,3.21207 0.320209,3.03304 0.392545,2.85742 0.471623,2.68539 0.557276,2.51714 0.649337,2.3528 0.747639,2.19255 0.852017,2.03655 0.962304,1.88498 1.07833,1.73799 1.19994,1.59577 1.32695,1.45844 1.45922,1.32622 1.59655,1.19923 1.73879,1.07767 1.88578,0.96168 2.03735,0.851438 2.19332,0.747108 2.35354,0.648856 2.51784,0.556847 2.68606,0.471247 2.858,0.392221 3.03354,0.319935 3.21249,0.254555 3.39468,0.196246 3.57996,0.145175 3.76813,0.101506 3.95906,0.0654058 4.15258,0.0370392 4.34849,0.0165723 4.54667,0.00417068 4.74692,0 4.94735,0.00417068 5.14567,0.0165723 5.34176,0.0370392 5.53541,0.0654058 5.72648,0.101506 5.9148,0.145175 l 0.18538,0.051071 0.18231,0.058309 0.17905,0.06538 0.17564,0.072286 0.17204,0.079026 0.1683,0.0856 0.16437,0.092009 0.1603,0.098252 0.15605,0.10433 0.15161,0.110242 0.14705,0.11599 0.14229,0.12156 0.13739,0.12699 0.1323,0.13222 0.12705,0.13733 0.12163,0.14222 0.11606,0.14699 0.1103,0.15157 0.10441,0.156 0.09831,0.16025 0.09209,0.16434 0.08565,0.16825 0.0791,0.17203 0.07233,0.17562 0.06544,0.17903 0.05836,0.1823 0.05111,0.1854 0.04371,0.18834 0.03614,0.19109 0.02839,0.19369 0.02049,0.19612 0.01241,0.19839 z"
           style="fill:url(#Grad244);fill-rule:evenodd;stroke:none"
           transform="rotate(-90,21.41615,-1.86675)"
           id="path4930" />
        <path
           d="M 0.0858024,0 0.0835686,0.004284 0.080784,0.008568 0.0406215,0.006273 0,0.004896 0.0432225,0.002448 Z"
           style="fill:url(#Grad245);fill-rule:evenodd;stroke:none"
           transform="rotate(90,10.723695,20.301005)"
           id="path4932" />
        <path
           d="M 5.92098,31.551 5.91776,31.3941 5.90825,31.2306 5.8927,31.059 5.90825,30.8924 5.91776,30.7344 5.92098,30.5841 V 6.52514 L 5.91961,6.48475 5.91731,6.44436 5.91486,6.40152 5.91731,6.36847 5.91961,6.33022 5.92098,6.29014 5.91808,6.09804 5.90945,5.90738 5.89515,5.71822 5.87529,5.53066 5.84992,5.34477 5.81917,5.16063 5.78308,4.97834 5.74176,4.79796 5.69527,4.6196 5.64372,4.44332 5.58717,4.26921 5.52572,4.09735 5.45944,3.92784 5.38843,3.76073 5.31276,3.59614 5.2325,3.43412 5.14776,3.27476 5.05862,3.11815 4.96516,2.96438 4.86744,2.81352 4.76558,2.66565 4.65965,2.52086 4.54971,2.37925 4.43587,2.24086 4.31821,2.10581 4.1968,1.97415 4.07175,1.846 3.9431,1.72142 3.81099,1.6005 3.67544,1.48332 3.53659,1.36995 3.39448,1.26049 3.24922,1.15502 3.10089,1.05361 2.94956,0.956361 2.79533,0.863345 2.63827,0.774645 2.47847,0.690345 2.316,0.610528 2.15097,0.535275 1.98344,0.46467 1.81352,0.398794 1.64125,0.337731 1.46674,0.281564 1.29008,0.230374 1.11135,0.184245 0.930619,0.143258 0.74798,0.107498 0.563516,0.0770446 0.377309,0.0519823 0.189442,0.0323933 0,0.01836 0.185344,0.006426 0.370505,0 0.570012,0.0031147 0.767982,0.0123969 0.964322,0.0277541 1.15894,0.0490932 1.35175,0.0763215 1.54264,0.109346 1.73154,0.148075 1.91835,0.192415 2.10297,0.242272 2.28532,0.297556 2.46528,0.358172 2.6428,0.424028 2.81776,0.495031 2.99007,0.571089 3.15963,0.652108 3.32638,0.737997 3.49019,0.828661 3.65098,0.924009 3.80866,1.02395 3.96314,1.12838 4.11433,1.23722 4.26213,1.35038 4.40645,1.46775 4.54718,1.58925 4.68427,1.71479 4.81759,1.84426 4.94705,1.97758 5.07259,2.11467 5.19407,2.2554 5.31144,2.39973 5.42457,2.54751 5.5334,2.69869 5.63782,2.85316 5.73774,3.01082 5.83307,3.17159 5.92372,3.33538 6.00958,3.50208 6.09059,3.67162 6.16662,3.8439 6.23761,4.01881 6.30344,4.19628 6.36404,4.37619 6.41932,4.55848 6.46916,4.74304 6.51348,4.92977 6.55219,5.1186 6.58521,5.30941 6.61243,5.50212 6.63375,5.69664 6.64911,5.89289 6.65839,6.09075 6.6615,6.29014 6.66089,6.33022 6.66027,6.36847 6.6566,6.40152 6.66027,6.44436 6.6615,6.52514 V 30.5841 l -0.0029,0.1503 -0.00889,0.158 -0.01514,0.1666 0.01514,0.1716 0.00889,0.1635 0.0029,0.1569 -0.00442,0.2018 -0.01315,0.1995 -0.02169,0.1969 -0.03003,0.1945 -0.0382,0.1917 -0.04619,0.1887 -0.05397,0.1856 -0.0616,0.1821 -0.069,0.1787 -0.07626,0.1749 -0.08331,0.171 -0.09018,0.1671 -0.09685,0.1627 -0.10336,0.1581 -0.10967,0.1536 -0.1158,0.1489 -0.12174,0.1437 -0.12749,0.1385 -0.13306,0.1332 -0.13846,0.1275 -0.14365,0.1218 -0.14867,0.1159 -0.15349,0.1097 -0.15814,0.1036 -0.1626,0.0968 -0.16686,0.0903 -0.17095,0.0834 -0.17486,0.0762 -0.17857,0.0692 -0.1821,0.0615 -0.18545,0.054 -0.18862,0.0463 -0.19158,0.0382 -0.19437,0.0301 -0.19698,0.0216 -0.1994,0.0133 -0.20163,0.0044 -0.18598,-0.0055 -0.1844,-0.0129 0.18751,-0.0193 0.18522,-0.0268 0.18274,-0.0343 0.18011,-0.0415 0.17734,-0.0486 0.17438,-0.0554 0.17127,-0.0623 0.16801,-0.0688 0.16459,-0.0753 0.16101,-0.0816 0.15726,-0.0878 0.15335,-0.0936 0.14929,-0.0996 0.14508,-0.1051 0.14069,-0.1106 0.13616,-0.1161 0.13144,-0.1212 0.1266,-0.1262 0.12158,-0.131 0.11639,-0.1358 0.11107,-0.1403 0.10557,-0.1448 0.0999,-0.1489 0.0941,-0.153 0.08812,-0.1569 0.08198,-0.1607 0.0757,-0.1644 L 5.61446,33.19 5.6771,33.0189 5.73296,32.8447 5.78188,32.6676 5.82372,32.4875 5.85831,32.3049 5.88548,32.1198 5.9051,31.9323 5.91698,31.7427 Z"
           style="fill:url(#Grad246);fill-rule:evenodd;stroke:none"
           transform="rotate(90,24.03735,36.18345)"
           id="path4934" />
        <path
           d="M 4.4113,28.5155 4.39617,28.3679 4.37602,28.2229 4.34813,28.077 4.30979,27.927 4.2583,27.7701 4.43093,27.7372 4.60193,27.7001 4.77126,27.6586 4.93885,27.6131 5.10466,27.5633 5.26862,27.5095 5.43068,27.4516 5.59079,27.3899 5.74891,27.3243 5.90496,27.2549 6.05889,27.1817 6.21065,27.1049 6.36019,27.0245 6.50744,26.9404 6.65237,26.8528 6.79491,26.7619 6.93501,26.6675 7.0726,26.57 7.20766,26.4691 7.3401,26.365 7.46988,26.2579 7.59694,26.1476 7.72124,26.0344 7.84272,25.9183 7.96131,25.7992 8.07697,25.6774 8.18964,25.553 8.29927,25.4257 8.40581,25.2959 8.50919,25.1635 8.60936,25.0286 8.70628,24.8913 8.79987,24.7517 8.89011,24.6097 8.97691,24.4656 9.06024,24.3192 9.14005,24.1707 9.21625,24.0203 9.28881,23.8678 9.35769,23.7133 9.4228,23.5571 9.48412,23.399 9.54157,23.2392 9.59511,23.0778 9.64467,22.9147 9.69021,22.7501 9.73168,22.584 9.769,22.4166 9.80215,22.2477 9.83105,22.0775 9.85566,21.9062 9.87591,21.7337 9.89176,21.56 9.90314,21.3854 9.91002,21.2097 9.91232,21.0332 9.91014,20.8594 9.90364,20.6865 9.89286,20.5145 9.87785,20.3436 9.85866,20.1738 9.83534,20.0053 9.80794,19.8379 9.77649,19.6718 9.74106,19.5071 9.70168,19.3437 9.65841,19.1819 9.61129,19.0214 9.56038,18.8627 9.50572,18.7055 9.44735,18.5501 9.38533,18.3964 9.3197,18.2443 9.2505,18.0943 9.17781,17.946 9.10164,17.7999 9.02207,17.6557 8.93912,17.5136 8.85285,17.3737 8.76331,17.236 8.67055,17.1005 8.5746,16.9673 8.47553,16.8365 8.37338,16.7081 8.26819,16.5823 8.16003,16.4589 8.04891,16.3382 7.93492,16.2201 7.81808,16.1048 7.69845,15.9922 7.57607,15.8824 7.45099,15.7755 7.32325,15.6716 7.19292,15.5706 7.06004,15.4728 6.92465,15.3781 6.78679,15.2865 6.64653,15.1982 6.5039,15.1131 6.35895,15.0313 6.21174,14.9531 6.0623,14.8782 5.9107,14.8069 5.75696,14.7392 5.60116,14.675 5.44332,14.6146 5.28351,14.5579 5.12175,14.505 4.95812,14.4561 4.79263,14.4109 4.62537,14.3698 4.70846,14.2643 4.78857,14.157 l 0.0771,-0.109 0.07408,-0.1109 0.07102,-0.1125 0.06795,-0.1141 0.06487,-0.1157 0.06174,-0.1171 0.0586,-0.1187 0.05545,-0.12 0.05225,-0.1214 0.04905,-0.1226 0.04583,-0.1239 0.04257,-0.125 0.03929,-0.1262 0.036,-0.1271 0.03266,-0.1282 0.02934,-0.1292 0.02596,-0.13 L 5.6949,11.9745 5.71407,11.8429 5.7298,11.7105 5.74208,11.5775 5.75088,11.4439 5.75617,11.3098 5.75794,11.1751 5.75401,10.9712 5.74232,10.7695 5.72301,10.5704 5.69621,10.3739 5.66209,10.1802 5.62077,9.98938 5.57238,9.8016 5.51709,9.61697 5.45503,9.43564 5.38633,9.25777 5.31114,9.08346 5.22961,8.91287 5.14186,8.74613 5.04807,8.58337 4.94834,8.42474 4.84283,8.27036 4.73168,8.12037 4.61502,7.97491 4.49301,7.8341 4.36579,7.6981 4.23349,7.56704 4.09625,7.44104 3.95423,7.32025 3.80755,7.20481 3.65637,7.09483 3.50081,6.99047 3.34103,6.89187 3.17716,6.79914 3.00936,6.71243 2.83775,6.63189 2.66248,6.55763 2.48368,6.48979 2.30151,6.42853 2.11611,6.37397 1.92762,6.32624 1.73616,6.28548 1.5419,6.25182 1.34496,6.22541 1.14549,6.20638 0.94364,6.19486 0.739541,6.19099 0.513911,6.19711 0.283968,6.21425 0.34798,6.10767 0.411422,5.99713 0.474022,5.88295 0.535506,5.76546 0.595601,5.64499 0.654032,5.5219 0.710527,5.39652 0.764812,5.26919 0.816614,5.14022 0.865658,5.00999 0.911673,4.8788 0.954385,4.747 0.993517,4.61493 1.0288,4.48294 1.05996,4.35134 1.08672,4.22047 1.10881,4.09069 1.12596,3.96232 1.13788,3.8357 1.14432,3.71117 1.14691,3.49983 1.14153,3.2924 1.12873,3.08913 1.10905,2.89022 1.08306,2.69592 1.0513,2.50643 1.01434,2.32201 0.972716,2.14288 0.926995,1.96926 0.877726,1.80136 0.825462,1.63945 0.770759,1.48372 0.714169,1.33443 0.656244,1.19177 0.597542,1.05601 0.538613,0.927344 0.480012,0.806019 0.422293,0.692255 0.36601,0.586284 0.311716,0.488331 0.259965,0.398625 0.211311,0.317394 0.166307,0.244866 0.125507,0.18127 0.0894647,0.126831 0.058734,0.0817798 0.0338684,0.0463431 0.0154218,0.0207489 0.00394773,0.00522521 0,0 0.105977,0.0875613 0.209237,0.178246 0.309706,0.271981 0.407314,0.368693 0.501986,0.46831 0.593649,0.570759 0.682231,0.675966 0.767659,0.783859 0.84986,0.894367 0.92876,1.00741 1.00429,1.12293 1.07637,1.24084 1.14494,1.36106 1.20991,1.48355 1.27122,1.6082 1.3288,1.73496 1.38256,1.86375 1.43243,1.9945 1.47836,2.12713 1.52026,2.26156 1.55805,2.39774 1.59168,2.53559 1.62105,2.67503 1.64611,2.81598 1.66678,2.9584 1.68298,3.10218 1.69464,3.24726 1.70169,3.39356 1.70405,3.54103 1.70216,3.67314 1.69649,3.80467 1.68705,3.93555 1.67388,4.06574 1.65699,4.19516 1.63639,4.32378 1.61212,4.45153 1.58419,4.57835 1.55261,4.70419 1.51742,4.82899 1.47862,4.95268 1.43623,5.07523 1.39028,5.19657 1.34079,5.31664 1.28778,5.43538 1.23127,5.55275 1.17127,5.66869 1.1078,5.78312 1.04089,5.89601 1.27346,5.87887 1.50319,5.87275 1.70184,5.87651 1.89862,5.88767 2.09339,5.90612 2.28604,5.93171 2.47641,5.96432 2.66438,6.00379 2.84979,6.05 3.03253,6.10283 3.21246,6.16211 3.38944,6.22772 3.56333,6.29954 3.73401,6.37742 3.90133,6.46123 4.06516,6.55082 4.22537,6.64608 4.38181,6.74685 4.53436,6.853 l 0.14852,0.11141 0.14434,0.11652 0.14005,0.1215 0.13561,0.12634 0.13104,0.13106 0.12633,0.13563 0.12148,0.14007 0.11652,0.14436 0.11139,0.14855 0.10615,0.15257 0.10076,0.15646 0.09524,0.16022 0.08958,0.16386 0.0838,0.16735 0.07787,0.17069 0.0718,0.17392 0.0656,0.17701 0.05929,0.17996 0.05281,0.18277 0.0462,0.18545 0.03948,0.188 0.03259,0.1904 0.0256,0.1927 0.01844,0.1948 0.01116,0.1968 0.00376,0.1987 -0.00181,0.137 -0.00541,0.1366 -0.00898,0.1361 -0.01255,0.1354 -0.01608,0.1349 -0.01959,0.1341 -0.02307,0.1333 -0.02654,0.1325 -0.02997,0.1317 -0.03339,0.1307 -0.0368,0.1296 -0.04016,0.1287 -0.0435,0.1275 -0.04681,0.1263 -0.05014,0.1251 -0.0534,0.1238 -0.05666,0.1225 -0.05989,0.1209 -0.0631,0.1196 -0.06629,0.118 -0.06944,0.1165 -0.07258,0.1147 -0.07571,0.1131 -0.07878,0.1114 -0.08185,0.1094 -0.08491,0.1076 0.1647,0.0404 0.16301,0.0442 0.16125,0.048 0.15948,0.0515 0.15762,0.0552 0.15577,0.0588 0.15383,0.0623 0.15188,0.0657 0.14986,0.0692 0.14781,0.0725 0.14572,0.0758 0.14357,0.0791 0.14139,0.0822 0.13917,0.0853 0.13689,0.0885 0.13459,0.0916 0.13222,0.0945 0.12983,0.0974 0.12737,0.1004 0.12488,0.1032 0.12236,0.1058 0.11977,0.1087 0.11716,0.1114 0.1145,0.114 0.11178,0.1165 0.10904,0.1191 0.10624,0.1214 0.10341,0.124 0.10051,0.1263 0.0976,0.1285 0.09462,0.131 0.09161,0.1331 0.08855,0.1351 0.08546,0.1373 0.0823,0.1394 0.07909,0.1414 0.0759,0.1433 0.0726,0.1452 0.0693,0.147 0.066,0.1488 0.0625,0.1506 0.059,0.1523 0.0556,0.1538 0.0521,0.1555 0.0484,0.1569 0.0448,0.1584 0.0412,0.1598 0.0375,0.1613 0.0336,0.1626 0.0299,0.1638 0.0261,0.165 0.0221,0.1662 0.0183,0.1672 0.0142,0.1684 0.0103,0.1693 0.0061,0.1702 0.0021,0.1713 -0.0023,0.1768 -0.0067,0.1761 -0.0112,0.1749 -0.0156,0.174 -0.02,0.173 -0.0242,0.1717 -0.0284,0.1706 -0.0327,0.1693 -0.0367,0.1679 -0.0409,0.1666 -0.0448,0.1653 -0.0489,0.1636 -0.0527,0.1621 -0.0566,0.1604 -0.0604,0.1589 -0.0642,0.157 -0.0679,0.1553 -0.0715,0.1533 -0.0752,0.1514 -0.0787,0.1495 -0.0822,0.1473 -0.08559,0.1452 -0.08902,0.1431 -0.09236,0.1409 -0.09565,0.1385 -0.09887,0.1363 -0.10206,0.1338 -0.10518,0.1313 -0.10826,0.1288 -0.11127,0.126 -0.11425,0.1235 -0.11718,0.1208 -0.12002,0.118 -0.12284,0.1152 -0.1256,0.1122 -0.1283,0.1092 -0.13096,0.1063 -0.13355,0.1032 -0.13611,0.1 -0.13861,0.0968 -0.14104,0.0935 -0.14343,0.0901 -0.14576,0.0869 -0.14806,0.0832 -0.15029,0.0798 -0.15247,0.0763 -0.15459,0.0727 -0.15667,0.0688 -0.15868,0.0652 -0.16066,0.0613 -0.16257,0.0574 -0.16444,0.0535 -0.16624,0.0496 -0.168,0.0454 -0.16971,0.0413 -0.17136,0.037 -0.17297,0.033 0.02134,0.1713 0.01617,0.1664 0.01122,0.1619 0.00655,0.1581 0.00213,0.155 -0.00164,0.1444 -0.00488,0.1437 -0.00809,0.143 -0.01128,0.142 -0.01442,0.1411 -0.01752,0.1403 -0.0206,0.1391 -0.02364,0.1384 -0.02663,0.1372 -0.0296,0.1361 -0.03253,0.135 -0.03544,0.1339 -0.03829,0.1328 -0.04111,0.1314 -0.0439,0.1304 -0.04666,0.129 -0.04938,0.1277 -0.05206,0.1263 -0.05471,0.125 L 4.60808,31.4949 4.54819,31.617 4.48574,31.7376 4.42078,31.8566 4.35336,31.9741 4.2835,32.09 4.21123,32.2042 4.13661,32.3168 4.05964,32.4277 3.98039,32.5369 3.89887,32.6442 3.81512,32.7497 3.72919,32.8534 3.64109,32.9552 3.55089,33.0551 3.4586,33.1531 3.36425,33.249 3.2679,33.343 3.16956,33.4348 3.06929,33.5246 2.9671,33.6123 2.96995,33.6087 2.97831,33.5981 2.99187,33.5806 3.01035,33.5561 3.03344,33.5249 3.06084,33.487 3.09228,33.4425 3.12742,33.3917 3.16599,33.3344 3.20768,33.2709 3.2522,33.2011 3.29926,33.1254 3.34853,33.0436 3.39976,32.956 3.45261,32.8626 3.50681,32.7634 3.56205,32.6588 3.61803,32.5486 3.67446,32.4331 3.73103,32.3121 3.78747,32.1862 3.84346,32.0551 3.8987,31.919 3.9529,31.778 4.00576,31.6322 4.05698,31.4816 4.10629,31.3266 4.15335,31.167 4.19788,31.0029 4.23958,30.8348 4.27817,30.6622 4.31333,30.4857 4.34477,30.305 4.3722,30.1206 4.39531,29.9322 4.41381,29.7401 4.4274,29.5445 4.43579,29.3454 4.43866,29.1428 4.43574,28.9368 4.42672,28.7278 Z"
           style="fill:url(#Grad247);fill-rule:evenodd;stroke:none"
           transform="rotate(-90,18.8648,-6.5075)"
           id="path4936" />
        <path
           d="M 4.3545,26.5094 4.34891,26.3193 4.33235,26.1322 4.30513,25.9483 4.26757,25.7681 4.21997,25.5919 4.16266,25.4198 4.09596,25.2523 4.02017,25.0897 3.93559,24.9321 3.84256,24.7801 3.74139,24.6339 3.63237,24.4936 3.51584,24.3597 3.39211,24.2325 3.26148,24.1123 3.12428,23.9993 2.98082,23.8941 2.83141,23.7966 2.67636,23.7074 2.51599,23.6266 2.35061,23.5547 2.18054,23.4919 2.00609,23.4385 1.82757,23.3949 1.6453,23.3613 1.7802,23.2944 1.91207,23.2226 2.0408,23.146 2.16627,23.0646 2.28834,22.9785 2.40691,22.8881 2.52183,22.7932 2.63298,22.6942 2.74025,22.591 2.8435,22.4839 2.94261,22.3728 3.03745,22.2581 3.12791,22.1396 3.21386,22.0177 3.29515,21.8925 3.37169,21.7639 3.44333,21.6322 3.50997,21.4975 3.57146,21.3599 3.62769,21.2196 3.67854,21.0765 3.72386,20.9311 3.76356,20.7832 3.79748,20.633 3.82551,20.4806 3.84755,20.3262 3.86342,20.1699 3.87305,20.0118 3.87629,19.8521 3.87238,19.6764 3.86075,19.5027 3.8416,19.3312 3.81505,19.1621 3.7813,18.9955 3.74051,18.8316 3.69283,18.6704 3.63844,18.5124 3.57751,18.3574 3.51019,18.2058 3.43666,18.0577 3.35709,17.9132 3.27163,17.7726 3.18047,17.636 3.08375,17.5036 2.98164,17.3753 2.87433,17.2517 2.76196,17.1326 2.64471,17.0184 2.52274,16.9091 2.39622,16.805 2.26532,16.7061 2.1302,16.6129 1.99102,16.5251 1.84796,16.4432 1.70118,16.3672 1.55084,16.2973 1.39712,16.2338 1.24018,16.1766 l -0.16,-0.0504 0.1124,-0.0858 0.11,-0.0887 0.10754,-0.0916 0.10503,-0.0944 0.10246,-0.097 0.09983,-0.0998 0.09714,-0.1024 0.09439,-0.1051 0.09158,-0.1074 0.08871,-0.1099 0.08579,-0.1123 0.0828,-0.1147 0.07976,-0.117 0.07664,-0.1191 0.07349,-0.1213 0.07026,-0.1235 0.06699,-0.1254 0.06365,-0.1276 0.06024,-0.1295 0.05679,-0.1313 0.05326,-0.1332 0.0497,-0.135 0.04604,-0.1366 0.04237,-0.1383 0.0386,-0.14 0.0348,-0.1415 0.03092,-0.143 0.02699,-0.1444 0.023,-0.1458 L 3.17031,12.5175 3.18514,12.3691 3.19583,12.2195 3.20227,12.0687 3.20443,11.9169 3.20261,11.7778 3.19716,11.6396 3.18814,11.5024 3.17559,11.3662 3.15957,11.2311 3.14012,11.097 3.1173,10.9641 3.09113,10.8324 3.06169,10.7019 3.02901,10.5726 2.99315,10.4447 2.95415,10.3181 2.91207,10.1929 2.86694,10.0691 2.81882,9.9468 2.76776,9.82601 2.71379,9.70681 2.657,9.5892 2.59739,9.47323 2.53504,9.35896 2.46998,9.24643 2.40227,9.13567 2.33196,9.02672 2.2591,8.91963 2.18373,8.81444 2.10589,8.71121 2.22709,8.6341 2.34576,8.55346 2.46182,8.46937 2.5752,8.3819 2.68582,8.29114 2.79362,8.19714 2.89851,8.09999 3.0004,7.99976 3.09924,7.89651 3.19495,7.79033 3.28743,7.68129 3.37662,7.56944 3.46245,7.45488 3.54484,7.33767 3.6237,7.21789 3.69898,7.09561 3.77057,6.97091 3.83842,6.84385 3.90244,6.71451 3.96257,6.58297 4.01872,6.44928 4.07082,6.31353 4.11877,6.17579 4.16253,6.03614 4.202,5.89464 4.23713,5.75138 4.26781,5.60641 4.29398,5.45982 4.31557,5.31168 4.33248,5.16206 4.34466,5.01103 4.35203,4.85868 4.3545,4.70506 4.35073,4.5153 4.33953,4.32746 4.32104,4.14169 4.2954,3.9581 4.26275,3.77685 4.22323,3.59808 4.177,3.42195 4.12417,3.24857 4.06492,3.07809 3.99936,2.91067 3.92766,2.74644 3.84993,2.58553 3.76635,2.4281 3.67703,2.27428 3.58213,2.12423 3.4818,1.97806 3.37617,1.83594 3.26537,1.69801 3.14957,1.56439 3.0289,1.43524 2.90349,1.3107 2.7735,1.1909 2.63907,1.076 2.50033,0.96613 2.35744,0.861434 2.21053,0.762054 2.05973,0.66813 1.90523,0.579808 1.74711,0.497226 1.58557,0.420527 1.42071,0.349852 1.25269,0.285345 1.08165,0.227145 0.907739,0.175396 0.73109,0.130238 0.551849,0.091814 0.37016,0.060265 0.186162,0.0357331 0,0.01836 0.173471,0.005967 0.350064,0 0.548862,0.00412997 0.745558,0.0164108 0.939989,0.0366788 1.13199,0.0647703 1.32141,0.100522 l 0.18664,0.043247 0.18374,0.05058 0.18066,0.057748 0.17741,0.064755 0.174,0.071595 0.17043,0.078273 0.1667,0.084787 0.16279,0.091138 0.15874,0.097325 0.15452,0.103348 0.15012,0.109207 0.14557,0.114905 0.14086,0.12043 0.13597,0.12581 0.13094,0.131 0.12574,0.13605 0.12036,0.14093 0.11483,0.14564 0.10914,0.15019 0.10328,0.15458 0.09726,0.1588 0.09108,0.16286 0.08473,0.16675 0.07822,0.17048 0.07154,0.17407 0.0647,0.17745 0.05772,0.1807 0.05054,0.18377 0.0432,0.1867 L 4.98857,3.92308 5.01664,4.1151 5.03688,4.30954 5.04916,4.50625 5.05328,4.70506 5.05081,4.85868 5.04346,5.01103 5.03129,5.16206 5.01437,5.31168 4.99281,5.45982 4.96665,5.60641 4.93598,5.75138 4.90088,5.89464 4.86142,6.03614 4.81768,6.17579 4.76973,6.31353 4.71765,6.44928 4.66152,6.58297 4.6014,6.71451 4.53738,6.84385 4.46953,6.97091 4.39794,7.09561 4.32267,7.21789 4.24379,7.33767 4.16139,7.45488 4.07554,7.56944 3.98632,7.68129 3.8938,7.79033 3.79806,7.89651 3.69917,7.99976 3.59721,8.09999 3.49227,8.19714 3.3844,8.29114 3.27369,8.3819 3.16021,8.46937 3.04404,8.55346 2.92526,8.6341 2.80394,8.71121 2.88208,8.81444 2.95772,8.91963 3.03083,9.02672 3.10135,9.13567 3.16923,9.24643 3.23443,9.35896 3.29692,9.47323 3.35661,9.5892 3.4135,9.70681 l 0.05402,0.1192 0.0511,0.12079 0.04814,0.1223 0.04514,0.1238 0.04208,0.1252 0.03899,0.1266 0.03585,0.1279 0.03264,0.1293 0.0294,0.1305 0.02614,0.1317 0.02279,0.1329 0.01941,0.1341 0.01598,0.1351 0.01251,0.1362 0.009,0.1372 0.00543,0.1382 0.00183,0.1391 -0.00217,0.1518 -0.00645,0.1508 -0.01068,0.1496 -0.01485,0.1484 -0.01897,0.1471 -0.02301,0.1458 -0.02702,0.1444 -0.03093,0.143 -0.03482,0.1415 -0.03863,0.14 -0.04238,0.1383 -0.04607,0.1366 -0.04972,0.135 -0.05328,0.1332 -0.0568,0.1313 -0.06026,0.1295 -0.06366,0.1276 -0.067,0.1254 -0.07027,0.1235 -0.0735,0.1213 -0.07665,0.1191 -0.07976,0.117 -0.0828,0.1147 -0.08578,0.1123 -0.08869,0.1099 -0.09157,0.1074 -0.09435,0.1051 -0.09712,0.1024 -0.09979,0.0998 -0.10242,0.097 -0.10499,0.0944 -0.10749,0.0916 -0.10993,0.0887 -0.11232,0.0858 0.15993,0.0504 0.15688,0.0572 0.15367,0.0635 0.15029,0.0699 0.14674,0.076 0.14303,0.0819 0.13915,0.0878 0.1351,0.0932 0.1309,0.0989 0.12651,0.1041 0.12196,0.1093 0.11726,0.1142 0.11237,0.1191 0.10733,0.1236 0.10211,0.1283 0.09672,0.1324 0.09119,0.1366 0.08547,0.1406 0.0796,0.1445 0.07355,0.1481 0.06733,0.1516 0.06095,0.155 0.0544,0.158 0.0477,0.1612 0.04081,0.1639 0.03377,0.1666 0.02655,0.1691 0.01918,0.1715 0.01161,0.1737 0.00392,0.1757 -0.00324,0.1597 -0.00963,0.1581 -0.01592,0.1563 -0.02205,0.1544 -0.02807,0.1524 -0.03397,0.1502 -0.03974,0.1479 -0.04537,0.1454 -0.0509,0.1431 -0.05628,0.1403 -0.06154,0.1376 -0.06668,0.1347 -0.0717,0.1317 -0.07659,0.1286 -0.08133,0.1252 -0.08598,0.1219 -0.09049,0.1185 -0.09487,0.1147 -0.09912,0.1111 -0.10326,0.1071 -0.10726,0.1032 -0.11114,0.099 -0.11488,0.0949 -0.11852,0.0904 -0.12202,0.0861 -0.12539,0.0814 -0.12864,0.0766 -0.13176,0.0718 -0.13477,0.0669 0.18221,0.0336 0.17845,0.0436 0.17439,0.0534 0.17002,0.0628 0.16532,0.0719 0.16033,0.0808 0.15501,0.0892 0.14938,0.0975 0.14343,0.1052 0.13717,0.113 0.1306,0.1202 0.12371,0.1272 0.11651,0.1339 0.109,0.1403 0.10116,0.1462 0.09303,0.152 0.08455,0.1576 0.07579,0.1626 0.06671,0.1675 0.05731,0.1721 0.04759,0.1762 0.03756,0.1802 0.02721,0.1839 0.01656,0.1871 0.00559,0.1901 -0.00629,0.2027 -0.01864,0.1993 -0.0306,0.1954 -0.04219,0.1915 -0.0534,0.1869 -0.06425,0.182 L 4.7632,27.8439 4.6784,28.015 4.58388,28.1802 4.48004,28.339 4.36721,28.491 4.2458,28.636 4.11618,28.7734 3.97871,28.903 3.83378,29.0245 3.68176,29.1373 3.52303,29.2411 3.35795,29.3356 3.1869,29.4203 3.01028,29.495 2.82843,29.5591 2.64175,29.6125 2.45061,29.6547 2.25537,29.6853 2.05641,29.7039 1.85412,29.7102 1.67787,29.6973 1.50613,29.6734 1.68891,29.6481 1.8683,29.6127 2.04399,29.5677 2.21567,29.5131 2.38304,29.4493 2.54577,29.3767 2.70358,29.2956 2.85614,29.2061 3.00316,29.1087 3.14431,29.0034 3.2793,28.8908 3.40781,28.7711 3.52954,28.6445 3.64418,28.5114 3.75141,28.372 3.85095,28.2267 3.94247,28.0756 4.02565,27.9193 4.1002,27.7577 l 0.06562,-0.1662 0.05637,-0.1707 0.04682,-0.175 0.03694,-0.179 0.02677,-0.1825 0.01629,-0.1859 z"
           style="fill:url(#Grad248);fill-rule:evenodd;stroke:none"
           transform="rotate(90,22.29375,34.73975)"
           id="path4938" />
        <path
           d="m 1.13918,11.7271 0.00434,-0.1892 -0.02246,-0.2012 0.17955,-0.0081 0.17753,-0.0172 0.17523,-0.0261 0.17268,-0.0348 0.16987,-0.0433 0.16679,-0.0516 0.16345,-0.0597 0.15986,-0.0674 0.156,-0.075 0.15187,-0.0825 0.14748,-0.0896 0.14284,-0.0965 0.13793,-0.1032 0.13277,-0.1098 0.12733,-0.116 0.12163,-0.122 0.11568,-0.128 L 3.82903,9.97242 3.93201,9.83351 4.02826,9.68943 4.1175,9.54039 4.19948,9.38662 4.27394,9.22835 4.3406,9.06579 4.39922,8.89915 4.44952,8.72867 4.49125,8.55457 4.52415,8.37706 4.54515,8.22053 4.55907,8.06451 4.56602,7.90916 4.56612,7.75468 4.55946,7.60124 4.54616,7.44903 4.52633,7.29823 4.50007,7.14904 4.4675,7.00162 4.42874,6.85617 4.38387,6.71287 4.33302,6.5719 4.27631,6.43344 4.21383,6.29768 4.14569,6.1648 4.072,6.03498 3.9929,5.90842 3.90845,5.78528 3.81879,5.66576 3.72403,5.55003 3.62428,5.43829 3.51962,5.33072 3.41021,5.22748 3.29612,5.12879 3.17747,5.03481 3.05438,4.94573 2.92694,4.86173 2.79529,4.78299 2.65951,4.70971 2.51971,4.64204 2.37603,4.58021 2.48383,4.47711 2.58512,4.36871 2.67976,4.2553 2.7676,4.13712 2.84846,4.01446 2.92218,3.88758 2.9886,3.75674 3.04759,3.62222 3.09896,3.48429 3.14255,3.34321 3.17821,3.19924 3.20578,3.05266 3.22766,2.87596 3.23764,2.70109 3.23602,2.52844 3.2231,2.35843 3.19918,2.19144 3.16458,2.02789 3.1196,1.86815 3.06453,1.71265 2.99968,1.56178 2.92537,1.41592 2.84188,1.27551 2.74953,1.14092 2.64863,1.01256 2.53946,0.890827 2.42233,0.776124 2.29757,0.668847 2.16546,0.569401 2.02631,0.478183 1.88042,0.395592 1.7281,0.322031 1.56966,0.257898 1.40538,0.203594 1.2356,0.159519 1.0606,0.126072 0.946336,0.110466 0.829872,0.100368 1.05529,0.0153 1.2382,0 1.35787,0.010557 1.4748,0.025704 1.65318,0.0601548 1.82654,0.10598 1.99451,0.162722 2.15676,0.229925 2.31297,0.30713 2.46279,0.39388 2.6059,0.489716 2.74194,0.594183 2.87061,0.706825 2.99154,0.827179 3.10443,0.954793 3.20891,1.08921 3.30468,1.22996 3.39137,1.37661 3.46867,1.52868 3.53625,1.68572 3.59374,1.84727 3.64084,2.01289 3.67719,2.1821 3.70248,2.35445 3.71636,2.52948 3.7185,2.70674 3.70855,2.88578 3.6862,3.06612 3.65849,3.21575 3.6224,3.36277 3.57813,3.50686 3.52587,3.64775 3.46578,3.78516 3.39807,3.9188 3.32292,4.04837 3.24049,4.17361 3.15099,4.29423 3.0546,4.40994 2.9515,4.52045 2.84188,4.6255 2.98377,4.68662 3.12191,4.75331 3.25623,4.82536 3.38662,4.90265 3.51298,4.98497 3.63518,5.07218 3.75316,5.16409 3.8668,5.26054 3.97599,5.36136 4.08066,5.46638 4.18067,5.57543 4.27593,5.68834 4.36635,5.80495 4.45182,5.92508 4.53225,6.04857 4.60752,6.17524 4.67754,6.30492 4.7422,6.43744 4.80141,6.57266 4.85507,6.71037 4.90306,6.85042 4.9453,6.99265 4.98168,7.13687 5.01208,7.28293 5.03643,7.43065 5.05462,7.57986 5.06654,7.7304 5.07208,7.88209 5.07115,8.03476 5.06366,8.18825 5.0495,8.34239 5.02856,8.49701 4.99519,8.67815 4.95283,8.85581 4.90172,9.02977 4.84213,9.19979 4.77435,9.36564 4.69861,9.52713 4.6152,9.68401 4.52438,9.83604 4.42641,9.98303 4.32156,10.1247 4.21011,10.2609 4.0923,10.3914 3.9684,10.5159 3.8387,10.6343 3.70343,10.7462 3.56288,10.8515 3.41732,10.95 3.26699,11.0413 3.11218,11.1254 2.95316,11.202 2.79016,11.2708 2.62347,11.3316 2.45336,11.3843 2.28009,11.4285 2.10393,11.464 1.92513,11.4907 1.74398,11.5083 1.56072,11.5166 1.549,11.7319 1.52425,11.9316 1.49461,12.0931 1.45733,12.2514 1.41259,12.4061 1.36065,12.5571 1.30171,12.7044 1.236,12.8476 1.16373,12.9868 1.08514,13.1214 1.00044,13.2516 0.909852,13.3772 0.813605,13.4979 0.711919,13.6136 0.605015,13.7241 0.493115,13.8294 0.376441,13.929 0.255216,14.0231 0.129662,14.1113 0,14.1935 0.00749595,14.1865 0.0290053,14.1658 0.0630601,14.1317 0.108193,14.0843 0.162935,14.024 0.225821,13.9509 0.295379,13.8652 0.370145,13.7674 0.44865,13.6575 0.529425,13.536 0.611005,13.4028 0.69192,13.2584 0.770701,13.1029 0.845883,12.9368 0.915998,12.7601 0.979576,12.5731 1.03515,12.376 1.08125,12.1692 1.11642,11.9528 Z"
           style="fill:url(#Grad249);fill-rule:evenodd;stroke:none"
           transform="rotate(-90,24.5389,-13.5618)"
           id="path4940" />
        <path
           d="M 0.126072,0.011016 0.1224,0.005049 0.118728,0 0.058905,0.002448 0,0.004896 0.063036,0.007497 Z"
           style="fill:url(#Grad250);fill-rule:evenodd;stroke:none"
           transform="rotate(90,11.7708,30.7828)"
           id="path4942" />
        <path
           d="M 8.62553,6.60715 8.62403,6.74355 8.61949,6.88289 8.61178,7.02576 8.60078,7.17274 8.58636,7.32442 8.60384,7.50791 8.61604,7.68427 8.62319,7.85421 8.62553,8.01842 V 43.0738 l -0.00107,0.0586 -0.00383,0.0577 -0.00245,0.0624 0.00245,0.0489 0.00383,0.0565 0.00107,0.0574 -0.00288,0.2312 -0.00858,0.2299 -0.01423,0.2284 -0.0198,0.2268 L 8.55473,44.5568 8.524,44.7803 8.48789,45.0021 8.44648,45.222 8.39985,45.4401 8.34805,45.6563 8.29114,45.8705 8.22922,46.0825 8.16233,46.2924 8.09055,46.5001 8.01396,46.7055 7.9326,46.9086 7.84656,47.1092 7.7559,47.3074 7.66069,47.503 7.56099,47.696 7.45688,47.8862 7.34842,48.0737 7.23569,48.2584 7.11875,48.4403 6.99766,48.6191 6.8725,48.7949 6.74333,48.9677 6.61022,49.1372 6.47326,49.3036 6.33249,49.4666 6.18797,49.6262 6.0398,49.7825 5.88803,49.9352 5.73273,50.0844 5.57396,50.2299 5.41181,50.3718 5.24633,50.5098 5.07759,50.644 4.90567,50.7743 4.73063,50.9007 4.55253,51.0229 4.37144,51.141 4.18745,51.2551 4.00061,51.3648 3.81099,51.4703 3.61865,51.5713 3.42366,51.668 3.22611,51.76 3.02605,51.8475 2.82354,51.9304 2.61866,52.0086 2.41149,52.0819 2.20207,52.1505 1.99049,52.214 1.77681,52.2726 1.5611,52.3261 1.34343,52.3746 1.12387,52.4178 0.902472,52.4557 0.679321,52.4884 0.454481,52.5156 0.228018,52.5374 0,52.5537 l 0.179973,0.0122 0.17943,0.011 0.181605,0.0049 0.239937,-0.003 0.238435,-0.0093 0.23687,-0.0153 0.23521,-0.0213 0.23349,-0.0272 0.23168,-0.0331 0.2298,-0.0388 0.22785,-0.0444 0.22581,-0.0502 0.2237,-0.0556 0.22153,-0.061 0.21926,-0.0665 0.21693,-0.0717 0.21452,-0.077 0.21202,-0.0823 0.20946,-0.0871 0.20682,-0.0923 0.2041,-0.0971 0.20133,-0.102 0.19843,-0.1068 0.1955,-0.1114 0.19249,-0.1161 0.18937,-0.1206 0.18621,-0.1251 0.18295,-0.1295 0.17963,-0.1338 0.17624,-0.138 0.17275,-0.1421 0.16921,-0.1464 0.16557,-0.1502 0.16186,-0.1542 0.15808,-0.1582 0.15422,-0.1618 0.1503,-0.1656 0.14628,-0.1691 0.14219,-0.1729 0.13803,-0.1762 0.1338,-0.1796 0.12947,-0.183 0.12508,-0.1862 0.12063,-0.1893 0.11607,-0.1925 0.11146,-0.1955 0.10677,-0.1984 0.10198,-0.2014 0.09715,-0.2041 0.09221,-0.2068 0.08723,-0.2095 0.08215,-0.212 0.07699,-0.2145 0.07176,-0.217 L 9.34829,45.9596 9.40937,45.7381 9.465,45.5143 9.51509,45.2885 9.55957,45.0607 9.59838,44.831 9.63141,44.5993 9.65862,44.3657 9.67991,44.1305 9.69521,43.8936 9.70445,43.6552 9.70754,43.4153 9.70601,43.3579 9.70265,43.3014 9.69775,43.2525 9.70265,43.1901 9.70601,43.1324 9.70754,43.0738 V 8.01842 L 9.70502,7.85421 9.69745,7.68427 9.68483,7.50791 9.66715,7.32442 9.68169,7.17274 9.693,7.02576 9.70108,6.88289 9.70593,6.74355 9.70754,6.60715 9.70462,6.40915 9.6959,6.21257 9.68146,6.01751 9.6614,5.82404 9.63579,5.63224 9.60472,5.4422 9.56825,5.254 9.52649,5.06771 9.47951,4.88344 9.42739,4.70126 9.37023,4.52124 9.30809,4.34347 9.24107,4.16804 9.16923,3.99503 9.09267,3.82451 9.01147,3.65658 8.92571,3.49131 8.83547,3.32879 8.74084,3.1691 8.64191,3.01231 8.53873,2.85853 8.43141,2.70782 8.32003,2.56027 8.20467,2.41596 8.0854,2.27498 7.96232,2.1374 7.8355,2.00331 7.70503,1.87278 7.57099,1.74591 7.43346,1.62279 7.29253,1.50348 7.14828,1.38806 7.00078,1.27664 6.85013,1.16928 6.69639,1.06607 6.53967,0.96709 6.38004,0.872422 6.21758,0.782151 6.05237,0.696357 5.8845,0.615125 5.71405,0.538536 5.5411,0.466672 5.36573,0.399616 5.18802,0.337452 5.00807,0.280261 4.82595,0.228124 4.64174,0.181125 4.45553,0.139348 4.26739,0.102873 4.07743,0.0717828 3.88569,0.046161 3.69228,0.0260892 3.49729,0.0116502 3.30077,0.00292629 3.10284,0 2.9207,0.00403467 2.74072,0.0143253 2.56183,0.028152 l 0.18415,0.0176212 0.18266,0.0226396 0.1811,0.0275876 0.17947,0.0324656 0.17777,0.037273 0.176,0.042011 0.17415,0.046678 0.17225,0.051275 0.17026,0.055802 0.1682,0.060258 0.16609,0.064645 0.16389,0.06896 0.16162,0.073207 0.15929,0.077383 0.15687,0.081486 0.15441,0.085524 0.15185,0.089488 0.14923,0.093384 0.14654,0.0972 0.14379,0.10096 0.14094,0.10465 0.13806,0.10827 0.13506,0.1118 0.13204,0.11527 0.12892,0.11868 0.12573,0.12201 0.12249,0.12528 0.11915,0.12847 0.11576,0.13158 0.11229,0.13464 0.10875,0.13762 0.10514,0.14054 0.10146,0.14337 0.09772,0.14615 0.0939,0.14885 0.09,0.15148 0.08603,0.15404 0.08201,0.15652 0.07791,0.15895 0.07373,0.1613 0.06947,0.16358 0.06518,0.16579 0.06079,0.16792 0.05632,0.17 0.0518,0.172 0.0472,0.17391 0.04254,0.17578 0.03779,0.17757 0.03299,0.17929 0.0281,0.18093 0.02315,0.18251 0.01814,0.18402 0.01303,0.18545 0.00787,0.18682 z"
           style="fill:url(#Grad251);fill-rule:evenodd;stroke:none"
           transform="rotate(90,14.9134,37.6684)"
           id="path4944" />
        <path
           d="M 6.42882,7.42601 6.41607,7.56097 6.40076,7.69395 6.38201,7.82607 6.35894,7.95845 6.3307,8.09221 6.2964,8.22845 6.25518,8.36832 l -0.04901,0.1446 0.2236,0.0422 0.22174,0.04719 0.21983,0.05209 0.21785,0.05694 0.21583,0.06173 0.21374,0.06644 0.21161,0.0711 0.20941,0.07569 0.20716,0.08021 0.20485,0.08468 0.2025,0.08907 0.20008,0.0934 0.1976,0.09768 0.19507,0.10187 0.19248,0.10601 0.18985,0.11009 0.18715,0.1141 0.18438,0.11803 0.1816,0.12196 0.1787,0.1257 0.1758,0.1295 0.1728,0.1331 0.1698,0.1368 0.1667,0.1404 0.1636,0.1438 0.1603,0.1473 0.1571,0.1506 0.1538,0.1539 0.1504,0.1572 0.147,0.1603 0.1435,0.1635 0.14,0.1665 0.1364,0.1694 0.1328,0.1723 0.129,0.1753 0.1252,0.178 0.1216,0.1806 0.1175,0.1834 0.1137,0.186 0.1096,0.1884 0.1057,0.1909 0.1016,0.1934 0.0973,0.1956 0.0932,0.1979 0.0889,0.2002 0.0847,0.2023 0.0802,0.2043 0.0757,0.2064 0.0714,0.2082 0.0668,0.2101 0.0622,0.212 0.0575,0.2137 0.0528,0.2154 0.0481,0.2171 0.0432,0.2184 0.0383,0.2201 0.0334,0.2216 0.0285,0.2227 0.0234,0.2243 0.0183,0.2253 0.0132,0.2266 0.0078,0.2276 0.0027,0.2287 -0.0024,0.2212 -0.0073,0.2202 -0.012,0.219 -0.0166,0.218 -0.0214,0.2167 -0.026,0.2155 -0.0306,0.2141 -0.0351,0.2129 -0.0395,0.2114 -0.0441,0.2097 -0.0483,0.2085 -0.0528,0.2067 -0.0572,0.205 -0.0612,0.2035 -0.0656,0.2017 -0.0696,0.1997 -0.0738,0.1981 -0.0779,0.196 -0.0819,0.1941 -0.0858,0.1919 -0.0898,0.19 -0.0936,0.1877 -0.0976,0.1856 -0.1012,0.1833 -0.105,0.1811 -0.1088,0.1787 -0.1124,0.1761 -0.1159,0.1738 -0.1196,0.1711 -0.123,0.1687 -0.1266,0.166 -0.1299,0.1633 -0.1334,0.1604 -0.1366,0.1578 -0.1399,0.1548 -0.1432,0.1519 -0.1463,0.149 -0.1495,0.1459 -0.1526,0.1427 -0.1556,0.1398 -0.1587,0.1365 -0.1616,0.1331 -0.1645,0.1299 -0.1673,0.1266 -0.1702,0.1231 -0.173,0.1196 -0.17568,0.1161 -0.17836,0.1125 -0.181,0.109 -0.18358,0.1051 -0.18613,0.1015 -0.18862,0.0975 -0.19107,0.0938 -0.19346,0.0898 -0.19583,0.086 -0.19813,0.0817 -0.20039,0.0777 -0.20261,0.0737 -0.20479,0.0694 -0.2069,0.0651 -0.20899,0.0609 -0.21102,0.0565 -0.213,0.052 0.08358,0.1048 0.08152,0.1061 0.07947,0.1074 0.07741,0.1086 0.07533,0.1097 0.07325,0.1109 0.07114,0.112 0.06904,0.1133 0.06693,0.1143 0.0648,0.1153 0.06267,0.1164 0.06052,0.1174 0.05836,0.1182 0.0562,0.1193 0.05403,0.1202 0.05183,0.1212 0.04965,0.122 0.04743,0.1229 0.04521,0.1237 0.043,0.1244 0.04076,0.1253 0.03851,0.1259 0.03625,0.1267 0.03399,0.1274 0.03172,0.128 0.02942,0.1287 0.02713,0.1292 0.02482,0.1299 0.02251,0.1304 0.02018,0.1309 0.01783,0.1315 0.0155,0.1319 0.01315,0.1323 0.01077,0.1327 0.00839,0.1332 0.00601,0.1335 0.00362,0.1339 0.00121,0.1342 -0.0026,0.2002 -0.00773,0.1987 -0.01282,0.1971 -0.01783,0.1954 -0.02279,0.1937 -0.02768,0.192 -0.03251,0.1901 -0.03728,0.1883 -0.04198,0.1864 -0.04663,0.1842 -0.05121,0.1822 -0.05571,0.1802 -0.06018,0.178 -0.06456,0.1756 -0.0689,0.1735 -0.07316,0.171 -0.07737,0.1686 -0.08151,0.1661 -0.08558,0.1635 -0.08959,0.161 -0.09355,0.1584 -0.09745,0.1556 -0.10127,0.1527 -0.10503,0.1499 -0.10874,0.1472 -0.11238,0.144 -0.11595,0.141 L 6.57992,37.5233 6.457,37.6581 6.33069,37.7898 6.20105,37.9182 6.06815,38.0431 5.93205,38.1648 5.79281,38.283 5.6505,38.3977 5.50517,38.5089 5.3569,38.6165 5.20572,38.7203 5.05173,38.8204 4.89498,38.9166 4.73552,39.0091 4.57343,39.0976 4.40876,39.1821 4.24159,39.2626 4.07195,39.339 3.89995,39.4111 3.7256,39.4791 3.549,39.5428 3.3702,39.6022 3.18927,39.6571 3.00625,39.7077 2.82123,39.7536 2.63427,39.7949 2.44542,39.8317 2.25474,39.8637 2.06229,39.891 1.86817,39.9134 1.67239,39.931 1.47505,39.9436 1.27619,39.9512 1.0759,39.9538 0.913583,39.9517 0.749547,39.9455 l -0.1661,-0.0103 -0.168511,-0.0144 0.062188,0.1028 0.061883,0.1055 0.061459,0.1081 0.060919,0.1102 0.06026,0.1127 0.059482,0.1146 0.05859,0.1166 0.057575,0.1183 0.056448,0.12 0.0552,0.1214 0.05383,0.1229 0.05235,0.124 0.05075,0.125 0.04903,0.1259 0.04719,0.1267 0.04525,0.1273 0.04316,0.1278 0.04098,0.128 0.03868,0.1283 0.03624,0.1282 0.0337,0.1282 0.03104,0.1279 0.02826,0.1274 0.02536,0.127 0.02235,0.1262 0.01923,0.1253 0.01596,0.1243 0.01261,0.1233 0.00912,0.1219 0.00551,0.1205 0.0038,0.206 -0.00148,0.2034 -0.00653,0.2008 -0.01135,0.1983 -0.01591,0.1954 -0.02024,0.1925 -0.02434,0.1896 -0.02818,0.1864 -0.03181,0.1833 -0.03516,0.18 -0.03832,0.1766 -0.04121,0.1732 -0.04385,0.1696 -0.04628,0.1659 -0.04846,0.1622 -0.05041,0.1583 -0.05209,0.1542 -0.05356,0.1503 -0.05478,0.146 L 1.01362,47.101 0.957115,47.2384 0.900106,47.3715 0.842833,47.4999 0.785535,47.6238 0.72845,47.7427 0.671818,47.8569 0.615878,47.9662 0.560869,48.0704 0.507031,48.1695 0.454602,48.2633 0.403823,48.3518 0.354932,48.4348 0.308168,48.5124 0.263771,48.5842 0.221979,48.6503 0.183032,48.7107 0.147169,48.765 0.11463,48.8134 0.0856532,48.8556 0.0604781,48.8916 0.0393438,48.9212 0.0224897,48.9445 0.0101549,48.9612 0.00257859,48.9713 0,48.9747 0.104747,48.8891 0.207698,48.8014 0.308821,48.7117 0.408084,48.62 0.505454,48.5262 0.600901,48.4306 0.69439,48.3329 0.785889,48.2336 0.875367,48.1322 0.962792,48.029 1.04813,47.9241 l 0.08322,-0.1067 0.08107,-0.1085 0.07889,-0.11 0.07667,-0.1119 0.07443,-0.1133 0.07214,-0.1151 0.06984,-0.1165 0.0675,-0.118 0.0651,-0.1196 0.06272,-0.121 L 1.83997,46.661 1.89776,46.5371 1.95305,46.4119 2.00581,46.2853 2.05599,46.1574 2.10357,46.0283 2.14851,45.8978 2.19079,45.7662 2.23037,45.6335 2.26723,45.4996 2.30132,45.3645 2.33261,45.2285 2.36107,45.0913 2.38668,44.9532 2.4094,44.8141 2.42919,44.674 2.44602,44.533 2.45986,44.3912 2.47069,44.2485 2.47847,44.1049 2.48315,43.9606 2.48472,43.8155 2.48345,43.6847 2.47964,43.5543 2.47329,43.4243 2.46443,43.2947 2.45306,43.1657 2.43917,43.0371 2.4228,42.909 2.40392,42.7815 2.38259,42.6546 2.35877,42.5282 2.3325,42.4025 2.30378,42.2774 2.2726,42.1531 2.239,42.0295 2.20297,41.9065 2.16452,41.7842 2.12366,41.6628 2.08041,41.5421 2.03477,41.4222 1.98674,41.3033 1.93633,41.1852 1.88356,41.0679 1.82844,40.9516 1.77096,40.8362 1.71115,40.7217 1.64901,40.6084 1.58454,40.496 1.51776,40.3847 1.68837,40.3981 1.85726,40.4085 2.02501,40.4153 2.19218,40.4177 2.38991,40.4151 2.5864,40.4075 2.78159,40.3949 2.97543,40.3773 3.16785,40.3549 3.35879,40.3277 3.54818,40.2957 3.73595,40.2591 3.92206,40.2177 4.10645,40.1719 4.28902,40.1215 4.46974,40.0668 4.64853,40.0075 4.82534,39.9441 5.0001,39.8763 5.17276,39.8045 5.34323,39.7285 5.51146,39.6484 5.67741,39.5643 5.84099,39.4762 6.00214,39.3844 6.1608,39.2887 6.31692,39.1893 6.47041,39.0861 6.62123,38.9794 6.76932,38.8691 6.9146,38.7553 7.05701,38.638 7.1965,38.5174 7.333,38.3936 7.46644,38.2664 7.59676,38.136 l 0.12715,-0.1334 0.1239,-0.1364 0.1206,-0.1396 0.11724,-0.1423 0.11379,-0.1453 0.11031,-0.1481 0.10676,-0.1508 0.10313,-0.1535 0.09945,-0.1562 0.0957,-0.1586 0.0919,-0.1612 0.08802,-0.1637 0.0841,-0.1659 0.0801,-0.1682 0.07603,-0.1705 0.07193,-0.1727 0.06773,-0.1748 0.06348,-0.1769 0.05918,-0.1788 0.0548,-0.1808 0.05037,-0.1826 0.04587,-0.1845 0.0413,-0.1862 0.03668,-0.1877 0.032,-0.1895 0.02724,-0.1911 0.02244,-0.1924 0.01755,-0.194 L 9.73813,33.2551 9.74575,33.0585 9.7483,32.8607 9.74713,32.7273 9.74362,32.5943 9.73776,32.4616 9.7296,32.3291 9.71912,32.1972 9.70633,32.0655 9.69126,31.9344 9.67392,31.8036 9.6543,31.6733 9.63241,31.5436 9.60828,31.4144 9.58191,31.2857 9.55332,31.1577 9.5225,31.0301 9.48948,30.9033 9.45425,30.7771 9.41683,30.6517 9.37725,30.5268 9.33548,30.4027 9.29157,30.2794 9.24551,30.1569 9.19731,30.0351 9.14699,29.9143 9.09454,29.7942 9.04,29.675 8.98335,29.5568 8.92461,29.4395 8.86382,29.3232 8.80094,29.2078 8.73602,29.0935 8.66904,28.9802 8.60004,28.8679 8.52902,28.7568 8.45597,28.6467 8.38092,28.5378 8.30387,28.4301 8.22485,28.3235 8.14386,28.2182 8.0609,28.1141 l 0.21727,-0.053 0.21525,-0.0576 0.21319,-0.0619 0.21105,-0.0663 0.2089,-0.0707 0.20667,-0.075 0.20442,-0.0792 0.20211,-0.0833 0.19974,-0.0874 0.1973,-0.0916 0.195,-0.0956 0.1924,-0.0995 0.1898,-0.1033 0.1873,-0.1072 0.1846,-0.111 0.1819,-0.1147 0.1792,-0.1184 0.1765,-0.1219 0.1736,-0.1256 0.1707,-0.129 0.1678,-0.1324 0.1649,-0.1358 0.1618,-0.1391 0.1587,-0.1425 0.1556,-0.1456 0.1525,-0.1488 0.1493,-0.1519 0.1461,-0.1548 0.1427,-0.1579 0.1393,-0.1609 0.136,-0.1636 0.1325,-0.1666 0.1292,-0.1693 0.1254,-0.1719 0.1219,-0.1746 0.1184,-0.1772 0.1145,-0.1797 0.1111,-0.1823 0.1071,-0.1845 0.1033,-0.1871 0.0994,-0.1892 0.0956,-0.1916 0.0915,-0.1937 0.0876,-0.1959 0.0835,-0.1979 0.0795,-0.2 0.0752,-0.2019 0.071,-0.2038 0.0669,-0.2057 0.0625,-0.2076 0.0583,-0.2091 0.0537,-0.2109 0.0495,-0.2125 0.0449,-0.2142 0.0404,-0.2156 0.0357,-0.2171 0.0312,-0.2185 0.0265,-0.2198 0.0219,-0.2211 0.017,-0.2224 0.0122,-0.2235 0.0074,-0.2246 0.0024,-0.2257 L 15.917,17.9799 15.9089,17.7478 15.8956,17.5167 15.8769,17.2869 15.853,17.0583 15.824,16.8311 15.79,16.6052 15.7508,16.3808 15.7067,16.1579 15.6578,15.9366 15.6039,15.7169 15.5453,15.499 15.4819,15.2829 15.4137,15.0685 15.341,14.8562 15.2638,14.6458 15.1819,14.4374 15.0956,14.2312 15.005,14.0272 14.9099,13.8253 14.8106,13.6258 14.7071,13.4287 14.5994,13.234 14.4875,13.0418 14.3716,12.8522 14.2516,12.6652 14.1278,12.481 14.0001,12.2995 13.8685,12.1209 13.7332,11.9451 13.5941,11.7723 13.4513,11.6026 13.305,11.4359 13.1551,11.2724 13.0017,11.1122 12.8449,10.9552 12.6847,10.8016 12.5212,10.6514 12.3543,10.5047 12.1843,10.3616 12.0112,10.2221 11.8349,10.0863 11.6556,9.95425 11.4734,9.82603 11.2882,9.70168 11.1002,9.58129 10.9093,9.46492 10.7157,9.35263 10.5194,9.2445 10.3204,9.14059 10.1189,9.04095 9.91487,8.94567 9.70835,8.85478 9.49942,8.76839 9.28814,8.68654 9.07456,8.6093 8.85875,8.53674 8.64075,8.46892 8.42063,8.40591 8.19844,8.34777 7.97423,8.29457 7.74807,8.24637 7.52001,8.20325 7.53787,8.06369 7.55359,7.92645 7.56718,7.7914 7.57865,7.6584 7.58802,7.52732 7.59529,7.39804 7.60046,7.27041 7.60356,7.14433 7.60459,7.01964 7.60349,6.87675 7.60021,6.73437 7.59476,6.59255 7.58716,6.45126 7.57743,6.31055 7.56558,6.17042 7.55161,6.03089 7.53558,5.89198 7.51747,5.75369 7.49729,5.61607 7.47508,5.4791 7.45086,5.34281 7.42461,5.20721 7.39639,5.07234 7.36618,4.93819 7.33402,4.80479 7.29992,4.67214 7.26389,4.54027 7.22595,4.40919 7.18612,4.27893 7.1444,4.14948 7.10083,4.02089 7.05542,3.89314 7.00817,3.76627 6.9591,3.64029 6.90824,3.51521 6.85561,3.39104 6.8012,3.26782 6.74505,3.14556 6.68715,3.02426 6.62756,2.90394 6.56625,2.78462 6.50326,2.66634 6.43859,2.54907 6.37229,2.43285 6.30433,2.31771 6.23477,2.20363 6.1636,2.09065 6.09083,1.9788 6.0165,1.86807 5.94061,1.75848 5.86318,1.65006 5.78423,1.54282 5.70377,1.43676 5.62181,1.33191 5.53838,1.22828 5.4535,1.12591 5.36717,1.02479 5.27941,0.92494 5.19024,0.82638 5.09966,0.729126 5.00773,0.633192 4.91441,0.538597 4.81976,0.445354 4.72377,0.35348 4.62648,0.262992 4.52787,0.173906 4.42799,0.0862361 4.32684,0 4.32875,0.00238548 4.33442,0.00951216 4.34367,0.0213354 4.35641,0.0378107 4.37248,0.0588932 4.39175,0.0845386 4.41409,0.114702 4.43936,0.149339 4.46744,0.188404 4.49818,0.231855 4.53143,0.279645 4.5671,0.33173 4.60502,0.388064 4.64507,0.448605 4.6871,0.513306 l 0.04389,0.06882 0.04562,0.07289 0.0472,0.076918 0.04865,0.0809 0.04998,0.084839 0.05115,0.088731 0.0522,0.092586 0.05312,0.09638 0.0539,0.10015 0.05455,0.10385 0.05504,0.10753 0.05544,0.11115 0.05567,0.11474 0.05577,0.11828 0.05576,0.12176 0.05558,0.12522 0.05529,0.12861 0.05486,0.13198 0.05429,0.13528 0.05359,0.13855 0.05275,0.14179 0.05179,0.14496 0.05068,0.14809 0.04945,0.15117 0.04806,0.15424 0.04655,0.15723 0.04492,0.16019 0.04314,0.1631 0.04122,0.16596 0.03918,0.16879 0.037,0.17157 0.03468,0.17429 0.03223,0.177 0.02964,0.17963 0.02693,0.18223 0.02406,0.18479 0.02109,0.18729 0.01796,0.18976 0.0147,0.19219 0.0113,0.19456 0.00778,0.19689 0.00411,0.19918 3.2e-4,0.20142 L 6.46458,6.8024 6.45691,7.00818 6.44503,7.21607 Z"
           style="fill:url(#Grad252);fill-rule:evenodd;stroke:none"
           transform="rotate(-90,12.433225,10.630275)"
           id="path4946" />
        <path
           d="M 6.34399,4.66344 6.34045,4.84617 6.32993,5.02707 6.31254,5.206 6.28842,5.38286 6.25771,5.5575 6.22053,5.72981 6.17701,5.89966 6.1273,6.0669 6.07149,6.23143 6.00975,6.39312 5.9422,6.55185 5.86896,6.70747 5.79017,6.85986 5.70595,7.00891 5.61645,7.15448 5.52178,7.29644 5.42209,7.43466 5.31748,7.56903 5.20812,7.69941 5.09412,7.82569 4.97561,7.94773 4.85272,8.0654 4.72558,8.17857 4.59433,8.28713 4.45909,8.39095 4.32001,8.48988 4.17719,8.58383 4.03078,8.67264 3.88091,8.7562 3.72772,8.83439 3.57131,8.90707 3.41184,8.97411 3.24941,9.0354 3.0842,9.09079 2.91629,9.14018 2.74584,9.18343 2.57297,9.2204 2.39782,9.25099 2.5339,9.31744 l 0.13402,0.06994 0.13189,0.07334 0.12972,0.07671 0.1275,0.08002 0.12517,0.08324 0.12283,0.08644 0.1204,0.08956 0.11793,0.09262 0.11537,0.09569 0.11278,0.0985 0.11012,0.1015 0.1074,0.1043 0.10461,0.1071 0.10178,0.1098 0.09887,0.1125 0.0959,0.115 0.09289,0.1176 0.08981,0.1201 0.08666,0.1225 0.08345,0.1248 0.0802,0.1272 0.07686,0.1294 0.07348,0.1316 0.07004,0.1338 0.06653,0.1358 0.06297,0.1378 0.05934,0.1398 0.05565,0.1416 0.05191,0.1436 0.0481,0.1453 0.04424,0.147 0.04031,0.1487 0.03632,0.1503 0.03228,0.1518 0.02817,0.1534 0.024,0.1547 0.01977,0.1562 0.01548,0.1574 0.01113,0.1586 0.00673,0.1599 0.00225,0.161 -0.00253,0.1709 -0.00757,0.1697 -0.01252,0.1684 -0.0174,0.1668 -0.02222,0.1655 -0.02697,0.1639 -0.03162,0.1622 -0.03622,0.1606 -0.04075,0.1587 -0.0452,0.157 -0.04958,0.1551 -0.0539,0.1532 -0.05813,0.1509 -0.0623,0.1489 -0.06639,0.1468 -0.07041,0.1444 -0.07437,0.1421 -0.07825,0.1398 -0.08206,0.1372 -0.08579,0.1348 -0.08946,0.1321 -0.09305,0.1293 -0.09656,0.1267 -0.10003,0.1238 -0.1034,0.1209 -0.1067,0.118 -0.10994,0.1148 -0.1131,0.1119 -0.11619,0.1085 -0.11921,0.1053 -0.12215,0.102 -0.12504,0.0986 -0.12784,0.0951 -0.13056,0.0916 -0.13324,0.088 -0.13581,0.0842 -0.13834,0.0805 -0.14077,0.0767 -0.14316,0.0728 -0.14546,0.0688 -0.14767,0.0647 -0.14985,0.0607 -0.15193,0.0565 -0.15394,0.0522 -0.15589,0.0479 0.1094,0.0828 0.10787,0.0849 0.10632,0.0866 0.10473,0.0885 0.10313,0.0904 0.10149,0.0921 0.09984,0.0939 0.09814,0.0957 0.09644,0.0973 0.09471,0.0992 0.09294,0.1007 0.09115,0.1025 0.08934,0.104 0.08751,0.1056 0.08563,0.1072 0.08374,0.1089 0.08184,0.1102 0.07989,0.1118 0.07792,0.1133 0.07593,0.1147 0.07391,0.1162 0.07187,0.1176 0.06979,0.119 0.0677,0.1202 0.06558,0.1216 0.06343,0.1231 0.06126,0.1241 0.05906,0.1256 0.05683,0.1266 0.05459,0.1279 0.05231,0.1291 0.05,0.1303 0.04769,0.1313 0.04532,0.1326 0.04295,0.1335 0.04055,0.1347 0.03812,0.1356 0.03565,0.1367 0.03319,0.1377 0.03067,0.1386 0.02814,0.1395 0.02558,0.1405 0.023,0.1414 0.02039,0.1422 0.01776,0.143 0.01509,0.1439 0.0124,0.1447 0.0097,0.1454 0.00696,0.1462 0.00419,0.1469 0.00141,0.1474 -0.00125,0.1388 -0.00371,0.1384 -0.00616,0.1375 -0.00859,0.1369 -0.01099,0.1362 -0.01338,0.1355 -0.01574,0.1349 -0.01808,0.134 -0.0204,0.1333 -0.0227,0.1326 -0.02497,0.1317 -0.02722,0.1308 -0.02946,0.1301 -0.03166,0.1292 -0.03386,0.1284 -0.03602,0.1274 -0.03817,0.1264 -0.04029,0.1256 -0.04239,0.1246 -0.04447,0.1236 -0.04653,0.1227 -0.04857,0.1216 -0.05058,0.1206 -0.05258,0.1195 -0.05454,0.1184 -0.0565,0.1174 -0.05843,0.1163 -0.06034,0.1151 -0.06221,0.1139 -0.06408,0.1129 -0.06592,0.1116 -0.06775,0.1103 -0.06954,0.1092 -0.07132,0.1079 -0.07307,0.1066 -0.0748,0.1054 -0.07652,0.1041 -0.07821,0.1027 0.12193,0.0766 0.12019,0.0792 0.11843,0.0815 0.11661,0.0838 0.11477,0.0863 0.1129,0.0885 0.11098,0.0908 0.10904,0.0931 0.10703,0.0952 0.10504,0.0974 0.10297,0.0997 0.10087,0.1015 0.09875,0.1037 0.09659,0.1058 0.09438,0.1077 0.09214,0.1098 0.08988,0.1116 0.08757,0.1135 0.08523,0.1153 0.08285,0.1172 0.08043,0.119 0.07798,0.1207 0.07549,0.1224 0.07298,0.1241 0.0704,0.1258 0.06783,0.1273 0.06519,0.129 0.06253,0.1305 0.05982,0.132 0.05708,0.1335 0.05433,0.1349 0.0515,0.1363 0.04867,0.1377 0.04577,0.139 0.04287,0.1404 0.03991,0.1414 0.03693,0.1429 0.03391,0.1441 0.03084,0.1451 0.02775,0.1463 0.02463,0.1474 0.02144,0.1483 0.01825,0.1496 0.01502,0.1504 0.01174,0.1514 0.00843,0.1523 0.00508,0.1531 0.0017,0.1541 -0.00257,0.1895 -0.00766,0.1882 -0.01271,0.1869 -0.01766,0.1855 -0.02256,0.1839 -0.02739,0.1825 -0.03215,0.1808 -0.03686,0.1792 -0.04149,0.1775 -0.04605,0.1755 -0.05056,0.1738 -0.055,0.1719 -0.05935,0.1697 -0.06367,0.1679 -0.0679,0.1656 -0.07207,0.1634 -0.07617,0.161 -0.0802,0.1589 L 5.48778,39.7529 5.3997,39.9068 5.30777,40.0582 5.21207,40.2071 5.11266,40.3532 5.00962,40.4967 4.903,40.6372 4.79287,40.775 4.6793,40.9098 4.56235,41.0416 4.4421,41.1703 4.3186,41.2959 4.19193,41.4184 4.06214,41.5375 3.92931,41.6535 3.79349,41.7659 3.65478,41.8749 3.51321,41.9804 3.36885,42.0822 3.2218,42.1804 3.07208,42.2749 2.91979,42.3657 2.76499,42.4525 2.60773,42.5355 2.44809,42.6143 2.28614,42.6892 2.12193,42.76 1.95554,42.8265 1.78703,42.8888 1.61646,42.9469 1.44392,43.0005 1.26946,43.0497 1.09313,43.0942 0.915028,43.1344 0.735199,43.1697 0.553717,43.2005 0.370644,43.2263 0.18605,43.2473 0,43.2635 0.169593,43.2761 0.339184,43.2855 0.510408,43.2892 0.708986,43.2864 0.906161,43.2779 1.10186,43.264 1.296,43.2447 l 0.19251,-0.0248 0.19081,-0.03 0.18901,-0.0352 0.18716,-0.0404 0.18523,-0.0454 0.1832,-0.0504 0.18113,-0.0554 0.17896,-0.0601 0.17672,-0.0648 0.1744,-0.0697 0.17202,-0.0742 0.16954,-0.0787 0.167,-0.0831 0.16438,-0.0875 0.16168,-0.0918 0.15891,-0.0961 0.15606,-0.1001 0.15314,-0.1043 0.15013,-0.1082 0.14705,-0.1122 0.14391,-0.1159 0.14067,-0.1199 0.13737,-0.1233 0.13399,-0.1271 0.13053,-0.1306 0.12699,-0.134 0.12339,-0.1375 0.1197,-0.1406 0.11595,-0.144 0.11209,-0.1471 0.10819,-0.1502 0.1042,-0.1531 0.10012,-0.1562 0.09599,-0.1588 0.09176,-0.1617 0.08748,-0.1645 0.0831,-0.167 0.07867,-0.1695 0.07412,-0.1721 0.06954,-0.1744 0.06486,-0.1768 0.0601,-0.1789 0.05528,-0.1811 0.05037,-0.1832 0.0454,-0.1852 0.04034,-0.1871 0.03522,-0.189 0.03,-0.1908 L 7.31908,37.2202 7.33843,37.0261 7.35236,36.8304 7.36077,36.6333 7.36358,36.4348 7.36188,36.2807 7.35679,36.1276 7.34836,35.9753 7.33661,35.8239 7.32159,35.6735 7.30331,35.5239 7.28185,35.3756 7.25722,35.2282 7.22945,35.0819 7.19859,34.9368 7.16466,34.7927 7.12772,34.6498 7.08778,34.5084 7.04489,34.368 6.9991,34.229 6.95041,34.0913 6.89889,33.955 6.84456,33.8201 6.78746,33.6866 6.72763,33.5546 6.66508,33.4241 6.59989,33.2951 6.53206,33.1678 6.46166,33.042 6.38868,32.9179 6.31318,32.7955 6.23522,32.6748 6.1548,32.5558 6.07197,32.4386 5.98677,32.3233 5.89921,32.2098 5.80937,32.0982 5.71727,31.9884 5.62292,31.8807 5.52638,31.7749 5.42769,31.6712 5.32687,31.5697 5.22397,31.47 5.11903,31.3726 5.01206,31.2774 4.90311,31.1843 4.79223,31.0935 4.67944,31.005 4.56477,30.9187 4.44829,30.8349 4.33,30.7534 4.20994,30.6742 4.08816,30.5976 4.16628,30.4949 4.24271,30.3908 4.31744,30.2854 4.39045,30.1788 4.46171,30.0709 4.53121,29.9617 4.59891,29.8514 4.6648,29.7398 4.72886,29.6269 4.79105,29.513 4.85139,29.3979 4.90979,29.2816 4.96629,29.1642 5.02085,29.0458 5.07343,28.9263 5.12403,28.8057 5.17261,28.6841 5.21916,28.5614 5.26365,28.4378 5.30608,28.3132 5.3464,28.1876 5.3846,28.0612 5.42064,27.9338 5.45452,27.8054 5.48623,27.6762 5.51571,27.5461 5.54297,27.4153 5.56798,27.2836 5.59071,27.151 5.61112,27.0177 5.62924,26.8837 5.645,26.7488 5.65839,26.6133 5.66941,26.4771 5.67801,26.3402 5.68418,26.2027 5.6879,26.0643 5.68915,25.9255 5.68774,25.7781 5.68356,25.6312 5.67659,25.485 5.6669,25.3396 5.6545,25.1949 5.6394,25.051 5.62165,24.908 5.60126,24.7658 5.57825,24.6244 5.55266,24.4839 5.52451,24.3444 5.49384,24.2058 5.46064,24.0681 5.42498,23.9314 5.38685,23.7958 5.34629,23.6611 5.30332,23.5276 5.25797,23.395 5.21027,23.2637 5.16025,23.1334 5.10791,23.0043 5.0533,22.8764 4.99644,22.7498 4.93735,22.6242 4.87606,22.5001 4.81258,22.377 4.74697,22.2554 4.67923,22.1352 4.60939,22.0162 4.53748,21.8986 4.46351,21.7824 4.38753,21.6677 4.30956,21.5544 4.22961,21.4426 4.14771,21.3324 4.06389,21.2235 3.97817,21.1163 3.89059,21.0107 3.80118,20.9067 3.70993,20.8042 3.61691,20.7035 3.52211,20.6043 3.42557,20.507 3.32731,20.4113 3.22737,20.3174 3.12577,20.2253 3.02251,20.1349 2.91766,20.0464 2.81121,19.9598 2.7032,19.8749 2.59366,19.7921 2.74954,19.7442 2.9035,19.692 3.05543,19.6355 3.20529,19.5748 3.35299,19.5101 3.49846,19.4413 3.64163,19.3685 3.78244,19.2918 3.92079,19.2113 4.05664,19.1271 4.1899,19.0391 4.3205,18.9475 4.44837,18.8524 4.57344,18.7538 4.69563,18.6518 4.81487,18.5465 4.9311,18.438 5.04424,18.3261 5.15422,18.2113 5.26096,18.0933 5.3644,17.9724 5.46446,17.8486 5.56107,17.7219 5.65416,17.5926 5.74366,17.4605 5.8295,17.3257 5.91159,17.1885 5.98988,17.0487 6.06428,16.9066 6.13474,16.7622 6.20116,16.6154 6.26349,16.4665 6.32165,16.3156 6.37558,16.1624 6.42519,16.0073 6.47043,15.8503 6.5112,15.6916 6.54745,15.531 6.57909,15.3688 6.60606,15.2049 6.6283,15.0394 6.64571,14.8726 6.65824,14.7042 6.66582,14.5345 6.66835,14.3636 6.6661,14.2026 6.65937,14.0427 6.64824,13.8841 6.63276,13.7267 6.61299,13.5705 6.58899,13.4158 6.56082,13.2624 6.52856,13.1106 6.49223,12.9603 6.45194,12.8116 6.4077,12.6646 6.35961,12.5193 6.3077,12.3757 6.25206,12.2341 6.19273,12.0943 6.12977,11.9565 6.06326,11.8207 5.99323,11.6869 5.91977,11.5553 5.84291,11.4259 5.76274,11.2987 5.67931,11.1739 5.59268,11.0514 5.50291,10.9313 5.41004,10.8137 5.31417,10.6987 5.21534,10.5862 5.1136,10.4764 5.00902,10.3693 4.90167,10.265 4.79159,10.1635 4.67886,10.065 4.56354,9.96931 4.44567,9.87669 4.32532,9.78713 4.20257,9.70069 4.07745,9.61745 3.95003,9.53743 3.82039,9.46072 3.68856,9.38738 3.55463,9.31744 3.41863,9.25099 3.59379,9.2204 3.76665,9.18343 3.93708,9.14018 4.10498,9.09079 4.27018,9.0354 4.43257,8.97411 4.59202,8.90707 4.74839,8.83439 4.90156,8.7562 5.05139,8.67264 5.19776,8.58383 5.34053,8.48988 5.47958,8.39095 5.61477,8.28713 5.74598,8.17857 5.87307,8.0654 5.99591,7.94773 6.11437,7.82569 6.22832,7.69941 6.33764,7.56903 6.44219,7.43466 6.54184,7.29644 6.63645,7.15448 6.72592,7.00891 6.81009,6.85986 6.88884,6.70747 6.96204,6.55185 7.02955,6.39312 7.09126,6.23143 7.14702,6.0669 7.19672,5.89966 7.2402,5.72981 7.27737,5.5575 7.30805,5.38286 7.33215,5.206 7.34953,5.02707 7.36005,4.84617 7.36358,4.66344 7.35928,4.46099 7.34647,4.26074 7.32535,4.06291 7.29608,3.86763 7.25883,3.6751 7.2138,3.48547 7.16115,3.29895 7.10104,3.11568 7.03367,2.93586 6.95919,2.75964 6.8778,2.58722 6.78966,2.41876 6.69495,2.25442 6.59385,2.09441 6.48653,1.93888 6.37315,1.78801 6.25391,1.64196 6.12897,1.50092 5.99852,1.36507 5.86272,1.23456 5.72175,1.1096 5.57577,0.99033 5.42499,0.876942 5.26955,0.769606 5.10966,0.668497 4.94546,0.573789 4.77714,0.485656 4.60488,0.404274 4.42885,0.329814 4.24923,0.262453 4.06618,0.202363 3.87988,0.149721 3.69053,0.104699 3.49828,0.0674719 3.30331,0.0382143 3.10578,0.0171003 2.9059,0.00430412 2.70382,0 2.5315,0.00902133 2.36245,0.0297387 2.19341,0.052632 2.37631,0.076419 2.55695,0.107104 2.73517,0.144552 2.91086,0.188628 3.08384,0.239195 3.25399,0.29612 3.42117,0.359265 3.58522,0.428495 3.74599,0.503676 3.90336,0.584672 4.05718,0.671347 4.2073,0.763567 4.35358,0.861194 4.49589,0.964095 4.63406,1.07213 4.76797,1.18517 4.89746,1.30308 5.0224,1.42572 5.14264,1.55295 5.25803,1.68464 5.36845,1.82066 5.47373,1.96087 5.57374,2.10513 5.66834,2.25331 5.75738,2.40528 5.84072,2.56089 5.91821,2.72001 5.98973,2.88251 6.0551,3.04825 6.11421,3.2171 6.16689,3.38893 6.21302,3.56358 6.25244,3.74092 6.28502,3.92084 6.3106,4.10319 6.32906,4.28783 6.34023,4.47463 Z"
           style="fill:url(#Grad253);fill-rule:evenodd;stroke:none"
           transform="rotate(90,12.37235,35.56315)"
           id="path4948" />
        <path
           d="M 1.65852,3.59244 1.666,3.77644 1.65961,3.96209 1.63282,4.1616 1.81173,4.16817 1.98932,4.181 2.16546,4.2 2.34004,4.22504 2.51292,4.25606 2.68401,4.29291 2.85316,4.33553 3.02026,4.38379 3.18518,4.4376 3.3478,4.49685 3.50801,4.56144 3.66568,4.63129 3.8207,4.70626 l 0.15223,0.08001 0.14933,0.08494 0.14631,0.08978 0.14315,0.0945 0.13991,0.09913 0.1365,0.10366 0.133,0.10807 0.12936,0.1124 L 5.0761,5.59536 5.19784,5.71608 5.31559,5.84082 5.42921,5.96947 5.5386,6.10193 5.64363,6.23809 5.74418,6.37786 5.84013,6.52113 5.93136,6.6678 6.01773,6.81777 6.09914,6.97091 6.17546,7.12717 6.24657,7.28641 6.31236,7.44853 6.37269,7.61344 6.42744,7.78104 6.4765,7.95121 6.51975,8.12387 6.55705,8.29889 6.5883,8.4762 6.61014,8.62984 6.62727,8.78318 6.63973,8.93617 6.64759,9.0887 6.65089,9.24071 6.64965,9.39211 6.64396,9.54281 6.63385,9.69273 6.61937,9.84182 6.60057,9.98996 6.57751,10.1371 l -0.0273,0.146 -0.03147,0.1448 -0.03559,0.1436 -0.03966,0.1422 -0.0437,0.1408 -0.04767,0.1393 -0.05159,0.1377 -0.05549,0.136 -0.05931,0.1343 -0.06309,0.1324 -0.06683,0.1305 -0.07051,0.1285 -0.07415,0.1265 -0.07774,0.1242 -0.08127,0.122 -0.08476,0.1198 -0.0882,0.1172 -0.0916,0.1148 -0.09494,0.1123 -0.09823,0.1095 -0.10148,0.1067 -0.10466,0.1041 -0.10783,0.1011 -0.11092,0.0982 -0.11396,0.0949 -0.11697,0.092 -0.11992,0.0887 -0.12282,0.0853 -0.12568,0.082 -0.12848,0.0786 -0.13124,0.0749 -0.13396,0.0714 -0.13659,0.0675 -0.13922,0.0638 -0.14178,0.06 0.10604,0.0989 0.10182,0.1024 0.09755,0.106 0.09321,0.1092 0.08879,0.1124 0.08432,0.1154 0.07977,0.1184 0.07515,0.1213 0.07048,0.1238 0.06573,0.1265 0.06092,0.1288 0.05603,0.1314 0.05109,0.1334 0.04609,0.1355 0.04099,0.1376 0.03585,0.1393 0.03062,0.1411 0.02535,0.1426 0.02392,0.1769 0.01568,0.1757 0.0076,0.1743 -3.4e-4,0.1727 -0.00814,0.1711 -0.0158,0.1691 -0.02332,0.1669 -0.03067,0.1648 -0.03792,0.1622 -0.045,0.1594 -0.05194,0.1567 -0.05874,0.1536 -0.0654,0.1503 -0.07191,0.1469 -0.07829,0.1433 -0.0845,0.1396 -0.09061,0.1355 -0.09654,0.1313 -0.10234,0.1271 -0.108,0.1224 -0.11351,0.1176 -0.11889,0.1128 -0.12411,0.1076 -0.12921,0.1025 -0.13413,0.0968 -0.13895,0.0912 -0.1436,0.0854 -0.14812,0.0793 -0.15248,0.0731 -0.15673,0.0666 -0.1608,0.0601 -0.16474,0.0532 -0.16856,0.0463 -0.1722,0.0392 -0.17572,0.0317 -0.16753,0.0225 -0.1703,0.0142 0.16283,0.0816 0.16582,0.0439 0.15021,0.0181 0.11601,0.0045 L 1.97568,20.6645 2.1469,20.6428 2.3211,20.6112 2.49209,20.5723 2.65973,20.5259 2.82388,20.4725 2.98438,20.4123 3.1411,20.3455 3.29389,20.272 3.44261,20.1923 3.58712,20.1065 3.72726,20.0148 3.8629,19.9175 3.9939,19.8147 4.12009,19.7065 4.24136,19.5933 4.35755,19.4752 4.46851,19.3523 4.5741,19.225 4.67417,19.0933 4.76861,18.9576 4.85724,18.8179 4.93992,18.6744 5.0165,18.5276 5.08687,18.3773 5.15085,18.224 5.20832,18.0677 5.25912,17.9086 5.30311,17.7471 5.34017,17.5832 5.3701,17.4172 5.39281,17.2492 5.40813,17.0796 5.41593,16.9083 5.41605,16.7358 5.40837,16.5619 5.39271,16.3873 5.36895,16.2119 5.34338,16.0662 5.31237,15.922 5.27595,15.7798 5.23424,15.6393 5.18731,15.5009 5.13522,15.3645 5.07807,15.2305 5.01593,15.0988 4.94888,14.9696 4.87699,14.8432 4.80036,14.7195 4.71903,14.5985 4.63312,14.4808 4.54269,14.3661 4.44782,14.2546 4.34859,14.1466 4.24508,14.0422 4.13736,13.9414 4.27882,13.8816 4.41777,13.8181 4.55419,13.7509 4.68801,13.68 4.81919,13.6055 4.9477,13.5276 5.07347,13.4463 5.19647,13.3617 5.31663,13.2738 5.43392,13.1827 5.54831,13.0886 5.65971,12.9914 5.76812,12.8913 5.87346,12.7884 5.9757,12.6826 6.07479,12.5742 6.17066,12.4631 6.26331,12.3495 6.35265,12.2335 6.43864,12.115 6.52125,11.9943 6.60043,11.8713 6.67614,11.7461 6.7483,11.6189 6.8169,11.4897 6.88187,11.3585 6.94316,11.2255 7.00075,11.0908 7.05457,10.9543 7.10459,10.8163 7.15074,10.6767 7.193,10.5357 7.23129,10.3933 7.26559,10.2495 7.29585,10.1046 7.32202,9.95855 7.34405,9.81141 7.36188,9.6633 7.37549,9.51426 7.38482,9.36441 7.38983,9.21379 7.39046,9.06252 7.38667,8.91063 7.37842,8.75823 7.36564,8.60541 7.34831,8.4522 7.32637,8.29872 7.29541,8.12222 7.25856,7.94793 7.21593,7.77595 7.16765,7.60638 7.1138,7.43929 7.05454,7.2748 6.98995,7.11301 6.92017,6.954 6.84529,6.79788 6.76544,6.64474 6.68074,6.49469 6.59129,6.34781 6.49722,6.2042 6.39863,6.06397 6.29566,5.92721 6.1884,5.794 6.07696,5.66446 5.96148,5.53869 5.84205,5.41676 5.71881,5.29878 5.59186,5.18486 5.46132,5.07508 5.32729,4.96956 5.18991,4.86836 5.04928,4.77162 4.90551,4.67939 4.75873,4.5918 4.60905,4.50895 4.45656,4.4309 4.30142,4.35779 4.14371,4.2897 3.98356,4.22673 3.82108,4.16896 3.65639,4.11651 3.4896,4.06946 3.32083,4.02791 3.15018,3.99198 2.9778,3.96173 2.80376,3.93728 2.6282,3.91872 2.45123,3.90615 2.27297,3.89966 2.26698,3.7401 2.25628,3.58617 2.24078,3.43751 2.22034,3.29378 2.19277,3.13638 2.16019,2.98111 2.12267,2.82804 2.08035,2.67723 2.03328,2.52876 1.98159,2.38271 1.92538,2.23915 1.86473,2.09814 1.79973,1.95976 1.7305,1.82408 1.65714,1.69116 1.57973,1.5611 1.49838,1.43395 1.41318,1.30979 1.32423,1.18868 1.23163,1.0707 1.13548,0.955927 1.03587,0.844424 0.932899,0.736265 0.826671,0.631523 0.717281,0.530269 0.604826,0.432574 0.489403,0.338511 0.371112,0.24815 0.25005,0.161563 0.126313,0.0788228 0,0 0.00524063,0.00480983 0.0204956,0.0191625 0.0450645,0.0429424 0.0782469,0.0760346 0.119342,0.118324 0.16765,0.169694 0.222471,0.23003 0.283104,0.299218 0.348847,0.37714 0.419002,0.463684 0.492868,0.558732 0.569744,0.662168 0.648931,0.77388 0.729726,0.89375 0.81143,1.02166 0.893344,1.15751 0.974764,1.30116 1.05499,1.45251 1.13333,1.61144 1.20907,1.77785 1.28153,1.95161 1.34999,2.13259 1.41374,2.3207 1.47212,2.51582 1.52438,2.71782 1.56987,2.9266 1.60785,3.14204 1.63763,3.36403 Z"
           style="fill:url(#Grad254);fill-rule:evenodd;stroke:none"
           transform="rotate(-90,16.30105,4.74895)"
           id="path4950" />
      </g>
      <path
         d="m 14.9818,48.7201 -0.0011,-0.1293 -0.0033,-0.1288 -0.0057,-0.1289 -0.0077,-0.1286 -0.01,-0.1282 -0.0121,-0.1279 -0.0144,-0.1277 -0.0165,-0.1272 -0.0187,-0.1269 -0.0208,-0.1264 -0.023,-0.1261 -0.0252,-0.1256 -0.0273,-0.125 -0.0295,-0.1246 -0.0316,-0.1238 -0.0337,-0.1235 -0.0357,-0.1228 -0.038,-0.1222 -0.04,-0.1214 -0.0421,-0.1208 -0.0442,-0.1201 -0.0462,-0.1193 -0.0483,-0.1186 -0.0504,-0.1178 0.2166,-0.0091 0.2153,-0.0145 0.2139,-0.0199 0.2121,-0.0251 0.2106,-0.0304 0.209,-0.0355 0.2072,-0.0406 0.2053,-0.0455 0.2035,-0.0506 0.2015,-0.0553 0.1995,-0.0602 0.1974,-0.0649 0.1953,-0.0697 0.193,-0.0741 0.1907,-0.0789 0.1885,-0.0831 0.1859,-0.0876 0.1835,-0.0921 0.181,-0.0962 0.1784,-0.1003 0.1756,-0.1047 0.1728,-0.1085 0.1702,-0.1128 0.1672,-0.1165 0.1642,-0.1204 0.1612,-0.1244 0.1582,-0.128 0.1549,-0.1317 0.1518,-0.1353 0.1485,-0.1388 0.1451,-0.1423 0.1418,-0.1457 0.1383,-0.1491 0.1346,-0.1522 0.1311,-0.1556 0.1274,-0.1586 0.1237,-0.1619 0.1198,-0.1647 0.1159,-0.1677 0.112,-0.1705 0.108,-0.1734 0.1039,-0.1762 0.0997,-0.1787 0.0955,-0.1814 0.0913,-0.1839 0.0869,-0.1865 0.0824,-0.1888 0.0781,-0.1911 0.0734,-0.1935 0.0688,-0.1956 0.0641,-0.1978 0.0594,-0.1999 0.0546,-0.2018 0.0497,-0.2038 0.0448,-0.2056 0.0398,-0.2075 0.0346,-0.2093 0.0295,-0.2109 0.0242,-0.2125 0.019,-0.2141 0.0137,-0.2154 0.0082,-0.217 0.0028,-0.2183 -9e-4,-0.1297 -0.0031,-0.1295 -0.005,-0.1295 -0.007,-0.1292 -0.009,-0.1291 -0.0111,-0.1287 -0.0129,-0.1287 -0.015,-0.1282 -0.0169,-0.1279 -0.0188,-0.1277 -0.0208,-0.1273 -0.0227,-0.1269 -0.0247,-0.1266 -0.0265,-0.1262 -0.0284,-0.1256 -0.0304,-0.1253 -0.0323,-0.1247 -0.0342,-0.1243 -0.0361,-0.1236 -0.0378,-0.1231 -0.0398,-0.1227 -0.0416,-0.1219 -0.0434,-0.1213 -0.0453,-0.1207 -0.0473,-0.12 -0.0489,-0.1193 -0.0507,-0.1186 -0.0526,-0.1178 -0.0544,-0.1171 -0.0562,-0.1162 -0.058,-0.1156 -0.0597,-0.1145 -0.0615,-0.1139 -0.0632,-0.1128 -0.065,-0.112 -0.0669,-0.111 -0.0684,-0.1102 -0.0702,-0.1091 0.221,-0.0714 0.2187,-0.0758 0.2164,-0.0798 0.214,-0.0841 0.2117,-0.0881 0.2092,-0.0921 0.2068,-0.0961 0.2041,-0.1 0.2017,-0.1039 0.1991,-0.1077 0.1964,-0.1114 0.1938,-0.1152 0.1909,-0.1188 0.1883,-0.1224 0.1854,-0.126 0.1826,-0.1295 0.1797,-0.1329 0.1768,-0.1363 0.1738,-0.1397 0.1707,-0.143 0.1677,-0.1462 0.1646,-0.1495 0.1616,-0.1525 0.1583,-0.1557 0.155,-0.1586 0.1519,-0.1617 0.1485,-0.1646 0.1453,-0.1675 0.1417,-0.1703 0.1385,-0.1731 0.1349,-0.1759 0.1314,-0.1785 0.1279,-0.1811 0.1243,-0.1837 0.1206,-0.1862 0.1171,-0.1888 0.1133,-0.1911 0.1094,-0.1934 0.1058,-0.1959 0.1019,-0.198 0.0981,-0.2003 0.0941,-0.2024 0.0901,-0.2045 0.0862,-0.2067 0.0821,-0.2085 0.0781,-0.2107 0.0739,-0.2123 0.0698,-0.2144 0.0655,-0.2161 0.0613,-0.2178 0.057,-0.2196 0.0528,-0.2211 0.0482,-0.2228 0.0439,-0.2244 0.0396,-0.2257 0.035,-0.2273 0.0303,-0.2286 0.026,-0.2299 0.0213,-0.2312 0.0165,-0.2325 0.012,-0.2336 0.0071,-0.2348 0.0025,-0.2358 -0.0029,-0.2464 -0.0083,-0.2454 -0.0139,-0.2446 -0.0194,-0.2433 -0.0247,-0.2422 -0.03,-0.241 -0.0354,-0.2398 -0.0406,-0.2383 -0.0457,-0.237 -0.0509,-0.2355 -0.0558,-0.2339 -0.0609,-0.2323 -0.0658,-0.2305 -0.0707,-0.2289 -0.0754,-0.2269 -0.0803,-0.2251 -0.085,-0.2231 -0.0896,-0.221 -0.0941,-0.219 -0.0986,-0.2167 -0.1032,-0.2145 -0.1075,-0.2122 -0.112,-0.2098 -0.1161,-0.2072 -0.1205,-0.2049 -0.1246,-0.2021 -0.1286,-0.1996 -0.1328,-0.1967 -0.1367,-0.194 -0.1408,-0.1911 -0.1446,-0.1883 -0.1484,-0.185 -0.1522,-0.1822 -0.1559,-0.1788 -0.1595,-0.1758 -0.1632,-0.1723 -0.1667,-0.169 -0.1701,-0.1656 -0.1736,-0.1621 -0.1768,-0.1585 -0.1803,-0.155 -0.1835,-0.1511 -0.1867,-0.1474 -0.1897,-0.1436 -0.1929,-0.1396 -0.1958,-0.1356 -0.1988,-0.1317 -0.2017,-0.1275 -0.2046,-0.1233 -0.2073,-0.119 -0.21,-0.1147 -0.2128,-0.1103 -0.2153,-0.1059 -0.2178,-0.1013 -0.2204,-0.0967 -0.2227,-0.092 -0.2251,-0.0872 -0.2276,-0.0825 -0.2296,-0.0775 -0.2319,-0.0727 -0.2341,-0.0675 -0.2361,-0.0625 -0.2382,-0.0574 0.0124,-0.1598 0.0094,-0.158 0.0066,-0.1562 0.0038,-0.1547 0.0013,-0.1534 L 20.342,9.90757 20.3317,9.64292 20.3147,9.38001 20.2911,9.11893 20.261,8.85978 20.2243,8.60263 20.1813,8.34757 20.1319,8.09467 20.0763,7.84403 20.0146,7.59574 19.9468,7.34986 19.8731,7.1065 19.7934,6.86573 19.708,6.62764 19.6169,6.3923 19.5201,6.15982 19.4178,5.93027 19.3099,5.70373 19.1968,5.4803 19.0784,5.26004 18.9547,5.04306 18.8259,4.82943 18.6921,4.61924 18.5533,4.41257 18.4096,4.20951 18.2611,4.01014 18.108,3.81453 17.9502,3.62281 17.7879,3.43501 17.6211,3.25125 17.45,3.0716 17.2746,2.89616 17.095,2.72498 16.9113,2.55818 16.7235,2.39583 16.5318,2.23801 16.3362,2.08481 16.137,1.93633 15.9339,1.79262 15.7273,1.6538 15.5171,1.51993 15.3035,1.3911 15.0867,1.26739 14.8665,1.14891 14.6431,1.03571 14.4165,0.927896 14.187,0.825545 13.9546,0.728743 13.7193,0.637574 13.4813,0.552124 13.2406,0.472475 12.9973,0.398713 12.7515,0.330923 12.5033,0.269187 12.2526,0.213592 11.9998,0.16422 11.7448,0.121159 11.4877,0.0844898 11.2286,0.0542986 10.9676,0.0306696 10.7047,0.0136873 10.4401,0.00343589 10.1739,0 9.90757,0.00343589 9.64292,0.0136873 9.38001,0.0306696 9.11893,0.0542986 8.85978,0.0844898 8.60263,0.121159 8.34757,0.16422 8.09467,0.213592 7.84403,0.269187 7.59574,0.330923 7.34986,0.398713 7.1065,0.472475 6.86573,0.552124 6.62764,0.637574 6.3923,0.728743 6.15982,0.825545 5.93027,0.927896 5.70373,1.03571 5.4803,1.14891 5.26004,1.26739 5.04306,1.3911 4.82943,1.51993 4.61924,1.6538 4.41257,1.79262 4.20951,1.93633 4.01014,2.08481 3.81453,2.23801 3.62281,2.39583 3.43501,2.55818 3.25125,2.72498 3.0716,2.89616 2.89616,3.0716 2.72498,3.25125 2.55818,3.43501 2.39583,3.62281 2.23801,3.81453 2.08481,4.01014 1.93633,4.20951 1.79262,4.41257 1.6538,4.61924 1.51993,4.82943 1.3911,5.04306 1.26739,5.26004 1.14891,5.4803 1.03571,5.70373 0.927896,5.93027 0.825545,6.15982 0.728743,6.3923 0.637574,6.62764 0.552124,6.86573 0.472475,7.1065 0.398713,7.34986 0.330923,7.59574 0.269187,7.84403 0.213592,8.09467 0.16422,8.34757 0.121159,8.60263 0.0844898,8.85978 0.0542986,9.11893 0.0306696,9.38001 0.0136873,9.64292 0.00343589,9.90757 0,10.1739 0.001836,10.2597 0.007344,10.3685 0,47.2415 0.00161568,47.3796 0.00646272,47.5207 0.0145411,47.6656 0.0258509,47.8147 0.040392,47.9686 0.0258509,48.1262 0.0145411,48.2796 0.00646272,48.4293 0.00161568,48.5759 0,48.7201 l 0.00252924,0.1961 0.00754626,0.195 0.0125013,0.1935 0.017394,0.1923 0.0222248,0.1908 0.0269935,0.1893 0.0316999,0.1879 0.036344,0.1862 0.040926,0.1846 0.045448,0.1828 0.049903,0.1811 0.054301,0.1792 0.058634,0.1772 0.062906,0.1754 0.067116,0.1732 0.071262,0.1712 0.075349,0.1691 0.07937,0.1667 0.083332,0.1646 0.087232,0.1621 0.091068,0.1598 0.09484,0.1573 0.09856,0.1547 0.1022,0.1522 0.1058,0.1495 0.10932,0.1468 0.11278,0.1441 0.11619,0.1411 0.11953,0.1382 0.1228,0.1353 0.12602,0.1322 0.12917,0.1293 0.13227,0.1259 0.13529,0.1229 0.13826,0.1195 0.14116,0.1161 0.14402,0.1129 0.14678,0.1093 0.14951,0.1058 0.15217,0.1022 0.15476,0.0985 0.15729,0.0949 0.15976,0.091 0.16217,0.0873 0.16452,0.0833 0.16679,0.0794 0.16903,0.0754 0.17119,0.0712 0.17326,0.0671 0.17532,0.0629 0.17729,0.0586 0.1792,0.0544 0.18104,0.0499 0.18284,0.0454 0.18456,0.0409 0.18622,0.0363 0.18782,0.0317 0.18936,0.0271 0.19084,0.0222 0.19225,0.0175 0.1936,0.0124 0.1949,0.0075 L 7.49088,56.211 7.687,56.2084 7.8819,56.2009 8.0755,56.1885 8.26775,56.171 8.45859,56.1488 8.64795,56.1217 8.83577,56.09 l 0.18622,-0.0363 0.18456,-0.0409 0.18284,-0.0454 0.18104,-0.0499 0.1792,-0.0544 0.17729,-0.0586 0.17528,-0.0629 0.1733,-0.0671 0.1712,-0.0712 0.169,-0.0754 0.1668,-0.0794 0.1645,-0.0833 0.1622,-0.0873 0.1598,-0.091 0.1572,-0.0949 0.1548,-0.0985 0.1522,-0.1022 0.1495,-0.1058 0.1468,-0.1093 0.144,-0.1129 0.1412,-0.1161 0.1382,-0.1195 0.1353,-0.1229 0.1322,-0.1259 0.1293,-0.1293 0.1259,-0.1322 0.1229,-0.1353 0.1195,-0.1382 0.1161,-0.1411 0.1129,-0.1441 0.1093,-0.1468 0.1057,-0.1495 0.1022,-0.1522 0.0986,-0.1547 0.0948,-0.1573 0.0911,-0.1598 0.0873,-0.1621 0.0833,-0.1646 0.0793,-0.1667 0.0754,-0.1691 0.0713,-0.1712 0.0671,-0.1732 0.0629,-0.1754 0.0586,-0.1772 0.0543,-0.1792 0.05,-0.1811 0.0454,-0.1828 0.0409,-0.1846 0.0363,-0.1862 0.0317,-0.1879 0.0271,-0.1893 0.0221,-0.1908 0.0175,-0.1923 0.0125,-0.1935 0.0075,-0.195 z"
         style="fill:url(#Grad255);fill-rule:evenodd;stroke:none"
         transform="rotate(-90,339.5875,23.6095)"
         id="path4953" />
      <path
         d="M 13.8349,48.146 13.8336,48.0136 13.83,47.8817 13.8237,47.7501 13.8152,47.619 l -0.0111,-0.1306 -0.0134,-0.1302 -0.016,-0.1297 -0.0183,-0.1291 -0.0208,-0.1285 -0.0231,-0.1281 -0.0257,-0.1274 -0.0279,-0.1267 -0.0304,-0.1261 -0.0328,-0.1254 -0.0351,-0.1248 -0.0375,-0.124 -0.0399,-0.1233 -0.0422,-0.1226 -0.0446,-0.1217 -0.047,-0.121 -0.0492,-0.1201 -0.0516,-0.1192 -0.054,-0.1185 -0.0562,-0.1175 -0.0586,-0.1166 -0.0608,-0.1156 -0.0632,-0.1147 -0.0655,-0.1137 -0.0677,-0.1127 0.1427,0.0124 0.142,0.0097 0.141,0.0067 0.1401,0.0041 0.1392,0.0013 0.2073,-0.0027 0.206,-0.0079 0.2045,-0.0132 0.2032,-0.0184 0.2016,-0.0235 0.2001,-0.0285 0.1984,-0.0336 0.1968,-0.0384 0.195,-0.0432 0.1932,-0.0481 0.1913,-0.0528 0.1893,-0.0574 0.1874,-0.0619 0.1852,-0.0666 0.1831,-0.0709 0.1809,-0.0754 0.1786,-0.0795 0.1763,-0.084 0.1738,-0.0881 0.1713,-0.0922 0.1688,-0.0962 0.1662,-0.1003 0.1636,-0.1042 0.1608,-0.108 0.1579,-0.1118 0.1552,-0.1156 0.1521,-0.1192 0.1491,-0.1228 0.1462,-0.1263 0.1429,-0.1299 0.1398,-0.1331 0.1365,-0.1366 0.1332,-0.1398 0.1297,-0.143 0.1263,-0.1461 0.1228,-0.1492 0.1191,-0.1522 0.1155,-0.1552 0.1118,-0.158 0.1081,-0.1608 0.1041,-0.1635 0.1002,-0.1663 0.0963,-0.1689 0.0921,-0.1713 0.0881,-0.1738 0.0838,-0.1764 0.0797,-0.1786 0.0753,-0.1809 0.0708,-0.1831 0.0665,-0.1853 0.0619,-0.1873 0.0574,-0.1894 0.0528,-0.1913 0.048,-0.1932 0.0433,-0.195 0.0383,-0.1968 0.0335,-0.1985 0.0286,-0.2001 0.0235,-0.2017 0.0183,-0.2031 0.0132,-0.2046 0.008,-0.2059 0.0027,-0.2072 -0.0011,-0.1327 -0.0033,-0.1324 -0.0055,-0.1321 -0.0077,-0.1318 -0.01,-0.1315 L 21.4032,35.877 21.389,35.7463 21.3725,35.616 21.354,35.4861 21.3333,35.3567 21.3105,35.2278 21.2855,35.0993 21.2584,34.9715 21.2293,34.8441 21.198,34.7173 21.1647,34.5911 21.1293,34.4656 21.0917,34.3407 21.0522,34.2164 21.0106,34.0928 20.9669,33.97 20.9212,33.8479 20.8735,33.7265 20.8238,33.6059 20.772,33.4862 l -0.0536,-0.119 -0.0558,-0.1181 -0.0577,-0.1173 -0.0596,-0.1162 -0.0617,-0.1155 -0.0635,-0.1144 -0.0655,-0.1136 -0.0675,-0.1125 -0.0693,-0.1115 -0.0714,-0.1104 -0.0732,-0.1094 -0.075,-0.1083 -0.077,-0.1073 -0.0789,-0.1061 -0.0807,-0.1049 -0.0826,-0.1038 0.2275,-0.0554 0.2254,-0.0602 0.2231,-0.0649 0.2211,-0.0695 0.2187,-0.0741 0.2164,-0.0784 0.2139,-0.083 0.2117,-0.0874 0.2092,-0.0916 0.2066,-0.0959 0.204,-0.1 0.2015,-0.1043 0.1989,-0.1084 0.1961,-0.1122 0.1932,-0.1163 0.1905,-0.1202 0.1876,-0.124 0.1848,-0.1277 0.1818,-0.1316 0.1787,-0.1352 0.1758,-0.1388 0.1726,-0.1422 0.1695,-0.1458 0.1662,-0.1492 0.1629,-0.1526 0.1598,-0.1558 0.1563,-0.1591 0.1528,-0.1625 0.1495,-0.1653 0.146,-0.1686 0.1424,-0.1715 0.1388,-0.1744 0.1351,-0.1773 0.1314,-0.1802 0.1278,-0.183 0.1239,-0.1857 0.12,-0.1882 0.1161,-0.191 0.1123,-0.1935 0.1082,-0.1958 0.1041,-0.1984 0.1,-0.2006 0.096,-0.203 0.0917,-0.2053 0.0875,-0.2073 0.0831,-0.2095 0.0788,-0.2117 0.0744,-0.2136 0.07,-0.2154 0.0655,-0.2174 0.061,-0.2192 0.0564,-0.221 0.0517,-0.2227 0.047,-0.2243 0.0423,-0.226 0.0375,-0.2274 0.0326,-0.2289 0.0278,-0.2302 0.0228,-0.2317 0.0179,-0.233 0.0128,-0.2341 0.0077,-0.2354 0.0026,-0.2365 -0.0028,-0.2443 -0.0085,-0.2431 -0.014,-0.242 -0.0196,-0.2407 -0.025,-0.2394 -0.0303,-0.2381 -0.0357,-0.2365 -0.041,-0.2351 -0.0462,-0.2334 -0.0513,-0.2318 -0.0564,-0.23 -0.0615,-0.2283 -0.0665,-0.2265 -0.0712,-0.2244 -0.0762,-0.2224 -0.081,-0.2204 -0.0858,-0.2182 -0.0903,-0.216 -0.095,-0.2139 -0.0996,-0.2113 -0.104,-0.209 -0.1085,-0.2065 -0.1128,-0.2039 -0.1172,-0.2012 -0.1214,-0.1987 -0.1256,-0.1958 -0.1297,-0.193 -0.1339,-0.1901 -0.1379,-0.1872 -0.1418,-0.1841 -0.1457,-0.181 -0.1495,-0.1777 -0.1533,-0.1747 -0.157,-0.1712 -0.1607,-0.1678 -0.1643,-0.1644 -0.1678,-0.161 -0.1714,-0.1573 -0.1746,-0.1536 -0.1781,-0.1499 -0.1814,-0.1462 -0.1847,-0.1422 -0.1878,-0.1383 -0.1909,-0.1344 -0.194,-0.1302 -0.197,-0.1261 -0.2,-0.1219 L 22.4566,12.0437 22.251,11.9304 22.0425,11.8216 21.8315,11.7172 21.6177,11.6174 21.4014,11.5222 21.1825,11.4317 20.9611,11.346 20.7375,11.2651 20.5113,11.1891 20.283,11.118 20.0524,11.052 19.8196,10.9911 19.5847,10.9354 19.3479,10.8849 19.109,10.8397 19.1282,10.694 19.145,10.5504 19.1594,10.4089 19.1715,10.2695 19.1813,10.132 19.1889,9.99636 19.1943,9.86251 19.1975,9.73036 19.1986,9.59983 19.1954,9.34851 19.1857,9.09875 19.1697,8.85066 19.1473,8.60428 19.1189,8.35972 19.0842,8.11707 19.0436,7.87637 18.9971,7.63772 18.9446,7.40121 18.8863,7.16691 18.8224,6.93489 18.7528,6.70524 18.6776,6.47806 18.5971,6.25338 18.511,6.03132 18.4197,5.81194 18.3232,5.59534 18.2214,5.38159 18.1146,5.17075 18.0028,4.96293 17.8862,4.75819 17.7646,4.55661 17.6383,4.35828 17.5074,4.16328 17.3717,3.97167 17.2316,3.78356 17.0872,3.599 16.9382,3.41809 16.7851,3.24091 16.6277,3.06752 16.4662,2.89802 16.3006,2.73247 16.1311,2.57096 15.9578,2.41359 15.7807,2.26041 15.5998,2.11151 15.4152,1.96697 15.227,1.82687 15.0355,1.69129 14.8405,1.56029 14.6422,1.43399 14.4406,1.31245 14.236,1.19574 14.0281,1.08394 13.8174,0.977145 13.6035,0.875424 13.387,0.778859 13.1677,0.687531 12.9456,0.601516 12.721,0.520896 12.4939,0.445753 12.2642,0.376161 12.0323,0.312204 11.798,0.25396 11.5615,0.20151 11.3229,0.154931 11.0823,0.114304 10.8397,0.0797099 10.5952,0.0512266 10.3488,0.0289344 10.1008,0.0129128 9.85109,0.00324148 9.59983,0 9.34851,0.00324148 9.09875,0.0129128 8.85066,0.0289344 8.60428,0.0512266 8.35972,0.0797099 8.11707,0.114304 7.87637,0.154931 7.63772,0.20151 7.40121,0.25396 7.16691,0.312204 6.93489,0.376161 6.70524,0.445753 6.47806,0.520896 6.25338,0.601516 6.03132,0.687531 5.81194,0.778859 5.59534,0.875424 5.38159,0.977145 5.17075,1.08394 4.96293,1.19574 4.75819,1.31245 4.55661,1.43399 4.35828,1.56029 4.16328,1.69129 3.97167,1.82687 3.78356,1.96697 3.599,2.11151 3.41809,2.26041 3.24091,2.41359 3.06752,2.57096 2.89802,2.73247 2.73247,2.89802 2.57096,3.06752 2.41359,3.24091 2.26041,3.41809 2.11151,3.599 1.96697,3.78356 1.82687,3.97167 1.69129,4.16328 1.56029,4.35828 1.43399,4.55661 1.31245,4.75819 1.19574,4.96293 1.08394,5.17075 0.977145,5.38159 0.875424,5.59534 0.778859,5.81194 0.687531,6.03132 0.601516,6.25338 0.520896,6.47806 0.445753,6.70524 0.376161,6.93489 0.312204,7.16691 0.25396,7.40121 0.20151,7.63772 0.154931,7.87637 0.114304,8.11707 0.0797099,8.35972 0.0512266,8.60428 0.0289344,8.85066 0.0129128,9.09875 0.00324148,9.34851 0,9.59983 0.001071,9.66011 0.004896,9.71856 0.008568,9.76997 0.004896,9.83484 0.001071,9.89557 0,9.95724 V 46.6674 l 0.00163526,0.1374 0.00498413,0.1405 0.00845051,0.1446 0.0120344,0.149 0.0157357,0.1544 -0.0157357,0.1589 -0.0120344,0.1539 -0.00845051,0.15 L 0.00163526,48.0025 0,48.146 l 0.00275484,0.1967 0.00821546,0.1955 0.0136026,0.194 0.0189162,0.1924 0.0241561,0.191 0.0293227,0.1892 0.0344151,0.1875 0.039435,0.1858 0.044381,0.1839 0.049252,0.182 0.054052,0.1799 0.058778,0.1778 0.063428,0.1758 0.068006,0.1735 0.072511,0.1712 0.076942,0.1688 0.081299,0.1663 0.085584,0.1638 0.089794,0.1612 0.093935,0.1586 0.09799,0.1558 0.10198,0.153 0.1059,0.1501 0.10974,0.1471 0.11352,0.1441 0.1172,0.141 0.12083,0.1378 0.12438,0.1345 0.12785,0.1313 0.13125,0.1279 0.13458,0.1243 0.13783,0.1208 0.14102,0.1172 0.14412,0.1134 0.14717,0.1097 0.15011,0.1059 0.153,0.1019 0.15581,0.098 0.15856,0.0938 0.16122,0.0898 0.16381,0.0855 0.16633,0.0813 0.16878,0.0769 0.17115,0.0724 0.17345,0.0681 0.17567,0.0634 0.17783,0.0587 0.17989,0.054 0.18191,0.0492 0.18383,0.0443 0.18569,0.0394 0.18747,0.0344 0.18918,0.0294 0.19082,0.0241 0.19239,0.0189 0.19387,0.0135 0.19529,0.0084 0.19662,0.0027 0.1967,-0.0027 0.19534,-0.0084 0.19393,-0.0135 0.19244,-0.0189 0.19087,-0.0241 0.18924,-0.0294 0.18752,-0.0344 0.18574,-0.0394 0.18388,-0.0443 0.18195,-0.0492 0.17994,-0.054 0.17786,-0.0587 0.17572,-0.0634 0.17347,-0.0681 0.17119,-0.0724 0.16882,-0.0769 0.16637,-0.0813 0.1638,-0.0855 0.1613,-0.0898 0.1586,-0.0938 0.1558,-0.098 0.153,-0.1019 0.1502,-0.1059 0.1472,-0.1097 0.1441,-0.1134 0.141,-0.1172 0.1379,-0.1208 0.1346,-0.1243 0.1313,-0.1279 0.1278,-0.1313 0.1244,-0.1345 0.1209,-0.1378 0.1172,-0.141 0.1135,-0.1441 0.1098,-0.1471 0.1058,-0.1501 0.102,-0.153 0.0981,-0.1558 0.0938,-0.1586 0.0899,-0.1612 0.0855,-0.1638 0.0814,-0.1663 0.0769,-0.1688 0.0726,-0.1712 0.0679,-0.1735 0.0635,-0.1758 0.0588,-0.1778 0.054,-0.1799 0.0493,-0.182 0.0443,-0.1839 0.0395,-0.1858 0.0344,-0.1875 0.0293,-0.1892 0.0242,-0.191 0.0189,-0.1924 0.0136,-0.194 0.0082,-0.1955 z"
         style="fill:url(#Grad256);fill-rule:evenodd;stroke:none"
         transform="rotate(-90,339.5875,23.0355)"
         id="path4955" />
    </g>
  </g>
</svg>
