<?xml version="1.0" encoding="UTF-8" standalone="no"?>
<svg
   width="49.675205pt"
   height="49.673813pt"
   version="1.1"
   viewBox="0 0 49.675205 49.673813"
   id="svg6053"
   sodipodi:docname="Weather Icons-page001.svg"
   xmlns:inkscape="http://www.inkscape.org/namespaces/inkscape"
   xmlns:sodipodi="http://sodipodi.sourceforge.net/DTD/sodipodi-0.dtd"
   xmlns="http://www.w3.org/2000/svg"
   xmlns:svg="http://www.w3.org/2000/svg">
  <sodipodi:namedview
     id="namedview6055"
     pagecolor="#ffffff"
     bordercolor="#000000"
     borderopacity="0.25"
     inkscape:showpageshadow="2"
     inkscape:pageopacity="0.0"
     inkscape:pagecheckerboard="0"
     inkscape:deskcolor="#d1d1d1"
     inkscape:document-units="pt"
     showgrid="false" />
  <defs
     id="defs2330">
    <clipPath
       id="Clip25">
      <path
         d="M 0,0 H 49.6752 V 49.6738 H 0 Z"
         id="path1484" />
    </clipPath>
    <linearGradient
       x2="49.674099"
       y2="24.8377"
       id="Grad207"
       x1="0"
       gradientUnits="userSpaceOnUse"
       y1="24.8377">
      <stop
         offset="0%"
         stop-color="#fbea16"
         stop-opacity="1"
         id="stop1487" />
      <stop
         offset="100%"
         stop-color="#faee65"
         stop-opacity="1"
         id="stop1489" />
    </linearGradient>
    <linearGradient
       x2="47.8508"
       y2="23.9331"
       id="Grad208"
       x1="-0.0008568"
       gradientUnits="userSpaceOnUse"
       y1="23.9331">
      <stop
         offset="0%"
         stop-color="#f6a505"
         stop-opacity="1"
         id="stop1492" />
      <stop
         offset="100%"
         stop-color="#fcdb0a"
         stop-opacity="1"
         id="stop1494" />
    </linearGradient>
    <linearGradient
       x2="30.259501"
       y2="15.1305"
       id="Grad209"
       x1="-2.7830501e-14"
       gradientUnits="userSpaceOnUse"
       y1="15.1305">
      <stop
         offset="0%"
         stop-color="#fcdf61"
         stop-opacity="1"
         id="stop1497" />
      <stop
         offset="100%"
         stop-color="#fee495"
         stop-opacity="1"
         id="stop1499" />
    </linearGradient>
    <linearGradient
       x2="28.599701"
       y2="14.3006"
       id="Grad210"
       x1="-4.1745799e-14"
       gradientUnits="userSpaceOnUse"
       y1="14.3006">
      <stop
         offset="0%"
         stop-color="#fcdf61"
         stop-opacity="1"
         id="stop1502" />
      <stop
         offset="100%"
         stop-color="#fec902"
         stop-opacity="1"
         id="stop1504" />
    </linearGradient>
    <linearGradient
       x2="17.9165"
       y2="11.2931"
       id="Grad211"
       x1="-1.39153e-14"
       gradientUnits="userSpaceOnUse"
       y1="11.2931">
      <stop
         offset="0%"
         stop-color="#fcdb0a"
         stop-opacity="1"
         id="stop1507" />
      <stop
         offset="100%"
         stop-color="#fdfadd"
         stop-opacity="1"
         id="stop1509" />
    </linearGradient>
  </defs>
  <g
     inkscape:groupmode="layer"
     id="Background"
     inkscape:label="Background"
     transform="translate(-20.085501,-249.18999)">
    <g
       id="high_sun"
       style="fill:none;stroke:none"
       clip-path="url(#Clip25)"
       clip-rule="evenodd"
       transform="translate(20.0855,249.19)">
      <path
         d="m 21.5963,40.4454 0.0837,0.0238 0.0828,0.0363 0.0821,0.0483 0.0812,0.0599 0.0804,0.071 0.0797,0.0818 0.0787,0.0922 0.0779,0.1021 0.0768,0.1115 0.0762,0.1207 0.075,0.1294 0.0742,0.1377 0.0733,0.1454 0.0722,0.1529 0.0712,0.1599 0.0703,0.1665 0.0693,0.1727 0.0682,0.1785 0.0672,0.1838 0.0661,0.1886 0.0649,0.1933 0.0641,0.1973 0.0628,0.201 0.0616,0.2043 0.0606,0.2072 0.0594,0.2094 0.0583,0.2116 0.057,0.2131 0.0559,0.2145 0.0546,0.215 0.0535,0.2155 0.0522,0.2154 0.0509,0.2148 0.0495,0.2141 0.0484,0.2126 0.047,0.2109 0.0458,0.2088 0.0443,0.2062 0.0431,0.2032 0.0416,0.1999 0.0403,0.196 0.0389,0.1918 0.0374,0.187 0.036,0.1821 0.0345,0.1765 0.0332,0.1707 0.0317,0.1643 0.0301,0.1577 0.0287,0.1504 0.0271,0.1429 0.0256,0.1348 0.024,0.1266 0.0225,0.1176 0.0208,0.1085 0.0194,0.0988 0.0176,0.0887 0.0162,0.0783 0.0143,0.0674 0.0127,0.056 0.0111,0.0443 0.0095,0.0321 0.0076,0.0196 0.006,0.0066 0.0047,-0.0067 0.0066,-0.0196 0.0085,-0.0322 0.0103,-0.0443 0.012,-0.056 0.0137,-0.0673 0.0155,-0.0781 0.0173,-0.0886 0.0189,-0.0987 0.0207,-0.1083 0.0224,-0.1175 0.024,-0.1262 0.0256,-0.1346 0.0273,-0.1426 0.0289,-0.1502 0.0305,-0.1573 0.0319,-0.1639 0.0335,-0.1704 0.0352,-0.1761 0.0366,-0.1815 0.038,-0.1867 0.0396,-0.1913 0.041,-0.1955 0.0423,-0.1992 0.044,-0.2027 0.0451,-0.2056 0.0467,-0.2082 0.0479,-0.2103 0.0494,-0.2121 0.0506,-0.2134 0.0521,-0.2142 0.0532,-0.2147 0.0545,-0.2147 0.0558,-0.2144 0.057,-0.2136 0.0582,-0.2124 0.0595,-0.2107 0.0605,-0.2087 0.0617,-0.2064 0.063,-0.2034 0.064,-0.2002 0.0651,-0.1964 0.0662,-0.1924 0.0673,-0.1879 0.0683,-0.1829 0.0693,-0.1774 0.0704,-0.1718 0.0713,-0.1656 0.0724,-0.159 0.0733,-0.1519 0.0742,-0.1445 0.0751,-0.1366 0.076,-0.1284 0.077,-0.1197 0.0777,-0.1106 0.0787,-0.1011 0.0795,-0.091 0.0803,-0.0808 0.081,-0.07 0.0819,-0.0589 0.0826,-0.0471 0.0832,-0.0353 0.0841,-0.0227 0.0863,-0.0104 0.0904,0.0013 0.094,0.0129 0.0976,0.0238 0.1011,0.0347 0.1043,0.0449 0.1075,0.0548 0.1103,0.0644 0.1131,0.0734 0.1156,0.0824 0.1182,0.0907 0.1203,0.0988 0.1224,0.1065 0.1242,0.1137 0.126,0.1205 0.1274,0.1271 0.1289,0.1332 0.1301,0.139 0.1311,0.1443 0.1319,0.1494 0.1326,0.1539 0.1331,0.1582 0.1335,0.1619 0.1336,0.1655 0.1337,0.1687 0.1334,0.1712 0.133,0.1737 0.1326,0.1755 0.132,0.1771 0.1309,0.1784 0.13,0.1792 0.1288,0.1795 0.1273,0.1797 0.1258,0.1793 0.1241,0.1786 0.1222,0.1775 0.12,0.176 0.1179,0.1742 0.1154,0.1719 0.1129,0.1694 0.11,0.1664 0.1073,0.163 0.104,0.1593 0.1007,0.1552 0.0973,0.1505 0.0938,0.1458 0.0898,0.1405 0.086,0.1349 0.0817,0.1288 0.0775,0.1224 0.0731,0.1156 0.0683,0.1085 0.0635,0.1008 0.0585,0.093 0.0534,0.0847 0.048,0.0761 0.0424,0.0669 0.0369,0.0574 0.0309,0.0478 0.0249,0.0374 0.0187,0.0268 0.0124,0.016 0.0057,0.0046 8e-4,-0.0075 -0.0026,-0.0202 -0.0055,-0.0324 -0.0086,-0.0443 -0.0114,-0.0558 -0.0139,-0.067 -0.0167,-0.0777 -0.0188,-0.088 -0.0212,-0.0979 -0.0233,-0.1075 -0.0252,-0.1165 -0.027,-0.1255 -0.0287,-0.1337 -0.0302,-0.1417 -0.0316,-0.1493 -0.0328,-0.1566 -0.034,-0.1633 -0.0349,-0.1696 -0.0357,-0.1758 -0.0364,-0.1812 -0.0369,-0.1867 -0.0374,-0.1914 -0.0376,-0.1959 -0.0375,-0.2 -0.0377,-0.2035 -0.0375,-0.2069 -0.0371,-0.2098 -0.0367,-0.2122 -0.0361,-0.2145 -0.0352,-0.216 -0.0346,-0.2174 -0.0334,-0.2183 -0.0322,-0.2189 -0.0309,-0.219 -0.0294,-0.2187 -0.0279,-0.2181 -0.0261,-0.217 -0.0242,-0.2157 -0.0223,-0.2138 -0.02,-0.2118 -0.0177,-0.2089 -0.0153,-0.2061 -0.0127,-0.2027 -0.0099,-0.1989 -0.0071,-0.1948 -0.0041,-0.1901 -8e-4,-0.1853 0.0023,-0.1798 0.0059,-0.1742 0.0095,-0.168 0.0131,-0.1616 0.0171,-0.1546 0.0211,-0.1473 0.0252,-0.1397 0.0295,-0.1316 0.034,-0.123 0.0386,-0.1142 0.0432,-0.105 0.0482,-0.0954 0.0531,-0.0853 0.0583,-0.0748 0.0637,-0.064 0.069,-0.0529 0.076,-0.0423 0.0843,-0.0329 0.0922,-0.0239 0.0998,-0.0152 0.1069,-0.0065 0.1141,0.0018 0.1207,0.0095 0.127,0.0174 0.1331,0.0247 0.1389,0.0317 0.1443,0.0387 0.1496,0.045 0.1542,0.0514 0.159,0.0574 0.1631,0.0631 0.167,0.0684 0.1708,0.0736 0.1739,0.0783 0.1771,0.0829 0.1797,0.0871 0.1821,0.0912 0.1844,0.0947 0.186,0.0983 0.1875,0.1012 0.1888,0.1043 0.1897,0.1066 0.1902,0.1091 0.1906,0.1109 0.1904,0.1127 0.1901,0.1141 0.1896,0.1152 0.1886,0.116 0.1873,0.1167 0.1858,0.1169 0.184,0.1168 0.1817,0.1166 0.1794,0.116 0.1766,0.1152 0.1734,0.1139 0.1702,0.1126 0.1663,0.1108 0.1626,0.1088 0.1581,0.1066 0.1536,0.1041 0.1486,0.1011 0.1435,0.098 0.1379,0.0945 0.1322,0.091 0.1261,0.0869 0.1195,0.0826 0.1129,0.078 0.1059,0.0732 0.0985,0.0681 0.091,0.0627 0.0828,0.0569 0.0748,0.0511 0.0661,0.0446 0.0573,0.0382 0.0481,0.0314 0.0387,0.0242 0.0288,0.0168 0.0189,0.0091 0.0084,0.0011 L 42.2883,42.5073 42.2794,42.4886 42.2629,42.4597 42.239,42.4209 42.2083,42.3727 42.1707,42.315 42.1268,42.2486 42.0766,42.1734 42.0205,42.0899 41.959,41.9985 41.892,41.8994 41.82,41.7927 41.7433,41.6792 41.662,41.5587 41.5767,41.4318 41.4874,41.2987 41.3943,41.1598 41.298,41.0154 41.1986,40.8657 41.0964,40.711 40.9918,40.5517 40.8848,40.3882 40.776,40.2205 40.6653,40.0493 40.5534,39.8746 40.4403,39.6968 40.3265,39.5162 40.2121,39.3332 40.0974,39.148 39.9827,38.961 39.8683,38.7724 39.7545,38.5826 39.6416,38.3919 39.5297,38.2004 39.4193,38.0087 39.3106,37.8171 39.204,37.6256 39.0995,37.4349 38.9976,37.245 38.8985,37.0564 38.8025,36.8692 38.71,36.6839 38.621,36.5008 38.536,36.3201 38.4553,36.1423 38.379,35.9674 38.3075,35.7959 38.2412,35.6282 38.1801,35.4644 38.1247,35.3049 38.0752,35.15 38.0319,35 37.995,34.8554 l -0.0299,-0.1392 -0.0232,-0.1334 -0.0156,-0.1272 -0.0081,-0.1207 -4e-4,-0.1139 0.008,-0.107 0.0164,-0.0995 0.0249,-0.0918 0.0342,-0.0839 0.0433,-0.0755 0.0537,-0.0683 0.065,-0.0627 0.0758,-0.0572 0.0861,-0.0522 0.0959,-0.0469 0.1058,-0.042 0.1148,-0.037 0.1236,-0.0326 0.1321,-0.0279 0.1401,-0.0236 0.1478,-0.0194 0.1549,-0.0151 0.162,-0.0114 0.1683,-0.0075 0.1744,-0.0039 0.18,-4e-4 0.1855,0.003 0.1903,0.0062 0.1947,0.0093 0.1991,0.0121 0.2026,0.015 0.206,0.0175 0.2091,0.02 0.2115,0.0224 0.2138,0.0245 0.2156,0.0266 0.2169,0.0285 0.218,0.0302 0.2186,0.0318 0.2188,0.0332 0.2186,0.0347 0.2182,0.0357 0.2171,0.0367 0.2158,0.0376 0.2142,0.0383 0.212,0.0388 0.2094,0.0394 0.2067,0.0396 0.2034,0.0396 0.1996,0.0398 0.1956,0.0395 0.1912,0.0392 0.1863,0.0388 0.181,0.0382 0.1755,0.0374 0.1694,0.0365 0.1632,0.0355 0.1562,0.0344 0.149,0.0329 0.1415,0.0315 0.1337,0.0299 0.1252,0.0281 0.1164,0.0262 0.1074,0.0241 0.0978,0.0218 0.0878,0.0196 0.0776,0.017 0.067,0.0144 0.0558,0.0115 0.0444,0.0087 0.0325,0.0055 0.0203,0.0024 0.0076,-0.0011 -0.0047,-0.0059 -0.0159,-0.0125 -0.0267,-0.0191 -0.0373,-0.0253 -0.0474,-0.0316 -0.057,-0.0375 -0.0665,-0.0433 -0.0755,-0.0489 -0.0841,-0.0544 -0.0923,-0.0596 -0.1001,-0.0647 -0.1076,-0.0697 -0.1148,-0.0744 -0.1214,-0.079 -0.1278,-0.0833 -0.1338,-0.0875 -0.1393,-0.0916 -0.1445,-0.0955 -0.1494,-0.0991 -0.1538,-0.1026 -0.158,-0.106 -0.1616,-0.109 L 45.4383,32.975 45.2705,32.8602 45.1,32.7427 44.9273,32.6228 44.7529,32.5005 44.5769,32.3763 44.4,32.2501 44.2223,32.1222 44.0443,31.9925 43.8664,31.8617 43.689,31.7296 43.5123,31.5965 43.3368,31.4626 43.163,31.3278 42.9912,31.1927 42.8216,31.0572 42.6547,30.9215 42.491,30.7859 42.3307,30.6506 42.1743,30.5155 42.022,30.381 41.8744,30.2472 41.7318,30.1144 41.5945,29.9827 41.4629,29.8523 41.3374,29.7232 41.2184,29.5958 41.1063,29.4702 41.0014,29.3465 40.9041,29.2251 40.8149,29.1059 40.734,28.9892 40.6619,28.8753 40.5989,28.764 40.5454,28.6559 40.5017,28.551 l -0.0334,-0.1014 -0.0228,-0.0981 -0.0116,-0.0942 -4e-4,-0.0904 0.0114,-0.0861 0.0238,-0.0838 0.0363,-0.0828 0.0482,-0.082 0.0599,-0.0812 0.0711,-0.0803 0.0817,-0.0794 0.0922,-0.0785 0.1021,-0.0776 0.1115,-0.0767 0.1207,-0.0758 0.1294,-0.0748 0.1375,-0.0738 0.1454,-0.0728 0.1529,-0.0719 0.16,-0.0707 0.1665,-0.0698 0.1725,-0.0688 0.1785,-0.0676 0.1837,-0.0668 0.1888,-0.0654 0.1931,-0.0645 0.1973,-0.0633 0.201,-0.0622 0.2043,-0.0611 0.2071,-0.06 0.2095,-0.0587 0.2115,-0.0575 0.2131,-0.0563 0.2144,-0.0552 0.215,-0.0539 0.2154,-0.0526 0.2153,-0.0514 0.215,-0.0502 0.2139,-0.0489 0.2126,-0.0476 0.2109,-0.0462 0.2089,-0.045 0.2061,-0.0435 0.2032,-0.0421 0.1998,-0.0409 0.196,-0.0394 0.1918,-0.0381 0.187,-0.0367 0.182,-0.0352 0.1767,-0.0337 0.1706,-0.0323 0.1642,-0.0309 0.1577,-0.0294 0.1504,-0.0278 0.143,-0.0264 0.1349,-0.0247 0.1264,-0.0233 0.1178,-0.0216 0.1084,-0.0202 0.0988,-0.0185 0.0887,-0.017 0.0782,-0.0153 0.0675,-0.0137 0.056,-0.012 0.0444,-0.0104 0.0321,-0.0087 0.0196,-0.0071 0.0066,-0.0053 -0.0066,-0.0054 -0.0196,-0.0072 -0.032,-0.0091 -0.0443,-0.0108 -0.056,-0.0127 -0.0672,-0.0144 -0.0781,-0.0163 -0.0886,-0.018 -0.0986,-0.0197 -0.1082,-0.0214 -0.1174,-0.023 -0.1263,-0.0247 -0.1347,-0.0265 -0.1424,-0.028 -0.1502,-0.0296 -0.1573,-0.0312 -0.1639,-0.0328 -0.1703,-0.0344 -0.1761,-0.0359 -0.1816,-0.0373 -0.1867,-0.039 -0.1913,-0.0402 -0.1955,-0.0419 -0.1993,-0.0432 -0.2026,-0.0447 -0.2057,-0.046 -0.2082,-0.0475 -0.2104,-0.0487 -0.212,-0.0502 -0.2133,-0.0514 -0.2143,-0.0527 -0.2147,-0.054 L 44.8857,23.9384 44.6712,23.8818 44.4576,23.8241 44.2452,23.7652 44.0344,23.7051 43.8256,23.6438 43.6193,23.5813 43.4158,23.5178 43.2156,23.4532 43.0191,23.3873 42.8267,23.3206 42.6388,23.2527 42.4559,23.1839 42.2783,23.114 42.1066,23.043 41.941,22.9712 41.782,22.8985 41.63,22.8247 41.4854,22.75 41.3488,22.6745 41.2204,22.5981 41.1006,22.5209 40.99,22.4428 l -0.1011,-0.079 -0.0911,-0.0797 -0.0808,-0.0805 -0.07,-0.0811 -0.0589,-0.0821 -0.0473,-0.0827 -0.0352,-0.0834 -0.0228,-0.084 -0.0104,-0.0863 0.0015,-0.0902 0.0128,-0.094 0.0239,-0.0977 0.0346,-0.1011 0.045,-0.1043 0.0548,-0.1075 0.0644,-0.1104 0.0735,-0.1131 0.0823,-0.1158 0.0908,-0.1181 0.0988,-0.1203 0.1064,-0.1224 0.1137,-0.1244 0.1204,-0.126 0.1272,-0.1277 0.1332,-0.1289 0.1389,-0.1302 0.1443,-0.1312 0.1493,-0.1321 0.1539,-0.1328 0.1581,-0.1332 0.162,-0.1336 0.1654,-0.1338 0.1686,-0.1338 0.1712,-0.1337 0.1736,-0.1333 0.1756,-0.1326 0.177,-0.1321 0.1784,-0.1312 0.1791,-0.1301 0.1795,-0.129 0.1797,-0.1276 0.1792,-0.1261 0.1785,-0.1242 0.1775,-0.1224 0.176,-0.1203 0.1742,-0.1181 0.172,-0.1157 0.1694,-0.113 0.1663,-0.1104 0.1631,-0.1073 0.1592,-0.1043 0.1551,-0.101 0.1507,-0.0975 0.1457,-0.094 0.1406,-0.0901 0.1347,-0.0862 0.1289,-0.082 0.1224,-0.0777 0.1157,-0.0733 0.1084,-0.0686 0.101,-0.0638 0.093,-0.0587 0.0847,-0.0536 0.0762,-0.0482 0.0669,-0.0428 0.0577,-0.0371 0.0477,-0.031 0.0374,-0.0253 0.0271,-0.0188 0.016,-0.0126 0.0047,-0.006 -0.0075,-6e-4 -0.0202,0.0027 -0.0325,0.0057 -0.0443,0.0087 -0.0559,0.0115 -0.0669,0.0142 -0.0777,0.0168 -0.0879,0.0191 -0.0979,0.0213 -0.1075,0.0235 -0.1167,0.0253 -0.1253,0.0272 -0.1338,0.0289 -0.1416,0.0305 -0.1493,0.0317 -0.1564,0.033 -0.1633,0.0342 -0.1697,0.0351 -0.1757,0.0358 -0.1813,0.0366 -0.1866,0.0373 -0.1914,0.0374 -0.1958,0.0377 -0.1999,0.0379 -0.2036,0.0379 -0.2068,0.0377 -0.2097,0.0373 -0.2122,0.0368 -0.2143,0.0363 -0.2161,0.0355 -0.2174,0.0346 -0.2182,0.0335 -0.2189,0.0325 -0.2189,0.0311 -0.2188,0.0297 -0.218,0.028 -0.217,0.0262 -0.2156,0.0245 -0.2139,0.0224 -0.2116,0.0202 -0.2089,0.0179 -0.2062,0.0154 -0.2025,0.0129 -0.1989,0.0101 -0.1948,0.0072 -0.1901,0.0042 -0.1853,0.001 -0.1798,-0.0022 -0.1742,-0.0058 -0.168,-0.0093 -0.1616,-0.0131 -0.1546,-0.017 -0.1473,-0.0209 -0.1397,-0.0251 -0.1316,-0.0295 -0.1231,-0.0338 -0.1142,-0.0385 -0.105,-0.0433 -0.0954,-0.0479 -0.0853,-0.0532 -0.0749,-0.0582 -0.0641,-0.0635 -0.0529,-0.0691 -0.0424,-0.076 -0.0329,-0.0842 -0.0239,-0.0922 -0.015,-0.0997 -0.0065,-0.107 0.0017,-0.114 0.0097,-0.1206 0.0174,-0.1271 0.0247,-0.133 0.0318,-0.139 0.0386,-0.1443 0.0451,-0.1494 0.0514,-0.1544 0.0575,-0.1588 0.063,-0.1632 0.0684,-0.1671 0.0736,-0.1706 0.0783,-0.1741 0.0829,-0.177 0.0871,-0.1798 0.0912,-0.1821 0.0949,-0.1842 0.0981,-0.1862 0.1014,-0.1875 0.1041,-0.1887 0.1068,-0.1897 0.1089,-0.1903 0.1109,-0.1905 0.1127,-0.1905 0.1141,-0.1902 0.1152,-0.1895 0.1159,-0.1886 0.1167,-0.1874 0.1167,-0.1858 0.1169,-0.184 0.1165,-0.1818 0.116,-0.1793 0.1151,-0.1766 0.114,-0.1735 0.1125,-0.17013 0.1107,-0.16646 0.1089,-0.16247 0.1064,-0.15818 0.104,-0.15358 0.1009,-0.1487 L 41.6039,8.73479 41.6984,8.59683 41.7891,8.46466 41.8759,8.3386 41.9584,8.21898 42.0363,8.10607 42.1095,8.0002 42.1774,7.90165 42.24,7.81076 42.2968,7.72781 42.3477,7.6531 l 0.0446,-0.06615 0.038,-0.05729 0.0312,-0.04814 0.024,-0.03866 0.0168,-0.0289 0.0089,-0.01881 10e-4,-0.00843 -0.0082,0.0012 -0.0186,0.00903 -0.0288,0.0166 -0.0386,0.02388 -0.0483,0.03089 -0.0574,0.0376 -0.0664,0.04404 -0.0751,0.05021 -0.0833,0.05608 -0.0914,0.06168 -0.0991,0.06699 -0.1065,0.07203 -0.1135,0.0768 -0.1205,0.08126 -0.1268,0.08546 -0.133,0.08936 -0.1388,0.093 -0.1445,0.09636 -0.1497,0.09942 -0.1546,0.10222 -0.1592,0.10472 -0.1635,0.10696 -0.1677,0.1089 -0.1713,0.11056 -0.1746,0.11195 -0.1777,0.11306 -0.1806,0.11388 -0.1831,0.11443 -0.1851,0.11469 -0.187,0.11468 -0.1886,0.11438 -0.1899,0.11379 -0.1907,0.11297 -0.1914,0.1118 -0.1917,0.1103 -0.1916,0.1087 -0.1915,0.1067 -0.1908,0.1044 -0.1898,0.1019 -0.1888,0.0991 -0.187,0.0959 -0.1853,0.0926 -0.1831,0.0889 -0.1807,0.085 -0.178,0.0807 -0.1748,0.0762 -0.1714,0.0714 -0.1678,0.0664 -0.1638,0.061 -0.1595,0.0553 -0.1548,0.0495 -0.15,0.0433 -0.1447,0.0367 -0.1391,0.0301 -0.1334,0.023 -0.1272,0.0157 -0.1207,0.008 -0.114,2e-4 -0.1068,-0.0079 -0.0995,-0.0164 -0.0918,-0.0251 -0.0837,-0.0341 -0.0756,-0.0434 -0.0683,-0.0539 -0.0628,-0.065 L 33.5735,11.4371 33.5214,11.351 33.4746,11.2549 33.4327,11.1493 33.3956,11.0344 33.3633,10.9108 33.3354,10.7788 33.312,10.6387 33.2929,10.491 33.2779,10.3361 33.2669,10.1743 33.2595,10.006 33.256,9.83172 v -0.18 l 0.0033,-0.18529 0.0064,-0.1902 0.0096,-0.1947 0.0126,-0.19884 0.0153,-0.20256 0.018,-0.2059 0.0204,-0.20886 0.0228,-0.21144 0.025,-0.2136 0.027,-0.21539 0.0289,-0.21679 0.0307,-0.21779 0.0323,-0.21841 0.0337,-0.21864 0.0351,-0.21847 0.0363,-0.21792 0.0372,-0.21698 0.038,-0.21566 0.0388,-0.21393 0.0395,-0.21181 0.0399,-0.20932 0.04,-0.20644 0.0403,-0.20315 0.0402,-0.19947 0.04,-0.19542 0.0398,-0.19099 0.0393,-0.18614 0.0387,-0.18091 0.0379,-0.17529 0.0371,-0.16929 0.036,-0.16289 0.0348,-0.15611 0.0334,-0.14893 0.0321,-0.14136 0.0303,-0.13342 0.0285,-0.12507 0.0267,-0.11633 0.0245,-0.10722 0.0224,-0.09769 0.0199,-0.08779 0.0174,-0.07751 0.0148,-0.06683 0.012,-0.05575 0.009,-0.04429 0.006,-0.03243 0.0025,-0.02021 -7e-4,-0.00756 -0.0062,0.00454 -0.013,0.01577 L 34.471,2.0077 34.4452,2.04486 34.4132,2.09212 34.3753,2.14914 34.3316,2.2155 34.2822,2.29085 34.2273,2.37482 34.1672,2.46701 34.102,2.56705 34.0319,2.67457 33.9571,2.78919 33.8776,2.91053 33.7938,3.0382 33.7058,3.17185 33.6137,3.31108 33.5178,3.45554 33.4181,3.60481 33.3151,3.75855 33.2086,3.91636 33.099,4.07788 32.9864,4.24273 32.8711,4.41051 32.7531,4.58088 32.6327,4.75343 32.5101,4.9278 32.3852,5.1036 32.2586,5.28047 32.1301,5.45802 32.0003,5.63587 31.8689,5.81366 31.7364,5.991 31.6028,6.1675 31.4683,6.34282 31.3333,6.51654 31.1977,6.6883 31.0618,6.85774 30.9258,7.02446 30.7898,7.1881 30.654,7.34826 30.5186,7.50458 30.3838,7.65667 30.2498,7.80418 30.1166,7.94669 29.9846,8.08386 29.8538,8.21529 29.7245,8.34062 29.5968,8.45947 29.471,8.57144 29.3471,8.67618 29.2254,8.7733 29.106,8.86242 28.9892,8.94317 28.875,9.01518 28.7638,9.07805 28.6556,9.13142 28.5505,9.17491 28.4488,9.20814 28.3509,9.23073 28.2565,9.24231 28.1662,9.2425 28.08,9.23092 27.9963,9.20723 27.9133,9.17111 27.8313,9.12297 27.7502,9.06323 27.6697,8.99231 27.5903,8.91061 27.5118,8.81857 27.4342,8.71659 27.3576,8.60509 27.2819,8.48449 27.2072,8.35521 27.1334,8.21764 27.0606,8.07224 26.9888,7.9194 26.9181,7.75955 26.8483,7.59308 26.7797,7.42044 26.7121,7.24203 26.6455,7.05826 26.5801,6.86955 26.5158,6.67634 26.4526,6.47902 26.3905,6.27802 26.3296,6.07375 26.2697,5.86662 26.2112,5.65706 26.1538,5.44549 26.0975,5.23231 26.0426,5.01795 25.9888,4.80282 25.9363,4.58733 25.885,4.37192 25.8351,4.15699 25.7864,3.94296 25.739,3.73024 25.693,3.51924 25.6482,3.31041 25.6049,3.10414 25.5628,2.90086 25.5221,2.70096 25.4828,2.50488 25.4449,2.31304 25.4084,2.12586 25.3734,1.94372 25.3399,1.76708 25.3077,1.59633 25.2771,1.4319 25.2478,1.27421 25.2202,1.12366 25.194,0.980674 25.1694,0.845674 25.1462,0.719074 25.1247,0.60129 25.1047,0.492738 25.0864,0.393835 25.0695,0.305 25.0543,0.226647 25.0408,0.159193 25.0288,0.103055 25.0186,0.0586504 25.01,0.0263952 25.0031,0.00670612 24.9979,0 24.9924,0.00669158 24.985,0.0263373 24.9757,0.0585209 24.9647,0.102826 24.9519,0.158837 24.9372,0.226136 24.9208,0.30431 24.9026,0.392939 24.8827,0.491609 24.8612,0.599903 24.8379,0.717406 24.8129,0.8437 24.7864,0.978369 24.7581,1.121 l -0.0299,0.15017 -0.0314,0.1573 -0.033,0.164 -0.0346,0.17031 -0.036,0.17618 L 24.5556,2.1206 24.5165,2.30729 24.476,2.49861 24.434,2.69415 24.3905,2.89347 24.3456,3.09618 24.2995,3.30185 24.2518,3.51008 24.2029,3.72043 24.1526,3.9325 24.1009,4.14587 24.0481,4.36012 23.9938,4.57483 23.9384,4.78961 23.8817,5.00402 23.8238,5.21763 23.7647,5.43006 23.7045,5.64087 23.643,5.84966 23.5805,6.05598 23.5168,6.25945 23.452,6.45965 23.3861,6.65614 23.3193,6.84852 23.2513,7.03638 23.1823,7.21929 23.1124,7.39684 23.0414,7.56862 22.9695,7.7342 22.8966,7.89317 22.8229,8.04512 22.7483,8.18962 22.6726,8.32627 22.5963,8.45465 22.519,8.57433 22.4409,8.68492 22.3621,8.78597 22.2824,8.87708 22.202,8.95784 22.1209,9.02783 22.039,9.08663 21.9564,9.13383 21.8731,9.16901 21.7892,9.19175 21.7027,9.20224 21.6123,9.20089 21.5182,9.1881 21.4204,9.16425 21.3193,9.12971 21.2147,9.08485 21.1073,9.03005 20.9967,8.96571 20.8835,8.8922 20.7677,8.80991 20.6496,8.7192 20.5292,8.62046 20.4068,8.51407 20.2824,8.40041 20.1563,8.27986 20.0288,8.15279 19.8998,8.0196 19.7697,7.88065 19.6385,7.73633 19.5065,7.58703 19.3737,7.43311 19.2405,7.27495 19.107,7.11295 18.9732,6.94747 18.8396,6.7789 18.706,6.60762 18.5729,6.434 18.4403,6.25845 18.3083,6.08131 18.1773,5.90297 18.0471,5.72383 17.9184,5.54425 17.791,5.36462 17.665,5.18532 17.5409,5.00672 17.4186,4.82921 17.2985,4.65317 17.1806,4.47897 17.065,4.307 16.9522,4.13763 16.842,3.97126 16.7348,3.80823 16.6306,3.64896 16.5299,3.49382 16.4324,3.34318 16.3387,3.19743 16.2487,3.05694 16.1627,2.9221 16.0808,2.79328 16.0033,2.67087 15.9302,2.55523 15.8618,2.44678 15.7982,2.34584 15.7397,2.25286 15.6862,2.16816 15.6381,2.09215 15.5956,2.02521 15.5586,1.9677 15.5277,1.92003 15.5027,1.88255 15.4838,1.85566 15.4715,1.83973 15.4656,1.83514 l -6e-4,0.00745 0.0026,0.02012 0.0056,0.0324 0.0087,0.04429 0.0114,0.05581 0.014,0.06691 0.0167,0.07763 0.019,0.08795 0.0213,0.0979 0.0232,0.10743 0.0254,0.1166 0.027,0.12535 0.0289,0.13371 0.0302,0.1417 0.0317,0.14928 0.033,0.15648 0.034,0.16328 0.035,0.16969 0.0358,0.17571 0.0365,0.18133 0.037,0.18658 0.0374,0.19142 0.0377,0.19588 0.0377,0.19992 0.0377,0.2036 0.0376,0.20688 0.0372,0.20977 0.0369,0.21227 0.0361,0.21436 0.0355,0.21607 0.0345,0.2174 0.0334,0.21832 0.0324,0.21886 0.031,0.21902 0.0295,0.21876 0.028,0.21812 0.0262,0.21709 0.0243,0.21568 0.0224,0.21385 0.02,0.21166 0.0179,0.20905 0.0153,0.20607 0.0127,0.20269 0.0101,0.19891 0.0072,0.19477 0.004,0.1902 10e-4,0.18525 -0.0023,0.17993 -0.0058,0.17418 -0.0094,0.16808 -0.0131,0.1615 -0.017,0.1547 -0.0211,0.1474 -0.0252,0.1396 -0.0293,0.1316 -0.0341,0.1231 -0.0384,0.1143 -0.0433,0.105 -0.0481,0.0953 -0.0532,0.0854 -0.0582,0.0749 -0.0635,0.064 -0.0691,0.0529 -0.076,0.0423 -0.0843,0.033 -0.0921,0.0238 -0.0997,0.0151 -0.107,0.0065 -0.114,-0.0018 L 15.401,11.6197 15.2741,11.6023 15.141,11.5775 15.0022,11.5456 14.858,11.5069 14.7087,11.4617 14.5545,11.4101 14.3957,11.3527 14.2328,11.2895 14.0658,11.2209 13.8953,11.1472 13.7215,11.0687 13.5447,10.9857 13.3651,10.8983 13.1831,10.807 12.9991,10.712 12.8132,10.6136 12.6258,10.5121 12.4373,10.4077 12.248,10.3008 12.0579,10.1916 11.8676,10.0804 11.6774,9.96756 11.4874,9.85326 11.2982,9.73784 11.1098,9.62157 10.9227,9.50474 10.7372,9.38763 10.5535,9.27053 10.372,9.15371 10.1929,9.03748 10.0166,8.9221 9.84335,8.80788 9.67349,8.69509 9.50731,8.58401 9.34512,8.47493 9.18721,8.36813 9.03389,8.26391 8.88547,8.16254 8.74225,8.06431 8.60454,7.9695 8.47263,7.87841 8.34684,7.7913 8.22746,7.70847 8.1148,7.63021 8.00918,7.55679 7.91088,7.48851 7.82022,7.42563 7.73749,7.36846 7.66301,7.31727 7.59707,7.27236 7.53999,7.234 7.49206,7.20248 7.45358,7.17809 7.42488,7.1611 7.40624,7.1518 7.39798,7.15049 7.39893,7.15882 7.40773,7.17763 7.4241,7.20664 7.44773,7.24552 7.47837,7.29395 7.51571,7.35164 7.55951,7.41828 7.60946,7.49356 7.66528,7.57716 7.7267,7.6688 7.79343,7.76814 7.8652,7.87489 7.94173,7.98873 8.02272,8.10937 8.10791,8.23648 8.19702,8.36976 8.28976,8.50892 8.38584,8.65362 8.485,8.80357 l 0.10196,0.15489 0.10446,0.15951 0.10669,0.16384 0.10863,0.16785 0.11032,0.17156 0.11169,0.17495 0.1128,0.17803 0.11364,0.1808 0.11419,0.1833 0.11444,0.1855 0.11443,0.1873 0.11414,0.1888 0.11356,0.1901 0.11275,0.191 0.1115,0.1917 0.1102,0.1919 0.1085,0.192 0.1064,0.1916 0.1043,0.1911 0.1016,0.1901 0.0989,0.1889 0.0958,0.1873 0.0924,0.1856 0.0887,0.1833 0.0848,0.1809 0.0806,0.1781 0.076,0.1751 0.0713,0.1716 0.0662,0.1679 0.0609,0.164 0.0552,0.1596 0.0494,0.155 0.0431,0.15 0.0367,0.145 0.03,0.1393 0.0229,0.1334 0.0157,0.1273 0.008,0.1208 10e-5,0.1139 -0.0079,0.107 -0.0165,0.0995 -0.0251,0.0918 -0.0341,0.0839 -0.0434,0.0755 -0.0538,0.0684 -0.0649,0.0627 -0.0757,0.0573 -0.086,0.0519 -0.0959,0.0467 -0.1056,0.0417 -0.1147,0.0369 -0.1235,0.0322 -0.1319,0.0274 -0.1399,0.0231 -0.1475,0.0188 -0.1547,0.0146 -0.1616,0.0107 -0.1681,0.0069 -0.17407,0.003 -0.17978,-5e-4 L 9.46819,16.4121 9.27823,16.405 9.08377,16.3947 8.88519,16.3816 8.68288,16.3657 8.47724,16.347 8.26865,16.326 8.05751,16.3025 7.84419,16.2768 7.62909,16.249 7.41261,16.2192 7.19511,16.1878 6.97701,16.1547 6.75868,16.1202 6.54053,16.0843 6.32293,16.0473 6.10627,16.0092 5.89094,15.9703 5.67734,15.9306 5.46586,15.8903 5.25687,15.8496 5.05079,15.8086 4.84797,15.7676 4.64884,15.7264 4.45376,15.6854 4.26312,15.6448 4.07733,15.6047 3.89676,15.5651 3.7218,15.5263 3.55287,15.4884 3.39032,15.4515 3.23455,15.4159 3.08596,15.3816 2.94494,15.3488 2.81187,15.3176 2.68713,15.2882 2.57113,15.2608 2.46425,15.2355 2.36689,15.2124 2.27942,15.1917 2.20223,15.1736 2.13573,15.158 2.0803,15.1454 2.03632,15.1357 2.00418,15.1291 l -0.0199,-0.0032 -0.00728,2e-4 0.00426,0.0069 0.0155,0.0136 0.02635,0.0202 0.03685,0.0265 0.04695,0.0326 0.05668,0.0387 0.06604,0.0446 0.075,0.0502 0.08363,0.0555 0.09183,0.061 0.09969,0.066 0.10716,0.0708 0.11425,0.0758 0.12096,0.0803 0.12731,0.0846 0.13327,0.0888 0.13885,0.0929 0.14408,0.0969 0.1489,0.1004 0.15335,0.104 0.15745,0.1073 0.16114,0.1104 0.16446,0.1135 0.16741,0.1161 0.17,0.1189 0.17218,0.1213 0.17401,0.1235 0.17544,0.1256 0.17653,0.1275 0.1772,0.1293 0.17751,0.1307 0.17746,0.1322 0.17702,0.1334 0.17618,0.1343 0.17501,0.1352 0.17342,0.1359 0.17149,0.1363 0.16915,0.1366 0.16645,0.1368 0.16338,0.1367 0.15992,0.1365 0.15608,0.1361 0.15189,0.1355 0.1473,0.1346 0.14234,0.1338 0.13699,0.1327 0.13128,0.1313 0.12519,0.1299 0.11872,0.1281 0.11187,0.1265 0.10465,0.1243 0.09705,0.1222 0.08909,0.1197 0.08072,0.1172 0.072,0.1146 0.06289,0.1116 0.0534,0.1086 0.04355,0.1053 0.03332,0.1018 0.02269,0.0983 0.01171,0.0945 3.3e-4,0.0904 L 9.23239,21.5977 9.20852,21.6814 9.17224,21.7643 9.12393,21.8464 9.06404,21.9276 8.99296,22.008 8.91112,22.0874 8.81893,22.1659 8.71683,22.2435 8.6052,22.3203 8.48447,22.396 8.35507,22.4708 8.21742,22.5446 8.07191,22.6174 7.91897,22.6893 7.75902,22.76 7.59247,22.8299 7.41975,22.8986 7.24126,22.9663 7.05742,23.0329 6.86866,23.0985 6.67539,23.1629 6.47802,23.2261 6.27697,23.2883 6.07264,23.3494 5.86548,23.4092 5.65588,23.468 5.44428,23.5255 5.23108,23.5818 5.0167,23.6369 4.80156,23.6908 4.58606,23.7434 4.37063,23.7948 4.1557,23.8449 3.94166,23.8937 3.72894,23.9413 3.51796,23.9875 3.30913,24.0324 3.10288,24.0758 2.89961,24.1181 2.69974,24.1589 2.50369,24.1984 2.31188,24.2363 2.1247,24.273 1.94262,24.3082 1.76601,24.3419 1.5953,24.3742 1.43092,24.405 1.27327,24.4343 1.12276,24.4623 0.97983,24.4886 0.844883,24.5133 0.718339,24.5365 0.600612,24.5583 0.492119,24.5784 0.393279,24.597 0.304507,24.6139 0.226218,24.6293 0.158832,24.643 0.102763,24.6552 0.0584294,24.6656 0.0262464,24.6742 0.00663102,24.6813 0,24.6867 l 0.00668512,0.0054 0.01963808,0.0071 0.0321748,0.0091 0.044295,0.0109 0.056,0.0126 0.067288,0.0144 0.078161,0.0163 0.088615,0.0179 0.098657,0.0197 0.10828,0.0214 0.117487,0.023 0.126279,0.0247 0.134653,0.0265 0.142617,0.028 0.15015,0.0296 0.15728,0.0312 0.16399,0.0328 0.1703,0.0344 0.17616,0.0359 0.18163,0.0373 0.18667,0.0389 0.19131,0.0404 0.19552,0.0418 0.1993,0.0432 0.20271,0.0447 0.20566,0.0461 0.20821,0.0474 0.21033,0.0488 0.21207,0.0501 0.21336,0.0515 0.21425,0.0528 0.21471,0.0539 0.21477,0.0554 0.21439,0.0565 0.21363,0.0577 0.21242,0.059 0.21081,0.0601 0.20878,0.0613 0.20634,0.0624 0.20348,0.0637 0.2002,0.0646 0.19651,0.0657 0.1924,0.0668 0.18787,0.068 0.18293,0.0688 0.17756,0.07 0.1718,0.0708 0.16561,0.0719 0.159,0.0728 0.15198,0.0737 0.14455,0.0747 0.13668,0.0755 0.12841,0.0765 0.11973,0.0772 0.11063,0.0781 0.1011,0.079 0.09116,0.0796 0.08082,0.0806 0.07005,0.0811 0.05886,0.082 0.04726,0.0828 0.03525,0.0833 0.02282,0.0841 0.01039,0.0864 L 9.20121,28.065 9.18834,28.1592 9.16438,28.2569 9.12975,28.3581 9.08482,28.4625 9.02995,28.57 8.96554,28.6804 8.89196,28.7935 8.80958,28.9093 8.71881,29.0274 8.62,29.1477 8.51354,29.2701 8.39982,29.3944 8.27921,29.5203 8.15208,29.6479 8.01883,29.7767 7.87982,29.9067 7.73545,30.0378 7.58608,30.1698 7.4321,30.3023 7.2739,30.4355 7.11184,30.5689 6.94631,30.7024 6.77769,30.8361 6.60636,30.9694 6.4327,31.1025 6.25708,31.235 6.07989,31.3668 5.9015,31.4978 5.72231,31.6277 5.54269,31.7563 5.363,31.8837 5.18364,32.0094 5.005,32.1334 l -0.17757,0.1222 -0.1761,0.1199 -0.17424,0.1179 -0.17202,0.1153 -0.16943,0.1129 -0.16644,0.11 -0.16306,0.1071 -0.15933,0.1039 -0.1552,0.1007 -0.1507,0.0972 -0.14582,0.0937 -0.14055,0.0898 -0.13491,0.0859 -0.12889,0.0818 -0.12248,0.0775 -0.11569,0.0729 -0.10854,0.0683 -0.101,0.0634 -0.09306,0.0585 -0.08478,0.0534 -0.07609,0.048 -0.06703,0.0425 -0.05757,0.0367 -0.04778,0.0309 -0.03756,0.0249 -0.02698,0.0187 -0.01602,0.0124 -0.00469,0.0057 0.00748,8e-4 L 1.85911,34.2037 1.89156,34.1981 1.9359,34.1895 1.99175,34.1781 2.05871,34.164 2.13639,34.1474 2.2244,34.1285 2.32236,34.1074 2.42985,34.084 2.5465,34.0588 2.67192,34.0317 2.8057,34.0031 2.94745,33.9729 3.09681,33.9413 3.25336,33.9083 3.4167,33.8744 3.58647,33.8396 3.76225,33.8038 3.94365,33.7673 4.1303,33.7305 4.3218,33.6932 4.51774,33.6556 4.71775,33.6179 4.92142,33.5803 5.12838,33.5429 5.33822,33.5057 5.55056,33.4691 5.76499,33.4329 5.98114,33.3976 6.19861,33.3632 6.417,33.3298 6.63594,33.2976 6.85501,33.2666 7.07384,33.2372 7.29203,33.2093 7.50919,33.1833 7.72492,33.159 7.93884,33.1367 8.15055,33.1167 8.35968,33.099 8.5658,33.0837 8.76854,33.071 8.96751,33.0611 9.16233,33.054 9.35257,33.05 l 0.1853,-10e-4 0.17997,0.0024 0.17422,0.0059 0.16814,0.0094 0.1616,0.0132 0.1546,0.0171 0.1474,0.021 0.1397,0.0252 0.1316,0.0295 0.1232,0.0339 0.1142,0.0386 0.105,0.0433 0.0954,0.0481 0.0853,0.0531 0.0749,0.0583 0.0641,0.0635 0.0528,0.0691 0.0424,0.0761 0.033,0.0843 0.024,0.0923 0.0151,0.0999 0.0067,0.1071 -0.0016,0.1141 -0.0095,0.1208 -0.0173,0.1273 -0.0245,0.1331 -0.0317,0.1391 -0.0385,0.1446 -0.045,0.1496 -0.0512,0.1545 -0.0573,0.1591 -0.0628,0.1633 -0.0683,0.1673 -0.0734,0.1709 -0.0782,0.1742 -0.0827,0.1772 -0.087,0.1801 -0.0909,0.1823 -0.0947,0.1845 -0.098,0.1863 -0.1011,0.1878 -0.104,0.1891 -0.1065,0.1898 -0.1088,0.1905 -0.1108,0.1908 -0.1124,0.1907 -0.11387,0.1904 -0.11498,0.1898 -0.11583,0.1888 -0.11638,0.1877 -0.11664,0.186 -0.11665,0.1842 -0.11634,0.182 -0.11577,0.1796 -0.11489,0.1769 -0.11375,0.1736 -0.11232,0.1704 -0.1106,0.1667 -0.10859,0.1627 -0.10632,0.1584 -0.10373,0.1538 -0.10088,0.1489 -0.09775,0.1437 -0.09432,0.1382 -0.09061,0.1324 -0.08663,0.1262 -0.08235,0.1198 -0.07778,0.1131 -0.07295,0.1061 -0.06781,0.0988 -0.0624,0.0911 -0.05671,0.0831 -0.05071,0.0749 -0.04446,0.0662 -0.0379,0.0576 -0.03108,0.0482 -0.02395,0.0388 -0.01655,0.029 -0.00886,0.019 -9e-4,0.0085 0.00795,-0.0013 0.01842,-0.0091 0.02859,-0.0167 0.03846,-0.024 0.048,-0.0311 0.05727,-0.0377 0.0662,-0.0442 0.07483,-0.0504 0.08316,-0.0562 0.09118,-0.062 0.09888,-0.067 L 7.89296,41.83 8.00634,41.753 8.1265,41.6714 8.25314,41.5858 8.38594,41.4962 8.52461,41.403 8.66883,41.3065 8.81831,41.2067 8.9727,41.1042 9.13174,40.9993 9.2951,40.8921 l 0.16737,-0.1092 0.17107,-0.1107 0.17448,-0.1121 0.17757,-0.1134 0.18031,-0.1142 0.1828,-0.1146 0.185,-0.1149 0.1869,-0.1149 0.1884,-0.1147 0.1896,-0.114 0.1906,-0.1132 0.1912,-0.112 0.1915,-0.1106 0.1916,-0.109 0.1912,-0.1069 0.1906,-0.1047 0.1897,-0.1021 0.1886,-0.0992 0.1869,-0.0962 0.1852,-0.0928 0.183,-0.0891 0.1805,-0.0851 0.1778,-0.0809 0.1746,-0.0764 0.1714,-0.0716 0.1677,-0.0666 0.1636,-0.0612 0.1594,-0.0554 0.1547,-0.0497 0.1499,-0.0433 0.1446,-0.037 0.139,-0.0301 0.1333,-0.0232 0.1271,-0.0157 0.1207,-0.0082 0.1139,-3e-4 0.1067,0.008 0.0996,0.0162 0.0916,0.0251 0.0839,0.0342 0.0754,0.0433 0.0683,0.0539 0.0628,0.0648 0.0574,0.0758 0.052,0.0861 0.047,0.096 0.042,0.1058 0.0371,0.1148 0.0324,0.1236 0.028,0.1321 0.0235,0.1401 0.0193,0.1478 0.0153,0.1549 0.0112,0.162 0.0074,0.1683 0.0038,0.1744 3e-4,0.18 -0.003,0.1855 -0.0064,0.1902 -0.0093,0.1949 -0.0122,0.1989 -0.0151,0.2026 -0.0178,0.206 -0.02,0.2091 -0.0225,0.2115 -0.0248,0.2137 -0.0267,0.2156 -0.0286,0.217 -0.0304,0.2179 -0.0319,0.2186 -0.0334,0.2187 -0.0347,0.2186 -0.0359,0.2181 -0.0369,0.2172 -0.0377,0.2157 -0.0384,0.2141 -0.0391,0.212 -0.0395,0.2096 -0.0397,0.2065 -0.0399,0.2033 -0.0399,0.1996 -0.0396,0.1956 -0.0394,0.1912 -0.039,0.1863 -0.0383,0.181 -0.0375,0.1755 -0.0366,0.1694 -0.0357,0.1631 -0.0343,0.1561 -0.0332,0.1491 -0.0316,0.1415 -0.03,0.1336 -0.0281,0.1252 -0.0264,0.1165 -0.0242,0.1073 -0.0219,0.0978 -0.0196,0.0879 -0.0171,0.0776 -0.0145,0.067 -0.0116,0.0558 -0.0087,0.0443 -0.0056,0.0326 -0.0023,0.0203 0.0011,0.0076 0.006,-0.0046 0.0127,-0.0159 0.0192,-0.0267 0.0256,-0.0372 0.0317,-0.0473 0.0376,-0.0571 0.0434,-0.0664 0.0491,-0.0754 0.0546,-0.0841 0.0597,-0.0922 0.0649,-0.1002 0.0698,-0.1076 0.0745,-0.1147 0.0791,-0.1214 0.0835,-0.1278 0.0877,-0.1338 0.0917,-0.1393 0.0956,-0.1445 0.0993,-0.1495 0.1026,-0.1539 0.106,-0.1579 0.1093,-0.1616 0.1122,-0.165 0.115,-0.168 0.1175,-0.1705 0.1201,-0.1727 0.1223,-0.1744 0.1243,-0.176 0.1264,-0.177 0.128,-0.1777 0.1296,-0.178 0.131,-0.178 0.1322,-0.1774 0.1331,-0.1767 0.1342,-0.1755 0.1346,-0.1738 0.1353,-0.172 0.1356,-0.1695 0.1356,-0.1669 0.1358,-0.1638 0.1355,-0.1604 0.135,-0.1564 0.1345,-0.1523 0.1338,-0.1476 0.1329,-0.1427 0.1318,-0.1372 0.1305,-0.1317 0.129,-0.1255 0.1275,-0.1189 0.1256,-0.1122 0.1238,-0.1048 0.1215,-0.0972 0.1191,-0.0893 0.1168,-0.0809 0.1141,-0.0722 0.1111,-0.0629 0.1081,-0.0535 0.1049,-0.0437 0.1016,-0.0333 0.098,-0.0227 0.0943,-0.0117 0.0902,-3e-4 z"
         style="fill:url(#Grad207);fill-rule:evenodd;stroke:none"
         transform="rotate(-90,24.8369,24.8369)"
         id="path3753" />
      <path
         d="m 11.4001,36.4516 0.0388,0.0454 0.0344,0.0538 0.0299,0.062 0.0258,0.0699 0.0216,0.0774 0.0177,0.0847 0.0138,0.0917 0.0102,0.0984 0.0066,0.1048 0.0032,0.1109 v 0.1168 l -0.0032,0.1223 -0.0062,0.1275 -0.009,0.1324 -0.0118,0.1372 -0.0143,0.1415 -0.0168,0.1457 -0.0191,0.1493 -0.0212,0.1529 -0.0233,0.1562 -0.0251,0.159 -0.027,0.1617 -0.0285,0.164 -0.03,0.166 -0.0313,0.1678 -0.0326,0.1692 -0.0336,0.1705 -0.0345,0.1714 -0.0353,0.1719 -0.036,0.1723 -0.0365,0.1722 -0.0368,0.172 -0.0371,0.1715 -0.0372,0.1705 -0.0371,0.1695 -0.037,0.1679 -0.0366,0.1662 -0.0362,0.1643 -0.0356,0.1619 -0.0349,0.1594 -0.034,0.1564 -0.033,0.1533 -0.0319,0.1498 -0.0305,0.146 -0.0292,0.142 -0.0276,0.1377 -0.0259,0.1331 -0.024,0.128 -0.0221,0.1229 -0.02,0.1174 -0.0178,0.1116 -0.0153,0.1055 -0.0129,0.099 -0.0101,0.0925 -0.0074,0.0855 -0.0044,0.0783 -0.0014,0.0706 0.0018,0.063 0.0052,0.0548 0.0087,0.0464 0.0123,0.0376 0.0161,0.0287 0.02,0.0194 0.0291,0.012 0.0376,0.003 0.0459,-0.0052 0.0538,-0.0136 0.0616,-0.0215 0.0689,-0.0288 0.076,-0.0361 0.0828,-0.043 0.0894,-0.0496 0.0956,-0.0557 0.1015,-0.0617 0.1072,-0.0672 0.1126,-0.0724 0.1177,-0.0774 0.1225,-0.082 0.1269,-0.0862 0.1312,-0.0902 0.1352,-0.0938 0.1388,-0.0971 0.1421,-0.1 0.1452,-0.1027 0.1479,-0.105 0.1505,-0.107 0.1527,-0.1087 0.1546,-0.11 0.1562,-0.111 0.1575,-0.1117 0.1587,-0.1121 0.1593,-0.112 0.1599,-0.1119 0.1599,-0.1111 0.16,-0.1103 0.1595,-0.1089 0.1589,-0.1074 0.1579,-0.1055 0.1567,-0.1032 0.155,-0.1006 0.1533,-0.0976 0.1511,-0.0947 0.1488,-0.0909 0.146,-0.087 0.1431,-0.0829 0.1398,-0.0785 0.1362,-0.0734 0.1323,-0.0683 0.1283,-0.0629 0.1237,-0.0569 0.1191,-0.0509 0.1141,-0.0443 0.1088,-0.0376 0.1033,-0.0305 0.0973,-0.023 0.0912,-0.0152 0.0848,-0.0071 0.078,0.0015 0.0711,0.01 0.0637,0.0192 0.0544,0.027 0.0535,0.0367 0.0525,0.0462 0.0514,0.0553 0.0505,0.0641 0.0494,0.0726 0.0485,0.0805 0.0476,0.0885 0.0465,0.0958 0.0458,0.103 0.0448,0.1097 0.0439,0.1161 0.0431,0.1223 0.0422,0.128 0.0415,0.1334 0.0407,0.1385 0.0397,0.1433 0.0392,0.1476 0.0383,0.1518 0.0376,0.1554 0.0368,0.159 0.0363,0.162 0.0355,0.1647 0.0349,0.1671 0.0341,0.1692 0.0335,0.1709 0.0331,0.1724 0.0323,0.1733 0.0318,0.1741 0.0314,0.1745 0.0307,0.1745 0.0302,0.1742 0.0296,0.1737 0.0293,0.1727 0.0288,0.1714 0.0282,0.1697 0.0279,0.1678 0.0275,0.1655 0.027,0.1628 0.0267,0.1599 0.0264,0.1567 0.026,0.1528 0.0257,0.149 0.0253,0.1447 0.0251,0.14 0.0247,0.135 0.0246,0.1297 0.0243,0.124 0.0241,0.1182 0.024,0.1117 0.0236,0.105 0.0236,0.0981 0.0234,0.0907 0.0233,0.0831 0.0231,0.075 0.0231,0.0667 0.023,0.058 0.0229,0.0491 0.0229,0.0397 0.0229,0.03 0.0229,0.0199 0.0229,0.0097 0.0261,-0.0026 0.0313,-0.0161 0.0365,-0.0293 0.0415,-0.0417 0.0461,-0.0539 0.0508,-0.0651 0.0551,-0.0761 0.0595,-0.0865 0.0634,-0.0963 0.0673,-0.1056 0.0711,-0.1142 0.0745,-0.1225 0.078,-0.1303 0.081,-0.1372 0.0842,-0.1439 0.087,-0.1498 0.0896,-0.1555 0.0921,-0.1603 0.0944,-0.1648 0.0966,-0.1685 0.0985,-0.172 0.1002,-0.1748 0.102,-0.177 0.1033,-0.1787 0.1047,-0.1798 0.1056,-0.1805 0.1066,-0.1806 0.1073,-0.18 0.1079,-0.1792 0.1083,-0.1776 0.1084,-0.1755 0.1086,-0.1729 0.1083,-0.1697 0.1081,-0.166 0.1076,-0.1618 0.1069,-0.1569 0.1061,-0.1518 0.105,-0.1458 0.1038,-0.1394 0.1026,-0.1324 0.1008,-0.125 0.0993,-0.1169 0.0974,-0.1085 0.0953,-0.0992 0.093,-0.0896 0.0907,-0.0793 0.088,-0.0687 0.0853,-0.0574 0.0822,-0.0457 0.0794,-0.0331 0.0758,-0.0205 0.0725,-0.0068 0.0728,0.0068 0.0769,0.0202 0.081,0.0329 0.0846,0.0452 0.0883,0.0569 0.0916,0.0681 0.0948,0.0787 0.0978,0.0889 0.1005,0.0982 0.1031,0.1074 0.1056,0.1159 0.1077,0.1237 0.1098,0.1313 0.1115,0.138 0.1132,0.1445 0.1146,0.1501 0.1157,0.1555 0.1168,0.1601 0.1176,0.1644 0.1183,0.1679 0.1187,0.1711 0.119,0.1736 0.119,0.1756 0.1188,0.1771 0.1185,0.1781 0.118,0.1785 0.1171,0.1784 0.1163,0.1776 0.1152,0.1766 0.1138,0.1747 0.1124,0.1725 0.1106,0.1696 0.1087,0.1663 0.1065,0.1624 0.1043,0.1579 0.1018,0.153 0.099,0.1475 0.0962,0.1415 0.0932,0.1347 0.0898,0.1278 0.0865,0.12 0.0826,0.1118 0.0788,0.1032 0.0748,0.0938 0.0705,0.0841 0.0661,0.0735 0.0613,0.0628 0.0567,0.0514 0.0514,0.0393 0.0464,0.027 0.0407,0.0138 0.0353,2e-4 0.0252,-0.0104 0.025,-0.0204 0.0247,-0.0301 0.0247,-0.0397 0.0245,-0.0487 0.0244,-0.0574 0.0242,-0.066 0.0242,-0.074 0.0241,-0.0819 0.0242,-0.0895 0.0241,-0.0966 0.0241,-0.1034 0.0241,-0.11 0.0241,-0.1162 0.0242,-0.122 0.0244,-0.1277 0.0245,-0.1329 0.0246,-0.138 0.0248,-0.1423 0.0249,-0.1468 0.0252,-0.1508 0.0253,-0.1543 0.0256,-0.1577 0.026,-0.1608 0.026,-0.1634 0.0266,-0.1657 0.0268,-0.1678 0.0272,-0.1696 0.0274,-0.1709 0.028,-0.172 0.0283,-0.1728 0.0287,-0.1732 0.0293,-0.1735 0.0297,-0.1731 0.0303,-0.1727 0.0307,-0.1717 0.0313,-0.1706 0.0319,-0.1693 0.0324,-0.1673 0.033,-0.1653 0.0337,-0.1628 0.0344,-0.1599 0.035,-0.1569 0.0357,-0.1537 0.0364,-0.1498 0.0372,-0.1458 0.038,-0.1413 0.0386,-0.1367 0.0396,-0.1317 0.0402,-0.1264 0.0413,-0.1207 0.042,-0.1148 0.0429,-0.1084 0.0438,-0.1018 0.0448,-0.0949 0.0458,-0.0876 0.0467,-0.0801 0.0477,-0.0722 0.0487,-0.064 0.0498,-0.0553 0.0508,-0.0467 0.0519,-0.0373 0.053,-0.0279 0.0642,-0.0212 0.0716,-0.0117 0.0787,-0.0029 0.0856,0.006 0.0922,0.0145 0.0985,0.0224 0.1045,0.0301 0.1101,0.0374 0.1156,0.0445 0.1205,0.0511 0.1252,0.0576 0.1298,0.0635 0.1339,0.0691 0.1377,0.0745 0.1412,0.0794 0.1446,0.0841 0.1474,0.0884 0.15,0.0924 0.1524,0.0959 0.1545,0.0993 0.156,0.1021 0.1576,0.1048 0.1586,0.1071 0.1595,0.1089 0.16,0.1105 0.1601,0.1118 0.1601,0.1126 0.1596,0.1132 0.1588,0.1135 0.1579,0.1133 0.1566,0.1129 0.1549,0.112 0.1532,0.1109 0.1506,0.1094 0.1484,0.1077 0.1454,0.1054 0.1422,0.1029 0.139,0.1001 0.135,0.097 0.1311,0.0934 0.1266,0.0894 0.122,0.0854 0.1171,0.0807 0.1117,0.0759 0.1063,0.0708 0.1002,0.0651 0.0943,0.0591 0.0876,0.053 0.0809,0.0464 0.0738,0.0395 0.0664,0.0322 0.0587,0.0246 0.0507,0.0167 0.0425,0.0083 0.0337,-2e-4 0.0249,-0.0092 0.0152,-0.0164 0.0111,-0.0256 0.0074,-0.0344 0.0035,-0.0431 -1e-4,-0.0514 -0.0034,-0.0594 -0.0069,-0.067 -0.01,-0.0747 -0.013,-0.0816 -0.0158,-0.0888 -0.0186,-0.0952 -0.0212,-0.1016 -0.0236,-0.1076 -0.026,-0.1133 -0.028,-0.1188 -0.03,-0.124 -0.0319,-0.1288 -0.0337,-0.1335 -0.0352,-0.1378 -0.0366,-0.1418 -0.038,-0.1456 -0.039,-0.1489 -0.04,-0.1523 -0.0409,-0.1551 -0.0416,-0.1578 -0.0423,-0.1599 -0.0426,-0.1621 -0.0428,-0.1638 -0.043,-0.1653 -0.0429,-0.1665 -0.0429,-0.1673 -0.0424,-0.1679 -0.0421,-0.1683 -0.0414,-0.1683 -0.0408,-0.1682 -0.0398,-0.1676 -0.0388,-0.1667 -0.0377,-0.1656 -0.0362,-0.1643 -0.0349,-0.1625 -0.0333,-0.1606 -0.0314,-0.1584 -0.0296,-0.1558 -0.0276,-0.1531 -0.0253,-0.15 -0.023,-0.1465 -0.0206,-0.1428 -0.018,-0.1389 -0.0152,-0.1347 -0.0122,-0.1302 -0.0093,-0.1253 -0.006,-0.1202 -0.0027,-0.115 7e-4,-0.1092 0.0044,-0.1031 0.0082,-0.0971 0.0122,-0.0905 0.0161,-0.0837 0.0205,-0.0765 0.0247,-0.0693 0.0292,-0.0615 0.0338,-0.0535 0.0387,-0.0454 0.0455,-0.0389 0.054,-0.0346 0.0622,-0.0301 0.0701,-0.026 0.0778,-0.0221 0.085,-0.0181 0.0922,-0.0144 0.0989,-0.0108 0.1053,-0.0074 0.1115,-0.0039 0.1173,-7e-4 0.1229,0.0022 0.1283,0.0053 0.1332,0.008 0.1379,0.0107 0.1424,0.0132 0.1465,0.0156 0.1503,0.0178 0.1537,0.02 0.1572,0.0219 0.16,0.0239 0.1626,0.0254 0.1652,0.0271 0.167,0.0285 0.1689,0.0297 0.1704,0.031 0.1716,0.0321 0.1725,0.0328 0.1732,0.0336 0.1734,0.0343 0.1735,0.0348 0.1732,0.0351 0.1727,0.0352 0.1717,0.0354 0.1707,0.0354 0.1693,0.0351 0.1675,0.0348 0.1656,0.0344 0.1631,0.0336 0.1606,0.0331 0.1578,0.032 0.1545,0.0313 0.151,0.0298 0.1474,0.0288 0.1432,0.0273 0.1389,0.0257 0.1343,0.024 0.1292,0.0221 0.1241,0.0204 0.1187,0.0181 0.1127,0.0159 0.1066,0.0134 0.1004,0.0111 0.0935,0.0084 0.0866,0.0056 0.0793,0.0027 0.0718,-3e-4 0.0639,-0.0036 0.0558,-0.0068 0.0474,-0.0103 0.0385,-0.0139 0.0295,-0.0176 0.0203,-0.0215 0.0109,-0.0282 0.0017,-0.0368 -0.0071,-0.0454 -0.0155,-0.0536 -0.0236,-0.0615 -0.0315,-0.069 -0.0389,-0.0764 -0.046,-0.0833 -0.0528,-0.09 -0.0592,-0.0965 -0.0653,-0.1024 -0.0708,-0.1083 -0.0764,-0.1137 -0.0813,-0.119 -0.086,-0.1238 -0.0904,-0.1284 -0.0943,-0.1326 -0.098,-0.1368 -0.1012,-0.1402 -0.1043,-0.1437 -0.1068,-0.1469 -0.1091,-0.1495 -0.111,-0.152 L 42.7711,34.755 42.6573,34.5989 42.5426,34.4413 42.4274,34.2824 42.312,34.1224 42.1968,33.962 42.082,33.801 41.9681,33.64 41.8554,33.4793 41.7442,33.3191 41.6348,33.1598 41.5279,33.0015 41.4233,32.8447 41.3218,32.6896 41.2235,32.5366 41.1287,32.3859 41.038,32.238 40.9515,32.0928 40.8697,31.9511 40.7929,31.8127 40.7214,31.6782 40.6556,31.548 40.5958,31.4222 40.5424,31.301 l -0.0466,-0.1161 -0.0397,-0.1106 -0.0322,-0.1051 -0.0244,-0.0991 -0.0164,-0.0929 -0.008,-0.0863 9e-4,-0.0794 0.01,-0.0722 0.0195,-0.0649 0.0269,-0.0545 0.0366,-0.0531 0.046,-0.052 0.0552,-0.0507 0.0639,-0.0495 0.0722,-0.0485 0.0804,-0.0473 0.0882,-0.0462 0.0954,-0.0451 0.1026,-0.044 0.1093,-0.043 0.1158,-0.042 0.1217,-0.041 0.1275,-0.04 0.1329,-0.039 0.138,-0.0382 0.1427,-0.0372 0.1471,-0.0364 0.1512,-0.0355 0.1548,-0.0346 0.1583,-0.0338 0.1613,-0.0331 0.164,-0.0323 0.1665,-0.0314 0.1684,-0.0309 0.1703,-0.03 0.1716,-0.0295 0.1726,-0.0286 0.1733,-0.0282 0.1737,-0.0275 0.1738,-0.0268 0.1734,-0.0264 0.1728,-0.0257 0.1719,-0.0254 0.1706,-0.0247 0.1689,-0.0242 0.167,-0.0239 0.1647,-0.0234 0.1621,-0.023 0.1591,-0.0225 0.1557,-0.0223 0.1521,-0.0219 0.1483,-0.0216 0.1438,-0.0213 0.1393,-0.0209 0.1343,-0.0207 0.1288,-0.0205 0.1233,-0.0202 0.1174,-0.0202 0.111,-0.02 0.1043,-0.0197 0.0974,-0.0197 0.09,-0.0196 0.0825,-0.0194 0.0743,-0.0195 0.0661,-0.0195 0.0575,-0.0193 0.0483,-0.0195 0.0392,-0.0194 0.0294,-0.0196 0.0195,-0.0196 0.0091,-0.0197 -0.0017,-0.0297 -0.0153,-0.0353 -0.0283,-0.0404 -0.0408,-0.0455 -0.0528,-0.0503 -0.0643,-0.0551 -0.0751,-0.0595 -0.0856,-0.0639 -0.0953,-0.068 -0.1045,-0.072 -0.1134,-0.0756 -0.1215,-0.0794 -0.1292,-0.0827 -0.1363,-0.0859 -0.1429,-0.089 -0.1489,-0.0918 -0.1545,-0.0945 -0.1593,-0.0971 -0.1638,-0.0992 -0.1677,-0.1015 -0.1711,-0.1033 -0.1738,-0.1052 -0.176,-0.1066 -0.1779,-0.108 -0.1789,-0.1093 -0.1797,-0.1103 -0.1797,-0.1112 -0.1793,-0.1117 -0.1784,-0.1124 -0.1767,-0.1125 -0.1748,-0.1127 -0.1721,-0.1126 -0.169,-0.1122 -0.1654,-0.1119 -0.1611,-0.1113 -0.1563,-0.1105 -0.1511,-0.1094 -0.1452,-0.1084 -0.1389,-0.1068 -0.132,-0.1054 -0.1244,-0.1037 -0.1164,-0.1017 -0.108,-0.0996 -0.0989,-0.0975 -0.0894,-0.0948 -0.079,-0.0923 -0.0684,-0.0895 -0.0573,-0.0864 -0.0454,-0.0833 -0.0331,-0.0798 -0.0203,-0.0764 -0.0069,-0.0726 0.0069,-0.0727 0.0202,-0.0769 0.0329,-0.0806 0.0453,-0.0845 0.0569,-0.0879 0.0681,-0.0913 0.0788,-0.0944 0.0889,-0.0971 0.0984,-0.1002 0.1074,-0.1024 0.1161,-0.1049 0.1238,-0.1071 0.1314,-0.1091 0.1382,-0.1107 0.1444,-0.1124 0.1503,-0.1137 0.1557,-0.115 0.1602,-0.1159 0.1645,-0.1166 0.1682,-0.1173 0.1712,-0.1177 0.1738,-0.1179 0.1758,-0.118 0.1774,-0.1177 0.1783,-0.1174 0.1787,-0.1169 0.1785,-0.1162 0.1779,-0.115 0.1768,-0.1141 0.1749,-0.1126 0.1727,-0.1113 0.1699,-0.1094 0.1666,-0.1075 0.1626,-0.1053 0.1583,-0.1031 0.1533,-0.1006 0.1477,-0.0979 0.1417,-0.0951 0.1352,-0.092 0.1279,-0.0887 0.1204,-0.0852 0.1121,-0.0815 0.1035,-0.0777 0.0941,-0.0737 0.0844,-0.0696 0.074,-0.0649 0.0631,-0.0604 0.0517,-0.0556 0.0398,-0.0505 0.0271,-0.0453 0.0142,-0.0399 6e-4,-0.0344 -0.0105,-0.0261 -0.0205,-0.0258 -0.0304,-0.0256 -0.0398,-0.0256 -0.0488,-0.0253 -0.0577,-0.0253 -0.0661,-0.0251 -0.0743,-0.0252 -0.0821,-0.0251 -0.0896,-0.025 -0.0968,-0.0251 -0.1037,-0.0251 -0.1101,-0.0251 -0.1166,-0.0252 -0.1222,-0.0252 -0.128,-0.0253 -0.1331,-0.0255 -0.1381,-0.0256 -0.1427,-0.0258 -0.147,-0.026 -0.1509,-0.026 -0.1547,-0.0265 -0.1579,-0.0265 -0.161,-0.027 -0.1636,-0.0271 -0.1661,-0.0274 -0.1681,-0.0278 -0.1698,-0.0282 -0.1712,-0.0284 -0.1723,-0.0289 -0.173,-0.0292 L 44.0642,18.1509 43.8907,18.1208 43.7172,18.0902 43.5444,18.059 43.3723,18.0274 43.2014,17.9954 43.032,17.9626 42.8645,17.9294 42.699,17.8955 42.5361,17.8611 42.3757,17.826 42.2187,17.7902 42.065,17.7539 41.9149,17.7167 41.769,17.679 41.6274,17.6404 41.4905,17.6011 41.3587,17.561 l -0.1265,-0.0409 -0.1209,-0.0416 -0.1149,-0.0426 -0.1086,-0.0433 -0.1019,-0.0444 -0.095,-0.045 -0.0878,-0.0461 -0.0801,-0.047 -0.0722,-0.048 -0.0641,-0.0489 -0.0554,-0.0499 -0.0466,-0.051 -0.0374,-0.0521 -0.0279,-0.053 -0.0214,-0.0652 -0.0115,-0.073 -0.0021,-0.08 0.0071,-0.0872 0.0158,-0.0937 0.0241,-0.1 0.0323,-0.1061 0.0399,-0.1118 0.0473,-0.1171 0.0542,-0.1222 0.0607,-0.1269 0.067,-0.1313 0.0728,-0.1355 0.0784,-0.1393 0.0835,-0.1427 0.0883,-0.1459 0.0926,-0.1489 0.0968,-0.1513 0.1004,-0.1535 0.1038,-0.1554 0.1067,-0.157 0.1093,-0.1583 0.1117,-0.1593 0.1134,-0.1598 0.1151,-0.1602 0.1162,-0.1603 0.1168,-0.1599 0.1174,-0.1593 0.1175,-0.1584 0.1172,-0.157 0.1165,-0.1556 0.1155,-0.1536 0.1142,-0.1514 0.1124,-0.1489 0.1103,-0.1461 0.1078,-0.1429 0.105,-0.1395 0.1019,-0.1357 0.0983,-0.1315 0.0945,-0.1272 0.09,-0.1225 0.0855,-0.1174 0.0805,-0.112 0.0752,-0.1064 0.0694,-0.1004 0.0634,-0.094 0.0569,-0.0875 0.0501,-0.0805 0.0429,-0.0732 0.0355,-0.0657 0.0275,-0.0578 0.0193,-0.0496 0.0106,-0.0411 0.0017,-0.0323 -0.0076,-0.0231 -0.0177,-0.0172 -0.0269,-0.0133 -0.0358,-0.0095 -0.0445,-0.0058 -0.0529,-0.0023 -0.0608,0.0012 -0.0688,0.0044 -0.0762,0.0075 -0.0833,0.0106 -0.0903,0.0133 -0.097,0.0161 -0.1033,0.0186 -0.1093,0.021 -0.1152,0.0233 -0.1205,0.0254 -0.1257,0.0274 -0.1308,0.0293 -0.1352,0.031 -0.1397,0.0325 -0.1437,0.0339 -0.1473,0.0353 -0.151,0.0363 -0.1539,0.0374 -0.1571,0.0382 -0.1595,0.039 -0.1619,0.0395 -0.1639,0.04 -0.1656,0.0402 -0.1671,0.0404 -0.1683,0.0404 -0.1691,0.0403 -0.1698,0.04 -0.17,0.0395 -0.17,0.0391 -0.1698,0.0383 -0.1693,0.0374 -0.1683,0.0365 -0.1672,0.0354 -0.1658,0.0341 -0.1642,0.0327 -0.162,0.0312 -0.1599,0.0294 -0.1573,0.0276 -0.1543,0.0257 -0.1513,0.0235 -0.1477,0.0213 -0.1441,0.0189 -0.1401,0.0164 -0.1358,0.0136 -0.1312,0.0109 -0.1263,0.0079 -0.1212,0.0047 -0.1157,0.0016 -0.1099,-0.0019 -0.104,-0.0054 -0.0976,-0.009 -0.091,-0.0129 -0.0842,-0.0168 -0.0769,-0.0209 -0.0695,-0.0252 -0.0619,-0.0295 -0.0537,-0.0341 -0.0454,-0.0387 -0.0387,-0.0454 -0.034,-0.0537 -0.0296,-0.0617 -0.0251,-0.0694 -0.0211,-0.0769 -0.0169,-0.084 -0.0128,-0.0909 -0.0092,-0.0974 -0.0055,-0.1038 -0.0021,-0.1098 0.0014,-0.1155 0.0045,-0.121 0.0076,-0.1261 0.0104,-0.1311 0.0133,-0.13562 0.0158,-0.13996 0.0184,-0.14399 0.0207,-0.14774 0.0227,-0.15121 0.0249,-0.15441 0.0268,-0.1573 0.0285,-0.15991 0.0301,-0.16226 0.0315,-0.16429 0.0329,-0.16608 0.034,-0.16755 0.035,-0.16875 0.0359,-0.16967 0.0366,-0.1703 L 36.7435,7.5641 36.7811,7.39339 36.819,7.22289 36.857,7.05288 36.895,6.88367 36.9329,6.71552 36.9704,6.54872 37.0076,6.38356 37.0441,6.22032 37.08,6.05928 37.1149,5.90072 37.1486,5.74493 37.1814,5.5922 37.2128,5.4428 37.2426,5.29702 37.271,5.15513 37.2975,5.01745 37.3222,4.88423 37.3447,4.75575 37.3652,4.63233 37.3832,4.51422 37.3987,4.40171 37.4117,4.29509 37.4217,4.19465 37.4289,4.10066 37.4331,4.0134 37.4341,3.93316 37.4316,3.86024 37.4256,3.7949 37.4161,3.73744 37.4026,3.68812 37.3852,3.64725 37.3638,3.6151 37.3381,3.59195 37.3036,3.57632 37.2609,3.56972 37.2103,3.57185 37.1522,3.58235 37.0868,3.60091 37.0144,3.62718 36.9353,3.66084 36.8496,3.70156 36.7578,3.749 36.66,3.80285 36.5567,3.86275 36.448,3.92838 36.3342,3.99942 36.2156,4.07553 36.0925,4.15637 35.965,4.24163 35.8337,4.33096 35.6986,4.42404 35.5601,4.52053 35.4185,4.62011 35.274,4.72244 35.1268,4.82719 34.9774,4.93403 34.826,5.04262 34.6727,5.15265 34.5181,5.26378 34.3622,5.37567 34.2053,5.48799 34.0479,5.60042 33.89,5.71263 33.732,5.82427 33.5742,5.93502 33.4168,6.04455 33.2602,6.15252 33.1045,6.25862 32.9502,6.3625 32.7974,6.46383 32.6465,6.5623 32.4977,6.65756 32.3512,6.74926 32.2074,6.8371 32.0666,6.92075 31.9289,6.99986 31.7947,7.07411 31.6644,7.14315 31.5381,7.20668 31.416,7.26435 31.2987,7.31584 31.1862,7.36079 31.0788,7.39891 30.9769,7.42984 30.8807,7.45325 30.7903,7.46884 30.7064,7.47624 30.6289,7.47513 30.5583,7.46519 30.4947,7.44608 30.4403,7.41915 30.387,7.38248 30.335,7.33639 30.2842,7.28123 30.2346,7.21732 30.186,7.145 30.1387,7.06462 30.0924,6.97649 30.0472,6.88096 30.0031,6.77835 29.96,6.66901 29.9179,6.55328 29.8767,6.43147 29.8367,6.30394 29.7974,6.171 29.7592,6.03301 29.7219,5.89029 29.6854,5.74318 29.6498,5.592 29.6149,5.43711 29.581,5.27882 29.5478,5.11747 29.5154,4.95341 29.4837,4.78697 29.4529,4.61847 29.4225,4.44825 29.393,4.27666 29.3641,4.10401 29.3359,3.93066 29.3082,3.75692 29.2811,3.58314 29.2547,3.40965 29.2288,3.23679 29.2033,3.06488 29.1783,2.89428 29.154,2.72531 29.13,2.55829 29.1065,2.39358 29.0833,2.2315 29.0606,2.07239 29.0382,1.91658 29.0161,1.76441 28.9945,1.61621 28.9731,1.4723 28.952,1.33305 28.9312,1.19877 28.9105,1.0698 28.8902,0.94648 28.87,0.829135 28.8499,0.718104 28.83,0.613721 28.8103,0.516321 28.7906,0.42624 28.771,0.343809 28.7515,0.269367 28.7321,0.203245 28.7126,0.145778 28.6931,0.0973036 28.6735,0.0581536 28.6541,0.0286631 28.6344,0.00916712 28.6147,0 28.5851,0.00168913 28.5499,0.0169748 28.5097,0.0453174 28.4642,0.0861769 28.4141,0.139013 28.3591,0.203288 28.2997,0.27846 28.236,0.363989 28.1682,0.459337 28.0963,0.563963 28.0208,0.677327 27.9416,0.79889 27.8591,0.928111 27.7733,1.06445 27.6846,1.20737 27.5929,1.35633 27.4985,1.5108 27.4017,1.67021 27.3027,1.83405 27.2013,2.00177 27.0981,2.17283 26.9932,2.34669 26.8868,2.52281 26.7789,2.70066 26.6697,2.87968 26.5596,3.05934 26.4487,3.23911 26.3371,3.41844 26.2249,3.59679 26.1126,3.77363 26.0001,3.9484 25.8876,4.12057 25.7755,4.28962 25.6637,4.45498 25.5526,4.61613 25.4423,4.77252 25.333,4.92361 l -0.1082,0.14527 -0.1069,0.13889 -0.1052,0.13195 -0.1036,0.12452 -0.1016,0.11651 -0.0996,0.108 -0.0973,0.0989 -0.0947,0.08929 -0.0923,0.07914 -0.0894,0.06845 -0.0864,0.05721 -0.0832,0.04543 -0.08,0.03312 L 24.0084,6.18056 23.9358,6.18744 23.8631,6.18058 23.7866,6.16033 23.7064,6.12726 23.6228,6.08188 23.5358,6.02476 23.4457,5.95641 23.3528,5.87739 23.2571,5.78822 23.1588,5.68946 23.0582,5.58165 22.9554,5.46529 22.8506,5.34097 22.7441,5.20921 22.6359,5.07054 22.5263,4.92551 22.4154,4.77465 22.3035,4.61852 22.1908,4.45764 22.0773,4.29254 21.9633,4.12378 21.849,3.95189 21.7347,3.77742 21.6204,3.6009 21.5063,3.42285 21.3927,3.24386 21.2797,3.06442 21.1675,2.88509 21.0563,2.70641 20.9463,2.52892 20.8376,2.35315 20.7306,2.17965 20.6253,2.00896 20.5218,1.84161 20.4206,1.67814 20.3216,1.51909 20.2251,1.365 20.1314,1.21643 20.0404,1.07388 19.9524,0.937923 19.8678,0.80908 19.7866,0.687895 19.709,0.574908 19.6352,0.470659 19.5653,0.375685 19.4995,0.290527 19.4382,0.215725 19.3814,0.151816 19.3294,0.0993419 19.2823,0.0588403 19.2403,0.0308507 19.2035,0.0159127 19.1722,0.0145656 19.1436,0.0254222 19.1152,0.0463769 19.0867,0.0771076 19.0584,0.117292 19.0301,0.166608 19.002,0.224735 18.9737,0.291349 18.9456,0.366129 18.9174,0.448753 18.8891,0.538899 18.8609,0.636244 18.8326,0.740467 18.8042,0.851247 18.7758,0.968259 18.7472,1.09118 18.7185,1.2197 18.6896,1.35347 18.6606,1.4922 18.6315,1.63556 18.6021,1.78321 18.5726,1.93484 18.5427,2.09013 18.5128,2.24876 18.4825,2.41039 18.4519,2.57472 18.4211,2.74142 18.39,2.91017 18.3585,3.08064 18.3267,3.25251 18.2946,3.42547 18.2621,3.59918 18.2292,3.77333 18.1959,3.94761 18.1621,4.12167 18.1279,4.2952 18.0933,4.46788 18.0583,4.63939 18.0227,4.8094 17.9866,4.9776 17.95,5.14366 17.9129,5.30726 17.8752,5.46807 17.8369,5.62579 17.7981,5.78007 17.7586,5.9306 17.7185,6.07706 17.6779,6.21913 17.6365,6.35649 17.5945,6.4888 17.5518,6.61576 17.5083,6.73704 17.4642,6.85231 17.4194,6.96126 17.3737,7.06356 17.3273,7.15889 17.2802,7.24694 17.2322,7.32735 17.1834,7.39985 17.1338,7.46409 17.0832,7.51974 17.032,7.5665 16.9797,7.60403 16.9266,7.63201 16.8613,7.65335 16.7884,7.66491 16.7081,7.66703 16.6207,7.66009 16.5267,7.64443 16.4263,7.62042 16.3198,7.58843 16.2076,7.54881 16.09,7.50192 15.9671,7.44813 15.8395,7.38778 15.7075,7.32126 15.5712,7.24891 15.4311,7.17109 15.2875,7.08816 15.1406,7.0005 14.9909,6.90844 14.8386,6.81236 14.684,6.71261 14.5275,6.60958 14.3694,6.50358 14.2099,6.39501 14.0496,6.28421 13.8885,6.17157 13.727,6.0574 13.5655,5.9421 13.4044,5.82603 13.2438,5.70953 13.0841,5.59297 12.9257,5.47671 12.7688,5.36111 12.6138,5.24654 12.4609,5.13335 12.3106,5.02189 12.1632,4.91254 12.0189,4.80564 11.878,4.70158 11.741,4.6007 11.608,4.50335 11.4794,4.40993 11.3556,4.32076 11.2368,4.2362 11.1234,4.15664 11.0157,4.08243 10.914,4.01392 10.8186,3.95148 10.7299,3.89547 10.6481,3.84624 10.5736,3.80416 10.5067,3.76958 10.4477,3.74287 10.397,3.7244 10.3548,3.71451 10.3214,3.71357 10.2973,3.72194 10.281,3.73909 l -0.0124,0.02635 -0.0084,0.03525 -0.0048,0.04387 -0.0012,0.05222 0.0022,0.06024 0.0056,0.06802 0.0086,0.07549 0.0117,0.08267 0.0145,0.08959 0.0172,0.09618 0.0198,0.10252 0.0222,0.10857 0.0245,0.11431 0.0266,0.11979 0.0286,0.12497 0.0305,0.12987 0.0322,0.13447 0.0337,0.1388 0.0352,0.14283 0.0365,0.14659 0.0376,0.15005 0.0386,0.15322 0.0394,0.15612 0.0402,0.15871 0.0407,0.16104 0.0412,0.16307 0.0414,0.16482 0.0416,0.16627 0.0415,0.16744 0.0414,0.16833 0.0412,0.16893 0.0407,0.16923 0.0401,0.16927 0.0394,0.16901 0.0385,0.16846 0.0376,0.16763 0.0364,0.1665 0.0351,0.1651 0.0336,0.16341 0.0321,0.16142 0.0304,0.15915 0.0285,0.15661 0.0265,0.15377 0.0243,0.15065 0.0221,0.14724 0.0196,0.14353 0.0171,0.13954 0.0143,0.13529 0.0115,0.1307 0.0085,0.1259 0.0053,0.1207 0.002,0.1154 -0.0014,0.1096 -0.005,0.1036 -0.0087,0.0974 -0.0125,0.0908 -0.0166,0.0839 -0.0207,0.0768 -0.025,0.0694 -0.0295,0.0617 -0.034,0.0537 -0.0387,0.0454 -0.0455,0.0389 -0.054,0.0345 -0.0623,0.0303 -0.0701,0.0261 -0.0778,0.0221 -0.0852,0.0182 -0.0922,0.0145 -0.0989,0.011 -0.1054,0.0074 -0.1117,0.0042 -0.1174,9e-4 -0.1231,-0.002 -0.1284,-0.005 L 10.0947,11.5738 9.95665,11.5633 9.81414,11.5504 9.66751,11.5351 9.51703,11.5175 9.36301,11.4979 9.20574,11.4763 9.04551,11.4528 8.88262,11.4276 8.71734,11.4009 8.54999,11.3728 8.38085,11.3434 8.21021,11.3128 8.03838,11.2812 7.86562,11.2487 7.69225,11.2154 7.51855,11.1816 7.34482,11.1472 7.17134,11.1125 6.99842,11.0777 6.82633,11.0427 6.65538,11.0078 6.48585,10.9731 6.31806,10.9387 6.15226,10.9048 5.98877,10.8715 5.82789,10.839 5.66989,10.8073 5.51507,10.7766 5.36373,10.7471 5.21615,10.7189 5.07264,10.692 4.93347,10.6668 4.79894,10.6432 4.66935,10.6214 4.54499,10.6016 4.42616,10.5839 4.31312,10.5684 4.2062,10.5552 4.10568,10.5446 4.01184,10.5366 3.925,10.5314 3.84543,10.5291 l -0.07201,7e-4 -0.06415,0.0039 -0.05598,0.0072 -0.04756,0.0107 -0.03881,0.0142 -0.02978,0.018 -0.02047,0.0218 -0.01067,0.0277 -0.00149,0.0366 0.00734,0.045 0.01582,0.0531 0.02395,0.0611 0.03174,0.0686 0.03919,0.0759 0.04629,0.0829 0.05305,0.0895 0.05945,0.096 0.06552,0.102 0.07123,0.1077 0.07661,0.1133 0.08162,0.1184 0.08631,0.1233 0.09065,0.1279 0.09464,0.1322 0.09827,0.1361 0.10157,0.1398 0.10453,0.1432 0.10712,0.1463 0.1094,0.1489 0.1113,0.1516 0.11288,0.1536 0.1141,0.1555 0.11498,0.1572 0.11551,0.1584 0.1157,0.1594 0.11553,0.1601 0.11503,0.1603 0.11418,0.1606 0.11298,0.1602 0.11145,0.1597 0.10955,0.1589 0.10732,0.1579 0.10473,0.1563 0.10183,0.1546 0.09854,0.1526 0.09494,0.1503 0.09096,0.1477 0.08666,0.1448 0.08201,0.1415 0.077,0.1379 0.07167,0.1342 0.06597,0.1299 0.05994,0.1257 0.05356,0.1209 0.04682,0.1157 0.03977,0.1106 0.03234,0.1049 0.02456,0.099 0.01647,0.0926 0.00801,0.0863 -7.9e-4,0.0794 -0.00994,0.0722 -0.01944,0.0648 -0.02694,0.0545 -0.03671,0.0534 -0.04613,0.0524 -0.05524,0.0511 -0.064,0.0501 -0.07243,0.0491 -0.08052,0.048 -0.08828,0.047 -0.09569,0.046 -0.10278,0.045 -0.10953,0.0441 -0.11597,0.0432 -0.12203,0.0422 -0.12777,0.0413 -0.1332,0.0405 -0.13826,0.0395 -0.143,0.0388 -0.14741,0.038 L 5.60756,18.2178 5.45234,18.2541 5.29373,18.2897 5.13205,18.3246 4.96764,18.3588 4.80085,18.3922 4.63198,18.425 4.46139,18.4572 4.28942,18.4886 4.1164,18.5195 3.94265,18.5497 3.76852,18.5795 3.59435,18.6086 3.42047,18.6371 3.2472,18.6651 3.0749,18.6927 2.90388,18.7199 2.73449,18.7464 2.56707,18.7726 2.40195,18.7983 2.23945,18.8237 2.07993,18.8486 1.92372,18.8732 1.77114,18.8975 1.62253,18.9214 1.47825,18.9451 1.33859,18.9683 1.20393,18.9915 1.07457,19.0142 0.950867,19.0369 0.833149,19.0593 0.721751,19.0814 0.61701,19.1035 0.519259,19.1254 0.428835,19.1472 0.346071,19.1688 0.271306,19.1904 0.204871,19.2118 0.147103,19.2332 0.0983375,19.2546 0.0589092,19.276 0.0291534,19.2975 0.00940526,19.3189 0,19.3404 0.00219367,19.368 0.0179899,19.4009 0.046848,19.4391 0.0882279,19.4822 0.141589,19.53 l 0.064802,0.0525 0.075702,0.0569 0.086063,0.0614 0.095882,0.0652 0.10516,0.0693 0.1139,0.0729 0.122098,0.0767 0.129756,0.0799 0.136878,0.0831 0.14345,0.0862 0.14948,0.089 0.15498,0.0916 0.15994,0.0942 0.16436,0.0964 0.16823,0.0985 0.17157,0.1007 0.17436,0.1022 0.17661,0.1039 0.17832,0.1054 0.1795,0.1064 0.18014,0.1078 0.18022,0.1084 0.17977,0.1092 0.17879,0.1098 0.17724,0.11 0.1752,0.1103 0.17258,0.1102 0.16943,0.11 0.16572,0.1097 0.16151,0.1091 0.15673,0.1084 0.15143,0.1076 0.14557,0.1063 0.13917,0.1052 0.13224,0.1036 0.12477,0.1022 0.11676,0.1003 0.10819,0.0983 0.0991,0.0962 0.08948,0.0939 0.07929,0.0913 0.06858,0.0886 0.05732,0.0858 0.04552,0.0827 0.03318,0.0796 0.02031,0.076 0.00689,0.0726 -0.00684,0.0728 -0.02017,0.0769 -0.03295,0.0809 -0.04521,0.0847 -0.05691,0.0882 -0.06809,0.0916 -0.07872,0.0947 -0.08882,0.0977 -0.09838,0.1006 -0.10739,0.1031 -0.11589,0.1055 -0.12382,0.1076 -0.13124,0.1097 -0.13809,0.1115 -0.14443,0.1131 -0.15022,0.1144 -0.15547,0.1157 -0.16019,0.1167 -0.16437,0.1177 -0.16801,0.1181 -0.1711,0.1186 -0.17367,0.1188 -0.17569,0.119 -0.17718,0.1187 -0.17814,0.1184 -0.17853,0.1179 -0.17842,0.1171 -0.17774,0.1162 -0.17655,0.115 -0.1748,0.1137 -0.17252,0.1121 -0.16971,0.1106 -0.16634,0.1085 -0.16246,0.1065 -0.15802,0.1042 -0.15305,0.1017 -0.14754,0.0989 -0.1415,0.0961 -0.13491,0.093 -0.127788,0.0897 -0.120126,0.0862 -0.111927,0.0826 -0.103191,0.0787 -0.093914,0.0747 -0.084101,0.0704 -0.073748,0.0659 -0.06286,0.0612 -0.051431,0.0565 -0.039466,0.0514 -0.0269613,0.0461 -0.0139191,0.0408 -3.388e-4,0.0351 0.0104085,0.0254 0.0204737,0.0249 0.030219,0.025 0.039641,0.0247 0.048745,0.0246 0.057528,0.0245 0.065988,0.0244 0.074131,0.0242 0.081949,0.0242 0.089448,0.0243 0.096628,0.0242 0.103485,0.0241 0.110023,0.0242 0.116234,0.0244 0.12214,0.0244 0.12771,0.0243 0.13296,0.0246 0.13789,0.0247 0.14251,0.0249 0.14681,0.0251 0.15077,0.0252 0.15442,0.0255 0.15776,0.0257 0.16076,0.0259 0.16346,0.0263 0.16581,0.0266 0.16786,0.0268 0.1696,0.0273 0.17099,0.0276 0.17208,0.0281 0.17285,0.0284 0.17329,0.0289 0.1734,0.0292 0.17321,0.0299 0.1727,0.0303 0.17185,0.0309 0.17069,0.0313 0.16921,0.032 0.16741,0.0325 0.16529,0.0331 0.16284,0.0338 0.16008,0.0345 0.15699,0.035 0.15359,0.0358 0.14986,0.0365 0.14581,0.0372 0.14145,0.0381 0.13675,0.0388 0.13176,0.0395 0.12641,0.0404 0.12077,0.0413 0.11479,0.0421 0.10851,0.0431 0.10188,0.0439 0.09496,0.0448 0.0877,0.0458 0.08012,0.0467 0.07223,0.0479 0.06402,0.0487 0.05547,0.0498 0.04662,0.0509 0.03743,0.0519 0.02794,0.0532 0.02136,0.0652 0.01152,0.0728 0.00204,0.0801 -0.00708,0.087 -0.01584,0.0936 -0.02424,0.1 -0.03226,0.106 -0.03995,0.1117 -0.04725,0.117 -0.0542,0.1221 L 7.40453,32.0056 7.33751,32.137 7.26464,32.2724 7.18625,32.4115 7.10274,32.5542 7.01444,32.7 6.92172,32.8487 6.82496,32.9999 6.7245,33.1534 6.6207,33.3087 6.51394,33.4656 6.40458,33.6238 6.29296,33.783 l -0.1135,0.1597 -0.11502,0.1601 -0.11618,0.1601 -0.11698,0.1599 -0.1174,0.1592 -0.11749,0.1583 -0.1172,0.1569 -0.11655,0.1555 -0.11555,0.1535 -0.11417,0.1514 -0.11243,0.1488 -0.11034,0.146 -0.10788,0.1429 -0.10506,0.1393 -0.10189,0.1356 -0.09832,0.1316 -0.09443,0.127 -0.09017,0.1224 -0.08554,0.1173 -0.08054,0.112 -0.07519,0.1062 -0.06947,0.1004 -0.0634,0.094 -0.05697,0.0874 -0.05016,0.0804 -0.04301,0.0732 -0.03547,0.0656 -0.0276,0.0578 -0.01934,0.0495 -0.01075,0.041 -0.00176,0.0324 0.00756,0.023 0.01772,0.0173 0.02692,0.0135 0.03587,0.0096 0.0445,0.0058 L 3.87864,37.54 3.93957,37.539 4.00828,37.5346 4.08449,37.5272 4.1679,37.5168 4.25823,37.5035 4.35519,37.4876 4.45849,37.4691 4.56786,37.4482 4.68299,37.4249 4.8036,37.3997 4.9294,37.3723 5.06011,37.3431 5.19544,37.3123 5.3351,37.2799 5.4788,37.2461 5.62625,37.2108 5.77717,37.1746 5.93127,37.1374 6.08826,37.0992 6.24785,37.0604 6.40976,37.021 6.5737,36.9811 6.73938,36.9409 6.90652,36.9007 7.07482,36.8604 7.244,36.8201 7.41377,36.7802 7.58383,36.7408 7.75392,36.7019 7.92374,36.6637 8.09299,36.6262 8.2614,36.5899 8.42866,36.5545 8.59451,36.5206 8.75865,36.4879 8.92079,36.4568 9.08065,36.4276 9.23792,36.4 9.39234,36.3745 9.54361,36.351 l 0.14784,-0.0212 0.1441,-0.0189 0.1401,-0.0162 0.13585,-0.0136 0.1312,-0.0107 0.1263,-0.0078 0.1212,-0.0048 0.1157,-0.0013 0.11,0.0018 0.1039,0.0055 0.0977,0.0092 0.091,0.013 0.0842,0.0169 0.077,0.0209 0.0695,0.0252 0.0618,0.0296 0.0537,0.0342 z"
         style="fill:url(#Grad208);fill-rule:evenodd;stroke:none"
         transform="rotate(-90,24.832751,23.928949)"
         id="path3755" />
      <path
         d="M 15.1294,30.2608 14.7327,30.2557 14.3385,30.2405 13.9471,30.2153 13.5584,30.1803 13.1724,30.1354 12.7897,30.081 12.41,30.017 12.0335,29.9438 11.6605,29.8612 11.291,29.7695 10.9251,29.6689 10.5629,29.5594 10.2047,29.4411 9.85043,29.3142 9.50032,29.1788 9.15448,29.0351 8.81301,28.8831 8.47605,28.723 8.14374,28.5548 7.81617,28.3788 7.49349,28.1951 7.17582,28.0037 6.86327,27.8049 6.55599,27.5986 6.25408,27.385 5.95769,27.1645 5.66691,26.9368 5.3819,26.7023 5.10276,26.461 4.82963,26.2132 4.56263,25.9588 4.30187,25.698 4.0475,25.431 3.79963,25.1579 3.55839,24.8787 3.32389,24.5936 3.09628,24.3029 2.87567,24.0064 2.66218,23.7045 2.45593,23.3971 2.25707,23.0846 2.06571,22.7669 1.88196,22.4442 1.70596,22.1166 1.53785,21.7843 1.37772,21.4473 1.22573,21.1058 1.08197,20.7599 0.946584,20.4097 0.819697,20.0555 0.70143,19.6971 0.591909,19.3349 0.491259,18.9689 0.399602,18.5994 0.317064,18.2263 0.243769,17.8498 0.179844,17.47 0.125411,17.0872 0.080595,16.7012 0.0455217,16.3125 0.0203149,15.9209 0.00509949,15.5267 0,15.13 0.00509949,14.7333 0.0203149,14.3392 0.0455217,13.9476 0.080595,13.5589 0.125411,13.1729 0.179844,12.7901 0.243769,12.4104 0.317064,12.0339 0.399602,11.6609 0.491259,11.2913 0.591909,10.9254 0.70143,10.5632 0.819697,10.205 0.946584,9.85072 1.08197,9.50059 1.22573,9.15472 1.37772,8.81325 1.53785,8.47629 1.70596,8.14395 1.88196,7.81637 2.06571,7.49367 2.25707,7.17598 2.45593,6.86343 2.66218,6.55614 2.87567,6.25421 3.09628,5.95781 3.32389,5.66702 3.55839,5.382 3.79963,5.10286 4.0475,4.82972 4.30187,4.5627 4.56263,4.30194 4.82963,4.04757 5.10276,3.79969 5.3819,3.55844 5.66691,3.32394 5.95769,3.09633 6.25408,2.8757 6.55599,2.66221 6.86327,2.45597 7.17582,2.25709 7.49349,2.06573 7.81617,1.88199 8.14374,1.70599 8.47605,1.53786 8.81301,1.37773 9.15448,1.22573 9.50032,1.08198 9.85043,0.946591 10.2047,0.819703 10.5629,0.701435 10.9251,0.591913 11.291,0.491261 11.6605,0.399603 12.0335,0.317065 12.41,0.243771 12.7897,0.179844 13.1724,0.125411 13.5584,0.0805951 13.9471,0.0455217 14.3385,0.020315 14.7327,0.00509949 15.1294,0 l 0.3967,0.00509949 0.3942,0.01521551 0.3915,0.0252067 0.3888,0.0350734 0.3858,0.0448159 0.383,0.054433 0.3797,0.063927 0.3765,0.073294 0.3731,0.082538 0.3695,0.091658 0.366,0.100652 0.362,0.109522 0.3584,0.118268 0.3543,0.126888 0.35,0.135389 0.3459,0.14375 0.3415,0.152 0.337,0.16013 0.3323,0.16813 0.3277,0.176 0.3226,0.18374 0.3176,0.19136 0.3126,0.19888 0.3074,0.20624 0.3018,0.21349 0.2965,0.22063 0.2907,0.22761 0.2851,0.2345 0.2791,0.24125 0.2731,0.24788 0.2671,0.25437 0.2607,0.26076 0.2544,0.26702 0.2478,0.27314 0.2413,0.27914 0.2345,0.28502 0.2275,0.29079 0.2207,0.2964 0.2135,0.30193 0.2062,0.30729 0.1989,0.31255 0.1913,0.31769 0.1838,0.3227 0.176,0.32758 0.168,0.33234 0.1602,0.33696 0.1519,0.34147 0.1439,0.34587 0.1353,0.35013 0.1268,0.35428 0.1184,0.3582 0.1094,0.3622 0.1008,0.3659 0.0915,0.3696 0.0826,0.373 0.0734,0.3765 0.0639,0.3797 0.0543,0.3828 0.0449,0.386 0.035,0.3887 0.0252,0.3916 0.0152,0.3941 0.0052,0.3967 -0.0052,0.3967 -0.0152,0.3942 -0.0252,0.3916 -0.035,0.3887 -0.0449,0.386 -0.0543,0.3828 -0.0639,0.3798 -0.0734,0.3765 -0.0826,0.3731 -0.0915,0.3695 -0.1008,0.366 -0.1094,0.3622 -0.1184,0.3584 -0.1268,0.3542 -0.1353,0.3502 -0.1439,0.3459 -0.1519,0.3415 -0.1602,0.337 -0.168,0.3323 -0.176,0.3276 -0.1838,0.3227 -0.1913,0.3177 -0.1989,0.3125 -0.2062,0.3074 -0.2135,0.3019 -0.2207,0.2965 -0.2275,0.2907 -0.2345,0.2851 -0.2413,0.2792 -0.2478,0.2731 -0.2544,0.267 -0.2607,0.2608 -0.2671,0.2544 -0.2731,0.2478 -0.2791,0.2413 -0.2851,0.2345 -0.2907,0.2277 -0.2965,0.2205 -0.3018,0.2136 -0.3074,0.2063 -0.3126,0.1988 -0.3176,0.1914 -0.3226,0.1837 -0.3277,0.176 -0.3323,0.1682 -0.337,0.1601 -0.3415,0.152 -0.3459,0.1437 -0.35,0.1354 -0.3543,0.1269 -0.3584,0.1183 -0.362,0.1095 -0.366,0.1006 -0.3695,0.0917 -0.3731,0.0826 -0.3765,0.0732 -0.3797,0.064 -0.383,0.0544 -0.3858,0.0449 -0.3888,0.035 -0.3915,0.0252 -0.3942,0.0152 z"
         style="fill:url(#Grad209);fill-rule:evenodd;stroke:none"
         transform="rotate(-90,24.836795,15.130105)"
         id="path3757" />
      <path
         d="M 14.2995,28.6011 13.9246,28.5963 13.5521,28.5819 13.1821,28.5581 12.8147,28.525 12.45,28.4826 12.0882,28.4311 11.7293,28.3707 11.3736,28.3015 11.021,28.2234 10.6717,28.1368 10.3259,28.0417 9.98365,27.9382 9.64506,27.8264 9.31025,27.7065 8.97935,27.5786 8.65248,27.4427 8.32975,27.299 8.01128,27.1476 7.69719,26.9887 7.38759,26.8224 7.0826,26.6487 6.78236,26.4679 6.48696,26.2799 6.19652,26.0849 5.91119,25.8832 5.63104,25.6746 5.35621,25.4596 5.08683,25.2379 4.823,25.0099 4.56485,24.7756 4.31248,24.5352 4.06603,24.2887 3.82561,24.0363 3.59133,23.7782 3.36332,23.5143 3.14168,23.2449 2.92655,22.9701 2.71803,22.6899 2.51624,22.4046 2.3213,22.1141 2.13335,21.8187 1.95248,21.5184 1.7788,21.2134 1.61246,20.9037 1.45355,20.5896 1.3022,20.271 1.15854,19.9483 1.02266,19.6213 0.894701,19.2905 0.774769,18.9556 0.662986,18.6169 0.559467,18.2746 0.464333,17.9287 0.377699,17.5795 0.299687,17.2267 0.230409,16.8709 0.169987,16.512 0.118537,16.1501 0.076178,15.7853 0.0430268,15.4177 0.0192016,15.0477 0.00482003,14.6751 0,14.3001 0.00482003,13.9252 0.0192016,13.5526 0.0430268,13.1825 0.076178,12.815 0.118537,12.4504 0.169987,12.0885 0.230409,11.7296 0.299687,11.3738 0.377699,11.0212 0.464333,10.6719 0.559467,10.326 0.662986,9.9837 0.774769,9.64507 0.894701,9.31025 1.02266,8.97931 1.15854,8.65242 1.3022,8.32966 1.45355,8.01118 1.61246,7.69708 1.7788,7.38745 1.95248,7.08247 2.13335,6.7822 2.3213,6.4868 2.51624,6.19635 2.71803,5.91099 2.92655,5.63084 3.14168,5.35602 3.36332,5.08663 3.59133,4.8228 3.82561,4.56465 4.06603,4.31229 4.31248,4.06583 4.56485,3.82542 4.823,3.59114 5.08683,3.36312 5.35621,3.14149 5.63104,2.92636 5.91119,2.71786 6.19652,2.51608 6.48696,2.32116 6.78236,2.1332 7.0826,1.95233 7.38759,1.77867 7.69719,1.61234 8.01128,1.45344 8.32975,1.3021 8.65248,1.15844 8.97935,1.02258 9.31025,0.894623 9.64506,0.7747 9.98365,0.662925 10.3259,0.559416 10.6717,0.464289 11.021,0.377663 11.3736,0.299656 11.7293,0.230386 12.0882,0.16997 12.45,0.118525 12.8147,0.0761699 13.1821,0.0430221 13.5521,0.0191994 13.9246,0.00481948 14.2995,0 l 0.3749,0.00481948 0.3727,0.01437992 0.37,0.0238227 0.3675,0.0331478 0.3647,0.0423551 0.362,0.051445 0.3588,0.060416 0.356,0.06927 0.3525,0.078007 0.3493,0.086626 0.3459,0.095127 0.3424,0.103509 0.3385,0.111775 0.3349,0.119923 0.331,0.127957 0.3268,0.13586 0.3228,0.14366 0.3185,0.15134 0.3142,0.1589 0.3095,0.16633 0.305,0.17366 0.3003,0.18087 0.2955,0.18796 0.2903,0.19492 0.2854,0.20178 0.2801,0.2085 0.2749,0.21513 0.2694,0.22163 0.2638,0.22802 0.2581,0.23428 0.2524,0.24041 0.2464,0.24646 0.2404,0.25236 0.2342,0.25815 0.2281,0.26383 0.2216,0.26939 0.2151,0.27482 0.2086,0.28015 0.2017,0.28536 0.195,0.29045 0.1879,0.2954 0.1809,0.30027 0.1735,0.30498 0.1664,0.30963 0.1588,0.3141 0.1514,0.31848 0.1436,0.32276 0.1359,0.32689 0.128,0.33094 0.1198,0.33482 0.1118,0.33863 0.1035,0.3423 0.0952,0.3459 0.0866,0.3493 0.078,0.3526 0.0693,0.3558 0.0603,0.3589 0.0515,0.3619 0.0424,0.3646 0.0332,0.3675 0.0237,0.3701 0.0144,0.3726 0.0048,0.3749 -0.0048,0.375 -0.0144,0.3726 -0.0237,0.37 -0.0332,0.3676 -0.0424,0.3648 -0.0515,0.3619 -0.0603,0.3589 -0.0693,0.3558 -0.078,0.3528 -0.0866,0.3492 -0.0952,0.3459 -0.1035,0.3423 -0.1118,0.3387 -0.1198,0.3349 -0.128,0.3308 -0.1359,0.327 -0.1436,0.3227 -0.1514,0.3186 -0.1588,0.3141 -0.1664,0.3097 -0.1735,0.305 -0.1809,0.3003 -0.1879,0.2954 -0.195,0.2905 -0.2017,0.2853 -0.2086,0.2802 -0.2151,0.2748 -0.2216,0.2694 -0.2281,0.2639 -0.2342,0.2581 -0.2404,0.2524 -0.2464,0.2465 -0.2524,0.2404 -0.2581,0.2343 -0.2638,0.228 -0.2694,0.2217 -0.2749,0.215 -0.2801,0.2086 -0.2854,0.2017 -0.2903,0.195 -0.2955,0.188 -0.3003,0.1808 -0.305,0.1737 -0.3095,0.1663 -0.3142,0.1589 -0.3185,0.1514 -0.3228,0.1437 -0.3268,0.1359 -0.331,0.1279 -0.3349,0.1199 -0.3385,0.1118 -0.3424,0.1035 -0.3459,0.0951 -0.3493,0.0866 -0.3525,0.0781 -0.356,0.0692 -0.3588,0.0604 -0.362,0.0515 -0.3647,0.0424 -0.3675,0.0331 -0.37,0.0238 -0.3727,0.0144 z"
         style="fill:url(#Grad210);fill-rule:evenodd;stroke:none"
         transform="rotate(-90,24.8368,14.3002)"
         id="path3759" />
      <path
         d="M 8.95784,22.5863 8.72296,22.5826 8.48957,22.5712 8.25774,22.5523 8.02756,22.5263 7.79908,22.4927 7.5724,22.4521 7.34756,22.4043 7.12466,22.3496 6.90378,22.2881 6.68496,22.2196 6.46831,22.1445 6.25388,22.0628 6.04176,21.9745 5.83202,21.8797 5.62471,21.7788 5.41993,21.6714 5.21775,21.5579 5.01825,21.4385 4.82148,21.313 4.62754,21.1816 4.43649,21.0445 4.24839,20.9016 4.06335,20.7532 3.8814,20.5992 3.70266,20.4398 3.52716,20.2752 3.35501,20.1053 3.18627,19.9303 3.021,19.7502 2.85929,19.5652 2.70121,19.3753 2.54683,19.1807 2.39622,18.9813 2.24948,18.7775 2.10665,18.5692 1.96782,18.3563 1.83306,18.1393 1.70245,17.9181 1.57606,17.6927 1.45395,17.4634 1.33622,17.2301 1.22293,16.9929 1.11414,16.752 1.00995,16.5076 0.910421,16.2595 0.815623,16.008 0.725636,15.7531 0.640531,15.495 0.560383,15.2337 0.485263,14.9692 0.415248,14.7018 0.350412,14.4314 0.290825,14.1584 0.236564,13.8825 0.1877,13.604 0.144311,13.323 0.106466,13.0396 0.0742423,12.7538 0.0477116,12.4658 0.0269484,12.1757 0.0120262,11.8834 0.00301885,11.5892 0,11.2931 0.00301885,10.9971 0.0120262,10.7029 0.0269484,10.4107 0.0477116,10.1205 0.0742423,9.83254 0.106466,9.5468 0.144311,9.26339 0.1877,8.98242 0.236564,8.70397 0.290825,8.42816 0.350412,8.15505 0.415248,7.88474 0.485263,7.61734 0.560383,7.35292 0.640531,7.0916 0.725636,6.83346 0.815623,6.57857 0.910421,6.32706 1.00995,6.07901 1.11414,5.8345 1.22293,5.59364 1.33622,5.35652 1.45395,5.12322 1.57606,4.89386 1.70245,4.6685 1.83306,4.44726 1.96782,4.23021 2.10665,4.01746 2.24948,3.8091 2.39622,3.60522 2.54683,3.4059 2.70121,3.21126 2.85929,3.02138 3.021,2.83636 3.18627,2.65628 3.35501,2.48124 3.52716,2.31133 3.70266,2.14665 3.8814,1.98729 4.06335,1.83333 4.24839,1.68488 4.43649,1.54203 4.62754,1.40487 4.82148,1.2735 5.01825,1.14799 5.21775,1.02846 5.41993,0.914998 5.62471,0.807687 5.83202,0.706625 6.04176,0.611905 6.25388,0.523619 6.46831,0.441862 6.68496,0.366726 6.90378,0.298305 7.12466,0.23669 7.34756,0.181976 7.5724,0.134254 7.79908,0.09362 8.02756,0.0601649 8.25774,0.0339824 8.48957,0.0151652 8.72296,0.00380684 8.95784,0 9.19272,0.00380684 9.4261,0.0151652 9.65791,0.0339824 9.8881,0.0601649 10.1166,0.09362 l 0.2267,0.040634 0.2248,0.047722 0.2229,0.054714 0.2209,0.061615 0.2188,0.068421 0.2166,0.075136 0.2145,0.081757 0.2121,0.088286 0.2098,0.09472 0.2072,0.101062 0.2048,0.107311 0.2022,0.113462 0.1995,0.11953 0.1968,0.12551 0.194,0.13137 0.1911,0.13716 0.188,0.14285 0.1851,0.14845 0.182,0.15396 0.1787,0.15936 0.1755,0.16468 0.1722,0.16991 0.1688,0.17504 0.1653,0.18008 0.1616,0.18502 0.1582,0.18988 0.1543,0.19464 0.1507,0.19932 0.1468,0.20388 0.1428,0.20836 0.1388,0.21275 0.1349,0.21705 0.1306,0.22124 0.1264,0.22536 0.1221,0.22936 0.1177,0.2333 0.1134,0.23712 0.1088,0.24086 0.1041,0.24451 0.0997,0.24805 0.0947,0.25151 0.0901,0.25489 0.0851,0.25814 0.0801,0.26132 0.0752,0.26442 0.07,0.2674 0.0649,0.27031 0.0596,0.27311 0.0542,0.27581 0.0488,0.27845 0.0435,0.28097 0.0378,0.28341 0.0322,0.28574 0.0266,0.28796 0.0208,0.2902 0.0149,0.2922 0.0089,0.2942 0.0031,0.296 -0.0031,0.2961 -0.0089,0.2942 -0.0149,0.2923 -0.0208,0.2901 -0.0266,0.288 -0.0322,0.2858 -0.0378,0.2834 -0.0435,0.281 -0.0488,0.2785 -0.0542,0.2759 -0.0596,0.273 -0.0649,0.2704 -0.07,0.2674 -0.0752,0.2645 -0.0801,0.2613 -0.0851,0.2581 -0.0901,0.2549 -0.0947,0.2515 -0.0997,0.2481 -0.1041,0.2444 -0.1088,0.2409 -0.1134,0.2372 -0.1177,0.2333 -0.1221,0.2293 -0.1264,0.2254 -0.1306,0.2212 -0.1349,0.217 -0.1388,0.2129 -0.1428,0.2083 -0.1468,0.2038 -0.1507,0.1994 -0.1543,0.1946 -0.1582,0.1899 -0.1616,0.185 -0.1653,0.1801 -0.1688,0.175 -0.1722,0.1699 -0.1755,0.1646 -0.1787,0.1594 -0.182,0.154 -0.1851,0.1484 -0.188,0.1429 -0.1911,0.1371 -0.194,0.1314 -0.1968,0.1255 -0.1995,0.1194 -0.2022,0.1135 -0.2048,0.1074 -0.2072,0.1009 -0.2098,0.0948 -0.2121,0.0883 -0.2145,0.0817 -0.2166,0.0751 -0.2188,0.0685 -0.2209,0.0615 -0.2229,0.0547 -0.2248,0.0478 -0.2267,0.0406 -0.2285,0.0336 -0.23019,0.026 -0.23181,0.0189 -0.23338,0.0114 z"
         style="fill:url(#Grad211);fill-rule:evenodd;stroke:none"
         transform="rotate(-90,21.4093,7.8657)"
         id="path3761" />
    </g>
  </g>
</svg>
