<?xml version="1.0" encoding="UTF-8" standalone="no"?>
<svg
   width="23.509399pt"
   height="46.734009pt"
   version="1.1"
   viewBox="0 0 23.509399 46.734009"
   id="svg6053"
   sodipodi:docname="Weather Icons-page001.svg"
   xmlns:inkscape="http://www.inkscape.org/namespaces/inkscape"
   xmlns:sodipodi="http://sodipodi.sourceforge.net/DTD/sodipodi-0.dtd"
   xmlns="http://www.w3.org/2000/svg"
   xmlns:svg="http://www.w3.org/2000/svg">
  <sodipodi:namedview
     id="namedview6055"
     pagecolor="#ffffff"
     bordercolor="#000000"
     borderopacity="0.25"
     inkscape:showpageshadow="2"
     inkscape:pageopacity="0.0"
     inkscape:pagecheckerboard="0"
     inkscape:deskcolor="#d1d1d1"
     inkscape:document-units="pt"
     showgrid="false" />
  <defs
     id="defs2330">
    <clipPath
       id="Clip52">
      <path
         d="M 0,0 H 23.5094 V 46.734 H 0 Z"
         id="path2197" />
    </clipPath>
    <linearGradient
       x2="23.509199"
       y2="23.367001"
       id="Grad333"
       x1="0"
       gradientUnits="userSpaceOnUse"
       y1="23.367001">
      <stop
         offset="0%"
         stop-color="#f6a505"
         stop-opacity="1"
         id="stop2200" />
      <stop
         offset="100%"
         stop-color="#fbc100"
         stop-opacity="1"
         id="stop2202" />
    </linearGradient>
    <linearGradient
       x2="43.896801"
       y2="10.8055"
       id="Grad334"
       x1="-2.7830501e-14"
       gradientUnits="userSpaceOnUse"
       y1="10.8055">
      <stop
         offset="0%"
         stop-color="#f6a505"
         stop-opacity="1"
         id="stop2205" />
      <stop
         offset="100%"
         stop-color="#fbec46"
         stop-opacity="1"
         id="stop2207" />
    </linearGradient>
    <linearGradient
       x2="43.896801"
       y2="10.8042"
       id="Grad335"
       x1="-2.7830501e-14"
       gradientUnits="userSpaceOnUse"
       y1="10.8042">
      <stop
         offset="0%"
         stop-color="#f6a505"
         stop-opacity="1"
         id="stop2210" />
      <stop
         offset="100%"
         stop-color="#fbec46"
         stop-opacity="1"
         id="stop2212" />
    </linearGradient>
    <linearGradient
       x2="1.14799"
       y2="8.3476801"
       id="Grad336"
       x1="-2.7830501e-14"
       gradientUnits="userSpaceOnUse"
       y1="8.3476801">
      <stop
         offset="0%"
         stop-color="#fbec46"
         stop-opacity="1"
         id="stop2215" />
      <stop
         offset="100%"
         stop-color="#fdfadd"
         stop-opacity="1"
         id="stop2217" />
    </linearGradient>
    <linearGradient
       x2="22.105"
       y2="8.3060598"
       id="Grad337"
       x1="-2.7830501e-14"
       gradientUnits="userSpaceOnUse"
       y1="8.3060598">
      <stop
         offset="0%"
         stop-color="#f6a505"
         stop-opacity="1"
         id="stop2220" />
      <stop
         offset="76.3636%"
         stop-color="#fbc100"
         stop-opacity="1"
         id="stop2222" />
      <stop
         offset="100%"
         stop-color="#fec902"
         stop-opacity="1"
         id="stop2224" />
    </linearGradient>
    <linearGradient
       x2="12.5044"
       y2="4.69771"
       id="Grad338"
       x1="-2.7830501e-14"
       gradientUnits="userSpaceOnUse"
       y1="4.69771">
      <stop
         offset="0%"
         stop-color="#fdfadd"
         stop-opacity="1"
         id="stop2227" />
      <stop
         offset="100%"
         stop-color="#fbec46"
         stop-opacity="1"
         id="stop2229" />
    </linearGradient>
  </defs>
  <g
     inkscape:groupmode="layer"
     id="Background"
     inkscape:label="Background"
     transform="translate(-259.18301,-323.04901)">
    <g
       id="lightening"
       style="fill:none;stroke:none"
       clip-path="url(#Clip52)"
       clip-rule="evenodd"
       transform="translate(259.183,323.049)">
      <path
         d="M 23.5094,0 H 5.87765 L 2.21789,17.0283 5.72832,21.213 0.518976,44.3179 0,46.734 1.47982,44.7622 20.0809,20.0054 16.524,14.8083 Z"
         style="fill:url(#Grad333);fill-rule:evenodd;stroke:none"
         id="path6000" />
      <path
         d="M 29.58,14.8569 24.4481,18.3673 0,0 23.3663,5.26687 27.5542,1.75399 43.897,5.26687 V 21.6097 Z"
         style="fill:url(#Grad334);fill-rule:evenodd;stroke:none"
         transform="rotate(-90,22.74277,21.69503)"
         id="path6002" />
      <path
         d="M 29.58,14.8545 24.4481,18.3661 0,0 23.3663,5.26687 27.5542,1.75399 43.897,5.26687 V 21.6085 Z"
         style="fill:url(#Grad335);fill-rule:evenodd;stroke:none"
         transform="rotate(-90,22.694424,21.743376)"
         id="path6004" />
      <path
         d="m 0,16.1115 1.14811,0.5826 V 0.264384 L 0,0 Z"
         style="fill:url(#Grad336);fill-rule:evenodd;stroke:none"
         transform="rotate(-90,3.826105,-2.137225)"
         id="path6006" />
      <path
         d="M 13.9827,0.290088 12.6361,0 8.44817,3.51288 0,1.60711 l 0.328415,0.28445 0.3159,0.28449 0.303619,0.28439 0.291576,0.28412 0.27977,0.28373 0.26819,0.28317 0.25687,0.28246 0.24575,0.28161 0.2349,0.28061 0.22427,0.27945 0.21388,0.27816 0.20373,0.27669 0.19381,0.27511 0.18412,0.27336 0.17468,0.27145 0.16547,0.26941 0.15649,0.2672 0.14776,0.26486 0.13926,0.26236 0.13099,0.25972 0.12296,0.25692 0.11517,0.25398 0.1076,0.25087 0.10029,0.24764 0.09321,0.24425 0.08635,0.2407 0.07975,0.237 0.07336,0.23317 0.06724,0.22917 0.06132,0.22505 0.05566,0.22074 0.05022,0.2163 0.04503,0.2117 0.04007,0.207 0.03534,0.2021 0.03087,0.1971 0.02661,0.1918 0.02258,0.1866 0.01883,0.181 0.01526,0.1754 0.01197,0.1697 0.0089,0.1636 0.00606,0.1577 0.00346,0.1513 0.00112,0.145 L 5.73765,12.4682 5.73473,12.6 5.73017,12.7249 5.7242,12.8429 5.71703,12.9538 5.70892,13.0574 5.70011,13.1535 5.69082,13.2421 5.68129,13.3229 5.67177,13.3959 5.66248,13.4608 5.65367,13.5176 5.64555,13.5661 5.63839,13.606 5.63242,13.6374 5.62785,13.66 l -0.00291,0.0137 -0.00103,0.0045 3.90603,2.9352 5.13196,-3.5105 7.4431,3.5105 10e-5,-0.0063 v -0.0186 -0.0307 l -6e-4,-0.0427 -0.0011,-0.0544 -0.0019,-0.066 L 22.0986,16.3175 22.0944,16.2291 22.0889,16.1299 22.0817,16.02 22.0726,15.8994 22.0616,15.7687 22.0483,15.6279 22.0325,15.4771 22.0141,15.3168 21.9928,15.1469 21.9685,14.9678 21.9409,14.7797 21.9098,14.5827 21.8751,14.3771 21.8364,14.163 21.7937,13.9407 21.7466,13.7104 21.695,13.4723 21.6387,13.2265 21.5777,12.9734 21.5113,12.7131 21.4397,12.4458 21.3625,12.1717 21.2796,11.891 21.1909,11.604 21.0959,11.3108 20.9945,11.0117 20.8866,10.7068 20.772,10.3963 20.6503,10.0805 20.5216,9.7596 20.3855,9.43376 20.2417,9.10319 20.0901,8.76811 19.9306,8.42873 19.7628,8.08524 19.5867,7.73787 19.402,7.3868 19.2085,7.03225 19.0059,6.67442 18.794,6.31354 18.5729,5.94978 18.3419,5.58336 18.1012,5.2145 17.8504,4.84339 17.5894,4.47024 17.3179,4.09526 17.0358,3.71866 16.7427,3.34064 16.4387,2.96139 16.1233,2.58115 15.7965,2.2001 15.4579,1.81847 15.1075,1.43644 14.7449,1.05423 14.3701,0.672043 Z"
         style="fill:url(#Grad337);fill-rule:evenodd;stroke:none"
         transform="rotate(-90,16.16072,13.35898)"
         id="path6008" />
      <path
         d="M 11.7626,8.11145 2.77236,1.07345 4.07347,1.36843 6.92539,1.5606 0,0 12.5044,9.39542 Z"
         style="fill:url(#Grad338);fill-rule:evenodd;stroke:none"
         transform="rotate(-90,22.74277,21.69503)"
         id="path6010" />
    </g>
  </g>
</svg>
