<?xml version="1.0" encoding="UTF-8"?>
<svg xmlns="http://www.w3.org/2000/svg" xmlns:xlink="http://www.w3.org/1999/xlink" width="100px" height="95px" viewBox="0 0 100 95" version="1.1">
<g id="surface1">
<path style=" stroke:none;fill-rule:nonzero;fill:rgb(100%,100%,100%);fill-opacity:1;" d="M 100.011719 26.746094 C 100.003906 33.378906 94.648438 38.753906 88.03125 38.757812 L 45.910156 38.757812 C 39.296875 38.675781 33.996094 33.234375 34.074219 26.597656 C 34.144531 20.902344 38.1875 16.042969 43.761719 14.949219 C 44.355469 14.835938 44.753906 14.273438 44.675781 13.675781 C 44.601562 13.121094 44.566406 12.566406 44.558594 12.007812 C 44.570312 5.375 49.933594 0 56.550781 0.00390625 C 60.332031 0.0078125 63.890625 1.800781 66.152344 4.847656 C 66.527344 5.355469 67.238281 5.453125 67.742188 5.074219 C 67.828125 5.007812 67.902344 4.933594 67.964844 4.847656 C 71.917969 -0.472656 79.429688 -1.574219 84.738281 2.390625 C 87.769531 4.65625 89.554688 8.21875 89.566406 12.007812 C 89.566406 12.570312 89.523438 13.128906 89.445312 13.6875 C 89.363281 14.289062 89.761719 14.847656 90.359375 14.960938 C 95.960938 16.082031 100.003906 21.015625 100.011719 26.746094 "/>
<path style=" stroke:none;fill-rule:nonzero;fill:rgb(100%,100%,100%);fill-opacity:1;" d="M 42.289062 12.011719 C 42.289062 12.328125 42.289062 12.644531 42.320312 12.960938 C 34.726562 15.039062 30.25 22.902344 32.324219 30.515625 C 33.25 33.917969 35.398438 36.855469 38.351562 38.761719 L 11.984375 38.761719 C 5.371094 38.761719 0 33.386719 0 26.753906 C 0 21.011719 4.050781 16.070312 9.671875 14.960938 C 10.261719 14.847656 10.664062 14.289062 10.582031 13.6875 C 9.667969 7.113281 14.238281 1.039062 20.792969 0.121094 C 25.132812 -0.488281 29.457031 1.328125 32.070312 4.851562 C 32.449219 5.359375 33.160156 5.457031 33.660156 5.078125 C 33.746094 5.015625 33.820312 4.941406 33.886719 4.851562 C 36.136719 1.789062 39.710938 -0.015625 43.503906 0 C 44.953125 -0.00390625 46.390625 0.253906 47.75 0.761719 C 44.296875 3.46875 42.285156 7.617188 42.289062 12.011719 "/>
<path style=" stroke:none;fill-rule:nonzero;fill:rgb(100%,100%,100%);fill-opacity:1;" d="M 99.761719 70.859375 L 99.761719 71.085938 C 99.761719 71.925781 99.140625 72.714844 98.171875 73.109375 C 97.519531 73.390625 96.894531 73.730469 96.300781 74.125 C 94.535156 75.21875 92.335938 76.574219 88.167969 76.574219 C 83.996094 76.574219 81.804688 75.21875 80.03125 74.125 C 78.589844 73.234375 77.640625 72.652344 75.445312 72.652344 C 73.246094 72.652344 72.296875 73.238281 70.855469 74.125 C 69.089844 75.21875 66.886719 76.574219 62.71875 76.574219 C 58.554688 76.574219 56.355469 75.21875 54.585938 74.125 C 53.144531 73.234375 52.195312 72.652344 49.996094 72.652344 C 47.796875 72.652344 46.847656 73.238281 45.40625 74.125 C 43.640625 75.21875 41.441406 76.574219 37.273438 76.574219 C 33.105469 76.574219 30.90625 75.21875 29.136719 74.125 C 27.695312 73.234375 26.746094 72.652344 24.546875 72.652344 C 22.351562 72.652344 21.402344 73.238281 19.957031 74.125 C 18.191406 75.21875 15.992188 76.574219 11.824219 76.574219 C 7.660156 76.574219 5.460938 75.21875 3.6875 74.125 C 3.097656 73.734375 2.46875 73.390625 1.820312 73.109375 C 0.859375 72.722656 0.230469 71.925781 0.230469 71.085938 L 0.230469 70.859375 C 0.253906 70.164062 0.621094 69.523438 1.207031 69.15625 C 2.109375 68.5625 3.238281 68.4375 4.238281 68.832031 C 5.285156 69.253906 6.28125 69.773438 7.222656 70.390625 C 8.664062 71.277344 9.613281 71.863281 11.8125 71.863281 C 14.011719 71.863281 14.957031 71.273438 16.402344 70.390625 C 18.167969 69.296875 20.367188 67.941406 24.535156 67.941406 C 28.703125 67.941406 30.898438 69.296875 32.671875 70.390625 C 34.113281 71.277344 35.0625 71.863281 37.257812 71.863281 C 39.457031 71.863281 40.40625 71.273438 41.847656 70.390625 C 43.617188 69.296875 45.816406 67.941406 49.984375 67.941406 C 54.148438 67.941406 56.347656 69.296875 58.117188 70.390625 C 59.574219 71.277344 60.527344 71.878906 62.730469 71.878906 C 64.933594 71.878906 65.878906 71.292969 67.320312 70.40625 C 69.089844 69.3125 71.289062 67.957031 75.457031 67.957031 C 79.621094 67.957031 81.820312 69.3125 83.589844 70.40625 C 85.03125 71.296875 85.980469 71.878906 88.179688 71.878906 C 90.378906 71.878906 91.332031 71.292969 92.769531 70.40625 C 93.710938 69.789062 94.710938 69.269531 95.75 68.847656 C 96.753906 68.457031 97.886719 68.582031 98.785156 69.171875 C 99.367188 69.539062 99.734375 70.171875 99.761719 70.859375 "/>
<path style=" stroke:none;fill-rule:nonzero;fill:rgb(100%,100%,100%);fill-opacity:1;" d="M 99.761719 52.449219 L 99.761719 52.675781 C 99.761719 53.511719 99.140625 54.304688 98.171875 54.691406 C 97.523438 54.976562 96.894531 55.316406 96.300781 55.710938 C 94.535156 56.800781 92.332031 58.15625 88.167969 58.15625 C 84 58.15625 81.804688 56.800781 80.03125 55.710938 C 78.589844 54.820312 77.640625 54.234375 75.445312 54.234375 C 73.246094 54.234375 72.296875 54.824219 70.855469 55.710938 C 69.101562 56.796875 66.894531 58.152344 62.734375 58.152344 C 58.578125 58.152344 56.371094 56.796875 54.601562 55.707031 C 53.160156 54.816406 52.210938 54.230469 50.011719 54.230469 C 47.8125 54.230469 46.867188 54.820312 45.421875 55.707031 C 43.644531 56.796875 41.445312 58.152344 37.277344 58.152344 C 33.109375 58.152344 30.914062 56.796875 29.140625 55.707031 C 27.703125 54.816406 26.75 54.230469 24.550781 54.230469 C 22.355469 54.230469 21.40625 54.820312 19.964844 55.707031 C 18.195312 56.796875 15.996094 58.152344 11.828125 58.152344 C 7.664062 58.152344 5.464844 56.796875 3.695312 55.707031 C 3.101562 55.316406 2.472656 54.972656 1.824219 54.6875 C 0.863281 54.300781 0.234375 53.507812 0.234375 52.671875 L 0.234375 52.445312 C 0.257812 51.746094 0.625 51.109375 1.210938 50.742188 C 2.113281 50.148438 3.242188 50.019531 4.242188 50.417969 C 5.292969 50.835938 6.292969 51.359375 7.238281 51.980469 C 8.679688 52.871094 9.628906 53.457031 11.828125 53.457031 C 14.027344 53.457031 14.976562 52.867188 16.417969 51.980469 C 18.183594 50.890625 20.382812 49.535156 24.550781 49.535156 C 28.71875 49.535156 30.917969 50.890625 32.6875 51.980469 C 34.125 52.871094 35.078125 53.457031 37.277344 53.457031 C 39.472656 53.457031 40.421875 52.867188 41.867188 51.980469 C 43.636719 50.890625 45.835938 49.542969 50 49.542969 C 54.167969 49.542969 56.363281 50.898438 58.132812 51.992188 C 59.578125 52.878906 60.527344 53.464844 62.722656 53.464844 C 64.921875 53.464844 65.871094 52.875 67.3125 51.992188 C 69.078125 50.898438 71.277344 49.542969 75.449219 49.542969 C 79.617188 49.542969 81.8125 50.898438 83.582031 51.992188 C 85.023438 52.878906 85.972656 53.464844 88.171875 53.464844 C 90.371094 53.464844 91.320312 52.875 92.761719 51.992188 C 93.703125 51.371094 94.703125 50.851562 95.742188 50.433594 C 96.746094 50.042969 97.878906 50.164062 98.777344 50.757812 C 99.363281 51.121094 99.734375 51.753906 99.761719 52.449219 "/>
<path style=" stroke:none;fill-rule:nonzero;fill:rgb(100%,100%,100%);fill-opacity:1;" d="M 99.761719 89.273438 L 99.761719 89.5 C 99.761719 90.339844 99.140625 91.132812 98.171875 91.523438 C 97.519531 91.808594 96.894531 92.144531 96.300781 92.539062 C 94.535156 93.632812 92.332031 94.984375 88.167969 94.984375 C 84 94.984375 81.804688 93.632812 80.03125 92.539062 C 78.589844 91.652344 77.640625 91.066406 75.445312 91.066406 C 73.246094 91.066406 72.296875 91.652344 70.855469 92.539062 C 69.089844 93.632812 66.886719 94.984375 62.71875 94.984375 C 58.554688 94.984375 56.355469 93.632812 54.585938 92.539062 C 53.144531 91.652344 52.195312 91.066406 49.996094 91.066406 C 47.796875 91.066406 46.847656 91.652344 45.40625 92.539062 C 43.640625 93.632812 41.4375 94.984375 37.273438 94.984375 C 33.105469 94.984375 30.90625 93.632812 29.136719 92.539062 C 27.699219 91.652344 26.746094 91.066406 24.546875 91.066406 C 22.351562 91.066406 21.402344 91.652344 19.957031 92.539062 C 18.191406 93.632812 15.992188 94.984375 11.824219 94.984375 C 7.660156 94.984375 5.460938 93.632812 3.6875 92.539062 C 3.097656 92.148438 2.46875 91.808594 1.820312 91.523438 C 0.859375 91.136719 0.230469 90.339844 0.230469 89.5 L 0.230469 89.273438 C 0.253906 88.578125 0.621094 87.9375 1.207031 87.574219 C 2.109375 86.980469 3.238281 86.851562 4.238281 87.246094 C 5.285156 87.667969 6.28125 88.191406 7.222656 88.804688 C 8.664062 89.695312 9.613281 90.277344 11.8125 90.277344 C 14.011719 90.277344 14.957031 89.695312 16.402344 88.804688 C 18.167969 87.710938 20.367188 86.355469 24.535156 86.355469 C 28.703125 86.355469 30.898438 87.726562 32.671875 88.804688 C 34.109375 89.695312 35.0625 90.277344 37.257812 90.277344 C 39.457031 90.277344 40.40625 89.695312 41.847656 88.804688 C 43.617188 87.710938 45.816406 86.355469 49.984375 86.355469 C 54.148438 86.355469 56.347656 87.726562 58.117188 88.804688 C 59.558594 89.695312 60.507812 90.277344 62.707031 90.277344 C 64.90625 90.277344 65.855469 89.695312 67.296875 88.804688 C 69.0625 87.710938 71.261719 86.355469 75.429688 86.355469 C 79.597656 86.355469 81.796875 87.726562 83.566406 88.804688 C 85.007812 89.695312 85.957031 90.277344 88.15625 90.277344 C 90.351562 90.277344 91.300781 89.695312 92.746094 88.804688 C 93.683594 88.1875 94.6875 87.667969 95.726562 87.242188 C 96.730469 86.851562 97.863281 86.976562 98.757812 87.566406 C 99.359375 87.933594 99.730469 88.574219 99.761719 89.273438 "/>
</g>
</svg>
