<?xml version="1.0" encoding="UTF-8" standalone="no"?>
<svg
   width="2434.3008"
   height="2305.6003"
   viewBox="0 0 2434.3008 2305.6003"
   version="1.1"
   id="svg232730"
   sodipodi:docname="vecteezy_vector-design-foggy-icon-style_22530004.svg"
   xmlns:inkscape="http://www.inkscape.org/namespaces/inkscape"
   xmlns:sodipodi="http://sodipodi.sourceforge.net/DTD/sodipodi-0.dtd"
   xmlns="http://www.w3.org/2000/svg"
   xmlns:svg="http://www.w3.org/2000/svg">
  <sodipodi:namedview
     id="namedview232732"
     pagecolor="#ffffff"
     bordercolor="#000000"
     borderopacity="0.25"
     inkscape:showpageshadow="2"
     inkscape:pageopacity="0.0"
     inkscape:pagecheckerboard="0"
     inkscape:deskcolor="#d1d1d1"
     showgrid="false" />
  <defs
     id="defs232712" />
  <g
     id="mist"
     transform="translate(-719.39844,-783.79803)">
    <path
       fill-rule="nonzero"
       fill="#ffffff"
       fill-opacity="1"
       d="m 3153.6992,1433 c -0.1992,161 -130.5976,291.5 -291.5976,291.6016 H 1836.8984 c -161,-2 -290,-134.1016 -288.0976,-295.2032 1.6992,-138.1992 100.0976,-256.1992 235.8008,-282.6992 14.3984,-2.8008 24.0976,-16.3984 22.1992,-30.8984 -1.8008,-13.5 -2.6992,-27 -2.8008,-40.5 0.1992,-161.00002 130.8008,-291.50002 291.8008,-291.40236 C 2187.8984,784 2274.5,827.5 2329.5,901.5 c 9.1992,12.30078 26.5,14.69922 38.6992,5.5 2.1016,-1.60156 3.9024,-3.39844 5.5,-5.5 96.1992,-129.19922 279,-155.89844 408.1992,-59.69922 73.8008,55 117.3008,141.5 117.5,233.50002 0,13.5976 -1,27.1992 -2.8984,40.6992 -2,14.6016 7.6992,28.1992 22.1992,31 136.4024,27.1992 234.8008,146.8984 235,286"
       id="path232720" />
    <path
       fill-rule="nonzero"
       fill="#ffffff"
       fill-opacity="1"
       d="m 1748.6992,1075.3984 c 0,7.6016 0,15.3008 0.8008,23 -184.8984,50.5 -293.8008,241.3008 -243.3008,426.1016 22.5,82.6016 74.8008,153.8984 146.6992,200.1992 h -641.7968 c -161.00004,0 -291.70316,-130.5 -291.70316,-291.5 C 719.39844,1293.8008 818,1173.8984 954.80078,1147 969.19922,1144.1992 979,1130.6016 977,1116 954.69922,956.5 1066,809 1225.5,786.69922 1331.1016,771.89844 1436.3984,816 1500,901.60156 c 9.1992,12.29688 26.5,14.69922 38.6992,5.5 2.1016,-1.60156 3.9024,-3.40234 5.5,-5.5 C 1599,827.19922 1686,783.39844 1778.3008,783.80078 c 35.3008,-0.10156 70.1992,6.19922 103.3008,18.5 -84,65.69922 -133,166.39844 -132.9024,273.09762"
       id="path232722" />
    <path
       fill-rule="nonzero"
       fill="#ffffff"
       fill-opacity="1"
       d="m 3147.6016,2503.8008 v 5.5 c 0,20.3984 -15.1016,39.5976 -38.7032,49.0976 -15.8984,6.9024 -31.0976,15.1016 -45.5,24.7032 -43,26.5 -96.5,59.3984 -198,59.3984 -101.5,0 -154.8984,-32.8984 -198,-59.3984 -35.0976,-21.6016 -58.1992,-35.8008 -111.6992,-35.8008 -53.5,0 -76.5976,14.3008 -111.6992,35.8008 -43,26.5 -96.6016,59.3984 -198,59.3984 -101.3984,0 -154.8984,-32.8984 -198,-59.3984 -35.1016,-21.6016 -58.1992,-35.8008 -111.6992,-35.8008 -53.5,0 -76.6016,14.3008 -111.6992,35.8008 -43,26.5 -96.5,59.3984 -198,59.3984 -101.4024,0 -154.9024,-32.8984 -198,-59.3984 -35.1016,-21.6016 -58.2032,-35.8008 -111.7032,-35.8008 -53.5,0 -76.5976,14.3008 -111.6992,35.8008 -43,26.5 -96.5976,59.3984 -198,59.3984 -101.39842,0 -154.89842,-32.8984 -197.99998,-59.3984 -14.39844,-9.5 -29.69922,-17.8008 -45.5,-24.7032 C 740.30078,2549 725,2529.6992 725,2509.3008 v -5.5 c 0.60156,-16.9024 9.5,-32.4024 23.80078,-41.3008 21.89844,-14.3984 49.39844,-17.5 73.80078,-7.8984 25.39844,10.1992 49.69922,22.8984 72.59766,37.7968 35.10156,21.6016 58.19922,35.8008 111.69918,35.8008 53.5,0 76.6016,-14.3008 111.7032,-35.8008 43,-26.5 96.5,-59.3984 198,-59.3984 101.3984,0 154.8984,32.8984 198,59.3984 35.0976,21.6016 58.1992,35.8008 111.6992,35.8008 53.5,0 76.5976,-14.3008 111.6992,-35.8008 43,-26.5 96.6016,-59.3984 198,-59.3984 101.3984,0 154.8984,32.8984 198,59.3984 35.3984,21.6016 58.6016,36.2032 112.3008,36.2032 53.5976,0 76.5976,-14.3008 111.6992,-35.8008 43,-26.5 96.6016,-59.4024 198,-59.4024 101.3984,0 154.8984,32.9024 198,59.4024 35.1016,21.5976 58.1992,35.8008 111.6992,35.8008 53.5,0 76.6992,-14.3008 111.6992,-35.8008 22.9024,-15 47.3008,-27.6016 72.6016,-37.8008 24.3984,-9.5 52,-6.5 73.8008,7.8984 14.1992,8.9024 23.0976,24.2032 23.8008,40.9024"
       id="path232724" />
    <path
       fill-rule="nonzero"
       fill="#ffffff"
       fill-opacity="1"
       d="m 3147.6016,2056.8984 v 5.5 c 0,20.3008 -15.1016,39.6016 -38.7032,49 -15.7968,6.9024 -31.0976,15.1016 -45.5,24.7032 -43,26.5 -96.5976,59.3984 -198,59.3984 -101.3984,0 -154.8984,-32.8984 -198,-59.3984 -35.0976,-21.6016 -58.1992,-35.8008 -111.6992,-35.8008 -53.5,0 -76.5976,14.3008 -111.6992,35.8008 -42.6992,26.3984 -96.3984,59.2968 -197.6016,59.2968 -101.1992,0 -154.8984,-32.8984 -198,-59.3984 -35.0976,-21.6016 -58.1992,-35.8008 -111.6992,-35.8008 -53.5,0 -76.5976,14.3008 -111.6992,35.8008 -43.3008,26.5 -96.8008,59.3984 -198.3008,59.3984 -101.3984,0 -154.8984,-32.8984 -198,-59.3984 -35,-21.6016 -58.1992,-35.8008 -111.6992,-35.8008 -53.5,0 -76.6016,14.3008 -111.6992,35.8008 -43,26.5 -96.6016,59.3984 -198,59.3984 -101.40236,0 -154.90236,-32.8984 -198.00002,-59.3984 -14.40234,-9.5 -29.69922,-17.8008 -45.5,-24.6992 -23.40234,-9.4024 -38.69922,-28.6992 -38.69922,-49 v -5.5 c 0.59766,-16.9024 9.5,-32.4024 23.79688,-41.3008 21.90234,-14.3984 49.40234,-17.5 73.80078,-7.8984 25.5,10.1992 49.90234,22.8984 72.90234,38 35.09766,21.5976 58.19922,35.7968 111.69924,35.7968 53.5,0 76.5976,-14.2968 111.6992,-35.7968 43,-26.5 96.5,-59.4024 198,-59.4024 101.3984,0 154.8984,32.9024 198,59.4024 35,21.5976 58.1992,35.7968 111.6992,35.7968 53.5,0 76.6016,-14.2968 111.6992,-35.7968 43.1016,-26.5 96.6016,-59.2032 198,-59.2032 101.4024,0 154.9024,32.9024 198,59.4024 35.1016,21.5976 58.2032,35.8008 111.7032,35.8008 53.5,0 76.5976,-14.3008 111.6992,-35.8008 43,-26.5 96.5,-59.4024 198,-59.4024 101.5,0 154.8984,32.9024 198,59.4024 35.0976,21.5976 58.1992,35.8008 111.6992,35.8008 53.5,0 76.6016,-14.3008 111.6992,-35.8008 22.9024,-15 47.3008,-27.6016 72.6016,-37.8008 24.3984,-9.5 52,-6.5 73.8008,7.8984 14.2968,8.8008 23.2968,24.2032 24,41"
       id="path232726" />
    <path
       fill-rule="nonzero"
       fill="#ffffff"
       fill-opacity="1"
       d="m 3147.6016,2950.8008 v 5.5 c 0,20.3984 -15.1016,39.5976 -38.7032,49.0976 -15.8984,6.9024 -31.0976,15.1016 -45.5,24.7032 -43,26.5 -96.5976,59.2968 -198,59.2968 -101.3984,0 -154.8984,-32.7968 -198,-59.2968 -35.0976,-21.6016 -58.1992,-35.8008 -111.6992,-35.8008 -53.5,0 -76.5976,14.1992 -111.6992,35.8008 -43,26.5 -96.6016,59.2968 -198,59.2968 -101.3984,0 -154.8984,-32.7968 -198,-59.2968 -35.1016,-21.6016 -58.1992,-35.8008 -111.6992,-35.8008 -53.5,0 -76.6016,14.1992 -111.6992,35.8008 -43,26.5 -96.6016,59.2968 -198,59.2968 -101.4024,0 -154.9024,-32.7968 -198,-59.2968 -35,-21.6016 -58.2032,-35.8008 -111.7032,-35.8008 -53.5,0 -76.5976,14.1992 -111.6992,35.8008 -43,26.5 -96.5976,59.2968 -198,59.2968 -101.39842,0 -154.89842,-32.7968 -197.99998,-59.2968 -14.39844,-9.5 -29.69922,-17.8008 -45.5,-24.7032 C 740.30078,2996 725,2976.6992 725,2956.3008 v -5.5 c 0.60156,-16.9024 9.5,-32.4024 23.80078,-41.3008 21.89844,-14.3984 49.39844,-17.5 73.80078,-7.8984 25.39844,10.1992 49.69922,22.8984 72.59766,37.7968 35.10156,21.6016 58.19922,35.8008 111.69918,35.8008 53.5,0 76.6016,-14.1992 111.7032,-35.8008 43,-26.5 96.5,-59.3984 198,-59.3984 101.3984,0 154.8984,33.1992 198,59.3984 35,21.6016 58.1992,35.8008 111.6992,35.8008 53.5,0 76.5976,-14.1992 111.6992,-35.8008 43,-26.5 96.6016,-59.3984 198,-59.3984 101.3984,0 154.8984,33.1992 198,59.3984 35.1016,21.6016 58.1992,35.8008 111.6992,35.8008 53.5,0 76.6016,-14.1992 111.6992,-35.8008 43,-26.5 96.5,-59.3984 198,-59.3984 101.4024,0 154.9024,33.1992 198,59.3984 35.1016,21.6016 58.2032,35.8008 111.7032,35.8008 53.5,0 76.5976,-14.1992 111.6992,-35.8008 22.8984,-15 47.3008,-27.5976 72.5976,-37.8984 24.4024,-9.5 52,-6.5 73.8008,7.8984 14.6016,8.9024 23.6016,24.4024 24.4024,41.4024"
       id="path232728" />
  </g>
</svg>
