<?xml version="1.0" encoding="UTF-8" standalone="no"?>
<svg
   width="47.625809pt"
   height="45.803589pt"
   version="1.1"
   viewBox="0 0 47.625809 45.803589"
   id="svg6053"
   sodipodi:docname="Weather Icons-page001.svg"
   xmlns:inkscape="http://www.inkscape.org/namespaces/inkscape"
   xmlns:sodipodi="http://sodipodi.sourceforge.net/DTD/sodipodi-0.dtd"
   xmlns="http://www.w3.org/2000/svg"
   xmlns:svg="http://www.w3.org/2000/svg">
  <sodipodi:namedview
     id="namedview6055"
     pagecolor="#ffffff"
     bordercolor="#000000"
     borderopacity="0.25"
     inkscape:showpageshadow="2"
     inkscape:pageopacity="0.0"
     inkscape:pagecheckerboard="0"
     inkscape:deskcolor="#d1d1d1"
     inkscape:document-units="pt"
     showgrid="false" />
  <defs
     id="defs2330">
    <clipPath
       id="Clip8">
      <path
         d="M 0,0 H 48.8936 V 48.9597 H 0 Z"
         id="path554" />
    </clipPath>
    <linearGradient
       x2="23.339199"
       y2="22.666201"
       id="Grad76"
       x1="0.99103498"
       gradientUnits="userSpaceOnUse"
       y1="22.666201">
      <stop
         offset="0%"
         stop-color="#dceff6"
         stop-opacity="1"
         id="stop557" />
      <stop
         offset="100%"
         stop-color="#3f6e7a"
         stop-opacity="1"
         id="stop559" />
    </linearGradient>
    <linearGradient
       x2="3.9676001"
       y2="1.31833"
       id="Grad77"
       x1="0.18894"
       gradientUnits="userSpaceOnUse"
       y1="1.31833">
      <stop
         offset="0%"
         stop-color="#8cd0f2"
         stop-opacity="1"
         id="stop562" />
      <stop
         offset="90.303%"
         stop-color="#63bae9"
         stop-opacity="1"
         id="stop564" />
      <stop
         offset="100%"
         stop-color="#63bae9"
         stop-opacity="1"
         id="stop566" />
    </linearGradient>
    <linearGradient
       x2="3.9688499"
       y2="1.31833"
       id="Grad78"
       x1="0.19018801"
       gradientUnits="userSpaceOnUse"
       y1="1.31833">
      <stop
         offset="0%"
         stop-color="#8cd0f2"
         stop-opacity="1"
         id="stop569" />
      <stop
         offset="90.303%"
         stop-color="#63bae9"
         stop-opacity="1"
         id="stop571" />
      <stop
         offset="100%"
         stop-color="#63bae9"
         stop-opacity="1"
         id="stop573" />
    </linearGradient>
    <linearGradient
       x2="3.9687901"
       y2="1.31838"
       id="Grad79"
       x1="0.19013301"
       gradientUnits="userSpaceOnUse"
       y1="1.31838">
      <stop
         offset="0%"
         stop-color="#8cd0f2"
         stop-opacity="1"
         id="stop576" />
      <stop
         offset="90.303%"
         stop-color="#63bae9"
         stop-opacity="1"
         id="stop578" />
      <stop
         offset="100%"
         stop-color="#63bae9"
         stop-opacity="1"
         id="stop580" />
    </linearGradient>
    <linearGradient
       x2="5.0142298"
       y2="1.66625"
       id="Grad80"
       x1="0.239583"
       gradientUnits="userSpaceOnUse"
       y1="1.66625">
      <stop
         offset="0%"
         stop-color="#8cd0f2"
         stop-opacity="1"
         id="stop583" />
      <stop
         offset="90.303%"
         stop-color="#63bae9"
         stop-opacity="1"
         id="stop585" />
      <stop
         offset="100%"
         stop-color="#63bae9"
         stop-opacity="1"
         id="stop587" />
    </linearGradient>
    <linearGradient
       x2="5.0145702"
       y2="1.66591"
       id="Grad81"
       x1="0.239923"
       gradientUnits="userSpaceOnUse"
       y1="1.66591">
      <stop
         offset="0%"
         stop-color="#8cd0f2"
         stop-opacity="1"
         id="stop590" />
      <stop
         offset="90.303%"
         stop-color="#63bae9"
         stop-opacity="1"
         id="stop592" />
      <stop
         offset="100%"
         stop-color="#63bae9"
         stop-opacity="1"
         id="stop594" />
    </linearGradient>
    <linearGradient
       x2="5.0149398"
       y2="1.66643"
       id="Grad82"
       x1="0.240298"
       gradientUnits="userSpaceOnUse"
       y1="1.66643">
      <stop
         offset="0%"
         stop-color="#8cd0f2"
         stop-opacity="1"
         id="stop597" />
      <stop
         offset="90.303%"
         stop-color="#63bae9"
         stop-opacity="1"
         id="stop599" />
      <stop
         offset="100%"
         stop-color="#63bae9"
         stop-opacity="1"
         id="stop601" />
    </linearGradient>
    <linearGradient
       x2="5.0144701"
       y2="1.66576"
       id="Grad83"
       x1="0.239821"
       gradientUnits="userSpaceOnUse"
       y1="1.66576">
      <stop
         offset="0%"
         stop-color="#8cd0f2"
         stop-opacity="1"
         id="stop604" />
      <stop
         offset="90.303%"
         stop-color="#63bae9"
         stop-opacity="1"
         id="stop606" />
      <stop
         offset="100%"
         stop-color="#63bae9"
         stop-opacity="1"
         id="stop608" />
    </linearGradient>
    <linearGradient
       x2="5.01442"
       y2="1.66611"
       id="Grad84"
       x1="0.240078"
       gradientUnits="userSpaceOnUse"
       y1="1.66611">
      <stop
         offset="0%"
         stop-color="#8cd0f2"
         stop-opacity="1"
         id="stop611" />
      <stop
         offset="90.303%"
         stop-color="#63bae9"
         stop-opacity="1"
         id="stop613" />
      <stop
         offset="100%"
         stop-color="#63bae9"
         stop-opacity="1"
         id="stop615" />
    </linearGradient>
    <linearGradient
       x2="5.0143399"
       y2="1.66592"
       id="Grad85"
       x1="0.239693"
       gradientUnits="userSpaceOnUse"
       y1="1.66592">
      <stop
         offset="0%"
         stop-color="#8cd0f2"
         stop-opacity="1"
         id="stop618" />
      <stop
         offset="90.303%"
         stop-color="#63bae9"
         stop-opacity="1"
         id="stop620" />
      <stop
         offset="100%"
         stop-color="#63bae9"
         stop-opacity="1"
         id="stop622" />
    </linearGradient>
    <linearGradient
       x2="5.01478"
       y2="1.66616"
       id="Grad86"
       x1="0.240436"
       gradientUnits="userSpaceOnUse"
       y1="1.66616">
      <stop
         offset="0%"
         stop-color="#8cd0f2"
         stop-opacity="1"
         id="stop625" />
      <stop
         offset="90.303%"
         stop-color="#63bae9"
         stop-opacity="1"
         id="stop627" />
      <stop
         offset="100%"
         stop-color="#63bae9"
         stop-opacity="1"
         id="stop629" />
    </linearGradient>
    <linearGradient
       x2="5.0144601"
       y2="1.66607"
       id="Grad87"
       x1="0.239812"
       gradientUnits="userSpaceOnUse"
       y1="1.66607">
      <stop
         offset="0%"
         stop-color="#8cd0f2"
         stop-opacity="1"
         id="stop632" />
      <stop
         offset="90.303%"
         stop-color="#63bae9"
         stop-opacity="1"
         id="stop634" />
      <stop
         offset="100%"
         stop-color="#63bae9"
         stop-opacity="1"
         id="stop636" />
    </linearGradient>
    <linearGradient
       x2="5.0142002"
       y2="1.66575"
       id="Grad88"
       x1="0.239859"
       gradientUnits="userSpaceOnUse"
       y1="1.66575">
      <stop
         offset="0%"
         stop-color="#8cd0f2"
         stop-opacity="1"
         id="stop639" />
      <stop
         offset="90.303%"
         stop-color="#63bae9"
         stop-opacity="1"
         id="stop641" />
      <stop
         offset="100%"
         stop-color="#63bae9"
         stop-opacity="1"
         id="stop643" />
    </linearGradient>
  </defs>
  <g
     inkscape:groupmode="layer"
     id="Background"
     inkscape:label="Background"
     transform="translate(-92.502106,-160.53909)">
    <g
       id="rain"
       style="fill:none;stroke:none"
       clip-path="url(#Clip8)"
       clip-rule="evenodd"
       transform="translate(92.5021,157.383)">
      <path
         d="m 28.9974,23.955 c -1.3109,0 -2.3317,-0.0438 -2.9584,-0.0806 C 25.3364,23.833 24.4239,23.8012 23.3669,23.7643 15.4873,23.4895 0.820234,22.9785 0.00798737,16.4851 l -0.0045288,-0.0348 -8.568e-4,-0.0347 C -0.156518,11.8114 7.02653,10.0902 9.58592,9.62382 9.0312,7.11683 9.24197,3.01177 13.2248,1.02008 14.5591,0.352757 16.1376,0 17.7891,0 c 2.9947,0 5.9838,1.16047 7.7065,2.94201 0.0391,-0.02816 0.0783,-0.05692 0.1199,-0.08581 1.0783,-0.77577 2.5569,-1.83808 4.7773,-1.83808 0.5361,0 1.0942,0.06377 1.6597,0.1896 2.5937,0.57638 3.5092,2.69843 3.7038,4.22684 2.4125,0.01775 9.8924,0.73097 11.6856,8.65084 0.4431,1.9544 0.0844,3.6741 -1.0637,5.1122 -3.3072,4.1392 -12.3085,4.7574 -17.3808,4.7574"
         style="fill:#738a92;fill-rule:nonzero;stroke:none"
         transform="translate(0,3.1561)"
         id="path2544" />
      <path
         d="m 12.0424,36.7507 -0.0041,0.0023 -0.0123,0.0068 -0.0203,0.011 -0.0281,0.0149 -0.0357,0.0186 -0.0432,0.0222 -0.0504,0.0252 -0.0574,0.0282 -0.0644,0.0308 -0.071,0.0332 -0.0776,0.0353 -0.0839,0.0374 -0.09,0.0388 -0.096,0.0402 -0.1018,0.0413 -0.1075,0.0422 -0.1128,0.0429 -0.1181,0.043 -0.1231,0.0431 -0.128,0.0431 -0.1327,0.0425 -0.1372,0.0419 -0.1415,0.0408 -0.1456,0.0397 -0.14967,0.0381 -0.15339,0.0364 -0.15698,0.0344 -0.16039,0.0322 -0.16363,0.0296 -0.16666,0.027 -0.16952,0.0237 -0.17221,0.0206 -0.17468,0.017 L 8.41556,37.7883 8.23643,37.7974 8.05534,37.8023 7.8725,37.8024 7.68808,37.7977 7.50226,37.7881 7.31524,37.7729 7.12717,37.7522 6.93826,37.7256 6.74868,37.6928 6.55862,37.6537 6.36826,37.6079 6.17779,37.5551 5.98738,37.4953 5.79722,37.428 5.6075,37.3529 5.41839,37.2701 5.23008,37.1789 5.04275,37.0792 4.85657,36.9709 4.67176,36.8535 4.48847,36.727 4.3069,36.5909 4.12722,36.4451 3.94962,36.2892 3.77428,36.1231 3.60139,35.9463 3.43112,35.7589 3.26366,35.5604 3.09919,35.3505 2.97268,35.1784 2.85081,35.0031 2.73353,34.8248 2.62085,34.6434 2.51274,34.4593 2.40916,34.2725 2.31009,34.0831 2.2155,33.8913 2.12538,33.6973 2.03969,33.5011 1.9584,33.3028 1.8815,33.1026 1.80895,32.9006 1.74074,32.6971 1.67682,32.4918 1.61719,32.2853 1.56181,32.0775 1.51066,31.8684 1.46371,31.6585 1.42093,31.4476 1.38231,31.2359 1.34781,31.0236 1.31742,30.8108 1.29109,30.5977 1.26881,30.3842 1.25056,30.1706 1.2363,29.957 1.22601,29.7436 1.21967,29.5305 1.21725,29.3176 l 0.00147,-0.2122 0.00534,-0.2118 0.00918,-0.2108 0.013,-0.21 0.01678,-0.2089 0.02055,-0.2079 0.0243,-0.2066 0.028,-0.2051 0.03171,-0.2036 0.03536,-0.2019 0.03898,-0.2002 0.04261,-0.1982 0.04619,-0.1962 0.04976,-0.194 L 1.63376,26.2583 1.69055,26.0691 1.75082,25.8823 1.81456,25.6982 1.88172,25.517 1.95229,25.3386 2.02623,25.1634 2.10354,24.9913 2.18418,24.8225 2.26811,24.6571 2.35532,24.4954 2.44578,24.3373 2.53947,24.1832 2.63636,24.0329 2.73642,23.8867 2.83963,23.7447 2.94596,23.607 3.0554,23.4739 3.1679,23.3454 3.10756,23.2806 3.04499,23.2152 2.98032,23.1491 2.91365,23.0824 2.84514,23.0149 2.77493,22.9465 2.70313,22.877 2.62989,22.8067 2.55533,22.7352 2.4796,22.6626 2.40282,22.5888 2.32513,22.5136 2.24666,22.4371 2.16756,22.3593 2.08794,22.28 2.00792,22.1991 1.92768,22.1165 1.84732,22.0322 1.76698,21.9463 1.68679,21.8584 1.6069,21.7687 1.52743,21.677 1.44851,21.5834 1.37027,21.4876 1.29286,21.3895 1.21641,21.2894 1.14104,21.1868 1.06689,21.0819 0.994095,20.9746 0.92279,20.8648 0.853105,20.7523 0.785175,20.6373 0.719133,20.5195 0.655112,20.3989 0.593245,20.2754 0.533665,20.1491 0.476507,20.0199 0.421902,19.8874 0.369986,19.7519 0.32089,19.6133 0.274749,19.4713 0.231695,19.3261 0.191861,19.1774 0.155382,19.0252 0.12239,18.8696 0.0930189,18.7103 0.0674019,18.5474 0.0456722,18.3807 0.0279631,18.2102 0.0144082,18.0359 0.00514041,17.8575 2.93254e-4,17.6752 0,17.4889 0.00439395,17.2983 0.0227025,17.0158 0.0566206,16.7471 0.105185,16.4919 0.167431,16.2498 0.242396,16.0207 0.329115,15.804 0.426626,15.5995 0.533965,15.4067 0.650167,15.2255 0.774269,15.0554 0.905308,14.8961 1.04232,14.7472 l 0.14202,-0.1386 0.14607,-0.1289 0.14915,-0.1195 0.15126,-0.1103 0.15243,-0.1016 0.1526,-0.0931 0.15185,-0.085 0.1501,-0.0772 0.14741,-0.0699 0.14373,-0.0626 0.13911,-0.056 0.13353,-0.0496 0.12696,-0.0434 0.11945,-0.0377 0.11097,-0.0323 0.10152,-0.0273 0.0911,-0.0225 0.07974,-0.0182 0.0674,-0.014 0.0541,-0.0104 0.03984,-0.007 0.0246,-0.0039 L 3.62568,13.4369 3.6238,13.4299 3.61835,13.4092 3.60967,13.3749 3.59808,13.3276 3.58391,13.2678 3.56746,13.1955 3.54907,13.1112 3.52906,13.0154 3.50776,12.9084 3.48549,12.7904 3.46256,12.662 3.43931,12.5235 3.41605,12.3751 3.39312,12.2174 3.37082,12.0505 3.3495,11.875 3.32946,11.6911 3.31104,11.4993 3.29456,11.2998 3.28032,11.0932 3.26867,10.8796 3.25993,10.6595 3.25442,10.4333 3.25245,10.2012 3.25436,9.96379 3.26047,9.72127 3.2711,9.47404 3.28657,9.22246 3.30721,8.96691 3.33334,8.70776 3.36529,8.44534 3.40337,8.18003 3.44791,7.91221 3.49923,7.6422 3.55765,7.37041 3.62352,7.09717 3.69713,6.82286 3.77881,6.54784 3.86889,6.27246 3.96771,5.99711 4.07555,5.72213 4.19278,5.44788 4.31968,5.17474 4.45661,4.90306 4.60387,4.63321 4.76179,4.36554 4.93069,4.10044 5.11091,3.83824 5.30275,3.57933 5.50654,3.32407 5.72262,3.07279 5.9513,2.8259 6.19289,2.58373 6.44773,2.34665 6.71614,2.11502 6.99844,1.88922 7.29495,1.66961 7.60601,1.45652 7.93192,1.25035 8.27303,1.05146 8.62964,0.860192 9.00208,0.67692 9.39067,0.502008 9.78371,0.346465 10.1694,0.220668 10.5477,0.12387 10.9188,0.0553231 11.2826,0.0142821 11.6393,0 l 0.3496,0.0117299 0.3424,0.0369955 0.3356,0.0615136 0.3286,0.085286 0.3216,0.108312 0.3148,0.130591 0.308,0.152123 0.3012,0.172907 0.2946,0.192947 0.2879,0.212235 0.2814,0.23079 0.2748,0.24859 0.2684,0.26563 0.262,0.28193 0.2555,0.29751 0.2492,0.3123 0.243,0.32638 0.2367,0.3397 0.2306,0.35227 0.2245,0.36409 0.2185,0.37517 0.2124,0.38551 0.2064,0.39508 0.2007,0.40393 0.1947,0.41202 0.189,0.41936 0.1832,0.42596 0.1776,0.43183 0.1719,0.43692 0.1663,0.44128 0.1608,0.44488 0.1554,0.44777 0.1499,0.44987 0.1446,0.45129 0.1393,0.4518 0.1339,0.4518 0.1287,0.4509 0.1237,0.4492 0.1184,0.4469 0.1135,0.4438 0.1086,0.4401 0.1035,0.4352 0.0985,0.43 0.0939,0.424 0.089,0.417 0.0843,0.4094 0.0796,0.4013 0.075,0.392 0.0704,0.3821 0.0659,0.3718 0.0614,0.3603 0.0571,0.3482 0.0526,0.3355 0.0483,0.3218 0.0442,0.3076 0.0398,0.2926 0.0357,0.2767 0.036,0.2781 0.0401,0.2968 0.044,0.3147 0.0478,0.3318 0.0509,0.3485 0.0539,0.3643 0.0566,0.3794 0.059,0.3939 0.0609,0.4076 0.0627,0.4206 0.0642,0.4329 0.0652,0.4447 0.066,0.4554 0.0663,0.4657 0.0666,0.4753 0.0665,0.4841 0.0658,0.4923 0.0651,0.4996 0.0639,0.5064 0.0626,0.5125 0.0608,0.5178 0.0588,0.5224 0.0563,0.5263 0.0536,0.5295 0.0506,0.5322 0.0473,0.5339 0.0437,0.535 0.0396,0.5355 0.0354,0.5351 0.0309,0.5343 0.0259,0.5326 0.0207,0.5301 0.0152,0.5272 0.0093,0.5233 0.003,0.5189 -0.0033,0.5137 -0.0101,0.5078 -0.0173,0.5013 -0.0247,0.494 -0.0325,0.4859 -0.0405,0.4774 -0.0488,0.4679 -0.0577,0.4579 -0.0665,0.4471 -0.0759,0.4356 -0.0856,0.4236 -0.0955,0.4105 -0.1057,0.397 -0.1164,0.3828 -0.1272,0.3677 -0.1385,0.3521 -0.15,0.3358 -0.1619,0.3186 -0.1741,0.3008 -0.1864,0.2824 -0.1994,0.2632 -0.2123,0.2433 -0.2259,0.2228 -0.2395,0.2014 -0.2536,0.1796 -0.2681,0.1568 -0.2827,0.1334 -0.2977,0.1094 -0.2239,0.0419 -0.2214,0.0264 -0.219,0.0114 -0.2162,-0.0033 -0.2137,-0.0172 -0.2111,-0.0309 -0.2083,-0.0441 -0.2056,-0.0566 -0.203,-0.0688 -0.2001,-0.0806 -0.1973,-0.0916 -0.1944,-0.1024 -0.1915,-0.1126 -0.1886,-0.1222 -0.1857,-0.1316 -0.1826,-0.1404 -0.1796,-0.1486 -0.1766,-0.1564 -0.1735,-0.1638 -0.1702,-0.1706 -0.1671,-0.1769 -0.164,-0.1829 -0.1606,-0.1881 -0.1574,-0.1931 -0.1541,-0.1975 -0.1508,-0.2014 -0.1474,-0.2049 -0.1439,-0.2079 -0.1405,-0.2104 -0.137,-0.2122 -0.1334,-0.214 -0.13,-0.2148 -0.1263,-0.2154 -0.1228,-0.2156 -0.119,-0.215 L 13.6318,40.4269 13.5202,40.214 13.4123,40.0031 13.3083,39.7946 13.2081,39.5888 13.1117,39.3864 13.0193,39.1877 12.9308,38.9933 12.8464,38.8039 12.7658,38.6195 12.6893,38.4409 12.617,38.2685 12.5487,38.1029 12.4846,37.9444 12.4247,37.7936 12.369,37.6509 12.3175,37.5168 12.2704,37.392 12.2275,37.2766 12.189,37.1714 12.155,37.0767 12.1253,36.9931 12.1001,36.9211 12.0794,36.861 12.0633,36.8135 12.0517,36.7789 12.0447,36.7578 Z"
         style="fill:url(#Grad76);fill-rule:evenodd;stroke:none"
         transform="rotate(100.513,21.00811,24.463028)"
         id="path2546" />
      <path
         d="m 0,14.2338 c 2.89072,-2.8066 11.0415,-3.2605 11.0415,-3.2605 0,0 -3.09358,-7.01055 1.9815,-9.54815 4.014,-2.007109 8.8946,0.43807 11.0641,3.27628 1.3354,-0.83513 3.011,-3.26135 6.3978,-2.50883 3.2987,0.7333 2.1323,4.51595 2.1323,4.51595 0,0 10.9168,-0.69254 12.9205,8.15355 0.0906,0.3997 0.142,0.7799 0.1603,1.1422 0.1751,-0.7525 0.1763,-1.5894 -0.0355,-2.5221 C 43.6601,4.63607 33.9966,5.45407 33.9966,5.45407 c 0,0 0.164,-3.53185 -3.1359,-4.26502 C 27.4739,0.436409 25.6734,2.3609 24.338,3.19616 22.1685,0.358073 16.5607,-1.06887 12.5469,0.938249 7.47154,3.47584 9.53851,9.47589 9.53851,9.47589 c 0,0 -8.01316,1.04591 -9.53851,4.75791"
         style="fill:#dbeff8;fill-rule:nonzero;stroke:none"
         transform="translate(1.02415,3.93023)"
         id="path2548" />
      <path
         d="M 1.40245,4.90702 C 0.53904,4.76626 -0.0495818,3.99024 0.003295,3.06245 0.0627814,2.02327 1.56218,0.49572 1.73293,0.325584 L 2.05802,0 2.29217,0.396576 C 2.42069,0.614448 3.54371,2.56183 3.31703,3.58265 3.11103,4.51166 2.32351,5.05512 1.40245,4.90702"
         style="fill:#2489ca;fill-rule:nonzero;stroke:none"
         transform="translate(11.9438,37.705)"
         id="path2550" />
      <path
         d="M 3.07432,0.124231 3.25373,0.224064 3.41104,0.340178 3.54576,0.470839 3.65745,0.614312 3.74565,0.768864 3.80991,0.932763 3.84977,1.10427 3.86478,1.28166 3.8545,1.46319 3.81844,1.64714 3.75619,1.83175 3.67041,2.00583 3.5648,2.1593 3.4415,2.29189 3.30263,2.40339 3.15034,2.49351 2.98674,2.56203 2.81399,2.60867 2.63417,2.6332 2.44946,2.63537 2.26196,2.6149 2.07382,2.57158 1.9374,2.52056 1.79785,2.44782 1.65629,2.35597 1.51379,2.24767 1.37148,2.12554 1.23041,1.99221 1.09171,1.85031 0.956443,1.70247 0.825721,1.55135 0.700632,1.39955 0.582268,1.2497 0.471722,1.10447 0.37009,0.966454 0.278461,0.838304 0.197929,0.722647 0.12959,0.622116 0.0745339,0.539342 0.0338549,0.47696 0.0086459,0.4376 0,0.423894 0.0113544,0.420366 0.0443713,0.410303 0.097481,0.394492 0.169114,0.373717 0.2577,0.34876 0.36167,0.32041 0.479454,0.28945 0.609482,0.256664 0.750185,0.222839 0.899994,0.188757 1.05734,0.155204 1.22065,0.122965 1.38835,0.092825 1.55889,0.065568 1.73067,0.041979 1.90214,0.022843 2.07174,0.00894469 2.23788,0.00106875 2.39899,0 2.55352,0.00652321 2.69989,0.0214232 2.83652,0.0454846 2.96186,0.0794923 Z"
         style="fill:url(#Grad77);fill-rule:evenodd;stroke:none"
         transform="rotate(76.9822,-16.8407,28.111532)"
         id="path2552" />
      <path
         d="M 1.4023,4.90702 C 0.539378,4.76626 -0.0493669,3.99024 0.00326511,3.06245 0.0620171,2.02327 1.56142,0.49572 1.73278,0.325584 L 2.05836,0 2.29215,0.396576 C 2.42067,0.615672 3.54308,2.56183 3.31664,3.58265 3.111,4.51166 2.32275,5.05634 1.4023,4.90702"
         style="fill:#2489ca;fill-rule:nonzero;stroke:none"
         transform="translate(25.6735,41.563)"
         id="path2554" />
      <path
         d="M 3.07424,0.124552 3.2537,0.224233 3.41102,0.340217 3.54577,0.470768 3.65747,0.614148 3.7457,0.768623 3.80997,0.932457 3.84985,1.10391 3.86487,1.28126 3.85458,1.46274 3.81855,1.64666 3.7563,1.83124 3.67048,2.00545 3.56484,2.15906 3.44151,2.29181 3.30262,2.40345 3.15029,2.49369 2.98668,2.56231 2.81389,2.60902 2.63408,2.63357 2.44937,2.6357 2.2619,2.61515 2.0738,2.57166 1.93735,2.52071 1.7978,2.44801 1.65622,2.3562 1.51373,2.24792 1.37141,2.12579 1.23034,1.99246 1.09164,1.85057 0.956379,1.70272 0.82566,1.55157 0.700577,1.39974 0.582219,1.24988 0.471682,1.10461 0.370056,0.966565 0.278434,0.838384 0.19791,0.722696 0.129576,0.622137 0.0745259,0.53934 0.0338511,0.476939 0.0086449,0.437567 0,0.423858 0.0113549,0.420326 0.0443728,0.410259 0.0974843,0.39444 0.169119,0.373655 0.257707,0.348689 0.36168,0.320328 0.479467,0.289357 0.609497,0.256561 0.750203,0.222726 0.900012,0.188637 1.05736,0.15508 1.22067,0.122838 1.38837,0.0927001 1.5589,0.0654494 1.73069,0.0418718 1.90216,0.0227527 2.07174,0.00887739 2.23788,0.00103138 2.39899,0 2.55351,0.00656866 2.69985,0.0215227 2.83647,0.0456476 2.96179,0.0797287 Z"
         style="fill:url(#Grad78);fill-rule:evenodd;stroke:none"
         transform="rotate(76.9822,-12.401822,38.67357)"
         id="path2556" />
      <path
         d="M 1.4022,4.90702 C 0.53904,4.76748 -0.0495818,3.99146 0.00329501,3.06245 0.0627814,2.02327 1.56206,0.49572 1.73293,0.325584 L 2.05802,0 2.29205,0.396576 C 2.42045,0.615672 3.54383,2.56306 3.31703,3.58265 3.11078,4.51166 2.32326,5.05634 1.4022,4.90702"
         style="fill:#2489ca;fill-rule:nonzero;stroke:none"
         transform="translate(16.8905,44.0282)"
         id="path2558" />
      <path
         d="M 3.07426,0.124243 3.25371,0.22396 3.41103,0.339984 3.54577,0.470579 3.65747,0.614006 3.74567,0.768529 3.80993,0.932411 3.8498,1.10391 3.86482,1.28131 3.85452,1.46284 3.81848,1.64679 3.75621,1.83141 3.67042,2.00551 3.56481,2.15901 3.44153,2.29165 3.30269,2.40318 3.15045,2.49334 2.98694,2.56188 2.81428,2.60856 2.63462,2.63313 2.45011,2.63533 2.26286,2.61492 2.07502,2.57162 1.93842,2.52055 1.79873,2.44776 1.65703,2.35587 1.51442,2.24753 1.37199,2.12538 1.23083,1.99202 1.09205,1.8501 0.956713,1.70225 0.825931,1.55111 0.700791,1.3993 0.582385,1.24946 0.471807,1.10422 0.370147,0.966212 0.278498,0.838063 0.197953,0.722408 0.129602,0.62188 0.0745395,0.539111 0.0338568,0.476731 0.00864624,0.437372 0,0.423668 0.0113604,0.42014 0.0443941,0.410083 0.0975298,0.394277 0.169196,0.37351 0.257822,0.348565 0.361836,0.320227 0.479668,0.28928 0.609745,0.256509 0.750497,0.222697 0.900351,0.188632 1.05774,0.155095 1.22109,0.122872 1.38882,0.0927477 1.55938,0.0655062 1.73118,0.041932 1.90266,0.0228099 2.07224,0.00892415 2.23835,0.00105935 2.39943,0 2.5539,0.00653063 2.70019,0.0214358 2.83673,0.0454999 2.96195,0.0795075 Z"
         style="fill:url(#Grad79);fill-rule:evenodd;stroke:none"
         transform="rotate(76.9822,-18.343443,34.383362)"
         id="path2560" />
      <path
         d="M 1.77168,6.19993 C 0.681095,6.02306 -0.0630977,5.04276 0.00422226,3.86943 0.0788863,2.5562 1.97241,0.62681 2.18906,0.411264 L 2.5991,0 2.89531,0.500983 C 3.05688,0.777485 4.47794,3.23772 4.1903,4.52745 3.93081,5.70078 2.9357,6.38855 1.77168,6.19993"
         style="fill:#2489ca;fill-rule:nonzero;stroke:none"
         transform="translate(30.6126,18.8331)"
         id="path2562" />
      <path
         d="M 3.88502,0.157971 4.05392,0.248232 4.20788,0.349896 4.34666,0.462097 4.47002,0.583966 4.57777,0.714636 4.66966,0.853242 4.74547,0.998916 4.805,1.15079 4.84799,1.308 4.87425,1.46968 4.88354,1.63496 4.87563,1.80296 4.85032,1.97284 4.80736,2.14371 4.74654,2.31473 4.6634,2.48975 4.56448,2.64874 4.45106,2.79154 4.32448,2.918 4.18602,3.02797 4.03698,3.12129 3.87867,3.1978 3.71242,3.25736 3.53949,3.29981 3.3612,3.32498 3.17887,3.33274 2.99379,3.32294 2.80726,3.29539 2.6206,3.24996 2.48826,3.20285 2.35343,3.13905 2.21673,3.06006 2.07878,2.9674 1.94022,2.86261 1.80168,2.74716 1.66378,2.62259 1.52714,2.49041 1.3924,2.35214 1.26018,2.20927 1.13112,2.06335 1.00583,1.91585 0.88495,1.76833 0.769102,1.62227 0.658916,1.47919 0.555018,1.34062 0.458037,1.20806 0.3686,1.08303 0.287335,0.967032 0.214868,0.861593 0.151829,0.768223 0.0988442,0.688434 0.0565413,0.623741 0.0255478,0.575657 0.00649156,0.545697 0,0.535374 0.00922827,0.532499 0.0362357,0.524212 0.0800059,0.511024 0.139523,0.49344 0.21377,0.47197 0.301732,0.44712 0.402392,0.419399 0.514734,0.389316 0.637742,0.357379 0.770399,0.324093 0.911689,0.28997 1.0606,0.255516 1.21611,0.221239 1.3772,0.187649 1.54286,0.155251 1.71208,0.124554 1.88382,0.0960683 2.0571,0.0702993 2.23087,0.0477561 2.40413,0.0289464 2.57587,0.0143786 2.74505,0.00456035 2.91068,0 3.07174,0.00120547 3.2272,0.00868482 3.37605,0.0229461 3.51726,0.0444973 3.64985,0.0738465 3.77277,0.111502 Z"
         style="fill:url(#Grad80);fill-rule:evenodd;stroke:none"
         transform="rotate(76.9703,4.5930858,30.878985)"
         id="path2564" />
      <path
         d="M 1.77213,6.19993 C 0.681431,6.02294 -0.0628831,5.04276 0.00419211,3.86943 0.0789785,2.55608 1.97299,0.626688 2.18866,0.411019 L 2.5998,0 2.89478,0.500861 C 3.05758,0.777362 4.47742,3.23772 4.191,4.52709 3.93029,5.70078 2.93518,6.38855 1.77213,6.19993"
         style="fill:#2489ca;fill-rule:nonzero;stroke:none"
         transform="translate(22.2471,18.184)"
         id="path2566" />
      <path
         d="m 3.88506,0.157308 0.16897,0.090277 0.15401,0.101677 0.13881,0.112212 0.12341,0.121881 0.10776,0.130683 0.09191,0.138619 0.07582,0.14569 0.05953,0.151893 0.043,0.15724 0.02624,0.1617 L 4.8838,1.63449 4.87588,1.80255 4.85054,1.97246 4.80757,2.1434 4.74673,2.31447 4.66361,2.48941 4.5647,2.64833 4.4513,2.79107 4.32471,2.91751 4.18624,3.02745 4.0372,3.12077 3.8789,3.19728 3.71264,3.25684 3.53972,3.29929 3.36145,3.32447 3.17914,3.33223 2.99409,3.3224 2.8076,3.29484 2.62099,3.24939 2.48865,3.20231 2.3538,3.13856 2.21708,3.05962 2.07912,2.96702 1.94055,2.86228 1.80199,2.74689 1.66406,2.62237 1.52741,2.49025 1.39265,2.35204 1.26041,2.20923 1.13133,2.06336 1.00602,1.91594 0.885116,1.76846 0.769249,1.62246 0.659042,1.47944 0.555126,1.34092 0.458127,1.20841 0.368672,1.08342 0.287392,0.967467 0.214912,0.862066 0.15186,0.768727 0.0988644,0.688966 0.056553,0.624295 0.0255532,0.576229 0.00649292,0.546279 0,0.535958 0.0092275,0.533084 0.0362327,0.524796 0.0799995,0.511606 0.139512,0.49402 0.213754,0.472545 0.30171,0.447689 0.402363,0.419962 0.514697,0.389868 0.637698,0.357918 0.770348,0.324619 0.91163,0.29048 1.06053,0.256006 1.21603,0.221706 1.37712,0.188087 1.54278,0.15566 1.71198,0.124929 1.88374,0.0964032 2.05701,0.070591 2.23078,0.0479996 2.40405,0.0291372 2.57577,0.0145111 2.74497,0.00462952 2.91061,0 3.07166,0.00113042 3.22714,0.00852856 3.376,0.0227023 3.51724,0.0441592 3.64983,0.0734074 3.77278,0.110954 Z"
         style="fill:url(#Grad81);fill-rule:evenodd;stroke:none"
         transform="rotate(76.9703,0.81875684,25.293049)"
         id="path2568" />
      <path
         d="M 1.77186,6.20017 C 0.681403,6.02269 -0.0626665,5.04227 0.00416396,3.86968 0.0789503,2.55632 1.9726,0.626688 2.18802,0.410897 L 2.59929,0 2.89549,0.500738 C 3.05829,0.776995 4.47813,3.23809 4.19171,4.52696 3.931,5.70078 2.93589,6.38867 1.77186,6.20017"
         style="fill:#2489ca;fill-rule:nonzero;stroke:none"
         transform="translate(24.0493,27.4705)"
         id="path2570" />
      <path
         d="M 3.88478,0.157929 4.05384,0.248226 4.20792,0.349917 4.34678,0.46214 4.47022,0.584024 4.578,0.714705 4.66991,0.853315 4.74574,0.99899 4.80524,1.15086 4.8482,1.30806 4.87441,1.46973 4.88364,1.63499 4.87566,1.80299 4.85026,1.97284 4.80721,2.1437 4.7463,2.31468 4.66329,2.48974 4.56447,2.64874 4.45112,2.79154 4.32458,2.91798 4.18613,3.02793 4.03709,3.12121 3.87877,3.19769 3.71247,3.25719 3.5395,3.29959 3.36117,3.3247 3.17878,3.3324 2.99363,3.32251 2.80706,3.29491 2.62035,3.24941 2.48812,3.20236 2.35338,3.13861 2.21676,3.05967 2.07889,2.96706 1.94038,2.8623 1.80189,2.74689 1.66402,2.62236 1.52741,2.4902 1.39268,2.35196 1.26046,2.20912 1.1314,2.06321 1.0061,1.91576 0.885208,1.76824 0.769343,1.6222 0.659135,1.47914 0.555215,1.34059 0.458208,1.20803 0.368745,1.08301 0.287453,0.967024 0.21496,0.861592 0.151896,0.768225 0.0988897,0.688441 0.0565681,0.62375 0.0255604,0.575669 0.00649484,0.545709 0,0.535387 0.00922865,0.532512 0.036237,0.524227 0.0800088,0.511038 0.139527,0.493454 0.213778,0.471984 0.301742,0.447136 0.402403,0.419416 0.514748,0.389332 0.637758,0.357396 0.770416,0.324112 0.911709,0.289988 1.06062,0.255534 1.21612,0.221258 1.37722,0.187666 1.54288,0.155268 1.71208,0.124571 1.88383,0.0960833 2.0571,0.0703129 2.23086,0.0477677 2.40412,0.0289558 2.57583,0.0143853 2.74502,0.00456398 2.91062,0 3.07166,0.00120133 3.2271,0.00867598 3.37593,0.022932 3.51713,0.0444772 3.64967,0.0738199 3.77256,0.111468 Z"
         style="fill:url(#Grad82);fill-rule:evenodd;stroke:none"
         transform="rotate(76.9703,-4.1203891,31.069765)"
         id="path2572" />
      <path
         d="M 1.77276,6.19944 C 0.682172,6.02318 -0.0620203,5.04276 0.00407568,3.86894 0.0799637,2.55559 1.97349,0.626688 2.18892,0.410897 L 2.60018,0 2.89516,0.500861 C 3.05796,0.776995 4.4778,3.23736 4.19138,4.52745 3.93067,5.70005 2.93556,6.38793 1.77276,6.19944"
         style="fill:#2489ca;fill-rule:nonzero;stroke:none"
         transform="translate(35.2554,27.3464)"
         id="path2574" />
      <path
         d="M 3.88514,0.15745 4.05397,0.247695 4.20785,0.349343 4.34657,0.461528 4.46988,0.583383 4.57756,0.714041 4.66941,0.852637 4.7452,0.998304 4.80471,1.15018 4.8477,1.30738 4.87398,1.46907 4.88329,1.63435 4.87545,1.80238 4.85021,1.97227 4.80735,2.14316 4.74666,2.3142 4.66343,2.4892 4.56446,2.64819 4.451,2.79098 4.3244,2.91744 4.18595,3.0274 4.03692,3.12072 3.87865,3.19725 3.7124,3.25682 3.53951,3.29927 3.36125,3.32445 3.17892,3.33222 2.99384,3.3224 2.80731,3.29485 2.6206,3.24941 2.48825,3.2023 2.35341,3.1385 2.2167,3.05951 2.07874,2.96685 1.94019,2.86204 1.80163,2.74661 1.66372,2.62203 1.52709,2.48985 1.39235,2.35157 1.26013,2.20871 1.13107,2.06278 1.00578,1.91529 0.884904,1.76776 0.769061,1.62171 0.658879,1.47864 0.554986,1.34006 0.458009,1.20751 0.368577,1.08247 0.287316,0.96648 0.214854,0.861042 0.151819,0.767672 0.0988371,0.687883 0.056537,0.623191 0.0255459,0.575107 0.00649106,0.545148 0,0.534824 0.00922892,0.531954 0.0362381,0.52368 0.0800114,0.510511 0.139532,0.492951 0.213785,0.471512 0.301753,0.446696 0.402419,0.419014 0.514768,0.388973 0.637782,0.357076 0.770448,0.323836 0.911747,0.289756 1.06066,0.255345 1.21618,0.221109 1.37728,0.187557 1.54295,0.155195 1.71218,0.12453 1.88393,0.0960687 2.05721,0.0703197 2.231,0.0477894 2.40425,0.0289852 2.57599,0.0144141 2.74519,0.00458327 2.91082,0 3.07187,0.00117141 3.22733,0.00860468 3.37618,0.022807 3.51741,0.0442855 3.64998,0.0735473 3.77289,0.1111 Z"
         style="fill:url(#Grad83);fill-rule:evenodd;stroke:none"
         transform="rotate(76.9703,1.5607341,38.055752)"
         id="path2576" />
      <path
         d="M 1.77246,6.19944 C 0.681024,6.02318 -0.0625563,5.04276 0.0041517,3.86894 0.0790605,2.55681 1.97271,0.62681 2.18838,0.411386 L 2.59989,0 2.89499,0.501106 C 3.05766,0.777485 4.47775,3.23736 4.19121,4.52745 3.93025,5.70127 2.93575,6.38916 1.77246,6.19944"
         style="fill:#2489ca;fill-rule:nonzero;stroke:none"
         transform="translate(16.3359,26.1713)"
         id="path2578" />
      <path
         d="M 3.88515,0.157245 4.05418,0.247648 4.20823,0.349425 4.3471,0.46171 4.47051,0.58364 4.5783,0.714352 4.67021,0.852981 4.74602,0.998663 4.80552,1.15053 4.8485,1.30773 4.8747,1.46939 4.88393,1.63464 4.87595,1.80263 4.85055,1.97249 4.8075,2.14336 4.74659,2.31436 4.66359,2.48938 4.56476,2.64839 4.45142,2.79121 4.32486,2.91767 4.18641,3.02766 4.03735,3.12098 3.87903,3.1975 3.71271,3.25706 3.53972,3.29951 3.36137,3.32468 3.17897,3.33243 2.99383,3.3226 2.80724,3.29503 2.62052,3.24957 2.48829,3.20251 2.35356,3.13876 2.21693,3.05983 2.07905,2.96722 1.94054,2.86247 1.80203,2.74707 1.66416,2.62254 1.52754,2.49041 1.3928,2.35217 1.26059,2.20934 1.1315,2.06344 1.0062,1.916 0.885295,1.7685 0.76942,1.62247 0.659204,1.47942 0.555272,1.34088 0.458256,1.20834 0.368784,1.08332 0.287483,0.967348 0.214983,0.861925 0.151913,0.768568 0.0989008,0.68879 0.0565746,0.624105 0.0255634,0.576028 0.00649558,0.54607 0,0.535748 0.00922886,0.532875 0.036238,0.524592 0.0800109,0.511407 0.139531,0.493826 0.213784,0.47236 0.30175,0.447515 0.402417,0.419798 0.514765,0.389717 0.63778,0.357779 0.770444,0.324493 0.911743,0.290366 1.06066,0.255905 1.21617,0.22162 1.37728,0.188015 1.54295,0.155599 1.71217,0.12488 1.88393,0.0963659 2.0572,0.0705637 2.23098,0.0479813 2.40425,0.0291261 2.57599,0.0145057 2.74519,0.00462782 2.91082,0 3.07187,0.00112984 3.22733,0.00852493 3.37618,0.0226928 3.51741,0.0441414 3.64998,0.0733778 3.77291,0.11091 Z"
         style="fill:url(#Grad84);fill-rule:evenodd;stroke:none"
         transform="rotate(76.9704,-7.1601539,25.569177)"
         id="path2580" />
      <path
         d="M 1.77222,6.19956 C 0.681389,6.0233 -0.0625582,5.04288 0.00414989,3.86906 0.0789362,2.55571 1.97295,0.626688 2.18862,0.411264 L 2.59964,0 2.89524,0.500616 C 3.05778,0.77724 4.47775,3.23748 4.19121,4.52758 3.93062,5.70017 2.93587,6.38806 1.77222,6.19956"
         style="fill:#2489ca;fill-rule:nonzero;stroke:none"
         transform="translate(19.5308,35.689)"
         id="path2582" />
      <path
         d="m 3.88537,0.157698 0.16882,0.090286 0.15389,0.101679 0.1387,0.112205 0.1233,0.121867 0.10769,0.130665 0.09185,0.138596 0.07579,0.145663 0.0595,0.151861 0.043,0.1572 L 4.87419,1.4694 4.8835,1.63468 4.87566,1.80271 4.85042,1.9726 4.80755,2.14352 4.74687,2.31457 4.66366,2.48948 4.56469,2.64839 4.45126,2.79114 4.32466,2.91756 4.1862,3.02752 4.03719,3.12083 3.87892,3.19735 3.71267,3.25692 3.53977,3.29937 3.36151,3.32456 3.17919,3.3323 2.99411,3.32247 2.80757,3.2949 2.62088,3.24943 2.48851,3.20236 2.35367,3.13861 2.21695,3.05967 2.07898,2.96706 1.94039,2.8623 1.80184,2.7469 1.66392,2.62237 1.52726,2.49023 1.39251,2.35199 1.26028,2.20916 1.1312,2.06326 1.0059,1.9158 0.885006,1.7683 0.769149,1.62227 0.658954,1.47922 0.55505,1.34066 0.458062,1.20812 0.368619,1.08311 0.287349,0.96713 0.214879,0.861705 0.151836,0.768345 0.0988486,0.688566 0.0565437,0.62388 0.0255489,0.575801 0.00649181,0.545844 0,0.535522 0.00922618,0.532648 0.0362276,0.524363 0.0799886,0.511174 0.139493,0.493593 0.213726,0.472123 0.301672,0.447275 0.402315,0.419555 0.514638,0.389473 0.637628,0.357534 0.770267,0.324249 0.91154,0.290123 1.06043,0.255667 1.21593,0.221386 1.37701,0.18779 1.54266,0.155384 1.71187,0.124679 1.88361,0.0961823 2.0569,0.0704004 2.23068,0.047842 2.40395,0.0290148 2.5757,0.0144269 2.74492,0.00458597 2.91057,0 3.07166,0.00117683 3.22717,0.00862434 3.37607,0.0228504 3.51736,0.0443629 3.65002,0.0736697 3.77303,0.111279 Z"
         style="fill:url(#Grad85);fill-rule:evenodd;stroke:none"
         transform="rotate(76.9703,-11.548487,32.337287)"
         id="path2584" />
      <path
         d="M 1.77209,6.19932 C 0.681267,6.02306 -0.0625575,5.04264 0.00415051,3.86882 0.0789369,2.55669 1.97295,0.626566 2.1885,0.411019 L 2.59976,0 2.89524,0.500738 C 3.05766,0.776995 4.47775,3.23724 4.19096,4.52733 3.93062,5.70115 2.93575,6.38781 1.77209,6.19932"
         style="fill:#2489ca;fill-rule:nonzero;stroke:none"
         transform="translate(7.53939,27.4701)"
         id="path2586" />
      <path
         d="M 3.88498,0.157421 4.05401,0.247801 4.20808,0.349554 4.34694,0.461818 4.47037,0.583728 4.57815,0.714422 4.67006,0.853036 4.74588,0.998708 4.80539,1.15057 4.84835,1.30777 4.87456,1.46944 4.88378,1.6347 4.8758,1.80271 4.85039,1.97259 4.80735,2.14348 4.74641,2.31454 4.66343,2.48949 4.56461,2.64844 4.45128,2.79121 4.32473,2.91765 4.18629,3.0276 4.03724,3.12091 3.8789,3.19742 3.7126,3.25697 3.53961,3.2994 3.36128,3.32457 3.17887,3.3323 2.99373,3.32245 2.80715,3.29487 2.62042,3.24939 2.48821,3.20233 2.35347,3.13858 2.21685,3.05965 2.07896,2.96705 1.94046,2.8623 1.80196,2.74691 1.66408,2.62238 1.52747,2.49025 1.39273,2.35203 1.26052,2.20921 1.13145,2.06332 1.00615,1.91588 0.885249,1.76839 0.769379,1.62238 0.659168,1.47933 0.555242,1.34079 0.458231,1.20826 0.368763,1.08326 0.287467,0.967287 0.214971,0.861871 0.151905,0.768519 0.0988949,0.688746 0.0565712,0.624065 0.0255618,0.57599 0.00649519,0.546036 0,0.535714 0.00922857,0.53284 0.0362368,0.524555 0.0800084,0.511368 0.139527,0.493786 0.213776,0.472316 0.30174,0.447467 0.402403,0.419748 0.514747,0.389663 0.637758,0.357723 0.770417,0.324435 0.911711,0.290305 1.06062,0.255843 1.21613,0.221555 1.37723,0.18795 1.54289,0.155536 1.71211,0.124819 1.88386,0.0963084 2.05713,0.0705113 2.2309,0.0479355 2.40417,0.0290887 2.5759,0.0144787 2.74508,0.00461321 2.91071,0 3.07175,0.00114681 3.2272,0.00856138 3.37604,0.0227515 3.51726,0.0442247 3.64983,0.0734891 3.77274,0.111052 Z"
         style="fill:url(#Grad86);fill-rule:evenodd;stroke:none"
         transform="rotate(76.9704,-12.375295,20.686223)"
         id="path2588" />
      <path
         d="M 1.77222,6.19993 C 0.681389,6.02306 -0.0625582,5.04276 0.00414989,3.86919 0.0790586,2.55632 1.97295,0.626688 2.18862,0.411142 L 2.59976,0 2.89524,0.500861 C 3.05778,0.777362 4.47787,3.23772 4.19121,4.52721 3.93074,5.70078 2.93587,6.38842 1.77222,6.19993"
         style="fill:#2489ca;fill-rule:nonzero;stroke:none"
         transform="translate(12.2966,18.8331)"
         id="path2590" />
      <path
         d="m 3.88491,0.157586 0.16897,0.09036 0.15399,0.101737 0.1388,0.112251 0.1234,0.121902 0.10776,0.130687 0.09191,0.138611 0.07584,0.14567 L 4.80511,1.15067 4.84812,1.30787 4.87437,1.46953 4.88365,1.6348 4.87574,1.80281 4.85042,1.9727 4.80746,2.14359 4.74662,2.31463 4.6635,2.48959 4.56458,2.64853 4.45119,2.79131 4.3246,2.91775 4.18613,3.0277 4.03709,3.12102 3.87878,3.19753 3.71251,3.25709 3.53958,3.29952 3.36129,3.32469 3.17895,3.33244 2.99386,3.32258 2.80732,3.29498 2.62065,3.24949 2.48831,3.20242 2.35348,3.13865 2.21679,3.05972 2.07884,2.96711 1.94028,2.86235 1.80174,2.74694 1.66383,2.62242 1.5272,2.49028 1.39245,2.35204 1.26023,2.20921 1.13116,2.06332 1.00587,1.91587 0.884986,1.76836 0.769135,1.62234 0.658945,1.47929 0.555044,1.34075 0.458059,1.20821 0.368617,1.0832 0.287349,0.967228 0.214879,0.861807 0.151837,0.768453 0.0988494,0.688676 0.0565443,0.623994 0.0255493,0.575918 0.00649191,0.545963 0,0.535641 0.00922742,0.532766 0.0362322,0.52448 0.0799986,0.511292 0.13951,0.493709 0.213751,0.472238 0.301706,0.447388 0.402357,0.419667 0.514691,0.389581 0.637688,0.357639 0.770335,0.324351 0.911617,0.290221 1.06051,0.25576 1.21601,0.221474 1.3771,0.187872 1.54275,0.15546 1.71196,0.124749 1.8837,0.0962437 2.05696,0.0704536 2.23073,0.0478861 2.40398,0.0290491 2.57571,0.0144505 2.74491,0.00459821 2.91054,0 3.07158,0.00116374 3.22705,0.00859727 3.3759,0.0228085 3.51713,0.0443051 3.64972,0.0735952 3.77266,0.111186 Z"
         style="fill:url(#Grad87);fill-rule:evenodd;stroke:none"
         transform="rotate(76.9703,-4.5647014,19.359812)"
         id="path2592" />
      <path
         d="M 1.77153,6.19956 C 0.680954,6.02208 -0.0620142,5.04288 0.00408177,3.86906 0.0787458,2.55571 1.97349,0.626688 2.18892,0.41004 L 2.60018,0 2.89516,0.500616 C 3.05796,0.77724 4.4778,3.23748 4.19138,4.52635 3.93067,5.70017 2.93556,6.38806 1.77153,6.19956"
         style="fill:#2489ca;fill-rule:nonzero;stroke:none"
         transform="translate(29.9004,34.4761)"
         id="path2594" />
      <path
         d="M 3.88434,0.157251 4.05335,0.247755 4.2074,0.349599 4.34625,0.461922 4.46968,0.583864 4.57749,0.714566 4.66944,0.85317 4.74531,0.998815 4.80489,1.15064 4.84795,1.30778 4.87426,1.4694 4.88363,1.6346 4.8758,1.80256 4.85059,1.9724 4.80774,2.14326 4.74705,2.31428 4.66381,2.48927 4.56479,2.64825 4.45127,2.79103 4.32459,2.91747 4.18604,3.02742 4.03695,3.12072 3.8786,3.19722 3.71231,3.25677 3.53938,3.29922 3.36113,3.32441 3.17885,3.33218 2.99387,3.32239 2.80748,3.29487 2.62099,3.24949 2.48861,3.20251 2.35374,3.13883 2.21701,3.05995 2.07903,2.96739 1.94043,2.86268 1.80186,2.74733 1.66393,2.62284 1.52727,2.49072 1.39251,2.3525 1.26028,2.2097 1.13119,2.06381 1.00589,1.91637 0.884999,1.76888 0.769141,1.62284 0.658945,1.4798 0.555041,1.34125 0.458054,1.20871 0.368611,1.08369 0.287343,0.967704 0.214873,0.862274 0.151832,0.768908 0.0988457,0.689123 0.0565419,0.624432 0.0255481,0.57635 0.00649158,0.54639 0,0.536068 0.00922633,0.533192 0.036228,0.524905 0.0799891,0.511713 0.139493,0.494124 0.213726,0.472648 0.301669,0.447789 0.402309,0.420058 0.514628,0.389962 0.637611,0.358008 0.770241,0.324704 0.911504,0.290559 1.06038,0.25608 1.21586,0.221774 1.37693,0.188151 1.54256,0.155716 1.71174,0.124979 1.88345,0.0964473 2.0567,0.0706282 2.23043,0.0480299 2.40367,0.0291601 2.57537,0.0145266 2.74454,0.0046373 2.91013,0 3.07116,0.00112251 3.2266,0.00851264 3.37542,0.0226783 3.51663,0.044127 3.6492,0.0733669 3.7721,0.110906 Z"
         style="fill:url(#Grad88);fill-rule:evenodd;stroke:none"
         transform="rotate(76.9704,-5.6005533,38.252545)"
         id="path2596" />
    </g>
  </g>
</svg>
