<?xml version="1.0" encoding="UTF-8" standalone="no"?>
<svg
   width="99.424484pt"
   height="119.37999pt"
   version="1.1"
   viewBox="0 0 99.424484 119.37999"
   id="svg233565"
   sodipodi:docname="Document-3-page001.svg"
   inkscape:version="1.2.2 (b0a8486541, 2022-12-01)"
   inkscape:export-filename="../Github Repos/own-weather-app/src/assets/icons/Document-3-page001.svg"
   inkscape:export-xdpi="96"
   inkscape:export-ydpi="96"
   xmlns:inkscape="http://www.inkscape.org/namespaces/inkscape"
   xmlns:sodipodi="http://sodipodi.sourceforge.net/DTD/sodipodi-0.dtd"
   xmlns="http://www.w3.org/2000/svg"
   xmlns:svg="http://www.w3.org/2000/svg">
  <sodipodi:namedview
     id="namedview233567"
     pagecolor="#00000f"
     bordercolor="#000000"
     borderopacity="0.25"
     inkscape:showpageshadow="2"
     inkscape:pageopacity="0"
     inkscape:pagecheckerboard="0"
     inkscape:deskcolor="#d1d1d1"
     inkscape:document-units="pt"
     showgrid="false"
     inkscape:zoom="0.7594697"
     inkscape:cx="408.17955"
     inkscape:cy="528"
     inkscape:window-width="1920"
     inkscape:window-height="1014"
     inkscape:window-x="0"
     inkscape:window-y="0"
     inkscape:window-maximized="1"
     inkscape:current-layer="Background" />
  <defs
     id="defs233522">
    <clipPath
       id="Clip4">
      <path
         d="M 0,0 H 99.4245 V 119.38 H 0 Z"
         id="path233513" />
    </clipPath>
  </defs>
  <g
     inkscape:groupmode="layer"
     id="Background"
     inkscape:label="Background"
     transform="translate(-187.201,-232.94499)">
    <g
       id="showers"
       style="fill:none;stroke:none"
       clip-path="url(#Clip4)"
       clip-rule="evenodd"
       transform="translate(187.201,232.945)"
       inkscape:export-filename="../Github Repos/own-weather-app/src/assets/icons/showers.svg"
       inkscape:export-xdpi="96"
       inkscape:export-ydpi="96">
      <path
         d="M 38.5847,0 C 25.092,0.00589688 13.9373,10.5203 13.1357,23.9899 5.62594,25.4842 0,32.0822 0,40.0434 0,49.1133 7.30097,56.4149 16.371,56.4149 h 57.5153 14.1254 c 6.3224,0 11.4128,-5.8551 11.4128,-13.1275 0,-7.2725 -5.0904,-13.127 -11.4128,-13.127 H 87.2483 C 85.7198,21.1283 77.8977,14.517 68.7368,14.5164 66.4833,14.5189 64.2473,14.9275 62.1387,15.7225 58.1846,6.20447 48.8915,9.5625e-4 38.5847,0"
         style="fill:#ffffff;fill-rule:nonzero;stroke:none"
         id="path233544" />
      <path
         d="m 6.12904,0 c 0,0 -1.20328,1.47565 -2.60897,2.63909 C 1.78766,4.07442 -0.223649,5.42879 0.0201944,7.64665 0.413851,11.2332 5.95213,10.7204 6.26769,7.01537 6.37288,5.76826 6.14976,4.33277 6.11947,3.36903 6.06051,1.46992 6.12904,0 6.12904,0 Z M 29.8074,0 c 0,0 -1.2064,1.47565 -2.6105,2.63909 -1.7324,1.43533 -3.7438,2.7897 -3.4999,5.00756 0.3952,3.58655 5.9319,3.07375 6.2475,-0.63128 C 30.0513,5.76826 29.8266,4.33277 29.7963,3.36903 29.7357,1.46992 29.8074,0 29.8074,0 Z m 23.6752,0 c 0,0 -1.2033,1.47565 -2.609,2.63909 -1.7324,1.43533 -3.7437,2.7897 -3.4999,5.00756 0.3937,3.58655 5.932,3.07375 6.2475,-0.63128 C 53.7264,5.76826 53.5033,4.33277 53.473,3.36903 53.4141,1.46992 53.4842,0 53.4842,0 Z m 23.6767,0 c 0,0 -1.2048,1.47565 -2.6089,2.63909 -1.7324,1.43533 -3.7438,2.7897 -3.4999,5.00756 0.3936,3.58655 5.9319,3.07375 6.2475,-0.63128 C 77.4032,5.76826 77.1801,4.33277 77.1498,3.36903 77.0892,1.46992 77.1593,0 77.1593,0 Z M 17.1244,20.6756 c 0,0 -1.205,1.4756 -2.6091,2.6389 -1.734,1.4355 -3.7453,2.7897 -3.5014,5.0076 0.3936,3.5867 5.932,3.0748 6.2475,-0.6302 0.1068,-1.2471 -0.1179,-2.6826 -0.1482,-3.6462 -0.059,-1.8993 0.0112,-3.3701 0.0112,-3.3701 z m 23.6767,0 c 0,0 -1.2065,1.4756 -2.6105,2.6389 -1.7325,1.4355 -3.7422,2.7897 -3.4999,5.0076 0.3952,3.5867 5.9319,3.0748 6.2475,-0.6302 0.1068,-1.2471 -0.118,-2.6826 -0.1482,-3.6462 -0.0606,-1.8993 0.0111,-3.3701 0.0111,-3.3701 z m 23.6752,0 c 0,0 -1.2033,1.4756 -2.6074,2.6389 -1.734,1.4355 -3.7453,2.7897 -3.5015,5.0076 0.3953,3.5867 5.932,3.0748 6.2475,-0.6302 0.1068,-1.2471 -0.1179,-2.6826 -0.1482,-3.6462 -0.059,-1.8993 0.0112,-3.3701 0.0112,-3.3701 z M 6.12904,41.3521 c 0,0 -1.20328,1.4756 -2.60897,2.6389 -1.73241,1.4355 -3.743719,2.7897 -3.4998756,5.0076 C 0.413851,52.5853 5.95213,52.0724 6.26769,48.3674 6.37288,47.1203 6.14976,45.6848 6.11947,44.7213 6.06051,42.822 6.12904,41.3521 6.12904,41.3521 Z m 23.67836,0 c 0,0 -1.2064,1.4756 -2.6105,2.6389 -1.7324,1.4355 -3.7438,2.7897 -3.4999,5.0076 0.3952,3.5867 5.9319,3.0738 6.2475,-0.6312 0.1068,-1.2471 -0.1179,-2.6826 -0.1482,-3.6461 -0.0606,-1.8993 0.0111,-3.3692 0.0111,-3.3692 z m 23.6752,0 c 0,0 -1.2033,1.4756 -2.609,2.6389 -1.7324,1.4355 -3.7437,2.7897 -3.4999,5.0076 0.3937,3.5867 5.932,3.0738 6.2475,-0.6312 0.1052,-1.2471 -0.1179,-2.6826 -0.1482,-3.6461 -0.0589,-1.8993 0.0112,-3.3692 0.0112,-3.3692 z"
         style="fill:#7ae2ff;fill-rule:nonzero;stroke:none"
         transform="translate(11.3624,67.946)"
         id="path233546" />
    </g>
  </g>
</svg>
