<?xml version="1.0" encoding="UTF-8" standalone="no"?>
<svg
   width="43.011192pt"
   height="47.288986pt"
   version="1.1"
   viewBox="0 0 43.011192 47.288986"
   id="svg6053"
   sodipodi:docname="Weather Icons-page001.svg"
   xmlns:inkscape="http://www.inkscape.org/namespaces/inkscape"
   xmlns:sodipodi="http://sodipodi.sourceforge.net/DTD/sodipodi-0.dtd"
   xmlns="http://www.w3.org/2000/svg"
   xmlns:svg="http://www.w3.org/2000/svg">
  <sodipodi:namedview
     id="namedview6055"
     pagecolor="#ffffff"
     bordercolor="#000000"
     borderopacity="0.25"
     inkscape:showpageshadow="2"
     inkscape:pageopacity="0.0"
     inkscape:pagecheckerboard="0"
     inkscape:deskcolor="#d1d1d1"
     inkscape:document-units="pt"
     showgrid="false" />
  <defs
     id="defs2330">
    <clipPath
       id="Clip16">
      <path
         d="M 0,0 H 43.0112 V 47.289 H 0 Z"
         id="path1422" />
    </clipPath>
  </defs>
  <g
     inkscape:groupmode="layer"
     id="Background"
     inkscape:label="Background"
     transform="translate(-95.903999,-250.382)">
    <g
       id="snowflakes"
       style="fill:none;stroke:none"
       clip-path="url(#Clip16)"
       clip-rule="evenodd"
       transform="translate(95.904,250.382)">
      <path
         d="m 20.2278,27.8716 c -2.8505,0 -5.1624,-2.3115 -5.1624,-5.1625 0,-2.8509 2.3119,-5.1618 5.1624,-5.1618 2.8506,0 5.1615,2.3109 5.1615,5.1618 0,2.851 -2.3109,5.1625 -5.1615,5.1625 z m 19.0258,0.9478 -0.5814,-2.1678 -6.4016,1.7153 -4.8054,-2.7755 c 0.3684,-0.9067 0.5728,-1.8973 0.5728,-2.9369 0,-1.0056 -0.1921,-1.9652 -0.5385,-2.849 l 4.7711,-2.754 6.4016,1.7149 0.5789,-2.1677 -4.2314,-1.1335 5.4346,-3.1383 -1.1224,-1.9437 -5.4346,3.1383 1.1335,-4.23256 -2.1677,-0.5814 -1.7149,6.40026 -4.7601,2.7491 C 25.1763,16.3025 23.3914,15.2192 21.3495,14.9255 V 9.4505 L 26.0344,4.76503 24.4481,3.1775 21.3495,6.27667 V 0 H 19.1054 V 6.27667 L 16.0058,3.1775 14.419,4.76503 19.1054,9.4505 v 5.475 c -2.0427,0.2937 -3.8276,1.377 -5.0388,2.9314 L 9.30595,15.1078 7.59088,8.70754 5.42318,9.28894 6.55734,13.5215 1.12253,10.3832 7.344e-4,12.3269 5.43627,15.4652 l -4.23369,1.1335 0.58091,2.1677 6.4014,-1.7149 4.77091,2.7553 c -0.3465,0.8825 -0.5387,1.8421 -0.5387,2.8477 0,1.0396 0.2045,2.0302 0.5728,2.9369 L 8.18342,28.3669 1.78349,26.6516 1.20258,28.8194 5.43627,29.9535 0,33.0916 l 1.12253,1.9436 5.43481,-3.1385 -1.13416,4.233 2.1677,0.5812 1.71507,-6.4007 4.82035,-2.7826 c 1.2098,1.5135 2.97,2.5671 4.9791,2.8565 v 5.5839 l -4.6864,4.6862 1.5868,1.5868 3.0996,-3.0992 v 6.2756 h 2.2441 v -6.2756 l 3.0986,3.0992 1.5863,-1.5868 -4.6849,-4.6862 v -5.5839 c 2.0085,-0.2894 3.7705,-1.3426 4.9798,-2.8565 l 4.8202,2.7826 1.7148,6.4007 2.1665,-0.5805 -1.1335,-4.2337 5.4358,3.139 1.1212,-1.9441 -5.4346,-3.1381 z"
         style="fill:#b0dce6;fill-rule:nonzero;stroke:#b0dce6;stroke-width:0.0332235;stroke-linecap:butt;stroke-linejoin:miter;stroke-dasharray:none"
         transform="translate(1.27786,0.935136)"
         id="path2996" />
      <path
         d="m 25.732,23.6443 c 0,2.3308 -1.8962,4.2264 -4.2263,4.2264 -2.33,0 -4.2256,-1.8956 -4.2256,-4.2264 0,-2.3308 1.8956,-4.2255 4.2256,-4.2255 2.3301,0 4.2263,1.8947 4.2263,4.2255 z m 15.9451,6.7719 -1.0661,-3.9756 -6.9303,1.8573 -3.7981,-2.1933 c 0.2448,-0.813 0.3697,-1.6578 0.3697,-2.5149 0,-0.8221 -0.1151,-1.6348 -0.3415,-2.4218 l 3.7699,-2.1763 6.9303,1.8556 1.0661,-3.9756 -2.956,-0.7907 4.2901,-2.4761 -2.06,-3.5656 -4.2876,2.4774 0.7907,-2.95471 -3.9744,-1.06611 -1.858,6.93152 -3.7515,2.1653 C 26.6978,16.3441 25.221,15.4848 23.5629,15.0882 V 10.7736 L 28.6366,5.70017 25.7259,2.7895 23.5629,4.95353 V 0 H 19.447 V 4.95353 L 17.2836,2.7895 14.374,5.70017 19.447,10.7736 v 4.3146 c -1.6581,0.3978 -3.1359,1.2559 -4.3064,2.5044 L 11.3875,15.4273 9.53043,8.49578 5.55451,9.56189 6.34717,12.5166 2.05828,10.0392 3.672e-4,13.6048 4.28939,16.0809 1.33465,16.8716 2.40039,20.8484 9.33018,18.9916 13.101,21.1679 c -0.2264,0.7833 -0.3407,1.5961 -0.3407,2.4218 0,0.8575 0.1238,1.7019 0.3669,2.5145 l -3.79763,2.1937 -6.93065,-1.8573 -1.065,3.9756 2.95473,0.792 L 0,33.6847 l 2.05681,3.5638 4.29036,-2.4767 -0.79192,2.9551 3.97518,1.0657 1.85707,-6.9307 3.8194,-2.205 c 1.1625,1.2099 2.617,2.0448 4.2401,2.4347 v 4.4239 l -5.073,5.0738 2.9096,2.91 2.1634,-2.1636 v 4.9533 h 4.1159 v -4.9533 l 2.163,2.1636 2.9107,-2.91 -5.0737,-5.0738 v -4.4239 c 1.6231,-0.3895 3.0773,-1.224 4.2414,-2.4347 l 3.8201,2.205 1.8568,6.9307 3.9731,-1.0654 -0.7907,-2.9547 4.2901,2.476 2.0575,-3.5638 -4.2901,-2.4765 z"
         style="fill:#89c1c3;fill-rule:nonzero;stroke:none"
         id="path2998" />
      <path
         d="m 20.2278,27.8716 c -2.8505,0 -5.1624,-2.3115 -5.1624,-5.1625 0,-2.8509 2.3119,-5.1618 5.1624,-5.1618 2.8506,0 5.1615,2.3109 5.1615,5.1618 0,2.851 -2.3109,5.1625 -5.1615,5.1625 z m 19.0258,0.9478 -0.5814,-2.1678 -6.4016,1.7153 -4.8054,-2.7755 c 0.3684,-0.9067 0.5728,-1.8973 0.5728,-2.9369 0,-1.0056 -0.1921,-1.9652 -0.5385,-2.849 l 4.7711,-2.754 6.4016,1.7149 0.5789,-2.1677 -4.2314,-1.1335 5.4346,-3.1383 -1.1224,-1.9437 -5.4346,3.1383 1.1335,-4.23256 -2.1677,-0.5814 -1.7149,6.40026 -4.7601,2.7491 C 25.1763,16.3025 23.3914,15.2192 21.3495,14.9255 V 9.4505 L 26.0344,4.76503 24.4481,3.1775 21.3495,6.27667 V 0 H 19.1054 V 6.27667 L 16.0058,3.1775 14.419,4.76503 19.1054,9.4505 v 5.475 c -2.0427,0.2937 -3.8276,1.377 -5.0388,2.9314 L 9.30595,15.1078 7.59088,8.70754 5.42318,9.28894 6.55734,13.5215 1.12253,10.3832 0,12.3269 l 5.43627,3.1383 -4.23369,1.1335 0.58091,2.1677 6.4014,-1.7149 4.77091,2.7553 c -0.3465,0.8825 -0.5387,1.8421 -0.5387,2.8477 0,1.0396 0.2045,2.0302 0.5728,2.9369 L 8.18342,28.3669 1.78349,26.6516 1.20258,28.8194 5.43627,29.9543 0,33.0916 l 1.12253,1.9436 5.43481,-3.1385 -1.13416,4.2337 2.1677,0.5805 1.71507,-6.4007 4.82035,-2.7826 c 1.2098,1.5139 2.97,2.5671 4.9791,2.8565 v 5.5839 l -4.6864,4.6862 1.5868,1.586 3.0996,-3.0984 v 6.2756 h 2.2441 v -6.2756 l 3.0986,3.0984 1.5863,-1.586 -4.6849,-4.6862 v -5.5839 c 2.0085,-0.2894 3.7705,-1.3426 4.9798,-2.8565 l 4.8202,2.7826 1.7148,6.4007 2.1665,-0.5805 -1.1335,-4.2337 5.4358,3.1385 1.1212,-1.9436 -5.4346,-3.1373 z"
         style="fill:#c8e5ec;fill-rule:nonzero;stroke:none"
         transform="translate(1.27786,0.935136)"
         id="path3000" />
    </g>
  </g>
</svg>
