<?xml version="1.0" encoding="UTF-8" standalone="no"?>
<svg
   width="56.211029pt"
   height="44.978912pt"
   version="1.1"
   viewBox="0 0 56.211029 44.978912"
   id="svg6053"
   sodipodi:docname="Weather Icons-page001.svg"
   xmlns:inkscape="http://www.inkscape.org/namespaces/inkscape"
   xmlns:sodipodi="http://sodipodi.sourceforge.net/DTD/sodipodi-0.dtd"
   xmlns="http://www.w3.org/2000/svg"
   xmlns:svg="http://www.w3.org/2000/svg">
  <sodipodi:namedview
     id="namedview6055"
     pagecolor="#ffffff"
     bordercolor="#000000"
     borderopacity="0.25"
     inkscape:showpageshadow="2"
     inkscape:pageopacity="0.0"
     inkscape:pagecheckerboard="0"
     inkscape:deskcolor="#d1d1d1"
     inkscape:document-units="pt"
     showgrid="false" />
  <defs
     id="defs2330">
    <clipPath
       id="Clip38">
      <path
         d="M 0,0 H 56.211 V 44.9789 H 0 Z"
         id="path1840" />
    </clipPath>
    <linearGradient
       x2="29.0576"
       y2="28.105499"
       id="Grad270"
       x1="-1.39153e-14"
       gradientUnits="userSpaceOnUse"
       y1="28.105499">
      <stop
         offset="0%"
         stop-color="#c7e6f9"
         stop-opacity="1"
         id="stop1843" />
      <stop
         offset="100%"
         stop-color="#e8f5fc"
         stop-opacity="1"
         id="stop1845" />
    </linearGradient>
    <linearGradient
       x2="27.909599"
       y2="27.531401"
       id="Grad271"
       x1="-4.1745799e-14"
       gradientUnits="userSpaceOnUse"
       y1="27.531401">
      <stop
         offset="0%"
         stop-color="#a1caed"
         stop-opacity="1"
         id="stop1848" />
      <stop
         offset="100%"
         stop-color="#d3ecfb"
         stop-opacity="1"
         id="stop1850" />
    </linearGradient>
    <linearGradient
       x2="0.126644"
       y2="0.004896"
       id="Grad272"
       x1="5.56611e-14"
       gradientUnits="userSpaceOnUse"
       y1="0.004896">
      <stop
         offset="0%"
         stop-color="#a1caed"
         stop-opacity="1"
         id="stop1853" />
      <stop
         offset="100%"
         stop-color="#d2e4f7"
         stop-opacity="1"
         id="stop1855" />
    </linearGradient>
    <linearGradient
       x2="9.7076702"
       y2="26.2903"
       id="Grad273"
       x1="0"
       gradientUnits="userSpaceOnUse"
       y1="26.2903">
      <stop
         offset="0%"
         stop-color="#a1caed"
         stop-opacity="1"
         id="stop1858" />
      <stop
         offset="100%"
         stop-color="#d2e4f7"
         stop-opacity="1"
         id="stop1860" />
    </linearGradient>
    <linearGradient
       x2="15.9191"
       y2="24.487301"
       id="Grad274"
       x1="-2.7830501e-14"
       gradientUnits="userSpaceOnUse"
       y1="24.487301">
      <stop
         offset="0%"
         stop-color="#c7e6f9"
         stop-opacity="1"
         id="stop1863" />
      <stop
         offset="100%"
         stop-color="#ffffff"
         stop-opacity="1"
         id="stop1865" />
    </linearGradient>
    <linearGradient
       x2="7.3645"
       y2="21.645201"
       id="Grad275"
       x1="1.39153e-14"
       gradientUnits="userSpaceOnUse"
       y1="21.645201">
      <stop
         offset="0%"
         stop-color="#a1caed"
         stop-opacity="1"
         id="stop1868" />
      <stop
         offset="100%"
         stop-color="#d2e4f7"
         stop-opacity="1"
         id="stop1870" />
    </linearGradient>
    <linearGradient
       x2="7.3898101"
       y2="10.3404"
       id="Grad276"
       x1="-0.001224"
       gradientUnits="userSpaceOnUse"
       y1="10.3404">
      <stop
         offset="0%"
         stop-color="#c7e6f9"
         stop-opacity="1"
         id="stop1873" />
      <stop
         offset="100%"
         stop-color="#f4fafe"
         stop-opacity="1"
         id="stop1875" />
    </linearGradient>
  </defs>
  <g
     inkscape:groupmode="layer"
     id="Background"
     inkscape:label="Background"
     transform="translate(-315.978,-254.66599)">
    <g
       id="snow_cloud"
       style="fill:none;stroke:none"
       clip-path="url(#Clip38)"
       clip-rule="evenodd"
       transform="translate(315.978,254.666)">
      <path
         d="M 5.05267,6.9604 C 4.3403,6.9604 3.7638,6.38255 3.7638,5.67055 c 0,-0.71115 0.5765,-1.28912 1.28887,-1.28912 0.71237,0 1.28887,0.57797 1.28887,1.28912 0,0.712 -0.5765,1.28985 -1.28887,1.28985 z M 9.80424,7.19847 9.65858,6.6555 8.06126,7.08488 6.86052,6.39197 C 6.9511,6.1648 7.0025,5.91657 7.0025,5.65745 7.0025,5.40702 6.95477,5.16687 6.86909,4.94631 L 8.06126,4.25695 9.65858,4.68792 9.80424,4.14483 8.7467,3.86172 10.1041,3.07909 9.82382,2.59219 8.46641,3.37763 8.74915,2.3207 8.20814,2.17505 7.77974,3.77286 6.59124,4.45928 C 6.28891,4.072 5.84215,3.80052 5.33297,3.72622 V 2.35987 L 6.50311,1.18936 6.10654,0.793519 5.33297,1.56794 V 0 H 4.77238 V 1.56794 L 3.99881,0.793519 3.60223,1.18936 4.77238,2.35987 V 3.72622 C 4.26319,3.80052 3.81766,4.072 3.5141,4.45928 L 2.3256,3.77286 1.8972,2.17505 1.35497,2.3207 1.63894,3.37763 0.28152,2.59219 0,3.07909 1.35864,3.86172 0.301104,4.14483 0.44676,4.68792 2.0453,4.25695 3.23626,4.94631 C 3.14935,5.16687 3.10284,5.40702 3.10284,5.65745 c 0,0.25912 0.05018,0.50735 0.14198,0.73452 L 2.0453,7.08488 0.44676,6.6555 0.301104,7.19847 1.35864,7.48023 0,8.2642 0.28152,8.74976 1.63894,7.96567 1.35497,9.02198 1.8972,9.16825 2.3256,7.56971 3.52879,6.8746 C 3.83112,7.25306 4.27054,7.51512 4.77238,7.58721 V 8.98343 L 3.60223,10.1525 3.99881,10.5499 4.77238,9.77535 V 11.3418 H 5.33297 V 9.77535 L 6.10654,10.5499 6.50311,10.1525 5.33297,8.98343 V 7.58721 C 5.83481,7.51512 6.27422,7.25453 6.57655,6.8746 L 7.77974,7.56971 8.20937,9.16825 8.74915,9.02198 8.46641,7.96567 9.82382,8.74976 10.1041,8.2642 8.7467,7.48023 Z"
         style="fill:#b0dce6;fill-rule:nonzero;stroke:#b0dce6;stroke-width:0.00829725;stroke-linecap:butt;stroke-linejoin:miter;stroke-dasharray:none"
         transform="translate(25.3466,31.9912)"
         id="path4984" />
      <path
         d="m 6.426,5.90433 c 0,0.58165 -0.47369,1.05558 -1.05509,1.05558 -0.5814,0 -1.05509,-0.47393 -1.05509,-1.05558 0,-0.58091 0.47369,-1.05472 1.05509,-1.05472 0.5814,0 1.05509,0.47381 1.05509,1.05472 z M 10.4089,7.59749 10.1421,6.60311 8.41133,7.06689 7.46273,6.52013 c 0.06242,-0.2038 0.0918,-0.41421 0.0918,-0.6289 0,-0.20514 -0.02815,-0.40832 -0.08446,-0.60551 L 8.41133,4.74263 10.1421,5.20702 10.4089,4.21338 9.6696,4.01607 10.7418,3.39733 10.2277,2.50785 9.15674,3.12659 9.35381,2.38913 8.36114,2.12131 7.89725,3.85303 6.95966,4.39318 C 6.66835,4.08167 6.2987,3.8676 5.88499,3.76784 V 2.69047 L 7.15183,1.42314 6.42478,0.698292 5.88499,1.23685 V 0 H 4.85561 V 1.23685 L 4.31705,0.698292 3.58877,1.42314 4.85561,2.69047 V 3.76784 C 4.44312,3.8676 4.07347,4.08167 3.78094,4.39318 L 2.84335,3.85303 2.38068,2.12131 1.38679,2.38913 1.58508,3.12659 0.51408,2.50785 0,3.39733 1.07222,4.01607 0.332928,4.21338 0.59976,5.20702 2.3305,4.74263 3.27175,5.28572 C 3.21667,5.48291 3.1873,5.68524 3.1873,5.89123 c 0,0.21469 0.02937,0.4251 0.0918,0.6289 L 2.3305,7.06689 0.59976,6.60311 0.332928,7.59749 1.07222,7.7948 0,8.41206 0.51408,9.30301 1.58508,8.68367 1.38679,9.42174 2.38068,9.68967 2.84335,7.95784 3.79807,7.40753 C 4.08694,7.70887 4.45169,7.91708 4.85561,8.0139 V 9.12039 L 3.58877,10.3863 4.31705,11.1127 4.85561,10.574 v 1.2353 H 5.88499 V 10.574 L 6.42478,11.1127 7.15183,10.3863 5.88499,9.12039 V 8.0139 C 6.28891,7.91708 6.65366,7.70887 6.94375,7.40753 L 7.89847,7.95784 8.36114,9.68967 9.35381,9.42174 9.15674,8.68367 10.2277,9.30301 10.7418,8.41206 9.6696,7.7948 Z"
         style="fill:#89c1c3;fill-rule:nonzero;stroke:none"
         transform="translate(25.0284,31.7574)"
         id="path4986" />
      <path
         d="M 5.05267,6.9604 C 4.3403,6.9604 3.7638,6.38255 3.7638,5.67055 c 0,-0.71115 0.5765,-1.28912 1.28887,-1.28912 0.71237,0 1.28887,0.57797 1.28887,1.28912 0,0.712 -0.5765,1.28985 -1.28887,1.28985 z M 9.80424,7.19847 9.65858,6.6555 8.06126,7.08488 6.86052,6.39197 C 6.9511,6.1648 7.0025,5.91657 7.0025,5.65745 7.0025,5.40702 6.95477,5.16687 6.86909,4.94631 L 8.06126,4.25695 9.65858,4.68792 9.80424,4.14483 8.7467,3.86172 10.1041,3.07909 9.82382,2.59219 8.46641,3.37763 8.74915,2.3207 8.20814,2.17505 7.77974,3.77286 6.59124,4.45928 C 6.28891,4.072 5.84215,3.80052 5.33297,3.72622 V 2.35987 L 6.50311,1.18936 6.10654,0.793519 5.33297,1.56794 V 0 H 4.77238 V 1.56794 L 3.99881,0.793519 3.60223,1.18936 4.77238,2.35987 V 3.72622 C 4.26319,3.80052 3.81766,4.072 3.5141,4.45928 L 2.3256,3.77286 1.8972,2.17505 1.35497,2.3207 1.63894,3.37763 0.28152,2.59219 0,3.07909 1.35864,3.86172 0.301104,4.14483 0.44676,4.68792 2.0453,4.25695 3.23626,4.94631 C 3.14935,5.16687 3.10284,5.40702 3.10284,5.65745 c 0,0.25912 0.05018,0.50735 0.14198,0.73452 L 2.0453,7.08488 0.44676,6.6555 0.301104,7.19847 1.35864,7.48023 0,8.2642 0.28152,8.74976 1.63894,7.96567 1.35497,9.02198 1.8972,9.16825 2.3256,7.56971 3.52879,6.8746 C 3.83112,7.25453 4.27054,7.51512 4.77238,7.58721 V 8.98343 L 3.60223,10.1525 3.99881,10.5492 4.77238,9.77535 V 11.3418 H 5.33297 V 9.77535 L 6.10654,10.5492 6.50311,10.1525 5.33297,8.98343 V 7.58721 C 5.83481,7.51512 6.27422,7.25453 6.57655,6.8746 L 7.77974,7.56971 8.20937,9.16825 8.74915,9.02198 8.46641,7.96567 9.82382,8.74976 10.1041,8.2642 8.7467,7.48023 Z"
         style="fill:#c8e5ec;fill-rule:nonzero;stroke:none"
         transform="translate(25.3466,31.9912)"
         id="path4988" />
      <path
         d="m 3.66343,5.04814 c -0.51653,0 -0.93391,-0.41922 -0.93391,-0.93452 0,-0.51763 0.41738,-0.93685 0.93391,-0.93685 0.51775,0 0.93514,0.41922 0.93514,0.93685 0,0.5153 -0.41739,0.93452 -0.93514,0.93452 z M 7.11022,5.21999 7.00495,4.82623 5.84582,5.13774 4.97434,4.63541 C 5.04043,4.4709 5.07838,4.29122 5.07838,4.10187 5.07838,3.92059 5.0441,3.74605 4.98168,3.58791 l 0.86414,-0.5 L 7.00495,3.39868 7.11022,3.00565 6.34277,2.80112 7.32809,2.23184 7.1249,1.88019 6.14081,2.44873 6.34522,1.683 5.95231,1.57749 5.64264,2.73564 4.77972,3.23271 C 4.56062,2.95253 4.23749,2.75669 3.86784,2.70357 V 1.7114 L 4.71607,0.863287 4.42843,0.575035 3.86784,1.13636 V 0 H 3.46147 V 1.13636 L 2.89966,0.575035 2.61202,0.863287 3.46147,1.7114 V 2.70357 C 3.09182,2.75669 2.76746,2.95253 2.54837,3.23271 L 1.68545,2.73564 1.37578,1.57749 0.982872,1.683 1.1885,2.44873 0.204408,1.88019 0,2.23184 0.98532,2.80112 0.217872,3.00565 0.323136,3.39868 1.48226,3.08791 l 0.86415,0.5 c -0.06243,0.15875 -0.0967,0.33268 -0.0967,0.51396 0,0.18935 0.03672,0.36903 0.10404,0.53354 L 1.48226,5.13774 0.323136,4.82623 0.217872,5.21999 0.98532,5.42599 0,5.99381 0.204408,6.34473 1.1885,5.77752 0.982872,6.54338 1.37578,6.64889 1.68545,5.48854 2.55816,4.9856 C 2.77848,5.26075 3.09672,5.44998 3.46147,5.50323 V 6.51425 L 2.61202,7.36236 2.89966,7.65122 3.46147,7.09002 V 8.22491 H 3.86784 V 7.09002 L 4.42843,7.65122 4.71607,7.36236 3.86784,6.51425 V 5.50323 C 4.23137,5.44998 4.54961,5.26075 4.7687,4.9856 L 5.64264,5.48854 5.95354,6.64889 6.34522,6.54338 6.14081,5.77752 7.1249,6.34607 7.32809,5.99381 6.34277,5.42599 Z"
         style="fill:#b0dce6;fill-rule:nonzero;stroke:#b0dce6;stroke-width:0.00601706;stroke-linecap:butt;stroke-linejoin:miter;stroke-dasharray:none"
         transform="translate(14.759,27.6229)"
         id="path4990" />
      <path
         d="m 4.65977,4.28327 c 0,0.41995 -0.34272,0.765 -0.76623,0.765 -0.42228,0 -0.765,-0.34505 -0.765,-0.765 0,-0.42363 0.34272,-0.76586 0.765,-0.76586 0.42351,0 0.76623,0.34223 0.76623,0.76586 z M 7.54718,5.50837 7.35502,4.78988 6.09919,5.12464 5.41253,4.72794 C 5.45537,4.58094 5.4774,4.42806 5.4774,4.27152 5.4774,4.12451 5.45659,3.97678 5.4162,3.83479 L 6.09919,3.4403 7.35502,3.77592 7.54718,3.05584 7.0123,2.91177 7.78954,2.46489 7.41622,1.81837 6.63898,2.26758 6.78218,1.73245 6.06247,1.53967 5.7271,2.79451 5.04655,3.18619 C 4.8348,2.96049 4.56674,2.80467 4.26809,2.73344 V 1.95167 L 5.18609,1.03293 4.65854,0.505879 4.26809,0.897559 V 0 H 3.52145 V 0.897559 L 3.12977,0.505879 2.60222,1.03293 3.52145,1.95167 V 2.73344 C 3.22157,2.80467 2.95474,2.96049 2.74176,3.18619 L 2.06122,2.79451 1.72584,1.53967 1.0049,1.73245 1.14934,2.26758 0.372096,1.81837 0,2.46489 0.776016,2.91177 0.241128,3.05584 0.43452,3.77592 1.68912,3.4403 2.37211,3.83479 c -0.04039,0.14199 -0.0612,0.28825 -0.0612,0.43673 0,0.15654 0.02203,0.30942 0.0661,0.45642 L 1.68912,5.12464 0.43452,4.78988 0.241128,5.50837 0.776016,5.6517 0,6.10091 0.372096,6.74657 1.14934,6.29809 1.0049,6.83384 1.72584,7.026 2.06122,5.76969 2.754,5.37152 C 2.9633,5.5905 3.22769,5.74203 3.52145,5.81265 V 6.61327 L 2.60222,7.53201 3.12977,8.0582 3.52145,7.66665 V 8.56421 H 4.26809 V 7.66665 L 4.65854,8.0582 5.18609,7.53201 4.26809,6.61327 V 5.81265 C 4.56062,5.74203 4.82378,5.5905 5.03431,5.37152 L 5.7271,5.76969 6.06247,7.026 6.78218,6.83384 6.63898,6.29809 7.41622,6.74657 7.78954,6.10091 7.0123,5.6517 Z"
         style="fill:#89c1c3;fill-rule:nonzero;stroke:none"
         transform="translate(14.5289,27.4532)"
         id="path4992" />
      <path
         d="m 3.66343,5.04814 c -0.51653,0 -0.93391,-0.41922 -0.93391,-0.93452 0,-0.51763 0.41738,-0.93685 0.93391,-0.93685 0.51775,0 0.93514,0.41922 0.93514,0.93685 0,0.5153 -0.41739,0.93452 -0.93514,0.93452 z M 7.11022,5.21999 7.00495,4.82623 5.84582,5.13774 4.97434,4.63541 C 5.04043,4.4709 5.07838,4.29122 5.07838,4.10187 5.07838,3.92059 5.0441,3.74605 4.98168,3.58791 l 0.86414,-0.5 L 7.00495,3.39868 7.11022,3.00565 6.34277,2.80112 7.32809,2.23184 7.1249,1.88019 6.14081,2.44873 6.34522,1.683 5.95231,1.57749 5.64264,2.73564 4.77972,3.23271 C 4.56062,2.95253 4.23749,2.75669 3.86784,2.70357 V 1.7114 L 4.71607,0.863287 4.42843,0.575035 3.86784,1.13636 V 0 H 3.46147 V 1.13636 L 2.89966,0.575035 2.61202,0.863287 3.46147,1.7114 V 2.70357 C 3.09182,2.75669 2.76746,2.95253 2.54837,3.23271 L 1.68545,2.73564 1.37578,1.57749 0.982872,1.683 1.1885,2.44873 0.204408,1.88019 0,2.23184 0.98532,2.80112 0.217872,3.00565 0.323136,3.39868 1.48226,3.08791 l 0.86415,0.5 c -0.06243,0.15875 -0.0967,0.33268 -0.0967,0.51396 0,0.18935 0.03672,0.36903 0.10404,0.53354 L 1.48226,5.13774 0.323136,4.82623 0.217872,5.21999 0.98532,5.42599 0,5.99381 0.204408,6.34473 1.1885,5.77752 0.982872,6.54338 1.37578,6.64889 1.68545,5.48854 2.55816,4.9856 C 2.77848,5.26075 3.09672,5.44998 3.46147,5.50323 V 6.51425 L 2.61202,7.36236 2.89966,7.64988 3.46147,7.09002 V 8.22491 H 3.86784 V 7.09002 L 4.42843,7.64988 4.71607,7.36236 3.86784,6.51425 V 5.50323 C 4.23137,5.44998 4.54961,5.26075 4.7687,4.9856 L 5.64264,5.48854 5.95354,6.64889 6.34522,6.54338 6.14081,5.77752 7.1249,6.34473 7.32809,5.99381 6.34277,5.42599 Z"
         style="fill:#c8e5ec;fill-rule:nonzero;stroke:none"
         transform="translate(14.759,27.6229)"
         id="path4994" />
      <path
         d="m 2.68056,3.69354 c -0.37699,0 -0.68299,-0.30649 -0.68299,-0.68495 0,-0.37711 0.306,-0.68213 0.68299,-0.68213 0.37822,0 0.68422,0.30502 0.68422,0.68213 0,0.37846 -0.306,0.68495 -0.68422,0.68495 z M 5.202,3.81876 5.12489,3.53185 4.27788,3.75903 3.64018,3.39219 C 3.68914,3.27053 3.71606,3.14029 3.71606,3.00198 3.71606,2.86881 3.69036,2.74139 3.64507,2.62487 L 4.27788,2.25877 5.12489,2.48668 5.202,2.19977 4.64141,2.04983 5.36112,1.63343 5.21302,1.37651 4.4933,1.79145 4.64263,1.23024 4.35499,1.1546 4.12855,2.00259 3.49697,2.36648 C 3.33662,2.16048 3.10039,2.01703 2.82989,1.97786 V 1.2535 L 3.45168,0.63036 3.23993,0.420077 2.82989,0.831953 V 0 H 2.53246 V 0.831953 L 2.12242,0.420077 1.91189,0.63036 2.53246,1.2535 V 1.97786 C 2.26195,2.01703 2.02572,2.16048 1.86415,2.36648 L 1.23379,2.00259 1.00735,1.1546 0.718488,1.23024 0.86904,1.79145 0.149328,1.37651 0,1.63343 0.720936,2.04983 0.15912,2.19977 0.236232,2.48668 1.08569,2.25877 1.71727,2.62487 C 1.67076,2.74286 1.64628,2.86881 1.64628,3.00198 c 0,0.13831 0.02693,0.26855 0.07589,0.39021 L 1.08569,3.75903 0.236232,3.53185 0.15912,3.81876 0.720936,3.9687 0,4.38645 0.149328,4.64202 0.86904,4.22708 0.718488,4.78682 1.00735,4.86552 1.23379,4.01594 1.87272,3.64764 C 2.03306,3.84936 2.26685,3.98755 2.53246,4.02623 V 4.7665 L 1.91189,5.38744 2.12242,5.59711 2.53246,5.18792 V 6.01853 H 2.82989 V 5.18792 L 3.23993,5.59711 3.45168,5.38744 2.82989,4.7665 V 4.02623 C 3.09672,3.98755 3.32928,3.84936 3.4884,3.64764 L 4.12855,4.01594 4.35499,4.86552 4.64263,4.78841 4.4933,4.22708 5.21302,4.64349 5.36112,4.38645 4.64141,3.9687 Z"
         style="fill:#b0dce6;fill-rule:nonzero;stroke:#b0dce6;stroke-width:0.00440285;stroke-linecap:butt;stroke-linejoin:miter;stroke-dasharray:none"
         transform="translate(15.7419,38.8359)"
         id="path4996" />
      <path
         d="m 3.40884,3.13234 c 0,0.3093 -0.2497,0.55973 -0.55937,0.55973 -0.30845,0 -0.55937,-0.25043 -0.55937,-0.55973 0,-0.30943 0.25092,-0.55986 0.55937,-0.55986 0.30967,0 0.55937,0.25043 0.55937,0.55986 z M 5.52269,4.0299 5.38193,3.50431 4.46393,3.7496 3.96086,3.45988 C 3.99269,3.35143 4.0086,3.23932 4.0086,3.12573 4.0086,3.01655 3.99269,2.90945 3.96454,2.80626 L 4.46393,2.51642 5.38193,2.76318 5.52269,2.23625 5.13101,2.13062 5.70017,1.80307 5.42722,1.33061 4.85806,1.65974 4.96332,1.2666 4.43578,1.12547 4.19098,2.04396 3.69403,2.3316 C 3.53858,2.16562 3.34274,2.05204 3.12242,1.99965 V 1.42755 L 3.7944,0.754106 3.40884,0.369036 3.12242,0.655819 V 0 H 2.57652 V 0.655819 L 2.29133,0.369036 1.90454,0.754106 2.57652,1.42755 v 0.5721 C 2.35865,2.05204 2.16281,2.16562 2.00614,2.3316 L 1.50919,2.04396 1.26317,1.12547 0.735624,1.2666 0.840888,1.65974 0.272952,1.33061 0,1.80307 0.56916,2.13062 0.17748,2.23625 0.31824,2.76318 1.23624,2.51642 1.73686,2.80626 c -0.0306,0.10319 -0.04652,0.21029 -0.04652,0.31947 0,0.11359 0.01714,0.2257 0.04896,0.33415 L 1.23624,3.7496 0.31824,3.50431 0.17748,4.0299 0.56916,4.13602 0,4.46295 0.272952,4.93541 0.840888,4.60787 0.735624,5.0009 1.26317,5.14068 1.50919,4.22194 2.01593,3.92941 c 0.153,0.16083 0.34639,0.27148 0.56059,0.3224 V 4.83933 L 1.90454,5.51118 2.29133,5.89625 2.57652,5.60874 v 0.65802 h 0.5459 V 5.60874 L 3.40884,5.89625 3.7944,5.51118 3.12242,4.83933 V 4.25181 C 3.33785,4.20089 3.53002,4.09171 3.68546,3.92941 L 4.19098,4.22194 4.43578,5.14068 4.96332,5.0009 4.85806,4.60787 5.42722,4.93541 5.70017,4.46295 5.13101,4.13602 Z"
         style="fill:#89c1c3;fill-rule:nonzero;stroke:none"
         transform="translate(15.573,38.7122)"
         id="path4998" />
      <path
         d="m 2.68056,3.69354 c -0.37699,0 -0.68299,-0.30649 -0.68299,-0.68495 0,-0.37711 0.306,-0.68213 0.68299,-0.68213 0.37822,0 0.68422,0.30502 0.68422,0.68213 0,0.37846 -0.306,0.68495 -0.68422,0.68495 z M 5.202,3.81876 5.12489,3.53185 4.27788,3.75903 3.64018,3.39219 C 3.68914,3.27053 3.71606,3.14029 3.71606,3.00198 3.71606,2.86881 3.69036,2.74139 3.64507,2.62487 L 4.27788,2.25877 5.12489,2.48668 5.202,2.19977 4.64141,2.04983 5.36112,1.63343 5.21302,1.37651 4.4933,1.79145 4.64263,1.23024 4.35499,1.1546 4.12855,2.00259 3.49697,2.36648 C 3.33662,2.16048 3.10039,2.01703 2.82989,1.97786 V 1.2535 L 3.45168,0.63036 3.23993,0.420077 2.82989,0.831953 V 0 H 2.53246 V 0.831953 L 2.12242,0.420077 1.91189,0.63036 2.53246,1.2535 V 1.97786 C 2.26195,2.01703 2.02572,2.16048 1.86415,2.36648 L 1.23379,2.00259 1.00735,1.1546 0.718488,1.23024 0.86904,1.79145 0.149328,1.37651 0,1.63343 0.720936,2.04983 0.15912,2.19977 0.236232,2.48668 1.08569,2.25877 1.71727,2.62487 C 1.67076,2.74286 1.64628,2.86881 1.64628,3.00198 c 0,0.13831 0.02693,0.26855 0.07589,0.39021 L 1.08569,3.75903 0.236232,3.53185 0.15912,3.81876 0.720936,3.9687 0,4.38645 0.149328,4.64202 0.86904,4.22708 0.718488,4.78841 1.00735,4.86552 1.23379,4.01594 1.87272,3.64764 C 2.03306,3.84936 2.26685,3.98755 2.53246,4.02623 V 4.7665 L 1.91189,5.38744 2.12242,5.59711 2.53246,5.18792 V 6.01853 H 2.82989 V 5.18792 L 3.23993,5.59711 3.45168,5.38744 2.82989,4.7665 V 4.02623 C 3.09672,3.98755 3.32928,3.84936 3.4884,3.64764 L 4.12855,4.01594 4.35499,4.86552 4.64263,4.78841 4.4933,4.22708 5.21302,4.64202 5.36112,4.38645 4.64141,3.9687 Z"
         style="fill:#c8e5ec;fill-rule:nonzero;stroke:none"
         transform="translate(15.7419,38.8359)"
         id="path5000" />
      <path
         d="m 3.58142,4.93456 c -0.50551,0 -0.9131,-0.41127 -0.9131,-0.91494 0,-0.5038 0.40759,-0.91286 0.9131,-0.91286 0.50552,0 0.91311,0.40906 0.91311,0.91286 0,0.50367 -0.40759,0.91494 -0.91311,0.91494 z M 6.9511,5.10126 6.84706,4.71766 5.71363,5.02195 4.86295,4.53137 C 4.9266,4.36968 4.96454,4.19428 4.96454,4.0108 4.96454,3.83173 4.93027,3.66221 4.86907,3.50566 L 5.71363,3.01643 6.84706,3.32145 6.9511,2.93784 6.19956,2.73699 7.16162,2.18154 6.96334,1.83649 6.0025,2.39268 6.20323,1.64359 5.8189,1.54089 5.51534,2.67432 4.67323,3.15988 C 4.45781,2.88472 4.14202,2.6939 3.78094,2.64164 V 1.67272 L 4.60958,0.842846 4.32929,0.561938 3.78094,1.11005 V 0 H 3.38314 V 1.11005 L 2.83478,0.561938 2.55326,0.842846 3.38314,1.67272 V 2.64164 C 3.02206,2.6939 2.70504,2.88472 2.49084,3.15988 L 1.6475,2.67432 1.34518,1.54089 0.959616,1.64359 1.16158,2.39268 0.198288,1.83649 0,2.18154 0.963288,2.73699 0.212976,2.93784 0.315792,3.32145 1.44922,3.01643 2.29378,3.50566 C 2.23258,3.66221 2.19953,3.83173 2.19953,4.0108 c 0,0.18348 0.03427,0.35888 0.10037,0.52057 L 1.44922,5.02195 0.315792,4.71766 0.212976,5.10126 0.963288,5.30359 0,5.85831 0.198288,6.20262 1.16158,5.64582 0.959616,6.39552 1.34518,6.49883 1.6475,5.36626 2.50063,4.87348 C 2.71606,5.14056 3.02695,5.32832 3.38314,5.37936 V 6.36713 L 2.55326,7.197 2.83478,7.47876 3.38314,6.92919 v 1.11078 h 0.3978 V 6.92919 L 4.32929,7.47876 4.60958,7.197 3.78094,6.36713 V 5.37936 C 4.13712,5.32832 4.44802,5.14202 4.66222,4.87348 L 5.51534,5.36626 5.8189,6.49883 6.20323,6.39552 6.0025,5.64582 6.96334,6.20262 7.16162,5.85831 6.19956,5.30359 Z"
         style="fill:#b0dce6;fill-rule:nonzero;stroke:#b0dce6;stroke-width:0.0058823;stroke-linecap:butt;stroke-linejoin:miter;stroke-dasharray:none"
         transform="translate(36.8644,27.9491)"
         id="path5002" />
      <path
         d="m 4.55695,4.18571 c 0,0.41274 -0.3366,0.74897 -0.74909,0.74897 C 3.39415,4.93468 3.06,4.59845 3.06,4.18571 c 0,-0.41053 0.33415,-0.74762 0.74786,-0.74762 0.41249,0 0.74909,0.33709 0.74909,0.74762 z M 7.3795,5.3845 7.18978,4.68143 5.96455,5.01044 5.29258,4.6217 C 5.33419,4.47678 5.35622,4.32684 5.35622,4.1769 c 0,-0.1448 -0.0208,-0.29119 -0.0612,-0.4295 L 5.96455,3.36233 7.18978,3.69146 7.3795,2.98534 6.85562,2.84702 7.61573,2.40883 7.25098,1.77688 6.4921,2.21593 6.63163,1.69242 5.92661,1.50466 5.59858,2.73197 4.93517,3.11349 C 4.72709,2.89427 4.46515,2.74139 4.17262,2.66942 V 1.90797 L 5.07103,1.00894 4.55573,0.494374 4.17262,0.877241 V 0 H 3.44434 V 0.877241 L 3.06122,0.494374 2.54592,1.00894 3.44434,1.90797 V 2.66942 C 3.1518,2.74139 2.88986,2.89427 2.68056,3.11349 L 2.01593,2.73197 1.68912,1.50466 0.984096,1.69242 1.12363,2.21593 0.364752,1.77688 0,2.40883 0.760104,2.84702 0.236232,2.98534 0.424728,3.69146 1.6524,3.36233 2.3207,3.7474 C 2.28031,3.88571 2.2595,4.02916 2.2595,4.1769 c 0,0.14994 0.02204,0.29988 0.06488,0.4448 L 1.6524,5.01044 0.424728,4.68143 0.236232,5.3845 0.760104,5.52575 0,5.96394 0.364752,6.59442 1.12363,6.1577 0.984096,6.67949 1.68912,6.86811 2.01593,5.6408 2.69402,5.25072 C 2.89721,5.46467 3.1567,5.61314 3.44434,5.6823 V 6.46627 L 2.54592,7.36309 3.06122,7.8784 3.44434,7.49627 V 8.3713 H 4.17262 V 7.49627 L 4.55573,7.8784 5.07103,7.36309 4.17262,6.46627 V 5.6823 C 4.45903,5.61314 4.7173,5.46467 4.92293,5.25072 L 5.59858,5.6408 5.92661,6.86811 6.63163,6.67949 6.4921,6.1577 7.25098,6.59442 7.61573,5.96394 6.85562,5.52575 Z"
         style="fill:#89c1c3;fill-rule:nonzero;stroke:none"
         transform="translate(36.638,27.783)"
         id="path5004" />
      <path
         d="m 3.58142,4.93456 c -0.50551,0 -0.9131,-0.41127 -0.9131,-0.91494 0,-0.5038 0.40759,-0.91286 0.9131,-0.91286 0.50552,0 0.91311,0.40906 0.91311,0.91286 0,0.50367 -0.40759,0.91494 -0.91311,0.91494 z M 6.9511,5.10126 6.84706,4.71766 5.71363,5.02195 4.86295,4.53137 C 4.9266,4.36968 4.96454,4.19428 4.96454,4.0108 4.96454,3.83173 4.93027,3.66221 4.86907,3.50566 L 5.71363,3.01643 6.84706,3.32145 6.9511,2.93784 6.19956,2.73699 7.16162,2.18154 6.96334,1.83649 6.0025,2.39268 6.20323,1.64359 5.8189,1.54089 5.51534,2.67432 4.67323,3.15988 C 4.45781,2.88472 4.14202,2.6939 3.78094,2.64164 V 1.67272 L 4.60958,0.842846 4.32929,0.561938 3.78094,1.11005 V 0 H 3.38314 V 1.11005 L 2.83478,0.561938 2.55326,0.842846 3.38314,1.67272 V 2.64164 C 3.02206,2.6939 2.70504,2.88472 2.49084,3.15988 L 1.6475,2.67432 1.34518,1.54089 0.959616,1.64359 1.16158,2.39268 0.198288,1.83649 0,2.18154 0.963288,2.73699 0.212976,2.93784 0.315792,3.32145 1.44922,3.01643 2.29378,3.50566 C 2.23258,3.66221 2.19953,3.83173 2.19953,4.0108 c 0,0.18348 0.03427,0.35888 0.10037,0.52057 L 1.44922,5.02195 0.315792,4.71766 0.212976,5.10126 0.963288,5.30359 0,5.85831 0.198288,6.20262 1.16158,5.64582 0.959616,6.39552 1.34518,6.49883 1.6475,5.36626 2.50063,4.87348 C 2.71606,5.14202 3.02695,5.32832 3.38314,5.37936 V 6.36713 L 2.55326,7.197 2.83478,7.47729 3.38314,6.92919 v 1.11078 h 0.3978 V 6.92919 L 4.32929,7.47729 4.60958,7.197 3.78094,6.36713 V 5.37936 C 4.13712,5.32832 4.44802,5.14202 4.66222,4.87348 L 5.51534,5.36626 5.8189,6.49883 6.20323,6.39552 6.0025,5.64582 6.96334,6.20262 7.16162,5.85831 6.19956,5.30359 Z"
         style="fill:#c8e5ec;fill-rule:nonzero;stroke:none"
         transform="translate(36.8644,27.9491)"
         id="path5006" />
      <path
         d="M 14.9829,48.7201 14.9818,48.5908 14.9783,48.462 14.9728,48.3331 14.965,48.2045 14.955,48.0763 14.9427,47.9484 14.9284,47.8208 14.9117,47.6935 14.893,47.5667 14.8721,47.4403 14.849,47.3142 l -0.0253,-0.1255 -0.0274,-0.125 -0.0295,-0.1245 -0.0316,-0.1239 -0.0337,-0.1234 -0.0359,-0.1226 -0.0381,-0.1222 -0.04,-0.1213 -0.0421,-0.1207 -0.0442,-0.12 -0.0462,-0.1192 -0.0484,-0.1184 -0.0504,-0.1176 0.2166,-0.0092 0.2153,-0.0146 0.2137,-0.0199 0.2123,-0.0252 0.2105,-0.0305 0.2089,-0.0355 0.2073,-0.0407 0.2054,-0.0455 0.2034,-0.0505 0.2014,-0.0555 0.1996,-0.0602 0.1974,-0.065 0.1953,-0.0696 0.1931,-0.0742 0.1907,-0.0788 0.1885,-0.0833 0.1859,-0.0876 0.1836,-0.0921 0.1809,-0.0962 0.1785,-0.1005 0.1756,-0.1046 0.173,-0.1087 0.17,-0.1126 0.1673,-0.1167 0.1642,-0.1204 0.1612,-0.1244 0.1583,-0.128 0.155,-0.1317 0.1519,-0.1352 0.1484,-0.139 0.1452,-0.1422 0.1417,-0.1458 0.1384,-0.1491 0.1347,-0.1522 0.1311,-0.1556 0.1274,-0.1587 0.1238,-0.1617 0.1198,-0.1648 0.1159,-0.1677 0.1121,-0.1706 0.108,-0.1733 0.1039,-0.1762 0.0998,-0.1788 0.0956,-0.1814 0.0913,-0.1839 0.0869,-0.1865 0.0825,-0.1887 0.0779,-0.1912 0.0736,-0.1935 0.0688,-0.1956 0.0643,-0.1978 0.0593,-0.1999 0.0546,-0.2018 0.0497,-0.2038 0.0448,-0.2056 0.0398,-0.2075 0.0346,-0.2093 0.0295,-0.2109 0.0244,-0.2125 0.0189,-0.2141 0.0138,-0.2154 0.0082,-0.217 0.0028,-0.2183 -0.001,-0.1297 -0.0031,-0.1295 -0.005,-0.1295 -0.0071,-0.1292 -0.009,-0.1291 -0.0111,-0.1287 -0.0129,-0.1287 -0.0151,-0.1282 -0.0169,-0.1279 -0.0188,-0.1277 -0.021,-0.1273 -0.0227,-0.1269 -0.0248,-0.1266 -0.0265,-0.1262 -0.0285,-0.1256 -0.0305,-0.1253 -0.0323,-0.1247 -0.0343,-0.1243 -0.0361,-0.1236 -0.0379,-0.1231 -0.0398,-0.1227 -0.0418,-0.1219 -0.0434,-0.1213 -0.0454,-0.1207 -0.0473,-0.12 -0.0489,-0.1193 -0.0508,-0.1186 -0.0527,-0.1178 -0.0543,-0.1171 -0.0563,-0.1162 -0.0579,-0.1156 -0.0597,-0.1145 -0.0616,-0.1139 -0.0632,-0.1128 -0.065,-0.112 -0.0667,-0.111 -0.0685,-0.1102 -0.0701,-0.1091 0.2209,-0.0714 0.2187,-0.0758 0.2163,-0.0798 0.2141,-0.0841 0.2116,-0.0881 0.2092,-0.0921 0.2067,-0.0961 0.2042,-0.1 0.2017,-0.1039 0.199,-0.1077 0.1963,-0.1114 0.1938,-0.1152 0.1911,-0.1188 0.1881,-0.1224 0.1854,-0.126 0.1827,-0.1295 0.1796,-0.1329 0.1769,-0.1363 0.1738,-0.1397 0.1708,-0.143 0.1677,-0.1462 0.1647,-0.1495 0.1615,-0.1525 0.1583,-0.1557 0.1551,-0.1586 0.1519,-0.1617 0.1486,-0.1646 0.1452,-0.1675 0.1418,-0.1703 0.1385,-0.1731 0.135,-0.1759 0.1314,-0.1785 0.1279,-0.1811 0.1244,-0.1837 0.1207,-0.1862 0.117,-0.1888 0.1133,-0.1911 0.1096,-0.1934 0.1057,-0.1959 0.102,-0.198 0.098,-0.2003 0.0943,-0.2024 0.0901,-0.2045 0.0863,-0.2067 0.0821,-0.2085 0.0781,-0.2107 0.0739,-0.2123 0.0698,-0.2144 0.0656,-0.2161 0.0613,-0.2178 0.0571,-0.2196 0.0527,-0.2211 0.0484,-0.2228 0.0439,-0.2244 0.0395,-0.2257 0.035,-0.2273 0.0305,-0.2286 0.026,-0.2299 0.0211,-0.2312 0.0167,-0.2325 0.012,-0.2336 0.0071,-0.2348 0.0024,-0.2358 -0.0028,-0.2464 -0.0083,-0.2454 -0.014,-0.2446 -0.0193,-0.2433 -0.0247,-0.2422 -0.0301,-0.241 -0.0354,-0.2398 -0.0405,-0.2383 -0.0458,-0.237 -0.0509,-0.2355 -0.0558,-0.2339 -0.061,-0.2323 -0.0658,-0.2305 -0.0707,-0.2289 -0.0755,-0.2269 -0.0803,-0.2251 -0.0849,-0.223 -0.0897,-0.2211 -0.0942,-0.219 -0.0987,-0.2167 -0.1032,-0.2145 -0.1075,-0.2121 -0.112,-0.2098 -0.1163,-0.2073 -0.1204,-0.2048 -0.1246,-0.2022 -0.1288,-0.1995 -0.1328,-0.1967 -0.1367,-0.194 -0.1408,-0.1911 -0.1446,-0.1881 -0.1485,-0.1852 -0.1522,-0.182 -0.1559,-0.179 -0.1596,-0.1756 -0.1632,-0.1723 -0.1667,-0.1691 -0.1701,-0.1656 -0.1736,-0.162 -0.177,-0.1586 -0.1803,-0.1548 -0.1834,-0.1512 -0.1867,-0.1473 -0.1898,-0.1436 -0.1928,-0.1395 -0.1959,-0.1358 -0.1989,-0.1316 -0.2017,-0.1274 -0.2045,-0.1232 -0.2073,-0.119 -0.2101,-0.1147 -0.2126,-0.1102 -0.2153,-0.1058 -0.2179,-0.1013 -0.2203,-0.0966 -0.2228,-0.092 -0.225,-0.0872 -0.2275,-0.0824 -0.2297,-0.0775 -0.2318,-0.0726 -0.2341,-0.0675 -0.2361,-0.0625 -0.238,-0.0573 0.0124,-0.1599 0.0097,-0.1583 0.0067,-0.1566 0.0041,-0.155 0.0013,-0.1535 L 20.343,9.90757 20.3327,9.64292 20.3157,9.38001 20.2921,9.11893 20.262,8.85978 20.2253,8.60263 20.1822,8.34757 20.1328,8.09467 20.0773,7.84403 20.0155,7.59574 19.9478,7.34986 19.874,7.1065 19.7943,6.86573 19.7088,6.62764 19.6177,6.3923 19.5208,6.15982 19.4185,5.93027 19.3107,5.70373 19.1976,5.4803 19.079,5.26004 18.9554,5.04306 18.8265,4.82943 18.6927,4.61924 18.5538,4.41257 18.4101,4.20951 18.2616,4.01014 18.1085,3.81453 17.9506,3.62281 17.7883,3.43501 17.6214,3.25125 17.4503,3.0716 17.2748,2.89616 17.0951,2.72498 16.9114,2.55818 16.7236,2.39583 16.5318,2.23801 16.3362,2.08481 16.137,1.93633 15.9339,1.79262 15.7272,1.6538 15.517,1.51993 15.3034,1.3911 15.0864,1.26739 14.8661,1.14891 14.6427,1.03571 14.4161,0.927896 14.1866,0.825545 13.9541,0.728743 13.7188,0.637574 13.4806,0.552124 13.2399,0.472475 12.9966,0.398713 12.7507,0.330923 12.5024,0.269187 12.2518,0.213592 11.9989,0.16422 11.7438,0.121159 11.4867,0.0844898 11.2275,0.0542986 10.9664,0.0306696 10.7035,0.0136873 10.4389,0.00343589 10.1725,0 9.90628,0.00343589 9.64168,0.0136873 9.37883,0.0306696 9.11781,0.0542986 8.85871,0.0844898 8.6016,0.121159 8.34659,0.16422 8.09374,0.213592 7.84315,0.269187 7.5949,0.330923 7.34907,0.398713 7.10574,0.472475 6.86501,0.552124 6.62696,0.637574 6.39165,0.728743 6.15922,0.825545 5.92969,0.927896 5.70319,1.03571 5.47979,1.14891 5.25956,1.26739 5.04261,1.3911 4.82901,1.51993 4.61884,1.6538 4.4122,1.79262 4.20916,1.93633 4.00981,2.08481 3.81424,2.23801 3.62253,2.39583 3.43475,2.55818 3.25101,2.72498 3.07138,2.89616 2.89595,3.0716 2.7248,3.25125 2.55801,3.43501 2.39567,3.62281 2.23788,3.81453 2.08469,4.01014 1.93621,4.20951 1.79252,4.41257 1.6537,4.61924 1.51984,4.82943 1.39103,5.04306 1.26733,5.26004 1.14885,5.4803 1.03566,5.70373 0.92785,5.93027 0.825505,6.15982 0.72871,6.3923 0.637546,6.62764 0.5521,6.86573 0.472455,7.1065 0.398697,7.34986 0.33091,7.59574 0.269177,7.84403 0.213584,8.09467 0.164216,8.34757 0.121154,8.60263 0.084487,8.85978 0.0542969,9.11893 0.0306687,9.38001 0.0136869,9.64292 0.00343579,9.90757 0,10.1739 0.0016371,10.2602 0.0064872,10.3685 0,47.2415 0.00157749,47.3796 0.00633347,47.5207 0.0143032,47.6656 0.0255219,47.8147 0.0400248,47.9686 0.0255219,48.1262 0.0143032,48.2796 0.00633347,48.4293 0.00157749,48.5759 0,48.7201 l 0.00252997,0.1961 0.00754843,0.195 0.0125046,0.1935 0.0173988,0.1923 0.0222307,0.1908 0.0270002,0.1893 0.0317073,0.1879 0.036353,0.1862 0.040937,0.1846 0.045457,0.1828 0.049916,0.1811 0.054311,0.1792 0.058647,0.1772 0.062918,0.1754 0.067128,0.1732 0.071276,0.1712 0.07536,0.1691 0.079385,0.1667 0.083346,0.1646 0.087244,0.1621 0.091082,0.1598 0.09486,0.1573 0.09856,0.1547 0.10222,0.1522 0.10581,0.1495 0.10933,0.1468 0.11279,0.1441 0.1162,0.1411 0.11954,0.1382 0.1228,0.1353 0.12603,0.1322 0.12918,0.1293 0.13227,0.1259 0.13529,0.1229 0.13827,0.1195 0.14117,0.1161 0.14401,0.1129 0.14678,0.1093 0.14951,0.1058 0.15216,0.1022 0.15475,0.0985 0.15728,0.0949 0.15976,0.091 0.16215,0.0873 0.1645,0.0833 0.16678,0.0794 0.16899,0.0754 0.17117,0.0712 0.17326,0.0671 0.17529,0.0629 0.17724,0.0586 0.17917,0.0544 0.18102,0.0499 0.18279,0.0454 0.18452,0.0409 0.18617,0.0363 0.18779,0.0317 0.1893,0.0271 0.19078,0.0222 0.1922,0.0175 0.19354,0.0124 0.19483,0.0075 0.19605,0.0026 0.19613,-0.0026 0.19493,-0.0075 0.19362,-0.0124 0.19227,-0.0175 0.19085,-0.0222 0.18939,-0.0271 0.18785,-0.0317 0.18625,-0.0363 0.18459,-0.0409 0.18285,-0.0454 0.18108,-0.0499 0.17923,-0.0544 0.17732,-0.0586 0.17535,-0.0629 0.1733,-0.0671 0.1712,-0.0712 0.1691,-0.0754 0.1668,-0.0794 0.1646,-0.0833 0.1622,-0.0873 0.1597,-0.091 0.1574,-0.0949 0.1548,-0.0985 0.1522,-0.1022 0.1495,-0.1058 0.1468,-0.1093 0.1441,-0.1129 0.1412,-0.1161 0.1382,-0.1195 0.1354,-0.1229 0.1323,-0.1259 0.1291,-0.1293 0.1261,-0.1322 0.1229,-0.1353 0.1196,-0.1382 0.1161,-0.1411 0.1129,-0.1441 0.1093,-0.1468 0.1059,-0.1495 0.1022,-0.1522 0.0986,-0.1547 0.0949,-0.1573 0.0911,-0.1598 0.0872,-0.1621 0.0834,-0.1646 0.0793,-0.1667 0.0754,-0.1691 0.0714,-0.1712 0.067,-0.1732 0.0629,-0.1754 0.0587,-0.1772 0.0543,-0.1792 0.05,-0.1811 0.0454,-0.1828 0.041,-0.1846 0.0363,-0.1862 0.0317,-0.1879 0.0271,-0.1893 0.0221,-0.1908 0.0174,-0.1923 0.0126,-0.1935 0.0075,-0.195 z"
         style="fill:url(#Grad270);fill-rule:evenodd;stroke:none"
         transform="rotate(-90,14.5288,14.5288)"
         id="path5008" />
      <path
         d="M 13.8359,48.146 13.8346,48.0136 13.8308,47.8817 13.8247,47.7501 13.816,47.619 13.8049,47.4884 13.7913,47.3582 13.7754,47.2285 13.7569,47.0994 13.7361,46.9709 13.7128,46.843 l -0.0257,-0.1274 -0.028,-0.1269 -0.0305,-0.126 -0.0328,-0.1254 -0.0352,-0.1247 -0.0376,-0.124 -0.0399,-0.1232 -0.0422,-0.1226 -0.0446,-0.1216 -0.047,-0.121 -0.0492,-0.12 -0.0515,-0.1192 -0.0539,-0.1184 -0.0562,-0.1174 -0.0585,-0.1165 -0.0607,-0.1156 -0.0629,-0.1145 -0.0652,-0.1136 -0.0676,-0.1126 0.1427,0.0118 0.1416,0.0094 0.141,0.0066 0.1407,0.0039 0.1403,0.0013 0.2072,-0.0027 0.2059,-0.0079 0.2046,-0.0132 0.2031,-0.0184 0.2016,-0.0235 0.2001,-0.0285 0.1984,-0.0336 0.1968,-0.0384 0.195,-0.0432 0.1931,-0.0481 0.1914,-0.0528 0.1893,-0.0574 0.1873,-0.0619 0.1853,-0.0666 0.183,-0.0709 0.1809,-0.0754 0.1786,-0.0795 0.1762,-0.084 0.1738,-0.0881 0.1714,-0.0922 0.1688,-0.0962 0.1661,-0.1003 0.1635,-0.1042 0.1608,-0.108 0.1579,-0.1118 0.1551,-0.1156 0.1522,-0.1192 0.1492,-0.1228 0.146,-0.1263 0.143,-0.1299 0.1397,-0.1331 0.1365,-0.1366 0.1331,-0.1398 0.1297,-0.143 0.1263,-0.1461 0.1228,-0.1492 0.1191,-0.1522 0.1155,-0.1552 0.1118,-0.158 0.1079,-0.1608 0.1042,-0.1635 0.1002,-0.1663 0.0962,-0.1689 0.0922,-0.1713 0.088,-0.1738 0.0839,-0.1764 0.0795,-0.1786 0.0754,-0.1809 0.0709,-0.1831 0.0665,-0.1853 0.0619,-0.1873 0.0574,-0.1894 0.0526,-0.1913 0.0481,-0.1932 0.0432,-0.195 0.0385,-0.1968 0.0334,-0.1985 0.0285,-0.2001 0.0235,-0.2017 0.0184,-0.2031 0.0132,-0.2046 0.0079,-0.2059 0.0027,-0.2072 -0.0011,-0.1327 -0.0033,-0.1324 -0.0055,-0.1321 -0.0078,-0.1318 -0.0099,-0.1315 -0.012,-0.1311 -0.0143,-0.1306 -0.0164,-0.1303 -0.0186,-0.1299 -0.0207,-0.1294 -0.0229,-0.1289 -0.025,-0.1284 -0.027,-0.1277 -0.0293,-0.1275 -0.0312,-0.1266 -0.0334,-0.1262 -0.0355,-0.1255 -0.0375,-0.125 -0.0396,-0.1242 -0.0416,-0.1235 -0.0437,-0.1229 -0.0457,-0.122 -0.0477,-0.1213 -0.0499,-0.1206 -0.0517,-0.1198 -0.0538,-0.119 -0.0557,-0.1181 -0.0577,-0.1171 -0.0598,-0.1164 -0.0616,-0.1155 -0.0636,-0.1144 -0.0656,-0.1136 -0.0674,-0.1125 -0.0694,-0.1115 -0.0714,-0.1105 -0.0732,-0.1094 -0.0751,-0.1085 -0.077,-0.1072 -0.079,-0.1063 -0.0808,-0.105 -0.0826,-0.1038 0.2276,-0.0554 0.2254,-0.0602 0.2233,-0.0649 0.221,-0.0695 0.2188,-0.0741 0.2164,-0.0784 0.2141,-0.083 0.2117,-0.0874 0.2092,-0.0916 0.2066,-0.0959 0.2042,-0.1 0.2014,-0.1043 0.1989,-0.1084 0.1961,-0.1122 0.1933,-0.1163 0.1906,-0.1202 0.1876,-0.124 0.1848,-0.1277 0.1818,-0.1316 0.1788,-0.1352 0.1758,-0.1388 0.1726,-0.1422 0.1694,-0.1458 0.1663,-0.1492 0.1629,-0.1526 0.1598,-0.1558 0.1563,-0.1591 0.153,-0.1625 0.1494,-0.1653 0.1459,-0.1686 0.1425,-0.1715 0.1388,-0.1744 0.1351,-0.1773 0.1315,-0.1802 0.1276,-0.183 0.1239,-0.1857 0.1201,-0.1882 0.1161,-0.191 0.1123,-0.1935 0.1082,-0.1958 0.1041,-0.1984 0.1,-0.2006 0.0959,-0.203 0.0918,-0.2053 0.0874,-0.2073 0.0832,-0.2095 0.0788,-0.2117 0.0745,-0.2136 0.0698,-0.2154 0.0656,-0.2174 0.0609,-0.2192 0.0564,-0.221 0.0517,-0.2227 0.0471,-0.2243 0.0422,-0.226 0.0375,-0.2274 0.0326,-0.2289 0.0278,-0.2302 0.0228,-0.2317 0.0179,-0.233 0.0128,-0.2341 0.0077,-0.2354 0.0026,-0.2365 -0.0028,-0.2443 -0.0085,-0.2431 -0.014,-0.242 -0.0195,-0.2407 -0.0251,-0.2394 -0.0303,-0.2381 -0.0357,-0.2365 -0.041,-0.2351 -0.0461,-0.2334 -0.0514,-0.2318 -0.0563,-0.23 -0.0615,-0.2283 -0.0664,-0.2265 -0.0714,-0.2243 -0.0761,-0.2225 -0.0811,-0.2204 -0.0856,-0.2182 -0.0904,-0.216 -0.0949,-0.2137 -0.0997,-0.2114 -0.1039,-0.209 -0.1086,-0.2065 -0.1128,-0.2039 -0.1172,-0.2013 -0.1214,-0.1985 -0.1256,-0.1959 -0.1297,-0.193 -0.1338,-0.1901 -0.1378,-0.1872 -0.1419,-0.184 -0.1456,-0.1809 -0.1496,-0.1779 -0.1532,-0.1745 -0.1571,-0.1713 -0.1607,-0.1678 -0.1643,-0.1645 -0.1678,-0.1608 -0.1713,-0.1573 -0.1747,-0.1536 -0.1781,-0.15 -0.1814,-0.146 -0.1847,-0.1422 -0.1877,-0.1383 -0.191,-0.1343 -0.194,-0.1302 -0.1969,-0.1261 -0.2,-0.1219 L 22.458,12.0442 22.2523,11.931 22.0439,11.8222 21.8327,11.7179 21.619,11.6181 21.4026,11.5229 21.1838,11.4325 20.9625,11.3468 20.7387,11.2659 20.5126,11.19 20.2843,11.119 20.0536,11.053 19.8208,10.9922 19.586,10.9365 19.349,10.8861 19.1101,10.841 19.1293,10.6948 19.1461,10.551 19.1604,10.4093 19.1725,10.2697 19.1823,10.1321 19.1899,9.99641 19.1951,9.86253 19.1983,9.73036 19.1994,9.59983 19.1962,9.34851 19.1866,9.09875 19.1705,8.85066 19.1481,8.60428 19.1197,8.35972 19.0851,8.11707 19.0445,7.87637 18.9979,7.63772 18.9454,7.40121 18.8872,7.16691 18.8233,6.93489 18.7536,6.70524 18.6785,6.47806 18.5979,6.25338 18.5119,6.03132 18.4206,5.81194 18.324,5.59534 18.2223,5.38159 18.1154,5.17075 18.0037,4.96293 17.8869,4.75819 17.7654,4.55661 17.6391,4.35828 17.5081,4.16328 17.3726,3.97167 17.2325,3.78356 17.0879,3.599 16.9391,3.41809 16.7858,3.24091 16.6284,3.06752 16.467,2.89802 16.3014,2.73247 16.132,2.57096 15.9585,2.41359 15.7813,2.26041 15.6004,2.11151 15.4159,1.96697 15.2278,1.82687 15.0361,1.69129 14.8411,1.56029 14.6428,1.43399 14.4412,1.31245 14.2365,1.19574 14.0286,1.08394 13.8179,0.977145 13.604,0.875424 13.3875,0.778859 13.168,0.687531 12.946,0.601516 12.7214,0.520896 12.4942,0.445753 12.2645,0.376161 12.0325,0.312204 11.7982,0.25396 11.5617,0.20151 11.3231,0.154931 11.0824,0.114304 10.8397,0.0797099 10.5951,0.0512266 10.3488,0.0289344 10.1007,0.0129128 9.85091,0.00324148 9.59959,0 9.34829,0.00324148 9.09856,0.0129128 8.85047,0.0289344 8.60412,0.0512266 8.35959,0.0797099 8.11694,0.114304 7.87626,0.154931 7.63764,0.20151 7.40114,0.25396 7.16684,0.312204 6.93484,0.376161 6.70521,0.445753 6.47802,0.520896 6.25337,0.601516 6.03132,0.687531 5.81196,0.778859 5.59536,0.875424 5.3816,0.977145 5.17078,1.08394 4.96295,1.19574 4.75823,1.31245 4.55666,1.43399 4.35832,1.56029 4.16333,1.69129 3.97172,1.82687 3.78362,1.96697 3.59906,2.11151 3.41815,2.26041 3.24097,2.41359 3.06758,2.57096 2.89808,2.73247 2.73253,2.89802 2.57102,3.06752 2.41364,3.24091 2.26047,3.41809 2.11156,3.599 1.96702,3.78356 1.82692,3.97167 1.69134,4.16328 1.56036,4.35828 1.43404,4.55661 1.3125,4.75819 1.19578,4.96293 1.08398,5.17075 0.977182,5.38159 0.875459,5.59534 0.778891,5.81194 0.687559,6.03132 0.601542,6.25338 0.52092,6.47806 0.445772,6.70524 0.376178,6.93489 0.312219,7.16691 0.253973,7.40121 0.201519,7.63772 0.154939,7.87637 0.11431,8.11707 0.079714,8.35972 0.0512294,8.60428 0.028936,8.85066 0.0129136,9.09875 0.00324165,9.34851 0,9.59983 0.0015912,9.66011 0.0064872,9.71856 0.0086904,9.76997 0.0064872,9.83484 0.0015912,9.89573 0,9.95846 V 46.6674 l 0.00167149,0.1374 0.00512024,0.1405 0.00872757,0.1446 0.0124937,0.149 0.0164182,0.1544 -0.0164182,0.1589 -0.0124937,0.1539 -0.00872757,0.15 L 0.00167149,48.0025 0,48.146 l 0.0027557,0.1967 0.008218,0.1955 0.0136068,0.194 0.0189218,0.1924 0.0241632,0.191 0.0293311,0.1892 0.0344254,0.1875 0.039446,0.1858 0.044393,0.1839 0.049266,0.182 0.054067,0.1799 0.058791,0.1778 0.063445,0.1758 0.068024,0.1735 0.072529,0.1712 0.07696,0.1688 0.081319,0.1663 0.085603,0.1638 0.089813,0.1612 0.093952,0.1586 0.09801,0.1558 0.10201,0.153 0.10592,0.1501 0.10977,0.1471 0.11352,0.1441 0.11724,0.141 0.12084,0.1378 0.1244,0.1345 0.12787,0.1313 0.13127,0.1279 0.13461,0.1243 0.13786,0.1208 0.14102,0.1172 0.14414,0.1134 0.14718,0.1097 0.15013,0.1059 0.15303,0.1019 0.15582,0.098 0.15857,0.0938 0.16124,0.0898 0.16382,0.0855 0.16634,0.0813 0.16879,0.0769 0.17115,0.0724 0.17346,0.0681 0.17568,0.0634 0.17782,0.0587 0.1799,0.054 0.18191,0.0492 0.18384,0.0443 0.18568,0.0394 0.18747,0.0344 0.18918,0.0294 0.19081,0.0241 0.19236,0.0189 0.19387,0.0135 0.19526,0.0084 0.19662,0.0027 0.19671,-0.0027 0.19536,-0.0084 0.19395,-0.0135 0.19245,-0.0189 0.19089,-0.0241 0.18925,-0.0294 0.18754,-0.0344 0.18576,-0.0394 0.18389,-0.0443 0.18196,-0.0492 0.17995,-0.054 0.17787,-0.0587 0.17573,-0.0634 0.17349,-0.0681 0.1712,-0.0724 0.16882,-0.0769 0.16634,-0.0813 0.1639,-0.0855 0.1612,-0.0898 0.1586,-0.0938 0.1559,-0.098 0.153,-0.1019 0.1502,-0.1059 0.1472,-0.1097 0.1441,-0.1134 0.1411,-0.1172 0.1378,-0.1208 0.1346,-0.1243 0.1313,-0.1279 0.1279,-0.1313 0.1244,-0.1345 0.1208,-0.1378 0.1172,-0.141 0.1136,-0.1441 0.1098,-0.1471 0.1058,-0.1501 0.102,-0.153 0.098,-0.1558 0.0939,-0.1586 0.0899,-0.1612 0.0855,-0.1638 0.0814,-0.1663 0.0769,-0.1688 0.0726,-0.1712 0.0679,-0.1735 0.0635,-0.1758 0.0588,-0.1778 0.0539,-0.1799 0.0494,-0.182 0.0443,-0.1839 0.0395,-0.1858 0.0344,-0.1875 0.0293,-0.1892 0.0242,-0.191 0.0188,-0.1924 0.0136,-0.194 0.0082,-0.1955 z"
         style="fill:url(#Grad271);fill-rule:evenodd;stroke:none"
         transform="rotate(-90,14.529378,13.955322)"
         id="path5010" />
      <path
         d="M 0.127296,0.011016 0.123624,0.00459 0.119952,0 0.059976,0.002295 0,0.003672 0.063189,0.006885 Z"
         style="fill:url(#Grad272);fill-rule:evenodd;stroke:none"
         transform="rotate(90,15.2076,29.1612)"
         id="path5012" />
      <path
         d="M 8.62638,6.60715 8.62479,6.74355 8.61996,6.88289 8.61177,7.02576 8.60011,7.17274 8.58489,7.32442 8.60335,7.50791 8.61629,7.68427 8.6239,7.85421 8.62638,8.01842 V 43.0726 l -0.00146,0.0591 -0.00368,0.0571 -0.00281,0.0637 0.00281,0.0489 0.00368,0.0561 0.00146,0.0578 -0.00287,0.2312 -0.00859,0.2299 -0.01424,0.2284 -0.0198,0.2268 L 8.55556,44.5568 8.52482,44.7803 8.48868,45.0021 8.44726,45.222 8.40061,45.4401 8.34878,45.6562 8.29187,45.8704 8.22992,46.0824 8.163,46.2923 8.0912,46.5 8.01458,46.7054 7.9332,46.9085 l -0.08607,0.2006 -0.0907,0.198 -0.09524,0.1956 -0.09972,0.193 -0.10414,0.1902 -0.1085,0.1876 -0.11276,0.1847 -0.11698,0.1817 -0.12111,0.1788 -0.1252,0.1758 -0.1292,0.1727 -0.13314,0.1697 -0.137,0.1662 -0.14081,0.163 -0.14454,0.1598 -0.1482,0.1561 -0.1518,0.1528 L 5.73276,50.0839 5.57397,50.2294 5.41179,50.3713 5.24628,50.5092 5.07752,50.6435 4.90557,50.7737 4.7305,50.9 4.55239,51.0223 4.37128,51.1406 4.18728,51.2545 4.00041,51.3643 3.81078,51.4697 3.61843,51.5708 3.42343,51.6674 3.22588,51.7595 3.0258,51.847 2.8233,51.9299 2.61842,52.0081 2.41124,52.0814 2.20184,52.15 1.99027,52.2136 1.7766,52.2723 1.56091,52.3259 1.34325,52.3742 1.12371,52.4176 0.902339,52.4555 0.679216,52.4882 0.454406,52.5155 0.227979,52.5374 0,52.5537 l 0.179973,0.0122 0.17943,0.011 0.181605,0.0049 0.23996,-0.003 L 1.01943,52.5695 1.25631,52.5542 1.49155,52.5329 1.72506,52.5057 1.95676,52.4726 2.18658,52.4338 2.41444,52.3894 2.64028,52.3392 2.864,52.2836 3.08554,52.2226 3.30482,52.1561 3.52177,52.0844 3.7363,52.0074 3.94834,51.9251 4.15782,51.838 4.36465,51.7457 4.56878,51.6486 4.7701,51.5466 4.96856,51.4398 5.16407,51.3284 5.35655,51.2123 5.54596,51.0917 5.73218,50.9666 5.91514,50.8371 6.09479,50.7033 6.27103,50.5653 6.44378,50.4232 6.613,50.2768 6.77859,50.1266 6.94046,49.9724 7.09854,49.8142 7.25278,49.6524 7.40307,49.4868 7.54936,49.3177 7.69157,49.1448 7.8296,48.9686 7.96341,48.789 8.09288,48.606 8.21797,48.4198 8.3386,48.2305 8.45468,48.038 l 0.11147,-0.1955 0.10677,-0.1984 0.102,-0.2014 0.09713,-0.2041 0.09223,-0.2068 0.08722,-0.2095 0.08216,-0.212 0.07699,-0.2145 0.07177,-0.217 0.06647,-0.2192 0.06109,-0.2215 0.05562,-0.2238 0.05009,-0.2258 0.0445,-0.2278 0.0388,-0.2297 0.03303,-0.2317 0.02721,-0.2336 0.02129,-0.2352 0.0153,-0.2369 0.00924,-0.2384 0.0031,-0.2399 L 9.70641,43.3575 9.70302,43.3014 9.69934,43.2525 9.70302,43.1888 9.70641,43.1317 9.70816,43.0726 V 8.01842 L 9.70567,7.85421 9.69806,7.68427 9.68512,7.50791 9.66666,7.32442 9.68188,7.17274 9.69354,7.02576 9.70173,6.88289 9.70656,6.74355 9.70816,6.60715 9.70523,6.40915 9.6965,6.21257 9.68207,6.01751 9.662,5.82404 9.63638,5.63224 9.6053,5.4422 9.56883,5.254 9.52705,5.06771 9.48006,4.88344 9.42795,4.70126 9.37076,4.52124 9.30861,4.34347 9.24157,4.16804 9.16972,3.99503 9.09314,3.82451 9.01193,3.65658 8.92615,3.49131 8.83591,3.32879 8.74126,3.1691 8.6423,3.01231 8.53911,2.85853 8.43178,2.70782 8.32038,2.56027 8.20501,2.41596 8.08573,2.27498 7.96263,2.1374 7.83582,2.00331 7.70534,1.87278 7.57128,1.74591 7.43374,1.62279 7.29281,1.50348 7.14855,1.38806 7.00105,1.27664 6.8504,1.16928 6.69666,1.06607 6.53994,0.96709 6.38031,0.872422 6.21785,0.782151 6.05266,0.696357 5.88478,0.615125 5.71434,0.538536 5.5414,0.466672 5.36605,0.399616 5.18838,0.337452 5.00844,0.280261 4.82634,0.228124 4.64215,0.181125 4.45597,0.139348 4.26787,0.102873 4.07793,0.0717828 3.88624,0.046161 3.69287,0.0260892 3.49792,0.0116502 3.30146,0.00292629 3.10357,0 2.92094,0.00403467 2.74076,0.0143253 2.56195,0.028152 2.74607,0.045772 2.92869,0.068408 3.10976,0.0959901 3.28921,0.128448 3.46696,0.165711 3.64293,0.207712 3.81708,0.254377 3.98931,0.305636 4.15957,0.361423 4.32777,0.421664 4.49384,0.48629 4.65774,0.555232 4.81937,0.628419 4.97866,0.70578 5.13554,0.787246 5.28996,0.872747 5.44182,0.962213 5.59107,1.05557 5.73763,1.15276 5.88143,1.25369 6.0224,1.35832 6.16048,1.46656 6.29557,1.57834 6.42764,1.6936 6.55658,1.81225 6.68234,1.93425 6.80485,2.0595 6.92403,2.18795 7.03982,2.31953 7.15215,2.45416 7.26093,2.59177 7.36611,2.73229 7.4676,2.87565 7.56535,3.0218 7.65927,3.17064 7.7493,3.32212 7.83537,3.47615 7.91742,3.63269 7.99535,3.79163 8.06911,3.95294 8.13862,4.11653 8.20382,4.28234 8.26463,4.45027 8.32098,4.62028 8.37281,4.7923 8.42003,4.96625 8.46259,5.14206 8.5004,5.31966 8.5334,5.49899 8.56151,5.67996 8.58468,5.86252 8.60282,6.04658 8.61586,6.23209 8.62374,6.41897 Z"
         style="fill:url(#Grad273);fill-rule:evenodd;stroke:none"
         transform="rotate(90,18.3496,36.0474)"
         id="path5014" />
      <path
         d="M 6.42967,7.42601 6.41709,7.56097 6.40173,7.69395 6.38279,7.82607 6.35944,7.95845 6.33088,8.09221 6.29628,8.22845 6.25481,8.36832 6.20568,8.51292 6.42934,8.55518 6.65114,8.60241 6.87102,8.65456 7.08892,8.71154 7.3048,8.77331 7.51858,8.8398 7.73022,8.91093 7.93967,8.98666 8.14686,9.0669 l 0.20488,0.0847 0.20251,0.0891 0.2001,0.09343 0.19762,0.09768 0.19509,0.1019 0.19249,0.10602 0.18985,0.1101 0.18715,0.1141 0.1844,0.11805 0.18155,0.12192 0.1788,0.1257 0.1757,0.1295 0.1729,0.1332 0.1697,0.1368 0.1667,0.1403 0.1636,0.1439 0.1603,0.1472 0.1571,0.1506 0.1538,0.1539 0.1504,0.1572 0.1469,0.1603 0.1435,0.1634 0.14,0.1665 0.1364,0.1694 0.1326,0.1724 0.1291,0.1752 0.1252,0.1779 0.1215,0.1807 0.1175,0.1833 0.1137,0.186 0.1096,0.1885 0.1056,0.1909 0.1016,0.1933 0.0973,0.1956 0.0932,0.1979 0.0889,0.2001 0.0846,0.2022 0.0802,0.2043 0.0758,0.2064 0.0713,0.2082 0.0667,0.2101 0.0622,0.212 0.0575,0.2137 0.0528,0.2153 0.0481,0.2171 0.0432,0.2186 0.0383,0.22 0.0334,0.2215 0.0284,0.2229 0.0234,0.2241 0.0182,0.2253 0.0132,0.2266 0.0079,0.2276 0.0027,0.2287 -0.0025,0.2212 -0.0072,0.2202 -0.012,0.219 -0.0166,0.218 -0.0215,0.2167 -0.0259,0.2155 -0.0306,0.2141 -0.0351,0.2129 -0.0396,0.2114 -0.044,0.2097 -0.0484,0.2085 -0.0527,0.2067 -0.0571,0.205 -0.0613,0.2035 -0.0655,0.2017 -0.0696,0.1997 -0.0738,0.1981 -0.0779,0.196 -0.0819,0.1941 -0.0859,0.1919 -0.0897,0.19 -0.0936,0.1877 -0.0976,0.1856 -0.1012,0.1833 -0.105,0.1811 -0.1087,0.1787 -0.1124,0.1761 -0.116,0.1738 -0.1196,0.1711 -0.123,0.1687 -0.1265,0.166 -0.13,0.1633 -0.1333,0.1604 -0.1366,0.1578 -0.1399,0.1548 -0.1431,0.1519 -0.1464,0.149 -0.1495,0.1459 -0.1525,0.1427 -0.1557,0.1398 -0.1586,0.1365 -0.1616,0.1331 -0.1645,0.1299 -0.1673,0.1266 -0.1702,0.1231 -0.1729,0.1196 -0.17571,0.1161 -0.17835,0.1125 -0.18098,0.109 -0.18357,0.1051 -0.18611,0.1015 -0.18861,0.0975 -0.19105,0.0938 -0.19346,0.0898 -0.19581,0.086 -0.19812,0.0817 -0.20038,0.0777 -0.20259,0.0737 -0.20478,0.0694 -0.20689,0.0651 -0.20898,0.0609 -0.211,0.0565 -0.21299,0.052 0.08344,0.1048 0.08141,0.1061 0.07936,0.1074 0.07731,0.1086 0.07524,0.1097 0.07317,0.1109 0.07108,0.1122 0.06897,0.1131 0.06688,0.1143 0.06475,0.1153 0.06263,0.1164 0.06048,0.1174 0.05835,0.1183 0.05617,0.1194 0.05401,0.1202 0.05183,0.1211 0.04963,0.1221 0.04743,0.1229 0.04523,0.1236 0.043,0.1245 0.04077,0.1253 0.03852,0.126 0.03626,0.1266 0.03401,0.1275 0.03173,0.1281 0.02944,0.1286 0.02715,0.1294 0.02485,0.1299 0.02252,0.1305 0.02021,0.1309 0.01785,0.1315 0.01553,0.1321 0.01314,0.1323 0.0108,0.1329 0.00841,0.1332 0.00602,0.1336 0.00361,0.1339 0.00121,0.1343 -0.00259,0.2001 -0.00774,0.1987 -0.0128,0.1969 -0.01784,0.1955 -0.02278,0.1936 -0.02768,0.192 -0.0325,0.1901 -0.03727,0.1882 -0.04197,0.1863 -0.04661,0.1842 -0.0512,0.1823 -0.05571,0.18 -0.06016,0.178 -0.06455,0.1756 -0.06887,0.1733 -0.07315,0.171 -0.07734,0.1686 -0.08149,0.1661 -0.08557,0.1636 -0.08957,0.1609 -0.09352,0.1584 -0.09742,0.1555 -0.10125,0.1528 -0.10501,0.1499 -0.1087,0.147 -0.11235,0.1441 -0.11593,0.141 -0.11944,0.1379 -0.12289,0.1349 -0.12626,0.1316 -0.12961,0.1284 -0.13287,0.125 -0.13606,0.1216 -0.1392,0.1183 L 5.65035,38.3979 5.50506,38.509 5.35682,38.6165 5.2057,38.7203 5.05174,38.8204 4.89503,38.9167 4.73563,39.0091 4.57359,39.0976 4.40896,39.1821 4.24183,39.2626 4.07225,39.339 3.90029,39.4112 3.726,39.4791 3.54945,39.5428 3.3707,39.6022 3.18983,39.6571 3.00687,39.7077 2.82191,39.7536 2.63499,39.7949 2.4462,39.8317 2.25559,39.8637 2.0632,39.891 1.86913,39.9134 1.67342,39.931 1.47614,39.9436 1.27735,39.9512 1.07712,39.9538 0.91343,39.9517 0.748935,39.9455 0.583294,39.9352 0.41616,39.9208 l 0.062065,0.1028 0.061762,0.1055 0.061338,0.1081 0.0608,0.1102 0.060143,0.1127 0.059369,0.1146 0.058477,0.1166 0.05747,0.1183 0.056344,0.12 0.055102,0.1214 0.05374,0.1229 0.05226,0.124 0.05067,0.125 0.04896,0.1259 0.04712,0.1267 0.04519,0.1273 0.04313,0.1278 0.04093,0.128 0.03864,0.1283 0.03623,0.1282 0.0337,0.1282 0.03104,0.1279 0.02827,0.1274 0.0254,0.127 0.02239,0.1262 0.01927,0.1253 0.01604,0.1243 0.01268,0.1233 0.00922,0.1219 0.00563,0.1205 0.0038,0.206 -0.00148,0.2034 -0.00653,0.2008 -0.01135,0.1983 -0.01591,0.1954 -0.02024,0.1925 -0.02434,0.1896 -0.02818,0.1864 -0.03181,0.1833 -0.03516,0.18 -0.03832,0.1766 -0.04121,0.1732 -0.04385,0.1696 -0.04628,0.1659 -0.04846,0.1622 -0.05041,0.1583 -0.05209,0.1542 -0.05356,0.1503 -0.05478,0.146 L 1.01362,47.101 0.957115,47.2384 0.900106,47.3715 0.842833,47.4999 0.785535,47.6238 0.72845,47.7427 0.671818,47.8569 0.615878,47.9662 0.560869,48.0704 0.507031,48.1695 0.454602,48.2633 0.403823,48.3518 0.354932,48.4348 0.308168,48.5124 0.263771,48.5842 0.221979,48.6503 0.183032,48.7107 0.147169,48.765 0.11463,48.8134 0.0856532,48.8556 0.0604781,48.8916 0.0393438,48.9212 0.0224897,48.9445 0.0101549,48.9612 0.00257859,48.9713 0,48.9747 0.104745,48.8891 0.207691,48.8014 0.308804,48.7117 0.408055,48.62 0.505409,48.5262 0.600836,48.4306 0.694303,48.3329 0.785777,48.2336 0.875229,48.1322 0.962625,48.029 1.04793,47.9241 1.13112,47.8174 1.21215,47.7089 1.291,47.5989 1.36764,47.487 1.44203,47.3737 1.51414,47.2586 1.58393,47.1421 1.65137,47.0241 1.71645,46.9045 1.77911,46.7835 1.83934,46.661 1.89709,46.5371 1.95233,46.4119 2.00505,46.2853 2.05518,46.1574 2.10272,46.0283 2.14763,45.8978 2.18987,45.7662 2.22942,45.6335 2.26624,45.4996 2.30029,45.3645 2.33155,45.2285 2.35999,45.0913 2.38556,44.9532 2.40826,44.8141 2.42802,44.674 2.44484,44.533 2.45867,44.3912 2.46948,44.2485 2.47724,44.1049 2.48193,43.9606 2.4835,43.8155 2.48222,43.6847 2.47842,43.5543 2.47208,43.4243 2.46321,43.2947 2.45183,43.1657 2.43796,43.0371 2.42159,42.909 2.40274,42.7815 2.3814,42.6546 2.35761,42.5282 2.33135,42.4025 2.30265,42.2774 2.2715,42.1531 2.23792,42.0295 2.20194,41.9065 2.16353,41.7842 2.12272,41.6628 2.07951,41.5421 2.03392,41.4222 1.98595,41.3033 1.93562,41.1852 1.88293,41.0679 1.82788,40.9516 1.7705,40.8362 1.7108,40.7217 1.64876,40.6084 1.58441,40.496 1.51776,40.3847 l 0.1701,0.014 0.16895,0.0109 0.16803,0.0069 0.16734,0.0024 0.19775,-0.0025 0.19653,-0.0076 0.19521,-0.0126 0.19387,-0.0177 0.19245,-0.0224 0.19096,-0.0271 0.18941,-0.0321 0.18781,-0.0366 0.18614,-0.0414 0.18439,-0.0458 0.18261,-0.0504 0.18074,-0.0547 0.17881,-0.0592 0.17683,-0.0634 0.17479,-0.0678 0.17267,-0.0719 0.1705,-0.076 0.16825,-0.0802 0.16597,-0.0841 0.1636,-0.088 0.16116,-0.0919 0.15868,-0.0956 0.15613,-0.0995 0.15352,-0.1032 0.15083,-0.1067 0.14811,-0.1103 0.14528,-0.1138 0.14244,-0.1172 0.1395,-0.1207 0.13651,-0.1238 0.13346,-0.1272 0.13034,-0.1304 0.12715,-0.1334 0.12392,-0.1366 0.12061,-0.1394 0.11725,-0.1425 0.1138,-0.1452 0.11032,-0.1481 0.10676,-0.151 0.10315,-0.1535 0.09946,-0.1561 0.09572,-0.1587 0.09189,-0.1612 0.08805,-0.1636 0.0841,-0.166 0.0801,-0.1683 0.07604,-0.1706 0.07192,-0.1727 0.06774,-0.1748 0.0635,-0.1769 0.05918,-0.1789 0.0548,-0.1808 0.05038,-0.1826 0.04586,-0.1845 0.04131,-0.1862 0.03669,-0.1878 0.032,-0.1896 L 9.68638,33.837 9.70882,33.6445 9.72637,33.4506 9.73899,33.2552 9.7466,33.0586 9.74916,32.8607 9.74798,32.7274 9.74447,32.5945 9.73862,32.4618 9.73046,32.3295 9.71998,32.1976 9.7072,32.066 9.69213,31.9348 9.67479,31.804 9.65518,31.6738 9.6333,31.5442 9.60918,31.4149 9.58282,31.2863 9.55423,31.1581 9.52342,31.0307 9.49041,30.9038 9.45519,30.7776 9.41779,30.6521 9.37821,30.5273 9.33648,30.4032 9.29257,30.2798 9.24652,30.1573 9.19835,30.0355 9.14804,29.9146 9.09562,29.7946 9.0411,29.6754 8.98448,29.5572 8.92578,29.4398 8.86499,29.3234 8.80215,29.2081 8.73725,29.0936 8.67031,28.9803 8.60134,28.868 8.53035,28.7568 8.45735,28.6467 8.38233,28.5378 8.30534,28.4301 8.22636,28.3235 8.1454,28.2182 8.06249,28.1141 l 0.21717,-0.053 0.21514,-0.0576 0.21308,-0.0619 0.21097,-0.0663 0.20879,-0.0707 0.20658,-0.075 0.20434,-0.0792 0.20202,-0.0833 0.19968,-0.0874 0.19724,-0.0916 0.1949,-0.0956 0.1923,-0.0995 0.1898,-0.1033 0.1872,-0.1072 0.1845,-0.111 0.1819,-0.1147 0.1792,-0.1184 0.1764,-0.1219 0.1735,-0.1256 0.1707,-0.129 0.1677,-0.1324 0.1649,-0.1358 0.1617,-0.1391 0.1587,-0.1425 0.1556,-0.1456 0.1525,-0.1488 0.1492,-0.1519 0.146,-0.1548 0.1427,-0.1579 0.1395,-0.1609 0.1358,-0.1636 0.1326,-0.1666 0.129,-0.1693 0.1256,-0.1719 0.1219,-0.1746 0.1182,-0.1772 0.1147,-0.1797 0.1109,-0.1823 0.1071,-0.1845 0.1033,-0.1871 0.0994,-0.1892 0.0956,-0.1916 0.0915,-0.1937 0.0877,-0.1959 0.0835,-0.1979 0.0794,-0.2 0.0753,-0.2019 0.071,-0.2038 0.0668,-0.2057 0.0625,-0.2076 0.0583,-0.2091 0.0537,-0.2109 0.0495,-0.2125 0.0449,-0.2142 0.0403,-0.2156 0.0358,-0.2171 0.0313,-0.2185 0.0264,-0.2198 0.0218,-0.2211 0.0171,-0.2224 0.0123,-0.2235 0.0073,-0.2246 0.0024,-0.2257 -0.0026,-0.2332 -0.0081,-0.2321 -0.0134,-0.2311 -0.0187,-0.2298 -0.0239,-0.2286 -0.029,-0.2272 -0.034,-0.2259 -0.0392,-0.2244 -0.044,-0.2229 -0.049,-0.2213 -0.0538,-0.2197 -0.0587,-0.2179 -0.0635,-0.2161 -0.0681,-0.2144 -0.0727,-0.2123 -0.0773,-0.2104 -0.0818,-0.2084 -0.0863,-0.2062 -0.0907,-0.204 -0.095,-0.2019 L 14.8102,13.6258 14.7066,13.4287 14.5989,13.234 14.487,13.0418 14.3711,12.8522 14.2512,12.6652 14.1273,12.481 13.9996,12.2995 13.868,12.1209 13.7327,11.9451 13.5935,11.7723 13.4508,11.6026 13.3044,11.4359 13.1545,11.2724 13.0011,11.1122 12.8443,10.9552 12.6841,10.8016 12.5205,10.6514 12.3537,10.5047 12.1837,10.3616 12.0105,10.2221 11.8343,10.0863 11.655,9.95425 11.4727,9.82603 11.2875,9.70168 11.0994,9.58129 10.9086,9.46492 10.7149,9.35263 10.5186,9.2445 10.3197,9.14059 10.1181,9.04095 9.91406,8.94567 9.70753,8.85478 9.49859,8.76839 9.2873,8.68654 9.07371,8.6093 8.85787,8.53674 8.63985,8.46892 8.41971,8.40591 8.19751,8.34777 7.97328,8.29457 7.74711,8.24637 7.51903,8.20325 7.53712,8.06369 7.55305,7.92645 7.56682,7.7914 7.57843,7.6584 7.58792,7.52732 7.59529,7.39804 7.60053,7.27041 7.60367,7.14433 7.60471,7.01964 7.60361,6.87675 7.60034,6.73437 7.5949,6.59255 7.58729,6.45126 7.57756,6.31055 7.56572,6.17042 7.55176,6.03089 7.53573,5.89198 7.51762,5.75369 7.49745,5.61607 7.47526,5.4791 7.45104,5.34281 7.42481,5.20721 7.39658,5.07234 7.36639,4.93819 7.33423,4.80479 7.30014,4.67214 7.26412,4.54027 7.22618,4.40919 7.18635,4.27893 7.14465,4.14948 7.10107,4.02089 7.05566,3.89314 7.00842,3.76627 6.95936,3.64029 6.90849,3.51521 6.85584,3.39104 6.80144,3.26782 6.74528,3.14556 6.68739,3.02426 6.62776,2.90394 6.56645,2.78462 6.50344,2.66634 6.43878,2.54907 6.37244,2.43285 6.30447,2.31771 6.23488,2.20363 6.16368,2.09065 6.09089,1.9788 6.01654,1.86807 5.94061,1.75848 5.86314,1.65006 5.78415,1.54282 5.70364,1.43676 5.62164,1.33191 5.53816,1.22828 5.45323,1.12591 5.36684,1.02479 5.27901,0.92494 5.18977,0.82638 5.09915,0.729126 5.00713,0.633192 4.91374,0.538597 4.819,0.445354 4.72294,0.35348 4.62554,0.262992 4.52685,0.173906 4.42687,0.0862361 4.32562,0 4.32754,0.00238548 4.33319,0.00951216 4.34246,0.0213354 4.35519,0.0378107 4.37127,0.0588932 4.39055,0.0845386 4.4129,0.114702 4.43818,0.149339 4.46625,0.188404 4.497,0.231855 4.53028,0.279645 4.56595,0.33173 4.60389,0.388064 4.64395,0.448605 4.686,0.513306 l 0.04392,0.06882 0.04563,0.07289 0.04722,0.076918 0.04868,0.0809 0.04998,0.084839 0.05118,0.088731 0.05223,0.092586 0.05314,0.09638 0.05393,0.10015 0.05457,0.10385 0.05508,0.10753 0.05546,0.11115 0.0557,0.11474 0.05582,0.11828 0.05578,0.12176 0.05561,0.12522 0.05533,0.12861 0.0549,0.13198 0.05432,0.13528 0.05363,0.13855 0.05279,0.14179 0.05183,0.14496 0.05072,0.14809 0.04947,0.15117 0.04812,0.15424 0.0466,0.15723 0.04495,0.16019 0.04319,0.1631 0.04127,0.16596 0.03923,0.16879 0.03705,0.17157 0.03473,0.17429 0.03227,0.177 L 6.34004,4.87048 6.36702,5.05271 6.39114,5.2375 6.41227,5.42479 6.43028,5.61455 6.44505,5.80674 6.4564,6.0013 6.46424,6.19819 6.46841,6.39737 6.4688,6.59879 6.46525,6.8024 6.45763,7.00818 6.44582,7.21607 Z"
         style="fill:url(#Grad274);fill-rule:evenodd;stroke:none"
         transform="rotate(-90,10.81222,7.19408)"
         id="path5016" />
      <path
         d="M 6.34338,4.66222 6.33984,4.84503 6.32932,5.02603 6.31192,5.20505 6.28781,5.38198 6.2571,5.5567 6.21993,5.72908 6.17641,5.89898 6.1267,6.0663 6.07091,6.23089 6.00917,6.39263 5.94161,6.55141 5.86837,6.70708 5.78958,6.85952 5.70537,7.0086 5.61587,7.15421 5.52121,7.29619 5.42152,7.43445 5.31693,7.56885 5.20757,7.69927 5.09357,7.82556 4.97506,7.94762 4.85218,8.0653 4.72506,8.1785 4.59381,8.28707 4.45858,8.3909 4.31948,8.48985 4.17668,8.5838 4.03028,8.67263 3.88041,8.75619 3.7272,8.83438 3.57081,8.90706 3.41134,8.97411 3.24892,9.0354 3.0837,9.09079 2.9158,9.14018 2.74535,9.18343 2.57248,9.2204 2.39733,9.25099 2.53342,9.31736 2.66746,9.38722 2.79939,9.4605 2.92912,9.53715 3.05661,9.6171 3.18179,9.70031 3.3046,9.7867 l 0.12041,0.08952 0.11791,0.09261 0.11537,0.09557 0.11277,0.0986 0.1101,0.1015 0.10738,0.1043 0.10459,0.107 0.10175,0.1099 0.09884,0.1124 0.09589,0.1151 0.09285,0.1176 0.08977,0.1201 0.08663,0.1225 0.08342,0.1249 0.08016,0.1272 0.07683,0.1294 0.07345,0.1317 0.07,0.1337 0.0665,0.1359 0.06294,0.1378 0.0593,0.1398 0.05563,0.1417 0.05188,0.1436 0.04807,0.1453 0.04422,0.1471 0.04028,0.1487 0.03629,0.1503 0.03225,0.1518 0.02815,0.1534 0.02398,0.1548 0.01976,0.156 0.01547,0.1576 0.01112,0.1586 0.00672,0.1599 0.00226,0.161 L 5.645,14.5345 5.63744,14.7042 5.62492,14.8726 5.60751,15.0394 5.5853,15.2049 5.55834,15.3688 5.52671,15.531 5.4905,15.6916 l -0.04076,0.1587 -0.04519,0.157 -0.04959,0.1551 -0.0539,0.1532 -0.05813,0.1509 -0.0623,0.1489 -0.06639,0.1468 -0.07043,0.1444 -0.07437,0.1421 -0.07825,0.1398 -0.08206,0.1372 -0.0858,0.1348 -0.08946,0.1321 -0.09306,0.1293 -0.09659,0.1267 -0.10002,0.1238 -0.10342,0.1209 -0.10672,0.118 -0.10995,0.1148 -0.11311,0.1119 -0.11622,0.1085 -0.11923,0.1053 -0.12218,0.102 -0.12506,0.0986 -0.12786,0.0951 -0.1306,0.0916 -0.13325,0.088 -0.13585,0.0842 -0.13838,0.0805 -0.14081,0.0767 -0.14319,0.0728 -0.1455,0.0688 -0.14772,0.0647 -0.1499,0.0607 -0.15198,0.0565 -0.154,0.0522 -0.15594,0.0479 0.1095,0.0828 0.10798,0.0849 0.1064,0.0866 0.10484,0.0885 0.10322,0.0904 0.10159,0.0921 0.09991,0.0939 0.09824,0.0957 0.09654,0.0973 0.09479,0.0992 0.09302,0.1007 0.09124,0.1025 0.08942,0.104 0.08758,0.1056 0.08572,0.1072 0.08382,0.1089 0.08191,0.1102 0.07995,0.1118 0.07799,0.1133 0.076,0.1147 0.07398,0.1162 0.07193,0.1176 0.06986,0.119 0.06776,0.1202 0.06564,0.1216 0.06349,0.1231 0.06131,0.1241 0.05912,0.1256 0.05688,0.1266 0.05464,0.1279 0.05236,0.1291 0.05005,0.1303 0.04772,0.1313 0.04538,0.1326 0.04298,0.1335 0.04059,0.1347 0.03814,0.1356 0.03571,0.1367 0.0332,0.1377 0.0307,0.1386 0.02816,0.1395 0.02561,0.1405 0.02302,0.1414 0.02041,0.1422 0.01777,0.143 0.0151,0.1439 0.01243,0.1447 0.0097,0.1454 0.00696,0.1462 0.0042,0.1469 0.0014,0.1474 -0.00125,0.1388 -0.00373,0.1384 -0.00618,0.1375 -0.00863,0.1369 -0.01104,0.1362 -0.01344,0.1355 -0.0158,0.1349 -0.01814,0.134 -0.02048,0.1333 -0.02276,0.1324 -0.02506,0.1318 -0.02731,0.1309 -0.02954,0.13 -0.03177,0.1293 -0.03394,0.1282 -0.03611,0.1275 -0.03825,0.1264 -0.04038,0.1256 -0.04247,0.1246 -0.04455,0.1236 -0.04661,0.1225 -0.04864,0.1217 -0.05065,0.1206 -0.05264,0.1194 -0.05459,0.1184 -0.05655,0.1174 -0.05845,0.1161 -0.06036,0.1151 -0.06223,0.1139 -0.06407,0.1128 -0.06592,0.1115 -0.06771,0.1102 -0.0695,0.1092 -0.07126,0.1079 -0.073,0.1065 -0.07471,0.1052 -0.07641,0.1041 -0.07808,0.1025 0.12189,0.0768 0.12017,0.0792 0.11839,0.0815 0.1166,0.084 0.11475,0.0862 0.11287,0.0887 0.11096,0.0909 0.10901,0.093 0.10704,0.0954 0.10501,0.0974 0.10296,0.0996 0.10086,0.1018 0.09874,0.1036 0.09657,0.1059 0.09437,0.1077 0.09215,0.1098 0.08986,0.1116 0.08757,0.1135 0.08522,0.1154 0.08284,0.1173 0.08043,0.119 0.07798,0.1206 0.0755,0.1226 0.07298,0.1241 0.0704,0.1258 0.06782,0.1273 0.0652,0.129 0.06253,0.1305 0.05983,0.1321 0.05708,0.1334 0.05432,0.135 0.05151,0.1362 0.04867,0.1377 0.04579,0.1391 0.04286,0.1402 0.03993,0.1416 0.03693,0.1429 0.0339,0.1439 0.03085,0.1452 0.02776,0.1464 0.02462,0.1474 0.02145,0.1483 0.01826,0.1496 0.01501,0.1504 0.01175,0.1514 0.00842,0.1523 0.00509,0.1531 0.0017,0.1541 -0.00257,0.1895 -0.00767,0.1882 -0.01271,0.1869 -0.01767,0.1855 -0.02258,0.1839 -0.0274,0.1824 -0.03217,0.1809 -0.03688,0.1791 -0.0415,0.1775 L 6.09614,38.2643 6.04557,38.438 5.99055,38.6099 5.93116,38.7796 5.86748,38.9473 5.79956,39.1129 5.72745,39.2763 5.65126,39.4374 5.57102,39.5963 5.48681,39.7526 5.3987,39.9066 5.30675,40.058 5.21102,40.2067 5.1116,40.3528 5.00852,40.4962 4.90189,40.6368 4.79174,40.7745 4.67815,40.9094 4.56119,41.0411 4.44092,41.1699 4.3174,41.2956 4.19072,41.418 4.06093,41.5371 3.92809,41.653 3.79228,41.7653 3.65355,41.8744 3.512,41.9798 3.36765,42.0817 3.2206,42.1799 3.07091,42.2744 2.91864,42.3651 2.76385,42.452 2.60663,42.5349 2.44702,42.6138 2.28511,42.6887 2.12095,42.7595 1.95461,42.826 1.78615,42.8885 1.61564,42.9465 1.44317,43.0001 1.26877,43.0493 1.09253,43.094 0.914505,43.134 0.734767,43.1695 0.553381,43.2002 0.370414,43.2262 0.185932,43.2473 0,43.2635 l 0.168231,0.0121 0.169865,0.0097 0.172312,0.0039 0.198517,-0.0028 0.197118,-0.0085 0.195647,-0.0139 0.1941,-0.0193 0.19246,-0.0248 0.19077,-0.03 0.18899,-0.0352 0.18712,-0.0404 0.18521,-0.0454 0.18319,-0.0504 0.18111,-0.0554 0.17894,-0.0601 0.17671,-0.0648 0.17441,-0.0697 0.17201,-0.0742 0.16954,-0.0787 0.167,-0.0831 0.16439,-0.0875 0.16169,-0.0918 0.15893,-0.0961 0.15607,-0.1001 0.15315,-0.1043 0.15016,-0.1082 0.14707,-0.1122 0.14393,-0.1159 0.1407,-0.1199 0.1374,-0.1233 0.13401,-0.1271 0.13057,-0.1306 0.12702,-0.134 L 5.67176,40.944 5.79149,40.8034 5.90745,40.6594 6.0196,40.5123 6.12781,40.3621 6.23204,40.209 6.3322,40.0528 6.42822,39.894 6.52003,39.7323 6.60753,39.5678 6.69067,39.4008 6.76934,39.2313 6.84351,39.0592 6.91308,38.8848 6.97796,38.708 7.0381,38.5291 7.0934,38.348 7.14379,38.1648 7.18921,37.9796 7.22957,37.7925 7.26479,37.6035 7.29482,37.4127 7.31954,37.2202 7.33891,37.0261 7.35284,36.8304 7.36126,36.6333 7.36407,36.4348 7.36237,36.2807 7.35728,36.1276 7.34883,35.9753 7.33708,35.8239 7.32205,35.6735 7.30378,35.5239 7.2823,35.3756 7.25766,35.2282 7.22987,35.0818 7.199,34.9366 7.16506,34.7927 7.1281,34.6498 7.08815,34.5082 7.04525,34.368 6.99943,34.2289 6.95073,34.0912 6.89919,33.955 6.84483,33.82 6.7877,33.6866 6.72785,33.5545 6.66529,33.424 6.60007,33.295 6.53222,33.1677 6.46178,33.0419 6.38878,32.9178 6.31326,32.7952 6.23525,32.6746 6.15481,32.5556 6.07195,32.4383 5.98672,32.3229 5.89914,32.2094 5.80926,32.0978 5.71712,31.988 5.62275,31.8803 5.52619,31.7744 5.42746,31.6708 5.32662,31.569 5.22368,31.4694 5.11869,31.372 5.01169,31.2766 4.90272,31.1836 4.7918,31.0927 4.67898,31.004 4.5643,30.9178 4.44777,30.8338 4.32945,30.7523 4.20936,30.6731 4.08755,30.5963 4.16563,30.4938 4.24203,30.3897 4.31673,30.2845 4.3897,30.178 4.46094,30.0701 4.53042,29.9609 4.5981,29.8507 4.66397,29.7392 4.72801,29.6264 4.7902,29.5125 4.8505,29.3974 4.90891,29.2813 4.9654,29.1639 l 0.05454,-0.1184 0.05259,-0.1194 0.05058,-0.1206 0.04858,-0.1217 0.04655,-0.1225 0.04451,-0.1236 0.04241,-0.1246 0.04032,-0.1256 0.0382,-0.1264 0.03606,-0.1275 0.03388,-0.1282 0.0317,-0.1293 0.0295,-0.13 0.02726,-0.1309 0.025,-0.1318 L 5.58981,27.151 5.61025,27.0177 5.62836,26.8837 5.64412,26.7488 5.65754,26.6133 5.66855,26.4771 5.67716,26.3402 5.68333,26.2027 5.68705,26.0643 5.6883,25.9255 5.68689,25.7781 5.6827,25.6312 5.67575,25.485 5.66606,25.3396 5.65364,25.1949 5.63855,25.051 5.6208,24.908 5.60041,24.7658 5.57741,24.6244 5.55183,24.4839 5.52369,24.3444 5.49302,24.2058 5.45984,24.0681 5.42417,23.9314 5.38604,23.7958 5.34549,23.6611 5.30253,23.5276 5.25719,23.395 5.2095,23.2637 5.15948,23.1334 5.10715,23.0043 5.05255,22.8764 4.99569,22.7498 4.93661,22.6242 4.87533,22.5001 4.81187,22.377 4.74627,22.2554 4.67853,22.1352 4.6087,22.0162 4.53679,21.8986 4.46285,21.7824 4.38688,21.6677 4.3089,21.5544 4.22896,21.4426 4.14707,21.3324 4.06326,21.2235 3.97757,21.1163 3.88999,21.0107 3.80058,20.9067 3.70936,20.8042 3.61633,20.7035 3.52155,20.6043 3.42501,20.507 3.32677,20.4113 3.22683,20.3174 3.12523,20.2253 3.02199,20.1349 2.91715,20.0464 2.81071,19.9598 2.7027,19.8749 2.59317,19.7921 2.74907,19.7442 2.90301,19.692 3.05494,19.6355 3.2048,19.5748 3.35249,19.5101 3.49795,19.4413 3.64111,19.3685 3.78189,19.2918 3.92023,19.2113 4.05604,19.1271 4.18927,19.0391 4.31985,18.9475 4.44769,18.8524 4.57272,18.7538 4.69487,18.6518 4.81409,18.5465 4.93027,18.438 5.04337,18.3261 5.15331,18.2113 5.26002,18.0933 5.36341,17.9724 5.46342,17.8486 5.56,17.7219 5.65304,17.5926 5.74249,17.4605 5.82828,17.3257 5.91034,17.1885 5.98858,17.0487 6.06295,16.9066 6.13337,16.7622 6.19976,16.6154 6.26205,16.4665 6.32019,16.3156 6.37407,16.1624 6.42365,16.0073 6.46885,15.8503 6.5096,15.6916 6.54582,15.531 6.57745,15.3688 6.6044,15.2049 6.62661,15.0394 6.64402,14.8726 6.65654,14.7042 6.6641,14.5345 6.66664,14.3636 6.66439,14.2026 6.65767,14.0427 6.64654,13.8841 6.63107,13.7265 6.61131,13.5705 6.58734,13.4157 6.5592,13.2623 6.52694,13.1105 6.49065,12.9602 6.45037,12.8115 6.40617,12.6644 6.3581,12.5191 6.30623,12.3755 6.25063,12.2338 6.19132,12.094 6.12841,11.9562 6.06192,11.8203 5.99193,11.6866 5.91851,11.5549 5.8417,11.4255 5.76156,11.2983 5.67817,11.1734 5.59157,11.0509 5.50183,10.9308 5.40902,10.8132 5.31318,10.6981 5.21437,10.5857 5.11266,10.4758 5.00812,10.3688 4.9008,10.2645 4.79075,10.163 4.67804,10.0644 4.56274,9.96883 4.44489,9.87622 4.32456,9.7867 4.20182,9.70031 4.07672,9.6171 3.94931,9.53715 3.81966,9.4605 3.68784,9.38722 3.5539,9.31736 3.4179,9.25099 3.59305,9.2204 3.76592,9.18343 3.93637,9.14018 4.10428,9.09079 4.2695,9.0354 4.43192,8.97411 4.5914,8.90706 4.7478,8.83438 4.90099,8.75619 5.05086,8.67263 5.19728,8.5838 5.34009,8.48985 5.47917,8.3909 5.61441,8.28707 5.74566,8.1785 5.8728,8.0653 5.99569,7.94762 6.1142,7.82556 6.2282,7.69927 6.33757,7.56885 6.44217,7.43445 6.54186,7.29619 6.63653,7.15421 6.72603,7.0086 6.81025,6.85952 6.88904,6.70708 6.96228,6.55141 7.02984,6.39263 7.09157,6.23089 7.14738,6.0663 7.1971,5.89898 7.24061,5.72908 7.27779,5.5567 7.3085,5.38198 7.33262,5.20505 7.35001,5.02603 7.36054,4.84503 7.36407,4.66222 7.35977,4.45985 7.34696,4.2597 7.32582,4.06195 7.29655,3.86675 7.25929,3.67429 7.21423,3.48475 7.16155,3.29829 7.10143,3.11508 7.03402,2.93531 6.95953,2.75915 6.87811,2.58679 6.78993,2.41837 6.69519,2.25408 6.59406,2.0941 6.4867,1.93861 6.37328,1.78776 6.254,1.64175 6.12903,1.50075 5.99853,1.36491 5.86269,1.23444 5.72167,1.10949 5.57566,0.990238 5.42484,0.876866 5.26936,0.769545 5.10942,0.668448 4.94518,0.573751 4.77682,0.485627 4.60452,0.40425 4.42844,0.329798 4.24877,0.262442 4.06569,0.202355 3.87936,0.149716 3.68996,0.104696 3.49767,0.0674704 3.30266,0.0382136 3.10512,0.0171001 2.90519,0.0043041 2.70308,0 2.52985,0.008976 2.36064,0.029376 2.1928,0.051408 l 0.18286,0.023881 0.1806,0.030774 0.1782,0.037532 0.17566,0.044154 0.17296,0.050642 0.17014,0.056993 0.16715,0.063209 0.16404,0.069289 0.16077,0.075235 0.15736,0.081043 0.15382,0.086718 0.15011,0.092258 0.14628,0.09766 0.1423,0.102929 0.13818,0.108065 0.13392,0.11305 0.1295,0.11792 0.12494,0.12265 0.12025,0.12723 0.11541,0.13169 0.11042,0.13602 0.1053,0.14019 0.10002,0.14425 0.09462,0.14815 0.08905,0.15194 0.08335,0.15558 0.0775,0.15908 0.07153,0.16247 0.06539,0.16569 0.05911,0.16879 0.0527,0.17176 0.04614,0.17458 0.03943,0.17729 0.03259,0.17984 0.02559,0.18228 0.01846,0.18454 0.01117,0.18671 z"
         style="fill:url(#Grad275);fill-rule:evenodd;stroke:none"
         transform="rotate(90,15.80795,33.94275)"
         id="path5018" />
      <path
         d="M 1.65852,3.59244 1.6665,3.77644 1.65951,3.96209 1.63159,4.1616 1.81063,4.16817 1.98833,4.181 2.16458,4.2 2.33926,4.22504 2.51224,4.25606 2.6834,4.29291 l 0.16923,0.04262 0.16716,0.04826 0.165,0.05381 0.16268,0.05925 0.16026,0.06459 0.15772,0.06985 0.15506,0.07497 0.15226,0.08001 0.14936,0.08494 0.14633,0.08978 0.14318,0.0945 0.1399,0.09913 0.13653,0.10366 0.133,0.10807 0.12936,0.1124 0.12561,0.11661 0.12172,0.12072 0.11774,0.12474 0.11361,0.12865 0.10937,0.13246 0.105,0.13616 0.10053,0.13977 0.09591,0.14327 0.0912,0.14667 0.08635,0.14997 0.08137,0.15314 0.07628,0.15626 0.07107,0.15924 0.06573,0.16212 0.06029,0.16491 0.05471,0.1676 L 6.47593,7.95121 6.51912,8.12387 6.55638,8.29889 6.58757,8.4762 6.60947,8.62984 6.62664,8.78318 6.63915,8.93617 6.64704,9.0887 6.65036,9.24071 6.64917,9.39211 6.6435,9.54281 6.63342,9.69273 6.61895,9.84182 6.60018,9.98996 6.57712,10.1371 l -0.02728,0.146 -0.03145,0.1448 -0.03558,0.1436 -0.03966,0.1422 -0.04367,0.1408 -0.04767,0.1393 -0.05159,0.1377 -0.05547,0.136 -0.0593,0.1343 -0.06309,0.1324 -0.0668,0.1305 -0.07051,0.1285 -0.07412,0.1265 -0.07773,0.1242 -0.08124,0.122 -0.08474,0.1198 -0.08818,0.1172 -0.09155,0.1148 -0.09491,0.1123 -0.09819,0.1095 -0.10144,0.1067 -0.10461,0.1041 -0.10776,0.1011 -0.11086,0.0982 -0.1139,0.0949 -0.1169,0.092 -0.11984,0.0887 -0.12273,0.0853 -0.12558,0.082 -0.12839,0.0786 -0.13112,0.0749 -0.13382,0.0714 -0.13648,0.0675 -0.13908,0.0638 -0.14163,0.06 0.10603,0.0989 0.10183,0.1024 0.09753,0.106 0.09319,0.1092 0.08878,0.1124 0.08429,0.1154 0.07975,0.1185 0.07513,0.1212 0.07045,0.1239 0.06569,0.1266 0.06088,0.129 0.05602,0.1314 0.05105,0.1335 0.04603,0.1356 0.04096,0.1376 0.0358,0.1395 0.03059,0.1413 0.02531,0.1428 0.02384,0.1768 0.01562,0.1756 0.00753,0.1742 -4.2e-4,0.1727 -0.00821,0.171 -0.01588,0.169 -0.02339,0.167 -0.03077,0.1645 -0.03799,0.1621 -0.04507,0.1595 -0.05202,0.1566 -0.05881,0.1535 -0.06547,0.1503 -0.07199,0.1469 -0.07834,0.1433 -0.08458,0.1395 -0.09066,0.1354 -0.09659,0.1313 -0.10239,0.1271 -0.10804,0.1224 -0.11355,0.1176 -0.11891,0.1127 -0.12413,0.1078 -0.12922,0.1023 -0.13413,0.0969 -0.13894,0.0912 -0.14359,0.0853 -0.14809,0.0793 -0.15245,0.0731 -0.15666,0.0666 -0.16073,0.0601 -0.16468,0.0532 -0.16846,0.0463 -0.17209,0.0392 -0.17561,0.0317 -0.16708,0.0225 -0.17075,0.0142 0.16215,0.0816 0.16558,0.0439 0.15044,0.0181 0.1167,0.0045 L 1.97599,20.6645 2.14567,20.6428 2.32006,20.6112 2.49122,20.5723 2.65901,20.5259 2.82328,20.4725 2.9839,20.4123 3.14074,20.3455 3.29361,20.272 3.44241,20.1923 3.58699,20.1065 3.72719,20.0148 3.86288,19.9175 3.99391,19.8147 4.12014,19.7065 4.24143,19.5933 4.35764,19.4752 4.46862,19.3523 4.57421,19.225 4.6743,19.0933 4.76873,18.9576 4.85736,18.8179 4.94004,18.6744 5.01664,18.5276 5.08701,18.3773 5.151,18.224 5.20847,18.0677 5.2593,17.9086 l 0.04401,-0.1615 0.03706,-0.1639 0.02998,-0.166 0.02274,-0.168 0.01537,-0.1696 0.00786,-0.1713 2e-4,-0.1725 L 5.4089,16.5619 5.39334,16.3873 5.36969,16.2119 5.3439,16.0662 5.31267,15.9222 5.27609,15.7798 5.23424,15.6394 5.18718,15.5011 5.135,15.3649 5.07776,15.2308 5.01557,15.0993 4.94849,14.9701 4.87658,14.8437 4.79992,14.7199 4.71861,14.5991 4.63272,14.4813 4.5423,14.3666 4.44747,14.2551 4.34827,14.147 4.2448,14.0423 4.13712,13.9414 4.27863,13.8816 4.41762,13.8181 4.55409,13.7509 4.68794,13.68 4.81917,13.6055 4.9477,13.5276 l 0.1258,-0.0813 0.12303,-0.0846 0.12018,-0.0879 0.11732,-0.0911 0.1144,-0.0941 0.11142,-0.0972 0.10841,-0.1001 0.10535,-0.1029 0.10224,-0.1058 0.09908,-0.1084 0.09588,-0.1111 0.09263,-0.1136 0.08933,-0.116 0.086,-0.1185 0.08259,-0.1207 0.07916,-0.123 0.07568,-0.1252 0.07215,-0.1272 0.06857,-0.1292 0.06495,-0.1312 0.06128,-0.133 0.05755,-0.1347 0.0538,-0.1365 0.04999,-0.138 0.04612,-0.1396 0.04221,-0.141 L 7.23109,10.3933 7.26536,10.2495 7.29558,10.1046 7.32171,9.95855 7.34371,9.81141 7.3615,9.6633 7.37508,9.51426 7.38437,9.36441 7.38934,9.21379 7.38992,9.06252 7.38609,8.91063 7.37779,8.75823 7.36499,8.60541 7.34762,8.4522 7.32564,8.29872 7.29469,8.12222 7.25783,7.94793 7.21521,7.77595 7.16692,7.60638 7.1131,7.43929 7.05385,7.2748 6.98927,7.11301 6.9195,6.954 6.84466,6.79788 6.76483,6.64474 6.68015,6.49469 6.59073,6.34781 6.49667,6.2042 6.39812,6.06397 6.29517,5.92721 6.18793,5.794 6.07652,5.66446 5.96106,5.53869 5.84167,5.41676 5.71847,5.29878 5.59154,5.18486 5.46102,5.07508 5.32703,4.96956 5.18967,4.86836 5.04906,4.77162 4.90533,4.67939 4.75857,4.5918 4.6089,4.50895 4.45645,4.4309 4.30132,4.35779 4.14364,4.2897 3.98351,4.22673 3.82105,4.16896 3.65637,4.11651 3.48959,4.06946 3.32082,4.02791 3.1502,3.99198 2.9778,3.96173 2.80377,3.93728 2.62821,3.91872 2.45123,3.90615 2.27297,3.89966 2.26681,3.7401 2.25583,3.58617 2.24026,3.43751 2.22034,3.29378 2.19291,3.13638 2.16043,2.98111 2.12304,2.82804 2.0808,2.67723 2.03384,2.52876 1.98223,2.38271 1.92607,2.23915 1.86549,2.09814 1.80055,1.95976 1.73136,1.82408 1.65803,1.69116 1.58064,1.5611 1.4993,1.43395 1.4141,1.30979 1.32514,1.18868 1.23252,1.0707 1.13633,0.955927 1.03668,0.844424 0.933665,0.736265 0.827376,0.631523 0.717915,0.530269 0.605379,0.432574 0.489867,0.338511 0.371474,0.24815 0.250301,0.161563 0.126444,0.0788228 0,0 0.00524485,0.00481404 0.0205118,0.0191787 0.0450997,0.0429777 0.0783071,0.0760949 0.119433,0.118414 0.167775,0.169819 0.222633,0.230193 0.283306,0.29942 0.349091,0.377385 0.419289,0.463969 0.493196,0.55906 0.570113,0.662538 0.649337,0.774288 0.730169,0.894193 0.811905,1.02214 0.893844,1.15801 0.975287,1.30169 1.05553,1.45305 1.13387,1.612 1.20962,1.77839 1.28205,1.95213 1.35049,2.1331 1.41422,2.32118 1.47255,2.51625 1.52476,2.7182 1.57017,2.9269 1.60807,3.14227 1.63775,3.36414 Z"
         style="fill:url(#Grad276);fill-rule:evenodd;stroke:none"
         transform="rotate(-90,14.68005,1.31275)"
         id="path5020" />
    </g>
  </g>
</svg>
