<?xml version="1.0" encoding="UTF-8" standalone="no"?>
<svg
   width="99.424194pt"
   height="123.24776pt"
   version="1.1"
   viewBox="0 0 99.424194 123.24776"
   id="svg233565"
   sodipodi:docname="Document-3-page001.svg"
   inkscape:version="1.2.2 (b0a8486541, 2022-12-01)"
   inkscape:export-filename="../Github Repos/own-weather-app/src/assets/icons/Document-3-page001.svg"
   inkscape:export-xdpi="96"
   inkscape:export-ydpi="96"
   xmlns:inkscape="http://www.inkscape.org/namespaces/inkscape"
   xmlns:sodipodi="http://sodipodi.sourceforge.net/DTD/sodipodi-0.dtd"
   xmlns="http://www.w3.org/2000/svg"
   xmlns:svg="http://www.w3.org/2000/svg">
  <sodipodi:namedview
     id="namedview233567"
     pagecolor="#00000f"
     bordercolor="#000000"
     borderopacity="0.25"
     inkscape:showpageshadow="2"
     inkscape:pageopacity="0"
     inkscape:pagecheckerboard="0"
     inkscape:deskcolor="#d1d1d1"
     inkscape:document-units="pt"
     showgrid="false"
     inkscape:zoom="0.7594697"
     inkscape:cx="408.17955"
     inkscape:cy="528"
     inkscape:window-width="1920"
     inkscape:window-height="1014"
     inkscape:window-x="0"
     inkscape:window-y="0"
     inkscape:window-maximized="1"
     inkscape:current-layer="Background" />
  <defs
     id="defs233522">
    <clipPath
       id="Clip3">
      <path
         d="M 0,0 H 99.4242 V 123.248 H 0 Z"
         id="path233510" />
    </clipPath>
  </defs>
  <g
     inkscape:groupmode="layer"
     id="Background"
     inkscape:label="Background"
     transform="translate(-48.627399,-232.94499)">
    <g
       id="snowy"
       style="fill:none;stroke:none"
       clip-path="url(#Clip3)"
       clip-rule="evenodd"
       transform="translate(48.6274,232.945)"
       inkscape:export-filename="../Github Repos/own-weather-app/src/assets/icons/snowy.svg"
       inkscape:export-xdpi="96"
       inkscape:export-ydpi="96">
      <path
         d="M 21.8258,3.5526e-4 C 21.7356,0.00274589 21.6473,0.0253771 21.5671,0.0666552 21.2735,0.218221 21.1583,0.579046 21.3096,0.872774 L 22.3482,2.88711 V 4.1441 L 20.9119,3.691 C 20.7519,3.64048 20.5779,3.65944 20.4325,3.74327 20.287,3.82726 20.1836,3.96831 20.1471,4.13215 L 19.8212,5.60318 18.7336,4.97636 17.5069,3.06736 C 17.328,2.78989 16.958,2.70957 16.6802,2.88807 c -0.134,0.08574 -0.2284,0.22105 -0.2625,0.37628 -0.0339,0.15539 -0.0048,0.31779 0.081,0.45167 l 0.677,1.05267 -1.2496,-0.0596 c -0.3299,-0.01594 -0.6104,0.23826 -0.6268,0.56817 -0.008,0.15858 0.0473,0.31397 0.154,0.43174 0.1064,0.11778 0.2554,0.18839 0.4142,0.19619 l 2.2663,0.10774 1.0887,0.62794 -1.1126,1.01793 c -0.1238,0.11347 -0.1944,0.2738 -0.1944,0.44179 0,0.16798 0.0706,0.32815 0.1944,0.44162 l 1.1126,1.01809 -1.0887,0.6279 -2.2663,0.1087 c -0.3294,0.0164 -0.5836,0.2963 -0.5682,0.6257 0.0073,0.1589 0.0775,0.3083 0.1951,0.4152 0.1176,0.1071 0.2728,0.1629 0.4317,0.1552 l 1.2496,-0.0596 -0.677,1.0516 c -0.0863,0.134 -0.1156,0.2967 -0.0815,0.4523 0.0341,0.1555 0.1286,0.2912 0.263,0.3768 0.2784,0.1781 0.6485,0.0969 0.8267,-0.1816 l 1.2278,-1.9088 1.0865,-0.627 0.3259,1.4723 c 0.0362,0.164 0.1396,0.3054 0.2851,0.3895 0.1453,0.084 0.3195,0.1032 0.4797,0.0526 l 1.4363,-0.454 v 1.2581 l -1.0386,2.0132 c -0.073,0.1412 -0.0869,0.3055 -0.0386,0.4569 0.0483,0.1514 0.1549,0.2775 0.2961,0.3503 0.1414,0.073 0.3058,0.0867 0.4573,0.0381 0.1514,-0.0485 0.2773,-0.1552 0.3499,-0.2967 l 0.5736,-1.1125 0.5749,1.1125 c 0.1511,0.294 0.5121,0.4097 0.8061,0.2586 0.1412,-0.0728 0.2478,-0.1989 0.2961,-0.3503 0.0483,-0.1514 0.0345,-0.3157 -0.0387,-0.4569 L 23.5467,13.3118 V 12.056 l 1.4374,0.4551 c 0.1602,0.0506 0.3342,0.0314 0.4797,-0.0526 0.1455,-0.0841 0.249,-0.2255 0.2851,-0.3895 l 0.326,-1.4723 1.0875,0.6281 1.2277,1.9077 c 0.1782,0.2778 0.5475,0.3589 0.8257,0.1816 0.1339,-0.0859 0.2281,-0.2217 0.2617,-0.3773 0.0338,-0.1555 0.004,-0.3181 -0.0824,-0.4518 l -0.6757,-1.0516 1.2504,0.0596 c 0.1589,0.0077 0.3142,-0.0481 0.4318,-0.1552 0.1176,-0.1069 0.1877,-0.2563 0.1952,-0.4152 C 30.6041,10.7641 30.548,10.609 30.4411,10.4917 30.3342,10.3742 30.185,10.3043 30.0264,10.2969 L 27.7622,10.1882 26.6735,9.5603 27.7861,8.54221 c 0.1238,-0.11347 0.1944,-0.27364 0.1944,-0.44162 0,-0.16799 -0.0706,-0.32832 -0.1944,-0.44179 L 26.6735,6.64199 27.7622,6.01293 30.0264,5.90519 C 30.1853,5.89786 30.335,5.82758 30.4419,5.70964 30.549,5.59186 30.6048,5.43631 30.5968,5.27726 30.5802,4.94735 30.2997,4.69315 29.9698,4.70909 l -1.2504,0.0596 0.6757,-1.05267 C 29.4812,3.58246 29.5107,3.42022 29.477,3.26499 29.4434,3.1096 29.3494,2.97413 29.2158,2.88807 28.9382,2.71036 28.5689,2.79053 28.3901,3.06736 L 27.1636,4.97524 26.0749,5.60429 25.7489,4.13215 C 25.7124,3.96831 25.609,3.82726 25.4635,3.74327 25.3182,3.65944 25.1441,3.64048 24.9841,3.691 L 23.5467,4.14522 V 2.8903 L 24.5863,0.872774 C 24.7377,0.579046 24.6225,0.218221 24.3289,0.0666552 24.0352,-0.084751 23.6744,0.0304771 23.5228,0.324205 L 22.9479,1.43776 22.3743,0.324205 C 22.2688,0.119727 22.0556,-0.00601974 21.8258,3.5526e-4 Z m 34.166,0 C 55.9017,0.00274589 55.8133,0.0253771 55.7333,0.0666552 55.4397,0.218221 55.3245,0.579046 55.4757,0.872774 L 56.5144,2.88711 V 4.1441 L 55.077,3.691 c -0.16,-0.05052 -0.3341,-0.03156 -0.4794,0.05227 -0.1455,0.08399 -0.249,0.22504 -0.2855,0.38888 l -0.3248,1.47103 -1.0875,-0.62682 -1.2277,-1.909 c -0.179,-0.27683 -0.5481,-0.357 -0.8257,-0.17929 -0.1341,0.08574 -0.2284,0.22105 -0.2625,0.37628 -0.034,0.15539 -0.005,0.31779 0.0809,0.45167 l 0.6769,1.05267 -1.2493,-0.0596 c -0.3299,-0.01594 -0.6106,0.23826 -0.627,0.56817 -0.008,0.15858 0.0475,0.31397 0.1541,0.43174 0.1065,0.11778 0.2555,0.18839 0.4142,0.19619 l 2.2652,0.10774 1.0898,0.62794 -1.1126,1.01793 c -0.1238,0.11347 -0.1944,0.2738 -0.1944,0.44179 0,0.16798 0.0706,0.32815 0.1944,0.44162 l 1.1115,1.01809 -1.0887,0.6279 -2.2652,0.1087 c -0.3296,0.0164 -0.5836,0.2963 -0.5683,0.6257 0.0073,0.1589 0.0776,0.3083 0.1952,0.4152 0.1176,0.1071 0.2729,0.1629 0.4318,0.1552 l 1.2493,-0.0596 -0.6769,1.0516 c -0.0862,0.134 -0.1155,0.2967 -0.0814,0.4523 0.0339,0.1555 0.1286,0.2912 0.263,0.3768 0.2781,0.1773 0.6475,0.0962 0.8257,-0.1816 l 1.2288,-1.9088 1.0864,-0.627 0.3248,1.4723 c 0.0362,0.164 0.1396,0.3054 0.2852,0.3895 0.1453,0.084 0.3195,0.1032 0.4797,0.0526 l 1.4374,-0.454 v 1.2581 l -1.0387,2.0132 c -0.073,0.1412 -0.0868,0.3055 -0.0385,0.4569 0.0483,0.1514 0.1547,0.2775 0.2961,0.3503 0.294,0.1511 0.6549,0.0354 0.8061,-0.2586 l 0.5747,-1.1125 0.5738,1.1125 c 0.1512,0.294 0.512,0.4097 0.8061,0.2586 0.1415,-0.0727 0.2483,-0.1985 0.2967,-0.35 0.0485,-0.1515 0.0348,-0.316 -0.0381,-0.4572 L 57.7118,13.3118 V 12.056 l 1.4383,0.4551 c 0.1604,0.0506 0.3345,0.0314 0.4799,-0.0526 0.1455,-0.0841 0.2489,-0.2255 0.2851,-0.3895 l 0.3248,-1.4723 1.0876,0.6281 1.2288,1.9077 c 0.1782,0.2778 0.5474,0.3589 0.8257,0.1816 0.1339,-0.0859 0.2281,-0.2217 0.2617,-0.3773 0.0336,-0.1555 0.004,-0.3181 -0.0824,-0.4518 l -0.6757,-1.0516 1.2493,0.0596 c 0.159,0.008 0.3146,-0.0476 0.4325,-0.1547 0.1178,-0.107 0.1883,-0.2566 0.1954,-0.4157 0.0075,-0.1587 -0.0487,-0.3139 -0.1558,-0.4314 -0.1073,-0.1173 -0.2568,-0.1873 -0.4155,-0.1943 L 61.9283,10.1882 60.8397,9.5603 61.9511,8.54221 C 62.075,8.42874 62.1456,8.26857 62.1456,8.10059 62.1456,7.9326 62.075,7.77227 61.9511,7.6588 L 60.8397,6.64199 61.9283,6.01293 64.1915,5.90519 C 64.3507,5.89818 64.5005,5.82806 64.6078,5.71012 64.715,5.59218 64.7708,5.43647 64.7628,5.27726 64.755,5.11868 64.6844,4.96966 64.5666,4.86304 64.4489,4.75658 64.2935,4.70112 64.1349,4.70909 l -1.2493,0.0596 0.6757,-1.05267 C 63.6474,3.58246 63.6768,3.42022 63.6432,3.26499 63.6096,3.1096 63.5156,2.97413 63.382,2.88807 63.1044,2.71036 62.7353,2.79053 62.5563,3.06736 L 61.3286,4.97524 60.2399,5.60429 59.9151,4.13215 C 59.8786,3.96831 59.7752,3.82726 59.6297,3.74327 59.4843,3.65944 59.3103,3.64048 59.1501,3.691 L 57.7118,4.14522 V 2.8903 L 58.7526,0.872774 C 58.9037,0.578727 58.788,0.217743 58.494,0.0666552 58.2002,-0.084751 57.8394,0.0304771 57.6879,0.324205 L 57.1141,1.43776 56.5394,0.324205 C 56.4341,0.120046 56.2214,-0.00570099 55.9918,3.5526e-4 Z M 21.1749,5.02959 22.3482,5.40014 V 7.06242 L 20.9087,6.23128 Z m 3.5462,0 0.2662,1.20169 -1.4406,0.83225 V 5.40014 Z m 30.6188,0 1.1745,0.37055 V 7.06242 L 55.0749,6.23128 Z m 3.5474,0 0.2651,1.20169 -1.4406,0.83225 V 5.40014 Z M 20.3101,7.26881 21.7507,8.09995 20.3101,8.9322 19.4018,8.10106 Z m 5.2758,0 0.9083,0.83225 -0.9083,0.83114 -1.4395,-0.83225 z m 28.8904,0 1.4395,0.83114 L 54.4752,8.9322 53.568,8.10106 Z m 5.2758,0 0.9083,0.83225 -0.9083,0.83114 -1.4406,-0.83225 z m -36.2054,1.86771 1.4406,0.8321 -0.2662,1.20388 -1.1744,-0.3716 z m 34.1651,0 1.4417,0.8321 -0.2662,1.20388 -1.1755,-0.3716 z M 22.3482,9.13875 V 10.801 l -1.1733,0.3715 -0.2662,-1.20372 z m 34.1662,0 V 10.801 l -1.1745,0.3715 -0.265,-1.20372 z M 6.52716,21.483 C 6.43695,21.4853 6.34866,21.508 6.26849,21.5493 6.12728,21.6221 6.02066,21.748 5.97237,21.8996 5.92408,22.051 5.93795,22.2153 6.0111,22.3565 l 1.03849,2.0132 v 1.2581 L 5.61234,25.1738 C 5.45217,25.1231 5.27829,25.142 5.13278,25.2259 4.98743,25.3099 4.88384,25.4509 4.84734,25.6148 L 4.52254,27.0869 3.43496,26.459 2.2073,24.5501 C 2.02848,24.2731 1.65921,24.193 1.38158,24.3707 c -0.13435,0.0857 -0.22886,0.2212 -0.26297,0.3767 -0.0341,0.1557 -0.00478,0.3185 0.0816,0.4523 L 1.87707,26.2515 0.627577,26.1917 C 0.297671,26.1758 0.0171714,26.43 7.55728e-4,26.7599 -0.00721303,26.9186 0.0480901,27.0738 0.154712,27.1916 0.261334,27.3094 0.41019,27.38 0.568927,27.388 l 2.265193,0.1087 1.0898,0.6279 -1.11259,1.0179 c -0.12384,0.1135 -0.19444,0.2738 -0.19444,0.4418 0,0.1678 0.0706,0.3282 0.19444,0.4416 l 1.11148,1.0168 -1.08869,0.6291 -2.265193,0.1077 C 0.239499,31.796 -0.0147037,32.0758 7.55728e-4,32.4054 0.00808697,32.5641 0.078212,32.7135 0.19583,32.8206 c 0.117619,0.1069 0.27301,0.1629 0.431747,0.1552 L 1.87707,32.916 1.20021,33.9687 c -0.0859,0.1339 -0.11507,0.2963 -0.08112,0.4517 0.03411,0.1552 0.12846,0.2907 0.26249,0.3763 0.27794,0.1775 0.64722,0.0969 0.82572,-0.1804 l 1.22878,-1.91 1.08646,-0.627 0.3248,1.4734 c 0.0365,0.1639 0.14009,0.3049 0.28544,0.3888 0.14551,0.0839 0.31939,0.1028 0.47956,0.0522 l 1.43725,-0.454 v 1.2581 L 6.0111,36.8121 c -0.15141,0.2937 -0.03618,0.6544 0.25739,0.8061 0.29373,0.1514 0.65455,0.0361 0.80612,-0.2575 l 0.57486,-1.1136 0.57359,1.1136 c 0.15157,0.2936 0.5124,0.4089 0.80612,0.2575 C 9.32323,37.467 9.43894,37.106 9.28785,36.8121 L 8.24697,34.7944 v -1.2547 l 1.43852,0.454 c 0.16001,0.0506 0.33401,0.0317 0.47941,-0.0522 0.1455,-0.0839 0.2489,-0.2249 0.2854,-0.3888 l 0.3248,-1.4734 1.0876,0.6281 1.2277,1.9089 c 0.1786,0.2781 0.5487,0.3587 0.8268,0.1804 0.1336,-0.0859 0.2276,-0.2216 0.2612,-0.3768 0.0337,-0.1552 0.0042,-0.3176 -0.0819,-0.4512 l -0.6757,-1.0527 1.2493,0.0598 c 0.1591,0.0078 0.3146,-0.0478 0.4325,-0.1549 0.1178,-0.1069 0.1883,-0.2566 0.1954,-0.4155 0.0075,-0.1589 -0.0486,-0.3141 -0.1558,-0.4314 -0.1073,-0.1175 -0.2568,-0.1875 -0.4155,-0.1945 l -2.2631,-0.1087 -1.0887,-0.6279 1.1114,-1.017 c 0.124,-0.1134 0.1945,-0.2736 0.1945,-0.4416 0,-0.168 -0.0705,-0.3283 -0.1945,-0.4416 l -1.1114,-1.0181 1.0887,-0.6279 2.2631,-0.1087 c 0.1592,-0.0071 0.309,-0.0773 0.4163,-0.1953 0.1072,-0.1178 0.163,-0.2736 0.155,-0.4328 -0.0078,-0.1586 -0.0784,-0.3076 -0.1962,-0.4141 -0.1177,-0.1066 -0.273,-0.1621 -0.4317,-0.1541 l -1.2493,0.0598 0.6757,-1.0529 c 0.0861,-0.1335 0.1156,-0.2958 0.0819,-0.451 -0.0336,-0.1552 -0.1276,-0.2909 -0.2612,-0.3768 -0.2778,-0.1785 -0.6478,-0.0983 -0.8268,0.1793 l -1.2266,1.909 -1.0887,0.628 -0.3248,-1.4722 C 10.4138,25.4509 10.3104,25.3099 10.1649,25.226 10.0195,25.1422 9.8455,25.1232 9.68549,25.1738 l -1.43852,0.454 V 24.3729 L 9.28785,22.3555 C 9.43894,22.0615 9.32323,21.7005 9.02918,21.5493 8.73514,21.398 8.37431,21.5139 8.22306,21.8079 L 7.64947,22.9204 7.07461,21.8079 C 6.96958,21.6034 6.75681,21.4772 6.52716,21.483 Z m 34.16604,0 c -0.09,0.0023 -0.1783,0.025 -0.2585,0.0663 -0.1415,0.0725 -0.2483,0.1985 -0.2967,0.3499 -0.0485,0.1514 -0.0348,0.3159 0.038,0.4573 l 1.0389,2.0132 v 1.2581 l -1.4365,-0.454 c -0.16,-0.0507 -0.334,-0.0318 -0.4794,0.0521 -0.1455,0.084 -0.2489,0.225 -0.2854,0.3889 l -0.326,1.4721 -1.0864,-0.6279 -1.2277,-1.9089 c -0.179,-0.2776 -0.549,-0.3579 -0.8268,-0.1794 -0.1342,0.0857 -0.2289,0.2212 -0.263,0.3767 -0.0341,0.1557 -0.0048,0.3185 0.0815,0.4523 l 0.6779,1.0518 -1.2493,-0.0598 c -0.3299,-0.0159 -0.6106,0.2383 -0.627,0.5682 -0.008,0.1587 0.0475,0.3139 0.1541,0.4317 0.1065,0.1178 0.2555,0.1884 0.4142,0.1964 l 2.2652,0.1087 1.0887,0.6279 -1.1114,1.0179 c -0.124,0.1135 -0.1945,0.2738 -0.1945,0.4418 0,0.1678 0.0705,0.3282 0.1945,0.4416 l 1.1114,1.0168 -1.0887,0.6291 -2.2652,0.1077 c -0.3295,0.0165 -0.5836,0.2963 -0.5683,0.6259 0.0073,0.1587 0.0776,0.3081 0.1952,0.4152 0.1177,0.1069 0.2729,0.1629 0.4318,0.1552 l 1.2493,-0.0598 -0.6779,1.0527 c -0.0858,0.1339 -0.115,0.2963 -0.0808,0.4517 0.0339,0.1552 0.1282,0.2907 0.2623,0.3763 0.2781,0.1783 0.6482,0.0977 0.8268,-0.1804 l 1.2288,-1.91 1.0853,-0.627 0.326,1.4734 c 0.0365,0.1639 0.1399,0.3049 0.2854,0.3888 0.1454,0.0839 0.3194,0.1028 0.4794,0.0522 l 1.4365,-0.454 v 1.2581 l -1.0389,2.0143 c -0.151,0.2939 -0.0353,0.6549 0.2587,0.8061 0.2937,0.1514 0.6546,0.0361 0.8061,-0.2575 l 0.5747,-1.1136 0.5738,1.1136 c 0.1516,0.2936 0.5124,0.4089 0.8061,0.2575 0.2936,-0.1517 0.4088,-0.5124 0.2576,-0.8061 l -1.0398,-2.0177 v -1.2547 l 1.4384,0.454 c 0.16,0.0502 0.3337,0.0311 0.4789,-0.0527 0.1452,-0.0839 0.2484,-0.2247 0.2849,-0.3883 l 0.326,-1.4734 1.0875,0.6281 1.2277,1.9089 c 0.1787,0.2781 0.5487,0.3587 0.8268,0.1804 0.1334,-0.0861 0.2273,-0.2217 0.2606,-0.3771 0.0335,-0.1552 0.0038,-0.3173 -0.0824,-0.4509 l -0.6757,-1.0527 1.2504,0.0598 c 0.1591,0.0078 0.3146,-0.0478 0.4326,-0.1549 0.1177,-0.1069 0.1882,-0.2566 0.1955,-0.4155 0.0074,-0.1589 -0.0489,-0.3141 -0.156,-0.4314 -0.1073,-0.1175 -0.2568,-0.1875 -0.4155,-0.1945 l -2.2631,-0.1077 -1.0887,-0.6291 1.1115,-1.0168 c 0.1238,-0.1134 0.1944,-0.2738 0.1944,-0.4416 0,-0.168 -0.0706,-0.3283 -0.1944,-0.4418 L 45.54,28.1246 46.6298,27.4967 48.8929,27.388 c 0.1592,-0.0071 0.309,-0.0773 0.4163,-0.1953 0.1073,-0.1178 0.163,-0.2736 0.1552,-0.4328 -0.0079,-0.1586 -0.0785,-0.3076 -0.1963,-0.4143 -0.1178,-0.1064 -0.273,-0.1619 -0.4318,-0.1539 l -1.2504,0.0598 0.6757,-1.0518 c 0.0866,-0.1335 0.1164,-0.2959 0.0829,-0.4515 -0.0333,-0.1555 -0.1273,-0.2913 -0.2611,-0.3775 -0.2779,-0.1785 -0.6478,-0.0982 -0.8268,0.1794 l -1.2265,1.9089 -1.0887,0.6279 -0.326,-1.4721 c -0.0365,-0.1636 -0.1397,-0.3045 -0.2849,-0.3883 -0.1452,-0.084 -0.3189,-0.1031 -0.4789,-0.0527 l -1.4384,0.454 v -1.2549 l 1.0398,-2.0164 c 0.073,-0.1412 0.0868,-0.3055 0.0385,-0.4569 -0.0483,-0.1516 -0.1547,-0.2775 -0.2961,-0.3503 -0.294,-0.1513 -0.6549,-0.0354 -0.8061,0.2585 l -0.5738,1.1126 -0.5747,-1.1126 C 41.1358,21.6034 40.923,21.4772 40.6932,21.483 Z m 34.1651,0 c -0.0901,0.0023 -0.1784,0.025 -0.2585,0.0663 -0.1414,0.0728 -0.2479,0.1987 -0.2961,0.3503 -0.0483,0.1514 -0.0345,0.3157 0.0385,0.4569 l 1.0387,2.0132 v 1.2581 l -1.4363,-0.454 c -0.16,-0.0507 -0.3341,-0.0318 -0.4794,0.0521 -0.1455,0.084 -0.249,0.225 -0.2855,0.3889 l -0.3259,1.4721 -1.0876,-0.6279 -1.2265,-1.9089 c -0.179,-0.2776 -0.5489,-0.3579 -0.8268,-0.1794 -0.1344,0.0857 -0.2289,0.2212 -0.263,0.3767 -0.0341,0.1557 -0.0046,0.3185 0.0816,0.4523 l 0.6778,1.0518 -1.2504,-0.0598 c -0.33,-0.0159 -0.6105,0.2383 -0.627,0.5682 -0.008,0.1589 0.0476,0.3142 0.1544,0.432 0.1068,0.1178 0.2561,0.1884 0.415,0.1961 l 2.2652,0.1087 1.0887,0.6279 -1.1126,1.0179 c -0.1238,0.1135 -0.1944,0.2738 -0.1944,0.4418 0,0.1678 0.0706,0.3282 0.1944,0.4416 l 1.1126,1.0168 -1.0887,0.6291 -2.2652,0.1077 c -0.3299,0.0158 -0.5847,0.2958 -0.5694,0.6259 0.0075,0.1587 0.0776,0.3081 0.1952,0.4152 0.1176,0.1069 0.273,0.1629 0.4318,0.1552 l 1.2504,-0.0598 -0.6778,1.0527 c -0.0859,0.1339 -0.1151,0.2963 -0.0811,0.4517 0.0341,0.1552 0.1284,0.2907 0.2625,0.3763 0.2781,0.1783 0.6481,0.0977 0.8268,-0.1804 l 1.2277,-1.91 1.0864,-0.627 0.3259,1.4734 c 0.0365,0.1639 0.14,0.3049 0.2855,0.3888 0.1455,0.0839 0.3194,0.1028 0.4794,0.0522 l 1.4363,-0.454 v 1.2581 l -1.0387,2.0143 c -0.1512,0.2937 -0.036,0.6544 0.2576,0.8061 0.1412,0.073 0.3055,0.0869 0.4571,0.0386 0.1514,-0.0483 0.2773,-0.1547 0.3501,-0.2961 l 0.5738,-1.1136 0.5747,1.1136 c 0.1515,0.2936 0.5124,0.4089 0.8061,0.2575 0.2936,-0.1517 0.4088,-0.5124 0.2575,-0.8061 l -1.0399,-2.0177 v -1.2547 l 1.4387,0.454 c 0.1598,0.0502 0.3336,0.0311 0.4788,-0.0527 0.145,-0.0839 0.2484,-0.2247 0.2849,-0.3883 l 0.3259,-1.4734 1.0876,0.6281 1.2277,1.9089 c 0.1785,0.2773 0.5477,0.3579 0.8257,0.1804 0.1337,-0.0859 0.2276,-0.2216 0.2612,-0.3768 0.0336,-0.1552 0.0042,-0.3176 -0.0819,-0.4512 l -0.6758,-1.0527 1.2505,0.0598 c 0.1589,0.0077 0.3141,-0.0483 0.4317,-0.1552 0.1177,-0.1071 0.188,-0.2565 0.1953,-0.4152 0.0073,-0.1587 -0.0486,-0.3138 -0.1557,-0.4311 -0.107,-0.1173 -0.2561,-0.1874 -0.4147,-0.1948 l -2.2643,-0.1077 -1.0887,-0.6291 1.1126,-1.0168 c 0.1239,-0.1134 0.1945,-0.2738 0.1945,-0.4416 0,-0.168 -0.0706,-0.3283 -0.1945,-0.4418 l -1.1126,-1.0179 1.0887,-0.6279 2.2643,-0.1087 c 0.159,-0.0074 0.3085,-0.0778 0.4155,-0.1956 0.1071,-0.1179 0.1627,-0.2735 0.1549,-0.4325 -0.0166,-0.3299 -0.2969,-0.5841 -0.627,-0.5682 l -1.2505,0.0598 0.6758,-1.0518 c 0.0864,-0.1337 0.116,-0.2962 0.0824,-0.4516 -0.0336,-0.1557 -0.1278,-0.2914 -0.2617,-0.3774 -0.2776,-0.1777 -0.6467,-0.0976 -0.8257,0.1794 l -1.2266,1.9089 -1.0887,0.6279 -0.3259,-1.4721 c -0.0365,-0.1636 -0.1399,-0.3045 -0.2849,-0.3883 -0.1452,-0.0838 -0.319,-0.1031 -0.4788,-0.0527 l -1.4387,0.454 v -1.2549 l 1.0399,-2.0164 c 0.073,-0.1412 0.0869,-0.3055 0.0386,-0.4569 -0.0483,-0.1516 -0.1549,-0.2775 -0.2961,-0.3503 -0.2941,-0.1513 -0.6549,-0.0354 -0.8061,0.2585 L 75.9808,22.9204 75.407,21.8078 C 75.3018,21.603 75.0886,21.4767 74.8583,21.483 Z m -68.98315,5.0294 1.17444,0.3703 v 1.6623 l -1.43948,-0.83 z m 3.54737,0 0.26504,1.2026 -1.44059,0.8311 v -1.6622 z m 30.61888,0 1.1735,0.3703 v 1.6623 l -1.4397,-0.83 z m 3.5473,0 0.2651,1.2026 -1.4406,0.8311 v -1.6622 z m 30.6189,0 1.1733,0.3703 v 1.6623 l -1.4395,-0.83 z m 3.5462,0 0.2662,1.2026 -1.4408,0.8311 V 26.8839 Z M 5.0115,28.7525 6.45097,29.5837 5.01038,30.4148 4.10211,29.5837 Z m 5.2758,0 0.9083,0.8312 -0.9083,0.8311 -1.4406,-0.8311 z m 28.8893,0 1.4406,0.8312 -1.4406,0.8311 -0.9083,-0.8311 z m 5.2758,0 0.9094,0.8312 -0.9083,0.8311 -1.4406,-0.8311 z m 28.8904,0 1.4406,0.8312 -1.4406,0.8311 -0.9085,-0.8311 z m 5.2758,0 0.9083,0.8312 -0.9083,0.8311 -1.4395,-0.8311 z M 8.24697,30.6202 9.68868,31.4514 9.42252,32.6551 8.24697,32.2836 Z m 34.16623,0 1.4406,0.8312 -0.2651,1.2037 -1.1755,-0.3715 z m 34.166,0 1.4408,0.8312 -0.2662,1.2037 -1.1746,-0.3715 z m -69.52961,8e-4 v 1.6634 L 5.87515,32.655 5.61011,31.4512 Z m 34.16531,0 v 1.6634 l -1.1735,0.3706 -0.2662,-1.2038 z m 34.166,0 v 1.6634 L 74.2076,32.655 73.9414,31.4512 Z M 21.8258,42.9669 c -0.0902,0.0024 -0.1785,0.0248 -0.2587,0.0661 -0.2936,0.1516 -0.4088,0.5126 -0.2575,0.8063 l 1.0386,2.0132 v 1.2581 l -1.4363,-0.4542 c -0.16,-0.0505 -0.334,-0.0316 -0.4794,0.0523 -0.1455,0.0838 -0.2489,0.225 -0.2854,0.3888 l -0.3259,1.4722 -1.0876,-0.6268 -1.2267,-1.9101 c -0.1793,-0.2772 -0.5492,-0.3569 -0.8267,-0.1781 -0.134,0.0856 -0.2284,0.2211 -0.2625,0.3763 -0.0339,0.1554 -0.0048,0.3178 0.081,0.4517 l 0.677,1.0515 -1.2496,-0.0586 c -0.3299,-0.0159 -0.6104,0.2384 -0.6268,0.5683 -0.0161,0.3299 0.2383,0.6104 0.5682,0.6269 l 2.2663,0.1086 1.0887,0.628 -1.1126,1.0181 c -0.1238,0.1134 -0.1944,0.2736 -0.1944,0.4416 0,0.168 0.0706,0.3283 0.1944,0.4416 l 1.1126,1.0181 -1.0887,0.628 -2.2663,0.1086 c -0.3291,0.0165 -0.583,0.2957 -0.5682,0.6248 0.0073,0.1589 0.0775,0.3082 0.1951,0.4152 0.1176,0.1071 0.2728,0.1628 0.4317,0.1552 l 1.2496,-0.0587 -0.677,1.0518 c -0.0858,0.1337 -0.1149,0.2962 -0.081,0.4515 0.0341,0.1554 0.1285,0.2907 0.2625,0.3764 0.2781,0.1782 0.6482,0.0976 0.8267,-0.1804 l 1.2278,-1.909 1.0865,-0.6268 0.3259,1.4721 c 0.0365,0.1639 0.1399,0.3049 0.2854,0.3889 0.1454,0.0838 0.3194,0.1026 0.4794,0.0521 l 1.4363,-0.4529 v 1.2581 l -1.0386,2.0132 c -0.073,0.1411 -0.0869,0.3055 -0.0386,0.4569 0.0483,0.1514 0.1549,0.2775 0.2961,0.3503 0.1414,0.073 0.3058,0.0867 0.4573,0.0383 0.1514,-0.0486 0.2773,-0.1554 0.3499,-0.2969 l 0.5736,-1.1125 0.5749,1.1125 c 0.1512,0.294 0.5121,0.4099 0.8061,0.2586 0.1412,-0.0728 0.2478,-0.1989 0.2961,-0.3503 0.0483,-0.1514 0.0345,-0.3158 -0.0387,-0.4569 l -1.0396,-2.0166 v -1.2558 l 1.4374,0.454 c 0.16,0.0505 0.3341,0.0317 0.4794,-0.0521 0.1455,-0.084 0.2489,-0.225 0.2854,-0.3889 l 0.326,-1.4732 1.0875,0.6279 1.2277,1.909 c 0.1787,0.2772 0.5478,0.358 0.8257,0.1804 0.1336,-0.086 0.2276,-0.2215 0.2612,-0.3769 0.0337,-0.1552 0.0042,-0.3175 -0.0819,-0.451 l -0.6757,-1.0518 1.2504,0.0587 c 0.1589,0.0076 0.3142,-0.0481 0.4318,-0.1552 0.1176,-0.107 0.1877,-0.2563 0.1952,-0.4152 0.0147,-0.3299 -0.2405,-0.6095 -0.5704,-0.6248 l -2.2642,-0.1086 -1.0887,-0.628 1.1126,-1.0181 c 0.1238,-0.1133 0.1944,-0.2736 0.1944,-0.4416 0,-0.168 -0.0706,-0.3282 -0.1944,-0.4416 l -1.1126,-1.0168 1.0887,-0.6293 2.2642,-0.1086 c 0.1587,-0.0074 0.3082,-0.0777 0.4152,-0.1951 0.1071,-0.1176 0.1629,-0.273 0.1552,-0.4318 -0.0166,-0.3299 -0.2971,-0.5842 -0.627,-0.5683 l -1.2504,0.0586 0.6757,-1.0515 c 0.0861,-0.1336 0.1156,-0.296 0.0819,-0.4512 -0.0336,-0.1552 -0.1276,-0.2909 -0.2612,-0.3768 -0.2773,-0.178 -0.6464,-0.0985 -0.8257,0.1781 l -1.2265,1.909 -1.0887,0.6279 -0.326,-1.4722 c -0.0365,-0.1638 -0.1399,-0.305 -0.2854,-0.3888 -0.1453,-0.0839 -0.3194,-0.1028 -0.4794,-0.0523 l -1.4374,0.4542 v -1.2549 l 1.0396,-2.0164 c 0.1514,-0.2937 0.0362,-0.6547 -0.2574,-0.8063 -0.2937,-0.1512 -0.6545,-0.036 -0.8061,0.2576 l -0.5749,1.1126 -0.5736,-1.1126 c -0.1055,-0.2044 -0.3187,-0.3303 -0.5485,-0.3239 z m 34.166,0 c -0.0901,0.0024 -0.1785,0.0248 -0.2585,0.0661 -0.2936,0.1516 -0.4088,0.5126 -0.2576,0.8063 l 1.0387,2.0132 v 1.2581 L 55.077,46.6564 c -0.16,-0.0505 -0.3341,-0.0316 -0.4794,0.0523 -0.1455,0.0838 -0.249,0.225 -0.2855,0.3888 l -0.3248,1.4722 -1.0875,-0.6268 -1.2277,-1.9101 c -0.1793,-0.2766 -0.5484,-0.3561 -0.8257,-0.1781 -0.1341,0.0856 -0.2284,0.2211 -0.2625,0.3763 -0.034,0.1554 -0.005,0.3178 0.0809,0.4517 l 0.6769,1.0515 -1.2493,-0.0586 c -0.3299,-0.0159 -0.6106,0.2384 -0.627,0.5683 -0.016,0.3299 0.2384,0.6104 0.5683,0.6269 l 2.2652,0.1086 1.0898,0.628 -1.1126,1.0181 c -0.1238,0.1134 -0.1944,0.2736 -0.1944,0.4416 0,0.168 0.0706,0.3283 0.1944,0.4416 l 1.1115,1.0181 -1.0887,0.628 -2.2652,0.1086 c -0.3291,0.0165 -0.583,0.2957 -0.5683,0.6248 0.0073,0.1589 0.0776,0.3082 0.1952,0.4152 0.1176,0.1071 0.2729,0.1628 0.4318,0.1552 l 1.2493,-0.0587 -0.6769,1.0518 c -0.0859,0.1337 -0.1149,0.2962 -0.0809,0.4515 0.0341,0.1554 0.1284,0.2907 0.2625,0.3764 0.2779,0.1776 0.647,0.0968 0.8257,-0.1804 l 1.2288,-1.909 1.0864,-0.6268 0.3248,1.4721 c 0.0365,0.1639 0.14,0.3049 0.2855,0.3889 0.1453,0.0838 0.3194,0.1026 0.4794,0.0521 l 1.4374,-0.4529 v 1.2581 l -1.0387,2.0132 c -0.073,0.1411 -0.0868,0.3055 -0.0385,0.4569 0.0483,0.1514 0.1547,0.2775 0.2961,0.3503 0.294,0.1513 0.6549,0.0354 0.8061,-0.2586 l 0.5747,-1.1125 0.5738,1.1125 c 0.1512,0.294 0.512,0.4099 0.8061,0.2586 0.1415,-0.0726 0.2483,-0.1985 0.2967,-0.3499 0.0485,-0.1514 0.0348,-0.3159 -0.0381,-0.4573 l -1.0408,-2.0166 v -1.2558 l 1.4383,0.454 c 0.1602,0.0505 0.3342,0.0317 0.4796,-0.0521 0.1455,-0.084 0.2489,-0.225 0.2854,-0.3889 l 0.3248,-1.4732 1.0876,0.6279 1.2288,1.909 c 0.1785,0.2772 0.5478,0.358 0.8257,0.1804 0.1337,-0.086 0.2276,-0.2215 0.2612,-0.3769 0.0336,-0.1552 0.0042,-0.3175 -0.0819,-0.451 l -0.6757,-1.0518 1.2493,0.0587 c 0.159,0.008 0.3146,-0.0477 0.4325,-0.1548 0.1178,-0.1071 0.1883,-0.2565 0.1954,-0.4156 0.0147,-0.3302 -0.2411,-0.6099 -0.5713,-0.6248 l -2.2632,-0.1086 -1.0886,-0.628 1.1114,-1.0181 c 0.1239,-0.1133 0.1945,-0.2736 0.1945,-0.4416 0,-0.168 -0.0706,-0.3282 -0.1945,-0.4416 l -1.1114,-1.0168 1.0886,-0.6293 2.2632,-0.1086 c 0.1589,-0.0071 0.3085,-0.0772 0.4159,-0.1948 0.1071,-0.1176 0.1631,-0.2732 0.1554,-0.4321 -0.0078,-0.1587 -0.0784,-0.3077 -0.1962,-0.4142 -0.1177,-0.1066 -0.2731,-0.1621 -0.4317,-0.1541 l -1.2493,0.0586 0.6757,-1.0515 c 0.0861,-0.1336 0.1155,-0.296 0.0819,-0.4512 -0.0336,-0.1552 -0.1276,-0.2909 -0.2612,-0.3768 -0.2773,-0.178 -0.6464,-0.0985 -0.8257,0.1781 l -1.2277,1.909 -1.0887,0.6279 -0.3248,-1.4722 c -0.0365,-0.1638 -0.1399,-0.305 -0.2854,-0.3888 -0.1454,-0.0839 -0.3194,-0.1028 -0.4796,-0.0523 l -1.4383,0.4542 v -1.2549 l 1.0408,-2.0164 c 0.1511,-0.2941 0.0354,-0.655 -0.2586,-0.8063 -0.2938,-0.1512 -0.6546,-0.036 -0.8061,0.2576 l -0.5738,1.1126 -0.5747,-1.1126 c -0.1053,-0.204 -0.318,-0.3298 -0.5476,-0.3239 z m -34.8169,5.0281 1.1733,0.3705 v 1.6623 l -1.4395,-0.83 z m 3.5462,0 0.2662,1.2026 -1.4406,0.8323 v -1.6633 z m 30.6188,0 1.1745,0.3705 v 1.6623 l -1.4395,-0.83 z m 3.5474,0 0.2651,1.2026 -1.4406,0.8323 v -1.6633 z m -38.5772,2.2403 1.4406,0.8312 -1.4406,0.8322 -0.9083,-0.8322 z m 5.2758,0 0.9083,0.8312 -0.9083,0.8322 -1.4395,-0.8322 z m 28.8904,0 1.4395,0.8312 -1.4406,0.8322 -0.9072,-0.8322 z m 5.2758,0 0.9083,0.8312 -0.9083,0.8322 -1.4406,-0.8322 z m -36.2054,1.8676 1.4406,0.8322 -0.2662,1.2028 -1.1744,-0.3705 z m 34.1651,0 1.4417,0.8322 -0.2662,1.2028 -1.1755,-0.3705 z m -35.3636,9e-4 v 1.6634 l -1.1733,0.3704 -0.2662,-1.2026 z m 34.1662,0 v 1.6634 l -1.1745,0.3704 -0.265,-1.2026 z"
         style="fill:#cdfbff;fill-rule:nonzero;stroke:none"
         transform="translate(0.247551,64.0789)"
         id="path233539" />
      <path
         d="M 38.5853,0 C 25.0918,0.00589688 13.9375,10.5203 13.1355,23.9899 5.62626,25.4842 0,32.0822 0,40.0434 0,49.1133 7.30177,56.4149 16.3716,56.4149 H 73.8858 88.011 c 6.3229,0 11.4132,-5.8551 11.4132,-13.1275 0,-7.2725 -5.0903,-13.127 -11.4132,-13.127 H 87.2481 C 85.7203,21.1283 77.8976,14.517 68.737,14.5164 66.4828,14.5189 64.2476,14.9275 62.1381,15.7225 58.1848,6.20447 48.8918,9.5625e-4 38.5853,0"
         style="fill:#ffffff;fill-rule:nonzero;stroke:none"
         id="path233541" />
    </g>
  </g>
</svg>
