<?xml version="1.0" encoding="UTF-8" standalone="no"?>
<svg
   width="39.74379pt"
   height="39.651497pt"
   version="1.1"
   viewBox="0 0 39.74379 39.651497"
   id="svg6053"
   sodipodi:docname="Weather Icons-page001.svg"
   xmlns:inkscape="http://www.inkscape.org/namespaces/inkscape"
   xmlns:sodipodi="http://sodipodi.sourceforge.net/DTD/sodipodi-0.dtd"
   xmlns="http://www.w3.org/2000/svg"
   xmlns:svg="http://www.w3.org/2000/svg">
  <sodipodi:namedview
     id="namedview6055"
     pagecolor="#ffffff"
     bordercolor="#000000"
     borderopacity="0.25"
     inkscape:showpageshadow="2"
     inkscape:pageopacity="0.0"
     inkscape:pagecheckerboard="0"
     inkscape:deskcolor="#d1d1d1"
     inkscape:document-units="pt"
     showgrid="false" />
  <defs
     id="defs2330">
    <clipPath
       id="Clip0">
      <path
         d="M 0,0 H 44.8372 V 44.837 H 0 Z"
         id="path11" />
    </clipPath>
    <linearGradient
       x2="4.8330498"
       y2="2.4665899"
       id="Grad1"
       x1="0.041018698"
       gradientUnits="userSpaceOnUse"
       y1="2.4665899">
      <stop
         offset="0%"
         stop-color="#f5f3c2"
         stop-opacity="1"
         id="stop14" />
      <stop
         offset="55.1515%"
         stop-color="#fcd404"
         stop-opacity="1"
         id="stop16" />
      <stop
         offset="100%"
         stop-color="#dd6c1f"
         stop-opacity="1"
         id="stop18" />
    </linearGradient>
    <linearGradient
       x2="4.8338399"
       y2="2.4670501"
       id="Grad2"
       x1="0.0418051"
       gradientUnits="userSpaceOnUse"
       y1="2.4670501">
      <stop
         offset="0%"
         stop-color="#f5f3c2"
         stop-opacity="1"
         id="stop21" />
      <stop
         offset="55.1515%"
         stop-color="#fcd404"
         stop-opacity="1"
         id="stop23" />
      <stop
         offset="100%"
         stop-color="#dd6c1f"
         stop-opacity="1"
         id="stop25" />
    </linearGradient>
    <linearGradient
       x2="4.8329501"
       y2="2.4668601"
       id="Grad3"
       x1="0.0413955"
       gradientUnits="userSpaceOnUse"
       y1="2.4668601">
      <stop
         offset="0%"
         stop-color="#f5f3c2"
         stop-opacity="1"
         id="stop28" />
      <stop
         offset="55.1515%"
         stop-color="#fcd404"
         stop-opacity="1"
         id="stop30" />
      <stop
         offset="100%"
         stop-color="#dd6c1f"
         stop-opacity="1"
         id="stop32" />
    </linearGradient>
    <linearGradient
       x2="4.8330002"
       y2="2.4667799"
       id="Grad4"
       x1="0.0410279"
       gradientUnits="userSpaceOnUse"
       y1="2.4667799">
      <stop
         offset="0%"
         stop-color="#f5f3c2"
         stop-opacity="1"
         id="stop35" />
      <stop
         offset="55.1515%"
         stop-color="#fcd404"
         stop-opacity="1"
         id="stop37" />
      <stop
         offset="100%"
         stop-color="#dd6c1f"
         stop-opacity="1"
         id="stop39" />
    </linearGradient>
    <linearGradient
       x2="4.8332901"
       y2="2.46788"
       id="Grad5"
       x1="0.041244"
       gradientUnits="userSpaceOnUse"
       y1="2.46788">
      <stop
         offset="0%"
         stop-color="#f5f3c2"
         stop-opacity="1"
         id="stop42" />
      <stop
         offset="55.1515%"
         stop-color="#fcd404"
         stop-opacity="1"
         id="stop44" />
      <stop
         offset="100%"
         stop-color="#dd6c1f"
         stop-opacity="1"
         id="stop46" />
    </linearGradient>
    <linearGradient
       x2="4.8340402"
       y2="2.4672301"
       id="Grad6"
       x1="0.042006802"
       gradientUnits="userSpaceOnUse"
       y1="2.4672301">
      <stop
         offset="0%"
         stop-color="#f5f3c2"
         stop-opacity="1"
         id="stop49" />
      <stop
         offset="55.1515%"
         stop-color="#fcd404"
         stop-opacity="1"
         id="stop51" />
      <stop
         offset="100%"
         stop-color="#dd6c1f"
         stop-opacity="1"
         id="stop53" />
    </linearGradient>
    <linearGradient
       x2="4.8328199"
       y2="2.4668801"
       id="Grad7"
       x1="0.041067101"
       gradientUnits="userSpaceOnUse"
       y1="2.4668801">
      <stop
         offset="0%"
         stop-color="#f5f3c2"
         stop-opacity="1"
         id="stop56" />
      <stop
         offset="55.1515%"
         stop-color="#fcd404"
         stop-opacity="1"
         id="stop58" />
      <stop
         offset="100%"
         stop-color="#dd6c1f"
         stop-opacity="1"
         id="stop60" />
    </linearGradient>
    <linearGradient
       x2="4.83252"
       y2="2.4667301"
       id="Grad8"
       x1="0.0406764"
       gradientUnits="userSpaceOnUse"
       y1="2.4667301">
      <stop
         offset="0%"
         stop-color="#f5f3c2"
         stop-opacity="1"
         id="stop63" />
      <stop
         offset="55.1515%"
         stop-color="#fcd404"
         stop-opacity="1"
         id="stop65" />
      <stop
         offset="100%"
         stop-color="#dd6c1f"
         stop-opacity="1"
         id="stop67" />
    </linearGradient>
    <linearGradient
       x2="4.83248"
       y2="2.4668701"
       id="Grad9"
       x1="0.040481299"
       gradientUnits="userSpaceOnUse"
       y1="2.4668701">
      <stop
         offset="0%"
         stop-color="#f5f3c2"
         stop-opacity="1"
         id="stop70" />
      <stop
         offset="55.1515%"
         stop-color="#fcd404"
         stop-opacity="1"
         id="stop72" />
      <stop
         offset="100%"
         stop-color="#dd6c1f"
         stop-opacity="1"
         id="stop74" />
    </linearGradient>
    <linearGradient
       x2="4.8333402"
       y2="2.46702"
       id="Grad10"
       x1="0.0413718"
       gradientUnits="userSpaceOnUse"
       y1="2.46702">
      <stop
         offset="0%"
         stop-color="#f5f3c2"
         stop-opacity="1"
         id="stop77" />
      <stop
         offset="55.1515%"
         stop-color="#fcd404"
         stop-opacity="1"
         id="stop79" />
      <stop
         offset="100%"
         stop-color="#dd6c1f"
         stop-opacity="1"
         id="stop81" />
    </linearGradient>
    <linearGradient
       x2="4.8330302"
       y2="2.46807"
       id="Grad11"
       x1="0.0413411"
       gradientUnits="userSpaceOnUse"
       y1="2.46807">
      <stop
         offset="0%"
         stop-color="#f5f3c2"
         stop-opacity="1"
         id="stop84" />
      <stop
         offset="55.1515%"
         stop-color="#fcd404"
         stop-opacity="1"
         id="stop86" />
      <stop
         offset="100%"
         stop-color="#dd6c1f"
         stop-opacity="1"
         id="stop88" />
    </linearGradient>
    <linearGradient
       x2="4.8333302"
       y2="2.46733"
       id="Grad12"
       x1="0.041342601"
       gradientUnits="userSpaceOnUse"
       y1="2.46733">
      <stop
         offset="0%"
         stop-color="#f5f3c2"
         stop-opacity="1"
         id="stop91" />
      <stop
         offset="55.1515%"
         stop-color="#fcd404"
         stop-opacity="1"
         id="stop93" />
      <stop
         offset="100%"
         stop-color="#dd6c1f"
         stop-opacity="1"
         id="stop95" />
    </linearGradient>
    <linearGradient
       x2="4.83354"
       y2="2.4672599"
       id="Grad13"
       x1="0.041524101"
       gradientUnits="userSpaceOnUse"
       y1="2.4672599">
      <stop
         offset="0%"
         stop-color="#f5f3c2"
         stop-opacity="1"
         id="stop98" />
      <stop
         offset="55.1515%"
         stop-color="#fcd404"
         stop-opacity="1"
         id="stop100" />
      <stop
         offset="100%"
         stop-color="#dd6c1f"
         stop-opacity="1"
         id="stop102" />
    </linearGradient>
    <linearGradient
       x2="4.8333402"
       y2="2.4671299"
       id="Grad14"
       x1="0.041545399"
       gradientUnits="userSpaceOnUse"
       y1="2.4671299">
      <stop
         offset="0%"
         stop-color="#f5f3c2"
         stop-opacity="1"
         id="stop105" />
      <stop
         offset="55.1515%"
         stop-color="#fcd404"
         stop-opacity="1"
         id="stop107" />
      <stop
         offset="100%"
         stop-color="#dd6c1f"
         stop-opacity="1"
         id="stop109" />
    </linearGradient>
    <linearGradient
       x2="4.8330002"
       y2="2.4670601"
       id="Grad15"
       x1="0.041386601"
       gradientUnits="userSpaceOnUse"
       y1="2.4670601">
      <stop
         offset="0%"
         stop-color="#f5f3c2"
         stop-opacity="1"
         id="stop112" />
      <stop
         offset="55.1515%"
         stop-color="#fcd404"
         stop-opacity="1"
         id="stop114" />
      <stop
         offset="100%"
         stop-color="#dd6c1f"
         stop-opacity="1"
         id="stop116" />
    </linearGradient>
    <linearGradient
       x2="4.8333001"
       y2="2.4672101"
       id="Grad16"
       x1="0.041469101"
       gradientUnits="userSpaceOnUse"
       y1="2.4672101">
      <stop
         offset="0%"
         stop-color="#f5f3c2"
         stop-opacity="1"
         id="stop119" />
      <stop
         offset="55.1515%"
         stop-color="#fcd404"
         stop-opacity="1"
         id="stop121" />
      <stop
         offset="100%"
         stop-color="#dd6c1f"
         stop-opacity="1"
         id="stop123" />
    </linearGradient>
    <linearGradient
       x2="4.8333402"
       y2="2.4670899"
       id="Grad17"
       x1="0.041246001"
       gradientUnits="userSpaceOnUse"
       y1="2.4670899">
      <stop
         offset="0%"
         stop-color="#f5f3c2"
         stop-opacity="1"
         id="stop126" />
      <stop
         offset="55.1515%"
         stop-color="#fcd404"
         stop-opacity="1"
         id="stop128" />
      <stop
         offset="100%"
         stop-color="#dd6c1f"
         stop-opacity="1"
         id="stop130" />
    </linearGradient>
    <linearGradient
       x2="4.8333001"
       y2="2.46752"
       id="Grad18"
       x1="0.041299701"
       gradientUnits="userSpaceOnUse"
       y1="2.46752">
      <stop
         offset="0%"
         stop-color="#f5f3c2"
         stop-opacity="1"
         id="stop133" />
      <stop
         offset="55.1515%"
         stop-color="#fcd404"
         stop-opacity="1"
         id="stop135" />
      <stop
         offset="100%"
         stop-color="#dd6c1f"
         stop-opacity="1"
         id="stop137" />
    </linearGradient>
    <linearGradient
       x2="4.8329902"
       y2="2.4672699"
       id="Grad19"
       x1="0.041506201"
       gradientUnits="userSpaceOnUse"
       y1="2.4672699">
      <stop
         offset="0%"
         stop-color="#f5f3c2"
         stop-opacity="1"
         id="stop140" />
      <stop
         offset="55.1515%"
         stop-color="#fcd404"
         stop-opacity="1"
         id="stop142" />
      <stop
         offset="100%"
         stop-color="#dd6c1f"
         stop-opacity="1"
         id="stop144" />
    </linearGradient>
    <linearGradient
       x2="4.83392"
       y2="2.46738"
       id="Grad20"
       x1="0.0420768"
       gradientUnits="userSpaceOnUse"
       y1="2.46738">
      <stop
         offset="0%"
         stop-color="#f5f3c2"
         stop-opacity="1"
         id="stop147" />
      <stop
         offset="55.1515%"
         stop-color="#fcd404"
         stop-opacity="1"
         id="stop149" />
      <stop
         offset="100%"
         stop-color="#dd6c1f"
         stop-opacity="1"
         id="stop151" />
    </linearGradient>
    <linearGradient
       x2="4.8336501"
       y2="2.46703"
       id="Grad21"
       x1="0.041628599"
       gradientUnits="userSpaceOnUse"
       y1="2.46703">
      <stop
         offset="0%"
         stop-color="#f5f3c2"
         stop-opacity="1"
         id="stop154" />
      <stop
         offset="55.1515%"
         stop-color="#fcd404"
         stop-opacity="1"
         id="stop156" />
      <stop
         offset="100%"
         stop-color="#dd6c1f"
         stop-opacity="1"
         id="stop158" />
    </linearGradient>
    <linearGradient
       x2="4.83356"
       y2="2.4669299"
       id="Grad22"
       x1="0.041589599"
       gradientUnits="userSpaceOnUse"
       y1="2.4669299">
      <stop
         offset="0%"
         stop-color="#f5f3c2"
         stop-opacity="1"
         id="stop161" />
      <stop
         offset="55.1515%"
         stop-color="#fcd404"
         stop-opacity="1"
         id="stop163" />
      <stop
         offset="100%"
         stop-color="#dd6c1f"
         stop-opacity="1"
         id="stop165" />
    </linearGradient>
    <linearGradient
       x2="4.8326998"
       y2="2.46715"
       id="Grad23"
       x1="0.040952701"
       gradientUnits="userSpaceOnUse"
       y1="2.46715">
      <stop
         offset="0%"
         stop-color="#f5f3c2"
         stop-opacity="1"
         id="stop168" />
      <stop
         offset="55.1515%"
         stop-color="#fcd404"
         stop-opacity="1"
         id="stop170" />
      <stop
         offset="100%"
         stop-color="#dd6c1f"
         stop-opacity="1"
         id="stop172" />
    </linearGradient>
    <linearGradient
       x2="4.8327799"
       y2="2.4672101"
       id="Grad24"
       x1="0.040762"
       gradientUnits="userSpaceOnUse"
       y1="2.4672101">
      <stop
         offset="0%"
         stop-color="#f5f3c2"
         stop-opacity="1"
         id="stop175" />
      <stop
         offset="55.1515%"
         stop-color="#fcd404"
         stop-opacity="1"
         id="stop177" />
      <stop
         offset="100%"
         stop-color="#dd6c1f"
         stop-opacity="1"
         id="stop179" />
    </linearGradient>
    <linearGradient
       x2="4.8326602"
       y2="2.46717"
       id="Grad25"
       x1="0.040755998"
       gradientUnits="userSpaceOnUse"
       y1="2.46717">
      <stop
         offset="0%"
         stop-color="#f5f3c2"
         stop-opacity="1"
         id="stop182" />
      <stop
         offset="55.1515%"
         stop-color="#fcd404"
         stop-opacity="1"
         id="stop184" />
      <stop
         offset="100%"
         stop-color="#dd6c1f"
         stop-opacity="1"
         id="stop186" />
    </linearGradient>
    <linearGradient
       x2="29.957199"
       y2="15.9952"
       id="Grad26"
       x1="-0.96533799"
       gradientUnits="userSpaceOnUse"
       y1="15.9952">
      <stop
         offset="0%"
         stop-color="#fbef72"
         stop-opacity="1"
         id="stop189" />
      <stop
         offset="13.3333%"
         stop-color="#fbef72"
         stop-opacity="1"
         id="stop191" />
      <stop
         offset="50.9091%"
         stop-color="#fcd404"
         stop-opacity="1"
         id="stop193" />
      <stop
         offset="100%"
         stop-color="#d59420"
         stop-opacity="1"
         id="stop195" />
    </linearGradient>
  </defs>
  <g
     inkscape:groupmode="layer"
     id="Background"
     inkscape:label="Background"
     transform="translate(-97.068008,-93.925362)">
    <g
       id="sunny"
       style="fill:none;stroke:none"
       clip-path="url(#Clip0)"
       clip-rule="evenodd"
       transform="translate(94.3973,91.4016)">
      <path
         d="M 0,3.17912 4.96754,4.93458 3.97231,0 Z"
         style="fill:url(#Grad1);fill-rule:evenodd;stroke:none"
         transform="rotate(162.002,19.174015,11.231678)"
         id="path2334" />
      <path
         d="M 0,3.17884 4.96736,4.9349 3.97276,0 Z"
         style="fill:url(#Grad2);fill-rule:evenodd;stroke:none"
         transform="rotate(140.929,17.253625,12.30139)"
         id="path2336" />
      <path
         d="M 0,3.1778 4.96704,4.93393 3.97361,0 Z"
         style="fill:url(#Grad3);fill-rule:evenodd;stroke:none"
         transform="rotate(126.927,15.724833,12.512778)"
         id="path2338" />
      <path
         d="M 0,3.1789 4.96768,4.93382 3.97419,0 Z"
         style="fill:url(#Grad4);fill-rule:evenodd;stroke:none"
         transform="rotate(113.971,14.044802,12.333288)"
         id="path2340" />
      <path
         d="M 0,3.1795 4.96735,4.9349 3.97247,0 Z"
         style="fill:url(#Grad5);fill-rule:evenodd;stroke:none"
         transform="rotate(103.656,11.936142,12.032378)"
         id="path2342" />
      <path
         d="M 0,3.17867 4.96797,4.93431 3.97361,0 Z"
         style="fill:url(#Grad6);fill-rule:evenodd;stroke:none"
         transform="rotate(82.5829,8.8714497,13.262955)"
         id="path2344" />
      <path
         d="M 0,3.17825 4.96752,4.93409 3.97362,0 Z"
         style="fill:url(#Grad7);fill-rule:evenodd;stroke:none"
         transform="rotate(68.5816,5.4159849,13.698972)"
         id="path2346" />
      <path
         d="M 0,3.17875 4.96715,4.93376 3.9732,0 Z"
         style="fill:url(#Grad8);fill-rule:evenodd;stroke:none"
         transform="rotate(55.6266,0.40029752,13.722725)"
         id="path2348" />
      <path
         d="M 0,3.17874 4.9678,4.93468 3.97346,0 Z"
         style="fill:url(#Grad9);fill-rule:evenodd;stroke:none"
         transform="rotate(44.3195,-6.6836636,14.293519)"
         id="path2350" />
      <path
         d="M 0,3.17885 4.96778,4.93469 3.97319,0 Z"
         style="fill:url(#Grad10);fill-rule:evenodd;stroke:none"
         transform="rotate(23.2475,-29.833409,18.290581)"
         id="path2352" />
      <path
         d="M 0,3.17918 4.9674,4.93473 3.97297,0 Z"
         style="fill:url(#Grad11);fill-rule:evenodd;stroke:none"
         transform="rotate(9.24756,-108.15027,28.545059)"
         id="path2354" />
      <path
         d="M 0,3.17875 4.96759,4.93457 3.97314,0 Z"
         style="fill:url(#Grad12);fill-rule:evenodd;stroke:none"
         transform="rotate(-3.71,353.25214,-27.199652)"
         id="path2356" />
      <path
         d="M 0,3.17875 4.96767,4.93454 3.9733,0 Z"
         style="fill:url(#Grad13);fill-rule:evenodd;stroke:none"
         transform="rotate(-11.128,138.46903,-3.6449422)"
         id="path2358" />
      <path
         d="M 0,3.17853 4.96754,4.93429 3.97341,0 Z"
         style="fill:url(#Grad14);fill-rule:evenodd;stroke:none"
         transform="rotate(-32.201,57.893656,7.0121995)"
         id="path2360" />
      <path
         d="M 0,3.17865 4.96727,4.9342 3.97296,0 Z"
         style="fill:url(#Grad15);fill-rule:evenodd;stroke:none"
         transform="rotate(-46.199,45.950611,8.5833408)"
         id="path2362" />
      <path
         d="M 0,3.17869 4.96758,4.93445 3.97315,0 Z"
         style="fill:url(#Grad16);fill-rule:evenodd;stroke:none"
         transform="rotate(-59.157,40.422221,9.289061)"
         id="path2364" />
      <path
         d="M 0,3.17876 4.96775,4.93421 3.97301,0 Z"
         style="fill:url(#Grad17);fill-rule:evenodd;stroke:none"
         transform="rotate(-68.494,37.840788,8.9501207)"
         id="path2366" />
      <path
         d="M 0,3.179 4.96769,4.93372 3.97336,0 Z"
         style="fill:url(#Grad18);fill-rule:evenodd;stroke:none"
         transform="rotate(-89.57,31.777518,10.453227)"
         id="path2368" />
      <path
         d="M 0,3.17874 4.96738,4.93408 3.97291,0 Z"
         style="fill:url(#Grad19);fill-rule:evenodd;stroke:none"
         transform="rotate(-103.568,29.420977,10.771834)"
         id="path2370" />
      <path
         d="M 0,3.17962 4.96815,4.93423 3.97341,0 Z"
         style="fill:url(#Grad20);fill-rule:evenodd;stroke:none"
         transform="rotate(-116.524,27.931686,10.768417)"
         id="path2372" />
      <path
         d="M 0,3.1782 4.96724,4.93474 3.97307,0 Z"
         style="fill:url(#Grad21);fill-rule:evenodd;stroke:none"
         transform="rotate(-126.551,26.749804,10.345762)"
         id="path2374" />
      <path
         d="M 0,3.17852 4.96806,4.9339 3.97318,0 Z"
         style="fill:url(#Grad22);fill-rule:evenodd;stroke:none"
         transform="rotate(-147.624,24.108998,11.46147)"
         id="path2376" />
      <path
         d="M 0,3.17853 4.96724,4.93402 3.97283,0 Z"
         style="fill:url(#Grad23);fill-rule:evenodd;stroke:none"
         transform="rotate(-161.621,22.736375,11.649508)"
         id="path2378" />
      <path
         d="M 0,3.1784 4.96767,4.93448 3.97357,0 Z"
         style="fill:url(#Grad24);fill-rule:evenodd;stroke:none"
         transform="rotate(-174.584,21.648387,11.501969)"
         id="path2380" />
      <path
         d="M 0,3.17861 4.96708,4.93424 3.97242,0 Z"
         style="fill:url(#Grad25);fill-rule:evenodd;stroke:none"
         transform="rotate(175.245,20.594764,11.088134)"
         id="path2382" />
      <path
         d="m 28.7182,6.29952 0.25,0.33678 0.2397,0.34112 0.2297,0.34533 0.2197,0.34932 0.2095,0.35313 0.1995,0.35678 0.1896,0.36021 0.1797,0.36346 0.1697,0.36656 0.1597,0.36944 0.1498,0.37215 0.14,0.3747 0.1301,0.377 0.1204,0.3791 0.1105,0.3812 0.1007,0.3829 0.0911,0.3845 0.0813,0.386 0.0716,0.3871 0.0619,0.3883 0.0523,0.389 0.0426,0.3897 0.0331,0.3903 0.0235,0.3905 0.014,0.3907 0.0044,0.3906 -0.0051,0.3903 -0.0145,0.39 -0.024,0.3893 -0.0334,0.3885 -0.0428,0.3875 -0.0522,0.3863 -0.0614,0.3851 -0.0709,0.3835 -0.08,0.3816 -0.0895,0.3798 -0.0985,0.3779 -0.108,0.3754 -0.117,0.3729 -0.1262,0.3704 -0.1354,0.3674 -0.1444,0.3646 -0.1536,0.3613 -0.1627,0.3579 -0.1716,0.3543 -0.1808,0.3506 -0.1897,0.3466 -0.1987,0.3426 -0.2076,0.3382 -0.2165,0.3337 -0.2254,0.329 -0.2343,0.3242 -0.2432,0.3191 -0.2519,0.314 -0.2609,0.3084 -0.2695,0.3028 -0.2782,0.2971 -0.287,0.2912 -0.2957,0.2849 -0.3044,0.2786 -0.313,0.2721 -0.3217,0.2654 -0.3301,0.2585 -0.3369,0.2499 -0.3411,0.2398 -0.3454,0.2298 -0.3493,0.2197 -0.3531,0.2095 -0.3568,0.1996 -0.3603,0.1896 -0.3635,0.1797 -0.3665,0.1697 -0.3695,0.1598 -0.3721,0.1498 -0.3748,0.1401 -0.377,0.1302 -0.3792,0.1203 -0.3811,0.1105 -0.3829,0.1009 -0.3846,0.0911 -0.3859,0.0812 -0.3871,0.0718 -0.3882,0.0619 -0.3891,0.0523 -0.3897,0.0427 -0.3903,0.0332 -0.3905,0.0235 -0.3907,0.014 -0.3906,0.0044 L 15.6059,31.9865 15.216,31.972 14.8267,31.9481 14.4382,31.9147 14.0507,31.872 13.6644,31.82 13.2793,31.7585 12.8958,31.6876 12.5142,31.6076 12.1343,31.5182 11.7566,31.4197 11.3811,31.3119 11.0081,31.1949 10.6378,31.0688 10.2703,30.9334 9.9058,30.789 9.54449,30.6355 9.1866,30.4728 8.83226,30.3012 8.48168,30.1206 8.13505,29.9308 7.79253,29.7322 7.45433,29.5246 7.12062,29.3081 6.79158,29.0827 6.46742,28.8485 6.1483,28.6054 5.83442,28.3533 5.52594,28.0926 5.22308,27.8231 4.92599,27.5449 4.63487,27.2579 4.34992,26.9621 4.07131,26.6579 3.79921,26.3449 3.53383,26.0232 3.27534,25.693 3.02536,25.3561 2.78549,25.0149 2.55572,24.6695 2.33603,24.3201 2.12637,23.9669 1.92674,23.6101 1.7371,23.2498 1.55744,22.8862 1.38772,22.5196 1.22792,22.1501 1.07802,21.7779 0.937989,21.4032 0.807803,21.0261 0.687439,20.6469 0.57687,20.2658 0.476072,19.8828 0.38502,19.4983 0.303689,19.1123 0.232054,18.7251 0.170091,18.3369 0.117773,17.9478 0.0750764,17.558 0.0419757,17.1678 0.018446,16.7772 0.00446248,16.3865 0,15.996 0.00503363,15.6055 0.0195383,15.2157 0.0434892,14.8263 0.0768613,14.4378 0.119629,14.0503 0.171769,13.6639 0.233254,13.2789 0.304061,12.8955 0.384165,12.5137 0.473539,12.1339 0.572159,11.7561 0.680001,11.3807 0.797038,11.0077 0.923249,10.6373 1.0586,10.2698 1.20308,9.90534 1.35666,9.54405 1.5193,9.18614 1.69099,8.83181 1.8717,8.48123 2.06141,8.13459 2.26009,7.79208 2.46772,7.45387 2.68427,7.12015 2.90971,6.79112 3.14403,6.46694 3.38719,6.14782 3.63917,5.83393 3.89996,5.52544 4.16951,5.22256 4.44781,4.92546 4.73482,4.63435 5.03054,4.34937 5.33493,4.07074 5.64796,3.79864 5.96962,3.53324 6.29988,3.27473 6.63664,3.02481 6.97777,2.78502 7.32309,2.55531 7.67241,2.33566 8.02555,2.12606 8.38232,1.92648 8.74253,1.73689 9.10601,1.55726 9.47256,1.38759 9.84201,1.22782 10.2142,1.07794 10.5888,0.937935 10.9659,0.807771 11.345,0.687425 11.7262,0.576872 12.1091,0.476087 12.4936,0.385045 12.8795,0.30372 13.2668,0.232089 13.6549,0.170127 14.0441,0.117808 14.4339,0.0751084 14.8241,0.0420025 15.2147,0.0184658 15.6054,0.00447314 15.996,0 l 0.3904,0.00502141 0.3899,0.01449109 0.3893,0.023936 0.3885,0.033356 0.3877,0.0427515 0.3863,0.052121 0.385,0.061467 0.3835,0.070787 0.3818,0.080083 0.3798,0.089355 0.3778,0.0986 0.3754,0.107821 0.3731,0.117018 0.3704,0.12619 0.3676,0.135332 0.3645,0.14446 0.3613,0.15356 0.3579,0.16262 0.3543,0.17168 0.3507,0.18069 0.3466,0.18969 0.3426,0.19867 0.3382,0.20761 0.3338,0.21654 0.329,0.22544 0.3243,0.23431 0.3192,0.24316 0.3138,0.25197 0.3086,0.26079 0.3029,0.26955 0.2971,0.2783 0.2912,0.28703 0.2849,0.29573 0.2787,0.30439 0.2721,0.31305 0.2655,0.32168 z"
         style="fill:url(#Grad26);fill-rule:evenodd;stroke:none"
         transform="rotate(37.316,9.6968,28.717262)"
         id="path2384" />
    </g>
  </g>
</svg>
