<?xml version="1.0" encoding="UTF-8" standalone="no"?>
<svg
   width="99.424469pt"
   height="96.542191pt"
   version="1.1"
   viewBox="0 0 99.424469 96.542191"
   id="svg233565"
   sodipodi:docname="Document-3-page001.svg"
   inkscape:version="1.2.2 (b0a8486541, 2022-12-01)"
   inkscape:export-filename="../Github Repos/own-weather-app/src/assets/icons/Document-3-page001.svg"
   inkscape:export-xdpi="96"
   inkscape:export-ydpi="96"
   xmlns:inkscape="http://www.inkscape.org/namespaces/inkscape"
   xmlns:sodipodi="http://sodipodi.sourceforge.net/DTD/sodipodi-0.dtd"
   xmlns="http://www.w3.org/2000/svg"
   xmlns:svg="http://www.w3.org/2000/svg">
  <sodipodi:namedview
     id="namedview233567"
     pagecolor="#00000f"
     bordercolor="#000000"
     borderopacity="0.25"
     inkscape:showpageshadow="2"
     inkscape:pageopacity="0"
     inkscape:pagecheckerboard="0"
     inkscape:deskcolor="#d1d1d1"
     inkscape:document-units="pt"
     showgrid="false"
     inkscape:zoom="0.7594697"
     inkscape:cx="408.17955"
     inkscape:cy="528"
     inkscape:window-width="1920"
     inkscape:window-height="1014"
     inkscape:window-x="0"
     inkscape:window-y="0"
     inkscape:window-maximized="1"
     inkscape:current-layer="Background" />
  <defs
     id="defs233522">
    <clipPath
       id="Clip2">
      <path
         d="M 0,0 H 99.4245 V 96.5422 H 0 Z"
         id="path233507" />
    </clipPath>
  </defs>
  <g
     inkscape:groupmode="layer"
     id="Background"
     inkscape:label="Background"
     transform="translate(-475.80502,-232.94499)">
    <g
       id="thunder_storm"
       style="fill:none;stroke:none"
       clip-path="url(#Clip2)"
       clip-rule="evenodd"
       transform="translate(475.805,232.945)"
       inkscape:export-filename="../Github Repos/own-weather-app/src/assets/icons/thunder_storm.svg"
       inkscape:export-xdpi="96"
       inkscape:export-ydpi="96">
      <path
         d="M 38.5863,0 C 25.092,0.00589688 13.9373,10.5203 13.1357,23.9899 5.62753,25.4842 0,32.0823 0,40.0434 0,49.1133 7.30256,56.4149 16.3726,56.4149 h 57.5136 14.1255 c 6.3224,0 11.4128,-5.8551 11.4128,-13.1275 0,-7.2725 -5.0904,-13.127 -11.4128,-13.127 H 87.2482 C 85.7214,21.1283 77.8977,14.517 68.7368,14.5164 66.4833,14.5189 64.2472,14.9275 62.1387,15.7225 58.1846,6.20447 48.8915,7.96875e-4 38.5863,0"
         style="fill:#8f8f8f;fill-rule:nonzero;stroke:none"
         id="path233534" />
      <path
         d="M 27.1495,0 0,27.1494 H 18.7951 L 5.66737,54.0004 38.2627,18.3428 H 20.8574 L 27.1495,0"
         style="fill:#ffd300;fill-rule:nonzero;stroke:none"
         transform="translate(27.0555,42.5418)"
         id="path233536" />
    </g>
  </g>
</svg>
