<?xml version="1.0" encoding="UTF-8" standalone="no"?>
<svg
   width="47.625763pt"
   height="33.827148pt"
   version="1.1"
   viewBox="0 0 47.625763 33.827148"
   id="svg6053"
   sodipodi:docname="Weather Icons-page001.svg"
   xmlns:inkscape="http://www.inkscape.org/namespaces/inkscape"
   xmlns:sodipodi="http://sodipodi.sourceforge.net/DTD/sodipodi-0.dtd"
   xmlns="http://www.w3.org/2000/svg"
   xmlns:svg="http://www.w3.org/2000/svg">
  <sodipodi:namedview
     id="namedview6055"
     pagecolor="#ffffff"
     bordercolor="#000000"
     borderopacity="0.25"
     inkscape:showpageshadow="2"
     inkscape:pageopacity="0.0"
     inkscape:pagecheckerboard="0"
     inkscape:deskcolor="#d1d1d1"
     inkscape:document-units="pt"
     showgrid="false" />
  <defs
     id="defs2330">
    <clipPath
       id="Clip6">
      <path
         d="M 0,0 H 48.894 V 40.368 H 0 Z"
         id="path436" />
    </clipPath>
    <linearGradient
       x2="23.3389"
       y2="22.666201"
       id="Grad60"
       x1="0.990807"
       gradientUnits="userSpaceOnUse"
       y1="22.666201">
      <stop
         offset="0%"
         stop-color="#758099"
         stop-opacity="1"
         id="stop439" />
      <stop
         offset="100%"
         stop-color="#03253a"
         stop-opacity="1"
         id="stop441" />
    </linearGradient>
    <linearGradient
       x2="20.420099"
       y2="5.9204402"
       id="Grad61"
       x1="-2.2453899"
       gradientUnits="userSpaceOnUse"
       y1="5.9204402">
      <stop
         offset="0%"
         stop-color="#fdf6ce"
         stop-opacity="1"
         id="stop444" />
      <stop
         offset="13.3333%"
         stop-color="#fdf6ce"
         stop-opacity="1"
         id="stop446" />
      <stop
         offset="100%"
         stop-color="#ea5926"
         stop-opacity="1"
         id="stop448" />
    </linearGradient>
    <linearGradient
       x2="18.987"
       y2="5.1725998"
       id="Grad62"
       x1="-2.0880201"
       gradientUnits="userSpaceOnUse"
       y1="5.1725998">
      <stop
         offset="0%"
         stop-color="#d59420"
         stop-opacity="1"
         id="stop451" />
      <stop
         offset="45.4545%"
         stop-color="#fcd404"
         stop-opacity="1"
         id="stop453" />
      <stop
         offset="86.6667%"
         stop-color="#fbef72"
         stop-opacity="1"
         id="stop455" />
      <stop
         offset="100%"
         stop-color="#fbef72"
         stop-opacity="1"
         id="stop457" />
    </linearGradient>
  </defs>
  <g
     inkscape:groupmode="layer"
     id="Background"
     inkscape:label="Background"
     transform="translate(-314.23898,-151.62613)">
    <g
       id="thunder_storm_black_cloud"
       style="fill:none;stroke:none"
       clip-path="url(#Clip6)"
       clip-rule="evenodd"
       transform="translate(314.239,148.47)">
      <path
         d="m 28.9979,23.9547 c -1.3109,0 -2.3317,-0.0439 -2.9584,-0.0809 -0.7026,-0.0412 -1.6145,-0.073 -2.672,-0.1097 C 15.4874,23.4894 0.820194,22.9783 0.00868243,16.4846 l -0.004896,-0.0344 -0.001224,-0.0346 C -0.155334,11.8112 7.02709,10.0894 9.58648,9.6237 9.03201,7.11634 9.24253,3.01141 13.2254,1.02008 14.5596,0.352512 16.1373,0 17.7897,0 c 2.9952,0 5.9842,1.16035 7.7063,2.94152 0.0392,-0.02803 0.0796,-0.0568 0.12,-0.08532 1.0783,-0.77626 2.5569,-1.8382 4.7773,-1.8382 0.5349,0 1.0942,0.06389 1.6597,0.18972 2.5937,0.57602 3.5092,2.69831 3.7038,4.22684 2.4125,0.0175 9.8924,0.73085 11.6856,8.65054 0.4418,1.9543 0.0844,3.674 -1.0637,5.1121 -3.3072,4.1396 -12.3085,4.7575 -17.3808,4.7575"
         style="fill:#486172;fill-rule:nonzero;stroke:none"
         transform="translate(0,3.15613)"
         id="path2482" />
      <path
         d="m 12.0422,36.7505 -0.0042,0.0023 -0.0123,0.0069 -0.0203,0.0109 -0.0281,0.015 -0.0357,0.0186 -0.0431,0.022 -0.0504,0.0254 -0.0575,0.0281 -0.0643,0.0309 -0.0711,0.0331 -0.0775,0.0354 -0.0839,0.0372 -0.0901,0.039 -0.096,0.0402 -0.1018,0.0413 -0.1074,0.0422 -0.1129,0.0428 -0.118,0.0431 -0.1232,0.0431 -0.128,0.0431 -0.1327,0.0425 -0.1372,0.0418 -0.1415,0.0409 -0.1457,0.0397 -0.14958,0.0382 -0.15339,0.0363 -0.15699,0.0345 -0.1604,0.0321 -0.16363,0.0297 -0.16666,0.0268 -0.16952,0.0239 -0.17221,0.0206 -0.1747,0.017 L 8.41521,37.7883 8.23608,37.7974 8.055,37.8021 7.87214,37.8024 7.68772,37.7977 7.5019,37.7879 7.31486,37.7729 7.12679,37.7521 6.93788,37.7255 6.7483,37.6927 6.55824,37.6537 6.36787,37.6078 6.17739,37.5551 5.98699,37.4952 5.79683,37.4278 5.6071,37.3528 5.41799,37.2699 5.22967,37.1788 5.04234,37.0791 4.85617,36.9707 4.67136,36.8533 4.48807,36.7267 4.30648,36.5906 4.1268,36.4447 3.9492,36.2889 3.77386,36.1227 3.60097,35.9461 3.4307,35.7585 3.26325,35.56 3.09879,35.3501 2.97228,35.178 2.8504,35.0027 2.73314,34.8244 2.62047,34.643 2.51236,34.4589 2.40878,34.2721 2.30972,34.0828 2.21515,33.8911 2.12502,33.697 2.03933,33.5008 1.95805,33.3025 1.88115,33.1023 1.80861,32.9004 1.74039,32.6967 1.67648,32.4916 1.61684,32.285 1.56147,32.0771 1.51032,31.8682 1.46337,31.6581 1.42059,31.4473 1.38197,31.2356 1.34746,31.0234 1.31707,30.8105 1.29074,30.5973 1.26847,30.3838 1.25021,30.1704 1.23595,29.9568 1.22565,29.7433 1.21931,29.5301 1.21688,29.3172 1.21835,29.105 1.22369,28.8934 1.23286,28.6825 1.24586,28.4724 1.26264,28.2635 1.28319,28.0557 1.30748,27.8492 1.33548,27.644 1.36717,27.4404 1.40253,27.2384 1.44152,27.0383 1.48412,26.84 1.53031,26.6438 1.58006,26.4498 1.63334,26.2581 1.69012,26.0688 1.75039,25.882 1.81413,25.6979 1.88129,25.5166 1.95185,25.3384 2.02579,25.1631 2.1031,24.991 2.18373,24.8222 2.26766,24.6569 2.35487,24.4952 2.44532,24.3372 2.539,24.1829 2.6359,24.0328 2.73596,23.8866 2.83917,23.7446 2.94549,23.607 3.05492,23.4739 3.16743,23.3454 3.10711,23.2806 3.04454,23.2152 2.97986,23.1491 2.91321,23.0824 2.84471,23.0149 2.7745,22.9465 2.70271,22.877 2.62947,22.8067 2.55493,22.7352 2.4792,22.6626 2.40243,22.5887 2.32476,22.5136 2.24628,22.4371 2.16719,22.3593 2.08757,22.28 2.00757,22.199 1.92733,22.1165 1.84698,22.0322 1.76665,21.9462 1.68646,21.8584 1.60659,21.7687 1.52711,21.677 1.4482,21.5833 1.36997,21.4874 1.29257,21.3895 1.21612,21.2893 1.14076,21.1868 1.06662,21.0819 0.993839,20.9746 0.922542,20.8647 0.852867,20.7523 0.784946,20.6373 0.718913,20.5194 0.654901,20.3988 0.593043,20.2754 0.533473,20.1491 0.476324,20.0197 0.42173,19.8874 0.369823,19.7519 0.320738,19.6133 0.274607,19.4713 0.231564,19.326 0.191741,19.1773 0.155273,19.0251 0.122292,18.8694 0.0929327,18.7102 0.0673273,18.5473 0.0456095,18.3806 0.0279126,18.2101 0.0143699,18.0358 0.00511464,17.8574 2.80249e-4,17.6752 0,17.4888 0.00440721,17.2982 0.0227043,17.0157 0.0566088,16.747 0.105157,16.4918 0.167386,16.2498 0.242331,16.0206 0.32903,15.8039 0.426519,15.5994 0.533833,15.4066 0.65001,15.2255 0.774087,15.0553 0.905099,14.8961 1.04208,14.7472 l 0.142,-0.1386 0.14604,-0.1289 0.14912,-0.1195 0.15124,-0.1104 0.15239,-0.1015 0.15258,-0.0931 0.15181,-0.085 0.15008,-0.0772 0.14738,-0.0699 0.14371,-0.0626 0.13908,-0.056 0.1335,-0.0496 0.12694,-0.0434 0.11943,-0.0377 0.11094,-0.0323 0.10151,-0.0273 0.09109,-0.0225 0.07973,-0.0182 0.06738,-0.014 0.05409,-0.0104 0.03984,-0.007 0.02461,-0.0039 0.0084,-0.0013 L 3.62309,13.43 3.61764,13.4092 3.60896,13.3749 3.59738,13.3276 3.5832,13.2678 3.56676,13.1955 3.54838,13.1112 3.52838,13.0155 3.50708,12.9084 3.48481,12.7906 3.46189,12.662 3.43864,12.5235 3.4154,12.3751 3.39246,12.2174 3.37019,12.0505 3.34886,11.875 3.32884,11.6911 3.31042,11.4993 3.29394,11.2999 3.27972,11.0932 3.26808,10.8796 3.25934,10.6595 3.25383,10.4333 3.25187,10.2013 3.2538,9.96379 3.25992,9.72127 3.27055,9.47404 3.28604,9.22246 3.30668,8.96691 3.33282,8.70774 3.36476,8.44533 3.40285,8.18003 3.44741,7.91219 3.49873,7.64219 3.55716,7.3704 3.62303,7.09716 3.69665,6.82285 3.77834,6.54782 3.86843,6.27245 3.96724,5.99709 4.07509,5.7221 4.19231,5.44786 4.31923,5.17472 4.45614,4.90304 4.60342,4.63319 4.76134,4.36553 4.93024,4.10042 5.11046,3.83823 5.30229,3.57932 5.50609,3.32404 5.72215,3.07278 5.95082,2.82589 6.19241,2.5837 6.44725,2.34664 6.71565,2.11501 6.99794,1.88922 7.29445,1.6696 7.6055,1.45652 7.9314,1.25035 8.27249,1.05146 8.62908,0.860192 9.0015,0.676925 9.39009,0.502015 9.78313,0.34647 10.1688,0.220673 10.5471,0.123872 10.9182,0.0553254 11.282,0.0142833 11.6387,0 l 0.3496,0.0117287 0.3425,0.0369942 0.3355,0.0615131 0.3285,0.085285 0.3217,0.10831 0.3148,0.13059 0.3081,0.152121 0.3012,0.172906 0.2946,0.192945 0.2879,0.212237 0.2814,0.23078 0.2749,0.24858 0.2683,0.26563 0.262,0.28195 0.2555,0.2975 0.2493,0.31231 0.2429,0.32637 0.2369,0.3397 0.2306,0.35226 0.2244,0.36409 0.2184,0.37517 0.2125,0.38551 0.2065,0.39509 0.2006,0.40393 0.1947,0.41201 0.189,0.41937 0.1833,0.42596 0.1776,0.43181 0.1718,0.43692 0.1663,0.44128 0.1609,0.4449 0.1553,0.44775 0.1499,0.44988 0.1446,0.45122 0.1393,0.4519 0.1339,0.4518 0.1288,0.4508 0.1236,0.4493 0.1185,0.4469 0.1136,0.4438 0.1084,0.4399 0.1036,0.4354 0.0985,0.43 0.0939,0.4239 0.0889,0.4171 0.0844,0.4094 0.0795,0.4011 0.0751,0.3921 0.0704,0.3822 0.0658,0.3718 0.0614,0.3602 0.0571,0.3483 0.0526,0.3354 0.0484,0.3219 0.044,0.3076 0.0399,0.2926 0.0358,0.2767 0.0358,0.2781 0.0402,0.2968 0.044,0.3147 0.0477,0.332 0.051,0.3484 0.0539,0.3643 0.0566,0.3794 0.059,0.3939 0.061,0.4076 0.0627,0.4206 0.0641,0.4329 0.0652,0.4447 0.066,0.4554 0.0665,0.4658 0.0664,0.4752 0.0665,0.4843 0.0658,0.4921 0.0652,0.4998 0.064,0.5064 0.0625,0.5124 0.0609,0.5178 0.0586,0.5224 0.0564,0.5263 0.0536,0.5295 0.0506,0.5321 0.0473,0.5339 0.0437,0.5351 0.0397,0.5355 0.0354,0.5352 0.0308,0.5342 0.026,0.5326 0.0206,0.5301 0.0152,0.5272 0.0093,0.5234 0.0031,0.5188 -0.0033,0.5137 -0.0102,0.5079 -0.0172,0.5012 -0.0248,0.4939 -0.0324,0.486 -0.0405,0.4774 -0.0488,0.4679 -0.0577,0.4579 -0.0666,0.4472 -0.0759,0.4356 -0.0855,0.4234 -0.0955,0.4106 -0.1058,0.397 -0.1164,0.3827 -0.1271,0.3678 -0.1386,0.352 -0.1499,0.3358 -0.1618,0.3186 -0.1741,0.3009 -0.1865,0.2823 -0.1993,0.2632 -0.2124,0.2433 -0.2258,0.2228 -0.2395,0.2015 -0.2536,0.1794 -0.2681,0.1569 -0.2826,0.1334 -0.2977,0.1093 -0.224,0.042 -0.2214,0.0263 -0.219,0.0114 -0.2163,-0.0033 -0.2137,-0.0172 -0.211,-0.031 L 18.35,45.2373 18.1443,45.1807 17.9415,45.1119 17.7414,45.0313 17.5441,44.9396 17.3496,44.8373 17.1582,44.7247 16.9695,44.6024 16.7839,44.4709 16.6012,44.3305 16.4216,44.1819 16.2451,44.0253 16.0716,43.8617 15.9012,43.691 15.7342,43.5141 15.5703,43.3313 15.4095,43.1431 15.2521,42.95 15.098,42.7525 14.9472,42.551 14.7999,42.3462 14.6559,42.1383 14.5154,41.928 14.3785,41.7156 14.245,41.5018 l -0.13,-0.2149 -0.1263,-0.2155 -0.1227,-0.2155 -0.119,-0.2151 -0.1154,-0.2142 -0.1117,-0.2127 -0.1078,-0.211 -0.104,-0.2086 -0.1003,-0.2057 -0.0963,-0.2025 -0.0924,-0.1985 -0.0885,-0.1944 -0.0845,-0.1896 -0.0805,-0.1843 -0.0765,-0.1786 -0.0724,-0.1723 -0.0683,-0.1658 -0.0641,-0.1585 -0.0598,-0.1508 -0.0557,-0.1426 -0.0516,-0.134 -0.0471,-0.125 -0.0428,-0.1153 -0.0385,-0.1052 -0.0341,-0.0946 -0.0296,-0.0836 -0.0252,-0.0721 -0.0207,-0.06 -0.0162,-0.0476 -0.0115,-0.0345 -0.007,-0.0212 z"
         style="fill:url(#Grad60);fill-rule:evenodd;stroke:none"
         transform="rotate(100.513,21.00831,24.463194)"
         id="path2484" />
      <path
         d="m 0,14.234 c 2.89109,-2.8066 11.0417,-3.2604 11.0417,-3.2604 0,0 -3.09304,-7.01066 1.9817,-9.54837 4.0135,-2.007117 8.8948,0.43782 11.0637,3.27615 1.3354,-0.83513 3.011,-3.26147 6.3978,-2.50895 3.2987,0.7333 2.1323,4.51607 2.1323,4.51607 0,0 10.9168,-0.69266 12.9205,8.1537 0.0906,0.3999 0.142,0.7802 0.1603,1.1421 C 45.8731,15.252 45.8743,14.4146 45.6625,13.482 43.6601,4.63614 33.9966,5.45365 33.9966,5.45365 c 0,0 0.164,-3.53124 -3.1359,-4.26429 C 27.4739,0.436481 25.6734,2.36085 24.338,3.19599 22.1691,0.358022 16.5607,-1.06879 12.5472,0.938198 7.4713,3.47567 9.53863,9.47596 9.53863,9.47596 c 0,0 -8.01353,1.04624 -9.53863,4.75804"
         style="fill:#7885a7;fill-rule:nonzero;stroke:none"
         transform="translate(1.0246,3.92994)"
         id="path2486" />
      <path
         d="M 20.124,11.8406 14.7683,10.5924 15.4001,10.0079 9.92233,7.00791 9.53935,8.78264 5.84466,6.71578 5.31737,9.16326 0,5.96338 0.0406339,5.61916 0.0519472,5.52167 0.0633402,5.42159 0.0747682,5.31898 0.0861867,5.21395 0.0975512,5.10655 0.108817,4.99687 0.11994,4.885 0.130875,4.77098 0.141579,4.65493 0.152005,4.5369 0.16211,4.41699 0.171848,4.29525 0.181178,4.17178 0.190052,4.04664 0.198426,3.91993 0.206257,3.79171 0.2135,3.66206 0.220108,3.53106 0.226041,3.39878 0.23125,3.26531 0.235693,3.13072 0.239325,2.99509 0.242101,2.85849 0.243976,2.72101 0.244908,2.58274 0.24485,2.44372 0.243757,2.30405 0.241587,2.1638 0.238293,2.02305 0.233833,1.88189 0.22816,1.74038 0.221231,1.59861 0.212999,1.45665 0.203424,1.31456 0.192457,1.17246 0.180057,1.0304 0.0845947,0 4.17619,2.63309 4.6935,1.02267 8.9659,3.86239 9.44338,2.83352 16.0169,8.49559 16.001,7.3929 Z"
         style="fill:url(#Grad61);fill-rule:evenodd;stroke:none"
         transform="rotate(106.61,11.112628,24.67822)"
         id="path2488" />
      <path
         d="M 4.60886,7.4922 5.13202,5.06256 8.82718,7.12929 9.19848,5.40531 15.8073,8.89562 15.2694,9.39458 18.712,10.3462 15.9819,7.5931 15.9941,8.47586 9.1249,2.60954 8.65094,3.63097 4.43838,0.830871 3.92331,2.43424 0.141384,0 0.153452,0.137591 0.164235,0.275192 0.173768,0.412752 0.182083,0.550225 0.189218,0.68756 0.195206,0.824709 0.200081,0.961623 0.203877,1.09825 0.206631,1.23455 0.208374,1.37048 0.209144,1.50596 0.208972,1.64097 0.207895,1.77546 0.205947,1.90937 0.203162,2.04265 0.199574,2.17527 0.195219,2.30715 0.190131,2.43827 0.184344,2.56858 0.177894,2.698 0.170812,2.82652 0.163136,2.95408 0.154898,3.0806 0.146135,3.20608 0.136879,3.33044 0.127166,3.45364 0.11703,3.57563 0.106506,3.69637 0.0956276,3.8158 0.0844299,3.93387 0.0729475,4.05055 0.0612144,4.16576 0.0492655,4.27947 0.0371352,4.39164 0.0248577,4.50221 0.0124679,4.61113 0,4.71835 Z"
         style="fill:url(#Grad62);fill-rule:evenodd;stroke:none"
         transform="rotate(106.61,10.542526,24.383387)"
         id="path2490" />
    </g>
  </g>
</svg>
