<?xml version="1.0" encoding="UTF-8" standalone="no"?>
<svg
   width="47.626312pt"
   height="40.231781pt"
   version="1.1"
   viewBox="0 0 47.626312 40.231781"
   id="svg6053"
   sodipodi:docname="Weather Icons-page001.svg"
   xmlns:inkscape="http://www.inkscape.org/namespaces/inkscape"
   xmlns:sodipodi="http://sodipodi.sourceforge.net/DTD/sodipodi-0.dtd"
   xmlns="http://www.w3.org/2000/svg"
   xmlns:svg="http://www.w3.org/2000/svg">
  <sodipodi:namedview
     id="namedview6055"
     pagecolor="#ffffff"
     bordercolor="#000000"
     borderopacity="0.25"
     inkscape:showpageshadow="2"
     inkscape:pageopacity="0.0"
     inkscape:pagecheckerboard="0"
     inkscape:deskcolor="#d1d1d1"
     inkscape:document-units="pt"
     showgrid="false" />
  <defs
     id="defs2330">
    <clipPath
       id="Clip7">
      <path
         d="M 0,0 H 48.894 V 43.3878 H 0 Z"
         id="path460" />
    </clipPath>
    <linearGradient
       x2="23.338699"
       y2="22.666201"
       id="Grad63"
       x1="0.99056"
       gradientUnits="userSpaceOnUse"
       y1="22.666201">
      <stop
         offset="0%"
         stop-color="#758099"
         stop-opacity="1"
         id="stop463" />
      <stop
         offset="100%"
         stop-color="#03253a"
         stop-opacity="1"
         id="stop465" />
    </linearGradient>
    <linearGradient
       x2="20.4205"
       y2="5.9201598"
       id="Grad64"
       x1="-2.2443399"
       gradientUnits="userSpaceOnUse"
       y1="5.9201598">
      <stop
         offset="0%"
         stop-color="#fdf6ce"
         stop-opacity="1"
         id="stop468" />
      <stop
         offset="13.3333%"
         stop-color="#fdf6ce"
         stop-opacity="1"
         id="stop470" />
      <stop
         offset="100%"
         stop-color="#ea5926"
         stop-opacity="1"
         id="stop472" />
    </linearGradient>
    <linearGradient
       x2="18.987499"
       y2="5.1724601"
       id="Grad65"
       x1="-2.08708"
       gradientUnits="userSpaceOnUse"
       y1="5.1724601">
      <stop
         offset="0%"
         stop-color="#d59420"
         stop-opacity="1"
         id="stop475" />
      <stop
         offset="45.4545%"
         stop-color="#fcd404"
         stop-opacity="1"
         id="stop477" />
      <stop
         offset="86.6667%"
         stop-color="#fbef72"
         stop-opacity="1"
         id="stop479" />
      <stop
         offset="100%"
         stop-color="#fbef72"
         stop-opacity="1"
         id="stop481" />
    </linearGradient>
    <linearGradient
       x2="3.96837"
       y2="1.31822"
       id="Grad66"
       x1="0.18994901"
       gradientUnits="userSpaceOnUse"
       y1="1.31822">
      <stop
         offset="0%"
         stop-color="#8cd0f2"
         stop-opacity="1"
         id="stop484" />
      <stop
         offset="90.303%"
         stop-color="#63bae9"
         stop-opacity="1"
         id="stop486" />
      <stop
         offset="100%"
         stop-color="#63bae9"
         stop-opacity="1"
         id="stop488" />
    </linearGradient>
    <linearGradient
       x2="5.0149798"
       y2="1.66573"
       id="Grad67"
       x1="0.240336"
       gradientUnits="userSpaceOnUse"
       y1="1.66573">
      <stop
         offset="0%"
         stop-color="#8cd0f2"
         stop-opacity="1"
         id="stop491" />
      <stop
         offset="90.303%"
         stop-color="#63bae9"
         stop-opacity="1"
         id="stop493" />
      <stop
         offset="100%"
         stop-color="#63bae9"
         stop-opacity="1"
         id="stop495" />
    </linearGradient>
    <linearGradient
       x2="5.01404"
       y2="1.66635"
       id="Grad68"
       x1="0.239702"
       gradientUnits="userSpaceOnUse"
       y1="1.66635">
      <stop
         offset="0%"
         stop-color="#8cd0f2"
         stop-opacity="1"
         id="stop498" />
      <stop
         offset="90.303%"
         stop-color="#63bae9"
         stop-opacity="1"
         id="stop500" />
      <stop
         offset="100%"
         stop-color="#63bae9"
         stop-opacity="1"
         id="stop502" />
    </linearGradient>
    <linearGradient
       x2="5.0143199"
       y2="1.6655999"
       id="Grad69"
       x1="0.239978"
       gradientUnits="userSpaceOnUse"
       y1="1.6655999">
      <stop
         offset="0%"
         stop-color="#8cd0f2"
         stop-opacity="1"
         id="stop505" />
      <stop
         offset="90.303%"
         stop-color="#63bae9"
         stop-opacity="1"
         id="stop507" />
      <stop
         offset="100%"
         stop-color="#63bae9"
         stop-opacity="1"
         id="stop509" />
    </linearGradient>
    <linearGradient
       x2="5.0144"
       y2="1.6669199"
       id="Grad70"
       x1="0.24006"
       gradientUnits="userSpaceOnUse"
       y1="1.6669199">
      <stop
         offset="0%"
         stop-color="#8cd0f2"
         stop-opacity="1"
         id="stop512" />
      <stop
         offset="90.303%"
         stop-color="#63bae9"
         stop-opacity="1"
         id="stop514" />
      <stop
         offset="100%"
         stop-color="#63bae9"
         stop-opacity="1"
         id="stop516" />
    </linearGradient>
    <linearGradient
       x2="5.0144401"
       y2="1.66563"
       id="Grad71"
       x1="0.240097"
       gradientUnits="userSpaceOnUse"
       y1="1.66563">
      <stop
         offset="0%"
         stop-color="#8cd0f2"
         stop-opacity="1"
         id="stop519" />
      <stop
         offset="90.303%"
         stop-color="#63bae9"
         stop-opacity="1"
         id="stop521" />
      <stop
         offset="100%"
         stop-color="#63bae9"
         stop-opacity="1"
         id="stop523" />
    </linearGradient>
    <linearGradient
       x2="5.0143499"
       y2="1.66576"
       id="Grad72"
       x1="0.239702"
       gradientUnits="userSpaceOnUse"
       y1="1.66576">
      <stop
         offset="0%"
         stop-color="#8cd0f2"
         stop-opacity="1"
         id="stop526" />
      <stop
         offset="90.303%"
         stop-color="#63bae9"
         stop-opacity="1"
         id="stop528" />
      <stop
         offset="100%"
         stop-color="#63bae9"
         stop-opacity="1"
         id="stop530" />
    </linearGradient>
    <linearGradient
       x2="5.01474"
       y2="1.66566"
       id="Grad73"
       x1="0.240097"
       gradientUnits="userSpaceOnUse"
       y1="1.66566">
      <stop
         offset="0%"
         stop-color="#8cd0f2"
         stop-opacity="1"
         id="stop533" />
      <stop
         offset="90.303%"
         stop-color="#63bae9"
         stop-opacity="1"
         id="stop535" />
      <stop
         offset="100%"
         stop-color="#63bae9"
         stop-opacity="1"
         id="stop537" />
    </linearGradient>
    <linearGradient
       x2="5.0144701"
       y2="1.66584"
       id="Grad74"
       x1="0.239821"
       gradientUnits="userSpaceOnUse"
       y1="1.66584">
      <stop
         offset="0%"
         stop-color="#8cd0f2"
         stop-opacity="1"
         id="stop540" />
      <stop
         offset="90.303%"
         stop-color="#63bae9"
         stop-opacity="1"
         id="stop542" />
      <stop
         offset="100%"
         stop-color="#63bae9"
         stop-opacity="1"
         id="stop544" />
    </linearGradient>
    <linearGradient
       x2="5.0144701"
       y2="1.66588"
       id="Grad75"
       x1="0.239821"
       gradientUnits="userSpaceOnUse"
       y1="1.66588">
      <stop
         offset="0%"
         stop-color="#8cd0f2"
         stop-opacity="1"
         id="stop547" />
      <stop
         offset="90.303%"
         stop-color="#63bae9"
         stop-opacity="1"
         id="stop549" />
      <stop
         offset="100%"
         stop-color="#63bae9"
         stop-opacity="1"
         id="stop551" />
    </linearGradient>
  </defs>
  <g
     inkscape:groupmode="layer"
     id="Background"
     inkscape:label="Background"
     transform="translate(-313.16202,-96.931595)">
    <g
       id="thunder_storm_with_rain"
       style="fill:none;stroke:none"
       clip-path="url(#Clip7)"
       clip-rule="evenodd"
       transform="translate(313.162,93.7756)">
      <path
         d="m 28.9991,23.9549 c -1.3121,0 -2.3329,-0.0439 -2.9596,-0.0807 -0.7014,-0.0411 -1.6145,-0.0729 -2.672,-0.11 C 15.4886,23.4897 0.820194,22.9785 0.00868243,16.4851 l -0.003672,-0.0347 -0.002448,-0.035 C -0.155334,11.8116 7.02709,10.0907 9.58648,9.62431 9.03201,7.11634 9.24253,3.01226 13.2254,1.02082 14.5596,0.352512 16.1386,0 17.7897,0 c 2.9952,0 5.9842,1.16035 7.7063,2.9425 0.0392,-0.02816 0.0796,-0.05753 0.12,-0.08568 1.0783,-0.77602 2.5569,-1.83845 4.7773,-1.83845 0.5349,0 1.0942,0.06365 1.6597,0.18972 2.5937,0.5765 3.5092,2.69769 3.7038,4.22647 2.4125,0.01714 9.8924,0.73073 11.6856,8.65124 0.4431,1.9541 0.0844,3.6738 -1.0637,5.1119 -3.3072,4.1393 -12.3085,4.7572 -17.3796,4.7572"
         style="fill:#486172;fill-rule:nonzero;stroke:none"
         transform="translate(0,3.156)"
         id="path2493" />
      <path
         d="m 12.042,36.7505 -0.0041,0.0023 -0.0123,0.0069 -0.0203,0.011 -0.0281,0.0149 -0.0357,0.0186 -0.0431,0.022 -0.0504,0.0254 -0.0575,0.0281 -0.0643,0.0308 -0.0711,0.0332 -0.0776,0.0354 -0.0838,0.0372 -0.0901,0.0388 -0.096,0.0403 -0.1018,0.0412 -0.1074,0.0423 -0.1129,0.0427 -0.1181,0.0431 -0.1231,0.0432 -0.128,0.0429 -0.1327,0.0425 -0.1372,0.0419 -0.1415,0.0409 -0.1457,0.0395 -0.14957,0.0382 -0.1534,0.0365 -0.15699,0.0344 -0.16039,0.032 -0.16362,0.0296 -0.16666,0.027 -0.16953,0.0238 -0.17219,0.0205 -0.1747,0.017 -0.177,0.0132 -0.17914,0.0091 -0.18107,0.0047 -0.18285,3e-4 L 7.68767,37.7972 7.50186,37.7875 7.31483,37.7723 7.12678,37.7516 6.93786,37.725 6.74829,37.6922 6.55824,37.6531 6.36788,37.6073 6.17742,37.5545 5.98702,37.4947 5.79686,37.4273 5.60716,37.3523 5.41805,37.2695 5.22975,37.1783 5.04243,37.0786 4.85627,36.9703 4.67146,36.8529 4.48819,36.7264 4.30662,36.5903 4.12695,36.4445 3.94936,36.2887 3.77403,36.1226 3.60115,35.9458 3.43091,35.7584 3.26347,35.5599 3.09902,35.3501 2.9725,35.178 2.85061,35.0027 2.73333,34.8243 2.62065,34.643 2.51253,34.4589 2.40894,34.2721 2.30986,34.0828 2.21527,33.8911 2.12515,33.697 2.03944,33.5008 1.95816,33.3025 1.88125,33.1023 1.8087,32.9004 1.74048,32.6967 1.67657,32.4916 1.61693,32.285 1.56155,32.0771 1.5104,31.8682 1.46345,31.6581 1.42068,31.4473 1.38206,31.2356 1.34756,31.0234 1.31717,30.8105 1.29084,30.5973 1.26857,30.3838 1.25032,30.1703 1.23607,29.9568 1.22579,29.7433 1.21945,29.5301 1.21703,29.3172 1.21851,29.105 1.22385,28.8934 1.23305,28.6825 1.24604,28.4724 1.26284,28.2635 1.2834,28.0557 1.30771,27.8491 1.33573,27.6439 1.36743,27.4404 1.4028,27.2384 1.4418,27.0383 1.48442,26.84 1.53062,26.6438 1.58038,26.4498 1.63369,26.258 1.69049,26.0688 1.75079,25.882 1.81453,25.6979 1.8817,25.5166 1.95229,25.3383 2.02626,25.163 2.10358,24.9909 2.18422,24.8221 2.26817,24.6569 2.3554,24.4951 2.44588,24.337 2.53959,24.1828 2.6365,24.0326 2.73658,23.8865 2.83981,23.7445 2.94617,23.6069 3.05562,23.4737 3.16814,23.3452 3.10777,23.2805 3.04517,23.2151 2.98045,23.149 2.91376,23.0823 2.84522,23.0147 2.77497,22.9463 2.70314,22.8769 2.62989,22.8065 2.55531,22.7351 2.47955,22.6625 2.40276,22.5887 2.32505,22.5136 2.24657,22.4371 2.16743,22.3593 2.0878,22.2799 2.00779,22.199 1.92753,22.1165 1.84716,22.0322 1.76681,21.9462 1.68662,21.8584 1.60672,21.7687 1.52725,21.677 1.44832,21.5833 1.37008,21.4874 1.29267,21.3895 1.21622,21.2893 1.14085,21.1868 1.0667,21.0819 0.993911,20.9746 0.92261,20.8647 0.85293,20.7523 0.785005,20.6373 0.718968,20.5194 0.654953,20.3988 0.593093,20.2754 0.533521,20.1491 0.47637,20.0197 0.421773,19.8874 0.369865,19.7519 0.320777,19.6133 0.274645,19.4713 0.231599,19.326 0.191775,19.1773 0.155305,19.0251 0.122323,18.8694 0.0929607,18.7102 0.0673527,18.5473 0.0456319,18.3806 0.0279316,18.2101 0.0143849,18.0358 0.00512528,17.8574 2.85885e-4,17.6752 0,17.4888 0.00440088,17.2982 0.022708,17.0157 0.0566219,16.747 0.105179,16.4918 0.167416,16.2498 0.242369,16.0206 0.329075,15.8039 0.42657,15.5994 0.533892,15.4066 0.650075,15.2255 0.774157,15.0553 0.905175,14.8961 1.04216,14.7472 l 0.142,-0.1386 0.14605,-0.1289 0.14912,-0.1195 0.15123,-0.1104 0.1524,-0.1015 0.15259,-0.0931 0.15181,-0.085 0.15009,-0.0772 0.14737,-0.0699 0.14372,-0.0626 0.13908,-0.056 0.1335,-0.0496 0.12695,-0.0434 0.11942,-0.0377 0.11096,-0.0323 0.10149,-0.0273 0.0911,-0.0225 0.07972,-0.0182 0.0674,-0.014 0.05408,-0.0104 0.03983,-0.007 L 3.61668,13.4382 3.6251,13.4369 3.6232,13.43 3.61776,13.4092 3.60909,13.3749 3.5975,13.3276 3.58331,13.2678 3.56687,13.1955 3.54849,13.1112 3.52849,13.0155 3.50719,12.9084 3.48491,12.7906 3.462,12.662 3.43874,12.5235 3.4155,12.3751 3.39256,12.2174 3.37028,12.0505 3.34896,11.875 3.32893,11.6911 3.3105,11.4993 3.29403,11.2999 3.27981,11.0932 3.26815,10.8796 3.25943,10.6595 3.25391,10.4333 3.25195,10.2013 3.25387,9.9638 3.25999,9.72127 3.27061,9.47404 3.2861,9.22247 3.30675,8.96691 3.33288,8.70776 3.36482,8.44534 3.4029,8.18003 3.44746,7.91219 3.49878,7.6422 3.55721,7.3704 3.62308,7.09717 3.69669,6.82286 3.77838,6.54784 3.86846,6.27246 3.96727,5.9971 4.07511,5.72211 4.19233,5.44788 4.31925,5.17473 4.45617,4.90305 4.60343,4.63321 4.76135,4.36554 4.93025,4.10044 5.11046,3.83824 5.30231,3.57933 5.50609,3.32405 5.72216,3.07279 5.95083,2.8259 6.19241,2.58373 6.44725,2.34665 6.71565,2.11504 6.99794,1.88923 7.29444,1.66961 7.6055,1.45654 7.9314,1.25036 8.27248,1.05147 8.62908,0.860209 9.0015,0.676941 9.39009,0.502031 9.78314,0.346485 10.1688,0.220684 10.5472,0.123881 10.9183,0.0553306 11.2821,0.0142859 11.6388,0 l 0.3496,0.0117263 0.3425,0.0369918 0.3355,0.0615109 0.3287,0.085283 0.3217,0.108308 0.3148,0.130587 0.3079,0.15212 0.3014,0.172905 0.2945,0.192943 0.288,0.212235 0.2814,0.23079 0.2748,0.24858 0.2684,0.26562 0.2619,0.28195 0.2556,0.29749 0.2492,0.3123 0.243,0.32638 0.2368,0.3397 0.2306,0.35226 0.2245,0.36409 0.2185,0.37516 0.2123,0.38552 0.2065,0.39508 0.2006,0.40393 0.1949,0.41201 0.1889,0.41937 0.1833,0.42596 0.1775,0.43182 0.172,0.43692 0.1663,0.44127 0.1608,0.44489 0.1554,0.44775 0.1499,0.44988 0.1446,0.45127 0.1391,0.4518 0.1341,0.4518 0.1287,0.4509 0.1237,0.4493 0.1186,0.4469 0.1134,0.4437 0.1085,0.44 0.1035,0.4354 0.0987,0.43 0.0937,0.4239 0.0891,0.417 0.0842,0.4094 0.0797,0.4012 0.0749,0.3921 0.0705,0.3822 0.0659,0.3716 0.0614,0.3604 0.0571,0.3482 0.0526,0.3355 0.0484,0.3219 0.0441,0.3075 0.0398,0.2925 0.0359,0.2768 0.0357,0.2781 0.0402,0.2968 0.044,0.3147 0.0477,0.3319 0.0509,0.3485 0.0539,0.3643 0.0566,0.3794 0.059,0.3939 0.0609,0.4076 0.0627,0.4206 0.0642,0.4329 0.0651,0.4445 0.0659,0.4556 0.0665,0.4657 0.0665,0.4753 0.0664,0.4841 0.0659,0.4922 0.0651,0.4997 0.064,0.5064 0.0624,0.5124 0.0609,0.5177 0.0587,0.5224 0.0563,0.5264 0.0536,0.5295 0.0507,0.532 0.0473,0.5339 0.0437,0.535 0.0396,0.5355 0.0354,0.5353 0.0308,0.5342 0.026,0.5325 0.0207,0.5301 0.0151,0.5272 0.0094,0.5233 0.003,0.5188 -0.0033,0.5137 -0.0102,0.5079 -0.0172,0.5012 -0.0247,0.494 -0.0325,0.4861 -0.0405,0.4772 -0.0488,0.4679 -0.0576,0.4579 -0.0665,0.4472 -0.076,0.4356 -0.0855,0.4235 -0.0956,0.4105 -0.1057,0.3971 -0.1163,0.3827 -0.1273,0.3678 -0.1384,0.3521 -0.1501,0.3357 -0.1618,0.3187 -0.1741,0.3009 -0.1865,0.2824 -0.1993,0.2632 -0.2123,0.2434 -0.2259,0.2227 -0.2395,0.2015 -0.2536,0.1796 -0.2681,0.1569 -0.2826,0.1334 -0.2977,0.1094 -0.224,0.042 -0.2214,0.0263 -0.2188,0.0114 -0.2164,-0.0033 -0.2137,-0.0172 -0.2111,-0.031 L 18.3502,45.2373 18.1445,45.1807 17.9416,45.1119 17.7415,45.0313 17.5442,44.9396 17.3498,44.8373 17.1583,44.7247 16.9697,44.6024 16.784,44.4707 16.6014,44.3305 16.4217,44.1817 16.2452,44.0253 16.0717,43.8617 15.9014,43.691 15.7343,43.5141 15.5703,43.3313 15.4097,43.1431 15.2523,42.95 15.0982,42.7525 14.9474,42.551 14.8,42.3462 14.6561,42.1383 14.5155,41.928 14.3786,41.7156 14.245,41.5018 14.115,41.2869 13.9887,41.0714 13.8661,40.856 13.747,40.6408 13.6316,40.4266 13.5199,40.2139 13.4121,40.003 l -0.104,-0.2087 -0.1003,-0.2057 -0.0963,-0.2024 -0.0924,-0.1986 -0.0885,-0.1944 -0.0846,-0.1896 -0.0805,-0.1843 -0.0764,-0.1786 -0.0725,-0.1723 -0.0683,-0.1658 -0.064,-0.1584 -0.06,-0.1509 -0.0557,-0.1426 -0.0515,-0.134 -0.0471,-0.125 -0.0429,-0.1153 -0.0384,-0.1051 -0.0341,-0.0947 -0.0297,-0.0836 -0.0251,-0.0721 -0.0207,-0.06 -0.0162,-0.0476 -0.0116,-0.0345 -0.0069,-0.0211 z"
         style="fill:url(#Grad63);fill-rule:evenodd;stroke:none"
         transform="rotate(100.513,21.00831,24.463194)"
         id="path2495" />
      <path
         d="m 0,14.2334 c 2.89109,-2.8066 11.0417,-3.2595 11.0417,-3.2595 0,0 -3.09304,-7.01105 1.9817,-9.54841 4.0135,-2.007353 8.8948,0.4382 11.0637,3.27543 1.3354,-0.83477 3.011,-3.26074 6.3978,-2.50798 3.2999,0.73318 2.1323,4.51534 2.1323,4.51534 0,0 10.9168,-0.69279 12.9205,8.15422 0.0906,0.3996 0.142,0.7797 0.1603,1.142 0.1751,-0.7527 0.1763,-1.5899 -0.0355,-2.5226 C 43.6601,4.63605 33.9966,5.45368 33.9966,5.45368 c 0,0 0.164,-3.53124 -3.1359,-4.26441 C 27.4739,0.436505 25.6734,2.36063 24.338,3.19662 22.1691,0.358169 16.5607,-1.06901 12.5472,0.938345 7.47252,3.47569 9.53863,9.47574 9.53863,9.47574 c 0,0 -8.01353,1.04656 -9.53863,4.75766"
         style="fill:#7885a7;fill-rule:nonzero;stroke:none"
         transform="translate(1.0246,3.93003)"
         id="path2497" />
      <path
         d="M 20.1238,11.8407 14.7688,10.5923 15.3994,10.0069 9.92222,7.00798 9.53948,8.78263 5.84455,6.71584 5.31772,9.16318 0,5.96341 0.0403991,5.61927 0.0517784,5.52175 0.0632327,5.42163 0.0747174,5.319 0.0861882,5.21393 0.0976008,5.1065 0.108911,4.9968 0.120074,4.88487 0.131045,4.77083 0.141781,4.65475 0.152237,4.53668 0.162368,4.41673 0.172131,4.29497 0.18148,4.17147 0.190371,4.04631 0.198762,3.91957 0.206605,3.79133 0.213857,3.66167 0.220474,3.53066 0.226413,3.39839 0.231627,3.26492 0.236073,3.13036 0.239706,2.99475 0.242483,2.85819 0.244358,2.72076 0.245287,2.58252 0.245226,2.44356 0.244132,2.30397 0.241958,2.16381 0.23866,2.02316 0.234195,1.88211 0.22852,1.74072 0.221586,1.59909 0.213352,1.45728 0.203774,1.31538 0.192806,1.17347 0.180404,1.03161 0.0847091,0 4.17584,2.63323 4.69302,1.02284 8.96602,3.86239 9.44326,2.83487 16.0165,8.49571 16.0009,7.39296 Z"
         style="fill:url(#Grad64);fill-rule:evenodd;stroke:none"
         transform="rotate(106.61,6.8588752,15.015117)"
         id="path2499" />
      <path
         d="M 4.60945,7.49217 5.13261,5.06253 8.82754,7.12931 9.19884,5.40533 15.8077,8.89564 15.2694,9.3947 18.7125,10.3462 15.9823,7.59311 15.9947,8.47581 9.12536,2.60953 8.65117,3.63103 4.43873,0.8309 3.92449,2.43403 0.141848,0 0.153953,0.13758 0.164774,0.27517 0.17434,0.412719 0.182691,0.550182 0.189858,0.687507 0.195875,0.824648 0.200779,0.961555 0.204603,1.09818 0.20738,1.23447 0.209145,1.37038 0.209934,1.50586 0.20978,1.64087 0.208718,1.77535 0.206781,1.90926 0.204005,2.04254 0.200424,2.17515 0.196071,2.30703 0.190982,2.43816 0.18519,2.56845 0.17873,2.69789 0.171637,2.82641 0.163944,2.95396 0.155687,3.08051 0.146898,3.20599 0.137614,3.33036 0.127869,3.45358 0.117694,3.57557 0.107128,3.69632 0.0962019,3.81577 0.0849517,3.93386 0.0734114,4.05055 0.0616152,4.16579 0.0495976,4.27952 0.037393,4.3917 0.0250356,4.5023 0.0125598,4.61124 0,4.7185 Z"
         style="fill:url(#Grad65);fill-rule:evenodd;stroke:none"
         transform="rotate(106.61,6.288972,14.720121)"
         id="path2501" />
      <path
         d="M 1.4023,4.90714 C 0.539378,4.76711 -0.0493669,3.99134 0.00326511,3.06245 0.0632411,2.02352 1.56264,0.496332 1.73278,0.325829 L 2.05836,0 2.29215,0.396943 C 2.42067,0.615427 3.5443,2.56281 3.31786,3.5835 3.111,4.51215 2.32397,5.05622 1.4023,4.90714"
         style="fill:#2489ca;fill-rule:nonzero;stroke:none"
         transform="translate(38.6055,18.7216)"
         id="path2503" />
      <path
         d="M 3.07447,0.124547 3.25392,0.224226 3.41123,0.340205 3.54594,0.470747 3.65761,0.61412 3.74581,0.768589 3.81007,0.93242 3.84997,1.10388 3.86504,1.28123 3.85485,1.46275 3.81895,1.64668 3.75688,1.83132 3.67096,2.00548 3.56524,2.15899 3.44185,2.29162 3.30293,2.40314 3.15059,2.49328 2.98698,2.56181 2.81423,2.60848 2.63446,2.63306 2.44981,2.63528 2.26242,2.61493 2.0744,2.57173 1.93785,2.5206 1.79822,2.44774 1.65656,2.35581 1.514,2.24745 1.37163,2.12526 1.23051,1.99189 1.09176,1.84998 0.956472,1.70214 0.825726,1.55102 0.70062,1.39923 0.582247,1.24941 0.471695,1.10419 0.370062,0.966207 0.278434,0.838086 0.197907,0.722459 0.129574,0.621956 0.0745232,0.539207 0.0338495,0.476845 0.0086444,0.437498 0,0.423798 0.0113567,0.420268 0.0443798,0.410202 0.0974993,0.394385 0.169145,0.373602 0.257746,0.348639 0.361734,0.320282 0.479537,0.289313 0.609586,0.256522 0.75031,0.222691 0.900138,0.188606 1.0575,0.155053 1.22083,0.122816 1.38855,0.0926825 1.55911,0.0654358 1.73091,0.0418619 1.90239,0.022746 2.07199,0.00887355 2.23813,0.00102978 2.39925,0 2.55377,0.00656953 2.70012,0.0215237 2.83673,0.0456477 2.96204,0.079727 Z"
         style="fill:url(#Grad66);fill-rule:evenodd;stroke:none"
         transform="rotate(76.9822,8.4263062,35.384426)"
         id="path2505" />
      <path
         d="M 1.77276,6.1998 C 0.682172,6.02281 -0.0620203,5.04239 0.00407568,3.86931 0.0787397,2.55608 1.97349,0.626933 2.18892,0.411019 L 2.60018,0 2.89516,0.500738 C 3.05796,0.777118 4.4778,3.2376 4.19138,4.52721 3.93067,5.70054 2.93678,6.38806 1.77276,6.1998"
         style="fill:#2489ca;fill-rule:nonzero;stroke:none"
         transform="translate(30.9412,19.0751)"
         id="path2507" />
      <path
         d="M 3.88517,0.157312 4.05416,0.247588 4.20816,0.349266 4.34699,0.461477 4.4704,0.583356 4.57818,0.714035 4.6701,0.852648 4.74594,0.998327 4.80547,1.15021 4.84848,1.30742 4.87475,1.46909 4.88405,1.63438 4.87615,1.80239 4.85083,1.97227 4.80787,2.14314 4.74705,2.31416 4.66392,2.48918 4.56499,2.64816 4.45158,2.79096 4.32498,2.91743 4.18652,3.02739 4.03747,3.12071 3.87916,3.19722 3.71288,3.25677 3.53994,3.29922 3.36163,3.3244 3.17927,3.33214 2.99415,3.32233 2.80759,3.29478 2.62087,3.24933 2.48856,3.20223 2.35375,3.13845 2.21706,3.05949 2.07912,2.96688 1.94057,2.8621 1.80202,2.74672 1.6641,2.6222 1.52747,2.49007 1.3927,2.35185 1.26048,2.20906 1.13139,2.0632 1.00608,1.91577 0.885177,1.76831 0.769306,1.62231 0.659096,1.47931 0.555175,1.34081 0.458169,1.2083 0.368709,1.08333 0.287422,0.96739 0.214936,0.862001 0.151878,0.768673 0.0988762,0.688922 0.0565599,0.62426 0.0255564,0.576199 0.00649377,0.546253 0,0.535935 0.0092279,0.533059 0.0362342,0.524773 0.0800028,0.511583 0.139518,0.493997 0.213763,0.472523 0.301722,0.447668 0.402379,0.419941 0.514718,0.38985 0.637724,0.357901 0.770378,0.324604 0.911667,0.290464 1.06057,0.255991 1.21608,0.221693 1.37717,0.188076 1.54284,0.155649 1.71206,0.12492 1.88381,0.0963959 2.05708,0.070585 2.23086,0.0479951 2.40413,0.0291338 2.57587,0.0145091 2.74506,0.00462848 2.91071,0 3.07177,0.00113135 3.22725,0.00853033 3.37611,0.0227047 3.51735,0.0441623 3.64996,0.0734109 3.77291,0.110958 Z"
         style="fill:url(#Grad67);fill-rule:evenodd;stroke:none"
         transform="rotate(76.9703,4.6057014,31.206649)"
         id="path2509" />
      <path
         d="M 1.77168,6.19993 C 0.681095,6.02318 -0.0630977,5.04337 0.00422226,3.86968 0.0788863,2.55669 1.97241,0.627055 2.18906,0.411264 L 2.5991,0 2.89531,0.501473 C 3.0581,0.777607 4.47794,3.23809 4.19153,4.52758 3.93081,5.70127 2.9357,6.38904 1.77168,6.19993"
         style="fill:#2489ca;fill-rule:nonzero;stroke:none"
         transform="translate(22.5762,18.4254)"
         id="path2511" />
      <path
         d="M 3.88478,0.157985 4.05372,0.248253 4.2077,0.349923 4.3465,0.46213 4.4699,0.584006 4.57766,0.714683 4.66958,0.853294 4.74542,0.998974 4.80496,1.15085 4.84797,1.30806 4.87424,1.46974 4.88353,1.63502 4.87561,1.80303 4.85027,1.9729 4.80728,2.14377 4.74643,2.31477 4.66338,2.48958 4.56452,2.64842 4.45115,2.79112 4.32459,2.91751 4.18613,3.02745 4.03709,3.12076 3.87878,3.19727 3.7125,3.25682 3.53956,3.29926 3.36128,3.3244 3.17894,3.3321 2.99387,3.32217 2.80737,3.29446 2.62076,3.24881 2.48837,3.20182 2.35348,3.13814 2.21674,3.05927 2.07876,2.96672 1.94017,2.86201 1.80161,2.74664 1.66369,2.62215 1.52704,2.49004 1.39229,2.35183 1.26006,2.20903 1.131,2.06314 1.00571,1.91571 0.884836,1.76821 0.768994,1.62219 0.658817,1.47914 0.55493,1.3406 0.45796,1.20806 0.368534,1.08305 0.287281,0.967066 0.214827,0.86164 0.151798,0.768278 0.0988233,0.688495 0.0565288,0.623807 0.0255421,0.575726 0.00649004,0.545767 0,0.535444 0.00922673,0.532569 0.0362297,0.524282 0.0799928,0.511091 0.139501,0.493506 0.213736,0.472032 0.301684,0.44718 0.402329,0.419455 0.514655,0.389368 0.637645,0.357426 0.770284,0.324137 0.911556,0.29001 1.06044,0.255552 1.21593,0.221271 1.37701,0.187675 1.54266,0.155273 1.71185,0.124573 1.88359,0.0960825 2.05685,0.0703101 2.23061,0.0477637 2.40385,0.0289514 2.57558,0.0143813 2.74476,0.00456141 2.91038,0 3.07143,0.0012051 3.22689,0.00868481 3.37574,0.0229472 3.51698,0.0445005 3.64958,0.0738526 3.77251,0.111512 Z"
         style="fill:url(#Grad68);fill-rule:evenodd;stroke:none"
         transform="rotate(76.9704,0.83117948,25.621061)"
         id="path2513" />
      <path
         d="M 1.77276,6.19932 C 0.682172,6.02281 -0.0620203,5.04239 0.00407568,3.86906 0.0787397,2.55608 1.97349,0.626321 2.18892,0.410774 L 2.60018,0 2.89516,0.500738 C 3.05796,0.776873 4.4778,3.23736 4.19138,4.52696 3.93067,5.70054 2.93678,6.38842 1.77276,6.19932"
         style="fill:#2489ca;fill-rule:nonzero;stroke:none"
         transform="translate(24.3781,27.7125)"
         id="path2515" />
      <path
         d="M 3.88542,0.157319 4.05434,0.247586 4.20832,0.349254 4.34711,0.461458 4.47049,0.583329 4.57824,0.714001 4.67012,0.852607 4.74594,0.99828 4.80545,1.15015 4.84842,1.30735 4.87465,1.46903 4.88392,1.6343 4.87596,1.8023 4.8506,1.97216 4.80759,2.14303 4.7467,2.31402 4.66362,2.48905 4.56476,2.64806 4.45141,2.79088 4.32486,2.91734 4.18643,3.02732 4.03743,3.12065 3.87915,3.19717 3.71289,3.25673 3.53998,3.29918 3.36172,3.32436 3.17938,3.33212 2.99431,3.32232 2.80778,3.29476 2.62111,3.24934 2.48881,3.20224 2.35401,3.13846 2.21732,3.0595 2.07938,2.96689 1.94082,2.86213 1.80228,2.74673 1.66436,2.62221 1.5277,2.49008 1.39294,2.35187 1.26068,2.20906 1.13159,2.06319 1.00626,1.91577 0.885341,1.7683 0.769453,1.6223 0.659224,1.47929 0.555286,1.34078 0.458263,1.20828 0.368786,1.0833 0.287483,0.967357 0.214982,0.861964 0.151911,0.768634 0.0988986,0.688881 0.0565729,0.624216 0.0255624,0.576153 0.00649532,0.546206 0,0.535887 0.00922867,0.533013 0.0362373,0.524726 0.0800095,0.511538 0.13953,0.493953 0.21378,0.47248 0.301747,0.447627 0.402412,0.419902 0.514761,0.389812 0.637775,0.357866 0.770439,0.324571 0.911739,0.290433 1.06066,0.255963 1.21618,0.221668 1.37728,0.188054 1.54295,0.155629 1.71218,0.124903 1.88394,0.0963816 2.05724,0.0705734 2.23102,0.0479859 2.4043,0.0291272 2.57605,0.0145048 2.74526,0.00462644 2.91092,0 3.07198,0.00113321 3.22747,0.00853381 3.37634,0.0227096 3.51758,0.0441683 3.65019,0.0734177 3.77314,0.110966 Z"
         style="fill:url(#Grad69);fill-rule:evenodd;stroke:none"
         transform="rotate(76.9704,-4.1078674,31.397499)"
         id="path2517" />
      <path
         d="M 1.77168,6.19956 C 0.681095,6.02281 -0.0630977,5.04239 0.00422226,3.86931 0.0788863,2.55608 1.97241,0.626933 2.18906,0.411019 L 2.5991,0 2.89531,0.500738 C 3.0581,0.776873 4.47794,3.23772 4.1903,4.52684 3.93081,5.70054 2.9357,6.3883 1.77168,6.19956"
         style="fill:#2489ca;fill-rule:nonzero;stroke:none"
         transform="translate(35.5849,27.5881)"
         id="path2519" />
      <path
         d="M 3.88542,0.157365 4.0543,0.247839 4.20823,0.349661 4.347,0.461971 4.47037,0.58391 4.5781,0.714621 4.67,0.853246 4.74582,0.998924 4.80533,1.1508 4.84831,1.30802 4.87456,1.46971 4.88381,1.63501 4.87587,1.80309 4.85048,1.97306 4.80746,2.14408 4.74654,2.31528 4.66338,2.4903 4.56446,2.64929 4.45104,2.79209 4.32447,2.91855 4.18602,3.02853 4.03701,3.12185 3.87872,3.19837 3.71248,3.25793 3.53956,3.30038 3.36129,3.32557 3.17895,3.33333 2.99386,3.32351 2.80731,3.29596 2.6206,3.25053 2.48829,3.20342 2.35349,3.13962 2.21682,3.06065 2.0789,2.96799 1.94036,2.86319 1.80183,2.74776 1.66393,2.62319 1.52729,2.49101 1.39256,2.35274 1.26034,2.20987 1.13127,2.06393 1.00598,1.91644 0.885084,1.76891 0.769225,1.62285 0.659026,1.47978 0.555116,1.3412 0.458121,1.20864 0.36867,1.0836 0.287392,0.967605 0.214912,0.862164 0.151862,0.76879 0.0988658,0.688998 0.0565539,0.624302 0.0255537,0.576218 0.00649309,0.546257 0,0.535933 0.00922714,0.533058 0.0362313,0.52477 0.0799966,0.511579 0.139508,0.493993 0.213747,0.472518 0.301701,0.447662 0.402352,0.419934 0.514686,0.38984 0.637684,0.35789 0.770334,0.324591 0.911618,0.29045 1.06052,0.255978 1.21602,0.221677 1.37711,0.18806 1.54278,0.155634 1.712,0.124904 1.88375,0.0963809 2.05703,0.0705711 2.23081,0.0479826 2.4041,0.0291235 2.57585,0.0145015 2.74506,0.00462436 2.91072,0 3.0718,0.00113624 3.2273,0.0085409 3.3762,0.0227218 3.51747,0.0441869 3.6501,0.0734439 3.77309,0.111001 Z"
         style="fill:url(#Grad70);fill-rule:evenodd;stroke:none"
         transform="rotate(76.9704,1.5736816,38.383751)"
         id="path2521" />
      <path
         d="M 1.77168,6.19993 C 0.681095,6.02318 -0.0630977,5.04276 0.00422226,3.86943 0.0788863,2.55645 1.97241,0.627055 2.18784,0.411142 L 2.5991,0 2.89409,0.501228 C 3.05688,0.77724 4.47672,3.23772 4.1903,4.52733 3.92959,5.70066 2.9357,6.38879 1.77168,6.19993"
         style="fill:#2489ca;fill-rule:nonzero;stroke:none"
         transform="translate(16.6655,26.4132)"
         id="path2523" />
      <path
         d="M 3.88542,0.157319 4.05434,0.247586 4.20831,0.349252 4.3471,0.461455 4.47046,0.583324 4.5782,0.713995 4.67009,0.852599 4.7459,0.99827 4.8054,1.15014 4.84837,1.30734 4.8746,1.46902 4.88386,1.63428 4.87593,1.80229 4.85057,1.97216 4.80757,2.14302 4.7467,2.31402 4.66362,2.48905 4.56475,2.64805 4.45137,2.79087 4.3248,2.91733 4.18635,3.02731 4.03732,3.12062 3.87902,3.19714 3.71275,3.2567 3.53983,3.29915 3.36156,3.32432 3.17924,3.3321 2.99419,3.32228 2.80771,3.29475 2.62111,3.24934 2.4888,3.20224 2.35398,3.13846 2.21729,3.0595 2.07934,2.96688 1.94079,2.86212 1.80223,2.74672 1.6643,2.6222 1.52765,2.49007 1.39288,2.35185 1.26063,2.20905 1.13154,2.06317 1.00621,1.91576 0.885296,1.76829 0.769411,1.6223 0.659188,1.47929 0.555253,1.34077 0.458235,1.20827 0.368763,1.08329 0.287465,0.967353 0.214967,0.86196 0.151901,0.768632 0.0988914,0.688878 0.0565686,0.624214 0.0255604,0.576153 0.0064948,0.546206 0,0.535887 0.00922867,0.533013 0.0362373,0.524726 0.0800095,0.511538 0.13953,0.493953 0.21378,0.47248 0.301747,0.447627 0.402412,0.419902 0.514761,0.389812 0.637775,0.357866 0.770439,0.324571 0.911739,0.290433 1.06066,0.255963 1.21618,0.221668 1.37728,0.188054 1.54295,0.155629 1.71218,0.124903 1.88394,0.0963816 2.05724,0.0705734 2.23102,0.0479859 2.4043,0.0291272 2.57605,0.0145048 2.74526,0.00462644 2.91092,0 3.07198,0.00113321 3.22747,0.00853381 3.37634,0.0227096 3.51758,0.0441683 3.65019,0.0734177 3.77314,0.110966 Z"
         style="fill:url(#Grad71);fill-rule:evenodd;stroke:none"
         transform="rotate(76.9704,-7.1478138,25.896753)"
         id="path2525" />
      <path
         d="M 1.77168,6.19968 C 0.681095,6.02294 -0.0630977,5.04276 0.00422226,3.86943 0.0788863,2.55632 1.97241,0.626688 2.18784,0.411142 L 2.5991,0 2.89531,0.500861 C 3.05688,0.77724 4.47794,3.23772 4.1903,4.52721 3.92959,5.7009 2.9357,6.38842 1.77168,6.19968"
         style="fill:#2489ca;fill-rule:nonzero;stroke:none"
         transform="translate(21.1087,37.1571)"
         id="path2527" />
      <path
         d="M 3.88514,0.157485 4.05407,0.24775 4.20804,0.349419 4.34683,0.461623 4.47022,0.583494 4.57797,0.714167 4.66987,0.852775 4.74568,0.99845 4.8052,1.15032 4.8482,1.30754 4.87446,1.4692 4.88374,1.63448 4.87582,1.80249 4.85048,1.97237 4.8075,2.14324 4.74666,2.31424 4.66351,2.48926 4.56458,2.64825 4.45116,2.79105 4.32455,2.9175 4.18608,3.02747 4.03703,3.12078 3.87872,3.1973 3.71245,3.25686 3.53953,3.2993 3.36126,3.32449 3.17895,3.33225 2.9939,3.32245 2.80743,3.29491 2.62083,3.2495 2.4885,3.20239 2.35367,3.13858 2.21696,3.0596 2.07901,2.96695 1.94044,2.86214 1.80189,2.74669 1.66398,2.62213 1.52733,2.48993 1.39257,2.35166 1.26034,2.20879 1.13126,2.06286 1.00596,1.91538 0.885068,1.76784 0.769207,1.62178 0.659008,1.4787 0.555096,1.34012 0.458103,1.20756 0.368654,1.08252 0.287377,0.966528 0.214901,0.861086 0.151852,0.767714 0.0988594,0.687923 0.05655,0.623228 0.0255519,0.575143 0.00649259,0.545182 0,0.534859 0.00922777,0.531988 0.0362337,0.523713 0.0800017,0.510543 0.139516,0.492982 0.213761,0.47154 0.301718,0.446722 0.402374,0.419038 0.514712,0.388993 0.637715,0.357095 0.770368,0.323851 0.911655,0.289769 1.06056,0.255355 1.21607,0.221117 1.37716,0.187562 1.54282,0.155197 1.71203,0.124531 1.88378,0.0960682 2.05705,0.0703179 2.23084,0.0477869 2.4041,0.0289825 2.57585,0.0144116 2.74504,0.00458171 2.91067,0 3.07174,0.00117368 3.22721,0.00861 3.37607,0.0228162 3.51731,0.0442995 3.64992,0.0735671 3.77287,0.111126 Z"
         style="fill:url(#Grad72);fill-rule:evenodd;stroke:none"
         transform="rotate(76.9703,-11.683394,34.063421)"
         id="path2529" />
      <path
         d="M 1.77276,6.19956 C 0.682172,6.02281 -0.0620203,5.04251 0.00407568,3.86906 0.0799637,2.55608 1.97349,0.626688 2.18892,0.410774 L 2.60018,0 2.89516,0.500861 C 3.05796,0.776995 4.4778,3.23772 4.19138,4.52696 3.93067,5.70054 2.93678,6.38806 1.77276,6.19956"
         style="fill:#2489ca;fill-rule:nonzero;stroke:none"
         transform="translate(13.8272,35.4424)"
         id="path2531" />
      <path
         d="M 3.88506,0.157274 4.05403,0.24755 4.20804,0.349228 4.34686,0.461439 4.47028,0.583318 4.57805,0.713997 4.66998,0.85261 4.74582,0.99829 4.80536,1.15017 4.84837,1.30738 4.87464,1.46906 4.88393,1.63433 4.87602,1.80235 4.85071,1.97223 4.80776,2.1431 4.74694,2.31411 4.66379,2.48914 4.56487,2.64812 4.45146,2.79093 4.32487,2.91739 4.18641,3.02736 4.03739,3.12067 3.87909,3.1972 3.71283,3.25676 3.53992,3.29921 3.36164,3.32438 3.17933,3.33214 2.99426,3.32234 2.80776,3.2948 2.62111,3.24938 2.4888,3.20228 2.35398,3.1385 2.21729,3.05953 2.07934,2.96691 1.94079,2.86215 1.80223,2.74675 1.6643,2.62224 1.52765,2.49011 1.39288,2.35189 1.26063,2.20909 1.13154,2.06322 1.00621,1.91579 0.885296,1.76833 0.769411,1.62234 0.659188,1.47933 0.555253,1.34081 0.458235,1.20831 0.368763,1.08333 0.287465,0.96739 0.214967,0.861997 0.151901,0.768668 0.0988914,0.688916 0.0565686,0.624251 0.0255604,0.576189 0.0064948,0.546243 0,0.535925 0.00922865,0.53305 0.0362371,0.524763 0.0800091,0.511574 0.139529,0.493989 0.213779,0.472517 0.301744,0.447663 0.402407,0.419937 0.514753,0.389848 0.637765,0.3579 0.770427,0.324605 0.911722,0.290466 1.06063,0.255995 1.21615,0.221698 1.37724,0.188082 1.54291,0.155656 1.71213,0.124928 1.88388,0.0964037 2.05715,0.0705926 2.23094,0.0480021 2.40421,0.0291399 2.57593,0.0145136 2.74513,0.00463108 2.91076,0 3.0718,0.00112814 3.22726,0.00852325 3.37611,0.0226931 3.51732,0.0441453 3.64989,0.0733877 3.77282,0.110928 Z"
         style="fill:url(#Grad73);fill-rule:evenodd;stroke:none"
         transform="rotate(76.9703,-14.245095,28.627001)"
         id="path2533" />
      <path
         d="M 1.77168,6.19993 C 0.681095,6.02281 -0.0630977,5.04276 0.00422226,3.86906 0.0788863,2.55608 1.97241,0.626566 2.18784,0.411019 L 2.5991,0 2.89531,0.500738 C 3.05688,0.776873 4.47672,3.23772 4.1903,4.52721 3.92959,5.70054 2.9357,6.38842 1.77168,6.19993"
         style="fill:#2489ca;fill-rule:nonzero;stroke:none"
         transform="translate(8.12692,29.0017)"
         id="path2535" />
      <path
         d="M 3.88478,0.15745 4.05375,0.247727 4.20777,0.349404 4.3466,0.461616 4.47,0.583494 4.57778,0.714173 4.66971,0.852787 4.74555,0.998466 4.80508,1.15034 4.84809,1.30756 4.87436,1.46924 4.88365,1.63452 4.87576,1.80252 4.85044,1.9724 4.80748,2.14329 4.74666,2.31429 4.66353,2.48931 4.56459,2.6483 4.45119,2.7911 4.3246,2.91756 4.18614,3.02753 4.03711,3.12086 3.87881,3.19737 3.71255,3.25693 3.53964,3.29938 3.36137,3.32456 3.17905,3.33233 2.99398,3.32251 2.80748,3.29497 2.62083,3.24955 2.48853,3.20245 2.35372,3.13864 2.21702,3.05967 2.07909,2.96701 1.94053,2.86221 1.80199,2.74677 1.66408,2.6222 1.52743,2.49001 1.39268,2.35173 1.26045,2.20887 1.13137,2.06293 1.00606,1.91544 0.885158,1.76791 0.769289,1.62185 0.659081,1.47876 0.555162,1.34019 0.458159,1.20762 0.368701,1.08258 0.287415,0.966585 0.214931,0.861143 0.151874,0.767767 0.0988737,0.687975 0.0565585,0.623279 0.0255558,0.575193 0.00649361,0.545231 0,0.534908 0.00922737,0.532036 0.0362321,0.523762 0.0799982,0.51059 0.139509,0.49303 0.21375,0.471586 0.301704,0.446769 0.402355,0.419082 0.514686,0.389036 0.637683,0.357136 0.770328,0.323891 0.911607,0.289806 1.0605,0.25539 1.216,0.22115 1.37707,0.187593 1.54273,0.155225 1.71194,0.124555 1.88367,0.0960902 2.05693,0.0703368 2.23069,0.0478025 2.40395,0.0289942 2.57566,0.0144197 2.74484,0.00458586 2.91046,0 3.07151,0.00116936 3.22697,0.00860116 3.3758,0.0228026 3.51703,0.044281 3.6496,0.0735436 3.77253,0.111097 Z"
         style="fill:url(#Grad74);fill-rule:evenodd;stroke:none"
         transform="rotate(76.9703,-13.045144,21.821262)"
         id="path2537" />
      <path
         d="M 1.77168,6.1998 C 0.681095,6.02306 -0.0630977,5.04288 0.00422226,3.86955 0.0788863,2.55657 1.97241,0.626933 2.18784,0.411019 L 2.5991,0 2.89531,0.500983 C 3.0581,0.777118 4.47794,3.2376 4.1903,4.52721 3.93081,5.70078 2.9357,6.38891 1.77168,6.1998"
         style="fill:#2489ca;fill-rule:nonzero;stroke:none"
         transform="translate(30.2299,34.7173)"
         id="path2539" />
      <path
         d="M 3.88466,0.157469 4.05368,0.247756 4.20773,0.349442 4.34658,0.461661 4.47002,0.583547 4.57783,0.714231 4.66977,0.852848 4.74563,0.998531 4.80518,1.15041 4.8482,1.30762 4.87447,1.46931 4.88377,1.63459 4.87588,1.8026 4.85055,1.97248 4.8076,2.14336 4.74678,2.31436 4.66364,2.48938 4.5647,2.64837 4.45127,2.79117 4.32466,2.91762 4.18617,3.02759 4.03711,3.12089 3.87877,3.19741 3.71247,3.25695 3.53949,3.29939 3.36117,3.32456 3.17879,3.33232 2.99365,3.32249 2.80707,3.29492 2.62035,3.24949 2.48805,3.20239 2.35324,3.13858 2.21657,3.05961 2.07865,2.96695 1.9401,2.86215 1.80157,2.74672 1.66369,2.62215 1.52706,2.48997 1.39234,2.3517 1.26013,2.20884 1.13107,2.06292 1.00579,1.91543 0.88492,1.7679 0.769078,1.62184 0.658898,1.47878 0.555004,1.34019 0.458027,1.20764 0.368593,1.0826 0.28733,0.966612 0.214866,0.861173 0.151827,0.767803 0.0988434,0.688014 0.056541,0.623321 0.0255477,0.575237 0.00649155,0.545277 0,0.534954 0.00922622,0.532083 0.0362276,0.523807 0.0799884,0.510634 0.139493,0.493071 0.213725,0.471627 0.301668,0.446807 0.402308,0.419118 0.514628,0.389069 0.637612,0.357167 0.770245,0.323918 0.91151,0.28983 1.06039,0.255411 1.21588,0.221168 1.37694,0.187607 1.54258,0.155237 1.71176,0.124565 1.8835,0.0960972 2.05675,0.0703416 2.23051,0.0478054 2.40375,0.0289958 2.57547,0.0144202 2.74465,0.00458585 2.91027,0 3.07131,0.00116994 3.22677,0.00860295 3.37562,0.0228063 3.51686,0.0442873 3.64944,0.0735532 3.77239,0.111111 Z"
         style="fill:url(#Grad75);fill-rule:evenodd;stroke:none"
         transform="rotate(76.9703,-5.5883659,38.580145)"
         id="path2541" />
    </g>
  </g>
</svg>
